<?xml version="1.0" encoding="UTF-8" standalone="no"?>
<!-- Created with Inkscape (http://www.inkscape.org/) -->
<svg
   xmlns:dc="http://purl.org/dc/elements/1.1/"
   xmlns:cc="http://web.resource.org/cc/"
   xmlns:rdf="http://www.w3.org/1999/02/22-rdf-syntax-ns#"
   xmlns:svg="http://www.w3.org/2000/svg"
   xmlns="http://www.w3.org/2000/svg"
   xmlns:xlink="http://www.w3.org/1999/xlink"
   xmlns:sodipodi="http://sodipodi.sourceforge.net/DTD/sodipodi-0.dtd"
   xmlns:inkscape="http://www.inkscape.org/namespaces/inkscape"
   width="639.19879"
   height="576.93311"
   id="svg22648"
   sodipodi:version="0.32"
   inkscape:version="0.44"
   sodipodi:docbase="/home/yekcim/Desktop/Stock_SVG"
   sodipodi:docname="Perso_Poulpe.svg"
   version="1.0">
  <defs
     id="defs22650">
    <linearGradient
       inkscape:collect="always"
       xlink:href="#linearGradient3203"
       id="linearGradient3245"
       gradientUnits="userSpaceOnUse"
       gradientTransform="matrix(0.88889,0,0,8.529412,-83.95082,-1352.27)"
       x1="214.71347"
       y1="165.45297"
       x2="214.71347"
       y2="78.572083" />
    <linearGradient
       inkscape:collect="always"
       xlink:href="#linearGradient3203"
       id="linearGradient3241"
       gradientUnits="userSpaceOnUse"
       gradientTransform="matrix(1.444446,0,0,1.32353,-197.6316,-322.9249)"
       x1="214.71347"
       y1="165.45297"
       x2="214.71347"
       y2="78.572083" />
    <linearGradient
       inkscape:collect="always"
       xlink:href="#linearGradient3203"
       id="linearGradient3237"
       gradientUnits="userSpaceOnUse"
       gradientTransform="matrix(1.444446,0,0,1.32353,-197.6316,-277.2219)"
       x1="214.71347"
       y1="165.45297"
       x2="214.71347"
       y2="78.572083" />
    <linearGradient
       inkscape:collect="always"
       xlink:href="#linearGradient3203"
       id="linearGradient3233"
       gradientUnits="userSpaceOnUse"
       gradientTransform="matrix(0.555556,0,0,1.441177,126.0458,12.41774)"
       x1="214.71347"
       y1="165.45297"
       x2="214.71347"
       y2="78.572083" />
    <linearGradient
       inkscape:collect="always"
       xlink:href="#linearGradient3203"
       id="linearGradient3229"
       gradientUnits="userSpaceOnUse"
       x1="214.71347"
       y1="165.45297"
       x2="214.71347"
       y2="78.572083"
       gradientTransform="matrix(0.555556,0,0,1.441177,125.9723,-8.618513)" />
    <linearGradient
       inkscape:collect="always"
       xlink:href="#linearGradient3203"
       id="linearGradient3225"
       gradientUnits="userSpaceOnUse"
       gradientTransform="matrix(0.665438,0,0,0.909717,-30.82007,-286.878)"
       x1="214.71347"
       y1="165.45297"
       x2="214.71347"
       y2="78.572083" />
    <linearGradient
       inkscape:collect="always"
       xlink:href="#linearGradient3203"
       id="linearGradient3221"
       gradientUnits="userSpaceOnUse"
       gradientTransform="matrix(1.444445,0,0,0.911765,-108.7771,-7.959901)"
       x1="214.71347"
       y1="165.45297"
       x2="214.71347"
       y2="78.572083" />
    <linearGradient
       inkscape:collect="always"
       xlink:href="#linearGradient3203"
       id="linearGradient3217"
       gradientUnits="userSpaceOnUse"
       gradientTransform="matrix(1,0,0,1.617647,209.7359,-70.07704)"
       x1="214.71347"
       y1="165.45297"
       x2="214.71347"
       y2="78.572083" />
    <linearGradient
       inkscape:collect="always"
       xlink:href="#linearGradient3203"
       id="linearGradient3213"
       gradientUnits="userSpaceOnUse"
       x1="214.71347"
       y1="165.45297"
       x2="214.71347"
       y2="78.572083"
       gradientTransform="matrix(1,0,0,1.529412,62.67191,-60.84175)" />
    <linearGradient
       id="linearGradient3203">
      <stop
         style="stop-color:#fffdfd;stop-opacity:1;"
         offset="0"
         id="stop3205" />
      <stop
         style="stop-color:#ffffff;stop-opacity:0;"
         offset="1"
         id="stop3207" />
    </linearGradient>
    <linearGradient
       inkscape:collect="always"
       xlink:href="#linearGradient3203"
       id="linearGradient3209"
       x1="214.71347"
       y1="165.45297"
       x2="214.71347"
       y2="78.572083"
       gradientUnits="userSpaceOnUse" />
    <linearGradient
       inkscape:collect="always"
       id="linearGradient3179">
      <stop
         style="stop-color:#bb1616;stop-opacity:1;"
         offset="0"
         id="stop3181" />
      <stop
         style="stop-color:#bb1616;stop-opacity:0;"
         offset="1"
         id="stop3183" />
    </linearGradient>
    <linearGradient
       inkscape:collect="always"
       xlink:href="#linearGradient3179"
       id="linearGradient3185"
       x1="129.41269"
       y1="116.09729"
       x2="168.95546"
       y2="116.09729"
       gradientUnits="userSpaceOnUse"
       gradientTransform="matrix(0.986283,0,0,0.951205,1.771595,5.665747)" />
    <linearGradient
       inkscape:collect="always"
       xlink:href="#linearGradient3093"
       id="linearGradient3117"
       x1="426.34293"
       y1="94.70826"
       x2="426.34293"
       y2="137.12685"
       gradientUnits="userSpaceOnUse"
       gradientTransform="translate(-2,0)" />
    <linearGradient
       inkscape:collect="always"
       xlink:href="#linearGradient3093"
       id="linearGradient3099"
       x1="477.15906"
       y1="108.89209"
       x2="477.15906"
       y2="129.39427"
       gradientUnits="userSpaceOnUse"
       gradientTransform="matrix(0.960784,0,0,1,20.15014,0)" />
    <linearGradient
       inkscape:collect="always"
       xlink:href="#linearGradient3125"
       id="linearGradient3131"
       x1="351.93063"
       y1="97.584084"
       x2="351.85315"
       y2="128.73721"
       gradientUnits="userSpaceOnUse"
       gradientTransform="matrix(0.972569,0,0,1,7.984538,0)" />
    <linearGradient
       id="linearGradient3125">
      <stop
         style="stop-color:#572f25;stop-opacity:1;"
         offset="0"
         id="stop3127" />
      <stop
         id="stop3133"
         offset="0.38967136"
         style="stop-color:#9f7f5b;stop-opacity:1;" />
      <stop
         style="stop-color:#765336;stop-opacity:1;"
         offset="0.51001787"
         id="stop3135" />
      <stop
         style="stop-color:#4e2812;stop-opacity:1;"
         offset="1"
         id="stop3129" />
    </linearGradient>
    <linearGradient
       inkscape:collect="always"
       xlink:href="#linearGradient3125"
       id="linearGradient3151"
       x1="252.86461"
       y1="128.27216"
       x2="255.00316"
       y2="174.64114"
       gradientUnits="userSpaceOnUse"
       gradientTransform="matrix(1,0,0,0.94593,0,9.083333)" />
    <linearGradient
       id="linearGradient3169">
      <stop
         id="stop3171"
         offset="0"
         style="stop-color:#575425;stop-opacity:1;" />
      <stop
         style="stop-color:#9f9c5b;stop-opacity:1;"
         offset="0.38967136"
         id="stop3173" />
      <stop
         id="stop3175"
         offset="0.51574862"
         style="stop-color:#6e6e33;stop-opacity:1;" />
      <stop
         id="stop3177"
         offset="1"
         style="stop-color:#2f3514;stop-opacity:1;" />
    </linearGradient>
    <linearGradient
       inkscape:collect="always"
       xlink:href="#linearGradient3169"
       id="linearGradient3167"
       x1="149.71832"
       y1="94.545212"
       x2="149.58385"
       y2="141.27757"
       gradientUnits="userSpaceOnUse"
       gradientTransform="matrix(0.986283,0,0,0.951205,1.771595,5.665747)" />
    <linearGradient
       id="linearGradient3137">
      <stop
         style="stop-color:#ffffff;stop-opacity:1;"
         offset="0"
         id="stop3139" />
      <stop
         style="stop-color:#d0d0d0;stop-opacity:1;"
         offset="1"
         id="stop3141" />
    </linearGradient>
    <radialGradient
       inkscape:collect="always"
       xlink:href="#linearGradient3137"
       id="radialGradient3143"
       cx="246.7504"
       cy="130.04575"
       fx="246.7504"
       fy="130.04575"
       r="21.09375"
       gradientTransform="matrix(1.357882,0.238588,-0.109601,0.623777,-74.05433,-8.280619)"
       gradientUnits="userSpaceOnUse" />
    <linearGradient
       id="linearGradient3093">
      <stop
         style="stop-color:#262626;stop-opacity:1;"
         offset="0"
         id="stop3095" />
      <stop
         id="stop3101"
         offset="0.19014084"
         style="stop-color:#bfbfbf;stop-opacity:1;" />
      <stop
         style="stop-color:#787676;stop-opacity:1;"
         offset="0.25857964"
         id="stop3103" />
      <stop
         id="stop3105"
         offset="0.35604334"
         style="stop-color:#b6b6b6;stop-opacity:1;" />
      <stop
         style="stop-color:#494949;stop-opacity:1;"
         offset="0.67802167"
         id="stop3107" />
      <stop
         style="stop-color:#242424;stop-opacity:1;"
         offset="1"
         id="stop3097" />
    </linearGradient>
    <linearGradient
       inkscape:collect="always"
       xlink:href="#linearGradient3093"
       id="linearGradient3159"
       x1="237.61609"
       y1="105.55305"
       x2="237.61609"
       y2="132.45361"
       gradientUnits="userSpaceOnUse"
       gradientTransform="matrix(0.973783,0,0,1,6.209692,0)" />
    <linearGradient
       id="linearGradient2804">
      <stop
         style="stop-color:#cda8d3;stop-opacity:1;"
         offset="0"
         id="stop2806" />
      <stop
         style="stop-color:#734491;stop-opacity:1;"
         offset="1"
         id="stop2808" />
    </linearGradient>
    <linearGradient
       inkscape:collect="always"
       xlink:href="#linearGradient2804"
       id="linearGradient5437"
       gradientUnits="userSpaceOnUse"
       x1="-611.70215"
       y1="248.93616"
       x2="-502.12766"
       y2="546.80853"
       gradientTransform="matrix(1.703869,0.114275,-0.118088,1.760722,1390.789,-203.9507)" />
    <linearGradient
       id="linearGradient5443">
      <stop
         style="stop-color:#d6c176;stop-opacity:1;"
         offset="0"
         id="stop5445" />
      <stop
         style="stop-color:#855d29;stop-opacity:1;"
         offset="1"
         id="stop5447" />
    </linearGradient>
    <linearGradient
       id="linearGradient8944">
      <stop
         style="stop-color:#b9e48d;stop-opacity:1;"
         offset="0"
         id="stop8946" />
      <stop
         id="stop8962"
         offset="0.7230047"
         style="stop-color:#5d7538;stop-opacity:1;" />
      <stop
         style="stop-color:#525d36;stop-opacity:1;"
         offset="1"
         id="stop8948" />
    </linearGradient>
    <linearGradient
       id="linearGradient6401">
      <stop
         id="stop6403"
         offset="0"
         style="stop-color:#a4502e;stop-opacity:1" />
      <stop
         id="stop6405"
         offset="1"
         style="stop-color:#855d29;stop-opacity:1;" />
    </linearGradient>
  </defs>
  <sodipodi:namedview
     id="base"
     pagecolor="#ffffff"
     bordercolor="#666666"
     borderopacity="1.0"
     inkscape:pageopacity="0.0"
     inkscape:pageshadow="2"
     inkscape:zoom="0.35"
     inkscape:cx="375"
     inkscape:cy="518.57143"
     inkscape:document-units="px"
     inkscape:current-layer="layer1"
     inkscape:window-width="1024"
     inkscape:window-height="626"
     inkscape:window-x="140"
     inkscape:window-y="219" />
  <metadata
     id="metadata22653">
    <rdf:RDF>
      <cc:Work
         rdf:about="">
        <dc:format>image/svg+xml</dc:format>
        <dc:type
           rdf:resource="http://purl.org/dc/dcmitype/StillImage" />
      </cc:Work>
    </rdf:RDF>
  </metadata>
  <g
     inkscape:label="Calque 1"
     inkscape:groupmode="layer"
     id="layer1"
     transform="translate(-91.82919,-172.4671)">
    <path
       style="fill:#cea0ec;fill-opacity:1;fill-rule:evenodd;stroke:#385c90;stroke-width:29.51121902;stroke-linecap:butt;stroke-linejoin:miter;stroke-miterlimit:4;stroke-dasharray:none;stroke-opacity:1;display:inline"
       d="M 579.16918,343.10435 C 595.17537,265.38656 526.97795,189.97737 445.77045,187.39784 C 285.88235,182.31904 263.29001,288.9394 264.20275,342.67703 C 265.67446,429.32631 329.92051,484.89306 296.0226,519.79383 C 269.90658,546.68248 196.39624,605.54787 164.67001,605.06098 C 128.29183,604.50271 97.082392,662.61867 109.2683,670.96205 C 121.45418,679.30555 138.88587,638.72435 163.97012,642.64475 C 191.13873,646.89093 214.47244,649.79493 242.54124,638.50668 C 270.61002,627.21847 322.06349,593.03867 322.06349,593.03867 C 322.06349,593.03867 379.06256,611.91375 379.6907,602.54823 C 380.31881,593.18269 419.09432,662.03708 414.79471,676.40096 C 405.40855,707.75752 360.13345,709.70012 360.77485,721.69784 C 361.58249,736.80419 428.89737,726.43252 437.28209,721.18442 C 456.28775,709.28836 468.04289,696.90593 461.86916,653.21664 C 458.58259,629.95871 444.13764,591.81828 444.13764,591.81828 C 444.13764,591.81828 493.18633,647.79084 493.99395,662.89731 C 494.80158,678.00378 497.22443,723.32306 517.0377,726.53347 C 536.85097,729.74375 592.53994,741.00484 593.29369,729.76628 C 594.04745,718.5276 598.42645,707.53204 578.48755,706.19487 C 558.54864,704.85758 549.06822,690.11019 538.80712,673.42891 C 528.54602,656.74775 525.38288,629.25333 522.26013,621.51776 C 519.13736,613.78218 505.21063,577.09899 505.21063,577.09899 L 558.6383,622.07604 C 558.6383,622.07604 594.44221,658.34496 610.12775,668.80458 C 625.81326,679.26432 668.93944,687.80124 681.32271,666.05337 C 685.1283,659.36989 616.51675,627.83936 616.51675,627.83936 L 584.58935,588.06737 L 579.22324,559.48445 L 655.35358,564.59038 C 655.35358,564.59038 710.05547,536.27304 715.43949,510.29266 C 720.82353,484.31226 698.9642,430.16325 682.65054,429.06912 C 666.3369,427.97498 684.7683,451.78955 684.7683,451.78955 C 684.7683,451.78955 692.37779,501.21982 675.56163,507.61812 C 658.74548,514.01643 617.18067,509.34724 603.05653,502.75535 C 588.9324,496.16347 572.01504,493.1378 546.55995,476.38779 C 518.68402,458.04484 571.37234,380.96189 579.16918,343.10435 z "
       id="path2802"
       sodipodi:nodetypes="cssssssscssssscssssssccssccccsscssss" />
    <path
       style="fill:url(#linearGradient5437);fill-opacity:1;fill-rule:evenodd;stroke:#3b5881;stroke-width:0;stroke-linecap:butt;stroke-linejoin:miter;stroke-miterlimit:4;stroke-dasharray:none;stroke-opacity:1;display:inline"
       d="M 580.26296,343.1777 C 596.26915,265.45992 528.07173,190.05072 446.86422,187.4712 C 286.97612,182.3924 264.38379,289.01275 265.29651,342.75039 C 266.76823,429.39966 331.01427,484.96642 297.11635,519.86718 C 271.00035,546.75584 197.49002,605.62124 165.76378,605.13434 C 129.38561,604.57606 98.176156,662.69197 110.36205,671.03547 C 122.54795,679.37885 139.97965,638.79771 165.0639,642.71817 C 192.2325,646.96422 215.56621,649.86822 243.635,638.58005 C 271.70379,627.29183 323.15724,593.11203 323.15724,593.11203 C 323.15724,593.11203 380.15633,611.98711 380.78445,602.62159 C 381.41257,593.25604 420.18807,662.1105 415.88847,676.47425 C 406.50233,707.83082 361.22722,709.77341 361.86862,721.77113 C 362.67624,736.8776 429.99114,726.50594 438.37586,721.25772 C 457.38152,709.36165 469.13667,696.97934 462.96292,653.28993 C 459.67634,630.03206 445.23142,591.89165 445.23142,591.89165 C 445.23142,591.89165 494.2801,647.86425 495.08772,662.9706 C 495.89533,678.07707 498.31818,723.39648 518.13146,726.60676 C 537.94474,729.81717 593.6337,741.07825 594.38746,729.83957 C 595.1412,718.60101 599.52023,707.60545 579.58132,706.26816 C 559.64242,704.93087 550.162,690.1836 539.9009,673.50232 C 529.63977,656.82104 526.47663,629.32669 523.35388,621.59111 C 520.23113,613.85553 506.30439,577.17234 506.30439,577.17234 L 559.73208,622.1494 C 559.73208,622.1494 595.53599,658.41838 611.22151,668.87799 C 626.90703,679.33761 670.03319,687.87466 682.41648,666.12678 C 686.22208,659.44319 617.61051,627.91272 617.61051,627.91272 L 585.68312,588.14073 L 580.31699,559.55781 L 656.44734,564.66373 C 656.44734,564.66373 711.14925,536.34642 716.53328,510.36601 C 721.91712,484.38562 700.05796,430.2366 683.74432,429.14248 C 667.43068,428.04833 685.86207,451.8629 685.86207,451.8629 C 685.86207,451.8629 693.47155,501.29317 676.6554,507.69148 C 659.83925,514.0898 618.27442,509.42059 604.15031,502.8287 C 590.02616,496.23682 573.10879,493.21116 547.65373,476.46117 C 519.77779,458.11821 572.4661,381.03527 580.26296,343.1777 z "
       id="path1922"
       sodipodi:nodetypes="cssssssscssssscssssssccssccccsscssss" />
    <path
       style="fill:#6a3882;fill-opacity:1;fill-rule:evenodd;stroke:#4f7ab6;stroke-width:0;stroke-linecap:butt;stroke-linejoin:miter;stroke-miterlimit:4;stroke-dasharray:none;stroke-opacity:1;display:inline"
       d="M 580.12707,306.77194 C 571.80328,341.59797 537.7513,427.54763 539.55776,456.03639 C 549.15214,425.89204 573.29875,366.02872 580.06096,340.99852 C 583.03014,330.0081 581.08965,317.626 580.12707,306.77194 z M 265.26614,313.03488 C 263.25213,325.15094 262.66761,336.48823 262.83162,346.14419 C 263.81875,404.26249 296.47306,466.83839 305.3852,500.13311 C 303.02708,446.417 267.57097,393.44613 265.26614,313.03488 z M 680.75268,432.48332 C 665.42775,431.97236 683.39653,455.26611 683.39653,455.26611 C 683.39653,455.26611 684.09292,459.68386 684.59747,466.06903 C 687.68532,457.32339 687.7686,444.75581 687.21862,434.96198 C 685.20732,433.50728 683.19689,432.64725 681.28512,432.51903 C 681.09395,432.5062 680.93437,432.48936 680.75268,432.48332 z M 712.91427,487.25746 C 699.51018,510.46662 687.24911,529.26235 654.07835,539.37669 C 620.90759,549.49105 566.31721,527.7401 566.31721,527.7401 L 581.70168,558.93178 L 591.66023,563.8542 L 654.01121,568.03597 C 654.0112,568.03594 708.69489,539.73507 714.07883,513.75466 C 715.57845,506.51851 714.93313,497.10902 712.91427,487.25746 z M 500.02105,554.52516 C 500.02105,554.52516 506.68989,575.38767 509.81264,583.12327 C 510.60713,585.09137 524.84587,594.98527 525.76183,599.00788 L 557.30295,625.55268 C 557.30293,625.5527 593.09205,661.82173 608.77758,672.28147 C 624.46311,682.7412 667.55352,691.28516 679.93681,669.53728 C 681.84712,666.18232 665.51341,656.5716 648.76682,647.82588 C 634.22507,647.24536 619.1304,642.39567 611.13934,637.06701 C 595.45383,626.60734 559.66469,590.33824 559.66471,590.33823 L 500.02105,554.52516 z M 445.15115,560.05256 C 445.15115,560.05256 442.57352,571.45397 446.48278,594.84126 C 460.22298,612.02933 492.17138,657.80664 492.62922,666.37074 C 493.43685,681.47721 495.88048,726.77564 515.69373,729.98592 C 535.50702,733.19633 591.15388,744.45705 591.90763,733.21837 C 592.66139,721.97969 597.15036,723.47954 577.21145,722.14225 C 568.33238,721.54672 553.68097,718.8278 543.62278,715.41385 C 533.56459,711.99989 513.72782,709.2395 509.36147,699.93912 C 505.1808,691.03405 495.79863,646.26274 494.99099,631.15634 C 494.18337,616.04989 445.15114,560.05257 445.15115,560.05256 z M 323.06616,561.31571 C 323.06616,561.31571 271.60191,595.48656 243.53311,606.77478 C 215.4643,618.06301 192.12238,615.14666 164.95373,610.90053 C 143.66149,607.57278 127.88819,636.29895 116.15149,639.96045 C 106.21071,654.92064 102.04661,670.43958 107.90156,674.44835 C 120.08752,682.79173 137.50769,642.19462 162.59196,646.11496 C 189.76062,650.36114 213.10255,653.27742 241.17134,641.98928 C 261.66272,633.74836 294.61835,613.32906 310.91767,602.8931 C 310.92496,602.87592 322.37812,597.87346 323.62871,593.14748 C 329.04404,572.68279 323.06616,561.31573 323.06616,561.31571 z M 381.16325,569.91015 C 381.10677,569.91781 381.04332,569.98223 380.99614,570.00947 C 380.83473,570.13359 380.70155,570.41452 380.67457,570.81696 C 380.04644,580.18248 377.68467,615.39693 378.31279,606.03141 C 378.33978,605.62898 378.47296,605.34805 378.63438,605.22392 C 381.34207,603.66091 405.64703,641.72589 414.71166,664.92476 C 417.79978,661.2026 407.6669,627.99767 406.11202,622.9015 C 400.3229,603.9274 385.70056,569.29374 381.16325,569.91015 z M 461.38862,664.0544 C 457.12014,676.15021 448.80672,682.84131 438.29309,689.42206 C 434.53322,691.77534 418.91251,695.16737 402.76382,696.82191 C 402.7472,696.83776 402.72354,696.85754 402.70689,696.87339 C 386.13983,712.58731 358.91464,715.81571 359.41323,725.14207 C 360.2208,740.24854 427.54659,729.88462 435.93133,724.63652 C 453.82333,713.4374 465.25718,701.82963 461.38862,664.0544 z "
       id="path2797"
       sodipodi:nodetypes="ccsccsccccccscczccccsccsccsscsccccsssszzsccsscssscsccsssccsccscsssc" />
    <path
       sodipodi:nodetypes="ccssscssz"
       id="path2818"
       d="M 482.69739,310.94689 C 453.5979,308.3373 417.59431,319.42698 405.82051,353.20959 C 384.06785,328.69948 372.88114,330.05878 352.43508,328.94025 C 330.95338,327.76507 299.9649,345.99117 298.27898,381.67651 C 296.4463,420.46897 328.9955,430.86752 352.92266,432.12961 C 376.61429,433.37438 401.30485,430.3167 412.94225,409.38258 C 420.00236,430.57199 439.70806,441.64001 466.72237,442.16465 C 502.68063,442.86297 528.07809,416.47355 529.21694,373.94802 C 530.17829,337.60844 511.69665,313.54748 482.69739,310.94689 z "
       style="fill:white;fill-opacity:1;fill-rule:nonzero;stroke:#9f6094;stroke-width:0;stroke-linecap:round;stroke-linejoin:round;stroke-miterlimit:4;stroke-dasharray:none;stroke-dashoffset:0;stroke-opacity:1;display:inline" />
    <g
       style="display:inline"
       id="g3719"
       transform="matrix(1.519921,0.101938,-8.068304e-2,1.203001,1154.934,-10.8442)">
      <path
         sodipodi:type="arc"
         style="opacity:1;fill:#e38711;fill-opacity:1;fill-rule:nonzero;stroke:#493421;stroke-width:4;stroke-linecap:round;stroke-linejoin:round;stroke-miterlimit:4;stroke-dasharray:none;stroke-dashoffset:0;stroke-opacity:1;display:inline"
         id="path2822"
         sodipodi:cx="306.85629"
         sodipodi:cy="152.25638"
         sodipodi:rx="7.5961623"
         sodipodi:ry="8.3127813"
         d="M 314.45246 152.25638 A 7.5961623 8.3127813 0 1 1  299.26013,152.25638 A 7.5961623 8.3127813 0 1 1  314.45246 152.25638 z"
         transform="matrix(2.092317,0,0,2.092317,-1164.398,51.79891)" />
      <path
         sodipodi:type="arc"
         style="opacity:1;fill:black;fill-opacity:1;fill-rule:nonzero;stroke:none;stroke-width:4;stroke-linecap:round;stroke-linejoin:round;stroke-miterlimit:4;stroke-dasharray:none;stroke-dashoffset:0;stroke-opacity:1;display:inline"
         id="path2826"
         sodipodi:cx="252.39325"
         sodipodi:cy="92.060379"
         sodipodi:rx="5.8762765"
         sodipodi:ry="5.4463053"
         d="M 258.26953 92.060379 A 5.8762765 5.4463053 0 1 1  246.51697,92.060379 A 5.8762765 5.4463053 0 1 1  258.26953 92.060379 z"
         transform="matrix(1.050952,0,0,1.152515,-790.7684,263.6122)" />
      <path
         sodipodi:type="arc"
         style="opacity:1;fill:white;fill-opacity:1;fill-rule:nonzero;stroke:none;stroke-width:4;stroke-linecap:round;stroke-linejoin:round;stroke-miterlimit:4;stroke-dasharray:none;stroke-dashoffset:0;stroke-opacity:1;display:inline"
         id="path2828"
         sodipodi:cx="252.39325"
         sodipodi:cy="92.060379"
         sodipodi:rx="5.8762765"
         sodipodi:ry="5.4463053"
         d="M 258.26953 92.060379 A 5.8762765 5.4463053 0 1 1  246.51697,92.060379 A 5.8762765 5.4463053 0 1 1  258.26953 92.060379 z"
         transform="matrix(0.712131,0,0,0.768343,-702.3961,294.4299)" />
    </g>
    <g
       style="display:inline"
       transform="matrix(1.983854,0.133053,-0.118088,1.760723,1626.433,-210.6148)"
       id="g3714">
      <path
         sodipodi:type="arc"
         style="opacity:1;fill:#e38711;fill-opacity:1;fill-rule:nonzero;stroke:#493421;stroke-width:4;stroke-linecap:round;stroke-linejoin:round;stroke-miterlimit:4;stroke-dasharray:none;stroke-dashoffset:0;stroke-opacity:1;display:inline"
         id="path2820"
         sodipodi:cx="306.85629"
         sodipodi:cy="152.25638"
         sodipodi:rx="7.5961623"
         sodipodi:ry="8.3127813"
         d="M 314.45246 152.25638 A 7.5961623 8.3127813 0 1 1  299.26013,152.25638 A 7.5961623 8.3127813 0 1 1  314.45246 152.25638 z"
         transform="matrix(2.092317,0,0,2.092317,-1212.194,60.42091)" />
      <path
         sodipodi:type="arc"
         style="opacity:1;fill:black;fill-opacity:1;fill-rule:nonzero;stroke:none;stroke-width:4;stroke-linecap:round;stroke-linejoin:round;stroke-miterlimit:4;stroke-dasharray:none;stroke-dashoffset:0;stroke-opacity:1;display:inline"
         id="path2824"
         sodipodi:cx="252.39325"
         sodipodi:cy="92.060379"
         sodipodi:rx="5.8762765"
         sodipodi:ry="5.4463053"
         d="M 258.26953 92.060379 A 5.8762765 5.4463053 0 1 1  246.51697,92.060379 A 5.8762765 5.4463053 0 1 1  258.26953 92.060379 z"
         transform="matrix(1.050952,0,0,1.152515,-838.9685,273.1404)" />
      <path
         sodipodi:type="arc"
         style="opacity:1;fill:white;fill-opacity:1;fill-rule:nonzero;stroke:none;stroke-width:4;stroke-linecap:round;stroke-linejoin:round;stroke-miterlimit:4;stroke-dasharray:none;stroke-dashoffset:0;stroke-opacity:1;display:inline"
         id="path2830"
         sodipodi:cx="252.39325"
         sodipodi:cy="92.060379"
         sodipodi:rx="5.8762765"
         sodipodi:ry="5.4463053"
         d="M 258.26953 92.060379 A 5.8762765 5.4463053 0 1 1  246.51697,92.060379 A 5.8762765 5.4463053 0 1 1  258.26953 92.060379 z"
         transform="matrix(0.712131,0,0,0.768343,-747.0137,303.4072)" />
    </g>
    <path
       style="fill:#886f97;fill-opacity:1;fill-rule:evenodd;stroke:red;stroke-width:0;stroke-linecap:butt;stroke-linejoin:miter;stroke-miterlimit:4;stroke-dasharray:none;stroke-opacity:1;display:inline"
       d="M 403.55074,331.53926 C 403.55074,331.53926 391.45906,306.16169 341.58577,312.95763 C 361.23241,286.18699 402.56115,299.37395 404.94399,313.14923 C 410.61762,295.93004 456.74335,247.32205 506.95137,270.07197 C 469.63381,273.31982 420.51464,298.37158 403.55074,331.53926 z "
       id="path3712"
       sodipodi:nodetypes="ccccc" />
    <path
       style="fill:#9166a7;fill-opacity:1;fill-rule:evenodd;stroke:#3b58a1;stroke-width:12.865942;stroke-linecap:butt;stroke-linejoin:miter;stroke-miterlimit:4;stroke-dasharray:none;stroke-opacity:1;display:inline"
       d="M 414.26423,564.94415 C 414.26423,564.94415 395.29666,581.88306 387.94108,586.52158 C 380.78719,591.03294 373.98954,595.30432 363.93857,596.26851 C 353.8876,597.23269 344.99712,590.16756 344.99712,590.16756 C 332.47506,584.05843 322.86414,584.59877 315.5999,584.90145 C 295.10181,585.75558 286.13157,606.78322 293.81834,616.17817 C 301.50506,625.57312 315.18499,634.09859 315.18499,634.09859 C 315.18499,634.09859 352.75599,652.06896 373.25405,651.21493 C 393.7521,650.36078 404.88702,639.24319 403.17885,629.84823 C 402.75554,627.52009 398.87184,623.55333 392.95502,618.93516 C 398.27004,616.65417 403.65216,614.53777 407.42921,613.59349 C 417.67823,611.03122 421.92583,595.69831 424.48807,585.44925 C 427.05031,575.20022 414.26418,564.94419 414.26423,564.94415 z "
       id="path2777"
       sodipodi:nodetypes="czscsscsscssc" />
    <path
       style="opacity:1;color:black;fill:#9166a7;fill-opacity:1;fill-rule:evenodd;stroke:#3b58a1;stroke-width:7.35196686;stroke-linecap:butt;stroke-linejoin:miter;marker:none;marker-start:none;marker-mid:none;marker-end:none;stroke-miterlimit:4;stroke-dasharray:none;stroke-dashoffset:0;stroke-opacity:1;visibility:visible;display:inline;overflow:visible"
       d="M 343.37623,535.8982 C 343.37623,535.8982 335.68944,535.8982 335.68944,540.16863 C 335.68944,544.43905 333.1272,553.83398 354.47933,563.22894 C 375.83146,572.62387 353.62524,550.41765 353.62524,550.41765 C 353.62524,550.41765 353.62524,540.16863 343.37623,535.8982 z "
       id="path2781" />
    <path
       style="fill:#6a3882;fill-opacity:1;fill-rule:evenodd;stroke:none;stroke-width:1pt;stroke-linecap:butt;stroke-linejoin:miter;stroke-opacity:1;display:inline"
       d="M 346.42261,643.40213 C 336.39422,641.61923 310.81009,631.22206 304.83152,624.38938 C 298.85291,617.55668 292.81281,611.25972 298.56636,602.73864 C 307.096,610.77216 333.1272,628.17677 345.0844,630.73901 C 357.04158,633.30127 372.19061,638.18537 385.29884,635.26963 C 398.32916,632.37121 399.3005,633.11622 399.3005,633.11622 C 399.3005,633.11622 396.53316,640.79619 392.2091,644.03365 C 378.61447,654.21189 365.26117,651.15391 361.312,649.52892 C 356.34888,647.48658 351.38573,645.44435 346.42261,643.40213 z "
       id="path3657"
       sodipodi:nodetypes="cscszcssc" />
    <path
       style="fill:#6a3882;fill-opacity:1;fill-rule:evenodd;stroke:none;stroke-width:1pt;stroke-linecap:butt;stroke-linejoin:miter;stroke-opacity:1;display:inline"
       d="M 330.10245,624.76687 C 363.09136,639.47813 393.65019,606.71628 417.34793,586.43633 C 415.71007,595.2687 412.93832,603.48637 407.72894,611.20774 C 396.83036,627.36172 367.17187,641.44249 367.17187,641.44249 L 330.10245,624.76687 z "
       id="path5405"
       sodipodi:nodetypes="ccscc" />
  </g>
</svg>
