<?xml version="1.0" encoding="UTF-8" standalone="no"?>
<!-- Created with Inkscape (http://www.inkscape.org/) -->
<svg
   xmlns:dc="http://purl.org/dc/elements/1.1/"
   xmlns:cc="http://web.resource.org/cc/"
   xmlns:rdf="http://www.w3.org/1999/02/22-rdf-syntax-ns#"
   xmlns:svg="http://www.w3.org/2000/svg"
   xmlns="http://www.w3.org/2000/svg"
   xmlns:xlink="http://www.w3.org/1999/xlink"
   xmlns:sodipodi="http://sodipodi.sourceforge.net/DTD/sodipodi-0.dtd"
   xmlns:inkscape="http://www.inkscape.org/namespaces/inkscape"
   width="553.75"
   height="631.69629"
   id="svg2"
   sodipodi:version="0.32"
   inkscape:version="0.44"
   sodipodi:docbase="/home/yekcim/Desktop/Stock_SVG"
   sodipodi:docname="Perso_Gnu.svg"
   version="1.0">
  <defs
     id="defs4">
    <linearGradient
       id="linearGradient4791">
      <stop
         style="stop-color:#b4afa6;stop-opacity:1;"
         offset="0"
         id="stop4793" />
      <stop
         style="stop-color:#846142;stop-opacity:1;"
         offset="1"
         id="stop4795" />
    </linearGradient>
    <linearGradient
       id="linearGradient4785">
      <stop
         id="stop4787"
         offset="0"
         style="stop-color:#512525;stop-opacity:1;" />
      <stop
         id="stop4789"
         offset="1"
         style="stop-color:#311207;stop-opacity:1;" />
    </linearGradient>
    <linearGradient
       id="linearGradient4776">
      <stop
         style="stop-color:#592f13;stop-opacity:1;"
         offset="0"
         id="stop4778" />
      <stop
         style="stop-color:#181302;stop-opacity:1;"
         offset="1"
         id="stop4780" />
    </linearGradient>
    <linearGradient
       id="linearGradient4768">
      <stop
         style="stop-color:#ffdb00;stop-opacity:1;"
         offset="0"
         id="stop4770" />
      <stop
         style="stop-color:#fd1408;stop-opacity:1;"
         offset="1"
         id="stop4772" />
    </linearGradient>
    <linearGradient
       id="linearGradient4747">
      <stop
         id="stop4749"
         offset="0"
         style="stop-color:#968971;stop-opacity:1;" />
      <stop
         id="stop4751"
         offset="1"
         style="stop-color:#9f7057;stop-opacity:1;" />
    </linearGradient>
    <linearGradient
       id="linearGradient2356">
      <stop
         id="stop2358"
         offset="0"
         style="stop-color:#46463e;stop-opacity:1;" />
      <stop
         id="stop2360"
         offset="1"
         style="stop-color:#27271f;stop-opacity:1;" />
    </linearGradient>
    <linearGradient
       inkscape:collect="always"
       xlink:href="#linearGradient2356"
       id="linearGradient3285"
       gradientUnits="userSpaceOnUse"
       gradientTransform="translate(335.8506,121.4268)"
       x1="371.00415"
       y1="408.6217"
       x2="442.42294"
       y2="430.41354" />
    <linearGradient
       inkscape:collect="always"
       xlink:href="#linearGradient2323"
       id="linearGradient3283"
       gradientUnits="userSpaceOnUse"
       gradientTransform="matrix(0.306403,0,0,1.641455,663.0589,-433.2523)"
       x1="327.5184"
       y1="217.68156"
       x2="442.24597"
       y2="217.68156" />
    <linearGradient
       inkscape:collect="always"
       xlink:href="#linearGradient2323"
       id="linearGradient3281"
       gradientUnits="userSpaceOnUse"
       gradientTransform="matrix(0.522812,0,0,0.522265,566.1369,-176.5746)"
       x1="327.5184"
       y1="217.68156"
       x2="442.24597"
       y2="217.68156" />
    <linearGradient
       inkscape:collect="always"
       xlink:href="#linearGradient2323"
       id="linearGradient3279"
       gradientUnits="userSpaceOnUse"
       gradientTransform="matrix(0.522812,0,0,0.522265,-36.66025,610.7262)"
       x1="327.5184"
       y1="217.68156"
       x2="442.24597"
       y2="217.68156" />
    <linearGradient
       id="linearGradient2323">
      <stop
         style="stop-color:#575757;stop-opacity:1;"
         offset="0"
         id="stop2325" />
      <stop
         style="stop-color:#5d5d56;stop-opacity:0;"
         offset="1"
         id="stop2327" />
    </linearGradient>
    <linearGradient
       inkscape:collect="always"
       xlink:href="#linearGradient2323"
       id="linearGradient3277"
       gradientUnits="userSpaceOnUse"
       gradientTransform="translate(392.4322,-311.0126)"
       x1="327.5184"
       y1="217.68156"
       x2="442.24597"
       y2="217.68156" />
    <linearGradient
       inkscape:collect="always"
       xlink:href="#linearGradient2274"
       id="linearGradient3275"
       gradientUnits="userSpaceOnUse"
       gradientTransform="translate(332.0049,116.9403)"
       x1="270.13882"
       y1="324.13947"
       x2="245.26805"
       y2="313.30893" />
    <linearGradient
       inkscape:collect="always"
       xlink:href="#linearGradient2274"
       id="linearGradient3273"
       gradientUnits="userSpaceOnUse"
       gradientTransform="translate(332.5483,-115.3863)"
       x1="380.26987"
       y1="35.705368"
       x2="381.77393"
       y2="16.538157" />
    <linearGradient
       id="linearGradient2274">
      <stop
         style="stop-color:#393934;stop-opacity:1;"
         offset="0"
         id="stop3435" />
      <stop
         style="stop-color:#5e5e56;stop-opacity:1;"
         offset="1"
         id="stop2278" />
    </linearGradient>
    <linearGradient
       inkscape:collect="always"
       xlink:href="#linearGradient2274"
       id="linearGradient3271"
       gradientUnits="userSpaceOnUse"
       gradientTransform="translate(332.0049,116.9403)"
       x1="214.94083"
       y1="217.75018"
       x2="229.54984"
       y2="196.49721" />
    <linearGradient
       id="linearGradient2272">
      <stop
         style="stop-color:#af6a3e;stop-opacity:1;"
         offset="0"
         id="stop2274" />
      <stop
         style="stop-color:#6a3c1e;stop-opacity:1;"
         offset="1"
         id="stop2276" />
    </linearGradient>
    <linearGradient
       id="linearGradient2255">
      <stop
         style="stop-color:#784a2c;stop-opacity:1;"
         offset="0"
         id="stop2257" />
      <stop
         style="stop-color:#b16f45;stop-opacity:1;"
         offset="1"
         id="stop2259" />
    </linearGradient>
    <linearGradient
       id="linearGradient2237">
      <stop
         style="stop-color:#8d5a3c;stop-opacity:1;"
         offset="0"
         id="stop2239" />
      <stop
         style="stop-color:#d58652;stop-opacity:1;"
         offset="1"
         id="stop2241" />
    </linearGradient>
    <linearGradient
       id="linearGradient2229">
      <stop
         style="stop-color:#eaeacd;stop-opacity:1;"
         offset="0"
         id="stop2231" />
      <stop
         style="stop-color:#eaeacd;stop-opacity:0;"
         offset="1"
         id="stop2233" />
    </linearGradient>
    <linearGradient
       id="linearGradient8944">
      <stop
         style="stop-color:#b9e48d;stop-opacity:1;"
         offset="0"
         id="stop8946" />
      <stop
         id="stop8962"
         offset="0.7230047"
         style="stop-color:#5d7538;stop-opacity:1;" />
      <stop
         style="stop-color:#525d36;stop-opacity:1;"
         offset="1"
         id="stop8948" />
    </linearGradient>
    <radialGradient
       inkscape:collect="always"
       xlink:href="#linearGradient8944"
       id="radialGradient3493"
       gradientUnits="userSpaceOnUse"
       gradientTransform="matrix(2.127527,-0.432716,0.240471,0.889353,-388.3636,164.8616)"
       cx="298.95676"
       cy="83.326347"
       fx="298.95676"
       fy="83.326347"
       r="58.114788" />
    <linearGradient
       inkscape:collect="always"
       xlink:href="#linearGradient4791"
       id="linearGradient2243"
       x1="351.36108"
       y1="538.46008"
       x2="312.59174"
       y2="430.42386"
       gradientUnits="userSpaceOnUse" />
    <linearGradient
       inkscape:collect="always"
       xlink:href="#linearGradient2255"
       id="linearGradient2261"
       x1="330.41135"
       y1="340.48746"
       x2="444.26801"
       y2="397.68079"
       gradientUnits="userSpaceOnUse" />
    <linearGradient
       inkscape:collect="always"
       xlink:href="#linearGradient2272"
       id="linearGradient2278"
       x1="337.34158"
       y1="546.54602"
       x2="400.55994"
       y2="519.01117"
       gradientUnits="userSpaceOnUse" />
    <linearGradient
       inkscape:collect="always"
       xlink:href="#linearGradient2272"
       id="linearGradient2282"
       gradientUnits="userSpaceOnUse"
       x1="337.34158"
       y1="546.54602"
       x2="400.55994"
       y2="519.01117"
       gradientTransform="matrix(-2.523078e-2,-0.999682,0.999682,-2.523078e-2,29.71104,715.3641)" />
    <linearGradient
       inkscape:collect="always"
       xlink:href="#linearGradient4747"
       id="linearGradient4745"
       gradientUnits="userSpaceOnUse"
       x1="482.09528"
       y1="90.149696"
       x2="437.29425"
       y2="232.98679"
       gradientTransform="translate(-5.341325,8.81829)" />
    <linearGradient
       inkscape:collect="always"
       xlink:href="#linearGradient4785"
       id="linearGradient4774"
       x1="95.643829"
       y1="206.84393"
       x2="119.91548"
       y2="200.25128"
       gradientUnits="userSpaceOnUse"
       gradientTransform="matrix(0.965035,0.262122,-0.262122,0.965035,329.2515,194.7996)" />
    <linearGradient
       inkscape:collect="always"
       xlink:href="#linearGradient4776"
       id="linearGradient4782"
       x1="77.125008"
       y1="205.66559"
       x2="99.604332"
       y2="205.66559"
       gradientUnits="userSpaceOnUse"
       gradientTransform="translate(368.8005,101.6844)" />
    <linearGradient
       inkscape:collect="always"
       xlink:href="#linearGradient2272"
       id="linearGradient4965"
       x1="255.72993"
       y1="547.16968"
       x2="294.82718"
       y2="373.73657"
       gradientUnits="userSpaceOnUse" />
    <linearGradient
       inkscape:collect="always"
       xlink:href="#linearGradient2255"
       id="linearGradient4973"
       x1="470.8598"
       y1="230.28549"
       x2="608.34808"
       y2="480.79996"
       gradientUnits="userSpaceOnUse" />
    <linearGradient
       inkscape:collect="always"
       xlink:href="#linearGradient4747"
       id="linearGradient5668"
       gradientUnits="userSpaceOnUse"
       gradientTransform="translate(-5.341325,8.81829)"
       x1="482.09528"
       y1="90.149696"
       x2="437.29425"
       y2="232.98679" />
    <linearGradient
       inkscape:collect="always"
       xlink:href="#linearGradient2255"
       id="linearGradient5670"
       gradientUnits="userSpaceOnUse"
       x1="330.41135"
       y1="340.48746"
       x2="444.26801"
       y2="397.68079" />
    <linearGradient
       inkscape:collect="always"
       xlink:href="#linearGradient2274"
       id="linearGradient5672"
       gradientUnits="userSpaceOnUse"
       gradientTransform="translate(332.0049,116.9403)"
       x1="214.94083"
       y1="217.75018"
       x2="229.54984"
       y2="196.49721" />
    <linearGradient
       inkscape:collect="always"
       xlink:href="#linearGradient2274"
       id="linearGradient5674"
       gradientUnits="userSpaceOnUse"
       gradientTransform="translate(332.5483,-115.3863)"
       x1="380.26987"
       y1="35.705368"
       x2="381.77393"
       y2="16.538157" />
    <linearGradient
       inkscape:collect="always"
       xlink:href="#linearGradient2274"
       id="linearGradient5676"
       gradientUnits="userSpaceOnUse"
       gradientTransform="translate(332.0049,116.9403)"
       x1="270.13882"
       y1="324.13947"
       x2="245.26805"
       y2="313.30893" />
    <linearGradient
       inkscape:collect="always"
       xlink:href="#linearGradient2323"
       id="linearGradient5678"
       gradientUnits="userSpaceOnUse"
       gradientTransform="translate(392.4322,-311.0126)"
       x1="327.5184"
       y1="217.68156"
       x2="442.24597"
       y2="217.68156" />
    <linearGradient
       inkscape:collect="always"
       xlink:href="#linearGradient2323"
       id="linearGradient5680"
       gradientUnits="userSpaceOnUse"
       gradientTransform="matrix(0.522812,0,0,0.522265,-36.66025,610.7262)"
       x1="327.5184"
       y1="217.68156"
       x2="442.24597"
       y2="217.68156" />
    <linearGradient
       inkscape:collect="always"
       xlink:href="#linearGradient2323"
       id="linearGradient5682"
       gradientUnits="userSpaceOnUse"
       gradientTransform="matrix(0.522812,0,0,0.522265,566.1369,-176.5746)"
       x1="327.5184"
       y1="217.68156"
       x2="442.24597"
       y2="217.68156" />
    <linearGradient
       inkscape:collect="always"
       xlink:href="#linearGradient2323"
       id="linearGradient5684"
       gradientUnits="userSpaceOnUse"
       gradientTransform="matrix(0.306403,0,0,1.641455,663.0589,-433.2523)"
       x1="327.5184"
       y1="217.68156"
       x2="442.24597"
       y2="217.68156" />
    <linearGradient
       inkscape:collect="always"
       xlink:href="#linearGradient2356"
       id="linearGradient5686"
       gradientUnits="userSpaceOnUse"
       gradientTransform="translate(335.8506,121.4268)"
       x1="371.00415"
       y1="408.6217"
       x2="442.42294"
       y2="430.41354" />
    <linearGradient
       inkscape:collect="always"
       xlink:href="#linearGradient2272"
       id="linearGradient5688"
       gradientUnits="userSpaceOnUse"
       x1="255.72993"
       y1="547.16968"
       x2="294.82718"
       y2="373.73657" />
    <radialGradient
       inkscape:collect="always"
       xlink:href="#linearGradient8944"
       id="radialGradient5690"
       gradientUnits="userSpaceOnUse"
       gradientTransform="matrix(2.127527,-0.432716,0.240471,0.889353,-388.3636,164.8616)"
       cx="298.95676"
       cy="83.326347"
       fx="298.95676"
       fy="83.326347"
       r="58.114788" />
    <linearGradient
       inkscape:collect="always"
       xlink:href="#linearGradient4791"
       id="linearGradient5692"
       gradientUnits="userSpaceOnUse"
       x1="351.36108"
       y1="538.46008"
       x2="312.59174"
       y2="430.42386" />
    <linearGradient
       inkscape:collect="always"
       xlink:href="#linearGradient2272"
       id="linearGradient5694"
       gradientUnits="userSpaceOnUse"
       x1="337.34158"
       y1="546.54602"
       x2="400.55994"
       y2="519.01117" />
    <linearGradient
       inkscape:collect="always"
       xlink:href="#linearGradient2255"
       id="linearGradient5696"
       gradientUnits="userSpaceOnUse"
       x1="470.8598"
       y1="230.28549"
       x2="608.34808"
       y2="480.79996" />
    <linearGradient
       inkscape:collect="always"
       xlink:href="#linearGradient2272"
       id="linearGradient5698"
       gradientUnits="userSpaceOnUse"
       gradientTransform="matrix(-2.523078e-2,-0.999682,0.999682,-2.523078e-2,29.71104,715.3641)"
       x1="337.34158"
       y1="546.54602"
       x2="400.55994"
       y2="519.01117" />
    <linearGradient
       inkscape:collect="always"
       xlink:href="#linearGradient4776"
       id="linearGradient5700"
       gradientUnits="userSpaceOnUse"
       gradientTransform="translate(368.8005,101.6844)"
       x1="77.125008"
       y1="205.66559"
       x2="99.604332"
       y2="205.66559" />
    <linearGradient
       inkscape:collect="always"
       xlink:href="#linearGradient4785"
       id="linearGradient5702"
       gradientUnits="userSpaceOnUse"
       gradientTransform="matrix(0.965035,0.262122,-0.262122,0.965035,329.2515,194.7996)"
       x1="95.643829"
       y1="206.84393"
       x2="119.91548"
       y2="200.25128" />
  </defs>
  <sodipodi:namedview
     id="base"
     pagecolor="#ffffff"
     bordercolor="#666666"
     borderopacity="1.0"
     inkscape:pageopacity="0.0"
     inkscape:pageshadow="2"
     inkscape:zoom="0.38462953"
     inkscape:cx="792.49962"
     inkscape:cy="381.7683"
     inkscape:document-units="px"
     inkscape:current-layer="layer1"
     inkscape:window-width="1024"
     inkscape:window-height="858"
     inkscape:window-x="200"
     inkscape:window-y="86" />
  <metadata
     id="metadata7">
    <rdf:RDF>
      <cc:Work
         rdf:about="">
        <dc:format>image/svg+xml</dc:format>
        <dc:type
           rdf:resource="http://purl.org/dc/dcmitype/StillImage" />
      </cc:Work>
    </rdf:RDF>
  </metadata>
  <g
     inkscape:label="Calque 1"
     inkscape:groupmode="layer"
     id="layer1"
     transform="translate(-175.057,-50.44258)">
    <g
       id="g5427"
       transform="translate(27.57615,-17.4649)"
       style="opacity:1">
      <path
         id="path4798"
         d="M 305.3871,75.416285 C 300.24448,75.515035 295.02037,76.060805 289.73085,77.041285 C 248.97862,84.595215 215.87708,116.79552 207.54335,153.60379 C 206.86905,153.63042 206.20153,153.67015 205.5121,153.69754 C 204.26008,162.13935 204.32806,170.7525 205.91835,179.32254 C 206.27129,182.75269 206.86286,186.18812 207.6996,189.60379 C 210.88745,189.47478 213.87335,189.34277 216.7621,189.22879 C 208.13198,210.96711 204.4177,235.43447 210.1371,253.16629 C 221.67719,288.94385 198.55686,306.34822 192.41835,303.44754 C 180.83624,297.97453 168.50311,276.73627 175.16835,265.63504 C 176.83466,262.85973 177.16549,261.54115 176.73085,261.13504 C 175.36235,260.00708 167.1996,266.85379 167.1996,266.85379 C 167.19961,266.85379 159.87931,292.62714 173.98085,307.66629 C 183.46659,317.78273 193.7139,323.45334 204.35585,321.85379 C 208.90984,321.1693 213.37209,319.09848 217.54335,316.10379 C 222.56056,339.79865 226.8246,322.79129 226.8246,322.79129 C 226.82461,322.79129 233.32064,308.54364 240.3871,292.13504 C 242.14817,320.1476 247.19712,348.51435 255.1371,372.07254 C 236.14053,377.19359 240.40856,402.92727 254.60585,401.91629 C 251.43125,416.68178 229.41835,526.57704 229.41835,542.79129 C 229.41835,542.89111 229.41918,543.00488 229.41835,543.10379 L 159.98085,599.22879 L 154.98085,615.22879 L 234.04335,692.10379 L 241.66835,689.79129 C 241.66835,689.79129 275.56582,631.40492 306.8246,578.79129 L 345.5121,564.57254 C 348.74924,572.78634 351.29486,581.7422 352.7621,591.76004 C 364.49066,671.83879 503.66835,615.97878 503.66835,615.97879 C 503.66835,615.97879 507.00937,562.07581 502.0121,479.13504 L 524.1996,443.22878 L 519.1371,439.41628 L 497.91835,422.69754 L 498.8871,421.16629 C 498.92754,421.10331 498.95372,421.01305 498.98085,420.94754 C 499.01695,420.8536 499.06459,420.73025 499.0746,420.63504 C 499.08132,420.54943 499.0568,420.43692 499.04335,420.35379 C 499.03119,420.28948 499.00472,420.19603 498.98085,420.13504 C 498.93712,420.03148 498.86979,419.91016 498.79335,419.82254 C 498.78017,419.80821 498.7449,419.77379 498.73085,419.76004 C 498.71637,419.74658 498.6837,419.71037 498.66835,419.69754 C 498.60528,419.64751 498.52599,419.61101 498.4496,419.57254 L 497.23085,418.94754 C 496.65002,413.0511 495.99293,407.08211 495.3246,401.01004 C 512.06718,406.81169 516.79472,427.46167 522.66835,434.51003 C 528.75275,441.81131 545.79335,484.38504 545.79335,484.38504 C 545.79335,484.38504 549.45895,511.17751 555.54335,518.47879 C 561.62775,525.78007 579.88016,522.12943 595.6996,518.47879 C 611.51903,514.82815 611.50836,494.14571 609.0746,480.76004 C 607.79342,473.71352 601.11117,468.35056 595.0746,464.85379 C 593.2844,460.90915 591.88044,457.58946 591.41835,455.51004 C 589.92895,448.80772 578.76841,368.10391 575.79335,346.47879 C 584.29029,334.42206 585.1098,316.20049 577.7621,298.88504 L 610.91835,267.10379 L 614.79335,261.63504 L 614.9496,261.47879 L 614.91835,261.01004 L 615.23085,251.76004 L 672.1371,206.19754 L 677.66835,204.60379 L 690.54335,194.47879 L 693.73085,186.76004 L 689.35585,182.13504 L 680.41835,185.91629 L 665.48085,196.79129 L 666.3871,201.60379 L 623.16835,235.16629 L 622.9496,234.94754 L 585.91835,215.72879 L 579.1371,220.79129 L 587.79335,247.32254 L 588.54335,247.79129 L 557.29335,271.85379 C 557.28722,271.84894 557.26824,271.85863 557.2621,271.85379 C 543.63215,261.09588 527.25584,257.32696 514.10585,262.69754 L 527.48085,294.76004 L 526.8871,295.19754 L 504.04335,269.35379 C 492.83653,280.40876 490.3216,299.53573 497.10585,318.13504 L 491.8871,322.13504 C 488.60624,321.50788 485.4179,321.07441 482.5746,320.76004 C 482.07634,318.9057 481.57158,317.07624 481.04335,315.26004 C 481.54471,310.9576 481.93932,306.33289 482.2621,301.51004 L 479.54335,301.51004 L 482.41835,298.63504 C 482.48212,297.55379 482.55036,296.4839 482.60585,295.38504 L 482.1371,295.47879 L 482.6371,294.82254 C 482.72054,293.12353 482.79185,291.40009 482.85585,289.66629 L 478.6996,291.16629 L 482.9496,286.91629 C 482.9858,285.74056 483.01576,284.54055 483.04335,283.35379 L 472.66835,287.72879 L 483.1371,277.26004 C 483.1518,275.911 483.16425,274.55242 483.16835,273.19754 L 476.98085,275.69754 L 483.16835,267.63504 C 483.16272,266.8847 483.14589,266.13501 483.1371,265.38504 L 476.10585,267.94754 L 482.98085,257.91629 C 482.96305,257.22422 482.97005,256.54348 482.9496,255.85379 L 473.54335,261.91629 L 482.73085,250.07254 C 482.69985,249.31458 482.67131,248.54417 482.6371,247.79129 L 474.3871,251.60379 L 482.29335,241.07254 C 482.25707,240.46442 482.23803,239.86301 482.1996,239.26004 L 472.66835,244.69754 L 481.3871,228.88504 C 481.36312,228.61855 481.34904,228.36862 481.3246,228.10379 L 469.23085,236.97879 L 479.54335,221.47879 L 464.91835,231.79129 L 478.6996,212.88504 L 461.48085,224.91629 L 477.6996,203.07254 C 477.59036,202.59329 477.46807,202.1231 477.35585,201.66629 L 467.5121,210.29129 L 476.1371,197.32254 C 476.07072,197.12009 476.01682,196.92374 475.9496,196.72879 C 475.80806,196.31832 475.63206,195.92059 475.48085,195.51004 L 461.48085,206.85379 L 472.8871,189.38504 C 471.87814,187.28775 470.76087,185.18682 469.54335,183.13504 L 451.16835,206.85379 L 466.48085,178.35379 C 466.16675,177.89356 465.86629,177.43431 465.54335,176.97879 L 446.0121,199.97879 L 462.5121,172.94754 C 462.33142,172.71904 462.16355,172.48688 461.98085,172.26004 L 449.4496,186.19754 L 456.2621,165.76004 C 455.86599,165.34888 455.44502,164.94356 455.04335,164.54129 L 442.54335,181.88504 L 450.91835,160.63504 C 450.39465,160.17171 449.85417,159.73771 449.3246,159.29129 L 437.3871,175.01004 L 442.16835,153.88504 C 441.86863,153.68646 441.56232,153.4835 441.2621,153.29129 L 428.79335,181.88504 L 438.0121,151.35379 C 437.51649,151.07692 437.00729,150.83032 436.5121,150.57254 L 427.91835,164.69754 L 432.5746,148.69754 C 431.33887,148.18404 430.10352,147.76088 428.8871,147.38504 L 417.60585,162.97879 L 422.41835,146.07254 C 421.89708,146.02699 421.3683,145.99145 420.85585,145.97879 C 420.48052,145.96974 420.13081,145.95131 419.7621,145.94754 L 409.0121,162.10379 L 413.91835,146.13504 C 413.36204,146.17415 412.83227,146.20833 412.29335,146.26004 L 402.10585,164.69754 L 406.6371,147.07254 C 405.16512,147.36314 403.77029,147.6898 402.4496,148.07254 C 400.04927,138.28533 396.27691,128.97678 391.35585,120.41629 C 390.55636,120.69659 389.75981,120.95777 388.98085,121.22879 C 370.88933,93.567695 340.38001,74.943375 305.8871,75.416285 C 305.72138,75.418555 305.55299,75.413095 305.3871,75.416285 z M 589.79335,225.91629 L 597.0121,231.82254 L 602.48085,228.16629 L 611.73085,233.29129 L 598.9496,242.41629 L 598.54335,242.01004 L 593.1996,246.04129 L 585.73085,228.79129 L 589.79335,225.91629 z M 618.1371,236.51004 L 619.6371,239.91629 L 608.16835,249.97879 L 603.7621,243.94754 L 609.85585,238.88504 L 618.1371,236.51004 z M 524.98085,352.63504 C 529.09253,355.12571 533.35746,356.99731 537.6371,358.22879 L 544.9496,392.69754 C 544.9496,392.69754 545.48681,395.97204 546.35585,401.19754 C 546.15283,400.92785 545.97662,400.68316 545.79335,400.44754 C 537.27519,389.49562 526.32461,363.91629 526.3246,363.91629 C 526.3246,363.91629 526.32912,359.18439 524.98085,352.63504 z M 292.7621,477.32254 C 293.80371,480.0862 294.97734,482.78392 296.2621,485.41629 C 296.4327,486.45056 296.66714,487.46314 296.98085,488.44754 L 279.66835,502.44754 C 280.6658,499.82582 281.3886,497.77041 281.73085,496.57254 C 282.35065,494.40327 283.86381,489.7028 285.91835,483.72879 C 285.25754,487.98601 285.20409,492.49286 288.73085,494.41629 C 290.54419,488.85631 291.17077,482.94778 292.7621,477.32254 z "
         style="fill:#3b5881;fill-opacity:1;fill-rule:evenodd;stroke:#3b5881;stroke-width:15;stroke-linecap:butt;stroke-linejoin:miter;stroke-miterlimit:4;stroke-dasharray:none;stroke-opacity:1;display:inline" />
      <path
         id="path3861"
         d="M 420.34375,145.625 L 409.59375,161.78125 L 414.5,145.8125 C 413.94369,145.85161 413.41392,145.88579 412.875,145.9375 L 402.6875,164.375 L 407.21875,146.75 C 384.19923,151.2946 380.15624,168.03126 380.15625,168.03125 C 380.15625,169.75218 471.1582,355.3067 477.375,336.65625 C 480.05657,328.61154 481.86004,315.88571 482.84375,301.1875 L 480.125,301.1875 L 483,298.3125 C 483.06377,297.23125 483.13201,296.16136 483.1875,295.0625 L 482.71875,295.15625 L 483.21875,294.5 C 483.30219,292.80099 483.3735,291.07755 483.4375,289.34375 L 479.28125,290.84375 L 483.53125,286.59375 C 483.56745,285.41802 483.59741,284.21801 483.625,283.03125 L 473.25,287.40625 L 483.71875,276.9375 C 483.73345,275.58846 483.7459,274.22988 483.75,272.875 L 477.5625,275.375 L 483.75,267.3125 C 483.74437,266.56216 483.72754,265.81247 483.71875,265.0625 L 476.6875,267.625 L 483.5625,257.59375 C 483.5447,256.90168 483.5517,256.22094 483.53125,255.53125 L 474.125,261.59375 L 483.3125,249.75 C 483.2815,248.99204 483.25296,248.22163 483.21875,247.46875 L 474.96875,251.28125 L 482.875,240.75 C 482.83872,240.14188 482.81968,239.54047 482.78125,238.9375 L 473.25,244.375 L 481.96875,228.5625 C 481.94477,228.29601 481.93069,228.04608 481.90625,227.78125 L 469.8125,236.65625 L 480.125,221.15625 L 465.5,231.46875 L 479.28125,212.5625 L 462.0625,224.59375 L 478.28125,202.75 C 478.17201,202.27075 478.04972,201.80056 477.9375,201.34375 L 468.09375,209.96875 L 476.71875,197 C 476.65237,196.79755 476.59847,196.6012 476.53125,196.40625 C 476.38971,195.99578 476.21371,195.59805 476.0625,195.1875 L 462.0625,206.53125 L 473.46875,189.0625 C 472.45979,186.96521 471.34252,184.86428 470.125,182.8125 L 451.75,206.53125 L 467.0625,178.03125 C 466.7484,177.57102 466.44794,177.11177 466.125,176.65625 L 446.59375,199.65625 L 463.09375,172.625 C 462.91307,172.3965 462.7452,172.16434 462.5625,171.9375 L 450.03125,185.875 L 456.84375,165.4375 C 456.44764,165.02634 456.02667,164.62102 455.625,164.21875 L 443.125,181.5625 L 451.5,160.3125 C 450.9763,159.84917 450.43582,159.41517 449.90625,158.96875 L 437.96875,174.6875 L 442.75,153.5625 C 442.45028,153.36392 442.14397,153.16096 441.84375,152.96875 L 429.375,181.5625 L 438.59375,151.03125 C 438.09814,150.75438 437.58894,150.50778 437.09375,150.25 L 428.5,164.375 L 433.15625,148.375 C 431.92052,147.8615 430.68517,147.43834 429.46875,147.0625 L 418.1875,162.65625 L 423,145.75 C 422.47873,145.70445 421.94995,145.66891 421.4375,145.65625 C 421.06217,145.6472 420.71246,145.62877 420.34375,145.625 z "
         style="fill:url(#linearGradient5668);fill-opacity:1;fill-rule:evenodd;stroke:none;stroke-width:1pt;stroke-linecap:butt;stroke-linejoin:miter;stroke-opacity:1;display:inline" />
      <path
         id="path2265"
         d="M 473.36628,319.80049 C 480.66756,319.80049 512.30643,322.23425 519.60771,335.61993 C 526.90899,349.00561 526.90899,363.60817 526.90899,363.60817 C 526.90899,363.60817 537.86091,389.16264 546.37907,400.11456 C 554.89723,411.06648 585.31923,459.74168 585.31923,459.74168 C 585.31923,459.74168 607.22306,467.04296 609.65682,480.42864 C 612.09058,493.81431 612.09058,514.50127 596.27115,518.15191 C 580.45171,521.80255 562.19851,525.45319 556.11411,518.15191 C 550.02971,510.85063 546.37907,484.07927 546.37907,484.07927 C 546.37907,484.07927 529.34275,441.48848 523.25835,434.1872 C 517.17395,426.88592 512.30643,404.98208 494.05323,400.11456 C 475.80004,395.24704 473.36628,323.45113 473.36628,319.80049 z "
         style="fill:#b16f45;fill-opacity:1;fill-rule:evenodd;stroke:none;stroke-width:1pt;stroke-linecap:butt;stroke-linejoin:miter;stroke-opacity:1" />
      <path
         sodipodi:nodetypes="csczsc"
         id="path2253"
         d="M 354.11205,160.38922 C 354.11205,160.38922 469.71564,207.84754 490.40259,356.30688 C 511.08955,504.76623 504.2565,615.64993 504.2565,615.64993 C 504.2565,615.64993 365.07711,671.52823 353.34855,591.44948 C 341.37318,509.68557 258.5289,497.49028 299.35245,400.11456 C 331.76152,322.80976 351.67829,162.82298 354.11205,160.38922 z "
         style="fill:url(#linearGradient5670);fill-opacity:1;fill-rule:evenodd;stroke:none;stroke-width:1pt;stroke-linecap:butt;stroke-linejoin:miter;stroke-opacity:1" />
      <path
         id="path4987"
         d="M 690.57694,181.51416 L 681.67069,185.29541 L 666.70194,196.17041 L 667.63944,200.98291 L 624.42069,234.54541 L 624.20194,234.32666 L 587.13944,215.10791 L 580.35819,220.17041 L 589.04569,246.73291 L 589.76444,247.17041 L 489.42069,324.35791 L 445.98319,357.01416 L 446.38944,357.45166 L 445.29569,358.29541 L 446.70194,359.32666 L 441.01444,364.13916 L 445.70194,369.51416 L 442.26444,370.82666 C 442.26444,370.82666 431.33975,358.86024 426.32694,355.60791 C 421.31414,352.35556 407.45197,354.26416 407.45194,354.26416 C 407.45194,354.26416 330.35254,401.98185 325.57694,404.92041 C 320.80137,407.85895 320.54573,420.26416 320.54569,420.26416 L 325.98319,452.42041 L 319.26444,458.88916 L 325.79569,465.51416 L 161.23319,598.60791 L 156.23319,614.60791 L 235.29569,691.48291 L 242.88944,689.17041 C 242.88944,689.17041 350.97305,503.11981 359.07694,495.92041 C 367.18081,488.72102 381.9832,492.98291 381.98319,492.98291 L 394.29569,503.54541 L 414.45194,574.42041 L 451.48319,557.13916 L 430.92069,493.85791 L 463.38944,465.76416 L 465.04569,466.95166 L 463.57694,469.26416 C 463.44985,469.46208 463.38921,469.68111 463.38944,469.88916 C 463.39152,469.9646 463.40292,470.06659 463.42069,470.13916 C 463.4773,470.34635 463.61925,470.5541 463.79569,470.70166 C 463.82723,470.72667 463.88579,470.77315 463.92069,470.79541 C 463.94749,470.81155 463.98579,470.84348 464.01444,470.85791 L 465.76444,471.73291 C 466.09864,471.90123 466.51509,471.91349 466.85819,471.79541 C 466.93601,471.76673 467.03647,471.71226 467.10819,471.67041 C 467.18783,471.62153 467.2898,471.54749 467.35819,471.48291 C 467.37306,471.46818 467.40649,471.43588 467.42069,471.42041 C 467.46224,471.3729 467.51103,471.31814 467.54569,471.26416 L 468.38944,469.95166 L 496.42069,489.54541 L 525.35819,442.70166 L 525.42069,442.60791 L 521.04569,439.29541 L 499.13944,422.07666 L 500.10819,420.54541 C 500.14285,420.49143 500.17707,420.41382 500.20194,420.35791 C 500.2407,420.26432 500.28312,420.14068 500.29569,420.04541 C 500.3047,419.95972 500.30694,419.84772 500.29569,419.76416 C 500.28523,419.6995 500.25541,419.60696 500.23319,419.54541 C 500.21955,419.51056 500.18805,419.45382 500.17069,419.42041 C 500.15241,419.3874 500.13011,419.32665 500.10819,419.29541 C 500.09678,419.28003 500.05799,419.24778 500.04569,419.23291 C 500.01384,419.1964 499.95798,419.14078 499.92069,419.10791 C 499.85165,419.05017 499.75663,418.99494 499.67069,418.95166 L 497.92069,418.04541 C 497.5292,417.84825 497.05137,417.88712 496.67069,418.07666 C 496.57886,418.12493 496.46853,418.19619 496.38944,418.26416 C 496.30412,418.34102 496.20299,418.44645 496.13944,418.54541 L 495.63944,419.32666 L 461.95194,392.79541 L 463.88944,390.35791 L 467.04569,393.98291 L 472.57694,389.29541 L 478.13944,394.92041 L 612.17069,266.48291 L 616.01444,261.01416 L 616.17069,260.85791 L 616.13944,260.38916 L 616.45194,251.17041 L 673.35819,205.57666 L 678.92069,203.98291 L 691.79569,193.85791 L 694.95194,186.13916 L 690.57694,181.51416 z M 591.04569,225.29541 L 598.23319,231.20166 L 603.70194,227.54541 L 612.98319,232.67041 L 600.17069,241.82666 L 599.76444,241.38916 L 594.42069,245.38916 L 586.95194,228.20166 L 591.04569,225.29541 z M 619.38944,235.88916 L 620.88944,239.29541 L 609.42069,249.35791 L 604.98319,243.32666 L 611.07694,238.26416 L 619.38944,235.88916 z M 416.45194,357.23291 C 416.46266,357.23207 416.47296,357.23339 416.48319,357.23291 C 416.488,357.23289 416.51005,357.23263 416.51444,357.23291 C 418.72478,357.37321 421.10193,358.11055 423.01444,359.85791 C 427.92166,364.34137 424.36457,371.09689 424.13944,371.51416 L 344.79569,433.07666 C 344.77164,433.08968 344.72652,433.12627 344.70194,433.13916 C 344.68821,433.14701 344.65324,433.16306 344.63944,433.17041 C 344.63044,433.17054 344.57905,433.16996 344.57694,433.17041 C 344.48637,433.17762 344.35744,433.16594 344.26444,433.13916 C 344.25049,433.13301 344.18472,433.11449 344.17069,433.10791 C 344.15424,433.10071 344.12924,433.08629 344.10819,433.07666 C 344.07524,433.05905 344.01996,433.03714 343.98319,433.01416 C 343.93354,432.98188 343.8738,432.92432 343.82694,432.88916 C 342.42238,431.80131 340.34186,428.23738 337.51444,425.13916 C 333.98375,421.2703 343.30411,410.40576 343.88944,409.73291 L 409.70194,358.29541 C 409.70194,358.29541 412.42448,357.23626 415.73319,357.26416 C 415.74084,357.26379 415.75952,357.26429 415.76444,357.26416 C 415.80493,357.2622 415.91132,357.26582 415.95194,357.26416 C 415.95688,357.26408 415.97555,357.26455 415.98319,357.26416 C 415.98779,357.26427 416.00663,357.26454 416.01444,357.26416 C 416.04751,357.26243 416.10626,357.26561 416.13944,357.26416 C 416.14335,357.26395 416.16218,357.26452 416.17069,357.26416 C 416.17967,357.26452 416.22462,357.26428 416.23319,357.26416 C 416.26638,357.26236 416.29365,357.26568 416.32694,357.26416 C 416.33125,357.26415 416.35033,357.26461 416.35819,357.26416 C 416.36171,357.26404 416.38718,357.26404 416.38944,357.26416 C 416.40385,357.26401 416.43587,357.23417 416.45194,357.23291 z M 441.23319,447.70166 C 441.43508,447.6911 441.6373,447.69692 441.82694,447.70166 C 441.835,447.70127 441.85407,447.70175 441.85819,447.70166 C 441.89243,447.69979 441.94956,447.70302 441.98319,447.70166 C 441.98719,447.70166 442.00631,447.70211 442.01444,447.70166 C 442.04125,447.70134 442.11222,447.70383 442.13944,447.70166 C 442.14279,447.70151 442.16227,447.70202 442.17069,447.70166 C 442.17342,447.70194 442.19879,447.70166 442.20194,447.70166 C 442.20884,447.70126 442.22583,447.70236 442.23319,447.70166 C 442.2349,447.70158 442.2628,447.7017 442.26444,447.70166 C 442.58556,447.7432 442.83034,447.82291 443.10819,447.92041 C 446.64736,449.16258 453.23318,456.48291 453.23319,456.48291 C 453.23319,456.48289 454.19817,463.37453 451.51444,466.23291 C 449.01696,468.89293 437.65929,477.85855 436.63944,478.51416 C 436.63568,478.51435 436.58153,478.51413 436.57694,478.51416 C 436.10706,478.72942 423.60804,484.408 420.70194,481.88916 C 417.80735,479.24453 412.82695,476.63915 412.82694,476.63916 C 412.82691,476.63916 408.59565,470.62616 409.76444,467.85791 C 409.82084,467.73076 409.92714,467.57419 410.01444,467.45166 C 410.0207,467.44317 410.03942,467.4286 410.04569,467.42041 C 410.0508,467.415 410.06922,467.36604 410.07694,467.35791 C 410.11512,467.31358 410.18231,467.25336 410.23319,467.20166 C 410.23722,467.19776 410.25669,467.17892 410.26444,467.17041 C 410.27783,467.1634 410.34455,467.11477 410.35819,467.10791 C 411.16223,466.46395 413.27633,464.79144 415.85819,462.76416 L 431.76444,476.57666 C 431.76444,476.57666 436.11359,476.74242 437.38944,475.95166 C 437.4037,475.94244 437.43852,475.92989 437.45194,475.92041 C 437.52341,475.86753 437.59578,475.79414 437.63944,475.73291 C 437.64316,475.72727 437.66722,475.70737 437.67069,475.70166 C 437.67713,475.69009 437.69652,475.65102 437.70194,475.63916 C 437.70439,475.63316 437.69976,475.61399 437.70194,475.60791 C 437.70577,475.5956 437.73044,475.55802 437.73319,475.54541 C 437.73429,475.53903 437.73237,475.52062 437.73319,475.51416 C 437.73427,475.50109 437.73325,475.46504 437.73319,475.45166 C 437.73256,475.43813 437.735,475.40301 437.73319,475.38916 C 437.73079,475.37515 437.70555,475.34099 437.70194,475.32666 C 437.68928,475.28318 437.66347,475.21687 437.63944,475.17041 C 437.47488,474.873 437.07237,474.50811 436.35819,474.07666 C 432.04598,471.47155 426.08219,458.39031 424.88944,455.70166 C 428.17413,453.12919 430.70194,451.13915 430.70194,451.13916 C 430.70197,451.13916 437.12812,447.91641 441.23319,447.70166 z "
         style="fill:#3b5881;fill-opacity:1;fill-rule:evenodd;stroke:#3b5881;stroke-width:8;stroke-linecap:butt;stroke-linejoin:miter;stroke-miterlimit:4;stroke-dasharray:none;stroke-opacity:1" />
      <g
         transform="matrix(-1.288107,4.935862e-2,4.869248e-2,1.270722,1227.831,-129.1167)"
         id="g3257"
         style="display:inline">
        <path
           style="fill:#444442;fill-opacity:1;fill-rule:evenodd;stroke:none;stroke-width:1pt;stroke-linecap:butt;stroke-linejoin:miter;stroke-opacity:1"
           d="M 426.21102,228.12458 L 422.96102,231.90583 L 425.64852,237.87458 L 435.92977,245.43708 L 440.27352,246.53083 L 485.74227,280.62458 L 486.27352,288.21833 L 489.52352,292.53083 L 597.24227,389.43708 L 602.11727,384.03083 L 605.36727,385.65583 L 606.99227,384.03083 L 609.71102,387.28083 L 562.05477,428.40583 L 585.89852,464.15583 L 610.77352,444.65583 L 636.77352,465.74958 L 622.71102,516.09333 L 651.92977,528.56208 L 665.46102,472.24958 L 674.67977,463.59333 C 674.67977,463.59333 686.02759,459.80506 692.52352,465.21833 C 699.01946,470.6316 788.33602,613.56208 788.33602,613.56208 L 794.30477,615.15583 L 853.30477,552.37458 L 848.96102,539.93708 L 717.42977,440.31208 L 722.30477,434.90583 L 716.89852,430.03083 L 720.14852,404.59333 C 720.14849,404.59333 719.59406,394.85239 715.80477,392.68708 C 712.01546,390.52176 650.83602,355.34333 650.83602,355.34333 C 650.83599,355.34333 640.03156,354.26169 636.24227,356.96833 C 632.45297,359.67496 624.33602,369.40583 624.33602,369.40583 L 621.08602,368.31208 L 623.24227,365.62458 L 618.89852,361.84333 L 621.61727,359.65583 L 506.30477,276.68708 L 506.86727,276.31208 L 512.80477,255.18708 L 507.39852,251.40583 L 479.24227,267.62458 L 479.08602,267.81208 L 444.58602,242.74958 L 445.14852,238.93708 L 433.24227,230.84333 L 426.21102,228.12458 z M 504.67977,259.53083 L 507.92977,261.68708 L 502.52352,275.74958 L 487.89852,265.99958 L 494.92977,261.68708 L 499.27352,264.40583 L 504.67977,259.53083 z M 483.02352,268.71833 L 489.52352,270.34333 L 494.39852,274.12458 L 491.14852,278.99958 L 481.96102,271.43708 L 483.02352,268.71833 z M 643.89852,357.96833 C 643.92565,357.96552 643.96521,357.97091 643.99227,357.96833 C 643.99925,357.96767 644.01684,357.96858 644.02352,357.96833 C 644.04937,357.96852 644.09149,357.96791 644.11727,357.96833 C 644.12392,357.96816 644.14157,357.96888 644.14852,357.96833 C 644.1521,357.96804 644.1737,357.96823 644.17977,357.96833 C 644.20553,357.96847 644.24784,357.96796 644.27352,357.96833 C 644.2796,357.9684 644.30121,357.96856 644.30477,357.96833 C 644.3107,357.96841 644.33219,357.96842 644.33602,357.96833 C 644.36756,357.96841 644.42958,357.96801 644.46102,357.96833 C 644.46484,357.96828 644.48633,357.96827 644.49227,357.96833 C 647.05634,357.84677 649.21102,358.59333 649.21102,358.59333 L 701.74227,397.03083 C 702.21599,397.54193 709.77057,405.79062 707.14852,408.93708 C 705.04875,411.45681 703.54876,414.32121 702.49227,415.21833 C 702.457,415.24737 702.4048,415.28522 702.36727,415.31208 C 702.33945,415.33124 702.29854,415.35975 702.27352,415.37458 C 702.25748,415.38278 702.22356,415.39967 702.21102,415.40583 C 702.20033,415.41142 702.15915,415.43183 702.14852,415.43708 C 702.07246,415.4625 701.96999,415.47347 701.89852,415.46833 C 701.89686,415.46803 701.87425,415.46816 701.86727,415.46833 C 701.85635,415.46298 701.81565,415.44283 701.80477,415.43708 C 701.78533,415.42768 701.7613,415.41534 701.74227,415.40583 L 638.39852,369.40583 C 638.21161,369.08473 635.2589,363.8892 638.92977,360.21833 C 640.36044,358.78767 642.18925,358.14513 643.89852,357.96833 z M 626.61727,429.81208 C 626.63378,429.80926 626.6629,429.81452 626.67977,429.81208 C 626.6848,429.8118 626.70583,429.81205 626.71102,429.81208 C 626.73219,429.81297 626.78398,429.81263 626.80477,429.81208 C 626.81109,429.81218 626.83292,429.8122 626.83602,429.81208 C 626.86213,429.81213 626.90317,429.81164 626.92977,429.81208 C 626.93297,429.81203 626.95476,429.81202 626.96102,429.81208 C 630.0942,429.61081 635.67975,432.18708 635.67977,432.18708 C 635.67977,432.18708 649.76445,442.50058 651.92977,444.12458 C 651.94055,444.12957 651.98168,444.15072 651.99227,444.15583 C 651.99853,444.16228 652.02028,444.18414 652.02352,444.18708 C 652.06449,444.22618 652.11761,444.2784 652.14852,444.31208 C 652.15475,444.31824 652.17565,444.33923 652.17977,444.34333 C 652.26147,444.44325 652.34423,444.57484 652.39852,444.68708 C 653.38679,446.82718 650.30479,451.68708 650.30477,451.68708 C 650.30477,451.68708 646.50134,453.86552 644.33602,456.03083 C 642.15804,458.09764 632.30041,454.02959 631.92977,453.87458 C 631.92621,453.87471 631.90144,453.87461 631.89852,453.87458 C 631.21404,453.48577 622.02319,446.68674 619.99227,444.65583 C 617.82696,442.49052 618.36727,437.06207 618.36727,437.06208 C 618.36727,437.06208 623.25437,431.1135 625.96102,430.03083 C 626.1735,429.94584 626.36958,429.85439 626.61727,429.81208 z "
           id="path1380" />
        <path
           style="fill:#393934;fill-opacity:1;fill-rule:evenodd;stroke:none;stroke-width:1pt;stroke-linecap:butt;stroke-linejoin:miter;stroke-opacity:1"
           d="M 640.47661,435.18661 C 640.47661,435.18661 635.61879,447.93839 631.97542,450.3673 C 628.33205,452.79621 635.61879,452.18899 635.61879,452.18899 L 647.76334,440.65166 L 640.47661,435.18661 z "
           id="path2270" />
        <path
           style="fill:url(#linearGradient5672);fill-opacity:1;fill-rule:evenodd;stroke:none;stroke-width:1pt;stroke-linecap:butt;stroke-linejoin:miter;stroke-opacity:1"
           d="M 597.36344,388.43008 L 621.04532,358.67592 L 498.38533,272.4496 L 490.49137,281.55801 L 486.24078,280.95078 L 486.24078,288.23751 L 597.36344,388.43008 z "
           id="path2272" />
        <rect
           style="opacity:1;fill:url(#linearGradient5674);fill-opacity:1;fill-rule:nonzero;stroke:none;stroke-width:18;stroke-linecap:round;stroke-linejoin:round;stroke-miterlimit:4;stroke-dasharray:none;stroke-dashoffset:0;stroke-opacity:1"
           id="rect2283"
           width="6.6795177"
           height="30.968666"
           x="709.14032"
           y="-104.65646"
           ry="0"
           transform="matrix(0.782183,0.623049,-0.623049,0.782183,0,0)" />
        <rect
           rx="0.96697062"
           style="opacity:1;fill:#5d5d56;fill-opacity:1;fill-rule:nonzero;stroke:none;stroke-width:18;stroke-linecap:round;stroke-linejoin:round;stroke-miterlimit:4;stroke-dasharray:none;stroke-dashoffset:0;stroke-opacity:1"
           id="rect2301"
           width="49.121796"
           height="3.4560914"
           x="643.59021"
           y="-250.50966"
           ry="0.96121675"
           transform="matrix(0.566936,0.823762,-0.872438,0.488725,0,0)" />
        <path
           style="fill:url(#linearGradient5676);fill-opacity:1;fill-rule:evenodd;stroke:none;stroke-width:1pt;stroke-linecap:butt;stroke-linejoin:miter;stroke-opacity:1"
           d="M 561.99492,428.33788 L 582.38184,411.45496 L 607.86549,447.45062 L 585.88584,464.33354 L 561.99492,428.33788 z "
           id="path2303" />
        <rect
           rx="2.6538115"
           style="opacity:1;fill:url(#linearGradient5678);fill-opacity:1;fill-rule:nonzero;stroke:none;stroke-width:18;stroke-linecap:round;stroke-linejoin:round;stroke-miterlimit:4;stroke-dasharray:none;stroke-dashoffset:0;stroke-opacity:1"
           id="rect2313"
           width="114.72747"
           height="8.3321629"
           x="719.94977"
           y="-97.497139"
           ry="2.6617944"
           transform="matrix(0.781366,0.624073,-0.624073,0.781366,0,0)" />
        <rect
           rx="1.3878903"
           style="opacity:1;fill:url(#linearGradient5680);fill-opacity:1;fill-rule:nonzero;stroke:none;stroke-width:18;stroke-linecap:round;stroke-linejoin:round;stroke-miterlimit:4;stroke-dasharray:none;stroke-dashoffset:0;stroke-opacity:1"
           id="rect2331"
           width="59.980671"
           height="4.3515706"
           x="134.56947"
           y="722.23718"
           ry="1.3883436"
           transform="matrix(0.7136,-0.700553,0.69656,0.717498,0,0)" />
        <rect
           rx="1.3859087"
           style="opacity:1;fill:url(#linearGradient5682);fill-opacity:1;fill-rule:nonzero;stroke:none;stroke-width:18;stroke-linecap:round;stroke-linejoin:round;stroke-miterlimit:4;stroke-dasharray:none;stroke-dashoffset:0;stroke-opacity:1"
           id="rect2335"
           width="59.9809"
           height="4.3515782"
           x="737.36755"
           y="-65.063393"
           ry="1.3901318"
           transform="matrix(0.784023,0.620732,-0.625098,0.780546,0,0)" />
        <rect
           rx="4.3559113"
           style="opacity:1;fill:url(#linearGradient5684);fill-opacity:1;fill-rule:nonzero;stroke:none;stroke-width:18;stroke-linecap:round;stroke-linejoin:round;stroke-miterlimit:4;stroke-dasharray:none;stroke-dashoffset:0;stroke-opacity:1"
           id="rect2339"
           width="35.153191"
           height="13.676811"
           x="763.41229"
           y="-82.777817"
           ry="4.3595724"
           transform="matrix(0.783338,0.621597,-0.742726,0.669596,0,0)" />
        <path
           style="fill:url(#linearGradient5686);fill-opacity:1;fill-rule:evenodd;stroke:none;stroke-width:1pt;stroke-linecap:butt;stroke-linejoin:miter;stroke-opacity:1"
           d="M 726.35474,450.88035 L 706.85473,478.65115 C 725.58133,505.24664 790.07386,607.76401 790.07386,607.76401 L 795.55107,609.21664 L 849.69226,551.99455 L 845.70618,540.65836 L 726.35474,450.88035 z "
           id="path2343" />
      </g>
      <path
         sodipodi:nodetypes="cscsscccscssc"
         id="path2263"
         d="M 255.54478,400.11456 C 254.3279,404.98208 229.9903,525.45319 229.9903,542.48951 C 229.9903,559.52583 217.8215,563.17647 217.8215,563.17647 C 217.8215,563.17647 199.5683,582.64655 211.7371,593.59846 C 223.9059,604.55038 227.55654,611.85166 237.29158,610.63478 C 247.02662,609.4179 253.11102,598.46598 253.11102,598.46598 L 382.10028,551.00767 L 367.49773,523.01943 C 367.49773,523.01943 313.95501,537.62199 296.91869,546.14015 C 279.88237,554.65831 257.97854,555.87519 257.97854,555.87519 C 257.97854,555.87519 279.88238,504.76623 282.31613,496.24807 C 284.74989,487.72991 300.56933,440.2716 311.52125,429.31968 C 322.47317,418.36776 276.23173,362.39129 255.54478,400.11456 z "
         style="fill:url(#linearGradient5688);fill-opacity:1;fill-rule:evenodd;stroke:none;stroke-width:1pt;stroke-linecap:butt;stroke-linejoin:miter;stroke-opacity:1" />
      <path
         sodipodi:nodetypes="cccccssccssc"
         id="path2184"
         d="M 261.42857,178.07646 C 234.03877,211.25984 234.46206,308.69761 255.71429,371.75373 C 236.23582,377.00469 241.22509,403.92257 256.28986,401.46364 C 252.25776,413.72813 257.02794,414.18776 264.46247,413.43633 C 250.96118,414.00996 255.43341,430.26647 260.79503,428.47812 C 263.82611,436.18198 268.58964,439.19876 278.86803,446.03966 C 285.32608,450.33789 297.54089,447.12447 317.24948,446.1272 C 344.62467,444.74199 362.21314,408.24657 354.47536,362.96838 C 350.85055,353.71417 353.28046,346.08347 353.28046,346.08347 C 377.41276,331.40287 388.9124,305.20164 389.32099,287.08872 C 389.76396,266.63949 392.83062,217.25635 379.97348,194.39921 C 367.11633,171.54206 279.28571,156.64789 261.42857,178.07646 z "
         style="fill:#b16f45;fill-opacity:1;fill-rule:evenodd;stroke:none;stroke-width:1pt;stroke-linecap:butt;stroke-linejoin:miter;stroke-opacity:1" />
      <path
         sodipodi:nodetypes="csssscssssssc"
         id="path1307"
         d="M 312.91142,143.71565 C 312.91142,143.71565 282.34382,128.1113 254.20661,140.99711 C 226.0694,153.88291 199.19233,217.07634 210.73238,252.85389 C 222.27245,288.63145 199.13154,306.03238 192.99303,303.1317 C 181.4109,297.65869 169.09067,276.42613 175.75591,265.3249 C 182.42116,254.22367 167.77444,266.52456 167.77444,266.52456 C 167.77444,266.52456 160.45607,292.30626 174.55761,307.34541 C 184.04334,317.46185 194.29523,323.13479 204.93718,321.53524 C 220.95546,319.12761 235.93696,299.56254 240.51982,283.00322 C 244.01661,270.36821 239.5838,238.89177 241.73214,230.8812 C 245.36084,217.35083 250.52182,194.93353 268.37912,196.5778 C 286.23641,198.22207 303.05235,199.26127 311.135,191.59414 C 321.97902,181.30759 318.78248,157.26091 312.91142,143.71565 z "
         style="fill:#794a2d;fill-opacity:1;fill-rule:evenodd;stroke:none;stroke-width:10;stroke-linecap:butt;stroke-linejoin:miter;stroke-miterlimit:4;stroke-dasharray:none;stroke-opacity:1" />
      <path
         id="path3076"
         d="M 246.26623,217.5668 C 246.26623,217.5668 209.20917,250.70996 215.33027,298.47308 C 221.45138,346.2362 227.39531,322.48703 227.39531,322.48703 C 227.39531,322.48703 254.37764,263.48682 258.13342,247.36776 C 261.8892,231.24869 247.04431,219.06173 247.04431,219.06173"
         style="fill:#b16f45;fill-opacity:1;fill-rule:evenodd;stroke:none;stroke-width:1pt;stroke-linecap:butt;stroke-linejoin:miter;stroke-opacity:1" />
      <path
         sodipodi:nodetypes="csssscssssssc"
         id="path1309"
         d="M 314.9682,146.19029 C 314.9682,146.19029 348.35766,131.97009 378.02094,146.11397 C 407.68421,160.25786 434.01826,224.62315 420.23775,259.86059 C 406.45725,295.09804 430.58574,313.52966 437.28176,310.90681 C 449.91582,305.95799 463.96096,285.29209 457.25069,273.89756 C 450.54042,262.50305 465.76159,275.45554 465.76159,275.45554 C 465.76159,275.45554 472.59495,301.55128 456.88333,315.94729 C 446.31455,325.63111 435.09898,330.83957 423.75109,328.76227 C 406.67028,325.63554 391.37576,305.40807 387.11291,288.65233 C 383.86029,275.86745 389.851,244.60889 387.86242,236.5064 C 384.50357,222.82075 379.85118,200.18446 360.63916,201.02452 C 341.42715,201.86458 323.35551,202.14677 314.99041,194.12057 C 303.76743,183.35228 308.1404,159.46351 314.9682,146.19029 z "
         style="fill:#794a2d;fill-opacity:1;fill-rule:evenodd;stroke:none;stroke-width:10;stroke-linecap:butt;stroke-linejoin:miter;stroke-miterlimit:4;stroke-dasharray:none;stroke-opacity:1" />
      <path
         transform="matrix(0.570992,0.231163,-0.920815,1.335836,511.9578,-186.9644)"
         d="M 272.09116 387.12549 A 12.742562 7.8704057 0 1 1  246.60604,387.12549 A 12.742562 7.8704057 0 1 1  272.09116 387.12549 z"
         sodipodi:ry="7.8704057"
         sodipodi:rx="12.742562"
         sodipodi:cy="387.12549"
         sodipodi:cx="259.3486"
         id="path2186"
         style="opacity:1;color:black;fill:#704326;fill-opacity:1;fill-rule:evenodd;stroke:none;stroke-width:10;stroke-linecap:butt;stroke-linejoin:bevel;marker:none;marker-start:none;marker-mid:none;marker-end:none;stroke-miterlimit:4;stroke-dasharray:none;stroke-dashoffset:0;stroke-opacity:1;visibility:visible;display:inline;overflow:visible"
         sodipodi:type="arc" />
      <path
         transform="matrix(1.041438,-0.240437,0.318374,1.137138,-88.00012,31.33542)"
         d="M 293.8285 247.33209 A 23.985998 13.492125 0 1 1  245.8565,247.33209 A 23.985998 13.492125 0 1 1  293.8285 247.33209 z"
         sodipodi:ry="13.492125"
         sodipodi:rx="23.985998"
         sodipodi:cy="247.33209"
         sodipodi:cx="269.8425"
         id="path3080"
         style="opacity:1;color:black;fill:#794a2d;fill-opacity:1;fill-rule:evenodd;stroke:none;stroke-width:10;stroke-linecap:butt;stroke-linejoin:bevel;marker:none;marker-start:none;marker-mid:none;marker-end:none;stroke-miterlimit:4;stroke-dasharray:none;stroke-dashoffset:0;stroke-opacity:1;visibility:visible;display:inline;overflow:visible"
         sodipodi:type="arc" />
      <path
         d="M 293.8285 247.33209 A 23.985998 13.492125 0 1 1  245.8565,247.33209 A 23.985998 13.492125 0 1 1  293.8285 247.33209 z"
         sodipodi:ry="13.492125"
         sodipodi:rx="23.985998"
         sodipodi:cy="247.33209"
         sodipodi:cx="269.8425"
         id="path2188"
         style="opacity:1;color:black;fill:white;fill-opacity:1;fill-rule:evenodd;stroke:none;stroke-width:10;stroke-linecap:butt;stroke-linejoin:bevel;marker:none;marker-start:none;marker-mid:none;marker-end:none;stroke-miterlimit:4;stroke-dasharray:none;stroke-dashoffset:0;stroke-opacity:1;visibility:visible;display:inline;overflow:visible"
         sodipodi:type="arc" />
      <path
         transform="matrix(1.103398,0,0,1,-34.10481,-2.155206)"
         d="M 368.03517 249.20599 A 34.854656 31.856405 0 1 1  298.32586,249.20599 A 34.854656 31.856405 0 1 1  368.03517 249.20599 z"
         sodipodi:ry="31.856405"
         sodipodi:rx="34.854656"
         sodipodi:cy="249.20599"
         sodipodi:cx="333.18051"
         id="path3082"
         style="opacity:1;color:black;fill:#794a2d;fill-opacity:1;fill-rule:evenodd;stroke:none;stroke-width:10;stroke-linecap:butt;stroke-linejoin:bevel;marker:none;marker-start:none;marker-mid:none;marker-end:none;stroke-miterlimit:4;stroke-dasharray:none;stroke-dashoffset:0;stroke-opacity:1;visibility:visible;display:inline;overflow:visible"
         sodipodi:type="arc" />
      <path
         transform="translate(-2.248687,-5.9965)"
         d="M 368.03517 249.20599 A 34.854656 31.856405 0 1 1  298.32586,249.20599 A 34.854656 31.856405 0 1 1  368.03517 249.20599 z"
         sodipodi:ry="31.856405"
         sodipodi:rx="34.854656"
         sodipodi:cy="249.20599"
         sodipodi:cx="333.18051"
         id="path2190"
         style="opacity:1;color:black;fill:white;fill-opacity:1;fill-rule:evenodd;stroke:none;stroke-width:10;stroke-linecap:butt;stroke-linejoin:bevel;marker:none;marker-start:none;marker-mid:none;marker-end:none;stroke-miterlimit:4;stroke-dasharray:none;stroke-dashoffset:0;stroke-opacity:1;visibility:visible;display:inline;overflow:visible"
         sodipodi:type="arc" />
      <path
         id="path2192"
         d="M 247.35561,236.08866 C 295.32761,249.58078 295.32761,248.83122 295.32761,248.83122 L 365.03692,203.85747 L 298.32586,200.10966 L 247.35561,236.08866 z "
         style="opacity:1;color:black;fill:#b16f45;fill-opacity:1;fill-rule:evenodd;stroke:none;stroke-width:1pt;stroke-linecap:butt;stroke-linejoin:miter;marker:none;marker-start:none;marker-mid:none;marker-end:none;stroke-miterlimit:4;stroke-dasharray:none;stroke-dashoffset:0;stroke-opacity:1;visibility:visible;display:inline;overflow:visible" />
      <path
         transform="translate(11.993,2.248687)"
         d="M 342.55006 248.08165 A 12.367781 13.492125 0 1 1  317.8145,248.08165 A 12.367781 13.492125 0 1 1  342.55006 248.08165 z"
         sodipodi:ry="13.492125"
         sodipodi:rx="12.367781"
         sodipodi:cy="248.08165"
         sodipodi:cx="330.18228"
         id="path2194"
         style="opacity:1;color:black;fill:#3e2514;fill-opacity:1;fill-rule:evenodd;stroke:none;stroke-width:1pt;stroke-linecap:butt;stroke-linejoin:miter;marker:none;marker-start:none;marker-mid:none;marker-end:none;stroke-miterlimit:4;stroke-dasharray:none;stroke-dashoffset:0;stroke-opacity:1;visibility:visible;display:inline;overflow:visible"
         sodipodi:type="arc" />
      <path
         transform="matrix(0.333341,0,0,0.277782,238.4835,172.423)"
         d="M 342.55006 248.08165 A 12.367781 13.492125 0 1 1  317.8145,248.08165 A 12.367781 13.492125 0 1 1  342.55006 248.08165 z"
         sodipodi:ry="13.492125"
         sodipodi:rx="12.367781"
         sodipodi:cy="248.08165"
         sodipodi:cx="330.18228"
         id="path2196"
         style="opacity:1;color:black;fill:#fffbf9;fill-opacity:1;fill-rule:evenodd;stroke:none;stroke-width:1pt;stroke-linecap:butt;stroke-linejoin:miter;marker:none;marker-start:none;marker-mid:none;marker-end:none;stroke-miterlimit:4;stroke-dasharray:none;stroke-dashoffset:0;stroke-opacity:1;visibility:visible;display:inline;overflow:visible"
         sodipodi:type="arc" />
      <path
         transform="matrix(0.555556,0,0,0.555556,90.1557,114.0063)"
         d="M 342.55006 248.08165 A 12.367781 13.492125 0 1 1  317.8145,248.08165 A 12.367781 13.492125 0 1 1  342.55006 248.08165 z"
         sodipodi:ry="13.492125"
         sodipodi:rx="12.367781"
         sodipodi:cy="248.08165"
         sodipodi:cx="330.18228"
         id="path2198"
         style="opacity:1;color:black;fill:#3e2514;fill-opacity:1;fill-rule:evenodd;stroke:none;stroke-width:1pt;stroke-linecap:butt;stroke-linejoin:miter;marker:none;marker-start:none;marker-mid:none;marker-end:none;stroke-miterlimit:4;stroke-dasharray:none;stroke-dashoffset:0;stroke-opacity:1;visibility:visible;display:inline;overflow:visible"
         sodipodi:type="arc" />
      <path
         transform="matrix(0.185189,0,0,0.154323,215.9837,208.5476)"
         d="M 342.55006 248.08165 A 12.367781 13.492125 0 1 1  317.8145,248.08165 A 12.367781 13.492125 0 1 1  342.55006 248.08165 z"
         sodipodi:ry="13.492125"
         sodipodi:rx="12.367781"
         sodipodi:cy="248.08165"
         sodipodi:cx="330.18228"
         id="path2200"
         style="opacity:1;color:black;fill:#fffbf9;fill-opacity:1;fill-rule:evenodd;stroke:none;stroke-width:1pt;stroke-linecap:butt;stroke-linejoin:miter;marker:none;marker-start:none;marker-mid:none;marker-end:none;stroke-miterlimit:4;stroke-dasharray:none;stroke-dashoffset:0;stroke-opacity:1;visibility:visible;display:inline;overflow:visible"
         sodipodi:type="arc" />
      <path
         sodipodi:nodetypes="ccccccccc"
         id="path1324"
         d="M 244.31266,235.57241 L 295.32762,248.8312 L 356.78686,212.7579 L 348.49209,206.52807 L 297.5763,242.27376 L 299.20957,229.19869 L 291.99686,232.52456 L 293.50086,242.8347 L 244.31266,235.57241 z "
         style="fill:#794a2d;fill-opacity:1;fill-rule:evenodd;stroke:none;stroke-width:1pt;stroke-linecap:butt;stroke-linejoin:miter;stroke-opacity:1" />
      <path
         sodipodi:nodetypes="ccc"
         id="path2199"
         d="M 317.47223,389.56929 C 328.28398,375.48126 312.88543,365.32475 298.79739,376.46413 C 316.81697,371.22207 320.42089,378.42991 317.47223,389.56929 z "
         style="fill:#794a2d;fill-opacity:1;fill-rule:evenodd;stroke:none;stroke-width:1pt;stroke-linecap:butt;stroke-linejoin:miter;stroke-opacity:1" />
      <path
         id="path3074"
         d="M 384.82607,228.37595 C 384.82607,228.37595 421.19285,251.63759 425.77966,299.47138 C 430.36646,347.30518 420.86522,325.68168 420.86522,325.68168 C 420.86522,325.68168 387.4471,274.89923 381.22215,260.15594 C 374.9972,245.41265 384.49844,230.0141 384.49844,230.0141"
         style="fill:#b16f45;fill-opacity:1;fill-rule:evenodd;stroke:none;stroke-width:1pt;stroke-linecap:butt;stroke-linejoin:miter;stroke-opacity:1" />
      <path
         sodipodi:nodetypes="cscscscsccsssssssscc"
         id="path3078"
         d="M 260.46483,412.83092 C 260.46483,412.83092 269.31081,417.0901 278.48441,413.48618 C 287.65802,409.88226 289.95142,414.46906 289.95142,414.46906 C 289.95142,414.46906 294.09842,423.27521 307.971,418.07298 C 318.45511,414.14143 318.12749,406.27835 318.12749,406.27835 C 318.12749,406.27835 319.76563,395.79423 331.23264,393.50083 C 344.1833,390.9107 336.14707,365.98002 336.14707,365.98002 C 336.14707,365.98002 331.88789,354.84064 332.87078,347.96044 C 333.85367,341.08023 346.30356,330.26848 346.30356,330.26848 L 353.18376,334.52765 C 353.18376,334.52765 337.12996,342.39075 335.81944,349.27095 C 334.50893,356.15115 343.38526,371.59611 343.68253,381.37856 C 344.02611,392.68484 339.09572,400.38103 332.54315,403.00206 C 327.73339,404.92596 325.66295,407.91649 324.02481,410.20989 C 321.21314,414.14623 321.61854,416.94649 318.78275,420.03875 C 316.1748,422.88256 308.23282,427.37026 295.52111,424.95319 C 291.00877,424.09519 288.96853,417.0901 284.0541,417.0901 C 280.12255,417.0901 278.15678,419.3835 273.24235,419.71112 C 268.32792,420.03875 259.48195,417.0901 259.48195,417.0901 L 260.46483,412.83092 z "
         style="fill:#794a2d;fill-opacity:1;fill-rule:evenodd;stroke:none;stroke-width:1pt;stroke-linecap:butt;stroke-linejoin:miter;stroke-opacity:1" />
      <path
         id="path3084"
         d="M 417.61629,296.0625 L 417.42879,296.15625 C 417.42418,296.15504 417.40432,296.15787 417.39754,296.15625 C 417.14949,296.10328 416.09933,295.94732 415.27254,297.1875 C 414.95066,297.6703 415.07852,298.59622 415.42879,299.28125 C 415.43644,299.28755 415.42117,299.30617 415.42879,299.3125 C 415.43265,299.31989 415.45614,299.30516 415.46004,299.3125 C 415.46916,299.32013 415.48221,299.33607 415.49129,299.34375 C 415.50238,299.3641 415.47983,299.38639 415.49129,299.40625 C 415.4943,299.40883 415.51954,299.40367 415.52254,299.40625 C 415.52668,299.41328 415.51836,299.43054 415.52254,299.4375 C 416.98165,300.70362 417.92879,302.54136 417.92879,304.625 C 417.92878,308.4388 414.83634,311.53125 411.02254,311.53125 C 407.20872,311.53123 404.11629,308.4388 404.11629,304.625 C 404.11629,303.35331 404.45423,302.18251 405.05379,301.15625 L 402.80379,297.59375 C 401.17744,299.48523 400.21004,301.93822 400.21004,304.625 C 400.21005,310.59443 405.05311,315.4375 411.02254,315.4375 C 416.99195,315.43748 421.83504,310.59442 421.83504,304.625 C 421.83503,301.13695 420.18181,298.04332 417.61629,296.0625 z "
         style="opacity:1;color:black;fill:#aba6a4;fill-opacity:1;fill-rule:evenodd;stroke:none;stroke-width:7;stroke-linecap:butt;stroke-linejoin:miter;marker:none;marker-start:none;marker-mid:none;marker-end:none;stroke-miterlimit:4;stroke-dasharray:none;stroke-dashoffset:0;stroke-opacity:1;visibility:visible;display:inline;overflow:visible" />
      <path
         sodipodi:nodetypes="cccsc"
         id="path8941"
         d="M 403.89342,153.83882 C 367.58891,166.74818 353.64521,170.24519 304.60319,179.24485 C 262.71784,187.6232 248.40832,187.66287 208.26878,189.28726 C 196.08277,139.54294 236.55711,86.681811 290.31859,76.71647 C 344.08004,66.751101 391.70741,104.09449 403.89342,153.83882 z "
         style="fill:url(#radialGradient5690);fill-opacity:1;fill-rule:nonzero;stroke:none;stroke-width:20;stroke-linecap:round;stroke-linejoin:round;stroke-miterlimit:4;stroke-dashoffset:0;stroke-opacity:1;display:inline" />
      <rect
         ry="8.9865465"
         rx="9.5420742"
         y="98.538124"
         x="297.25101"
         height="72.416145"
         width="50.346462"
         id="rect2224"
         style="opacity:1;color:black;fill:#eaeacd;fill-opacity:1;fill-rule:evenodd;stroke:none;stroke-width:7;stroke-linecap:butt;stroke-linejoin:miter;marker:none;marker-start:none;marker-mid:none;marker-end:none;stroke-miterlimit:4;stroke-dasharray:none;stroke-dashoffset:0;stroke-opacity:1;visibility:visible;display:inline;overflow:visible" />
      <path
         sodipodi:nodetypes="cscsssssssssssscsc"
         id="path4940"
         d="M 321.1787,109.9557 C 318.80627,117.62043 302.80674,127.98636 306.33495,134.79945 C 309.51129,140.93307 315.26635,138.78119 320.08495,136.04945 C 319.70115,141.00602 318.30387,149.34305 313.39745,150.61195 C 312.7512,150.77908 312.43171,150.92166 312.3662,151.04945 C 312.36437,151.05471 312.36714,151.07551 312.3662,151.0807 C 312.36614,151.08583 312.36538,151.10689 312.3662,151.11195 C 312.36788,151.11694 312.36366,151.13827 312.3662,151.1432 C 312.36958,151.14806 312.39323,151.16965 312.39745,151.17445 C 312.4025,151.17918 312.42283,151.20103 312.4287,151.2057 C 312.44206,151.21491 312.47464,151.228 312.4912,151.23695 C 314.19565,152.06599 329.72846,151.75513 330.08495,150.8307 C 330.08598,150.82575 330.08479,150.80444 330.08495,150.79945 C 330.08014,150.78428 330.06667,150.75242 330.0537,150.73695 C 329.93831,150.62273 329.5707,150.49167 328.95995,150.36195 C 324.1482,149.33999 322.63416,140.79626 322.14745,135.7682 C 326.66773,138.67221 333.84908,140.18623 337.2412,134.29945 C 340.75995,128.19292 322.82114,117.62043 321.1787,109.9557 z "
         style="fill:black;fill-opacity:1;fill-rule:evenodd;stroke:none;stroke-width:1pt;stroke-linecap:butt;stroke-linejoin:miter;stroke-opacity:1" />
      <path
         id="path1340"
         d="M 391.94369,120.09298 C 359.64745,131.41605 344.70429,135.00683 298.25619,143.53048 C 257.86527,151.6099 243.09548,151.90466 206.09994,153.37423 C 204.64303,163.19743 204.97704,173.27647 207.41244,183.21798 C 247.55198,181.59359 261.87084,181.56508 303.75619,173.18673 C 352.79821,164.18707 366.73294,160.68985 403.03744,147.78048 C 400.63742,137.98339 396.86928,128.66136 391.94369,120.09298 z "
         style="fill:#87875b;fill-opacity:1;fill-rule:nonzero;stroke:none;stroke-width:20;stroke-linecap:round;stroke-linejoin:round;stroke-miterlimit:4;stroke-dashoffset:0;stroke-opacity:1;display:inline" />
      <path
         sodipodi:nodetypes="ccccccccccccccccccccccccccccccccccccc"
         id="path2226"
         d="M 268.09363,436.54617 C 272.63341,443.05843 268.66611,450.83633 264.0868,456.05258 C 260.73931,460.17863 262.2464,468.11207 263.03127,474.38925 C 269.32588,473.77434 266.5378,456.88988 271.62797,462.2919 C 274.1611,470.51439 265.73954,479.83439 271.12446,486.68299 C 275.3979,479.02088 273.51623,475.9785 274.72587,471.74286 C 273.28044,465.37151 275.7027,463.57938 277.41091,469.96088 C 279.34909,476.01255 277.35778,484.39611 279.16217,489.66565 C 285.85252,487.29594 281.10128,476.45977 284.15527,470.8798 C 287.24236,463.77981 290.15374,473.99496 287.54068,477.86282 C 286.68106,482.87249 284.1376,491.27535 289.3264,494.10522 C 291.82734,486.43692 292.0485,478.05695 295.67906,470.74369 C 297.0023,477.98322 295.11142,486.73945 300.09734,492.91389 C 304.929,489.01615 300.81795,473.18959 303.78131,473.05261 C 303.71473,479.76351 306.71152,486.1671 309.80309,491.91523 C 312.5621,484.7702 306.76515,473.8956 314.46695,468.65971 C 317.74372,474.55277 316.93555,483.07002 323.43657,487.53995 C 328.26143,492.81329 323.64897,476.98659 325.88165,474.057 C 326.96548,469.14068 327.65676,464.38587 329.23825,461.18358 C 332.83201,466.67024 334.05154,475.92467 335.0899,480.05481 C 343.44577,479.37733 336.04837,466.71536 339.47018,461.13021 C 341.18679,464.58962 343.87833,473.19043 347.6763,475.82106 C 349.43699,469.0826 343.68533,462.03573 345.03213,455.12857 C 350.23998,447.5705 348.50375,466.51291 356.89636,463.75622 C 357.2251,457.55717 352.94804,451.50561 351.61,445.31898 C 349.43336,437.22656 356.13969,451.41405 360.41782,450.98715 C 361.40555,442.75226 352.10418,430.19475 355.8267,423.92149 C 357.10198,428.24918 360.62663,441.76018 360.67914,431.72915 C 363.67662,426.94488 357.79268,418.44908 358.22103,417.35289 C 364.09237,423.89582 364.99624,418.78977 359.59735,411.82037 C 356.37453,407.83377 355.95015,404.1046 359.95103,409.32145 C 365.80139,417.4541 361.41138,401.84919 358.92948,400.62124 C 354.84146,397.83031 356.42243,383.02548 350.83812,389.43301 C 341.77177,397.01414 341.73908,423.25324 334.07342,432.10113 C 325.23646,441.04478 303.03573,444.4135 290.2882,442.69205 C 283.2158,442.09751 279.54656,443.25869 272.74849,438.85881 C 271.26128,438.80485 269.33603,435.95094 268.09363,436.54617 z "
         style="fill:url(#linearGradient5692);fill-opacity:1;fill-rule:evenodd;stroke:none;stroke-width:1pt;stroke-linecap:butt;stroke-linejoin:miter;stroke-opacity:1" />
      <path
         id="path2267"
         d="M 440.60572,496.25911 L 406.05433,509.67098 L 434.20381,486.03544 C 420.66139,471.59576 394.01058,470.56074 371.31841,484.60708 C 346.27877,500.10649 335.51107,528.11139 347.26061,547.09306 C 359.01017,566.07472 388.86153,568.89988 413.90117,553.40046 C 436.6808,539.29999 447.6553,514.84678 440.60572,496.25911 z "
         style="opacity:1;color:black;fill:url(#linearGradient5694);fill-opacity:1;fill-rule:evenodd;stroke:none;stroke-width:7;stroke-linecap:butt;stroke-linejoin:miter;marker:none;marker-start:none;marker-mid:none;marker-end:none;stroke-miterlimit:4;stroke-dasharray:none;stroke-dashoffset:0;stroke-opacity:1;visibility:visible;display:inline;overflow:visible" />
      <path
         id="path2284"
         d="M 545.53419,392.38628 C 545.53419,392.38628 557.58069,462.94433 557.58069,476.71175 C 557.58069,490.47918 555.85976,508.54892 555.85976,508.54892 C 555.85976,508.54892 563.60393,522.31635 581.67368,514.57217 C 599.74342,506.82799 608.34806,508.54892 608.34806,498.22335 C 608.34806,487.89778 593.72017,462.94433 591.99925,455.20015 C 590.27832,447.45598 575.65043,340.75844 575.65043,340.75844 C 575.65043,340.75844 562.74347,327.85148 551.55744,333.01426 C 540.37141,338.17705 536.92955,351.94447 536.92955,351.94447 L 545.53419,392.38628 z "
         style="fill:url(#linearGradient5696);fill-opacity:1;fill-rule:evenodd;stroke:none;stroke-width:1pt;stroke-linecap:butt;stroke-linejoin:miter;stroke-opacity:1" />
      <path
         id="path2280"
         d="M 514.69525,262.37747 L 528.97462,296.57947 L 504.63636,269.0353 C 490.54297,282.93773 490.18071,309.60618 504.79512,331.93673 C 520.92137,356.57733 549.18903,366.63501 567.86821,354.41028 C 586.54737,342.18554 588.61845,312.2724 572.49219,287.6318 C 557.82146,265.21518 533.09914,254.86115 514.69525,262.37747 z "
         style="opacity:1;color:black;fill:url(#linearGradient5698);fill-opacity:1;fill-rule:evenodd;stroke:none;stroke-width:7;stroke-linecap:butt;stroke-linejoin:miter;marker:none;marker-start:none;marker-mid:none;marker-end:none;stroke-miterlimit:4;stroke-dasharray:none;stroke-dashoffset:0;stroke-opacity:1;visibility:visible;display:inline;overflow:visible" />
      <path
         sodipodi:nodetypes="ccccccccc"
         id="rect4756"
         d="M 427.30527,294.57641 L 479.72341,294.44312 C 485.00972,294.44312 489.26549,298.45112 489.26549,303.42966 L 489.26549,311.27049 C 489.26549,316.24904 485.00972,320.25704 479.72341,320.25704 L 422.22625,320.25704 C 416.93994,320.25704 416.63258,315.933 416.63258,310.95445 L 415.98905,306.31411 C 415.98905,301.33557 422.01896,294.57641 427.30527,294.57641 z "
         style="color:black;fill:url(#linearGradient5700);fill-opacity:1;fill-rule:evenodd;stroke:none;stroke-width:12;stroke-linecap:butt;stroke-linejoin:miter;marker:none;marker-start:none;marker-mid:none;marker-end:none;stroke-miterlimit:4;stroke-dashoffset:0;stroke-opacity:1;visibility:visible;display:inline;overflow:visible"
         transform="matrix(0.965035,0.262122,-0.262122,0.965035,0,0)" />
      <path
         id="rect4760"
         d="M 363.80388,403.93353 L 356.1633,428.60594 L 358.24415,429.17114 C 361.08642,419.18235 364.22004,408.17228 365.31175,404.3431 L 363.80388,403.93353 z M 366.69899,404.7199 L 358.96793,429.36773 L 364.27562,430.8094 L 370.6496,405.79296 L 366.69899,404.7199 z M 371.43369,406.00593 L 365.08987,431.03057 L 366.59774,431.44014 L 373.21297,406.48922 L 371.43369,406.00593 z M 374.63036,406.87421 L 367.17073,431.59577 L 370.72929,432.56234 L 376.40965,407.3575 L 374.63036,406.87421 z M 377.82704,407.74249 L 371.33244,432.72617 L 374.01644,433.4552 L 381.9586,408.8647 L 377.82704,407.74249 z M 382.62206,409.04491 L 374.891,433.69274 L 378.5702,434.69208 C 379.0977,434.83536 379.61661,434.93211 380.14099,434.98921 L 385.54732,409.83946 C 385.46862,409.81607 385.41593,409.80378 385.33622,409.78212 L 382.62206,409.04491 z M 386.31503,410.11275 L 380.71659,435.01603 C 385.04779,435.24213 389.00581,432.63396 390.12728,428.50512 L 392.1833,420.93563 C 393.40133,416.45131 390.81256,411.83795 386.31503,410.11275 z "
         style="opacity:1;color:black;fill:url(#linearGradient5702);fill-opacity:1;fill-rule:evenodd;stroke:none;stroke-width:12;stroke-linecap:butt;stroke-linejoin:miter;marker:none;marker-start:none;marker-mid:none;marker-end:none;stroke-miterlimit:4;stroke-dasharray:none;stroke-dashoffset:0;stroke-opacity:1;visibility:visible;display:inline;overflow:visible" />
      <path
         sodipodi:nodetypes="cscsssssssssssscsc"
         id="path4945"
         d="M 340.51983,101.97991 C 339.97198,103.74984 336.27741,106.14352 337.09213,107.71678 C 337.82561,109.13315 339.15455,108.63624 340.26726,108.00543 C 340.17863,109.15 339.85597,111.07516 338.72299,111.36818 C 338.57376,111.40677 338.49999,111.43969 338.48486,111.4692 C 338.48443,111.47042 338.48508,111.47522 338.48486,111.47642 C 338.48485,111.47761 338.48467,111.48247 338.48486,111.48363 C 338.48524,111.48479 338.48427,111.48971 338.48486,111.49085 C 338.48564,111.49197 338.4911,111.49696 338.49208,111.49807 C 338.49324,111.49916 338.49794,111.50421 338.49929,111.50528 C 338.50238,111.50741 338.5099,111.51044 338.51372,111.5125 C 338.90731,111.70394 342.49412,111.63216 342.57644,111.41869 C 342.57668,111.41755 342.5764,111.41262 342.57644,111.41147 C 342.57533,111.40797 342.57222,111.40062 342.56922,111.39704 C 342.54258,111.37066 342.45769,111.3404 342.31665,111.31045 C 341.20553,111.07446 340.85592,109.10156 340.74353,107.94049 C 341.78734,108.61107 343.44564,108.96069 344.22895,107.60133 C 345.04149,106.19121 340.89909,103.74984 340.51983,101.97991 z "
         style="fill:black;fill-opacity:1;fill-rule:evenodd;stroke:none;stroke-width:1pt;stroke-linecap:butt;stroke-linejoin:miter;stroke-opacity:1" />
      <text
         id="text4947"
         y="109.63437"
         x="300.99585"
         style="font-size:9.75780582px;font-style:normal;font-weight:normal;fill:black;fill-opacity:1;stroke:none;stroke-width:1pt;stroke-linecap:butt;stroke-linejoin:miter;stroke-opacity:1;font-family:Bitstream Vera Sans"
         xml:space="preserve"><tspan
           y="109.63437"
           x="300.99585"
           id="tspan4949"
           sodipodi:role="line">1</tspan></text>
      <flowRoot
         style="fill:#c61309;fill-opacity:1;stroke:#c61409;stroke-width:1.42027736;stroke-miterlimit:4;stroke-dasharray:none;stroke-opacity:1"
         transform="matrix(0.813943,0.125029,-0.242121,1.074464,80.30289,-43.15472)"
         id="flowRoot4975"
         xml:space="preserve"><flowRegion
           id="flowRegion4977"><rect
             style="fill:#c61309;fill-opacity:1;stroke:#c61409;stroke-width:1.42027736;stroke-miterlimit:4;stroke-dasharray:none;stroke-opacity:1"
             y="115.23264"
             x="223.36682"
             height="121.79467"
             width="218.3112"
             id="rect4979" /></flowRegion><flowPara
           style="font-size:16px;font-style:normal;font-variant:normal;font-weight:normal;font-stretch:normal;text-align:start;line-height:80.00000119%;writing-mode:lr-tb;text-anchor:start;fill:#c61309;fill-opacity:1;stroke:#c61409;stroke-width:1.42027736;stroke-miterlimit:4;stroke-dasharray:none;stroke-opacity:1;font-family:KirbysHand"
           id="flowPara4981">NO</flowPara><flowPara
           style="font-size:16px;font-style:normal;font-variant:normal;font-weight:normal;font-stretch:normal;text-align:start;line-height:80.00000119%;writing-mode:lr-tb;text-anchor:start;fill:#c61309;fill-opacity:1;stroke:#c61409;stroke-width:1.42027736;stroke-miterlimit:4;stroke-dasharray:none;stroke-opacity:1;font-family:KirbysHand"
           id="flowPara4983">FUTURE</flowPara></flowRoot>    </g>
  </g>
</svg>
