<?xml version="1.0" encoding="UTF-8" standalone="no"?>
<!-- Created with Inkscape (http://www.inkscape.org/) -->
<svg
   xmlns:dc="http://purl.org/dc/elements/1.1/"
   xmlns:cc="http://web.resource.org/cc/"
   xmlns:rdf="http://www.w3.org/1999/02/22-rdf-syntax-ns#"
   xmlns:svg="http://www.w3.org/2000/svg"
   xmlns="http://www.w3.org/2000/svg"
   xmlns:xlink="http://www.w3.org/1999/xlink"
   xmlns:sodipodi="http://sodipodi.sourceforge.net/DTD/sodipodi-0.dtd"
   xmlns:inkscape="http://www.inkscape.org/namespaces/inkscape"
   width="546.41992"
   height="869.55505"
   id="svg22648"
   sodipodi:version="0.32"
   inkscape:version="0.44"
   sodipodi:docbase="/home/yekcim/Desktop/Stock_SVG"
   sodipodi:docname="Perso_ver.svg"
   version="1.0">
  <defs
     id="defs22650">
    <linearGradient
       inkscape:collect="always"
       xlink:href="#linearGradient5443"
       id="linearGradient5481"
       gradientUnits="userSpaceOnUse"
       x1="232.41025"
       y1="289.14371"
       x2="357.2894"
       y2="289.14371" />
    <linearGradient
       id="linearGradient5443">
      <stop
         style="stop-color:#d6c176;stop-opacity:1;"
         offset="0"
         id="stop5445" />
      <stop
         style="stop-color:#855d29;stop-opacity:1;"
         offset="1"
         id="stop5447" />
    </linearGradient>
    <linearGradient
       inkscape:collect="always"
       xlink:href="#linearGradient5443"
       id="linearGradient5479"
       gradientUnits="userSpaceOnUse"
       gradientTransform="translate(-1.362784e-2,0.683271)"
       x1="232.41025"
       y1="289.14371"
       x2="357.2894"
       y2="289.14371" />
    <linearGradient
       id="linearGradient8944">
      <stop
         style="stop-color:#b9e48d;stop-opacity:1;"
         offset="0"
         id="stop8946" />
      <stop
         id="stop8962"
         offset="0.7230047"
         style="stop-color:#5d7538;stop-opacity:1;" />
      <stop
         style="stop-color:#525d36;stop-opacity:1;"
         offset="1"
         id="stop8948" />
    </linearGradient>
    <radialGradient
       inkscape:collect="always"
       xlink:href="#linearGradient8944"
       id="radialGradient5087"
       gradientUnits="userSpaceOnUse"
       gradientTransform="matrix(1.268649,-0.243817,0.121956,0.625011,-152.0125,149.0477)"
       cx="298.95676"
       cy="83.326347"
       fx="298.95676"
       fy="83.326347"
       r="58.114788" />
    <linearGradient
       id="linearGradient6401">
      <stop
         id="stop6403"
         offset="0"
         style="stop-color:#a4502e;stop-opacity:1" />
      <stop
         id="stop6405"
         offset="1"
         style="stop-color:#855d29;stop-opacity:1;" />
    </linearGradient>
    <linearGradient
       inkscape:collect="always"
       xlink:href="#linearGradient6401"
       id="linearGradient6399"
       gradientUnits="userSpaceOnUse"
       x1="174.04956"
       y1="615.93402"
       x2="278.45584"
       y2="623.37592"
       gradientTransform="matrix(2.079646,0,0,2.079646,25.47157,-581.7764)" />
    <linearGradient
       inkscape:collect="always"
       xlink:href="#linearGradient5443"
       id="linearGradient1943"
       gradientUnits="userSpaceOnUse"
       gradientTransform="translate(-1.362784e-2,0.683271)"
       x1="232.41025"
       y1="289.14371"
       x2="357.2894"
       y2="289.14371" />
    <linearGradient
       inkscape:collect="always"
       xlink:href="#linearGradient5443"
       id="linearGradient1945"
       gradientUnits="userSpaceOnUse"
       x1="232.41025"
       y1="289.14371"
       x2="357.2894"
       y2="289.14371" />
    <radialGradient
       inkscape:collect="always"
       xlink:href="#linearGradient8944"
       id="radialGradient1947"
       gradientUnits="userSpaceOnUse"
       gradientTransform="matrix(1.268649,-0.243817,0.121956,0.625011,-152.0125,149.0477)"
       cx="298.95676"
       cy="83.326347"
       fx="298.95676"
       fy="83.326347"
       r="58.114788" />
    <linearGradient
       inkscape:collect="always"
       xlink:href="#linearGradient6401"
       id="linearGradient1949"
       gradientUnits="userSpaceOnUse"
       gradientTransform="matrix(2.079646,0,0,2.079646,25.47157,-581.7764)"
       x1="174.04956"
       y1="615.93402"
       x2="278.45584"
       y2="623.37592" />
  </defs>
  <sodipodi:namedview
     id="base"
     pagecolor="#ffffff"
     bordercolor="#666666"
     borderopacity="1.0"
     inkscape:pageopacity="0.0"
     inkscape:pageshadow="2"
     inkscape:zoom="0.35"
     inkscape:cx="375"
     inkscape:cy="518.57143"
     inkscape:document-units="px"
     inkscape:current-layer="layer1"
     inkscape:window-width="1024"
     inkscape:window-height="626"
     inkscape:window-x="4"
     inkscape:window-y="48" />
  <metadata
     id="metadata22653">
    <rdf:RDF>
      <cc:Work
         rdf:about="">
        <dc:format>image/svg+xml</dc:format>
        <dc:type
           rdf:resource="http://purl.org/dc/dcmitype/StillImage" />
      </cc:Work>
    </rdf:RDF>
  </metadata>
  <g
     inkscape:label="Calque 1"
     inkscape:groupmode="layer"
     id="layer1"
     transform="translate(-69.64704,-51.87025)">
    <g
       id="g1912">
      <g
         transform="matrix(0.96832,7.733352e-2,-8.224735e-2,1.029851,250.8683,165.1905)"
         id="g5473"
         style="display:inline">
        <path
           style="color:black;fill:url(#linearGradient1943);fill-opacity:1;fill-rule:nonzero;stroke:#3551a4;stroke-width:25.94911575;stroke-linecap:butt;stroke-linejoin:miter;marker:none;marker-start:none;marker-mid:none;marker-end:none;stroke-miterlimit:13.89999962;stroke-dasharray:none;stroke-dashoffset:0;stroke-opacity:1;visibility:visible;display:inline;overflow:visible"
           d="M 294.8352,-119.41224 C 329.42616,-119.41224 357.55008,-83.865499 357.27376,-49.275629 C 357.27376,35.101326 309.38054,381.9599 317.27376,656.62753 C 313.39345,686.01327 329.42616,699.0661 294.8352,699.0661 C 260.24423,699.0661 276.27694,680.1265 272.39663,656.62753 C 284.21436,381.9599 232.39663,31.176816 232.39663,-49.275629 C 232.39663,-83.866599 260.24423,-119.41224 294.8352,-119.41224 z "
           id="path5469"
           sodipodi:nodetypes="cccsccc" />
        <path
           style="color:black;fill:url(#linearGradient1945);fill-opacity:1;fill-rule:nonzero;stroke:none;stroke-width:10.55000019;stroke-linecap:butt;stroke-linejoin:miter;marker:none;marker-start:none;marker-mid:none;marker-end:none;stroke-miterlimit:13.89999962;stroke-dashoffset:0;stroke-opacity:1;visibility:visible;display:inline;overflow:visible"
           d="M 294.84882,-120.09547 C 329.43978,-120.09547 357.5637,-84.548721 357.28738,-49.958858 C 357.28738,34.418109 309.39416,381.27668 317.28738,655.9443 C 313.40707,685.33004 329.43978,698.38287 294.84882,698.38287 C 260.25785,698.38287 276.29056,679.44327 272.41025,655.9443 C 284.22798,381.27668 232.41025,30.493599 232.41025,-49.958858 C 232.41025,-84.549825 260.25785,-120.09547 294.84882,-120.09547 z "
           id="rect5440"
           sodipodi:nodetypes="cccsccc" />
        <path
           style="color:black;fill:#970606;fill-opacity:0.46920818;fill-rule:nonzero;stroke:none;stroke-width:10.55000019;stroke-linecap:butt;stroke-linejoin:miter;marker:none;marker-start:none;marker-mid:none;marker-end:none;stroke-miterlimit:13.89999962;stroke-dashoffset:0;stroke-opacity:1;visibility:visible;display:inline;overflow:visible"
           d="M 234.41089,-3.3413004 C 236.49905,22.470521 239.69113,55.150535 243.37964,92.81495 L 346.12964,92.81495 C 349.5747,55.272608 352.53399,22.61882 354.44214,-3.3413004 L 234.41089,-3.3413004 z "
           id="path5451" />
        <path
           style="color:black;fill:white;fill-opacity:0.44868032;fill-rule:nonzero;stroke:none;stroke-width:10.55000019;stroke-linecap:butt;stroke-linejoin:miter;marker:none;marker-start:none;marker-mid:none;marker-end:none;stroke-miterlimit:13.89999962;stroke-dashoffset:0;stroke-opacity:1;visibility:visible;display:inline;overflow:visible"
           d="M 245.72829,119.875 C 247.49008,137.94839 249.34286,156.96327 251.19704,176.78125 L 338.85329,176.78125 C 340.61622,156.98248 342.35087,137.94838 344.00954,119.875 L 245.72829,119.875 z "
           id="path5460" />
      </g>
      <path
         sodipodi:nodetypes="ccccc"
         id="path6407"
         d="M 477.64495,623.93582 L 526.74226,625.93069 L 523.42772,653.28796 L 476.39527,651.19105 L 477.64495,623.93582 z "
         style="opacity:1;color:black;fill:white;fill-opacity:0.53372438;fill-rule:nonzero;stroke:none;stroke-width:5.08206797;stroke-linecap:butt;stroke-linejoin:miter;marker:none;marker-start:none;marker-mid:none;marker-end:none;stroke-miterlimit:13.89999962;stroke-dasharray:none;stroke-dashoffset:0;stroke-opacity:1;visibility:visible;display:inline;overflow:visible" />
      <g
         transform="matrix(1.791864,0,0,1.791864,-118.935,12.35136)"
         id="g4032"
         style="display:inline">
        <path
           style="opacity:1;fill:#4c5527;fill-opacity:1;fill-rule:nonzero;stroke:#3e5c95;stroke-width:18;stroke-linecap:round;stroke-linejoin:round;stroke-miterlimit:4;stroke-dasharray:none;stroke-dashoffset:0;stroke-opacity:1"
           d="M 255.45274,108.26296 C 252.8528,108.32782 250.23694,108.5941 247.60899,109.04421 C 215.57308,114.53129 194.50433,147.33811 200.57774,182.26296 C 200.72367,182.21448 200.87064,182.15483 201.01524,182.10671 C 203.02981,186.87583 229.22961,186.74785 260.51524,181.73171 C 292.55172,176.59518 317.84703,168.29345 316.98399,163.16921 C 316.93764,162.89398 316.8325,162.60232 316.64024,162.35671 C 311.06505,130.29678 284.54734,107.53721 255.45274,108.26296 z "
           id="path8968" />
        <path
           sodipodi:type="arc"
           style="opacity:1;fill:#324a36;fill-opacity:1;fill-rule:nonzero;stroke:none;stroke-width:20;stroke-linecap:round;stroke-linejoin:round;stroke-miterlimit:4;stroke-dasharray:none;stroke-dashoffset:0;stroke-opacity:1"
           id="path8964"
           sodipodi:cx="298.68939"
           sodipodi:cy="41.192123"
           sodipodi:rx="51.898262"
           sodipodi:ry="9.4075403"
           d="M 350.58765 41.192123 A 51.898262 9.4075403 0 1 1  246.79113,41.192123 A 51.898262 9.4075403 0 1 1  350.58765 41.192123 z"
           transform="matrix(1.118286,-0.179299,0.166192,0.986766,-82.04942,185.18)" />
        <path
           sodipodi:type="arc"
           style="opacity:1;fill:#1f3d24;fill-opacity:1;fill-rule:nonzero;stroke:none;stroke-width:20;stroke-linecap:round;stroke-linejoin:round;stroke-miterlimit:4;stroke-dasharray:none;stroke-dashoffset:0;stroke-opacity:1"
           id="path8966"
           sodipodi:cx="298.68939"
           sodipodi:cy="41.192123"
           sodipodi:rx="51.898262"
           sodipodi:ry="9.4075403"
           d="M 350.58765 41.192123 A 51.898262 9.4075403 0 1 1  246.79113,41.192123 A 51.898262 9.4075403 0 1 1  350.58765 41.192123 z"
           transform="matrix(0.976057,-0.158615,0.174796,0.614336,-40.23476,194.4999)" />
        <path
           style="opacity:1;fill:#d79ab3;fill-opacity:1;fill-rule:evenodd;stroke:#395c99;stroke-width:20;stroke-linecap:butt;stroke-linejoin:round;stroke-miterlimit:4;stroke-dasharray:none;stroke-opacity:1"
           d="M 291.09589,181.2805 C 291.09589,181.2805 282.93586,136.78167 250.51587,142.2805 C 218.09589,147.77933 229.09589,191.2805 229.09589,191.2805 C 229.09589,191.2805 232.65809,205.34762 236.03885,232.60679 C 236.88403,239.42159 290.90442,193.86817 288.97488,243.73855 C 287.80477,273.98111 237.65709,249.45451 239.46385,255.14352 C 248.54156,283.7268 237.04554,304.81719 231.47216,309.31719 C 213.72992,323.64244 110.70776,360.7096 115.39878,415.09705 C 119.62829,464.13374 156.83906,498.20712 259.47216,497.31719 C 372.53868,496.33679 396.99375,436.65438 399.47216,426.31719 C 403.87575,407.95029 388.21366,386.23775 345.89136,381.31719 C 310.14524,377.1612 307.82225,358.06376 339.33402,341.75178 C 339.33402,341.75178 340.52391,338.05326 335.07547,335.97614 C 331.25511,334.5197 327.60733,338.45098 323.90006,340.67534 C 303.04456,353.18864 297.40849,377.08628 308.47216,389.31719 C 321.52446,403.74654 362.65378,396.50982 364.47216,417.31719 C 366.46878,440.16407 300.28861,450.85369 261.91947,451.31719 C 225.47216,451.75747 213.02251,449.24381 191.47216,439.31719 C 179.28637,433.70412 170.93924,421.92864 173.47216,408.31719 C 178.15622,383.14591 236.85437,363.8773 261.71806,347.57402 C 279.5713,335.86754 303.43547,321.60134 300.65561,258.57402 C 299.13091,223.43607 294.05686,185.10017 291.09589,181.2805 z "
           id="path8939"
           sodipodi:nodetypes="cscsssssssscscsssssssc" />
        <path
           style="fill:white;fill-opacity:1;fill-rule:evenodd;stroke:#94328c;stroke-width:3.69531298;stroke-linecap:butt;stroke-linejoin:miter;stroke-miterlimit:4;stroke-dasharray:none;stroke-opacity:1"
           d="M 244.01736,255.17099 L 241.68145,230.26436 L 264.33977,214.93721 L 286.99809,217.9479 L 292.37068,244.77042 L 286.29732,262.28717 L 263.17182,264.20307 L 244.01736,255.17099 z "
           id="path2225" />
        <path
           style="fill:#e6e6e6;fill-opacity:1;fill-rule:evenodd;stroke:none;stroke-width:1pt;stroke-linecap:butt;stroke-linejoin:miter;stroke-opacity:1"
           d="M 243.61347,227.73473 L 244.53484,239.25196 C 244.53484,239.25196 267.10862,230.26852 271.71551,230.03818 C 276.32241,229.80783 285.0755,229.34714 287.37895,231.42025 C 289.6824,233.49335 287.83964,218.75129 287.83964,218.75129 L 262.96242,217.59957 L 243.61347,227.73473 z "
           id="path1334" />
        <path
           style="opacity:1;fill:#ffc03e;fill-opacity:1;fill-rule:evenodd;stroke:none;stroke-width:4;stroke-linecap:butt;stroke-linejoin:miter;stroke-miterlimit:4;stroke-dasharray:none;stroke-opacity:1"
           d="M 290.80019,181.23979 C 290.80019,181.23979 282.64016,136.74096 250.22017,142.23979 C 217.80019,147.73862 228.80019,191.23979 228.80019,191.23979 C 228.80019,191.23979 228.6739,205.83384 235.21622,235.72765 C 236.68434,242.43589 290.60872,193.82746 288.67918,243.69784 C 287.50907,273.9404 237.36139,249.4138 239.16815,255.10281 C 248.24586,283.68609 236.74984,304.77648 231.17646,309.27648 C 213.43422,323.60173 110.41206,360.66889 115.10308,415.05634 C 119.33259,464.09303 156.54336,498.16641 259.17646,497.27648 C 372.24298,496.29608 396.69805,436.61367 399.17646,426.27648 C 403.58005,407.90958 388.16118,379.38812 345.59566,381.27648 C 315.41044,373.41323 320.17623,353.18498 339.45402,342.4339 C 339.45402,342.4339 339.84723,337.17471 333.79866,333.35898 C 328.86703,330.24787 319.69856,339.26031 319.69856,339.26031 C 298.93787,355.57228 297.11279,377.04557 308.17646,389.27648 C 321.22876,403.70583 362.35808,396.46911 364.17646,417.27648 C 366.17308,440.12336 299.99291,450.81298 261.62377,451.27648 C 225.17646,451.71676 212.72681,449.2031 191.17646,439.27648 C 178.99067,433.66341 170.64354,421.88793 173.17646,408.27648 C 177.86052,383.1052 236.55867,363.83659 261.42236,347.53331 C 279.2756,335.82683 303.13977,321.56063 300.35991,258.53331 C 298.83521,223.39536 293.76116,185.05946 290.80019,181.23979 z "
           id="path1307"
           sodipodi:nodetypes="cscsssssssccscsssssssc" />
        <path
           style="opacity:1;fill:#f4e4a1;fill-opacity:1;fill-rule:evenodd;stroke:none;stroke-width:4;stroke-linecap:butt;stroke-linejoin:miter;stroke-miterlimit:4;stroke-dasharray:none;stroke-opacity:1"
           d="M 254.76898,141.28832 C 253.24566,141.32207 251.66531,141.47784 250.01898,141.75707 C 217.599,147.25591 228.61273,190.75707 228.61273,190.75707 C 228.61273,190.75707 236.92523,200.13207 236.92523,200.13207 C 236.92523,200.13207 225.94275,156.6309 258.36273,151.13207 C 267.82531,149.5271 275.22703,152.16176 280.95648,156.72582 C 275.42895,148.33337 267.04691,141.01629 254.76898,141.28832 z M 287.14398,229.72582 C 288.20273,233.14096 288.70631,237.57644 288.48773,243.22582 C 287.31762,273.46839 237.18097,248.94306 238.98773,254.63207 C 248.06544,283.21536 236.56111,304.28832 230.98773,308.78832 C 213.24549,323.11357 110.23421,360.18212 114.92523,414.56957 C 116.61507,434.16148 123.57436,451.37411 137.86273,464.91332 C 129.10933,453.12223 124.55945,439.26854 123.23773,423.94457 C 118.54671,369.55712 221.55799,332.48858 239.30023,318.16332 C 244.87361,313.66332 256.37794,292.59035 247.30023,264.00707 C 245.49347,258.31806 295.63012,282.84337 296.80023,252.60082 C 297.35669,238.21875 293.27669,231.7802 287.14398,229.72582 z M 326.18218,372.02283 C 330.786,380.6708 341.06732,386.63538 359.53394,384.89404 C 377.6549,383.18529 384.67627,393.22629 393.53284,400.50174 C 385.80914,388.33672 370.48861,378.42197 345.39398,380.78832 C 334.48465,381.81703 331.61219,375.68047 326.18218,372.02283 z M 363.58148,414.47582 C 363.76846,415.20599 363.9167,415.97553 363.98773,416.78832 C 365.98434,439.63519 299.79437,450.32482 261.42523,450.78832 C 224.97792,451.22859 212.53808,448.71494 190.98773,438.78832 C 188.58675,437.68237 186.31806,436.37089 184.26898,434.81957 C 187.52885,440.56082 192.88365,445.20768 199.30023,448.16332 C 220.85058,458.08994 233.32167,460.60359 269.76898,460.16332 C 308.13812,459.69982 355.85438,445.3217 368.08481,428.27103 C 371.36608,423.69655 368.46374,416.98277 363.58148,414.47582 z "
           id="path8934"
           sodipodi:nodetypes="csccscccsssscssssccscsccssscsssc" />
        <path
           style="opacity:0.69321493;fill:#dca025;fill-opacity:1;fill-rule:evenodd;stroke:none;stroke-width:4;stroke-linecap:butt;stroke-linejoin:miter;stroke-miterlimit:4;stroke-dasharray:none;stroke-opacity:1"
           d="M 276.81273,150.80728 C 280.50324,159.05956 282.33966,168.35249 282.33966,168.35249 C 285.30063,172.17216 290.37746,210.52703 291.90216,245.66499 C 293.29209,277.17865 249.53539,251.71299 245.92051,261.98681 C 238.12677,272.54471 325.64955,279.28054 252.96466,334.66499 C 229.31564,352.68508 169.39872,370.21247 164.71466,395.38374 C 162.81497,405.59233 162.81696,423.74236 180.72529,432.6949 C 174.56465,419.19117 173.36505,413.87139 174.08966,409.97749 C 178.77373,384.80622 237.47597,365.53077 262.33966,349.22749 C 280.1929,337.521 304.05702,323.25481 301.27716,260.22749 C 299.75246,225.08954 294.67563,186.73466 291.71466,182.91499 C 291.71466,182.91499 287.80525,162.4839 276.81273,150.80728 z M 264.52716,207.16499 C 254.53657,207.53496 240.0062,212.90703 232.3257,216.58421 C 233.04775,221.2979 231.99762,221.19438 235.5983,225.30097 C 244.64218,235.61553 256.2424,218.64092 264.04264,214.78908 C 266.2958,219.23854 285.01567,220.75037 289.41811,215.65868 C 294.81159,196.2699 272.23505,206.87955 264.52716,207.16499 z M 337.01934,336.38812 C 332.50515,338.9559 313.80708,351.12978 316.63958,364.16503 C 318.59719,373.17402 327.0149,377.49393 326.77542,371.9304 C 317.16149,355.16799 335.72354,344.69853 339.37646,342.45058 C 339.37646,342.45058 339.2979,337.86414 337.01934,336.38812 z M 306.5047,378.5771 C 305.15574,377.26527 303.4759,376.0026 301.84748,376.09281 C 302.9685,383.58076 307.71849,388.95381 309.23016,390.32184 C 320.51669,400.53591 353.86352,402.0857 364.60993,414.29198 C 364.72268,413.46678 357.9021,403.38396 348.8646,401.7491 C 327.79278,397.93727 319.91255,393.56915 306.5047,378.5771 z M 389.09926,396.6266 C 391.32972,402.85287 391.98757,408.07456 390.71466,413.38374 C 388.23625,423.72093 363.78118,483.40335 250.71466,484.38374 C 183.05564,484.97041 143.83572,470.36264 123.74591,446.28999 C 140.38361,478.46521 179.43059,498.09759 259.83354,497.4408 C 369.57056,496.54578 395.76285,437.82594 398.82195,427.64547 C 401.95912,417.20522 397.50462,402.06124 389.09926,396.6266 z "
           id="path8056"
           sodipodi:nodetypes="ccccsscsscccccsccccscccccscsccsscssc" />
        <path
           style="opacity:1;fill:white;fill-opacity:1;fill-rule:nonzero;stroke:#9f6094;stroke-width:0;stroke-linecap:round;stroke-linejoin:round;stroke-miterlimit:4;stroke-dasharray:none;stroke-dashoffset:0;stroke-opacity:1"
           d="M 281.53867,171.13103 C 271.48655,171.99336 262.30093,183.45509 258.47816,188.84352 C 250.19626,184.08934 244.1666,176.11597 237.79805,176.11597 C 225.78074,176.11597 221.20769,184.69179 221.20771,196.99523 C 221.20771,209.29867 230.9404,219.27648 242.95771,219.27648 C 251.37452,219.27648 258.71028,214.37629 262.33271,207.21398 C 266.30527,211.44733 271.94869,214.08898 278.20771,214.08898 C 290.22502,214.08898 299.98894,204.32504 299.98896,192.30773 C 299.98896,180.29042 291.69996,170.25933 281.53867,171.13103 z "
           id="path2190"
           sodipodi:nodetypes="ccssscssz" />
        <g
           transform="translate(15.93677,1.925247)"
           id="g4047">
          <path
             transform="translate(-34.84268,44.33288)"
             d="M 314.45246 152.25638 A 7.5961623 8.3127813 0 1 1  299.26013,152.25638 A 7.5961623 8.3127813 0 1 1  314.45246 152.25638 z"
             sodipodi:ry="8.3127813"
             sodipodi:rx="7.5961623"
             sodipodi:cy="152.25638"
             sodipodi:cx="306.85629"
             id="path2197"
             style="opacity:1;fill:#6e4827;fill-opacity:1;fill-rule:nonzero;stroke:#491e18;stroke-width:4;stroke-linecap:round;stroke-linejoin:round;stroke-miterlimit:4;stroke-dasharray:none;stroke-dashoffset:0;stroke-opacity:1"
             sodipodi:type="arc" />
          <path
             transform="matrix(0.502291,0,0,0.550832,147.0112,146.276)"
             d="M 258.26953 92.060379 A 5.8762765 5.4463053 0 1 1  246.51697,92.060379 A 5.8762765 5.4463053 0 1 1  258.26953 92.060379 z"
             sodipodi:ry="5.4463053"
             sodipodi:rx="5.8762765"
             sodipodi:cy="92.060379"
             sodipodi:cx="252.39325"
             id="path2201"
             style="opacity:1;fill:black;fill-opacity:1;fill-rule:nonzero;stroke:none;stroke-width:4;stroke-linecap:round;stroke-linejoin:round;stroke-miterlimit:4;stroke-dasharray:none;stroke-dashoffset:0;stroke-opacity:1"
             sodipodi:type="arc" />
          <path
             transform="matrix(0.340355,0,0,0.367221,187.0319,160.4684)"
             d="M 258.26953 92.060379 A 5.8762765 5.4463053 0 1 1  246.51697,92.060379 A 5.8762765 5.4463053 0 1 1  258.26953 92.060379 z"
             sodipodi:ry="5.4463053"
             sodipodi:rx="5.8762765"
             sodipodi:cy="92.060379"
             sodipodi:cx="252.39325"
             id="path2203"
             style="opacity:1;fill:white;fill-opacity:1;fill-rule:nonzero;stroke:none;stroke-width:4;stroke-linecap:round;stroke-linejoin:round;stroke-miterlimit:4;stroke-dasharray:none;stroke-dashoffset:0;stroke-opacity:1"
             sodipodi:type="arc" />
        </g>
        <g
           transform="translate(4.021195,3.390791)"
           id="g4052">
          <path
             transform="translate(-60.276,46.89968)"
             d="M 314.45246 152.25638 A 7.5961623 8.3127813 0 1 1  299.26013,152.25638 A 7.5961623 8.3127813 0 1 1  314.45246 152.25638 z"
             sodipodi:ry="8.3127813"
             sodipodi:rx="7.5961623"
             sodipodi:cy="152.25638"
             sodipodi:cx="306.85629"
             id="path2195"
             style="opacity:1;fill:#6e4827;fill-opacity:1;fill-rule:nonzero;stroke:#491e18;stroke-width:4;stroke-linecap:round;stroke-linejoin:round;stroke-miterlimit:4;stroke-dasharray:none;stroke-dashoffset:0;stroke-opacity:1"
             sodipodi:type="arc" />
          <path
             transform="matrix(0.502291,0,0,0.550832,122.3048,148.5667)"
             d="M 258.26953 92.060379 A 5.8762765 5.4463053 0 1 1  246.51697,92.060379 A 5.8762765 5.4463053 0 1 1  258.26953 92.060379 z"
             sodipodi:ry="5.4463053"
             sodipodi:rx="5.8762765"
             sodipodi:cy="92.060379"
             sodipodi:cx="252.39325"
             id="path2199"
             style="opacity:1;fill:black;fill-opacity:1;fill-rule:nonzero;stroke:none;stroke-width:4;stroke-linecap:round;stroke-linejoin:round;stroke-miterlimit:4;stroke-dasharray:none;stroke-dashoffset:0;stroke-opacity:1"
             sodipodi:type="arc" />
          <path
             transform="matrix(0.340355,0,0,0.367221,162.017,162.2141)"
             d="M 258.26953 92.060379 A 5.8762765 5.4463053 0 1 1  246.51697,92.060379 A 5.8762765 5.4463053 0 1 1  258.26953 92.060379 z"
             sodipodi:ry="5.4463053"
             sodipodi:rx="5.8762765"
             sodipodi:cy="92.060379"
             sodipodi:cx="252.39325"
             id="path2205"
             style="opacity:1;fill:white;fill-opacity:1;fill-rule:nonzero;stroke:none;stroke-width:4;stroke-linecap:round;stroke-linejoin:round;stroke-miterlimit:4;stroke-dasharray:none;stroke-dashoffset:0;stroke-opacity:1"
             sodipodi:type="arc" />
        </g>
        <path
           style="opacity:1;fill:url(#radialGradient1947);fill-opacity:1;fill-rule:nonzero;stroke:none;stroke-width:20;stroke-linecap:round;stroke-linejoin:round;stroke-miterlimit:4;stroke-dashoffset:0;stroke-opacity:1"
           d="M 316.50208,162.17931 C 288.48695,162.50229 286.39764,159.75966 257.17606,164.70185 C 232.20297,169.40412 233.81647,170.96753 200.42995,182.06003 C 194.35655,147.13518 215.42757,114.33709 247.46348,108.85001 C 279.49938,103.36292 310.42868,127.25445 316.50208,162.17931 z "
           id="path8941"
           sodipodi:nodetypes="cccsc" />
      </g>
      <path
         sodipodi:nodetypes="ccccc"
         id="rect5493"
         d="M 475.5231,669.50171 L 521.53013,671.67234 L 512.05703,759.17308 L 470.72717,755.72729 L 475.5231,669.50171 z "
         style="opacity:1;color:black;fill:url(#linearGradient1949);fill-opacity:1;fill-rule:nonzero;stroke:none;stroke-width:5.08206797;stroke-linecap:butt;stroke-linejoin:miter;marker:none;marker-start:none;marker-mid:none;marker-end:none;stroke-miterlimit:13.89999962;stroke-dasharray:none;stroke-dashoffset:0;stroke-opacity:1;visibility:visible;display:inline;overflow:visible" />
      <path
         sodipodi:nodetypes="cc"
         id="path5515"
         d="M 469.67872,661.14118 L 464.82819,753.55672"
         style="fill:none;fill-opacity:1;fill-rule:evenodd;stroke:#3b4ea3;stroke-width:12.47787476;stroke-linecap:butt;stroke-linejoin:miter;stroke-miterlimit:4;stroke-dasharray:none;stroke-opacity:1;display:inline" />
      <path
         sodipodi:nodetypes="cc"
         id="path6396"
         d="M 529.79986,652.97183 L 519.07762,752.28024"
         style="fill:none;fill-opacity:1;fill-rule:evenodd;stroke:#3b4ea3;stroke-width:12.47787476;stroke-linecap:butt;stroke-linejoin:miter;stroke-miterlimit:4;stroke-dasharray:none;stroke-opacity:1;display:inline" />
    </g>
  </g>
</svg>
