<?xml version="1.0" encoding="UTF-8" standalone="no"?>
<!-- Created with Inkscape (http://www.inkscape.org/) -->
<svg
   xmlns:dc="http://purl.org/dc/elements/1.1/"
   xmlns:cc="http://web.resource.org/cc/"
   xmlns:rdf="http://www.w3.org/1999/02/22-rdf-syntax-ns#"
   xmlns:svg="http://www.w3.org/2000/svg"
   xmlns="http://www.w3.org/2000/svg"
   xmlns:xlink="http://www.w3.org/1999/xlink"
   xmlns:sodipodi="http://inkscape.sourceforge.net/DTD/sodipodi-0.dtd"
   xmlns:inkscape="http://www.inkscape.org/namespaces/inkscape"
   width="216.00000px"
   height="42.000000px"
   id="svg1"
   sodipodi:version="0.32"
   inkscape:version="0.43"
   sodipodi:docbase="/home/yekcim/Desktop/SVG/Skins/tuxteam"
   sodipodi:docname="animation.svg"
   inkscape:export-filename="/home/yekcim/Desktop/animation.png"
   inkscape:export-xdpi="90.000000"
   inkscape:export-ydpi="90.000000"
   inkscape:output_extension="org.inkscape.output.svg.inkscape">
  <defs
     id="defs3">
    <defs
       id="defs1062">
      <linearGradient
         inkscape:collect="always"
         id="linearGradient10630">
        <stop
           style="stop-color:#616161;stop-opacity:1;"
           offset="0"
           id="stop10631" />
        <stop
           style="stop-color:#616161;stop-opacity:0;"
           offset="1"
           id="stop10632" />
      </linearGradient>
      <linearGradient
         inkscape:collect="always"
         id="linearGradient10560">
        <stop
           style="stop-color:#000000;stop-opacity:1;"
           offset="0"
           id="stop10561" />
        <stop
           style="stop-color:#000000;stop-opacity:0;"
           offset="1"
           id="stop10562" />
      </linearGradient>
      <linearGradient
         id="linearGradient13777">
        <stop
           offset="0.0000000"
           style="stop-color:#d17d00;stop-opacity:1.0000000;"
           id="stop13779" />
        <stop
           offset="1.0000000"
           style="stop-color:#a7b135;stop-opacity:0.0000000;"
           id="stop13778" />
      </linearGradient>
      <linearGradient
         id="linearGradient11847">
        <stop
           offset="0.0000000"
           style="stop-color:#000000;stop-opacity:1.0000000;"
           id="stop11849" />
        <stop
           offset="1.0000000"
           style="stop-color:#000000;stop-opacity:0.0000000;"
           id="stop11848" />
      </linearGradient>
      <linearGradient
         id="linearGradient6187">
        <stop
           style="stop-color:#2e1b0b;stop-opacity:1.0000000;"
           offset="0.0000000"
           id="stop6188" />
        <stop
           style="stop-color:#431e00;stop-opacity:0;"
           offset="1"
           id="stop6189" />
      </linearGradient>
      <linearGradient
         inkscape:collect="always"
         id="linearGradient4909">
        <stop
           style="stop-color:#000000;stop-opacity:1;"
           offset="0"
           id="stop4910" />
        <stop
           style="stop-color:#000000;stop-opacity:0;"
           offset="1"
           id="stop4911" />
      </linearGradient>
      <linearGradient
         id="linearGradient1780">
        <stop
           style="stop-color:#454545;stop-opacity:1.0000000;"
           offset="0.0000000"
           id="stop1781" />
        <stop
           style="stop-color:#ffffff;stop-opacity:0;"
           offset="1"
           id="stop1782" />
      </linearGradient>
      <linearGradient
         id="linearGradient3869">
        <stop
           offset="0.0000000"
           style="stop-color:#d2dd2e;stop-opacity:1.0000000;"
           id="stop3872" />
        <stop
           offset="0.76146787"
           style="stop-color:#b3b96d;stop-opacity:0.65555555;"
           id="stop3871" />
        <stop
           offset="1.0000000"
           style="stop-color:#b1b952;stop-opacity:0.0000000;"
           id="stop3870" />
      </linearGradient>
      <linearGradient
         inkscape:collect="always"
         xlink:href="#linearGradient9217"
         id="linearGradient3799"
         gradientUnits="userSpaceOnUse"
         gradientTransform="matrix(0.112563,0.000000,0.000000,0.115364,26.43402,157.1761)"
         x1="4373.3052"
         y1="319.33466"
         x2="96.982727"
         y2="2708.2139" />
      <linearGradient
         inkscape:collect="always"
         xlink:href="#linearGradient7337"
         id="linearGradient3800"
         gradientUnits="userSpaceOnUse"
         gradientTransform="matrix(0.230667,0.000000,0.000000,7.644947e-2,26.55186,129.5549)"
         x1="862.16510"
         y1="2479.5938"
         x2="1523.3719"
         y2="2479.5938" />
      <linearGradient
         inkscape:collect="always"
         xlink:href="#linearGradient5442"
         id="linearGradient3801"
         gradientUnits="userSpaceOnUse"
         gradientTransform="matrix(0.162855,0.000000,0.000000,7.648058e-2,75.52973,161.8049)"
         x1="580.22791"
         y1="2173.3171"
         x2="1782.0374"
         y2="1630.2036" />
      <radialGradient
         inkscape:collect="always"
         xlink:href="#linearGradient5442"
         id="radialGradient3802"
         gradientUnits="userSpaceOnUse"
         gradientTransform="matrix(0.159978,0.000000,0.000000,7.785591e-2,363.0923,173.8583)"
         cx="-606.79681"
         cy="1573.4399"
         fx="-606.79681"
         fy="1573.4399"
         r="739.70477" />
      <linearGradient
         inkscape:collect="always"
         xlink:href="#linearGradient21707"
         id="linearGradient3803"
         gradientUnits="userSpaceOnUse"
         gradientTransform="scale(0.659854,1.515487)"
         x1="4848.5972"
         y1="3945.1116"
         x2="5625.4653"
         y2="1720.9402" />
      <linearGradient
         inkscape:collect="always"
         xlink:href="#linearGradient7337"
         id="linearGradient3804"
         gradientUnits="userSpaceOnUse"
         gradientTransform="matrix(0.236634,0.000000,0.000000,0.208284,-2451.443,4783.687)"
         x1="-7797.7422"
         y1="5021.4731"
         x2="-352.84012"
         y2="1184.9034" />
      <linearGradient
         inkscape:collect="always"
         xlink:href="#linearGradient7337"
         id="linearGradient3805"
         gradientUnits="userSpaceOnUse"
         gradientTransform="matrix(0.236634,0.000000,0.000000,0.208284,-2451.443,4783.687)"
         x1="-7797.7422"
         y1="5021.4731"
         x2="-352.84012"
         y2="1184.9034" />
      <defs
         id="defs3745">
        <linearGradient
           id="linearGradient22333"
           x1="0.0000000"
           y1="0.50000000"
           x2="1.0000000"
           y2="0.50000000"
           gradientUnits="objectBoundingBox"
           spreadMethod="pad"
           xlink:href="#linearGradient13777" />
        <linearGradient
           id="linearGradient21707">
          <stop
             style="stop-color:#ffffff;stop-opacity:1.0000000;"
             offset="0.0000000"
             id="stop21708" />
          <stop
             style="stop-color:#a7b135;stop-opacity:0;"
             offset="1"
             id="stop21709" />
        </linearGradient>
        <linearGradient
           inkscape:collect="always"
           id="linearGradient9217"
           x1="0.0000000"
           y1="0.50000000"
           x2="1.0000000"
           y2="0.50000000"
           gradientUnits="objectBoundingBox"
           spreadMethod="pad"
           xlink:href="#linearGradient11847" />
        <linearGradient
           id="linearGradient8584">
          <stop
             style="stop-color:#000000;stop-opacity:1.0000000;"
             offset="0.0000000"
             id="stop8585" />
          <stop
             style="stop-color:#cece4c;stop-opacity:0;"
             offset="1"
             id="stop8586" />
        </linearGradient>
        <linearGradient
           id="linearGradient7337">
          <stop
             style="stop-color:#b1b12f;stop-opacity:1.0000000;"
             offset="0.0000000"
             id="stop7338" />
          <stop
             style="stop-color:#cece4c;stop-opacity:0;"
             offset="1"
             id="stop7339" />
        </linearGradient>
        <linearGradient
           id="linearGradient5442"
           x1="0.0000000"
           y1="0.50000000"
           x2="1.0000000"
           y2="0.50000000"
           gradientUnits="objectBoundingBox"
           spreadMethod="pad"
           xlink:href="#linearGradient3869" />
      </defs>
      <sodipodi:namedview
         id="namedview3772"
         pagecolor="#ffffff"
         bordercolor="#666666"
         borderopacity="1.0"
         inkscape:pageopacity="0.0"
         inkscape:pageshadow="2"
         inkscape:zoom="0.80057989"
         inkscape:cx="297.63780"
         inkscape:cy="420.94487"
         inkscape:current-layer="layer1"
         inkscape:window-width="1440"
         inkscape:window-height="851"
         inkscape:window-x="0"
         inkscape:window-y="27"
         showguides="true"
         inkscape:guide-bbox="true" />
      <metadata
         id="metadata3773">
        <rdf:RDF>
          <cc:Work
             rdf:about="">
            <dc:format>image/svg+xml</dc:format>
            <dc:type
               rdf:resource="http://purl.org/dc/dcmitype/StillImage" />
          </cc:Work>
        </rdf:RDF>
      </metadata>
      <linearGradient
         inkscape:collect="always"
         xlink:href="#linearGradient4909"
         id="linearGradient6167"
         gradientUnits="userSpaceOnUse"
         gradientTransform="scale(0.891889,1.121216)"
         x1="-148.77991"
         y1="106.31860"
         x2="-160.14931"
         y2="-66.932083" />
      <linearGradient
         inkscape:collect="always"
         xlink:href="#linearGradient10560"
         id="linearGradient10563"
         gradientTransform="matrix(0.915477,0.127968,-0.149762,1.071392,19.54851,-8.453410)"
         x1="698.54480"
         y1="69.852913"
         x2="758.31232"
         y2="359.09653"
         gradientUnits="userSpaceOnUse" />
      <linearGradient
         inkscape:collect="always"
         xlink:href="#linearGradient10560"
         id="linearGradient10578"
         gradientUnits="userSpaceOnUse"
         gradientTransform="matrix(0.915477,0.127968,-0.149762,1.071392,0.000000,0.000000)"
         x1="647.37115"
         y1="96.894905"
         x2="770.59186"
         y2="342.74301" />
      <linearGradient
         inkscape:collect="always"
         xlink:href="#linearGradient4909"
         id="linearGradient10604"
         gradientUnits="userSpaceOnUse"
         gradientTransform="scale(0.891889,1.121216)"
         x1="-148.77991"
         y1="106.31860"
         x2="-160.14931"
         y2="-66.932083" />
      <linearGradient
         inkscape:collect="always"
         xlink:href="#linearGradient10630"
         id="linearGradient10633"
         gradientTransform="scale(0.883732,1.131565)"
         x1="-164.59187"
         y1="105.15539"
         x2="-154.14560"
         y2="3.6783011"
         gradientUnits="userSpaceOnUse" />
      <linearGradient
         inkscape:collect="always"
         xlink:href="#linearGradient10630"
         id="linearGradient10647"
         gradientUnits="userSpaceOnUse"
         gradientTransform="scale(0.883732,1.131565)"
         x1="-164.59187"
         y1="105.15539"
         x2="-154.14560"
         y2="3.6783011" />
      <radialGradient
         inkscape:collect="always"
         xlink:href="#linearGradient1780"
         id="radialGradient5568"
         gradientUnits="userSpaceOnUse"
         gradientTransform="matrix(-0.663014,1.058409,1.330757,0.590372,-891.7907,666.4254)"
         cx="-446.72464"
         cy="218.60974"
         fx="-446.72464"
         fy="218.60974"
         r="308.80975" />
      <linearGradient
         inkscape:collect="always"
         xlink:href="#linearGradient10630"
         id="linearGradient4391"
         gradientUnits="userSpaceOnUse"
         gradientTransform="matrix(0.437171,-0.479724,0.614848,0.557530,723.0732,-61.92042)"
         x1="-164.59187"
         y1="105.15539"
         x2="-154.14560"
         y2="3.6783011" />
    </defs>
  </defs>
  <sodipodi:namedview
     id="base"
     pagecolor="#ffffff"
     bordercolor="#666666"
     borderopacity="1.0"
     inkscape:pageopacity="0.0"
     inkscape:pageshadow="2"
     inkscape:zoom="4.4783429"
     inkscape:cx="98.949886"
     inkscape:cy="28.950456"
     inkscape:current-layer="g1160"
     inkscape:window-width="1440"
     inkscape:window-height="826"
     inkscape:window-x="0"
     inkscape:window-y="26" />
  <metadata
     id="metadata4">
    <rdf:RDF>
      <cc:Work
         rdf:about="">
        <dc:format>image/svg+xml</dc:format>
        <dc:type
           rdf:resource="http://purl.org/dc/dcmitype/StillImage" />
      </cc:Work>
    </rdf:RDF>
  </metadata>
  <g
     id="g1160"
     inkscape:groupmode="layer"
     inkscape:label="Layer 1"
     style="display:inline">
    <g
       inkscape:label="Layer 1"
       id="g29199"
       transform="matrix(-0.800240,0.000000,0.000000,0.800240,372.6259,-77.80494)" />
    <g
       id="g29315"
       inkscape:label="Layer 1"
       transform="matrix(-0.800240,0.000000,0.000000,0.800240,1530.027,255.1263)" />
    <g
       inkscape:label="Layer 1"
       id="g29317"
       transform="matrix(-0.800240,0.000000,0.000000,0.800240,2197.244,222.6400)" />
    <g
       inkscape:label="Layer 1"
       id="g3589"
       transform="matrix(-0.757324,0,0,0.76036,343.2353,-58.62023)" />
    <g
       id="g3591"
       inkscape:label="Layer 1"
       transform="matrix(-0.757324,0,0,0.76036,1438.565,257.7193)" />
    <g
       inkscape:label="Layer 1"
       id="g3593"
       transform="matrix(-0.757324,0,0,0.76036,2070.001,226.852)" />
    <g
       id="g2178">
      <g
         id="g2066">
        <g
           id="g2011">
          <g
             transform="translate(51.23524,-1.976717)"
             id="g3965">
            <path
               id="path3221"
               d="M -14.405244,7.8157893 C -14.405244,9.6875832 -13.318018,11.206717 -11.978401,11.206717 C -10.638785,11.206717 -9.5515628,9.6875832 -9.5515628,7.8157893 C -9.5515628,5.9439953 -10.638785,4.4248580 -11.978401,4.4248580 C -13.318018,4.4248580 -14.405244,5.9439953 -14.405244,7.8157893 z "
               style="fill:#232323;fill-opacity:1.0000000;fill-rule:nonzero;stroke:#0f0f0f;stroke-width:0.0000000;stroke-miterlimit:4.0000000;stroke-opacity:1.0000000" />
            <path
               id="path3223"
               d="M -10.462894,8.2191093 C -10.462894,9.5211620 -9.6317933,10.577906 -8.6077690,10.577906 C -7.5837368,10.577906 -6.7526439,9.5211620 -6.7526439,8.2191093 C -6.7526439,6.9170529 -7.5837368,5.8603131 -8.6077690,5.8603131 C -9.6317933,5.8603131 -10.462894,6.9170529 -10.462894,8.2191093 z "
               style="fill:#232323;fill-opacity:1.0000000;fill-rule:nonzero;stroke:#0f0f0f;stroke-width:0.0000000;stroke-miterlimit:4.0000000;stroke-opacity:1.0000000" />
          </g>
          <g
             transform="matrix(-0.399833,0.000000,0.000000,0.372799,191.6588,-22.46561)"
             id="g30602">
            <path
               id="path3019"
               d="M 454.75697,75.928206 C 454.75697,80.949126 452.03777,85.024066 448.68733,85.024066 C 445.33689,85.024066 442.61770,80.949126 442.61770,75.928206 C 442.61770,70.907286 445.33689,66.832336 448.68733,66.832336 C 452.03777,66.832336 454.75697,70.907286 454.75697,75.928206 z "
               style="fill:#000000;fill-opacity:1.0000000;fill-rule:nonzero;stroke:#0f0f0f;stroke-width:0.0000000;stroke-miterlimit:4.0000000;stroke-opacity:1.0000000" />
            <path
               id="path3020"
               d="M 444.89698,77.010076 C 444.89698,80.502716 442.81836,83.337336 440.25723,83.337336 C 437.69608,83.337336 435.61748,80.502716 435.61748,77.010076 C 435.61748,73.517426 437.69608,70.682816 440.25723,70.682816 C 442.81836,70.682816 444.89698,73.517426 444.89698,77.010076 z "
               style="fill:#000000;fill-opacity:1.0000000;fill-rule:nonzero;stroke:#0f0f0f;stroke-width:0.0000000;stroke-miterlimit:4.0000000;stroke-opacity:1.0000000" />
            <path
               id="path3021"
               d="M 443.64742,77.200376 C 443.64742,79.800806 442.10915,81.911286 440.21376,81.911286 C 438.31839,81.911286 436.78011,79.800806 436.78011,77.200376 C 436.78011,74.599956 438.31839,72.489476 440.21376,72.489476 C 442.10915,72.489476 443.64742,74.599956 443.64742,77.200376 z "
               style="fill:#ffffff;fill-opacity:1.0000000;fill-rule:nonzero;stroke:#0f0f0f;stroke-width:0.0000000;stroke-miterlimit:4.0000000;stroke-opacity:1.0000000" />
            <path
               id="path3643"
               d="M 453.00501,76.587556 C 452.59149,80.602256 450.08083,83.569266 447.40087,83.210336 C 444.72090,82.851406 442.88145,79.301786 443.29498,75.287086 C 443.70849,71.272396 446.21914,68.305396 448.89911,68.664326 C 451.57907,69.023246 453.41852,72.572866 453.00501,76.587556 z "
               style="fill:#ffffff;fill-opacity:1.0000000;fill-rule:nonzero;stroke:#0f0f0f;stroke-width:0.0000000;stroke-miterlimit:4.0000000;stroke-opacity:1.0000000" />
            <path
               id="path3644"
               d="M 450.11587,78.380266 C 450.11587,80.047796 448.76966,81.401166 447.11092,81.401166 C 445.45219,81.401166 444.10598,80.047796 444.10598,78.380266 C 444.10598,76.712736 445.45219,75.359376 447.11092,75.359376 C 448.76966,75.359376 450.11587,76.712736 450.11587,78.380266 z "
               style="fill:#000000;fill-opacity:1.0000000;fill-rule:nonzero;stroke:#0f0f0f;stroke-width:0.0000000;stroke-miterlimit:4.0000000;stroke-opacity:1.0000000" />
            <path
               id="path4706"
               d="M 443.01269,78.415036 C 443.01269,80.082566 441.66648,81.435936 440.00774,81.435936 C 438.34901,81.435936 437.00280,80.082566 437.00280,78.415036 C 437.00280,76.747506 438.34901,75.394146 440.00774,75.394146 C 441.66648,75.394146 443.01269,76.747506 443.01269,78.415036 z "
               style="fill:#000000;fill-opacity:1.0000000;fill-rule:nonzero;stroke:#0f0f0f;stroke-width:0.0000000;stroke-miterlimit:4.0000000;stroke-opacity:1.0000000;display:inline" />
          </g>
          <g
             id="g2064"
             transform="matrix(0.399833,0.000000,0.000000,0.372799,-137.3383,-22.46561)">
            <path
               style="fill:#000000;fill-opacity:1.0000000;fill-rule:nonzero;stroke:#0f0f0f;stroke-width:0.0000000;stroke-miterlimit:4.0000000;stroke-opacity:1.0000000"
               d="M 454.75697,75.928206 C 454.75697,80.949126 452.03777,85.024066 448.68733,85.024066 C 445.33689,85.024066 442.61770,80.949126 442.61770,75.928206 C 442.61770,70.907286 445.33689,66.832336 448.68733,66.832336 C 452.03777,66.832336 454.75697,70.907286 454.75697,75.928206 z "
               id="path2066" />
            <path
               style="fill:#000000;fill-opacity:1.0000000;fill-rule:nonzero;stroke:#0f0f0f;stroke-width:0.0000000;stroke-miterlimit:4.0000000;stroke-opacity:1.0000000"
               d="M 444.89698,77.010076 C 444.89698,80.502716 442.81836,83.337336 440.25723,83.337336 C 437.69608,83.337336 435.61748,80.502716 435.61748,77.010076 C 435.61748,73.517426 437.69608,70.682816 440.25723,70.682816 C 442.81836,70.682816 444.89698,73.517426 444.89698,77.010076 z "
               id="path2068" />
            <path
               style="fill:#ffffff;fill-opacity:1.0000000;fill-rule:nonzero;stroke:#0f0f0f;stroke-width:0.0000000;stroke-miterlimit:4.0000000;stroke-opacity:1.0000000"
               d="M 443.64742,77.200376 C 443.64742,79.800806 442.10915,81.911286 440.21376,81.911286 C 438.31839,81.911286 436.78011,79.800806 436.78011,77.200376 C 436.78011,74.599956 438.31839,72.489476 440.21376,72.489476 C 442.10915,72.489476 443.64742,74.599956 443.64742,77.200376 z "
               id="path2070" />
            <path
               style="fill:#ffffff;fill-opacity:1.0000000;fill-rule:nonzero;stroke:#0f0f0f;stroke-width:0.0000000;stroke-miterlimit:4.0000000;stroke-opacity:1.0000000"
               d="M 453.00501,76.587556 C 452.59149,80.602256 450.08083,83.569266 447.40087,83.210336 C 444.72090,82.851406 442.88145,79.301786 443.29498,75.287086 C 443.70849,71.272396 446.21914,68.305396 448.89911,68.664326 C 451.57907,69.023246 453.41852,72.572866 453.00501,76.587556 z "
               id="path2072" />
            <path
               style="fill:#000000;fill-opacity:1.0000000;fill-rule:nonzero;stroke:#0f0f0f;stroke-width:0.0000000;stroke-miterlimit:4.0000000;stroke-opacity:1.0000000"
               d="M 450.11587,78.380266 C 450.11587,80.047796 448.76966,81.401166 447.11092,81.401166 C 445.45219,81.401166 444.10598,80.047796 444.10598,78.380266 C 444.10598,76.712736 445.45219,75.359376 447.11092,75.359376 C 448.76966,75.359376 450.11587,76.712736 450.11587,78.380266 z "
               id="path2074" />
            <path
               style="fill:#000000;fill-opacity:1.0000000;fill-rule:nonzero;stroke:#0f0f0f;stroke-width:0.0000000;stroke-miterlimit:4.0000000;stroke-opacity:1.0000000;display:inline"
               d="M 443.01269,78.415036 C 443.01269,80.082566 441.66648,81.435936 440.00774,81.435936 C 438.34901,81.435936 437.00280,80.082566 437.00280,78.415036 C 437.00280,76.747506 438.34901,75.394146 440.00774,75.394146 C 441.66648,75.394146 443.01269,76.747506 443.01269,78.415036 z "
               id="path2076" />
          </g>
        </g>
        <g
           style="display:inline"
           id="g2030"
           transform="translate(53.99804,-1.276781e-3)">
          <g
             transform="translate(51.23524,-1.976717)"
             id="g2032">
            <path
               id="path2034"
               d="M -14.405244,7.8157893 C -14.405244,9.6875832 -13.318018,11.206717 -11.978401,11.206717 C -10.638785,11.206717 -9.5515628,9.6875832 -9.5515628,7.8157893 C -9.5515628,5.9439953 -10.638785,4.4248580 -11.978401,4.4248580 C -13.318018,4.4248580 -14.405244,5.9439953 -14.405244,7.8157893 z "
               style="fill:#232323;fill-opacity:1.0000000;fill-rule:nonzero;stroke:#0f0f0f;stroke-width:0.0000000;stroke-miterlimit:4.0000000;stroke-opacity:1.0000000" />
            <path
               id="path2036"
               d="M -10.462894,8.2191093 C -10.462894,9.5211620 -9.6317933,10.577906 -8.6077690,10.577906 C -7.5837368,10.577906 -6.7526439,9.5211620 -6.7526439,8.2191093 C -6.7526439,6.9170529 -7.5837368,5.8603131 -8.6077690,5.8603131 C -9.6317933,5.8603131 -10.462894,6.9170529 -10.462894,8.2191093 z "
               style="fill:#232323;fill-opacity:1.0000000;fill-rule:nonzero;stroke:#0f0f0f;stroke-width:0.0000000;stroke-miterlimit:4.0000000;stroke-opacity:1.0000000" />
          </g>
          <g
             transform="matrix(-0.399833,0.000000,0.000000,0.372799,191.6588,-22.46561)"
             id="g2038">
            <path
               id="path2040"
               d="M 454.75697,75.928206 C 454.75697,80.949126 452.03777,85.024066 448.68733,85.024066 C 445.33689,85.024066 442.61770,80.949126 442.61770,75.928206 C 442.61770,70.907286 445.33689,66.832336 448.68733,66.832336 C 452.03777,66.832336 454.75697,70.907286 454.75697,75.928206 z "
               style="fill:#000000;fill-opacity:1.0000000;fill-rule:nonzero;stroke:#0f0f0f;stroke-width:0.0000000;stroke-miterlimit:4.0000000;stroke-opacity:1.0000000" />
            <path
               id="path2042"
               d="M 444.89698,77.010076 C 444.89698,80.502716 442.81836,83.337336 440.25723,83.337336 C 437.69608,83.337336 435.61748,80.502716 435.61748,77.010076 C 435.61748,73.517426 437.69608,70.682816 440.25723,70.682816 C 442.81836,70.682816 444.89698,73.517426 444.89698,77.010076 z "
               style="fill:#000000;fill-opacity:1.0000000;fill-rule:nonzero;stroke:#0f0f0f;stroke-width:0.0000000;stroke-miterlimit:4.0000000;stroke-opacity:1.0000000" />
            <path
               id="path2044"
               d="M 443.64742,77.200376 C 443.64742,79.800806 442.10915,81.911286 440.21376,81.911286 C 438.31839,81.911286 436.78011,79.800806 436.78011,77.200376 C 436.78011,74.599956 438.31839,72.489476 440.21376,72.489476 C 442.10915,72.489476 443.64742,74.599956 443.64742,77.200376 z "
               style="fill:#ffffff;fill-opacity:1.0000000;fill-rule:nonzero;stroke:#0f0f0f;stroke-width:0.0000000;stroke-miterlimit:4.0000000;stroke-opacity:1.0000000" />
            <path
               id="path2046"
               d="M 453.00501,76.587556 C 452.59149,80.602256 450.08083,83.569266 447.40087,83.210336 C 444.72090,82.851406 442.88145,79.301786 443.29498,75.287086 C 443.70849,71.272396 446.21914,68.305396 448.89911,68.664326 C 451.57907,69.023246 453.41852,72.572866 453.00501,76.587556 z "
               style="fill:#ffffff;fill-opacity:1.0000000;fill-rule:nonzero;stroke:#0f0f0f;stroke-width:0.0000000;stroke-miterlimit:4.0000000;stroke-opacity:1.0000000" />
            <path
               id="path2048"
               d="M 450.11587,78.380266 C 450.11587,80.047796 448.76966,81.401166 447.11092,81.401166 C 445.45219,81.401166 444.10598,80.047796 444.10598,78.380266 C 444.10598,76.712736 445.45219,75.359376 447.11092,75.359376 C 448.76966,75.359376 450.11587,76.712736 450.11587,78.380266 z "
               style="fill:#000000;fill-opacity:1.0000000;fill-rule:nonzero;stroke:#0f0f0f;stroke-width:0.0000000;stroke-miterlimit:4.0000000;stroke-opacity:1.0000000" />
            <path
               id="path2050"
               d="M 443.01269,78.415036 C 443.01269,80.082566 441.66648,81.435936 440.00774,81.435936 C 438.34901,81.435936 437.00280,80.082566 437.00280,78.415036 C 437.00280,76.747506 438.34901,75.394146 440.00774,75.394146 C 441.66648,75.394146 443.01269,76.747506 443.01269,78.415036 z "
               style="fill:#000000;fill-opacity:1.0000000;fill-rule:nonzero;stroke:#0f0f0f;stroke-width:0.0000000;stroke-miterlimit:4.0000000;stroke-opacity:1.0000000;display:inline" />
          </g>
          <g
             id="g2052"
             transform="matrix(0.399833,0.000000,0.000000,0.372799,-137.3383,-22.46561)">
            <path
               style="fill:#000000;fill-opacity:1.0000000;fill-rule:nonzero;stroke:#0f0f0f;stroke-width:0.0000000;stroke-miterlimit:4.0000000;stroke-opacity:1.0000000"
               d="M 454.75697,75.928206 C 454.75697,80.949126 452.03777,85.024066 448.68733,85.024066 C 445.33689,85.024066 442.61770,80.949126 442.61770,75.928206 C 442.61770,70.907286 445.33689,66.832336 448.68733,66.832336 C 452.03777,66.832336 454.75697,70.907286 454.75697,75.928206 z "
               id="path2054" />
            <path
               style="fill:#000000;fill-opacity:1.0000000;fill-rule:nonzero;stroke:#0f0f0f;stroke-width:0.0000000;stroke-miterlimit:4.0000000;stroke-opacity:1.0000000"
               d="M 444.89698,77.010076 C 444.89698,80.502716 442.81836,83.337336 440.25723,83.337336 C 437.69608,83.337336 435.61748,80.502716 435.61748,77.010076 C 435.61748,73.517426 437.69608,70.682816 440.25723,70.682816 C 442.81836,70.682816 444.89698,73.517426 444.89698,77.010076 z "
               id="path2056" />
            <path
               style="fill:#ffffff;fill-opacity:1.0000000;fill-rule:nonzero;stroke:#0f0f0f;stroke-width:0.0000000;stroke-miterlimit:4.0000000;stroke-opacity:1.0000000"
               d="M 443.64742,77.200376 C 443.64742,79.800806 442.10915,81.911286 440.21376,81.911286 C 438.31839,81.911286 436.78011,79.800806 436.78011,77.200376 C 436.78011,74.599956 438.31839,72.489476 440.21376,72.489476 C 442.10915,72.489476 443.64742,74.599956 443.64742,77.200376 z "
               id="path2058" />
            <path
               style="fill:#ffffff;fill-opacity:1.0000000;fill-rule:nonzero;stroke:#0f0f0f;stroke-width:0.0000000;stroke-miterlimit:4.0000000;stroke-opacity:1.0000000"
               d="M 453.00501,76.587556 C 452.59149,80.602256 450.08083,83.569266 447.40087,83.210336 C 444.72090,82.851406 442.88145,79.301786 443.29498,75.287086 C 443.70849,71.272396 446.21914,68.305396 448.89911,68.664326 C 451.57907,69.023246 453.41852,72.572866 453.00501,76.587556 z "
               id="path2060" />
            <path
               style="fill:#000000;fill-opacity:1.0000000;fill-rule:nonzero;stroke:#0f0f0f;stroke-width:0.0000000;stroke-miterlimit:4.0000000;stroke-opacity:1.0000000"
               d="M 450.11587,78.380266 C 450.11587,80.047796 448.76966,81.401166 447.11092,81.401166 C 445.45219,81.401166 444.10598,80.047796 444.10598,78.380266 C 444.10598,76.712736 445.45219,75.359376 447.11092,75.359376 C 448.76966,75.359376 450.11587,76.712736 450.11587,78.380266 z "
               id="path2062" />
            <path
               style="fill:#000000;fill-opacity:1.0000000;fill-rule:nonzero;stroke:#0f0f0f;stroke-width:0.0000000;stroke-miterlimit:4.0000000;stroke-opacity:1.0000000;display:inline"
               d="M 443.01269,78.415036 C 443.01269,80.082566 441.66648,81.435936 440.00774,81.435936 C 438.34901,81.435936 437.00280,80.082566 437.00280,78.415036 C 437.00280,76.747506 438.34901,75.394146 440.00774,75.394146 C 441.66648,75.394146 443.01269,76.747506 443.01269,78.415036 z "
               id="path2064" />
          </g>
        </g>
      </g>
      <g
         transform="translate(107.9980,-1.276781e-3)"
         id="g2104"
         style="display:inline">
        <g
           id="g2106">
          <g
             transform="translate(51.23524,-1.976717)"
             id="g2108">
            <path
               id="path2110"
               d="M -14.405244,7.8157893 C -14.405244,9.6875832 -13.318018,11.206717 -11.978401,11.206717 C -10.638785,11.206717 -9.5515628,9.6875832 -9.5515628,7.8157893 C -9.5515628,5.9439953 -10.638785,4.4248580 -11.978401,4.4248580 C -13.318018,4.4248580 -14.405244,5.9439953 -14.405244,7.8157893 z "
               style="fill:#232323;fill-opacity:1.0000000;fill-rule:nonzero;stroke:#0f0f0f;stroke-width:0.0000000;stroke-miterlimit:4.0000000;stroke-opacity:1.0000000" />
            <path
               id="path2112"
               d="M -10.462894,8.2191093 C -10.462894,9.5211620 -9.6317933,10.577906 -8.6077690,10.577906 C -7.5837368,10.577906 -6.7526439,9.5211620 -6.7526439,8.2191093 C -6.7526439,6.9170529 -7.5837368,5.8603131 -8.6077690,5.8603131 C -9.6317933,5.8603131 -10.462894,6.9170529 -10.462894,8.2191093 z "
               style="fill:#232323;fill-opacity:1.0000000;fill-rule:nonzero;stroke:#0f0f0f;stroke-width:0.0000000;stroke-miterlimit:4.0000000;stroke-opacity:1.0000000" />
          </g>
          <g
             transform="matrix(-0.399833,0.000000,0.000000,0.372799,191.6588,-22.46561)"
             id="g2114">
            <path
               id="path2116"
               d="M 454.75697,75.928206 C 454.75697,80.949126 452.03777,85.024066 448.68733,85.024066 C 445.33689,85.024066 442.61770,80.949126 442.61770,75.928206 C 442.61770,70.907286 445.33689,66.832336 448.68733,66.832336 C 452.03777,66.832336 454.75697,70.907286 454.75697,75.928206 z "
               style="fill:#000000;fill-opacity:1.0000000;fill-rule:nonzero;stroke:#0f0f0f;stroke-width:0.0000000;stroke-miterlimit:4.0000000;stroke-opacity:1.0000000" />
            <path
               id="path2118"
               d="M 444.89698,77.010076 C 444.89698,80.502716 442.81836,83.337336 440.25723,83.337336 C 437.69608,83.337336 435.61748,80.502716 435.61748,77.010076 C 435.61748,73.517426 437.69608,70.682816 440.25723,70.682816 C 442.81836,70.682816 444.89698,73.517426 444.89698,77.010076 z "
               style="fill:#000000;fill-opacity:1.0000000;fill-rule:nonzero;stroke:#0f0f0f;stroke-width:0.0000000;stroke-miterlimit:4.0000000;stroke-opacity:1.0000000" />
            <path
               id="path2120"
               d="M 443.64742,77.200376 C 443.64742,79.800806 442.10915,81.911286 440.21376,81.911286 C 438.31839,81.911286 436.78011,79.800806 436.78011,77.200376 C 436.78011,74.599956 438.31839,72.489476 440.21376,72.489476 C 442.10915,72.489476 443.64742,74.599956 443.64742,77.200376 z "
               style="fill:#ffffff;fill-opacity:1.0000000;fill-rule:nonzero;stroke:#0f0f0f;stroke-width:0.0000000;stroke-miterlimit:4.0000000;stroke-opacity:1.0000000" />
            <path
               id="path2122"
               d="M 453.00501,76.587556 C 452.59149,80.602256 450.08083,83.569266 447.40087,83.210336 C 444.72090,82.851406 442.88145,79.301786 443.29498,75.287086 C 443.70849,71.272396 446.21914,68.305396 448.89911,68.664326 C 451.57907,69.023246 453.41852,72.572866 453.00501,76.587556 z "
               style="fill:#ffffff;fill-opacity:1.0000000;fill-rule:nonzero;stroke:#0f0f0f;stroke-width:0.0000000;stroke-miterlimit:4.0000000;stroke-opacity:1.0000000" />
            <path
               id="path2124"
               d="M 450.11587,78.380266 C 450.11587,80.047796 448.76966,81.401166 447.11092,81.401166 C 445.45219,81.401166 444.10598,80.047796 444.10598,78.380266 C 444.10598,76.712736 445.45219,75.359376 447.11092,75.359376 C 448.76966,75.359376 450.11587,76.712736 450.11587,78.380266 z "
               style="fill:#000000;fill-opacity:1.0000000;fill-rule:nonzero;stroke:#0f0f0f;stroke-width:0.0000000;stroke-miterlimit:4.0000000;stroke-opacity:1.0000000" />
            <path
               id="path2126"
               d="M 443.01269,78.415036 C 443.01269,80.082566 441.66648,81.435936 440.00774,81.435936 C 438.34901,81.435936 437.00280,80.082566 437.00280,78.415036 C 437.00280,76.747506 438.34901,75.394146 440.00774,75.394146 C 441.66648,75.394146 443.01269,76.747506 443.01269,78.415036 z "
               style="fill:#000000;fill-opacity:1.0000000;fill-rule:nonzero;stroke:#0f0f0f;stroke-width:0.0000000;stroke-miterlimit:4.0000000;stroke-opacity:1.0000000;display:inline" />
          </g>
          <g
             id="g2128"
             transform="matrix(0.399833,0.000000,0.000000,0.372799,-137.3383,-22.46561)">
            <path
               style="fill:#000000;fill-opacity:1.0000000;fill-rule:nonzero;stroke:#0f0f0f;stroke-width:0.0000000;stroke-miterlimit:4.0000000;stroke-opacity:1.0000000"
               d="M 454.75697,75.928206 C 454.75697,80.949126 452.03777,85.024066 448.68733,85.024066 C 445.33689,85.024066 442.61770,80.949126 442.61770,75.928206 C 442.61770,70.907286 445.33689,66.832336 448.68733,66.832336 C 452.03777,66.832336 454.75697,70.907286 454.75697,75.928206 z "
               id="path2130" />
            <path
               style="fill:#000000;fill-opacity:1.0000000;fill-rule:nonzero;stroke:#0f0f0f;stroke-width:0.0000000;stroke-miterlimit:4.0000000;stroke-opacity:1.0000000"
               d="M 444.89698,77.010076 C 444.89698,80.502716 442.81836,83.337336 440.25723,83.337336 C 437.69608,83.337336 435.61748,80.502716 435.61748,77.010076 C 435.61748,73.517426 437.69608,70.682816 440.25723,70.682816 C 442.81836,70.682816 444.89698,73.517426 444.89698,77.010076 z "
               id="path2132" />
            <path
               style="fill:#ffffff;fill-opacity:1.0000000;fill-rule:nonzero;stroke:#0f0f0f;stroke-width:0.0000000;stroke-miterlimit:4.0000000;stroke-opacity:1.0000000"
               d="M 443.64742,77.200376 C 443.64742,79.800806 442.10915,81.911286 440.21376,81.911286 C 438.31839,81.911286 436.78011,79.800806 436.78011,77.200376 C 436.78011,74.599956 438.31839,72.489476 440.21376,72.489476 C 442.10915,72.489476 443.64742,74.599956 443.64742,77.200376 z "
               id="path2134" />
            <path
               style="fill:#ffffff;fill-opacity:1.0000000;fill-rule:nonzero;stroke:#0f0f0f;stroke-width:0.0000000;stroke-miterlimit:4.0000000;stroke-opacity:1.0000000"
               d="M 453.00501,76.587556 C 452.59149,80.602256 450.08083,83.569266 447.40087,83.210336 C 444.72090,82.851406 442.88145,79.301786 443.29498,75.287086 C 443.70849,71.272396 446.21914,68.305396 448.89911,68.664326 C 451.57907,69.023246 453.41852,72.572866 453.00501,76.587556 z "
               id="path2136" />
            <path
               style="fill:#000000;fill-opacity:1.0000000;fill-rule:nonzero;stroke:#0f0f0f;stroke-width:0.0000000;stroke-miterlimit:4.0000000;stroke-opacity:1.0000000"
               d="M 450.11587,78.380266 C 450.11587,80.047796 448.76966,81.401166 447.11092,81.401166 C 445.45219,81.401166 444.10598,80.047796 444.10598,78.380266 C 444.10598,76.712736 445.45219,75.359376 447.11092,75.359376 C 448.76966,75.359376 450.11587,76.712736 450.11587,78.380266 z "
               id="path2138" />
            <path
               style="fill:#000000;fill-opacity:1.0000000;fill-rule:nonzero;stroke:#0f0f0f;stroke-width:0.0000000;stroke-miterlimit:4.0000000;stroke-opacity:1.0000000;display:inline"
               d="M 443.01269,78.415036 C 443.01269,80.082566 441.66648,81.435936 440.00774,81.435936 C 438.34901,81.435936 437.00280,80.082566 437.00280,78.415036 C 437.00280,76.747506 438.34901,75.394146 440.00774,75.394146 C 441.66648,75.394146 443.01269,76.747506 443.01269,78.415036 z "
               id="path2140" />
          </g>
        </g>
        <g
           style="display:inline"
           id="g2142"
           transform="translate(53.99804,-1.276781e-3)">
          <g
             transform="translate(51.23524,-1.976717)"
             id="g2144">
            <path
               id="path2146"
               d="M -14.405244,7.8157893 C -14.405244,9.6875832 -13.318018,11.206717 -11.978401,11.206717 C -10.638785,11.206717 -9.5515628,9.6875832 -9.5515628,7.8157893 C -9.5515628,5.9439953 -10.638785,4.4248580 -11.978401,4.4248580 C -13.318018,4.4248580 -14.405244,5.9439953 -14.405244,7.8157893 z "
               style="fill:#232323;fill-opacity:1.0000000;fill-rule:nonzero;stroke:#0f0f0f;stroke-width:0.0000000;stroke-miterlimit:4.0000000;stroke-opacity:1.0000000" />
            <path
               id="path2148"
               d="M -10.462894,8.2191093 C -10.462894,9.5211620 -9.6317933,10.577906 -8.6077690,10.577906 C -7.5837368,10.577906 -6.7526439,9.5211620 -6.7526439,8.2191093 C -6.7526439,6.9170529 -7.5837368,5.8603131 -8.6077690,5.8603131 C -9.6317933,5.8603131 -10.462894,6.9170529 -10.462894,8.2191093 z "
               style="fill:#232323;fill-opacity:1.0000000;fill-rule:nonzero;stroke:#0f0f0f;stroke-width:0.0000000;stroke-miterlimit:4.0000000;stroke-opacity:1.0000000" />
          </g>
          <g
             transform="matrix(-0.399833,0.000000,0.000000,0.372799,191.6588,-22.46561)"
             id="g2150">
            <path
               id="path2152"
               d="M 454.75697,75.928206 C 454.75697,80.949126 452.03777,85.024066 448.68733,85.024066 C 445.33689,85.024066 442.61770,80.949126 442.61770,75.928206 C 442.61770,70.907286 445.33689,66.832336 448.68733,66.832336 C 452.03777,66.832336 454.75697,70.907286 454.75697,75.928206 z "
               style="fill:#000000;fill-opacity:1.0000000;fill-rule:nonzero;stroke:#0f0f0f;stroke-width:0.0000000;stroke-miterlimit:4.0000000;stroke-opacity:1.0000000" />
            <path
               id="path2154"
               d="M 444.89698,77.010076 C 444.89698,80.502716 442.81836,83.337336 440.25723,83.337336 C 437.69608,83.337336 435.61748,80.502716 435.61748,77.010076 C 435.61748,73.517426 437.69608,70.682816 440.25723,70.682816 C 442.81836,70.682816 444.89698,73.517426 444.89698,77.010076 z "
               style="fill:#000000;fill-opacity:1.0000000;fill-rule:nonzero;stroke:#0f0f0f;stroke-width:0.0000000;stroke-miterlimit:4.0000000;stroke-opacity:1.0000000" />
            <path
               id="path2156"
               d="M 443.64742,77.200376 C 443.64742,79.800806 442.10915,81.911286 440.21376,81.911286 C 438.31839,81.911286 436.78011,79.800806 436.78011,77.200376 C 436.78011,74.599956 438.31839,72.489476 440.21376,72.489476 C 442.10915,72.489476 443.64742,74.599956 443.64742,77.200376 z "
               style="fill:#ffffff;fill-opacity:1.0000000;fill-rule:nonzero;stroke:#0f0f0f;stroke-width:0.0000000;stroke-miterlimit:4.0000000;stroke-opacity:1.0000000" />
            <path
               id="path2158"
               d="M 453.00501,76.587556 C 452.59149,80.602256 450.08083,83.569266 447.40087,83.210336 C 444.72090,82.851406 442.88145,79.301786 443.29498,75.287086 C 443.70849,71.272396 446.21914,68.305396 448.89911,68.664326 C 451.57907,69.023246 453.41852,72.572866 453.00501,76.587556 z "
               style="fill:#ffffff;fill-opacity:1.0000000;fill-rule:nonzero;stroke:#0f0f0f;stroke-width:0.0000000;stroke-miterlimit:4.0000000;stroke-opacity:1.0000000" />
            <path
               id="path2160"
               d="M 450.11587,78.380266 C 450.11587,80.047796 448.76966,81.401166 447.11092,81.401166 C 445.45219,81.401166 444.10598,80.047796 444.10598,78.380266 C 444.10598,76.712736 445.45219,75.359376 447.11092,75.359376 C 448.76966,75.359376 450.11587,76.712736 450.11587,78.380266 z "
               style="fill:#000000;fill-opacity:1.0000000;fill-rule:nonzero;stroke:#0f0f0f;stroke-width:0.0000000;stroke-miterlimit:4.0000000;stroke-opacity:1.0000000" />
            <path
               id="path2162"
               d="M 443.01269,78.415036 C 443.01269,80.082566 441.66648,81.435936 440.00774,81.435936 C 438.34901,81.435936 437.00280,80.082566 437.00280,78.415036 C 437.00280,76.747506 438.34901,75.394146 440.00774,75.394146 C 441.66648,75.394146 443.01269,76.747506 443.01269,78.415036 z "
               style="fill:#000000;fill-opacity:1.0000000;fill-rule:nonzero;stroke:#0f0f0f;stroke-width:0.0000000;stroke-miterlimit:4.0000000;stroke-opacity:1.0000000;display:inline" />
          </g>
          <g
             id="g2164"
             transform="matrix(0.399833,0.000000,0.000000,0.372799,-137.3383,-22.46561)">
            <path
               style="fill:#000000;fill-opacity:1.0000000;fill-rule:nonzero;stroke:#0f0f0f;stroke-width:0.0000000;stroke-miterlimit:4.0000000;stroke-opacity:1.0000000"
               d="M 454.75697,75.928206 C 454.75697,80.949126 452.03777,85.024066 448.68733,85.024066 C 445.33689,85.024066 442.61770,80.949126 442.61770,75.928206 C 442.61770,70.907286 445.33689,66.832336 448.68733,66.832336 C 452.03777,66.832336 454.75697,70.907286 454.75697,75.928206 z "
               id="path2166" />
            <path
               style="fill:#000000;fill-opacity:1.0000000;fill-rule:nonzero;stroke:#0f0f0f;stroke-width:0.0000000;stroke-miterlimit:4.0000000;stroke-opacity:1.0000000"
               d="M 444.89698,77.010076 C 444.89698,80.502716 442.81836,83.337336 440.25723,83.337336 C 437.69608,83.337336 435.61748,80.502716 435.61748,77.010076 C 435.61748,73.517426 437.69608,70.682816 440.25723,70.682816 C 442.81836,70.682816 444.89698,73.517426 444.89698,77.010076 z "
               id="path2168" />
            <path
               style="fill:#ffffff;fill-opacity:1.0000000;fill-rule:nonzero;stroke:#0f0f0f;stroke-width:0.0000000;stroke-miterlimit:4.0000000;stroke-opacity:1.0000000"
               d="M 443.64742,77.200376 C 443.64742,79.800806 442.10915,81.911286 440.21376,81.911286 C 438.31839,81.911286 436.78011,79.800806 436.78011,77.200376 C 436.78011,74.599956 438.31839,72.489476 440.21376,72.489476 C 442.10915,72.489476 443.64742,74.599956 443.64742,77.200376 z "
               id="path2170" />
            <path
               style="fill:#ffffff;fill-opacity:1.0000000;fill-rule:nonzero;stroke:#0f0f0f;stroke-width:0.0000000;stroke-miterlimit:4.0000000;stroke-opacity:1.0000000"
               d="M 453.00501,76.587556 C 452.59149,80.602256 450.08083,83.569266 447.40087,83.210336 C 444.72090,82.851406 442.88145,79.301786 443.29498,75.287086 C 443.70849,71.272396 446.21914,68.305396 448.89911,68.664326 C 451.57907,69.023246 453.41852,72.572866 453.00501,76.587556 z "
               id="path2172" />
            <path
               style="fill:#000000;fill-opacity:1.0000000;fill-rule:nonzero;stroke:#0f0f0f;stroke-width:0.0000000;stroke-miterlimit:4.0000000;stroke-opacity:1.0000000"
               d="M 450.11587,78.380266 C 450.11587,80.047796 448.76966,81.401166 447.11092,81.401166 C 445.45219,81.401166 444.10598,80.047796 444.10598,78.380266 C 444.10598,76.712736 445.45219,75.359376 447.11092,75.359376 C 448.76966,75.359376 450.11587,76.712736 450.11587,78.380266 z "
               id="path2174" />
            <path
               style="fill:#000000;fill-opacity:1.0000000;fill-rule:nonzero;stroke:#0f0f0f;stroke-width:0.0000000;stroke-miterlimit:4.0000000;stroke-opacity:1.0000000;display:inline"
               d="M 443.01269,78.415036 C 443.01269,80.082566 441.66648,81.435936 440.00774,81.435936 C 438.34901,81.435936 437.00280,80.082566 437.00280,78.415036 C 437.00280,76.747506 438.34901,75.394146 440.00774,75.394146 C 441.66648,75.394146 443.01269,76.747506 443.01269,78.415036 z "
               id="path2176" />
          </g>
        </g>
      </g>
    </g>
  </g>
</svg>
