<?xml version="1.0" encoding="UTF-8" standalone="no"?>
<!-- Created with Inkscape (http://www.inkscape.org/) -->
<svg
   xmlns:dc="http://purl.org/dc/elements/1.1/"
   xmlns:cc="http://web.resource.org/cc/"
   xmlns:rdf="http://www.w3.org/1999/02/22-rdf-syntax-ns#"
   xmlns:svg="http://www.w3.org/2000/svg"
   xmlns="http://www.w3.org/2000/svg"
   xmlns:xlink="http://www.w3.org/1999/xlink"
   xmlns:sodipodi="http://inkscape.sourceforge.net/DTD/sodipodi-0.dtd"
   xmlns:inkscape="http://www.inkscape.org/namespaces/inkscape"
   width="33.000000px"
   height="43.000000px"
   id="svg1"
   sodipodi:version="0.32"
   inkscape:version="0.43"
   sodipodi:docbase="/home/yekcim/Desktop/SVG/Skins/tuxteam"
   sodipodi:docname="dead.svg"
   inkscape:export-filename="/home/yekcim/Desktop/dead.png"
   inkscape:export-xdpi="90.000000"
   inkscape:export-ydpi="90.000000"
   inkscape:output_extension="org.inkscape.output.svg.inkscape">
  <defs
     id="defs3">
    <linearGradient
       id="linearGradient4327">
      <stop
         style="stop-color:#8faeff;stop-opacity:1.0000000;"
         offset="0.0000000"
         id="stop4329" />
      <stop
         style="stop-color:#a1d3db;stop-opacity:0.0000000"
         offset="1"
         id="stop4331" />
    </linearGradient>
    <linearGradient
       inkscape:collect="always"
       id="linearGradient30543">
      <stop
         style="stop-color:#d5a100;stop-opacity:1;"
         offset="0"
         id="stop30545" />
      <stop
         style="stop-color:#d5a100;stop-opacity:0;"
         offset="1"
         id="stop30547" />
    </linearGradient>
    <linearGradient
       inkscape:collect="always"
       id="linearGradient29775">
      <stop
         style="stop-color:#c18d00;stop-opacity:1;"
         offset="0"
         id="stop29777" />
      <stop
         style="stop-color:#c18d00;stop-opacity:0;"
         offset="1"
         id="stop29779" />
    </linearGradient>
    <linearGradient
       inkscape:collect="always"
       id="linearGradient29767">
      <stop
         style="stop-color:#c1b800;stop-opacity:1;"
         offset="0"
         id="stop29769" />
      <stop
         style="stop-color:#c1b800;stop-opacity:0;"
         offset="1"
         id="stop29771" />
    </linearGradient>
    <defs
       id="defs1062">
      <linearGradient
         inkscape:collect="always"
         id="linearGradient10630">
        <stop
           style="stop-color:#616161;stop-opacity:1;"
           offset="0"
           id="stop10631" />
        <stop
           style="stop-color:#616161;stop-opacity:0;"
           offset="1"
           id="stop10632" />
      </linearGradient>
      <linearGradient
         inkscape:collect="always"
         id="linearGradient10560">
        <stop
           style="stop-color:#000000;stop-opacity:1;"
           offset="0"
           id="stop10561" />
        <stop
           style="stop-color:#000000;stop-opacity:0;"
           offset="1"
           id="stop10562" />
      </linearGradient>
      <linearGradient
         inkscape:collect="always"
         id="linearGradient15046">
        <stop
           style="stop-color:#dadada;stop-opacity:1;"
           offset="0"
           id="stop15047" />
        <stop
           style="stop-color:#dadada;stop-opacity:0;"
           offset="1"
           id="stop15048" />
      </linearGradient>
      <linearGradient
         id="linearGradient13777">
        <stop
           offset="0.0000000"
           style="stop-color:#d17d00;stop-opacity:1.0000000;"
           id="stop13779" />
        <stop
           offset="1.0000000"
           style="stop-color:#a7b135;stop-opacity:0.0000000;"
           id="stop13778" />
      </linearGradient>
      <linearGradient
         id="linearGradient11847">
        <stop
           offset="0.0000000"
           style="stop-color:#000000;stop-opacity:1.0000000;"
           id="stop11849" />
        <stop
           offset="1.0000000"
           style="stop-color:#000000;stop-opacity:0.0000000;"
           id="stop11848" />
      </linearGradient>
      <linearGradient
         id="linearGradient6187">
        <stop
           style="stop-color:#2e1b0b;stop-opacity:1.0000000;"
           offset="0.0000000"
           id="stop6188" />
        <stop
           style="stop-color:#431e00;stop-opacity:0;"
           offset="1"
           id="stop6189" />
      </linearGradient>
      <linearGradient
         inkscape:collect="always"
         id="linearGradient4909">
        <stop
           style="stop-color:#000000;stop-opacity:1;"
           offset="0"
           id="stop4910" />
        <stop
           style="stop-color:#000000;stop-opacity:0;"
           offset="1"
           id="stop4911" />
      </linearGradient>
      <linearGradient
         id="linearGradient1780">
        <stop
           style="stop-color:#454545;stop-opacity:1.0000000;"
           offset="0.0000000"
           id="stop1781" />
        <stop
           style="stop-color:#ffffff;stop-opacity:0;"
           offset="1"
           id="stop1782" />
      </linearGradient>
      <linearGradient
         id="linearGradient3869">
        <stop
           offset="0.0000000"
           style="stop-color:#d2dd2e;stop-opacity:1.0000000;"
           id="stop3872" />
        <stop
           offset="0.76146787"
           style="stop-color:#b3b96d;stop-opacity:0.65555555;"
           id="stop3871" />
        <stop
           offset="1.0000000"
           style="stop-color:#b1b952;stop-opacity:0.0000000;"
           id="stop3870" />
      </linearGradient>
      <linearGradient
         inkscape:collect="always"
         xlink:href="#linearGradient9217"
         id="linearGradient3799"
         gradientUnits="userSpaceOnUse"
         gradientTransform="matrix(0.112563,0.000000,0.000000,0.115364,26.43402,157.1761)"
         x1="4373.3052"
         y1="319.33466"
         x2="96.982727"
         y2="2708.2139" />
      <linearGradient
         inkscape:collect="always"
         xlink:href="#linearGradient7337"
         id="linearGradient3800"
         gradientUnits="userSpaceOnUse"
         gradientTransform="matrix(0.230667,0.000000,0.000000,7.644947e-2,26.55186,129.5549)"
         x1="862.16510"
         y1="2479.5938"
         x2="1523.3719"
         y2="2479.5938" />
      <linearGradient
         inkscape:collect="always"
         xlink:href="#linearGradient5442"
         id="linearGradient3801"
         gradientUnits="userSpaceOnUse"
         gradientTransform="matrix(0.162855,0.000000,0.000000,7.648058e-2,75.52973,161.8049)"
         x1="580.22791"
         y1="2173.3171"
         x2="1782.0374"
         y2="1630.2036" />
      <radialGradient
         inkscape:collect="always"
         xlink:href="#linearGradient5442"
         id="radialGradient3802"
         gradientUnits="userSpaceOnUse"
         gradientTransform="matrix(0.159978,0.000000,0.000000,7.785591e-2,363.0923,173.8583)"
         cx="-606.79681"
         cy="1573.4399"
         fx="-606.79681"
         fy="1573.4399"
         r="739.70477" />
      <linearGradient
         inkscape:collect="always"
         xlink:href="#linearGradient21707"
         id="linearGradient3803"
         gradientUnits="userSpaceOnUse"
         gradientTransform="scale(0.659854,1.515487)"
         x1="4848.5972"
         y1="3945.1116"
         x2="5625.4653"
         y2="1720.9402" />
      <linearGradient
         inkscape:collect="always"
         xlink:href="#linearGradient7337"
         id="linearGradient3804"
         gradientUnits="userSpaceOnUse"
         gradientTransform="matrix(0.236634,0.000000,0.000000,0.208284,-2451.443,4783.687)"
         x1="-7797.7422"
         y1="5021.4731"
         x2="-352.84012"
         y2="1184.9034" />
      <linearGradient
         inkscape:collect="always"
         xlink:href="#linearGradient7337"
         id="linearGradient3805"
         gradientUnits="userSpaceOnUse"
         gradientTransform="matrix(0.236634,0.000000,0.000000,0.208284,-2451.443,4783.687)"
         x1="-7797.7422"
         y1="5021.4731"
         x2="-352.84012"
         y2="1184.9034" />
      <defs
         id="defs3745">
        <linearGradient
           id="linearGradient22333"
           x1="0.0000000"
           y1="0.50000000"
           x2="1.0000000"
           y2="0.50000000"
           gradientUnits="objectBoundingBox"
           spreadMethod="pad"
           xlink:href="#linearGradient13777" />
        <linearGradient
           id="linearGradient21707">
          <stop
             style="stop-color:#ffffff;stop-opacity:1.0000000;"
             offset="0.0000000"
             id="stop21708" />
          <stop
             style="stop-color:#a7b135;stop-opacity:0;"
             offset="1"
             id="stop21709" />
        </linearGradient>
        <linearGradient
           inkscape:collect="always"
           id="linearGradient9217"
           x1="0.0000000"
           y1="0.50000000"
           x2="1.0000000"
           y2="0.50000000"
           gradientUnits="objectBoundingBox"
           spreadMethod="pad"
           xlink:href="#linearGradient11847" />
        <linearGradient
           id="linearGradient8584">
          <stop
             style="stop-color:#000000;stop-opacity:1.0000000;"
             offset="0.0000000"
             id="stop8585" />
          <stop
             style="stop-color:#cece4c;stop-opacity:0;"
             offset="1"
             id="stop8586" />
        </linearGradient>
        <linearGradient
           id="linearGradient7337">
          <stop
             style="stop-color:#b1b12f;stop-opacity:1.0000000;"
             offset="0.0000000"
             id="stop7338" />
          <stop
             style="stop-color:#cece4c;stop-opacity:0;"
             offset="1"
             id="stop7339" />
        </linearGradient>
        <linearGradient
           id="linearGradient5442"
           x1="0.0000000"
           y1="0.50000000"
           x2="1.0000000"
           y2="0.50000000"
           gradientUnits="objectBoundingBox"
           spreadMethod="pad"
           xlink:href="#linearGradient3869" />
      </defs>
      <sodipodi:namedview
         id="namedview3772"
         pagecolor="#ffffff"
         bordercolor="#666666"
         borderopacity="1.0"
         inkscape:pageopacity="0.0"
         inkscape:pageshadow="2"
         inkscape:zoom="0.80057989"
         inkscape:cx="297.63780"
         inkscape:cy="420.94487"
         inkscape:current-layer="layer1"
         inkscape:window-width="1440"
         inkscape:window-height="851"
         inkscape:window-x="0"
         inkscape:window-y="27"
         showguides="true"
         inkscape:guide-bbox="true" />
      <metadata
         id="metadata3773">
        <rdf:RDF>
          <cc:Work
             rdf:about="">
            <dc:format>image/svg+xml</dc:format>
            <dc:type
               rdf:resource="http://purl.org/dc/dcmitype/StillImage" />
          </cc:Work>
        </rdf:RDF>
      </metadata>
      <linearGradient
         inkscape:collect="always"
         xlink:href="#linearGradient4909"
         id="linearGradient6167"
         gradientUnits="userSpaceOnUse"
         gradientTransform="scale(0.891889,1.121216)"
         x1="-148.77991"
         y1="106.31860"
         x2="-160.14931"
         y2="-66.932083" />
      <linearGradient
         inkscape:collect="always"
         xlink:href="#linearGradient10560"
         id="linearGradient10563"
         gradientTransform="matrix(0.915477,0.127968,-0.149762,1.071392,19.54851,-8.453410)"
         x1="698.54480"
         y1="69.852913"
         x2="758.31232"
         y2="359.09653"
         gradientUnits="userSpaceOnUse" />
      <linearGradient
         inkscape:collect="always"
         xlink:href="#linearGradient10560"
         id="linearGradient10578"
         gradientUnits="userSpaceOnUse"
         gradientTransform="matrix(0.915477,0.127968,-0.149762,1.071392,0.000000,0.000000)"
         x1="647.37115"
         y1="96.894905"
         x2="770.59186"
         y2="342.74301" />
      <linearGradient
         inkscape:collect="always"
         xlink:href="#linearGradient4909"
         id="linearGradient10604"
         gradientUnits="userSpaceOnUse"
         gradientTransform="scale(0.891889,1.121216)"
         x1="-148.77991"
         y1="106.31860"
         x2="-160.14931"
         y2="-66.932083" />
      <linearGradient
         inkscape:collect="always"
         xlink:href="#linearGradient10630"
         id="linearGradient10633"
         gradientTransform="scale(0.883732,1.131565)"
         x1="-164.59187"
         y1="105.15539"
         x2="-154.14560"
         y2="3.6783011"
         gradientUnits="userSpaceOnUse" />
      <linearGradient
         inkscape:collect="always"
         xlink:href="#linearGradient10630"
         id="linearGradient10647"
         gradientUnits="userSpaceOnUse"
         gradientTransform="scale(0.883732,1.131565)"
         x1="-164.59187"
         y1="105.15539"
         x2="-154.14560"
         y2="3.6783011" />
      <radialGradient
         inkscape:collect="always"
         xlink:href="#linearGradient1780"
         id="radialGradient5568"
         gradientUnits="userSpaceOnUse"
         gradientTransform="matrix(-0.663014,1.058409,1.330757,0.590372,-891.7907,666.4254)"
         cx="-446.72464"
         cy="218.60974"
         fx="-446.72464"
         fy="218.60974"
         r="308.80975" />
      <linearGradient
         inkscape:collect="always"
         xlink:href="#linearGradient10630"
         id="linearGradient4391"
         gradientUnits="userSpaceOnUse"
         gradientTransform="matrix(0.437171,-0.479724,0.614848,0.557530,723.0732,-61.92042)"
         x1="-164.59187"
         y1="105.15539"
         x2="-154.14560"
         y2="3.6783011" />
    </defs>
    <radialGradient
       inkscape:collect="always"
       xlink:href="#linearGradient4327"
       id="radialGradient2129"
       gradientUnits="userSpaceOnUse"
       gradientTransform="matrix(-1.072267,-1.605609,0.421379,-0.295645,-6.952570,-1.559644)"
       cx="4.9667163"
       cy="21.650106"
       fx="4.9667163"
       fy="21.650106"
       r="12.720450" />
    <linearGradient
       inkscape:collect="always"
       xlink:href="#linearGradient4327"
       id="linearGradient2132"
       gradientUnits="userSpaceOnUse"
       gradientTransform="matrix(1.000000,0.000000,0.000000,0.842505,-34.35752,-0.889119)"
       x1="65.845245"
       y1="57.405384"
       x2="48.357937"
       y2="8.7569056" />
    <radialGradient
       inkscape:collect="always"
       xlink:href="#linearGradient4327"
       id="radialGradient2135"
       gradientUnits="userSpaceOnUse"
       gradientTransform="matrix(-0.510615,1.027708,-1.076556,-0.366810,40.83793,-8.600006)"
       cx="17.054417"
       cy="5.4190989"
       fx="17.054417"
       fy="5.4190989"
       r="12.720450" />
    <radialGradient
       inkscape:collect="always"
       xlink:href="#linearGradient4327"
       id="radialGradient2138"
       gradientUnits="userSpaceOnUse"
       gradientTransform="matrix(-0.103900,3.912204,-0.659234,0.201944,16.48403,46.81220)"
       cx="-10.909184"
       cy="17.083120"
       fx="-10.909184"
       fy="17.083120"
       r="12.720450" />
    <linearGradient
       inkscape:collect="always"
       xlink:href="#linearGradient4327"
       id="linearGradient2174"
       gradientUnits="userSpaceOnUse"
       gradientTransform="matrix(1.000000,0.000000,0.000000,0.780241,33.41894,2.463965)"
       x1="-26.291422"
       y1="-3.7789915"
       x2="-5.1058254"
       y2="39.464104" />
    <radialGradient
       inkscape:collect="always"
       xlink:href="#linearGradient4327"
       id="radialGradient2177"
       gradientUnits="userSpaceOnUse"
       gradientTransform="matrix(4.208045e-2,1.370356,-1.531077,0.586232,66.17759,-9.736483)"
       cx="-12.043839"
       cy="20.085691"
       fx="-12.043839"
       fy="20.085691"
       r="12.720450" />
    <linearGradient
       inkscape:collect="always"
       xlink:href="#linearGradient15046"
       id="linearGradient3022"
       gradientUnits="userSpaceOnUse"
       gradientTransform="matrix(-7.748807e-2,2.512543e-17,3.716277e-17,0.114610,-17.75474,-4.001667)"
       x1="441.72971"
       y1="303.18546"
       x2="428.48846"
       y2="198.18111" />
    <linearGradient
       inkscape:collect="always"
       xlink:href="#linearGradient15046"
       id="linearGradient3024"
       gradientUnits="userSpaceOnUse"
       gradientTransform="matrix(-7.748807e-2,2.512543e-17,3.716277e-17,0.114610,-17.47433,-4.177225)"
       x1="393.50977"
       y1="308.61905"
       x2="509.58563"
       y2="239.1801" />
    <linearGradient
       inkscape:collect="always"
       xlink:href="#linearGradient29767"
       id="linearGradient3026"
       gradientUnits="userSpaceOnUse"
       x1="469.22879"
       y1="195.66983"
       x2="466.85336"
       y2="190.31827" />
    <linearGradient
       inkscape:collect="always"
       xlink:href="#linearGradient29775"
       id="linearGradient3028"
       gradientUnits="userSpaceOnUse"
       x1="452.24230"
       y1="191.61978"
       x2="477.79759"
       y2="191.61978" />
    <linearGradient
       inkscape:collect="always"
       xlink:href="#linearGradient30543"
       id="linearGradient3030"
       gradientUnits="userSpaceOnUse"
       gradientTransform="matrix(-0.210682,0.197732,-0.306479,-0.146057,149.0583,-30.10343)"
       x1="445.31965"
       y1="185.40658"
       x2="483.65149"
       y2="185.40658" />
    <linearGradient
       inkscape:collect="always"
       xlink:href="#linearGradient30543"
       id="linearGradient3032"
       gradientUnits="userSpaceOnUse"
       gradientTransform="matrix(0.796850,-9.996640e-2,0.107573,0.857480,57.47947,52.25634)"
       x1="445.31965"
       y1="185.40658"
       x2="483.65149"
       y2="185.40658" />
  </defs>
  <sodipodi:namedview
     id="base"
     pagecolor="#ffffff"
     bordercolor="#666666"
     borderopacity="1.0"
     inkscape:pageopacity="0.0"
     inkscape:pageshadow="2"
     inkscape:zoom="11.313708"
     inkscape:cx="30.133282"
     inkscape:cy="22.208079"
     inkscape:current-layer="g1160"
     inkscape:window-width="1440"
     inkscape:window-height="826"
     inkscape:window-x="0"
     inkscape:window-y="26" />
  <metadata
     id="metadata4">
    <rdf:RDF>
      <cc:Work
         rdf:about="">
        <dc:format>image/svg+xml</dc:format>
        <dc:type
           rdf:resource="http://purl.org/dc/dcmitype/StillImage" />
      </cc:Work>
    </rdf:RDF>
  </metadata>
  <g
     id="g1160"
     inkscape:groupmode="layer"
     inkscape:label="Layer 1"
     style="display:inline">
    <g
       inkscape:label="Layer 1"
       id="g29199"
       transform="matrix(-0.751547,-0.274884,-0.274884,0.751547,366.2584,58.85187)" />
    <g
       id="g29315"
       inkscape:label="Layer 1"
       transform="matrix(-0.751547,-0.274884,-0.274884,0.751547,1338.872,769.0939)" />
    <g
       inkscape:label="Layer 1"
       id="g29317"
       transform="matrix(-0.751547,-0.274884,-0.274884,0.751547,1976.649,967.7743)" />
    <g
       inkscape:label="Layer 1"
       id="g3589"
       transform="matrix(-0.711242,-0.260142,-0.261185,0.714093,332.0662,66.77353)" />
    <g
       id="g3591"
       inkscape:label="Layer 1"
       transform="matrix(-0.711242,-0.260142,-0.261185,0.714093,1252.084,740.1117)" />
    <g
       inkscape:label="Layer 1"
       id="g3593"
       transform="matrix(-0.711242,-0.260142,-0.261185,0.714093,1855.702,928.0219)" />
    <path
       style="fill:none;fill-opacity:0.75000000;fill-rule:evenodd;stroke:#7f7f7f;stroke-width:0.45894039;stroke-linecap:butt;stroke-linejoin:miter;stroke-miterlimit:4.0000000;stroke-dasharray:none;stroke-opacity:1.0000000"
       d="M 25.304014,38.231788 C 26.983393,39.292952 29.193101,41.266344 32.021528,42.476443"
       id="path4451"
       sodipodi:nodetypes="cc" />
    <path
       style="fill:none;fill-opacity:0.75000000;fill-rule:evenodd;stroke:#7f7f7f;stroke-width:0.45894039;stroke-linecap:butt;stroke-linejoin:miter;stroke-miterlimit:4.0000000;stroke-dasharray:none;stroke-opacity:1.0000000"
       d="M 25.834344,0.99797105 C 25.701761,10.287809 26.209995,32.311611 25.304014,38.157320 C 16.973412,37.673280 1.3507715,37.784982 1.3507715,37.784982 C 1.3507715,37.784982 1.4170625,37.784982 1.4391595,37.784982"
       id="path4449"
       sodipodi:nodetypes="cccc" />
    <g
       id="g2988"
       transform="translate(37.87355,0.684583)">
      <g
         transform="matrix(-0.322385,0.230148,-0.233627,-0.295576,157.0559,-53.20022)"
         id="g2152"
         style="display:inline">
        <path
           style="fill:#232323;fill-opacity:1.0000000;fill-rule:evenodd;stroke:none;stroke-width:2.3750000;stroke-linecap:butt;stroke-linejoin:miter;stroke-miterlimit:4.0000000;stroke-dasharray:none;stroke-opacity:1.0000000;display:inline"
           d="M 464.51208,106.88987 C 450.17930,113.23992 400.38951,139.91106 425.42765,138.09586 C 450.46580,136.28067 472.19471,120.92575 472.19471,120.92575"
           id="path2154"
           sodipodi:nodetypes="csc" />
        <path
           style="fill:none;fill-opacity:0.75000000;fill-rule:evenodd;stroke:#000000;stroke-width:2.6808977;stroke-linecap:butt;stroke-linejoin:miter;stroke-miterlimit:4.0000000;stroke-dasharray:none;stroke-opacity:1.0000000;display:inline"
           d="M 465.75543,106.35680 C 452.04469,110.47785 400.80346,139.58534 425.84160,137.77014 C 450.87975,135.95496 472.60867,120.60004 472.60867,120.60004"
           id="path2156"
           sodipodi:nodetypes="csc" />
      </g>
      <path
         sodipodi:nodetypes="czsccscc"
         id="path2174"
         d="M -18.395089,19.171989 C -17.301165,17.023303 -15.164235,10.191279 -16.321284,8.5807325 C -17.532315,6.8950435 -20.761369,4.2815577 -25.203020,8.9849794 C -30.856895,14.972066 -31.563962,41.038402 -21.232928,40.273425 C -8.3738526,40.241313 -10.203727,28.239415 -15.715562,26.377401 C -15.715562,26.377401 -19.489011,21.320672 -18.395089,19.171989 z M -15.774547,26.347387 C -17.027971,25.948795 -18.438573,26.242790 -19.977562,26.977752"
         style="fill:#232323;fill-opacity:1.0000000;fill-rule:evenodd;stroke:none;stroke-width:0.92659229;stroke-linecap:butt;stroke-linejoin:miter;stroke-miterlimit:4.0000000;stroke-dasharray:none;stroke-opacity:1.0000000;display:inline" />
      <g
         transform="matrix(0.999985,5.444704e-3,-5.444704e-3,0.999985,35.61838,1.112485)"
         id="g2176"
         style="display:inline">
        <path
           style="fill:url(#linearGradient3022);fill-opacity:1.0000000;fill-rule:evenodd;stroke:none;stroke-width:0.25000000pt;stroke-linecap:butt;stroke-linejoin:miter;stroke-opacity:1.0000000"
           d="M -47.317294,34.658965 C -48.460093,38.068498 -51.263652,38.967630 -53.583519,38.933594 C -55.959999,38.899558 -58.392287,38.460213 -59.030514,34.499396 C -59.667370,30.547085 -57.297248,25.893828 -56.246561,18.759481 C -55.615627,17.459542 -54.331246,17.220448 -54.416914,18.644089 C -54.562306,20.294463 -53.430005,22.444486 -52.350948,23.827570 C -51.983599,24.408984 -51.844408,24.871005 -50.736197,25.728647 C -47.807183,27.337879 -46.174496,31.249427 -47.317294,34.658965 z "
           id="path2178"
           sodipodi:nodetypes="czzccccz" />
        <path
           style="fill:url(#linearGradient3024);fill-opacity:1.0000000;fill-rule:evenodd;stroke:none;stroke-width:0.25000000pt;stroke-linecap:butt;stroke-linejoin:miter;stroke-opacity:1.0000000;display:inline"
           d="M -47.036890,34.483407 C -48.179689,37.892940 -50.983248,38.792072 -53.303115,38.758036 C -55.679595,38.724000 -58.111883,38.284655 -58.750110,34.323838 C -59.386966,30.371527 -57.016844,25.718270 -55.966157,18.583923 C -55.335223,17.283984 -54.050842,17.044890 -54.136510,18.468531 C -54.281902,20.118905 -53.149601,22.268928 -52.070544,23.652012 C -51.703195,24.233426 -51.564004,24.695447 -50.455793,25.553089 C -47.526779,27.162321 -45.894092,31.073869 -47.036890,34.483407 z "
           id="path2180"
           sodipodi:nodetypes="czzccccz" />
      </g>
      <path
         sodipodi:nodetypes="cs"
         id="path2182"
         d="M -20.697820,19.198458 C -20.424516,26.191779 -28.732965,39.252694 -17.980008,39.933989"
         style="fill:none;fill-opacity:0.75000000;fill-rule:evenodd;stroke:#000000;stroke-width:0.80000001;stroke-linecap:butt;stroke-linejoin:miter;stroke-miterlimit:4.0000000;stroke-dasharray:none;stroke-opacity:1.0000000;display:inline" />
      <path
         sodipodi:nodetypes="cscsccscc"
         id="path2184"
         d="M -16.447440,8.7060235 C -16.566385,8.4911315 -17.941192,6.1310441 -20.545408,6.3379581 C -20.584880,6.3410941 -20.623677,6.3329698 -20.663702,6.3373140 C -21.904492,6.4719905 -23.412251,7.2065915 -25.203020,8.9849794 C -31.045298,14.786866 -31.563962,41.038402 -21.232928,40.273425 C -8.3738526,40.241313 -10.203727,28.239415 -15.715562,26.377401 C -15.715562,26.377401 -19.697672,21.235553 -18.603749,19.086867 M -15.774547,26.347387 C -17.027971,25.948795 -18.438573,26.242790 -19.977562,26.977752"
         style="fill:none;fill-opacity:1.0000000;fill-rule:evenodd;stroke:#000000;stroke-width:0.80000001;stroke-linecap:butt;stroke-linejoin:miter;stroke-miterlimit:4.0000000;stroke-dasharray:none;stroke-opacity:1.0000000;display:inline" />
      <g
         transform="matrix(3.041426e-2,0.386357,-0.381320,5.697319e-2,4.422157,-164.3664)"
         id="g2188"
         style="display:inline">
        <g
           id="g2190">
          <path
             sodipodi:nodetypes="csc"
             id="path2192"
             d="M 464.51208,106.88987 C 450.17930,113.23992 400.38951,139.91106 425.42765,138.09586 C 450.46580,136.28067 472.19471,120.92575 472.19471,120.92575"
             style="fill:#232323;fill-opacity:1.0000000;fill-rule:evenodd;stroke:none;stroke-width:2.3750000;stroke-linecap:butt;stroke-linejoin:miter;stroke-miterlimit:4.0000000;stroke-dasharray:none;stroke-opacity:1.0000000;display:inline" />
          <path
             sodipodi:nodetypes="csc"
             id="path2194"
             d="M 465.75543,106.35680 C 452.04469,110.47785 400.80346,139.58534 425.84160,137.77014 C 450.87975,135.95496 472.60867,120.60004 472.60867,120.60004"
             style="fill:none;fill-opacity:0.75000000;fill-rule:evenodd;stroke:#000000;stroke-width:2.6808977;stroke-linecap:butt;stroke-linejoin:miter;stroke-miterlimit:4.0000000;stroke-dasharray:none;stroke-opacity:1.0000000;display:inline" />
        </g>
      </g>
      <path
         sodipodi:nodetypes="cs"
         id="path2432"
         d="M -20.529972,6.3712009 C -20.529972,6.3712009 -12.335636,5.5426748 -18.661088,19.280874"
         style="fill:none;fill-opacity:0.75000000;fill-rule:evenodd;stroke:#000000;stroke-width:0.80000001;stroke-linecap:butt;stroke-linejoin:miter;stroke-miterlimit:4.0000000;stroke-dasharray:none;stroke-opacity:1.0000000" />
      <g
         id="g2198"
         transform="matrix(-0.341122,-0.208568,-0.194468,0.318060,179.2872,52.99598)">
        <g
           id="g2200"
           transform="matrix(0.982485,-0.199858,0.173746,0.982484,-26.07491,98.56662)">
          <path
             sodipodi:nodetypes="csssc"
             id="path2202"
             d="M 476.44567,195.58565 C 480.05309,192.43464 475.54804,185.78787 472.67153,185.40542 C 462.78381,184.09079 448.96523,198.02687 452.92570,198.07305 C 454.71656,198.09393 458.85165,196.94027 463.22820,195.58912 C 467.60475,194.23796 473.68894,196.35475 476.44567,195.58565 z "
             style="opacity:1.0000000;fill:#ffdd19;fill-opacity:1.0000000;fill-rule:evenodd;stroke:none;stroke-width:1.7480000;stroke-linecap:butt;stroke-linejoin:miter;stroke-miterlimit:4.0000000;stroke-dasharray:none;stroke-opacity:1.0000000;display:inline" />
          <path
             sodipodi:nodetypes="csssc"
             id="path2204"
             d="M 476.43630,195.52786 C 480.04372,192.37685 475.53867,185.73008 472.66216,185.34763 C 462.77444,184.03300 448.95586,197.96908 452.91633,198.01526 C 454.70719,198.03614 458.84228,196.88248 463.21883,195.53133 C 467.59538,194.18017 473.67957,196.29696 476.43630,195.52786 z "
             style="opacity:1.0000000;fill:url(#linearGradient3026);fill-opacity:1.0000000;fill-rule:evenodd;stroke:none;stroke-width:1.7480000;stroke-linecap:butt;stroke-linejoin:miter;stroke-miterlimit:4.0000000;stroke-dasharray:none;stroke-opacity:1.0000000;display:inline" />
          <path
             sodipodi:nodetypes="csssc"
             id="path2206"
             d="M 476.45750,195.50980 C 480.06492,192.35879 475.55987,185.71202 472.68336,185.32957 C 462.79564,184.01494 448.97706,197.95102 452.93753,197.99720 C 454.72839,198.01808 458.86348,196.86442 463.24003,195.51327 C 467.61658,194.16211 473.70077,196.27890 476.45750,195.50980 z "
             style="opacity:1.0000000;fill:url(#linearGradient3028);fill-opacity:1.0000000;fill-rule:evenodd;stroke:none;stroke-width:1.7480000;stroke-linecap:butt;stroke-linejoin:miter;stroke-miterlimit:4.0000000;stroke-dasharray:none;stroke-opacity:1.0000000;display:inline" />
          <path
             sodipodi:nodetypes="csc"
             id="path2208"
             d="M 472.63296,185.43672 C 462.79210,183.80802 448.92666,198.05817 452.88713,198.10435 C 456.46885,198.14612 477.61670,191.03514 477.61670,191.03514"
             style="fill:none;fill-opacity:0.75000000;fill-rule:evenodd;stroke:#000000;stroke-width:1.7480000;stroke-linecap:butt;stroke-linejoin:miter;stroke-miterlimit:4.0000000;stroke-dasharray:none;stroke-opacity:1.0000000" />
          <path
             sodipodi:nodetypes="cs"
             id="path2210"
             d="M 463.10806,195.66549 C 463.10806,195.66549 471.31412,196.51000 476.82757,195.30356"
             style="fill:none;fill-opacity:0.75000000;fill-rule:evenodd;stroke:#000000;stroke-width:1.7480000;stroke-linecap:butt;stroke-linejoin:miter;stroke-miterlimit:4.0000000;stroke-dasharray:none;stroke-opacity:1.0000000" />
        </g>
      </g>
      <path
         style="fill:#000000;fill-opacity:1.0000000;fill-rule:nonzero;stroke:none;stroke-width:1.0000000px;stroke-linecap:butt;stroke-linejoin:miter;stroke-opacity:1.0000000"
         id="path2814"
         d="M -21.308419,8.6202241 C -20.678074,9.1266434 -20.021753,9.6341514 -19.367090,10.118853 C -18.825344,10.519990 -18.276000,10.910724 -17.734890,11.312682 L -18.737145,11.944884 C -19.259426,11.528723 -19.798216,11.133722 -20.327893,10.727082 C -20.930979,10.276369 -21.730044,9.6260164 -22.312280,9.3495724 L -21.308419,8.6202241 z " />
      <path
         style="fill:#000000;fill-opacity:1.0000000;fill-rule:nonzero;stroke:none;stroke-width:1.0000000px;stroke-linecap:butt;stroke-linejoin:miter;stroke-opacity:1.0000000;display:inline"
         id="path2818"
         d="M -18.401853,9.1231994 C -18.908273,9.7535444 -19.415781,10.409867 -19.900484,11.064530 C -20.301619,11.606277 -20.692351,12.155620 -21.094312,12.696730 L -21.726512,11.694471 C -21.310351,11.172194 -20.915351,10.633402 -20.508710,10.103726 C -20.058000,9.5006454 -19.407647,8.7015781 -19.131202,8.1193394 L -18.401853,9.1231994 z " />
      <g
         transform="translate(-4.684583,-1.149049)"
         id="g2980">
        <path
           style="fill:#000000;fill-opacity:1.0000000;fill-rule:nonzero;stroke:none;stroke-width:1.0000000pt;stroke-linecap:butt;stroke-linejoin:miter;stroke-opacity:1.0000000;display:inline"
           d="M -9.6385190,35.216181 C -8.0098870,35.267533 -9.6493110,34.163554 -9.4109280,35.411187 C -10.521412,35.811736 -10.455284,35.508026 -9.6219860,35.900226 L -10.884000,35.380324 C -9.8369980,36.038702 -9.2133990,36.810883 -8.1947030,36.066822 C -8.0933190,34.839839 -9.8850470,33.855015 -10.901438,34.585792 L -9.6385190,35.216181 z "
           id="path2186" />
        <path
           style="fill:#d5cd00;fill-opacity:1.0000000;fill-rule:evenodd;stroke:none;stroke-width:2.0669999;stroke-linecap:butt;stroke-linejoin:miter;stroke-miterlimit:4.0000000;stroke-dasharray:none;stroke-opacity:1.0000000;display:inline"
           d="M -6.1178863,38.985695 C -7.4597644,40.493653 -8.3094851,39.309807 -8.3094851,39.309807 C -8.3094851,39.309807 -10.639796,33.003041 -8.5365006,34.600202 C -6.4332025,36.197364 -5.1964012,28.998823 -5.1381204,32.372670 C -5.0798396,35.746518 -0.38736149,26.943844 -2.9419817,33.277985 C -3.4746163,34.598644 -4.7760112,37.477739 -6.1178863,38.985695 z "
           id="path2241"
           sodipodi:nodetypes="ccsssz" />
        <path
           style="fill:url(#linearGradient3030);fill-opacity:1.0000000;fill-rule:evenodd;stroke:none;stroke-width:2.0669999;stroke-linecap:butt;stroke-linejoin:miter;stroke-miterlimit:4.0000000;stroke-dasharray:none;stroke-opacity:1.0000000;display:inline"
           d="M -5.9434877,38.715838 C -7.2853628,40.223795 -8.1350866,39.039951 -8.1350866,39.039951 C -8.1350866,39.039951 -10.465394,32.733187 -8.3620989,34.330347 C -6.2588008,35.927510 -5.0220027,28.728966 -4.9637219,32.102814 C -4.9054349,35.476661 -0.21295673,26.673987 -2.7675800,33.008130 C -3.3002146,34.328789 -4.6016095,37.207884 -5.9434877,38.715838 z "
           id="path2243"
           sodipodi:nodetypes="ccsssz" />
        <path
           style="fill:none;fill-opacity:0.75000000;fill-rule:evenodd;stroke:#000000;stroke-width:0.80000001;stroke-linecap:butt;stroke-linejoin:miter;stroke-miterlimit:4.0000000;stroke-dasharray:none;stroke-opacity:1.0000000"
           d="M -8.2329026,39.094702 C -8.2329026,39.094702 -10.563213,32.787935 -8.4599149,34.385098 C -6.3566200,35.982258 -5.1198187,28.783717 -5.0615379,32.157565 C -5.0032508,35.531412 -0.31077590,26.728736 -2.8653959,33.062881 C -3.3980338,34.383538 -6.0413037,38.770589 -6.0413037,38.770589"
           id="path2245"
           sodipodi:nodetypes="csssc" />
      </g>
      <g
         transform="matrix(-0.325185,0.189819,-0.376383,-0.280177,191.4586,-3.196498)"
         id="g2158"
         style="display:inline">
        <path
           style="fill:#d5cd00;fill-opacity:1.0000000;fill-rule:evenodd;stroke:none;stroke-width:2.0669999;stroke-linecap:butt;stroke-linejoin:miter;stroke-miterlimit:4.0000000;stroke-dasharray:none;stroke-opacity:1.0000000;display:inline"
           d="M 458.78172,155.64201 C 464.45972,154.43052 462.86934,158.60907 462.86934,158.60907 C 462.86934,158.60907 451.08778,177.14490 451.79178,169.88475 C 452.49578,162.62459 433.17790,177.17343 441.27080,169.27276 C 449.36370,161.37209 420.95010,173.77020 440.15738,163.45502 C 444.16207,161.30432 453.10373,156.85350 458.78172,155.64201 z "
           id="path2160"
           sodipodi:nodetypes="ccsssz" />
        <path
           style="fill:url(#linearGradient3032);fill-opacity:1.0000000;fill-rule:evenodd;stroke:none;stroke-width:2.0669999;stroke-linecap:butt;stroke-linejoin:miter;stroke-miterlimit:4.0000000;stroke-dasharray:none;stroke-opacity:1.0000000;display:inline"
           d="M 457.86465,155.97029 C 463.54264,154.75880 461.95227,158.93735 461.95227,158.93735 C 461.95227,158.93735 450.17071,177.47317 450.87471,170.21302 C 451.57871,162.95286 432.26083,177.50171 440.35373,169.60104 C 448.44662,161.70036 420.03302,174.09847 439.24031,163.78329 C 443.24500,161.63259 452.18666,157.18177 457.86465,155.97029 z "
           id="path2162"
           sodipodi:nodetypes="ccsssz" />
        <path
           style="fill:none;fill-opacity:0.75000000;fill-rule:evenodd;stroke:#000000;stroke-width:1.9725000;stroke-linecap:butt;stroke-linejoin:miter;stroke-miterlimit:4.0000000;stroke-dasharray:none;stroke-opacity:1.0000000"
           d="M 462.23239,158.97662 C 462.23239,158.97662 450.45083,177.51245 451.15483,170.25229 C 451.85883,162.99214 432.54095,177.54098 440.63385,169.64031 C 448.72674,161.73963 420.31314,174.13775 439.52043,163.82256 C 443.52512,161.67187 458.14477,156.00956 458.14477,156.00956"
           id="path2164"
           sodipodi:nodetypes="csssc" />
      </g>
    </g>
    <rect
       style="opacity:1.0000000;fill:url(#linearGradient2174);fill-opacity:1.0000000;stroke:none;stroke-width:1.0000000;stroke-linejoin:round;stroke-miterlimit:4.0000000;stroke-dasharray:none;stroke-opacity:1.0000000;display:inline"
       id="rect4344"
       width="24.640900"
       height="37.119164"
       x="1.2020699"
       y="0.69735277" />
    <rect
       style="opacity:1.0000000;fill:url(#radialGradient2138);fill-opacity:1.0000000;stroke:none;stroke-width:1.3323350;stroke-linejoin:round;stroke-miterlimit:4.0000000;stroke-dasharray:none;stroke-opacity:1.0000000;display:inline"
       id="rect4350"
       width="7.7064586"
       height="37.027203"
       x="1.7478200"
       y="-0.14822146"
       transform="matrix(0.803170,0.595749,0.000000,1.000000,0.000000,0.000000)" />
    <rect
       style="opacity:1.0000000;fill:url(#radialGradient2135);fill-opacity:1.0000000;stroke:none;stroke-width:0.76987100;stroke-linejoin:round;stroke-miterlimit:4.0000000;stroke-dasharray:none;stroke-opacity:1.0000000;display:inline"
       id="rect3591"
       width="24.640900"
       height="37.119164"
       x="7.4800286"
       y="5.1845207" />
    <rect
       style="opacity:1.0000000;fill:url(#linearGradient2132);fill-opacity:1.0000000;stroke:none;stroke-width:1.0000000;stroke-linejoin:round;stroke-miterlimit:4.0000000;stroke-dasharray:none;stroke-opacity:1.0000000;display:inline"
       id="rect4358"
       width="24.640900"
       height="37.119164"
       x="7.3759027"
       y="5.3701382" />
    <path
       style="fill:#ffffff;fill-opacity:0.14503814;fill-rule:nonzero;stroke:none;stroke-width:1.0000000px;stroke-linecap:butt;stroke-linejoin:miter;stroke-opacity:1.0000000;display:inline"
       id="path4400"
       d="M 22.994453,6.7798158 C 21.566262,7.0988298 19.839649,7.0851518 18.317574,7.4249558 C 16.160925,7.9001258 14.115588,8.8233548 12.266167,10.138164 C 11.777310,10.525708 10.909371,11.079863 11.187138,11.752835 C 12.087948,12.419718 20.302092,13.113436 15.654481,12.748929 C 18.813745,12.943617 21.997719,12.863078 25.133321,13.400473 C 26.293474,13.841396 28.401955,13.721515 29.006350,15.139976 C 28.426812,17.693046 23.448503,16.511611 22.133748,16.409170 C 21.271477,16.298872 17.566532,15.978223 21.475191,16.303089 C 21.817083,16.331507 20.790795,16.254955 20.448197,16.240414 C 19.602715,16.204527 18.771660,16.232999 17.943926,16.436724 C 16.875193,16.705262 16.225880,17.261463 16.161629,18.491468 C 16.238403,19.885153 17.191910,20.794402 18.089984,21.640483 C 19.390042,22.756478 20.902288,23.509719 22.346421,24.363121 C 23.151986,24.856857 23.952147,25.367796 24.718723,25.933444 C 25.462221,26.555712 25.075245,27.185577 24.296667,27.488695 C 23.018451,27.865363 21.686423,27.876711 20.375302,27.985360 C 19.920773,28.011086 19.579074,28.082816 19.370737,28.484358 C 19.428671,29.080853 19.826392,29.500779 20.181106,29.917987 L 17.716385,29.954935 C 17.324407,29.471453 16.896299,28.976582 16.862693,28.294111 C 16.942894,27.639307 17.402056,27.477089 17.957980,27.411228 C 19.271359,27.292954 20.604471,27.312360 21.894198,26.979683 C 22.555217,26.769060 22.891661,26.516104 22.228397,26.029639 C 21.470226,25.485074 20.698275,24.963576 19.904006,24.486162 C 18.464606,23.615978 16.952730,22.847733 15.667823,21.704631 C 14.715478,20.788964 13.749608,19.812042 13.705302,18.318430 C 13.773523,16.974683 14.353747,16.242391 15.554200,15.910230 C 18.445065,15.077137 21.537048,16.128940 24.455908,16.183889 C 20.280711,15.876566 25.995774,16.724800 26.520144,15.066827 C 25.643444,13.968534 23.957950,13.997435 22.761190,13.611615 C 21.879291,13.472232 19.465345,13.283332 23.354435,13.576351 C 23.810094,13.610682 22.442267,13.523380 21.986085,13.499099 C 20.626621,13.426744 19.265455,13.403310 17.906184,13.324682 C 14.944250,13.095715 11.463355,13.104802 8.6929734,11.788289 C 8.2948394,10.863764 9.2490904,10.164136 9.8646119,9.6992258 C 11.758720,8.3863208 13.834064,7.4262278 16.021555,6.9108438 C 17.402889,6.5806478 19.162412,6.2125928 20.475919,6.4377818 L 22.994453,6.7798158 z " />
    <path
       style="fill:#ffffff;fill-opacity:0.14503814;fill-rule:nonzero;stroke:none;stroke-width:1.0000000px;stroke-linecap:butt;stroke-linejoin:miter;stroke-opacity:1.0000000;display:inline"
       id="path4402"
       d="M 23.074948,38.366979 C 21.646757,38.170952 19.920144,38.179357 18.398069,37.970555 C 16.241420,37.678574 14.196083,37.111268 12.346662,36.303346 C 11.857804,36.065209 10.989865,35.724692 11.267633,35.311166 C 12.168442,34.901381 20.382587,34.475105 15.734976,34.699088 C 18.894240,34.579456 22.078214,34.628946 25.213816,34.298728 C 26.373969,34.027790 28.482450,34.101454 29.086845,33.229841 C 28.507307,31.661034 23.528998,32.387001 22.214243,32.449949 C 21.351972,32.517724 17.647027,32.714755 21.555686,32.515132 C 21.897578,32.497671 20.871290,32.544710 20.528692,32.553645 C 19.683210,32.575697 18.852155,32.558202 18.024421,32.433017 C 16.955688,32.268006 16.306375,31.926233 16.242124,31.170421 C 16.318898,30.314031 17.272405,29.755318 18.170479,29.235420 C 19.470537,28.549665 20.982783,28.086815 22.426916,27.562417 C 23.232481,27.259027 24.032642,26.945066 24.799218,26.597488 C 25.542716,26.215116 25.155740,25.828079 24.377162,25.641819 C 23.098946,25.410365 21.766918,25.403392 20.455797,25.336630 C 20.001268,25.320822 19.659569,25.276746 19.451232,25.030006 C 19.509166,24.663472 19.906887,24.405437 20.261601,24.149073 L 17.796880,24.126368 C 17.404902,24.423457 16.976794,24.727545 16.943188,25.146909 C 17.023389,25.549271 17.482551,25.648951 18.038475,25.689421 C 19.351854,25.762097 20.684966,25.750173 21.974693,25.954596 C 22.635712,26.084019 22.972156,26.239456 22.308892,26.538377 C 21.550721,26.873002 20.778770,27.193450 19.984501,27.486811 C 18.545101,28.021520 17.033225,28.493590 15.748318,29.196002 C 14.795973,29.758660 13.830103,30.358957 13.785797,31.276749 C 13.854018,32.102452 14.434242,32.552430 15.634695,32.756537 C 18.525560,33.268454 21.617543,32.622144 24.536403,32.588378 C 20.361206,32.777222 26.076269,32.256001 26.600639,33.274790 C 25.723939,33.949667 24.038445,33.931907 22.841685,34.168986 C 21.959786,34.254634 19.545840,34.370709 23.434930,34.190655 C 23.890589,34.169559 22.522762,34.223205 22.066580,34.238125 C 20.707116,34.282586 19.345950,34.296985 17.986679,34.345300 C 15.024745,34.485996 11.543849,34.480412 8.7734675,35.289380 C 8.3753345,35.857481 9.3295855,36.287387 9.9451065,36.573065 C 11.839214,37.379816 13.914559,37.969774 16.102050,38.286465 C 17.483384,38.489364 19.242907,38.715527 20.556414,38.577151 L 23.074948,38.366979 z " />
    <g
       id="g4416"
       transform="matrix(-4.430110e-2,0.536099,-0.563606,-4.213900e-2,19.30068,-4.073292)"
       style="opacity:0.49042144">
      <path
         d="M 14.561844,-11.047161 C 14.233125,-11.537790 13.835721,-12.296259 13.485395,-12.819215 C 12.989011,-13.562807 12.518249,-14.072378 12.092578,-14.334421 C 11.980061,-14.387126 11.780293,-14.536140 11.844225,-14.136432 C 12.051559,-13.467598 13.942159,-9.5990203 12.872446,-11.776292 C 13.599595,-10.318247 14.332431,-8.9633673 15.054134,-7.3737633 C 15.321159,-6.6853993 15.806456,-5.8157243 15.945566,-4.9649863 C 15.812177,-4.1607373 14.666350,-6.8203883 14.363740,-7.4360343 C 14.165277,-7.8576483 13.312531,-9.6057573 14.212164,-7.7670823 C 14.290856,-7.6062523 14.054641,-8.0854083 13.975787,-8.2408013 C 13.781188,-8.6242913 13.589909,-8.9748463 13.399394,-9.2514013 C 13.153410,-9.6062003 13.003962,-9.6590443 12.989173,-9.1778563 C 13.006844,-8.5674203 13.226307,-7.7752743 13.433011,-7.0334473 C 13.732238,-6.0046153 14.080303,-5.0334413 14.412690,-4.0505023 C 14.598102,-3.4948753 14.782270,-2.9344823 14.958709,-2.3660853 C 15.129835,-1.7843073 15.040767,-1.6922773 14.861567,-1.9062523 C 14.567367,-2.3076243 14.260782,-2.8836933 13.959009,-3.4103683 C 13.854393,-3.5978933 13.775746,-3.7171803 13.727795,-3.6417833 C 13.741129,-3.3695843 13.832670,-3.0223343 13.914312,-2.6949613 L 13.347022,-3.7542903 C 13.256803,-4.1253483 13.158268,-4.5168723 13.150533,-4.8140563 C 13.168992,-5.0501673 13.274675,-4.9171273 13.402629,-4.7020083 C 13.704921,-4.1783353 14.011756,-3.5890603 14.308605,-3.1644583 C 14.460747,-2.9634473 14.538185,-2.9214763 14.385525,-3.4120493 C 14.211021,-3.9680553 14.033346,-4.5205203 13.850534,-5.0644643 C 13.519236,-6.0522893 13.171256,-7.0295113 12.875517,-8.0629603 C 12.656321,-8.8572573 12.434013,-9.6828073 12.423815,-10.320456 C 12.439517,-10.847003 12.573064,-10.897180 12.849365,-10.511289 C 13.514738,-9.5957483 14.226402,-7.8122073 14.898218,-6.5168283 C 13.937238,-8.4644533 15.252640,-5.6215143 15.373331,-6.0792613 C 15.171546,-6.9161803 14.783606,-7.6390953 14.508155,-8.3206103 C 14.305173,-8.7628223 13.749570,-9.8935113 14.644698,-8.0765523 C 14.749575,-7.8636713 14.434750,-8.4961883 14.329754,-8.7051363 C 14.016854,-9.3278213 13.703562,-9.9309953 13.390707,-10.556191 C 12.708977,-11.942392 11.907800,-13.456309 11.270158,-15.209218 C 11.178522,-15.765543 11.398156,-15.639122 11.539827,-15.563218 C 11.975782,-15.280903 12.453452,-14.773512 12.956933,-14.033121 C 13.274867,-13.567550 13.679846,-12.952763 13.982168,-12.286845 L 14.561844,-11.047161 z "
         id="path4410"
         style="fill:#ffffff;fill-opacity:0.26335874;fill-rule:nonzero;stroke:none;stroke-width:1.0000000px;stroke-linecap:butt;stroke-linejoin:miter;stroke-opacity:1.0000000;display:inline" />
      <path
         d="M 14.156080,-6.3804663 C 13.827362,-6.6476303 13.429958,-7.4156823 13.079631,-7.7006103 C 12.583248,-8.1113533 12.112485,-7.9742143 11.686815,-7.3152513 C 11.574298,-7.0964893 11.374529,-6.8573243 11.438461,-5.9862093 C 11.645795,-4.8502343 13.536395,-0.49571834 12.466683,-2.9283213 C 13.193832,-1.3339003 13.926668,-0.035436340 14.648371,1.9306057 C 14.915396,2.9278307 15.400693,3.7135297 15.539803,5.5578787 C 15.406414,8.1505167 14.260586,4.6632877 13.957977,3.9758827 C 13.759513,3.4770067 12.906768,1.5042877 13.806401,3.5705267 C 13.885092,3.7512627 13.648877,3.2184837 13.570024,3.0529057 C 13.375424,2.6442777 13.184145,2.3136667 12.993631,2.1798167 C 12.747647,2.0131237 12.598199,2.3498917 12.583410,3.6926807 C 12.601081,5.2793727 12.820544,6.7084347 13.027248,8.0429277 C 13.326475,9.8534987 13.674539,11.352307 14.006927,12.933045 C 14.192339,13.834526 14.376507,14.752825 14.552945,15.717451 C 14.724072,16.735117 14.635004,17.268360 14.455803,17.266714 C 14.161604,17.129192 13.855019,16.561071 13.553246,16.110506 C 13.448630,15.941000 13.369983,15.871959 13.322031,16.228631 C 13.335366,16.918666 13.426907,17.560067 13.508549,18.179689 L 12.941259,17.146241 C 12.851040,16.436511 12.752505,15.698337 12.744770,14.923091 C 12.763229,14.228300 12.868912,14.247710 12.996865,14.416694 C 13.299158,14.857518 13.605993,15.460387 13.902841,15.651952 C 14.054984,15.705425 14.132421,15.570204 13.979762,14.738869 C 13.805258,13.801402 13.627583,12.883637 13.444771,12.005271 C 13.113472,10.407895 12.765493,8.8925267 12.469754,7.0583497 C 12.250558,5.6226437 12.028250,4.1127717 12.018052,2.4288707 C 12.033754,0.96104966 12.167301,0.39791266 12.443602,0.55112866 C 13.108975,0.88309766 13.820638,3.4034127 14.492455,4.7372817 C 13.531475,2.5743827 14.846877,6.0114967 14.967567,4.3923647 C 14.765783,2.7861047 14.377843,2.0834367 14.102392,1.1316617 C 13.899410,0.59181166 13.343807,-0.67119934 14.238935,1.3510147 C 14.343812,1.5879457 14.028987,0.89427266 13.923990,0.66831666 C 13.611091,-0.0050513404 13.297799,-0.62463834 12.984944,-1.3049133 C 12.303213,-2.8515023 11.502037,-4.3590533 10.864394,-7.0341603 C 10.772758,-8.2381043 10.992392,-8.6017613 11.134063,-8.8515203 C 11.570019,-9.4888773 12.047688,-9.6540143 12.551170,-9.2746423 C 12.869104,-9.0403713 13.274083,-8.6834003 13.576404,-7.8597403 L 14.156080,-6.3804663 z "
         id="path4412"
         style="fill:#ffffff;fill-opacity:0.26335874;fill-rule:nonzero;stroke:none;stroke-width:1.0000000px;stroke-linecap:butt;stroke-linejoin:miter;stroke-opacity:1.0000000;display:inline" />
      <path
         d="M 14.685496,23.254727 C 14.356778,22.413566 13.959373,21.670125 13.609046,20.773793 C 13.112663,19.508084 12.641900,17.984066 12.216230,16.277310 C 12.103713,15.798770 11.903944,15.040850 11.967876,14.701095 C 12.175210,14.637158 14.065811,17.743476 12.996098,15.966728 C 13.723247,17.210849 14.456083,18.654224 15.177786,19.653338 C 15.444811,19.857216 15.930108,20.858616 16.069218,20.150747 C 15.935829,18.149680 14.790002,16.788192 14.487392,16.285109 C 14.288929,15.984690 13.436184,14.588911 14.335816,16.070621 C 14.414507,16.200227 14.178293,15.805187 14.099439,15.665770 C 13.904839,15.321713 13.713560,14.939873 13.523046,14.439465 C 13.277062,13.789595 13.127614,13.125596 13.112825,12.255255 C 13.130496,11.334309 13.349959,11.127370 13.556663,10.939522 C 13.855890,10.742098 14.203954,10.885610 14.536342,10.930830 C 14.721754,10.943940 14.905922,10.942912 15.082361,10.889776 C 15.253487,10.787802 15.164419,10.187738 14.985218,9.6406947 C 14.691019,8.8254407 14.384434,8.2369007 14.082661,7.5908447 C 13.978045,7.3750527 13.899398,7.1769477 13.851447,6.8111297 C 13.864781,6.4278977 13.956322,6.3137337 14.037964,6.1826787 L 13.470674,5.0827497 C 13.380455,5.2429437 13.281920,5.3951837 13.274185,5.8478997 C 13.292645,6.3312887 13.398327,6.6425737 13.526280,6.9300607 C 13.828573,7.5836927 14.135408,8.1516447 14.432256,8.9417927 C 14.584399,9.3742367 14.661836,9.6941567 14.509177,9.7381107 C 14.334673,9.7804747 14.156998,9.8010307 13.974186,9.7816697 C 13.642888,9.7500047 13.294908,9.6169287 12.999169,9.8395237 C 12.779973,10.051363 12.557665,10.299254 12.547467,11.302788 C 12.563169,12.252753 12.696716,13.007220 12.973017,13.758090 C 13.638390,15.589031 14.350053,16.216852 15.021870,17.451853 C 14.060890,15.841917 15.376292,17.752813 15.496983,19.116849 C 15.295198,19.486735 14.907258,18.732062 14.631807,18.474489 C 14.428826,18.185430 13.873222,17.262305 14.768351,18.757294 C 14.873227,18.932453 14.558402,18.395864 14.453406,18.213594 C 14.140506,17.670415 13.827214,17.092990 13.514359,16.554190 C 12.832628,15.419580 12.031451,13.895675 11.393809,13.589352 C 11.302173,14.048897 11.521808,14.944071 11.663478,15.530817 C 12.099434,17.255753 12.577103,18.818099 13.080585,20.124794 C 13.398519,20.953184 13.803498,21.972392 14.105819,22.390870 L 14.685496,23.254727 z "
         id="path4414"
         style="fill:#ffffff;fill-opacity:0.26335874;fill-rule:nonzero;stroke:none;stroke-width:1.0000000px;stroke-linecap:butt;stroke-linejoin:miter;stroke-opacity:1.0000000;display:inline" />
    </g>
    <path
       style="fill:#ffffff;fill-opacity:0.15267171;fill-rule:nonzero;stroke:none;stroke-width:1.0000000px;stroke-linecap:butt;stroke-linejoin:miter;stroke-opacity:1.0000000;display:inline"
       id="path4404"
       d="M 5.4277405,8.1414551 C 5.0990225,7.7280981 4.7016185,7.0890841 4.3512915,6.6484911 C 3.8549085,6.0220107 3.3841455,5.5926945 2.9584755,5.3719219 C 2.8459585,5.3275175 2.6461895,5.2019728 2.7101215,5.5387289 C 2.9174555,6.1022241 4.8080565,9.3615211 3.7383425,7.5271581 C 4.4654915,8.7555691 5.1983285,9.8970621 5.9200305,11.236312 C 6.1870565,11.816262 6.6723535,12.548968 6.8114625,13.265719 C 6.6780745,13.943303 5.5322465,11.702533 5.2296375,11.183849 C 5.0311735,10.828637 4.1784285,9.3558451 5.0780605,10.904939 C 5.1567525,11.040439 4.9205375,10.636748 4.8416845,10.505828 C 4.6470845,10.182736 4.4558055,9.8873901 4.2652905,9.6543921 C 4.0193075,9.3554721 3.8698585,9.3109501 3.8550705,9.7163531 C 3.8727405,10.230650 4.0922035,10.898037 4.2989085,11.523031 C 4.5981345,12.389826 4.9461995,13.208046 5.2785865,14.036177 C 5.4639985,14.504295 5.6481675,14.976429 5.8246055,15.455306 C 5.9957325,15.945458 5.9066635,16.022993 5.7274635,15.842718 C 5.4332635,15.504560 5.1266785,15.019219 4.8249065,14.575493 C 4.7202895,14.417502 4.6416435,14.317002 4.5936915,14.380524 C 4.6070255,14.609854 4.6985675,14.902413 4.7802095,15.178227 L 4.2129195,14.285737 C 4.1226995,13.973119 4.0241645,13.643257 4.0164295,13.392878 C 4.0348895,13.193954 4.1405725,13.306041 4.2685255,13.487280 C 4.5708185,13.928476 4.8776525,14.424944 5.1745015,14.782673 C 5.3266445,14.952026 5.4040815,14.987387 5.2514215,14.574077 C 5.0769185,14.105638 4.8992425,13.640184 4.7164305,13.181908 C 4.3851325,12.349661 4.0371535,11.526346 3.7414145,10.655661 C 3.5222185,9.9864606 3.2999095,9.2909301 3.2897125,8.7537071 C 3.3054145,8.3100891 3.4389605,8.2678141 3.7152615,8.5929311 C 4.3806355,9.3642781 5.0922985,10.866921 5.7641155,11.958285 C 4.8031345,10.317400 6.1185365,12.712591 6.2392275,12.326937 C 6.0374435,11.621829 5.6495025,11.012769 5.3740515,10.438588 C 5.1710705,10.066023 4.6154665,9.1134111 5.5105955,10.644209 C 5.6154715,10.823562 5.3006475,10.290664 5.1956505,10.114623 C 4.8827505,9.5900071 4.5694595,9.0818301 4.2566045,8.5551001 C 3.5748735,7.3872191 2.7736965,6.1117351 2.1360545,4.6349010 C 2.0444185,4.1661942 2.2640525,4.2727050 2.4057235,4.3366542 C 2.8416795,4.5745060 3.3193485,5.0019858 3.8228305,5.6257690 C 4.1407635,6.0180146 4.5457425,6.5359761 4.8480645,7.0970151 L 5.4277405,8.1414551 z " />
    <path
       style="fill:#ffffff;fill-opacity:0.15267171;fill-rule:nonzero;stroke:none;stroke-width:1.0000000px;stroke-linecap:butt;stroke-linejoin:miter;stroke-opacity:1.0000000;display:inline"
       id="path4406"
       d="M 5.1103655,12.073170 C 4.7816475,11.848083 4.3842435,11.200995 4.0339165,10.960942 C 3.5375335,10.614889 3.0667705,10.730429 2.6411005,11.285609 C 2.5285825,11.469917 2.3288145,11.671415 2.3927465,12.405333 C 2.6000805,13.362398 4.4906805,17.031100 3.4209685,14.981620 C 4.1481165,16.324927 4.8809535,17.418890 5.6026565,19.075291 C 5.8696815,19.915458 6.3549785,20.577413 6.4940885,22.131286 C 6.3606995,24.315597 5.2148715,21.377589 4.9122625,20.798447 C 4.7137985,20.378141 3.8610535,18.716115 4.7606865,20.456932 C 4.8393775,20.609203 4.6031625,20.160334 4.5243085,20.020834 C 4.3297095,19.676562 4.1384305,19.398022 3.9479155,19.285252 C 3.7019315,19.144812 3.5524835,19.428541 3.5376955,20.559848 C 3.5553655,21.896643 3.7748295,23.100636 3.9815335,24.224953 C 4.2807595,25.750368 4.6288245,27.013121 4.9612115,28.344901 C 5.1466235,29.104403 5.3307925,29.878075 5.5072305,30.690777 C 5.6783565,31.548166 5.5892895,31.997426 5.4100885,31.996039 C 5.1158885,31.880177 4.8093045,31.401532 4.5075315,31.021928 C 4.4029145,30.879119 4.3242685,30.820951 4.2763165,31.121449 C 4.2896505,31.702807 4.3811915,32.243191 4.4628345,32.765225 L 3.8955445,31.894541 C 3.8053245,31.296589 3.7067895,30.674674 3.6990555,30.021525 C 3.7175145,29.436160 3.8231975,29.452513 3.9511505,29.594883 C 4.2534435,29.966280 4.5602775,30.474200 4.8571265,30.635594 C 5.0092695,30.680645 5.0867065,30.566721 4.9340475,29.866317 C 4.7595435,29.076496 4.5818675,28.303275 4.3990555,27.563247 C 4.0677575,26.217450 3.7197785,24.940745 3.4240385,23.395441 C 3.2048435,22.185851 2.9825345,20.913776 2.9723365,19.495081 C 2.9880395,18.258434 3.1215855,17.783989 3.3978875,17.913074 C 4.0632595,18.192760 4.7749235,20.316138 5.4467395,21.439929 C 4.4857595,19.617676 5.8011615,22.513462 5.9218525,21.149335 C 5.7200675,19.796053 5.3321285,19.204051 5.0566765,18.402176 C 4.8536955,17.947349 4.2980915,16.883256 5.1932205,18.586982 C 5.2980965,18.786597 4.9832725,18.202174 4.8782755,18.011806 C 4.5653755,17.444490 4.2520845,16.922484 3.9392295,16.349349 C 3.2574985,15.046340 2.4563215,13.776221 1.8186795,11.522429 C 1.7270435,10.508101 1.9466775,10.201718 2.0883485,9.9912936 C 2.5243035,9.4543171 3.0019735,9.3151881 3.5054555,9.6348111 C 3.8233885,9.8321861 4.2283675,10.132937 4.5306895,10.826874 L 5.1103655,12.073170 z " />
    <path
       style="fill:#ffffff;fill-opacity:0.15267171;fill-rule:nonzero;stroke:none;stroke-width:1.0000000px;stroke-linecap:butt;stroke-linejoin:miter;stroke-opacity:1.0000000;display:inline"
       id="path4408"
       d="M 5.5513925,37.040971 C 5.2226745,36.332288 4.8252695,35.705936 4.4749435,34.950772 C 3.9785605,33.884405 3.5077975,32.600412 3.0821265,31.162461 C 2.9696095,30.759289 2.7698405,30.120737 2.8337735,29.834493 C 3.0411075,29.780625 4.9317075,32.397714 3.8619945,30.900794 C 4.5891435,31.948973 5.3219795,33.165024 6.0436825,34.006782 C 6.3107085,34.178550 6.7960045,35.022235 6.9351145,34.425852 C 6.8017265,32.739942 5.6558985,31.592882 5.3532895,31.169033 C 5.1548255,30.915927 4.3020805,29.739976 5.2017125,30.988325 C 5.2804045,31.097518 5.0441895,30.764696 4.9653365,30.647236 C 4.7707365,30.357366 4.5794575,30.035663 4.3889435,29.614068 C 4.1429585,29.066548 3.9935105,28.507126 3.9787215,27.773860 C 3.9963925,26.997958 4.2158555,26.823611 4.4225605,26.665348 C 4.7217865,26.499018 5.0698515,26.619927 5.4022385,26.658025 C 5.5876515,26.669070 5.7718195,26.668204 5.9482575,26.623437 C 6.1193845,26.537523 6.0303155,26.031966 5.8511155,25.571080 C 5.5569165,24.884224 5.2503305,24.388376 4.9485585,23.844071 C 4.8439425,23.662265 4.7652955,23.495360 4.7173435,23.187156 C 4.7306775,22.864282 4.8222185,22.768098 4.9038615,22.657684 L 4.3365705,21.730988 C 4.2463515,21.865952 4.1478165,21.994215 4.1400815,22.375630 C 4.1585415,22.782888 4.2642235,23.045148 4.3921775,23.287357 C 4.6944695,23.838045 5.0013045,24.316547 5.2981535,24.982251 C 5.4502955,25.346587 5.5277335,25.616122 5.3750735,25.653153 C 5.2005705,25.688845 5.0228945,25.706163 4.8400825,25.689852 C 4.5087845,25.663174 4.1608055,25.551056 3.8650655,25.738594 C 3.6458705,25.917070 3.4235615,26.125918 3.4133645,26.971401 C 3.4290655,27.771752 3.5626125,28.407394 3.8389135,29.040005 C 4.5042875,30.582582 5.2159505,31.111525 5.8877665,32.152020 C 4.9267865,30.795641 6.2421885,32.405580 6.3628795,33.554787 C 6.1610945,33.866418 5.7731545,33.230602 5.4977035,33.013596 C 5.2947225,32.770062 4.7391185,31.992324 5.6342475,33.251860 C 5.7391235,33.399433 5.4242995,32.947354 5.3193025,32.793791 C 5.0064025,32.336159 4.6931115,31.849676 4.3802555,31.395734 C 3.6985255,30.439819 2.8973485,29.155922 2.2597065,28.897843 C 2.1680705,29.285012 2.3877045,30.039201 2.5293755,30.533537 C 2.9653305,31.986805 3.4430005,33.303089 3.9464815,34.403986 C 4.2644155,35.101909 4.6693945,35.960596 4.9717165,36.313167 L 5.5513925,37.040971 z " />
    <path
       style="opacity:1.0000000;fill:none;fill-opacity:0.75000000;fill-rule:evenodd;stroke:#7f7f7f;stroke-width:0.45894039;stroke-linecap:butt;stroke-linejoin:round;stroke-miterlimit:4.0000000;stroke-dasharray:none;stroke-opacity:1.0000000"
       d="M 1.4391595,0.70010058 C 0.22381984,8.6867531 1.6380335,27.303663 1.2623829,37.710515 M 7.3611785,42.327508 C 6.8971405,34.415322 8.3113535,15.798414 7.3611785,5.6149642"
       id="path4445"
       sodipodi:nodetypes="cccc" />
    <rect
       style="opacity:1.0000000;fill:url(#radialGradient2177);fill-opacity:1.0000000;stroke:none;stroke-width:1.3323350;stroke-linejoin:round;stroke-miterlimit:4.0000000;stroke-dasharray:none;stroke-opacity:1.0000000;display:inline"
       id="rect4354"
       width="7.7064681"
       height="37.027203"
       x="32.171562"
       y="-18.364578"
       transform="matrix(0.803170,0.595749,0.000000,1.000000,0.000000,0.000000)" />
    <rect
       style="opacity:1.0000000;fill:url(#radialGradient2129);fill-opacity:1.0000000;stroke:none;stroke-width:1.5066277;stroke-linejoin:round;stroke-miterlimit:4.0000000;stroke-dasharray:none;stroke-opacity:1.0000000;display:inline"
       id="rect4364"
       width="7.5474019"
       height="24.621414"
       x="-8.6742382"
       y="-24.956043"
       transform="matrix(-0.800913,-0.598781,-1.000000,0.000000,0.000000,0.000000)" />
    <path
       style="opacity:1.0000000;fill:none;fill-opacity:0.75000000;fill-rule:evenodd;stroke:#7f7f7f;stroke-width:0.45894039;stroke-linecap:round;stroke-linejoin:round;stroke-miterlimit:4.0000000;stroke-dasharray:none;stroke-opacity:1.0000000"
       d="M 1.4391595,0.99797105 C 3.6039835,-0.012286720 23.536247,0.77456828 25.922732,0.92350345 C 27.602111,2.4873237 30.695704,3.7532734 31.756364,5.3170937 C 23.182694,4.8702880 11.817548,5.2837270 7.1844025,5.6894319 C 5.6803875,4.3501792 2.8533735,2.1894532 1.4391595,0.99797105 z "
       id="path4441"
       sodipodi:nodetypes="ccccc" />
    <path
       style="fill:none;fill-opacity:0.75000000;fill-rule:evenodd;stroke:#7f7f7f;stroke-width:0.45894039;stroke-linecap:round;stroke-linejoin:round;stroke-miterlimit:4.0000000;stroke-dasharray:none;stroke-opacity:1.0000000"
       d="M 1.2069266,37.663792 C 2.7095285,38.818040 4.4772955,39.972289 7.2173345,42.280786 C 20.740752,41.908448 23.635470,43.044079 31.966072,42.429721 C 32.430111,31.762232 32.157364,20.114437 31.825908,5.3139937"
       id="path4447"
       sodipodi:nodetypes="cccc" />
  </g>
</svg>
