<?xml version="1.0" encoding="UTF-8" standalone="no"?>
<!-- Created with Inkscape (http://www.inkscape.org/) -->
<svg
   xmlns:dc="http://purl.org/dc/elements/1.1/"
   xmlns:cc="http://web.resource.org/cc/"
   xmlns:rdf="http://www.w3.org/1999/02/22-rdf-syntax-ns#"
   xmlns:svg="http://www.w3.org/2000/svg"
   xmlns="http://www.w3.org/2000/svg"
   xmlns:xlink="http://www.w3.org/1999/xlink"
   xmlns:sodipodi="http://inkscape.sourceforge.net/DTD/sodipodi-0.dtd"
   xmlns:inkscape="http://www.inkscape.org/namespaces/inkscape"
   width="30.000000px"
   height="40.000000px"
   id="svg1"
   sodipodi:version="0.32"
   inkscape:version="0.43"
   sodipodi:docbase="/home/yekcim/Desktop/SVG/Skins/tuxteam"
   sodipodi:docname="jump.svg"
   inkscape:export-filename="/home/yekcim/Desktop/jump2.png"
   inkscape:export-xdpi="90.000000"
   inkscape:export-ydpi="90.000000"
   inkscape:output_extension="org.inkscape.output.svg.inkscape">
  <defs
     id="defs3">
    <linearGradient
       inkscape:collect="always"
       id="linearGradient30543">
      <stop
         style="stop-color:#d5a100;stop-opacity:1;"
         offset="0"
         id="stop30545" />
      <stop
         style="stop-color:#d5a100;stop-opacity:0;"
         offset="1"
         id="stop30547" />
    </linearGradient>
    <linearGradient
       inkscape:collect="always"
       id="linearGradient29775">
      <stop
         style="stop-color:#c18d00;stop-opacity:1;"
         offset="0"
         id="stop29777" />
      <stop
         style="stop-color:#c18d00;stop-opacity:0;"
         offset="1"
         id="stop29779" />
    </linearGradient>
    <linearGradient
       inkscape:collect="always"
       id="linearGradient29767">
      <stop
         style="stop-color:#c1b800;stop-opacity:1;"
         offset="0"
         id="stop29769" />
      <stop
         style="stop-color:#c1b800;stop-opacity:0;"
         offset="1"
         id="stop29771" />
    </linearGradient>
    <defs
       id="defs1062">
      <linearGradient
         inkscape:collect="always"
         id="linearGradient10630">
        <stop
           style="stop-color:#616161;stop-opacity:1;"
           offset="0"
           id="stop10631" />
        <stop
           style="stop-color:#616161;stop-opacity:0;"
           offset="1"
           id="stop10632" />
      </linearGradient>
      <linearGradient
         inkscape:collect="always"
         id="linearGradient10560">
        <stop
           style="stop-color:#000000;stop-opacity:1;"
           offset="0"
           id="stop10561" />
        <stop
           style="stop-color:#000000;stop-opacity:0;"
           offset="1"
           id="stop10562" />
      </linearGradient>
      <linearGradient
         inkscape:collect="always"
         id="linearGradient15046">
        <stop
           style="stop-color:#dadada;stop-opacity:1;"
           offset="0"
           id="stop15047" />
        <stop
           style="stop-color:#dadada;stop-opacity:0;"
           offset="1"
           id="stop15048" />
      </linearGradient>
      <linearGradient
         id="linearGradient13777">
        <stop
           offset="0.0000000"
           style="stop-color:#d17d00;stop-opacity:1.0000000;"
           id="stop13779" />
        <stop
           offset="1.0000000"
           style="stop-color:#a7b135;stop-opacity:0.0000000;"
           id="stop13778" />
      </linearGradient>
      <linearGradient
         id="linearGradient11847">
        <stop
           offset="0.0000000"
           style="stop-color:#000000;stop-opacity:1.0000000;"
           id="stop11849" />
        <stop
           offset="1.0000000"
           style="stop-color:#000000;stop-opacity:0.0000000;"
           id="stop11848" />
      </linearGradient>
      <linearGradient
         id="linearGradient6187">
        <stop
           style="stop-color:#2e1b0b;stop-opacity:1.0000000;"
           offset="0.0000000"
           id="stop6188" />
        <stop
           style="stop-color:#431e00;stop-opacity:0;"
           offset="1"
           id="stop6189" />
      </linearGradient>
      <linearGradient
         inkscape:collect="always"
         id="linearGradient4909">
        <stop
           style="stop-color:#000000;stop-opacity:1;"
           offset="0"
           id="stop4910" />
        <stop
           style="stop-color:#000000;stop-opacity:0;"
           offset="1"
           id="stop4911" />
      </linearGradient>
      <linearGradient
         id="linearGradient1780">
        <stop
           style="stop-color:#454545;stop-opacity:1.0000000;"
           offset="0.0000000"
           id="stop1781" />
        <stop
           style="stop-color:#ffffff;stop-opacity:0;"
           offset="1"
           id="stop1782" />
      </linearGradient>
      <linearGradient
         id="linearGradient3869">
        <stop
           offset="0.0000000"
           style="stop-color:#d2dd2e;stop-opacity:1.0000000;"
           id="stop3872" />
        <stop
           offset="0.76146787"
           style="stop-color:#b3b96d;stop-opacity:0.65555555;"
           id="stop3871" />
        <stop
           offset="1.0000000"
           style="stop-color:#b1b952;stop-opacity:0.0000000;"
           id="stop3870" />
      </linearGradient>
      <linearGradient
         inkscape:collect="always"
         xlink:href="#linearGradient9217"
         id="linearGradient3799"
         gradientUnits="userSpaceOnUse"
         gradientTransform="matrix(0.112563,0.000000,0.000000,0.115364,26.43402,157.1761)"
         x1="4373.3052"
         y1="319.33466"
         x2="96.982727"
         y2="2708.2139" />
      <linearGradient
         inkscape:collect="always"
         xlink:href="#linearGradient7337"
         id="linearGradient3800"
         gradientUnits="userSpaceOnUse"
         gradientTransform="matrix(0.230667,0.000000,0.000000,7.644947e-2,26.55186,129.5549)"
         x1="862.16510"
         y1="2479.5938"
         x2="1523.3719"
         y2="2479.5938" />
      <linearGradient
         inkscape:collect="always"
         xlink:href="#linearGradient5442"
         id="linearGradient3801"
         gradientUnits="userSpaceOnUse"
         gradientTransform="matrix(0.162855,0.000000,0.000000,7.648058e-2,75.52973,161.8049)"
         x1="580.22791"
         y1="2173.3171"
         x2="1782.0374"
         y2="1630.2036" />
      <radialGradient
         inkscape:collect="always"
         xlink:href="#linearGradient5442"
         id="radialGradient3802"
         gradientUnits="userSpaceOnUse"
         gradientTransform="matrix(0.159978,0.000000,0.000000,7.785591e-2,363.0923,173.8583)"
         cx="-606.79681"
         cy="1573.4399"
         fx="-606.79681"
         fy="1573.4399"
         r="739.70477" />
      <linearGradient
         inkscape:collect="always"
         xlink:href="#linearGradient21707"
         id="linearGradient3803"
         gradientUnits="userSpaceOnUse"
         gradientTransform="scale(0.659854,1.515487)"
         x1="4848.5972"
         y1="3945.1116"
         x2="5625.4653"
         y2="1720.9402" />
      <linearGradient
         inkscape:collect="always"
         xlink:href="#linearGradient7337"
         id="linearGradient3804"
         gradientUnits="userSpaceOnUse"
         gradientTransform="matrix(0.236634,0.000000,0.000000,0.208284,-2451.443,4783.687)"
         x1="-7797.7422"
         y1="5021.4731"
         x2="-352.84012"
         y2="1184.9034" />
      <linearGradient
         inkscape:collect="always"
         xlink:href="#linearGradient7337"
         id="linearGradient3805"
         gradientUnits="userSpaceOnUse"
         gradientTransform="matrix(0.236634,0.000000,0.000000,0.208284,-2451.443,4783.687)"
         x1="-7797.7422"
         y1="5021.4731"
         x2="-352.84012"
         y2="1184.9034" />
      <defs
         id="defs3745">
        <linearGradient
           id="linearGradient22333"
           x1="0.0000000"
           y1="0.50000000"
           x2="1.0000000"
           y2="0.50000000"
           gradientUnits="objectBoundingBox"
           spreadMethod="pad"
           xlink:href="#linearGradient13777" />
        <linearGradient
           id="linearGradient21707">
          <stop
             style="stop-color:#ffffff;stop-opacity:1.0000000;"
             offset="0.0000000"
             id="stop21708" />
          <stop
             style="stop-color:#a7b135;stop-opacity:0;"
             offset="1"
             id="stop21709" />
        </linearGradient>
        <linearGradient
           inkscape:collect="always"
           id="linearGradient9217"
           x1="0.0000000"
           y1="0.50000000"
           x2="1.0000000"
           y2="0.50000000"
           gradientUnits="objectBoundingBox"
           spreadMethod="pad"
           xlink:href="#linearGradient11847" />
        <linearGradient
           id="linearGradient8584">
          <stop
             style="stop-color:#000000;stop-opacity:1.0000000;"
             offset="0.0000000"
             id="stop8585" />
          <stop
             style="stop-color:#cece4c;stop-opacity:0;"
             offset="1"
             id="stop8586" />
        </linearGradient>
        <linearGradient
           id="linearGradient7337">
          <stop
             style="stop-color:#b1b12f;stop-opacity:1.0000000;"
             offset="0.0000000"
             id="stop7338" />
          <stop
             style="stop-color:#cece4c;stop-opacity:0;"
             offset="1"
             id="stop7339" />
        </linearGradient>
        <linearGradient
           id="linearGradient5442"
           x1="0.0000000"
           y1="0.50000000"
           x2="1.0000000"
           y2="0.50000000"
           gradientUnits="objectBoundingBox"
           spreadMethod="pad"
           xlink:href="#linearGradient3869" />
      </defs>
      <sodipodi:namedview
         id="namedview3772"
         pagecolor="#ffffff"
         bordercolor="#666666"
         borderopacity="1.0"
         inkscape:pageopacity="0.0"
         inkscape:pageshadow="2"
         inkscape:zoom="0.80057989"
         inkscape:cx="297.63780"
         inkscape:cy="420.94487"
         inkscape:current-layer="layer1"
         inkscape:window-width="1440"
         inkscape:window-height="851"
         inkscape:window-x="0"
         inkscape:window-y="27"
         showguides="true"
         inkscape:guide-bbox="true" />
      <metadata
         id="metadata3773">
        <rdf:RDF>
          <cc:Work
             rdf:about="">
            <dc:format>image/svg+xml</dc:format>
            <dc:type
               rdf:resource="http://purl.org/dc/dcmitype/StillImage" />
          </cc:Work>
        </rdf:RDF>
      </metadata>
      <linearGradient
         inkscape:collect="always"
         xlink:href="#linearGradient4909"
         id="linearGradient6167"
         gradientUnits="userSpaceOnUse"
         gradientTransform="scale(0.891889,1.121216)"
         x1="-148.77991"
         y1="106.31860"
         x2="-160.14931"
         y2="-66.932083" />
      <linearGradient
         inkscape:collect="always"
         xlink:href="#linearGradient10560"
         id="linearGradient10563"
         gradientTransform="matrix(0.915477,0.127968,-0.149762,1.071392,19.54851,-8.453410)"
         x1="698.54480"
         y1="69.852913"
         x2="758.31232"
         y2="359.09653"
         gradientUnits="userSpaceOnUse" />
      <linearGradient
         inkscape:collect="always"
         xlink:href="#linearGradient10560"
         id="linearGradient10578"
         gradientUnits="userSpaceOnUse"
         gradientTransform="matrix(0.915477,0.127968,-0.149762,1.071392,0.000000,0.000000)"
         x1="647.37115"
         y1="96.894905"
         x2="770.59186"
         y2="342.74301" />
      <linearGradient
         inkscape:collect="always"
         xlink:href="#linearGradient4909"
         id="linearGradient10604"
         gradientUnits="userSpaceOnUse"
         gradientTransform="scale(0.891889,1.121216)"
         x1="-148.77991"
         y1="106.31860"
         x2="-160.14931"
         y2="-66.932083" />
      <linearGradient
         inkscape:collect="always"
         xlink:href="#linearGradient10630"
         id="linearGradient10633"
         gradientTransform="scale(0.883732,1.131565)"
         x1="-164.59187"
         y1="105.15539"
         x2="-154.14560"
         y2="3.6783011"
         gradientUnits="userSpaceOnUse" />
      <linearGradient
         inkscape:collect="always"
         xlink:href="#linearGradient10630"
         id="linearGradient10647"
         gradientUnits="userSpaceOnUse"
         gradientTransform="scale(0.883732,1.131565)"
         x1="-164.59187"
         y1="105.15539"
         x2="-154.14560"
         y2="3.6783011" />
      <radialGradient
         inkscape:collect="always"
         xlink:href="#linearGradient1780"
         id="radialGradient5568"
         gradientUnits="userSpaceOnUse"
         gradientTransform="matrix(-0.663014,1.058409,1.330757,0.590372,-891.7907,666.4254)"
         cx="-446.72464"
         cy="218.60974"
         fx="-446.72464"
         fy="218.60974"
         r="308.80975" />
      <linearGradient
         inkscape:collect="always"
         xlink:href="#linearGradient10630"
         id="linearGradient4391"
         gradientUnits="userSpaceOnUse"
         gradientTransform="matrix(0.437171,-0.479724,0.614848,0.557530,723.0732,-61.92042)"
         x1="-164.59187"
         y1="105.15539"
         x2="-154.14560"
         y2="3.6783011" />
    </defs>
    <linearGradient
       inkscape:collect="always"
       xlink:href="#linearGradient15046"
       id="linearGradient7549"
       gradientUnits="userSpaceOnUse"
       gradientTransform="matrix(-7.748807e-2,-6.655516e-18,-9.843915e-18,0.114610,-17.75474,-4.001667)"
       x1="441.72971"
       y1="303.18546"
       x2="428.48846"
       y2="198.18111" />
    <linearGradient
       inkscape:collect="always"
       xlink:href="#linearGradient15046"
       id="linearGradient7551"
       gradientUnits="userSpaceOnUse"
       gradientTransform="matrix(-7.748807e-2,-6.655516e-18,-9.843915e-18,0.114610,-17.47433,-4.177225)"
       x1="393.50977"
       y1="308.61905"
       x2="509.58563"
       y2="239.1801" />
    <linearGradient
       inkscape:collect="always"
       xlink:href="#linearGradient29767"
       id="linearGradient7553"
       gradientUnits="userSpaceOnUse"
       x1="469.22879"
       y1="195.66983"
       x2="466.85336"
       y2="190.31827" />
    <linearGradient
       inkscape:collect="always"
       xlink:href="#linearGradient29775"
       id="linearGradient7555"
       gradientUnits="userSpaceOnUse"
       x1="452.24230"
       y1="191.61978"
       x2="477.79759"
       y2="191.61978" />
    <linearGradient
       inkscape:collect="always"
       xlink:href="#linearGradient30543"
       id="linearGradient7599"
       gradientUnits="userSpaceOnUse"
       gradientTransform="matrix(0.796850,-9.996640e-2,0.107573,0.857480,57.47947,52.25634)"
       x1="445.31965"
       y1="185.40658"
       x2="483.65149"
       y2="185.40658" />
    <linearGradient
       inkscape:collect="always"
       xlink:href="#linearGradient30543"
       id="linearGradient7603"
       gradientUnits="userSpaceOnUse"
       gradientTransform="matrix(-0.269316,0.157879,-0.278019,-0.225387,201.1239,2.027371)"
       x1="445.31965"
       y1="185.40658"
       x2="483.65149"
       y2="185.40658" />
  </defs>
  <sodipodi:namedview
     id="base"
     pagecolor="#ffffff"
     bordercolor="#666666"
     borderopacity="1.0"
     inkscape:pageopacity="0.0"
     inkscape:pageshadow="2"
     inkscape:zoom="11.010663"
     inkscape:cx="34.201413"
     inkscape:cy="19.796674"
     inkscape:current-layer="g1160"
     inkscape:window-width="1440"
     inkscape:window-height="826"
     inkscape:window-x="0"
     inkscape:window-y="26" />
  <metadata
     id="metadata4">
    <rdf:RDF>
      <cc:Work
         rdf:about="">
        <dc:format>image/svg+xml</dc:format>
        <dc:type
           rdf:resource="http://purl.org/dc/dcmitype/StillImage" />
      </cc:Work>
    </rdf:RDF>
  </metadata>
  <g
     id="g1160"
     inkscape:groupmode="layer"
     inkscape:label="Layer 1"
     style="display:inline">
    <g
       id="g8332">
      <g
         transform="matrix(-0.800240,0.000000,0.000000,0.800240,372.6259,-77.80494)"
         id="g29199"
         inkscape:label="Layer 1" />
      <g
         transform="matrix(-0.800240,0.000000,0.000000,0.800240,1530.027,255.1263)"
         inkscape:label="Layer 1"
         id="g29315" />
      <g
         transform="matrix(-0.800240,0.000000,0.000000,0.800240,2197.244,222.6400)"
         id="g29317"
         inkscape:label="Layer 1" />
      <g
         transform="matrix(-0.757324,0,0,0.76036,343.2353,-58.62023)"
         id="g3589"
         inkscape:label="Layer 1" />
      <g
         transform="matrix(-0.757324,0,0,0.76036,1438.565,257.7193)"
         inkscape:label="Layer 1"
         id="g3591" />
      <g
         transform="matrix(-0.757324,0,0,0.76036,2070.001,226.852)"
         id="g3593"
         inkscape:label="Layer 1" />
      <g
         transform="matrix(-0.751547,-0.274884,-0.274884,0.751547,330.9319,56.56445)"
         id="g5042"
         inkscape:label="Layer 1" />
      <g
         transform="matrix(-0.751547,-0.274884,-0.274884,0.751547,1303.546,766.8065)"
         inkscape:label="Layer 1"
         id="g5044" />
      <g
         transform="matrix(-0.751547,-0.274884,-0.274884,0.751547,1941.323,965.4869)"
         id="g5046"
         inkscape:label="Layer 1" />
      <g
         transform="matrix(-0.711242,-0.260142,-0.261185,0.714093,296.7397,64.48611)"
         id="g5048"
         inkscape:label="Layer 1" />
      <g
         transform="matrix(-0.711242,-0.260142,-0.261185,0.714093,1216.758,737.8243)"
         inkscape:label="Layer 1"
         id="g5050" />
      <g
         transform="matrix(-0.711242,-0.260142,-0.261185,0.714093,1820.376,925.7345)"
         id="g5052"
         inkscape:label="Layer 1" />
      <g
         transform="matrix(-0.751547,-0.274884,-0.274884,0.751547,447.6356,79.67506)"
         id="g11475"
         inkscape:label="Layer 1" />
      <g
         transform="matrix(-0.751547,-0.274884,-0.274884,0.751547,1420.249,789.9171)"
         inkscape:label="Layer 1"
         id="g11477" />
      <g
         transform="matrix(-0.751547,-0.274884,-0.274884,0.751547,2058.026,988.5975)"
         id="g11479"
         inkscape:label="Layer 1" />
      <g
         transform="matrix(-0.711242,-0.260142,-0.261185,0.714093,413.4434,87.59672)"
         id="g11481"
         inkscape:label="Layer 1" />
      <g
         transform="matrix(-0.711242,-0.260142,-0.261185,0.714093,1333.461,760.9349)"
         inkscape:label="Layer 1"
         id="g11483" />
      <g
         transform="matrix(-0.711242,-0.260142,-0.261185,0.714093,1937.079,948.8451)"
         id="g11485"
         inkscape:label="Layer 1" />
      <g
         transform="matrix(-0.751547,-0.274884,-0.274884,0.751547,498.0417,80.58874)"
         id="g7970"
         inkscape:label="Layer 1" />
      <g
         transform="matrix(-0.751547,-0.274884,-0.274884,0.751547,1470.655,790.8308)"
         inkscape:label="Layer 1"
         id="g7972" />
      <g
         transform="matrix(-0.751547,-0.274884,-0.274884,0.751547,2108.432,989.5112)"
         id="g7974"
         inkscape:label="Layer 1" />
      <g
         transform="matrix(-0.711242,-0.260142,-0.261185,0.714093,463.8495,88.51040)"
         id="g7976"
         inkscape:label="Layer 1" />
      <g
         transform="matrix(-0.711242,-0.260142,-0.261185,0.714093,1383.867,761.8486)"
         inkscape:label="Layer 1"
         id="g7978" />
      <g
         transform="matrix(-0.711242,-0.260142,-0.261185,0.714093,1987.485,949.7588)"
         id="g7980"
         inkscape:label="Layer 1" />
      <g
         transform="matrix(-0.751547,-0.274884,-0.274884,0.751547,400.3623,55.68783)"
         id="g7299"
         inkscape:label="Layer 1" />
      <g
         transform="matrix(-0.751547,-0.274884,-0.274884,0.751547,1372.976,765.9299)"
         inkscape:label="Layer 1"
         id="g7301" />
      <g
         transform="matrix(-0.751547,-0.274884,-0.274884,0.751547,2010.753,964.6103)"
         id="g7303"
         inkscape:label="Layer 1" />
      <g
         transform="matrix(-0.711242,-0.260142,-0.261185,0.714093,366.1701,63.60949)"
         id="g7305"
         inkscape:label="Layer 1" />
      <g
         transform="matrix(-0.711242,-0.260142,-0.261185,0.714093,1286.188,736.9477)"
         inkscape:label="Layer 1"
         id="g7307" />
      <g
         transform="matrix(-0.711242,-0.260142,-0.261185,0.714093,1889.806,924.8579)"
         id="g7309"
         inkscape:label="Layer 1" />
      <g
         transform="matrix(-0.391434,-6.065570e-2,-7.581565e-2,0.369051,203.2702,3.492185)"
         id="g31394"
         style="display:inline">
        <path
           style="fill:#232323;fill-opacity:1.0000000;fill-rule:evenodd;stroke:none;stroke-width:2.3750000;stroke-linecap:butt;stroke-linejoin:miter;stroke-miterlimit:4.0000000;stroke-dasharray:none;stroke-opacity:1.0000000;display:inline"
           d="M 464.51208,106.88987 C 450.17930,113.23992 400.38951,139.91106 425.42765,138.09586 C 450.46580,136.28067 472.19471,120.92575 472.19471,120.92575"
           id="path31396"
           sodipodi:nodetypes="csc" />
        <path
           style="fill:none;fill-opacity:0.75000000;fill-rule:evenodd;stroke:#000000;stroke-width:2.6808977;stroke-linecap:butt;stroke-linejoin:miter;stroke-miterlimit:4.0000000;stroke-dasharray:none;stroke-opacity:1.0000000;display:inline"
           d="M 465.75543,106.35680 C 452.04469,110.47785 400.80346,139.58534 425.84160,137.77014 C 450.87975,135.95496 472.60867,120.60004 472.60867,120.60004"
           id="path31398"
           sodipodi:nodetypes="csc" />
      </g>
      <path
         sodipodi:nodetypes="czsccscc"
         id="path3596"
         d="M 15.193319,13.501950 C 16.222566,11.321544 18.154445,4.4287318 16.949801,2.8534697 C 15.688952,1.2047102 12.383266,-1.3111464 8.0841043,3.5228639 C 2.6116077,9.6761800 2.6835482,35.752004 12.987118,34.678743 C 25.839496,34.262500 23.651901,22.320625 18.086901,20.624098 C 18.086901,20.624098 14.164073,15.682354 15.193319,13.501950 z M 18.027045,20.595861 C 16.762274,20.234890 15.361083,20.570893 13.844737,21.351503"
         style="fill:#232323;fill-opacity:1.0000000;fill-rule:evenodd;stroke:none;stroke-width:0.92659229;stroke-linecap:butt;stroke-linejoin:miter;stroke-miterlimit:4.0000000;stroke-dasharray:none;stroke-opacity:1.0000000;display:inline" />
      <g
         transform="matrix(0.999701,-2.443130e-2,2.443130e-2,0.999701,68.64318,-6.163060)"
         id="g9364">
        <path
           style="fill:url(#linearGradient7549);fill-opacity:1.0000000;fill-rule:evenodd;stroke:none;stroke-width:0.25000000pt;stroke-linecap:butt;stroke-linejoin:miter;stroke-opacity:1.0000000"
           d="M -47.317294,34.658965 C -48.460093,38.068498 -51.263652,38.967630 -53.583519,38.933594 C -55.959999,38.899558 -58.392287,38.460213 -59.030514,34.499396 C -59.667370,30.547085 -57.297248,25.893828 -56.246561,18.759481 C -55.615627,17.459542 -54.331246,17.220448 -54.416914,18.644089 C -54.562306,20.294463 -53.430005,22.444486 -52.350948,23.827570 C -51.983599,24.408984 -51.844408,24.871005 -50.736197,25.728647 C -47.807183,27.337879 -46.174496,31.249427 -47.317294,34.658965 z "
           id="path4459"
           sodipodi:nodetypes="czzccccz" />
        <path
           style="fill:url(#linearGradient7551);fill-opacity:1.0000000;fill-rule:evenodd;stroke:none;stroke-width:0.25000000pt;stroke-linecap:butt;stroke-linejoin:miter;stroke-opacity:1.0000000;display:inline"
           d="M -47.036890,34.483407 C -48.179689,37.892940 -50.983248,38.792072 -53.303115,38.758036 C -55.679595,38.724000 -58.111883,38.284655 -58.750110,34.323838 C -59.386966,30.371527 -57.016844,25.718270 -55.966157,18.583923 C -55.335223,17.283984 -54.050842,17.044890 -54.136510,18.468531 C -54.281902,20.118905 -53.149601,22.268928 -52.070544,23.652012 C -51.703195,24.233426 -51.564004,24.695447 -50.455793,25.553089 C -47.526779,27.162321 -45.894092,31.073869 -47.036890,34.483407 z "
           id="path8487"
           sodipodi:nodetypes="czzccccz" />
      </g>
      <path
         sodipodi:nodetypes="cs"
         id="path6347"
         d="M 12.892407,13.597197 C 13.374502,20.579232 5.4599363,33.882520 16.228447,34.242283"
         style="fill:none;fill-opacity:0.75000000;fill-rule:evenodd;stroke:#000000;stroke-width:0.87900001;stroke-linecap:butt;stroke-linejoin:miter;stroke-miterlimit:4.0000000;stroke-dasharray:none;stroke-opacity:1.0000000" />
      <path
         sodipodi:nodetypes="cscsccscc"
         id="path3594"
         d="M 16.827444,2.9824725 C 16.702131,2.7712302 15.257434,0.45326630 12.660562,0.73788472 C 12.621201,0.74219862 12.582179,0.73523682 12.542302,0.74077472 C 11.306089,0.91245802 9.8209469,1.6917738 8.0841043,3.5228639 C 2.4177558,9.4966915 2.6835482,35.752004 12.987118,34.678743 C 25.839496,34.262500 23.651901,22.320625 18.086901,20.624098 C 18.086901,20.624098 13.952963,15.603505 14.982210,13.423101 M 18.027045,20.595861 C 16.762274,20.234890 15.361083,20.570893 13.844737,21.351503"
         style="fill:none;fill-opacity:1.0000000;fill-rule:evenodd;stroke:#000000;stroke-width:0.87900001;stroke-linecap:butt;stroke-linejoin:miter;stroke-miterlimit:4.0000000;stroke-dasharray:none;stroke-opacity:1.0000000;display:inline" />
      <path
         id="path3604"
         d="M 19.708457,28.268800 C 21.337897,28.271476 19.666226,27.216966 19.941773,28.456921 C 18.843749,28.890465 18.900776,28.584914 19.745420,28.952046 L 18.468437,28.470077 C 19.534639,29.096883 20.181026,29.850091 21.177042,29.075930 C 21.241726,27.846466 19.421378,26.915606 18.427270,27.676420 L 19.708457,28.268800 z "
         style="fill:#000000;fill-opacity:1.0000000;fill-rule:nonzero;stroke:none;stroke-width:1.0000000pt;stroke-linecap:butt;stroke-linejoin:miter;stroke-opacity:1.0000000;display:inline" />
      <g
         transform="matrix(-4.071569e-2,-0.385407,-0.385310,1.368244e-2,71.24083,195.8392)"
         id="g31382">
        <g
           id="g31400">
          <path
             sodipodi:nodetypes="csc"
             id="path31364"
             d="M 464.51208,106.88987 C 450.17930,113.23992 400.38951,139.91106 425.42765,138.09586 C 450.46580,136.28067 472.19471,120.92575 472.19471,120.92575"
             style="fill:#232323;fill-opacity:1.0000000;fill-rule:evenodd;stroke:none;stroke-width:2.3750000;stroke-linecap:butt;stroke-linejoin:miter;stroke-miterlimit:4.0000000;stroke-dasharray:none;stroke-opacity:1.0000000;display:inline" />
          <path
             sodipodi:nodetypes="csc"
             id="path31366"
             d="M 465.75543,106.35680 C 452.04469,110.47785 400.80346,139.58534 425.84160,137.77014 C 450.87975,135.95496 472.60867,120.60004 472.60867,120.60004"
             style="fill:none;fill-opacity:0.75000000;fill-rule:evenodd;stroke:#000000;stroke-width:2.6808977;stroke-linecap:butt;stroke-linejoin:miter;stroke-miterlimit:4.0000000;stroke-dasharray:none;stroke-opacity:1.0000000;display:inline" />
        </g>
      </g>
      <g
         transform="matrix(-0.393412,-7.137083e-2,-6.654594e-2,0.366813,212.9980,-26.49652)"
         id="g29783">
        <path
           style="opacity:1.0000000;fill:#ffdd19;fill-opacity:1.0000000;fill-rule:evenodd;stroke:none;stroke-width:1.7480000;stroke-linecap:butt;stroke-linejoin:miter;stroke-miterlimit:4.0000000;stroke-dasharray:none;stroke-opacity:1.0000000;display:inline"
           d="M 476.44567,195.58565 C 480.05309,192.43464 475.54804,185.78787 472.67153,185.40542 C 462.78381,184.09079 448.96523,198.02687 452.92570,198.07305 C 454.71656,198.09393 458.85165,196.94027 463.22820,195.58912 C 467.60475,194.23796 473.68894,196.35475 476.44567,195.58565 z "
           id="path29721"
           sodipodi:nodetypes="csssc" />
        <path
           style="opacity:1.0000000;fill:url(#linearGradient7553);fill-opacity:1.0000000;fill-rule:evenodd;stroke:none;stroke-width:1.7480000;stroke-linecap:butt;stroke-linejoin:miter;stroke-miterlimit:4.0000000;stroke-dasharray:none;stroke-opacity:1.0000000;display:inline"
           d="M 476.43630,195.52786 C 480.04372,192.37685 475.53867,185.73008 472.66216,185.34763 C 462.77444,184.03300 448.95586,197.96908 452.91633,198.01526 C 454.70719,198.03614 458.84228,196.88248 463.21883,195.53133 C 467.59538,194.18017 473.67957,196.29696 476.43630,195.52786 z "
           id="path29723"
           sodipodi:nodetypes="csssc" />
        <path
           style="opacity:1.0000000;fill:url(#linearGradient7555);fill-opacity:1.0000000;fill-rule:evenodd;stroke:none;stroke-width:1.7480000;stroke-linecap:butt;stroke-linejoin:miter;stroke-miterlimit:4.0000000;stroke-dasharray:none;stroke-opacity:1.0000000;display:inline"
           d="M 476.45750,195.50980 C 480.06492,192.35879 475.55987,185.71202 472.68336,185.32957 C 462.79564,184.01494 448.97706,197.95102 452.93753,197.99720 C 454.72839,198.01808 458.86348,196.86442 463.24003,195.51327 C 467.61658,194.16211 473.70077,196.27890 476.45750,195.50980 z "
           id="path29741"
           sodipodi:nodetypes="csssc" />
        <path
           style="fill:none;fill-opacity:0.75000000;fill-rule:evenodd;stroke:#000000;stroke-width:1.7480000;stroke-linecap:butt;stroke-linejoin:miter;stroke-miterlimit:4.0000000;stroke-dasharray:none;stroke-opacity:1.0000000"
           d="M 472.63296,185.43672 C 462.79210,183.80802 448.92666,198.05817 452.88713,198.10435 C 456.46885,198.14612 477.61670,191.03514 477.61670,191.03514"
           id="path29552"
           sodipodi:nodetypes="csc" />
        <path
           style="fill:none;fill-opacity:0.75000000;fill-rule:evenodd;stroke:#000000;stroke-width:1.7480000;stroke-linecap:butt;stroke-linejoin:miter;stroke-miterlimit:4.0000000;stroke-dasharray:none;stroke-opacity:1.0000000"
           d="M 463.10806,195.66549 C 463.10806,195.66549 471.31412,196.51000 476.82757,195.30356"
           id="path29554"
           sodipodi:nodetypes="cs" />
      </g>
      <g
         transform="matrix(-0.396951,-4.790786e-2,-4.466909e-2,0.370115,194.2631,-2.043386)"
         id="g30602">
        <path
           id="path3019"
           d="M 454.75697,75.928206 C 454.75697,80.949126 452.03777,85.024066 448.68733,85.024066 C 445.33689,85.024066 442.61770,80.949126 442.61770,75.928206 C 442.61770,70.907286 445.33689,66.832336 448.68733,66.832336 C 452.03777,66.832336 454.75697,70.907286 454.75697,75.928206 z "
           style="fill:#000000;fill-opacity:1.0000000;fill-rule:nonzero;stroke:#0f0f0f;stroke-width:0.0000000;stroke-miterlimit:4.0000000;stroke-opacity:1.0000000" />
        <path
           id="path3020"
           d="M 444.89698,77.010076 C 444.89698,80.502716 442.81836,83.337336 440.25723,83.337336 C 437.69608,83.337336 435.61748,80.502716 435.61748,77.010076 C 435.61748,73.517426 437.69608,70.682816 440.25723,70.682816 C 442.81836,70.682816 444.89698,73.517426 444.89698,77.010076 z "
           style="fill:#000000;fill-opacity:1.0000000;fill-rule:nonzero;stroke:#0f0f0f;stroke-width:0.0000000;stroke-miterlimit:4.0000000;stroke-opacity:1.0000000" />
        <path
           id="path3021"
           d="M 443.64742,77.200376 C 443.64742,79.800806 442.10915,81.911286 440.21376,81.911286 C 438.31839,81.911286 436.78011,79.800806 436.78011,77.200376 C 436.78011,74.599956 438.31839,72.489476 440.21376,72.489476 C 442.10915,72.489476 443.64742,74.599956 443.64742,77.200376 z "
           style="fill:#ffffff;fill-opacity:1.0000000;fill-rule:nonzero;stroke:#0f0f0f;stroke-width:0.0000000;stroke-miterlimit:4.0000000;stroke-opacity:1.0000000" />
        <path
           id="path3643"
           d="M 453.00501,76.587556 C 452.59149,80.602256 450.08083,83.569266 447.40087,83.210336 C 444.72090,82.851406 442.88145,79.301786 443.29498,75.287086 C 443.70849,71.272396 446.21914,68.305396 448.89911,68.664326 C 451.57907,69.023246 453.41852,72.572866 453.00501,76.587556 z "
           style="fill:#ffffff;fill-opacity:1.0000000;fill-rule:nonzero;stroke:#0f0f0f;stroke-width:0.0000000;stroke-miterlimit:4.0000000;stroke-opacity:1.0000000" />
        <path
           id="path3644"
           d="M 450.11587,78.380266 C 450.11587,80.047796 448.76966,81.401166 447.11092,81.401166 C 445.45219,81.401166 444.10598,80.047796 444.10598,78.380266 C 444.10598,76.712736 445.45219,75.359376 447.11092,75.359376 C 448.76966,75.359376 450.11587,76.712736 450.11587,78.380266 z "
           style="fill:#000000;fill-opacity:1.0000000;fill-rule:nonzero;stroke:#0f0f0f;stroke-width:0.0000000;stroke-miterlimit:4.0000000;stroke-opacity:1.0000000" />
        <path
           id="path4706"
           d="M 443.01269,78.415036 C 443.01269,80.082566 441.66648,81.435936 440.00774,81.435936 C 438.34901,81.435936 437.00280,80.082566 437.00280,78.415036 C 437.00280,76.747506 438.34901,75.394146 440.00774,75.394146 C 441.66648,75.394146 443.01269,76.747506 443.01269,78.415036 z "
           style="fill:#000000;fill-opacity:1.0000000;fill-rule:nonzero;stroke:#0f0f0f;stroke-width:0.0000000;stroke-miterlimit:4.0000000;stroke-opacity:1.0000000;display:inline" />
      </g>
      <path
         sodipodi:nodetypes="ccsssz"
         id="path2160"
         d="M 22.839312,37.993533 C 21.058785,39.259897 20.492269,37.817752 20.492269,37.817752 C 20.492269,37.817752 19.741276,30.651929 21.493244,32.822805 C 23.245216,34.993683 26.409877,27.731791 25.585101,31.285490 C 24.760325,34.839188 31.912468,26.707563 27.614362,32.752305 C 26.718213,34.012624 24.619834,36.727171 22.839312,37.993533 z "
         style="fill:#d5cd00;fill-opacity:1.0000000;fill-rule:evenodd;stroke:none;stroke-width:2.0669999;stroke-linecap:butt;stroke-linejoin:miter;stroke-miterlimit:4.0000000;stroke-dasharray:none;stroke-opacity:1.0000000;display:inline" />
      <path
         sodipodi:nodetypes="ccsssz"
         id="path2162"
         d="M 23.090096,37.751438 C 21.309573,39.017800 20.743053,37.575657 20.743053,37.575657 C 20.743053,37.575657 19.992063,30.409837 21.744031,32.580712 C 23.496003,34.751591 26.660661,27.489696 25.835885,31.043395 C 25.011116,34.597094 32.163259,26.465470 27.865149,32.510212 C 26.969000,33.770532 24.870621,36.485078 23.090096,37.751438 z "
         style="fill:url(#linearGradient7603);fill-opacity:1.0000000;fill-rule:evenodd;stroke:none;stroke-width:2.0669999;stroke-linecap:butt;stroke-linejoin:miter;stroke-miterlimit:4.0000000;stroke-dasharray:none;stroke-opacity:1.0000000;display:inline" />
      <path
         sodipodi:nodetypes="csssc"
         id="path2164"
         d="M 20.627733,37.610080 C 20.627733,37.610080 19.876740,30.444257 21.628711,32.615135 C 23.380680,34.786011 26.545341,27.524119 25.720565,31.077818 C 24.895795,34.631517 32.047936,26.499890 27.749829,32.544635 C 26.853677,33.804952 22.974776,37.785861 22.974776,37.785861"
         style="fill:none;fill-opacity:0.75000000;fill-rule:evenodd;stroke:#000000;stroke-width:0.80000001;stroke-linecap:butt;stroke-linejoin:miter;stroke-miterlimit:4.0000000;stroke-dasharray:none;stroke-opacity:1.0000000" />
      <g
         transform="matrix(-0.440745,0.157314,-0.296227,-0.346999,263.8429,21.23674)"
         id="g7501"
         style="display:inline">
        <path
           style="fill:#d5cd00;fill-opacity:1.0000000;fill-rule:evenodd;stroke:none;stroke-width:2.0669999;stroke-linecap:butt;stroke-linejoin:miter;stroke-miterlimit:4.0000000;stroke-dasharray:none;stroke-opacity:1.0000000;display:inline"
           d="M 458.78172,155.64201 C 464.45972,154.43052 462.86934,158.60907 462.86934,158.60907 C 462.86934,158.60907 451.08778,177.14490 451.79178,169.88475 C 452.49578,162.62459 433.17790,177.17343 441.27080,169.27276 C 449.36370,161.37209 420.95010,173.77020 440.15738,163.45502 C 444.16207,161.30432 453.10373,156.85350 458.78172,155.64201 z "
           id="path7503"
           sodipodi:nodetypes="ccsssz" />
        <path
           style="fill:url(#linearGradient7599);fill-opacity:1.0000000;fill-rule:evenodd;stroke:none;stroke-width:2.0669999;stroke-linecap:butt;stroke-linejoin:miter;stroke-miterlimit:4.0000000;stroke-dasharray:none;stroke-opacity:1.0000000;display:inline"
           d="M 457.86465,155.97029 C 463.54264,154.75880 461.95227,158.93735 461.95227,158.93735 C 461.95227,158.93735 450.17071,177.47317 450.87471,170.21302 C 451.57871,162.95286 432.26083,177.50171 440.35373,169.60104 C 448.44662,161.70036 420.03302,174.09847 439.24031,163.78329 C 443.24500,161.63259 452.18666,157.18177 457.86465,155.97029 z "
           id="path7505"
           sodipodi:nodetypes="ccsssz" />
        <path
           style="fill:none;fill-opacity:0.75000000;fill-rule:evenodd;stroke:#000000;stroke-width:1.9725000;stroke-linecap:butt;stroke-linejoin:miter;stroke-miterlimit:4.0000000;stroke-dasharray:none;stroke-opacity:1.0000000"
           d="M 462.23239,158.97662 C 462.23239,158.97662 450.45083,177.51245 451.15483,170.25229 C 451.85883,162.99214 432.54095,177.54098 440.63385,169.64031 C 448.72674,161.73963 420.31314,174.13775 439.52043,163.82256 C 443.52512,161.67187 458.14477,156.00956 458.14477,156.00956"
           id="path7507"
           sodipodi:nodetypes="csssc" />
      </g>
    </g>
  </g>
</svg>
