<?xml version="1.0" encoding="UTF-8" standalone="no"?>
<!-- Created with Inkscape (http://www.inkscape.org/) -->
<svg
   xmlns:dc="http://purl.org/dc/elements/1.1/"
   xmlns:cc="http://web.resource.org/cc/"
   xmlns:rdf="http://www.w3.org/1999/02/22-rdf-syntax-ns#"
   xmlns:svg="http://www.w3.org/2000/svg"
   xmlns="http://www.w3.org/2000/svg"
   xmlns:xlink="http://www.w3.org/1999/xlink"
   xmlns:sodipodi="http://inkscape.sourceforge.net/DTD/sodipodi-0.dtd"
   xmlns:inkscape="http://www.inkscape.org/namespaces/inkscape"
   width="28.000000px"
   height="42.000000px"
   id="svg1"
   sodipodi:version="0.32"
   inkscape:version="0.43"
   sodipodi:docbase="/home/yekcim/Desktop/SVG/Skins/tuxteam"
   sodipodi:docname="manchot.svg"
   inkscape:export-filename="/home/yekcim/Desktop/manchot_skin/manchot.png"
   inkscape:export-xdpi="72.000000"
   inkscape:export-ydpi="72.000000"
   inkscape:output_extension="org.inkscape.output.svg.inkscape">
  <defs
     id="defs3">
    <linearGradient
       inkscape:collect="always"
       id="linearGradient30543">
      <stop
         style="stop-color:#d5a100;stop-opacity:1;"
         offset="0"
         id="stop30545" />
      <stop
         style="stop-color:#d5a100;stop-opacity:0;"
         offset="1"
         id="stop30547" />
    </linearGradient>
    <linearGradient
       inkscape:collect="always"
       id="linearGradient29775">
      <stop
         style="stop-color:#c18d00;stop-opacity:1;"
         offset="0"
         id="stop29777" />
      <stop
         style="stop-color:#c18d00;stop-opacity:0;"
         offset="1"
         id="stop29779" />
    </linearGradient>
    <linearGradient
       inkscape:collect="always"
       id="linearGradient29767">
      <stop
         style="stop-color:#c1b800;stop-opacity:1;"
         offset="0"
         id="stop29769" />
      <stop
         style="stop-color:#c1b800;stop-opacity:0;"
         offset="1"
         id="stop29771" />
    </linearGradient>
    <defs
       id="defs1062">
      <linearGradient
         inkscape:collect="always"
         id="linearGradient10630">
        <stop
           style="stop-color:#616161;stop-opacity:1;"
           offset="0"
           id="stop10631" />
        <stop
           style="stop-color:#616161;stop-opacity:0;"
           offset="1"
           id="stop10632" />
      </linearGradient>
      <linearGradient
         inkscape:collect="always"
         id="linearGradient10560">
        <stop
           style="stop-color:#000000;stop-opacity:1;"
           offset="0"
           id="stop10561" />
        <stop
           style="stop-color:#000000;stop-opacity:0;"
           offset="1"
           id="stop10562" />
      </linearGradient>
      <linearGradient
         inkscape:collect="always"
         id="linearGradient15046">
        <stop
           style="stop-color:#dadada;stop-opacity:1;"
           offset="0"
           id="stop15047" />
        <stop
           style="stop-color:#dadada;stop-opacity:0;"
           offset="1"
           id="stop15048" />
      </linearGradient>
      <linearGradient
         id="linearGradient13777">
        <stop
           offset="0.0000000"
           style="stop-color:#d17d00;stop-opacity:1.0000000;"
           id="stop13779" />
        <stop
           offset="1.0000000"
           style="stop-color:#a7b135;stop-opacity:0.0000000;"
           id="stop13778" />
      </linearGradient>
      <linearGradient
         id="linearGradient11847">
        <stop
           offset="0.0000000"
           style="stop-color:#000000;stop-opacity:1.0000000;"
           id="stop11849" />
        <stop
           offset="1.0000000"
           style="stop-color:#000000;stop-opacity:0.0000000;"
           id="stop11848" />
      </linearGradient>
      <linearGradient
         id="linearGradient6187">
        <stop
           style="stop-color:#2e1b0b;stop-opacity:1.0000000;"
           offset="0.0000000"
           id="stop6188" />
        <stop
           style="stop-color:#431e00;stop-opacity:0;"
           offset="1"
           id="stop6189" />
      </linearGradient>
      <linearGradient
         inkscape:collect="always"
         id="linearGradient4909">
        <stop
           style="stop-color:#000000;stop-opacity:1;"
           offset="0"
           id="stop4910" />
        <stop
           style="stop-color:#000000;stop-opacity:0;"
           offset="1"
           id="stop4911" />
      </linearGradient>
      <linearGradient
         id="linearGradient1780">
        <stop
           style="stop-color:#454545;stop-opacity:1.0000000;"
           offset="0.0000000"
           id="stop1781" />
        <stop
           style="stop-color:#ffffff;stop-opacity:0;"
           offset="1"
           id="stop1782" />
      </linearGradient>
      <linearGradient
         id="linearGradient3869">
        <stop
           offset="0.0000000"
           style="stop-color:#d2dd2e;stop-opacity:1.0000000;"
           id="stop3872" />
        <stop
           offset="0.76146787"
           style="stop-color:#b3b96d;stop-opacity:0.65555555;"
           id="stop3871" />
        <stop
           offset="1.0000000"
           style="stop-color:#b1b952;stop-opacity:0.0000000;"
           id="stop3870" />
      </linearGradient>
      <linearGradient
         inkscape:collect="always"
         xlink:href="#linearGradient9217"
         id="linearGradient3799"
         gradientUnits="userSpaceOnUse"
         gradientTransform="matrix(0.112563,0.000000,0.000000,0.115364,26.43402,157.1761)"
         x1="4373.3052"
         y1="319.33466"
         x2="96.982727"
         y2="2708.2139" />
      <linearGradient
         inkscape:collect="always"
         xlink:href="#linearGradient7337"
         id="linearGradient3800"
         gradientUnits="userSpaceOnUse"
         gradientTransform="matrix(0.230667,0.000000,0.000000,7.644947e-2,26.55186,129.5549)"
         x1="862.16510"
         y1="2479.5938"
         x2="1523.3719"
         y2="2479.5938" />
      <linearGradient
         inkscape:collect="always"
         xlink:href="#linearGradient5442"
         id="linearGradient3801"
         gradientUnits="userSpaceOnUse"
         gradientTransform="matrix(0.162855,0.000000,0.000000,7.648058e-2,75.52973,161.8049)"
         x1="580.22791"
         y1="2173.3171"
         x2="1782.0374"
         y2="1630.2036" />
      <radialGradient
         inkscape:collect="always"
         xlink:href="#linearGradient5442"
         id="radialGradient3802"
         gradientUnits="userSpaceOnUse"
         gradientTransform="matrix(0.159978,0.000000,0.000000,7.785591e-2,363.0923,173.8583)"
         cx="-606.79681"
         cy="1573.4399"
         fx="-606.79681"
         fy="1573.4399"
         r="739.70477" />
      <linearGradient
         inkscape:collect="always"
         xlink:href="#linearGradient21707"
         id="linearGradient3803"
         gradientUnits="userSpaceOnUse"
         gradientTransform="scale(0.659854,1.515487)"
         x1="4848.5972"
         y1="3945.1116"
         x2="5625.4653"
         y2="1720.9402" />
      <linearGradient
         inkscape:collect="always"
         xlink:href="#linearGradient7337"
         id="linearGradient3804"
         gradientUnits="userSpaceOnUse"
         gradientTransform="matrix(0.236634,0.000000,0.000000,0.208284,-2451.443,4783.687)"
         x1="-7797.7422"
         y1="5021.4731"
         x2="-352.84012"
         y2="1184.9034" />
      <linearGradient
         inkscape:collect="always"
         xlink:href="#linearGradient7337"
         id="linearGradient3805"
         gradientUnits="userSpaceOnUse"
         gradientTransform="matrix(0.236634,0.000000,0.000000,0.208284,-2451.443,4783.687)"
         x1="-7797.7422"
         y1="5021.4731"
         x2="-352.84012"
         y2="1184.9034" />
      <defs
         id="defs3745">
        <linearGradient
           id="linearGradient22333"
           x1="0.0000000"
           y1="0.50000000"
           x2="1.0000000"
           y2="0.50000000"
           gradientUnits="objectBoundingBox"
           spreadMethod="pad"
           xlink:href="#linearGradient13777" />
        <linearGradient
           id="linearGradient21707">
          <stop
             style="stop-color:#ffffff;stop-opacity:1.0000000;"
             offset="0.0000000"
             id="stop21708" />
          <stop
             style="stop-color:#a7b135;stop-opacity:0;"
             offset="1"
             id="stop21709" />
        </linearGradient>
        <linearGradient
           inkscape:collect="always"
           id="linearGradient9217"
           x1="0.0000000"
           y1="0.50000000"
           x2="1.0000000"
           y2="0.50000000"
           gradientUnits="objectBoundingBox"
           spreadMethod="pad"
           xlink:href="#linearGradient11847" />
        <linearGradient
           id="linearGradient8584">
          <stop
             style="stop-color:#000000;stop-opacity:1.0000000;"
             offset="0.0000000"
             id="stop8585" />
          <stop
             style="stop-color:#cece4c;stop-opacity:0;"
             offset="1"
             id="stop8586" />
        </linearGradient>
        <linearGradient
           id="linearGradient7337">
          <stop
             style="stop-color:#b1b12f;stop-opacity:1.0000000;"
             offset="0.0000000"
             id="stop7338" />
          <stop
             style="stop-color:#cece4c;stop-opacity:0;"
             offset="1"
             id="stop7339" />
        </linearGradient>
        <linearGradient
           id="linearGradient5442"
           x1="0.0000000"
           y1="0.50000000"
           x2="1.0000000"
           y2="0.50000000"
           gradientUnits="objectBoundingBox"
           spreadMethod="pad"
           xlink:href="#linearGradient3869" />
      </defs>
      <sodipodi:namedview
         id="namedview3772"
         pagecolor="#ffffff"
         bordercolor="#666666"
         borderopacity="1.0"
         inkscape:pageopacity="0.0"
         inkscape:pageshadow="2"
         inkscape:zoom="0.80057989"
         inkscape:cx="297.63780"
         inkscape:cy="420.94487"
         inkscape:current-layer="layer1"
         inkscape:window-width="1440"
         inkscape:window-height="851"
         inkscape:window-x="0"
         inkscape:window-y="27"
         showguides="true"
         inkscape:guide-bbox="true" />
      <metadata
         id="metadata3773">
        <rdf:RDF>
          <cc:Work
             rdf:about="">
            <dc:format>image/svg+xml</dc:format>
            <dc:type
               rdf:resource="http://purl.org/dc/dcmitype/StillImage" />
          </cc:Work>
        </rdf:RDF>
      </metadata>
      <linearGradient
         inkscape:collect="always"
         xlink:href="#linearGradient4909"
         id="linearGradient6167"
         gradientUnits="userSpaceOnUse"
         gradientTransform="scale(0.891889,1.121216)"
         x1="-148.77991"
         y1="106.31860"
         x2="-160.14931"
         y2="-66.932083" />
      <linearGradient
         inkscape:collect="always"
         xlink:href="#linearGradient10560"
         id="linearGradient10563"
         gradientTransform="matrix(0.915477,0.127968,-0.149762,1.071392,19.54851,-8.453410)"
         x1="698.54480"
         y1="69.852913"
         x2="758.31232"
         y2="359.09653"
         gradientUnits="userSpaceOnUse" />
      <linearGradient
         inkscape:collect="always"
         xlink:href="#linearGradient10560"
         id="linearGradient10578"
         gradientUnits="userSpaceOnUse"
         gradientTransform="matrix(0.915477,0.127968,-0.149762,1.071392,0.000000,0.000000)"
         x1="647.37115"
         y1="96.894905"
         x2="770.59186"
         y2="342.74301" />
      <linearGradient
         inkscape:collect="always"
         xlink:href="#linearGradient4909"
         id="linearGradient10604"
         gradientUnits="userSpaceOnUse"
         gradientTransform="scale(0.891889,1.121216)"
         x1="-148.77991"
         y1="106.31860"
         x2="-160.14931"
         y2="-66.932083" />
      <linearGradient
         inkscape:collect="always"
         xlink:href="#linearGradient10630"
         id="linearGradient10633"
         gradientTransform="scale(0.883732,1.131565)"
         x1="-164.59187"
         y1="105.15539"
         x2="-154.14560"
         y2="3.6783011"
         gradientUnits="userSpaceOnUse" />
      <linearGradient
         inkscape:collect="always"
         xlink:href="#linearGradient10630"
         id="linearGradient10647"
         gradientUnits="userSpaceOnUse"
         gradientTransform="scale(0.883732,1.131565)"
         x1="-164.59187"
         y1="105.15539"
         x2="-154.14560"
         y2="3.6783011" />
      <radialGradient
         inkscape:collect="always"
         xlink:href="#linearGradient1780"
         id="radialGradient5568"
         gradientUnits="userSpaceOnUse"
         gradientTransform="matrix(-0.663014,1.058409,1.330757,0.590372,-891.7907,666.4254)"
         cx="-446.72464"
         cy="218.60974"
         fx="-446.72464"
         fy="218.60974"
         r="308.80975" />
      <linearGradient
         inkscape:collect="always"
         xlink:href="#linearGradient10630"
         id="linearGradient4391"
         gradientUnits="userSpaceOnUse"
         gradientTransform="matrix(0.437171,-0.479724,0.614848,0.557530,723.0732,-61.92042)"
         x1="-164.59187"
         y1="105.15539"
         x2="-154.14560"
         y2="3.6783011" />
    </defs>
    <linearGradient
       inkscape:collect="always"
       xlink:href="#linearGradient29767"
       id="linearGradient29790"
       gradientUnits="userSpaceOnUse"
       x1="469.22879"
       y1="195.66983"
       x2="466.85336"
       y2="190.31827" />
    <linearGradient
       inkscape:collect="always"
       xlink:href="#linearGradient29775"
       id="linearGradient29792"
       gradientUnits="userSpaceOnUse"
       x1="452.24230"
       y1="191.61978"
       x2="477.79759"
       y2="191.61978" />
    <linearGradient
       inkscape:collect="always"
       xlink:href="#linearGradient30543"
       id="linearGradient30600"
       gradientUnits="userSpaceOnUse"
       gradientTransform="matrix(0.79685,-9.99664e-2,0.107573,0.85748,57.47947,52.25634)"
       x1="445.31965"
       y1="185.40658"
       x2="483.65149"
       y2="185.40658" />
    <linearGradient
       inkscape:collect="always"
       xlink:href="#linearGradient30543"
       id="linearGradient30626"
       gradientUnits="userSpaceOnUse"
       gradientTransform="matrix(0.79685,-9.99664e-2,0.107573,0.85748,57.47947,52.25634)"
       x1="445.31965"
       y1="185.40658"
       x2="483.65149"
       y2="185.40658" />
    <linearGradient
       inkscape:collect="always"
       xlink:href="#linearGradient15046"
       id="linearGradient9368"
       gradientUnits="userSpaceOnUse"
       gradientTransform="matrix(-7.748807e-2,0,0,0.11461,-17.75474,-4.001667)"
       x1="441.72971"
       y1="303.18546"
       x2="428.48846"
       y2="198.18111" />
    <linearGradient
       inkscape:collect="always"
       xlink:href="#linearGradient15046"
       id="linearGradient9370"
       gradientUnits="userSpaceOnUse"
       gradientTransform="matrix(-7.748807e-2,0,0,0.11461,-17.47433,-4.177225)"
       x1="393.50977"
       y1="308.61905"
       x2="509.58563"
       y2="239.1801" />
  </defs>
  <sodipodi:namedview
     id="base"
     pagecolor="#ffffff"
     bordercolor="#666666"
     borderopacity="1.0"
     inkscape:pageopacity="0.0"
     inkscape:pageshadow="2"
     inkscape:zoom="15.571429"
     inkscape:cx="14.000000"
     inkscape:cy="21.000000"
     inkscape:current-layer="g1160"
     inkscape:window-width="1440"
     inkscape:window-height="826"
     inkscape:window-x="0"
     inkscape:window-y="26" />
  <metadata
     id="metadata4">
    <rdf:RDF>
      <cc:Work
         rdf:about="">
        <dc:format>image/svg+xml</dc:format>
        <dc:type
           rdf:resource="http://purl.org/dc/dcmitype/StillImage" />
      </cc:Work>
    </rdf:RDF>
  </metadata>
  <g
     id="g1160"
     inkscape:groupmode="layer"
     inkscape:label="Layer 1"
     style="display:inline">
    <g
       style="display:inline"
       id="g31394"
       transform="matrix(-0.377543,-0.119838,-0.131394,0.353104,202.0386,32.91731)">
      <path
         sodipodi:nodetypes="csc"
         id="path31396"
         d="M 464.51208,106.88987 C 450.1793,113.23992 400.38951,139.91106 425.42765,138.09586 C 450.4658,136.28067 472.19471,120.92575 472.19471,120.92575"
         style="fill:#232323;fill-opacity:1;fill-rule:evenodd;stroke:none;stroke-width:2.375;stroke-linecap:butt;stroke-linejoin:miter;stroke-miterlimit:4;stroke-dasharray:none;stroke-opacity:1;display:inline" />
      <path
         sodipodi:nodetypes="csc"
         id="path31398"
         d="M 465.75543,106.3568 C 452.04469,110.47785 400.80346,139.58534 425.8416,137.77014 C 450.87975,135.95496 472.60867,120.60004 472.60867,120.60004"
         style="fill:none;fill-opacity:0.75;fill-rule:evenodd;stroke:#000000;stroke-width:2.68089771;stroke-linecap:butt;stroke-linejoin:miter;stroke-miterlimit:4;stroke-dasharray:none;stroke-opacity:1;display:inline" />
    </g>
    <g
       style="display:inline"
       id="g30592"
       transform="matrix(-0.436036,0,0,0.372799,215.5107,-22.9611)">
      <path
         sodipodi:nodetypes="ccsssz"
         id="path30594"
         d="M 458.78172,155.64201 C 464.45972,154.43052 462.86934,158.60907 462.86934,158.60907 C 462.86934,158.60907 451.08778,177.1449 451.79178,169.88475 C 452.49578,162.62459 433.1779,177.17343 441.2708,169.27276 C 449.3637,161.37209 420.9501,173.7702 440.15738,163.45502 C 444.16207,161.30432 453.10373,156.8535 458.78172,155.64201 z "
         style="fill:#d5cd00;fill-opacity:1;fill-rule:evenodd;stroke:none;stroke-width:2.06699991;stroke-linecap:butt;stroke-linejoin:miter;stroke-miterlimit:4;stroke-dasharray:none;stroke-opacity:1;display:inline" />
      <path
         sodipodi:nodetypes="ccsssz"
         id="path30596"
         d="M 457.86465,155.97029 C 463.54264,154.7588 461.95227,158.93735 461.95227,158.93735 C 461.95227,158.93735 450.17071,177.47317 450.87471,170.21302 C 451.57871,162.95286 432.26083,177.50171 440.35373,169.60104 C 448.44662,161.70036 420.03302,174.09847 439.24031,163.78329 C 443.245,161.63259 452.18666,157.18177 457.86465,155.97029 z "
         style="fill:url(#linearGradient30600);fill-opacity:1;fill-rule:evenodd;stroke:none;stroke-width:2.06699991;stroke-linecap:butt;stroke-linejoin:miter;stroke-miterlimit:4;stroke-dasharray:none;stroke-opacity:1;display:inline" />
      <path
         sodipodi:nodetypes="csssc"
         id="path30598"
         d="M 462.23239,158.97662 C 462.23239,158.97662 450.45083,177.51245 451.15483,170.25229 C 451.85883,162.99214 432.54095,177.54098 440.63385,169.64031 C 448.72674,161.73963 420.31314,174.13775 439.52043,163.82256 C 443.52512,161.67187 458.14477,156.00956 458.14477,156.00956"
         style="fill:none;fill-opacity:0.75;fill-rule:evenodd;stroke:#000000;stroke-width:1.97249997;stroke-linecap:butt;stroke-linejoin:miter;stroke-miterlimit:4;stroke-dasharray:none;stroke-opacity:1" />
    </g>
    <g
       id="g30587"
       transform="matrix(-0.436036,0,0,0.372799,207.7038,-22.87673)">
      <path
         sodipodi:nodetypes="ccsssz"
         id="path30564"
         d="M 458.78172,155.64201 C 464.45972,154.43052 462.86934,158.60907 462.86934,158.60907 C 462.86934,158.60907 451.08778,177.1449 451.79178,169.88475 C 452.49578,162.62459 433.1779,177.17343 441.2708,169.27276 C 449.3637,161.37209 420.9501,173.7702 440.15738,163.45502 C 444.16207,161.30432 453.10373,156.8535 458.78172,155.64201 z "
         style="fill:#d5cd00;fill-opacity:1;fill-rule:evenodd;stroke:none;stroke-width:2.06699991;stroke-linecap:butt;stroke-linejoin:miter;stroke-miterlimit:4;stroke-dasharray:none;stroke-opacity:1;display:inline" />
      <path
         sodipodi:nodetypes="ccsssz"
         id="path30566"
         d="M 457.86465,155.97029 C 463.54264,154.7588 461.95227,158.93735 461.95227,158.93735 C 461.95227,158.93735 450.17071,177.47317 450.87471,170.21302 C 451.57871,162.95286 432.26083,177.50171 440.35373,169.60104 C 448.44662,161.70036 420.03302,174.09847 439.24031,163.78329 C 443.245,161.63259 452.18666,157.18177 457.86465,155.97029 z "
         style="fill:url(#linearGradient30626);fill-opacity:1;fill-rule:evenodd;stroke:none;stroke-width:2.06699991;stroke-linecap:butt;stroke-linejoin:miter;stroke-miterlimit:4;stroke-dasharray:none;stroke-opacity:1;display:inline" />
      <path
         sodipodi:nodetypes="csssc"
         id="path30568"
         d="M 462.23239,158.97662 C 462.23239,158.97662 450.45083,177.51245 451.15483,170.25229 C 451.85883,162.99214 432.54095,177.54098 440.63385,169.64031 C 448.72674,161.73963 420.31314,174.13775 439.52043,163.82256 C 443.52512,161.67187 458.14477,156.00956 458.14477,156.00956"
         style="fill:none;fill-opacity:0.75;fill-rule:evenodd;stroke:#000000;stroke-width:1.97249997;stroke-linecap:butt;stroke-linejoin:miter;stroke-miterlimit:4;stroke-dasharray:none;stroke-opacity:1" />
    </g>
    <g
       inkscape:label="Layer 1"
       id="g29199"
       transform="matrix(-0.800240,0.000000,0.000000,0.800240,372.6259,-77.80494)" />
    <g
       id="g29315"
       inkscape:label="Layer 1"
       transform="matrix(-0.800240,0.000000,0.000000,0.800240,1530.027,255.1263)" />
    <g
       inkscape:label="Layer 1"
       id="g29317"
       transform="matrix(-0.800240,0.000000,0.000000,0.800240,2197.244,222.6400)" />
    <g
       inkscape:label="Layer 1"
       id="g3589"
       transform="matrix(-0.757324,0,0,0.76036,343.2353,-58.62023)" />
    <g
       id="g3591"
       inkscape:label="Layer 1"
       transform="matrix(-0.757324,0,0,0.76036,1438.565,257.7193)" />
    <g
       inkscape:label="Layer 1"
       id="g3593"
       transform="matrix(-0.757324,0,0,0.76036,2070.001,226.852)" />
    <path
       style="fill:#232323;fill-opacity:1;fill-rule:evenodd;stroke:none;stroke-width:0.92659229;stroke-linecap:butt;stroke-linejoin:miter;stroke-miterlimit:4;stroke-dasharray:none;stroke-opacity:1;display:inline"
       d="M 14.23901,13.584632 C 15.32122,11.430024 17.420922,4.5864668 16.255123,2.9822439 C 15.034932,1.3031724 11.791698,-1.2926951 7.3757181,3.4348384 C 1.7545221,9.4526179 1.1893761,35.522416 11.516092,34.701205 C 24.374803,34.599086 22.479615,22.607329 16.957725,20.775349 C 16.957725,20.775349 13.156801,15.73924 14.23901,13.584632 z M 16.898577,20.745657 C 15.643002,20.353895 14.234021,20.655565 12.699056,21.398895"
       id="path3596"
       sodipodi:nodetypes="czsccscc" />
    <g
       id="g30602"
       transform="matrix(-0.399833,0,0,0.372799,192.3443,-22.46561)">
      <path
         style="fill:#000000;fill-opacity:1;fill-rule:nonzero;stroke:#0f0f0f;stroke-width:0;stroke-miterlimit:4;stroke-opacity:1"
         d="M 454.75697,75.928206 C 454.75697,80.949126 452.03777,85.024066 448.68733,85.024066 C 445.33689,85.024066 442.6177,80.949126 442.6177,75.928206 C 442.6177,70.907286 445.33689,66.832336 448.68733,66.832336 C 452.03777,66.832336 454.75697,70.907286 454.75697,75.928206 z "
         id="path3019" />
      <path
         style="fill:#000000;fill-opacity:1;fill-rule:nonzero;stroke:#0f0f0f;stroke-width:0;stroke-miterlimit:4;stroke-opacity:1"
         d="M 444.89698,77.010076 C 444.89698,80.502716 442.81836,83.337336 440.25723,83.337336 C 437.69608,83.337336 435.61748,80.502716 435.61748,77.010076 C 435.61748,73.517426 437.69608,70.682816 440.25723,70.682816 C 442.81836,70.682816 444.89698,73.517426 444.89698,77.010076 z "
         id="path3020" />
      <path
         style="fill:#ffffff;fill-opacity:1;fill-rule:nonzero;stroke:#0f0f0f;stroke-width:0;stroke-miterlimit:4;stroke-opacity:1"
         d="M 443.64742,77.200376 C 443.64742,79.800806 442.10915,81.911286 440.21376,81.911286 C 438.31839,81.911286 436.78011,79.800806 436.78011,77.200376 C 436.78011,74.599956 438.31839,72.489476 440.21376,72.489476 C 442.10915,72.489476 443.64742,74.599956 443.64742,77.200376 z "
         id="path3021" />
      <path
         style="fill:#ffffff;fill-opacity:1;fill-rule:nonzero;stroke:#0f0f0f;stroke-width:0;stroke-miterlimit:4;stroke-opacity:1"
         d="M 453.00501,76.587556 C 452.59149,80.602256 450.08083,83.569266 447.40087,83.210336 C 444.7209,82.851406 442.88145,79.301786 443.29498,75.287086 C 443.70849,71.272396 446.21914,68.305396 448.89911,68.664326 C 451.57907,69.023246 453.41852,72.572866 453.00501,76.587556 z "
         id="path3643" />
      <path
         style="fill:#000000;fill-opacity:1;fill-rule:nonzero;stroke:#0f0f0f;stroke-width:0;stroke-miterlimit:4;stroke-opacity:1"
         d="M 450.11587,78.380266 C 450.11587,80.047796 448.76966,81.401166 447.11092,81.401166 C 445.45219,81.401166 444.10598,80.047796 444.10598,78.380266 C 444.10598,76.712736 445.45219,75.359376 447.11092,75.359376 C 448.76966,75.359376 450.11587,76.712736 450.11587,78.380266 z "
         id="path3644" />
      <path
         style="fill:#000000;fill-opacity:1;fill-rule:nonzero;stroke:#0f0f0f;stroke-width:0;stroke-miterlimit:4;stroke-opacity:1;display:inline"
         d="M 443.01269,78.415036 C 443.01269,80.082566 441.66648,81.435936 440.00774,81.435936 C 438.34901,81.435936 437.0028,80.082566 437.0028,78.415036 C 437.0028,76.747506 438.34901,75.394146 440.00774,75.394146 C 441.66648,75.394146 443.01269,76.747506 443.01269,78.415036 z "
         id="path4706" />
    </g>
    <g
       id="g29783"
       transform="matrix(-0.399833,0,0,0.372799,203.7278,-60.2044)">
      <path
         sodipodi:nodetypes="csssc"
         id="path29721"
         d="M 476.44567,195.58565 C 480.05309,192.43464 475.54804,185.78787 472.67153,185.40542 C 462.78381,184.09079 448.96523,198.02687 452.9257,198.07305 C 454.71656,198.09393 458.85165,196.94027 463.2282,195.58912 C 467.60475,194.23796 473.68894,196.35475 476.44567,195.58565 z "
         style="opacity:1;fill:#ffdd19;fill-opacity:1;fill-rule:evenodd;stroke:none;stroke-width:1.74800003;stroke-linecap:butt;stroke-linejoin:miter;stroke-miterlimit:4;stroke-dasharray:none;stroke-opacity:1;display:inline" />
      <path
         sodipodi:nodetypes="csssc"
         id="path29723"
         d="M 476.4363,195.52786 C 480.04372,192.37685 475.53867,185.73008 472.66216,185.34763 C 462.77444,184.033 448.95586,197.96908 452.91633,198.01526 C 454.70719,198.03614 458.84228,196.88248 463.21883,195.53133 C 467.59538,194.18017 473.67957,196.29696 476.4363,195.52786 z "
         style="opacity:1;fill:url(#linearGradient29790);fill-opacity:1;fill-rule:evenodd;stroke:none;stroke-width:1.74800003;stroke-linecap:butt;stroke-linejoin:miter;stroke-miterlimit:4;stroke-dasharray:none;stroke-opacity:1;display:inline" />
      <path
         sodipodi:nodetypes="csssc"
         id="path29741"
         d="M 476.4575,195.5098 C 480.06492,192.35879 475.55987,185.71202 472.68336,185.32957 C 462.79564,184.01494 448.97706,197.95102 452.93753,197.9972 C 454.72839,198.01808 458.86348,196.86442 463.24003,195.51327 C 467.61658,194.16211 473.70077,196.2789 476.4575,195.5098 z "
         style="opacity:1;fill:url(#linearGradient29792);fill-opacity:1;fill-rule:evenodd;stroke:none;stroke-width:1.74800003;stroke-linecap:butt;stroke-linejoin:miter;stroke-miterlimit:4;stroke-dasharray:none;stroke-opacity:1;display:inline" />
      <path
         sodipodi:nodetypes="csc"
         id="path29552"
         d="M 472.63296,185.43672 C 462.7921,183.80802 448.92666,198.05817 452.88713,198.10435 C 456.46885,198.14612 477.6167,191.03514 477.6167,191.03514"
         style="fill:none;fill-opacity:0.75;fill-rule:evenodd;stroke:#000000;stroke-width:1.74800003;stroke-linecap:butt;stroke-linejoin:miter;stroke-miterlimit:4;stroke-dasharray:none;stroke-opacity:1" />
      <path
         sodipodi:nodetypes="cs"
         id="path29554"
         d="M 463.10806,195.66549 C 463.10806,195.66549 471.31412,196.51 476.82757,195.30356"
         style="fill:none;fill-opacity:0.75;fill-rule:evenodd;stroke:#000000;stroke-width:1.74800003;stroke-linecap:butt;stroke-linejoin:miter;stroke-miterlimit:4;stroke-dasharray:none;stroke-opacity:1" />
    </g>
    <g
       id="g9364"
       transform="translate(68.15335,-4.768662)">
      <path
         sodipodi:nodetypes="czzccccz"
         id="path4459"
         d="M -47.317294,34.658965 C -48.460093,38.068498 -51.263652,38.96763 -53.583519,38.933594 C -55.959999,38.899558 -58.392287,38.460213 -59.030514,34.499396 C -59.66737,30.547085 -57.297248,25.893828 -56.246561,18.759481 C -55.615627,17.459542 -54.331246,17.220448 -54.416914,18.644089 C -54.562306,20.294463 -53.430005,22.444486 -52.350948,23.82757 C -51.983599,24.408984 -51.844408,24.871005 -50.736197,25.728647 C -47.807183,27.337879 -46.174496,31.249427 -47.317294,34.658965 z "
         style="fill:url(#linearGradient9368);fill-opacity:1;fill-rule:evenodd;stroke:none;stroke-width:0.25pt;stroke-linecap:butt;stroke-linejoin:miter;stroke-opacity:1" />
      <path
         sodipodi:nodetypes="czzccccz"
         id="path8487"
         d="M -47.03689,34.483407 C -48.179689,37.89294 -50.983248,38.792072 -53.303115,38.758036 C -55.679595,38.724 -58.111883,38.284655 -58.75011,34.323838 C -59.386966,30.371527 -57.016844,25.71827 -55.966157,18.583923 C -55.335223,17.283984 -54.050842,17.04489 -54.13651,18.468531 C -54.281902,20.118905 -53.149601,22.268928 -52.070544,23.652012 C -51.703195,24.233426 -51.564004,24.695447 -50.455793,25.553089 C -47.526779,27.162321 -45.894092,31.073869 -47.03689,34.483407 z "
         style="fill:url(#linearGradient9370);fill-opacity:1;fill-rule:evenodd;stroke:none;stroke-width:0.25pt;stroke-linecap:butt;stroke-linejoin:miter;stroke-opacity:1;display:inline" />
    </g>
    <path
       style="fill:none;fill-opacity:0.75;fill-rule:evenodd;stroke:#000000;stroke-width:0.87900001;stroke-linecap:butt;stroke-linejoin:miter;stroke-miterlimit:4;stroke-dasharray:none;stroke-opacity:1"
       d="M 11.936457,13.623638 C 12.247829,20.615367 4.0106091,33.721321 14.767116,34.344065"
       id="path6347"
       sodipodi:nodetypes="cs" />
    <path
       style="fill:none;fill-opacity:1;fill-rule:evenodd;stroke:#000000;stroke-width:0.87900001;stroke-linecap:butt;stroke-linejoin:miter;stroke-miterlimit:4;stroke-dasharray:none;stroke-opacity:1;display:inline"
       d="M 16.129651,3.1082191 C 16.009537,2.8939781 14.621902,0.54141032 12.018851,0.76249921 C 11.979396,0.76585021 11.940556,0.75793701 11.900555,0.76249921 C 10.660517,0.9039289 9.1567791,1.646728 7.3757181,3.4348384 C 1.5651131,9.2684469 1.1893761,35.522416 11.516092,34.701205 C 24.374803,34.599086 22.479615,22.607329 16.957725,20.775349 C 16.957725,20.775349 12.947681,15.655257 14.02989,13.500649 M 16.898577,20.745657 C 15.643002,20.353895 14.234021,20.655565 12.699056,21.398895"
       id="path3594"
       sodipodi:nodetypes="cscsccscc" />
    <path
       style="fill:#000000;fill-opacity:1.0000000;fill-rule:nonzero;stroke:none;stroke-width:1.0000000pt;stroke-linecap:butt;stroke-linejoin:miter;stroke-opacity:1.0000000;display:inline"
       d="M 18.392028,28.457385 C 20.020916,28.499870 18.375506,27.404834 18.620677,28.651150 C 17.512390,29.057739 17.576865,28.753673 18.412286,29.141331 L 17.147460,28.628307 C 18.198030,29.280975 18.825823,30.049750 19.840455,29.300154 C 19.935157,28.072637 18.138094,27.097582 17.125696,27.833882 L 18.392028,28.457385 z "
       id="path3604" />
    <g
       id="g31382"
       transform="matrix(-9.318273e-2,-0.376183,-0.379793,6.639187e-2,94.12012,185.3427)">
      <g
         id="g31400">
        <path
           style="fill:#232323;fill-opacity:1;fill-rule:evenodd;stroke:none;stroke-width:2.375;stroke-linecap:butt;stroke-linejoin:miter;stroke-miterlimit:4;stroke-dasharray:none;stroke-opacity:1;display:inline"
           d="M 464.51208,106.88987 C 450.1793,113.23992 400.38951,139.91106 425.42765,138.09586 C 450.4658,136.28067 472.19471,120.92575 472.19471,120.92575"
           id="path31364"
           sodipodi:nodetypes="csc" />
        <path
           style="fill:none;fill-opacity:0.75;fill-rule:evenodd;stroke:#000000;stroke-width:2.68089771;stroke-linecap:butt;stroke-linejoin:miter;stroke-miterlimit:4;stroke-dasharray:none;stroke-opacity:1;display:inline"
           d="M 465.75543,106.3568 C 452.04469,110.47785 400.80346,139.58534 425.8416,137.77014 C 450.87975,135.95496 472.60867,120.60004 472.60867,120.60004"
           id="path31366"
           sodipodi:nodetypes="csc" />
      </g>
    </g>
  </g>
</svg>
