/* XPM */
static char * wormux_32x32_xpm[] = {
"32 32 297 2",
"  	c None",
". 	c #666E8B",
"+ 	c #747178",
"@ 	c #4E5C8D",
"# 	c #757B8C",
"$ 	c #BEA35F",
"% 	c #AC8D4E",
"& 	c #937544",
"* 	c #45558F",
"= 	c #B5A676",
"- 	c #BDA25E",
"; 	c #AA8B4D",
"> 	c #98753B",
", 	c #5F5B6B",
"' 	c #C6B170",
") 	c #BBA05C",
"! 	c #A98A4B",
"~ 	c #97733A",
"{ 	c #605A68",
"] 	c #C29D61",
"^ 	c #B79254",
"/ 	c #A78247",
"( 	c #957038",
"_ 	c #5A5870",
": 	c #44638F",
"< 	c #537180",
"[ 	c #506D7F",
"} 	c #415F90",
"| 	c #AF603C",
"1 	c #A85532",
"2 	c #9F4929",
"3 	c #953E20",
"4 	c #524A78",
"5 	c #5F8085",
"6 	c #96BB73",
"7 	c #98BC6E",
"8 	c #85A65D",
"9 	c #6B874F",
"0 	c #486377",
"a 	c #AE5F3C",
"b 	c #A75431",
"c 	c #9E4828",
"d 	c #943D1F",
"e 	c #414F92",
"f 	c #506E86",
"g 	c #92B66B",
"h 	c #9FC575",
"i 	c #93B66A",
"j 	c #7C9A54",
"k 	c #647D3F",
"l 	c #566739",
"m 	c #435C7F",
"n 	c #AD5E3C",
"o 	c #A75330",
"p 	c #9D4727",
"q 	c #8B3F2B",
"r 	c #59745E",
"s 	c #6F8A48",
"t 	c #678041",
"u 	c #5C7039",
"v 	c #556336",
"w 	c #525D36",
"x 	c #4C5D54",
"y 	c #3A569D",
"z 	c #B78956",
"A 	c #AD7543",
"B 	c #9F5F33",
"C 	c #7B4E47",
"D 	c #506146",
"E 	c #556337",
"F 	c #7C7D43",
"G 	c #A8903A",
"H 	c #C59F3B",
"I 	c #C4A556",
"J 	c #3D5767",
"K 	c #3C545C",
"L 	c #3A579D",
"M 	c #CCBB8C",
"N 	c #C2AB78",
"O 	c #B19564",
"P 	c #736C73",
"Q 	c #41585F",
"R 	c #587087",
"S 	c #FDF6E3",
"T 	c #FFD98A",
"U 	c #FFE0A0",
"V 	c #FEFDFD",
"W 	c #ADBAD3",
"X 	c #D5C9A9",
"Y 	c #D3C39F",
"Z 	c #C9B796",
"` 	c #757B99",
" .	c #AEBCD4",
"..	c #F9F7F7",
"+.	c #8C746C",
"@.	c #F3F0F0",
"#.	c #A58F87",
"$.	c #6D6570",
"%.	c #C9B98F",
"&.	c #C8B487",
"*.	c #BFA982",
"=.	c #626C97",
"-.	c #E9E9E7",
";.	c #A68A74",
">.	c #EECB85",
",.	c #E2C695",
"'.	c #907F61",
").	c #B59F66",
"!.	c #AE9050",
"~.	c #9C793F",
"{.	c #425594",
"].	c #A8915E",
"^.	c #EEC26A",
"/.	c #F1E0BF",
"(.	c #F4E2BE",
"_.	c #B69754",
":.	c #B39D65",
"<.	c #AD8E4F",
"[.	c #927547",
"}.	c #515A92",
"|.	c #EDE1EC",
"1.	c #FFFFFF",
"2.	c #FFFFFE",
"3.	c #C3A968",
"4.	c #B29B63",
"5.	c #AB8C4D",
"6.	c #826F57",
"7.	c #577099",
"8.	c #EDD4A8",
"9.	c #F6E7C1",
"0.	c #F4E4B3",
"a.	c #CBA754",
"b.	c #B19A62",
"c.	c #AA8A4C",
"d.	c #736967",
"e.	c #466598",
"f.	c #F5CB65",
"g.	c #ECB034",
"h.	c #E5AB32",
"i.	c #CF9F3A",
"j.	c #395C99",
"k.	c #B19960",
"l.	c #A8894B",
"m.	c #666473",
"n.	c #557099",
"o.	c #F9D371",
"p.	c #FFC03E",
"q.	c #EFB132",
"r.	c #C49A40",
"s.	c #B1985E",
"t.	c #A78749",
"u.	c #5C607D",
"v.	c #969F9D",
"w.	c #FBCC60",
"x.	c #F3B535",
"y.	c #A58C54",
"z.	c #B2985C",
"A.	c #A58548",
"B.	c #4E5A8B",
"C.	c #58739A",
"D.	c #B3B49E",
"E.	c #F7D882",
"F.	c #FFC140",
"G.	c #FBBC3B",
"H.	c #E7AA2D",
"I.	c #6C7278",
"J.	c #B39859",
"K.	c #A38347",
"L.	c #3B539E",
"M.	c #4C6A9A",
"N.	c #A4AA9D",
"O.	c #F2D98D",
"P.	c #FCCA59",
"Q.	c #F8BA39",
"R.	c #E8AB2D",
"S.	c #9B8759",
"T.	c #878375",
"U.	c #6A737D",
"V.	c #967D52",
"W.	c #808F9C",
"X.	c #E6D596",
"Y.	c #FBCD61",
"Z.	c #FFC03F",
"`.	c #EEB032",
" +	c #D8A234",
".+	c #7F7B6B",
"++	c #9B8D6C",
"@+	c #D2A444",
"#+	c #727F92",
"$+	c #A6A09D",
"%+	c #3E6099",
"&+	c #A9AE9D",
"*+	c #F8D77F",
"=+	c #FEC244",
"-+	c #FCBD3C",
";+	c #DAA433",
">+	c #8F8261",
",+	c #4A638D",
"'+	c #476392",
")+	c #F6BB40",
"!+	c #8C7C68",
"~+	c #AC8951",
"{+	c #7D6E6E",
"]+	c #A6AB9D",
"^+	c #F9D372",
"/+	c #F6B837",
"(+	c #E3A82F",
"_+	c #96855D",
":+	c #4B648D",
"<+	c #486392",
"[+	c #F4B83D",
"}+	c #947B6A",
"|+	c #95562B",
"1+	c #6B5665",
"2+	c #6B7D96",
"3+	c #637A9A",
"4+	c #F7D883",
"5+	c #FDBE3C",
"6+	c #DBA433",
"7+	c #666F7B",
"8+	c #747776",
"9+	c #7A6B70",
"0+	c #796265",
"a+	c #FEC141",
"b+	c #A9996F",
"c+	c #8A979B",
"d+	c #FCC855",
"e+	c #908261",
"f+	c #56547F",
"g+	c #95582C",
"h+	c #71646E",
"i+	c #FABB3A",
"j+	c #67707C",
"k+	c #7C8C9B",
"l+	c #FEC54A",
"m+	c #AE9357",
"n+	c #696F86",
"o+	c #637692",
"p+	c #FBCA5B",
"q+	c #F2B435",
"r+	c #777872",
"s+	c #516D99",
"t+	c #F7C75A",
"u+	c #FDBF3F",
"v+	c #AB9E77",
"w+	c #5E769A",
"x+	c #4A6899",
"y+	c #6E829B",
"z+	c #A7A895",
"A+	c #F2CA69",
"B+	c #F9BB3B",
"C+	c #D8A336",
"D+	c #476290",
"E+	c #9E926F",
"F+	c #FEBF3D",
"G+	c #FCC956",
"H+	c #E4C779",
"I+	c #CCBE8A",
"J+	c #C5BC92",
"K+	c #C5BD93",
"L+	c #D0C390",
"M+	c #E5CD86",
"N+	c #F8D375",
"O+	c #FCCB5B",
"P+	c #FFC141",
"Q+	c #F6B838",
"R+	c #E2A830",
"S+	c #6A727B",
"T+	c #3D5E97",
"U+	c #A08B5C",
"V+	c #F4B637",
"W+	c #FDBE3D",
"X+	c #F7B938",
"Y+	c #ECAF31",
"Z+	c #CC9E3D",
"`+	c #626F80",
" @	c #626E7F",
".@	c #A58C55",
"+@	c #DAA639",
"@@	c #F0B333",
"#@	c #F2B434",
"$@	c #F1B334",
"%@	c #EBAE30",
"&@	c #E1A730",
"*@	c #B7944A",
"=@	c #797871",
"-@	c #3E5D97",
";@	c #3A5D98",
">@	c #526789",
",@	c #66707D",
"'@	c #717576",
")@	c #737674",
"!@	c #6D7378",
"~@	c #5C6C83",
"{@	c #3F5F95",
"]@	c #3D5A9A",
"^@	c #576287",
"                                            . + @               ",
"                                          # $ % & *             ",
"                                          = - ; > ,             ",
"                                          ' ) ! ~ {             ",
"                                          ] ^ / ( _             ",
"                            : < [ }       | 1 2 3 4             ",
"                          5 6 7 8 9 0     a b c d e             ",
"                        f g h i j k l m   n o p q               ",
"                        r s s t u v w x y z A B C               ",
"                        D E F G H I J K L M N O P               ",
"                        Q R S T U V W     X Y Z `               ",
"                           ...+.@.#.$.    %.&.*.=.              ",
"                            -.;.>.,.'.    ).!.~.{.              ",
"                            ].^./.(._.    :.<.[.                ",
"                            }.|.1.2.3.    4.5.6.                ",
"                            7.8.9.0.a.    b.c.d.                ",
"                            e.f.g.h.i.j.  k.l.m.                ",
"                            n.o.p.q.r.    s.t.u.                ",
"                            v.w.p.x.y.    z.A.B.                ",
"                        C.D.E.F.G.H.I.    J.K.L.                ",
"                    M.N.O.P.p.Q.R.S.    T.U.V.                  ",
"                  W.X.Y.Z.G.`. +.+    ++@+#+$+                  ",
"              %+&+*+=+-+q.;+>+,+    '+)+!+~+{+                  ",
"              ]+^+p./+(+_+:+        <+[+}+|+1+2+                ",
"            3+4+p.5+6+7+              8+9+|+0+a+b+              ",
"            c+d+p.G.e+                  f+g+h+Z.i+j+            ",
"            k+l+p.p.m+                  n+e+o+p+q+r+            ",
"            s+t+p.p.u+v+w+j.        j.x+y+z+A+B+C+D+            ",
"              E+F+p.p.p.G+H+I+J+K+L+M+N+O+P+Q+R+S+              ",
"              T+U+V+W+p.p.p.p.p.p.p.p.F+X+Y+Z+`+                ",
"                   @.@+@`.@@#@q+$@q.%@&@*@=@-@                  ",
"                      ;@>@,@'@)@)@!@~@{@]@^@                    "};
