<?xml version="1.0" encoding="UTF-8" standalone="no"?>
<!-- Created with Inkscape (http://www.inkscape.org/) -->
<svg
   xmlns:dc="http://purl.org/dc/elements/1.1/"
   xmlns:cc="http://web.resource.org/cc/"
   xmlns:rdf="http://www.w3.org/1999/02/22-rdf-syntax-ns#"
   xmlns:svg="http://www.w3.org/2000/svg"
   xmlns="http://www.w3.org/2000/svg"
   xmlns:xlink="http://www.w3.org/1999/xlink"
   xmlns:sodipodi="http://inkscape.sourceforge.net/DTD/sodipodi-0.dtd"
   xmlns:inkscape="http://www.inkscape.org/namespaces/inkscape"
   width="124"
   height="44"
   id="svg1"
   sodipodi:version="0.32"
   inkscape:version="0.43"
   sodipodi:docbase="/home/yekcim/Desktop/SVG/Skins/thunderbirdteam"
   sodipodi:docname="animation.svg"
   inkscape:export-filename="/home/yekcim/Desktop/manchot.png"
   inkscape:export-xdpi="90"
   inkscape:export-ydpi="90"
   version="1.0"
   inkscape:output_extension="org.inkscape.output.svg.inkscape">
  <defs
     id="defs3">
    <defs
       id="defs1062">
      <linearGradient
         inkscape:collect="always"
         id="linearGradient10630">
        <stop
           style="stop-color:#616161;stop-opacity:1;"
           offset="0"
           id="stop10631" />
        <stop
           style="stop-color:#616161;stop-opacity:0;"
           offset="1"
           id="stop10632" />
      </linearGradient>
      <linearGradient
         inkscape:collect="always"
         id="linearGradient10560">
        <stop
           style="stop-color:#000000;stop-opacity:1;"
           offset="0"
           id="stop10561" />
        <stop
           style="stop-color:#000000;stop-opacity:0;"
           offset="1"
           id="stop10562" />
      </linearGradient>
      <linearGradient
         id="linearGradient13777">
        <stop
           offset="0.0000000"
           style="stop-color:#d17d00;stop-opacity:1.0000000;"
           id="stop13779" />
        <stop
           offset="1.0000000"
           style="stop-color:#a7b135;stop-opacity:0.0000000;"
           id="stop13778" />
      </linearGradient>
      <linearGradient
         id="linearGradient11847">
        <stop
           offset="0.0000000"
           style="stop-color:#000000;stop-opacity:1.0000000;"
           id="stop11849" />
        <stop
           offset="1.0000000"
           style="stop-color:#000000;stop-opacity:0.0000000;"
           id="stop11848" />
      </linearGradient>
      <linearGradient
         id="linearGradient6187">
        <stop
           style="stop-color:#2e1b0b;stop-opacity:1.0000000;"
           offset="0.0000000"
           id="stop6188" />
        <stop
           style="stop-color:#431e00;stop-opacity:0;"
           offset="1"
           id="stop6189" />
      </linearGradient>
      <linearGradient
         inkscape:collect="always"
         id="linearGradient4909">
        <stop
           style="stop-color:#000000;stop-opacity:1;"
           offset="0"
           id="stop4910" />
        <stop
           style="stop-color:#000000;stop-opacity:0;"
           offset="1"
           id="stop4911" />
      </linearGradient>
      <linearGradient
         id="linearGradient1780">
        <stop
           style="stop-color:#454545;stop-opacity:1.0000000;"
           offset="0.0000000"
           id="stop1781" />
        <stop
           style="stop-color:#ffffff;stop-opacity:0;"
           offset="1"
           id="stop1782" />
      </linearGradient>
      <linearGradient
         id="linearGradient3869">
        <stop
           offset="0.0000000"
           style="stop-color:#d2dd2e;stop-opacity:1.0000000;"
           id="stop3872" />
        <stop
           offset="0.76146787"
           style="stop-color:#b3b96d;stop-opacity:0.65555555;"
           id="stop3871" />
        <stop
           offset="1.0000000"
           style="stop-color:#b1b952;stop-opacity:0.0000000;"
           id="stop3870" />
      </linearGradient>
      <linearGradient
         inkscape:collect="always"
         xlink:href="#linearGradient9217"
         id="linearGradient3799"
         gradientUnits="userSpaceOnUse"
         gradientTransform="matrix(0.112563,0,0,0.115364,26.43402,157.1761)"
         x1="4373.3052"
         y1="319.33466"
         x2="96.982727"
         y2="2708.2139" />
      <linearGradient
         inkscape:collect="always"
         xlink:href="#linearGradient7337"
         id="linearGradient3800"
         gradientUnits="userSpaceOnUse"
         gradientTransform="matrix(0.230667,0,0,7.644947e-2,26.55186,129.5549)"
         x1="862.1651"
         y1="2479.5938"
         x2="1523.3719"
         y2="2479.5938" />
      <linearGradient
         inkscape:collect="always"
         xlink:href="#linearGradient5442"
         id="linearGradient3801"
         gradientUnits="userSpaceOnUse"
         gradientTransform="matrix(0.162855,0,0,7.648058e-2,75.52973,161.8049)"
         x1="580.22791"
         y1="2173.3171"
         x2="1782.0374"
         y2="1630.2036" />
      <radialGradient
         inkscape:collect="always"
         xlink:href="#linearGradient5442"
         id="radialGradient3802"
         gradientUnits="userSpaceOnUse"
         gradientTransform="matrix(0.159978,0,0,7.785591e-2,363.0923,173.8583)"
         cx="-606.79681"
         cy="1573.4399"
         fx="-606.79681"
         fy="1573.4399"
         r="739.70477" />
      <linearGradient
         inkscape:collect="always"
         xlink:href="#linearGradient21707"
         id="linearGradient3803"
         gradientUnits="userSpaceOnUse"
         gradientTransform="scale(0.659854,1.515487)"
         x1="4848.5972"
         y1="3945.1116"
         x2="5625.4653"
         y2="1720.9402" />
      <linearGradient
         inkscape:collect="always"
         xlink:href="#linearGradient7337"
         id="linearGradient3804"
         gradientUnits="userSpaceOnUse"
         gradientTransform="matrix(0.236634,0,0,0.208284,-2451.443,4783.687)"
         x1="-7797.7422"
         y1="5021.4731"
         x2="-352.84012"
         y2="1184.9034" />
      <linearGradient
         inkscape:collect="always"
         xlink:href="#linearGradient7337"
         id="linearGradient3805"
         gradientUnits="userSpaceOnUse"
         gradientTransform="matrix(0.236634,0,0,0.208284,-2451.443,4783.687)"
         x1="-7797.7422"
         y1="5021.4731"
         x2="-352.84012"
         y2="1184.9034" />
      <defs
         id="defs3745">
        <linearGradient
           id="linearGradient22333"
           x1="0"
           y1="0.5"
           x2="1"
           y2="0.5"
           gradientUnits="objectBoundingBox"
           spreadMethod="pad"
           xlink:href="#linearGradient13777" />
        <linearGradient
           id="linearGradient21707">
          <stop
             style="stop-color:#ffffff;stop-opacity:1.0000000;"
             offset="0.0000000"
             id="stop21708" />
          <stop
             style="stop-color:#a7b135;stop-opacity:0;"
             offset="1"
             id="stop21709" />
        </linearGradient>
        <linearGradient
           inkscape:collect="always"
           id="linearGradient9217"
           x1="0"
           y1="0.5"
           x2="1"
           y2="0.5"
           gradientUnits="objectBoundingBox"
           spreadMethod="pad"
           xlink:href="#linearGradient11847" />
        <linearGradient
           id="linearGradient8584">
          <stop
             style="stop-color:#000000;stop-opacity:1.0000000;"
             offset="0.0000000"
             id="stop8585" />
          <stop
             style="stop-color:#cece4c;stop-opacity:0;"
             offset="1"
             id="stop8586" />
        </linearGradient>
        <linearGradient
           id="linearGradient7337">
          <stop
             style="stop-color:#b1b12f;stop-opacity:1.0000000;"
             offset="0.0000000"
             id="stop7338" />
          <stop
             style="stop-color:#cece4c;stop-opacity:0;"
             offset="1"
             id="stop7339" />
        </linearGradient>
        <linearGradient
           id="linearGradient5442"
           x1="0"
           y1="0.5"
           x2="1"
           y2="0.5"
           gradientUnits="objectBoundingBox"
           spreadMethod="pad"
           xlink:href="#linearGradient3869" />
      </defs>
      <sodipodi:namedview
         id="namedview3772"
         pagecolor="#ffffff"
         bordercolor="#666666"
         borderopacity="1.0"
         inkscape:pageopacity="0.0"
         inkscape:pageshadow="2"
         inkscape:zoom="0.80057989"
         inkscape:cx="297.63780"
         inkscape:cy="420.94487"
         inkscape:current-layer="layer1"
         inkscape:window-width="1440"
         inkscape:window-height="851"
         inkscape:window-x="0"
         inkscape:window-y="27"
         showguides="true"
         inkscape:guide-bbox="true" />
      <metadata
         id="metadata3773">
        <rdf:RDF>
          <cc:Work
             rdf:about="">
            <dc:format>image/svg+xml</dc:format>
            <dc:type
               rdf:resource="http://purl.org/dc/dcmitype/StillImage" />
          </cc:Work>
        </rdf:RDF>
      </metadata>
      <linearGradient
         inkscape:collect="always"
         xlink:href="#linearGradient4909"
         id="linearGradient6167"
         gradientUnits="userSpaceOnUse"
         gradientTransform="scale(0.891889,1.121216)"
         x1="-148.77991"
         y1="106.3186"
         x2="-160.14931"
         y2="-66.932083" />
      <linearGradient
         inkscape:collect="always"
         xlink:href="#linearGradient10560"
         id="linearGradient10563"
         gradientTransform="matrix(0.915477,0.127968,-0.149762,1.071392,19.54851,-8.45341)"
         x1="698.5448"
         y1="69.852913"
         x2="758.31232"
         y2="359.09653"
         gradientUnits="userSpaceOnUse" />
      <linearGradient
         inkscape:collect="always"
         xlink:href="#linearGradient10560"
         id="linearGradient10578"
         gradientUnits="userSpaceOnUse"
         gradientTransform="matrix(0.915477,0.127968,-0.149762,1.071392,0,0)"
         x1="647.37115"
         y1="96.894905"
         x2="770.59186"
         y2="342.74301" />
      <linearGradient
         inkscape:collect="always"
         xlink:href="#linearGradient4909"
         id="linearGradient10604"
         gradientUnits="userSpaceOnUse"
         gradientTransform="scale(0.891889,1.121216)"
         x1="-148.77991"
         y1="106.3186"
         x2="-160.14931"
         y2="-66.932083" />
      <linearGradient
         inkscape:collect="always"
         xlink:href="#linearGradient10630"
         id="linearGradient10633"
         gradientTransform="scale(0.883732,1.131565)"
         x1="-164.59187"
         y1="105.15539"
         x2="-154.1456"
         y2="3.6783011"
         gradientUnits="userSpaceOnUse" />
      <linearGradient
         inkscape:collect="always"
         xlink:href="#linearGradient10630"
         id="linearGradient10647"
         gradientUnits="userSpaceOnUse"
         gradientTransform="scale(0.883732,1.131565)"
         x1="-164.59187"
         y1="105.15539"
         x2="-154.1456"
         y2="3.6783011" />
      <radialGradient
         inkscape:collect="always"
         xlink:href="#linearGradient1780"
         id="radialGradient5568"
         gradientUnits="userSpaceOnUse"
         gradientTransform="matrix(-0.663014,1.058409,1.330757,0.590372,-891.7907,666.4254)"
         cx="-446.72464"
         cy="218.60974"
         fx="-446.72464"
         fy="218.60974"
         r="308.80975" />
      <linearGradient
         inkscape:collect="always"
         xlink:href="#linearGradient10630"
         id="linearGradient4391"
         gradientUnits="userSpaceOnUse"
         gradientTransform="matrix(0.437171,-0.479724,0.614848,0.55753,723.0732,-61.92042)"
         x1="-164.59187"
         y1="105.15539"
         x2="-154.1456"
         y2="3.6783011" />
    </defs>
  </defs>
  <sodipodi:namedview
     id="base"
     pagecolor="#ffffff"
     bordercolor="#666666"
     borderopacity="1.0"
     inkscape:pageopacity="0.0"
     inkscape:pageshadow="2"
     inkscape:zoom="7.4204542"
     inkscape:cx="72.223963"
     inkscape:cy="34.587327"
     inkscape:current-layer="g1160"
     inkscape:window-width="1440"
     inkscape:window-height="826"
     inkscape:window-x="0"
     inkscape:window-y="26" />
  <metadata
     id="metadata4">
    <rdf:RDF>
      <cc:Work
         rdf:about="">
        <dc:format>image/svg+xml</dc:format>
        <dc:type
           rdf:resource="http://purl.org/dc/dcmitype/StillImage" />
      </cc:Work>
    </rdf:RDF>
  </metadata>
  <g
     id="g1160"
     inkscape:groupmode="layer"
     inkscape:label="Layer 1"
     style="display:inline">
    <g
       id="g2827">
      <g
         id="g2635">
        <path
           id="path3019"
           d="M 14.783117,8.4554548 C 14.783117,9.8182858 15.574711,10.854609 16.55007,10.768679 C 17.525428,10.68275 18.317021,9.5069473 18.317021,8.1441164 C 18.317021,6.7812855 17.525428,5.7449593 16.55007,5.8308888 C 15.574711,5.9168183 14.783117,7.092624 14.783117,8.4554548 z "
           style="fill:#000000;fill-opacity:1;fill-rule:nonzero;stroke:#0f0f0f;stroke-width:0;stroke-miterlimit:4;stroke-opacity:1" />
        <path
           id="path3020"
           d="M 17.653492,8.4962261 C 17.653492,9.4442351 18.258605,10.160327 19.004185,10.094641 C 19.749771,10.028954 20.354878,9.2062418 20.354878,8.2582328 C 20.354878,7.310221 19.749771,6.5941316 19.004185,6.659818 C 18.258605,6.7255039 17.653492,7.5482143 17.653492,8.4962261 z "
           style="fill:#000000;fill-opacity:1;fill-rule:nonzero;stroke:#0f0f0f;stroke-width:0;stroke-miterlimit:4;stroke-opacity:1" />
        <path
           id="path3021"
           d="M 18.017256,8.5158316 C 18.017256,9.2216676 18.465066,9.7550639 19.01684,9.7064525 C 19.568607,9.6578415 20.016421,9.0455403 20.016421,8.3397042 C 20.016421,7.6338709 19.568607,7.1004748 19.01684,7.1490858 C 18.465066,7.1976973 18.017256,7.8099983 18.017256,8.5158316 z "
           style="fill:#f1c616;fill-opacity:1;fill-rule:nonzero;stroke:#0f0f0f;stroke-width:0;stroke-miterlimit:4;stroke-opacity:1" />
        <path
           id="path3643"
           d="M 15.293135,8.5894898 C 15.413517,9.6685962 16.144404,10.409542 16.924576,10.243384 C 17.704751,10.077225 18.240239,9.0665734 18.119855,7.9874672 C 17.999477,6.9083632 17.268593,6.16742 16.488418,6.3335784 C 15.708245,6.4997337 15.172757,7.5103858 15.293135,8.5894898 z "
           style="fill:#f1c616;fill-opacity:1;fill-rule:nonzero;stroke:#0f0f0f;stroke-width:0;stroke-miterlimit:4;stroke-opacity:1" />
        <path
           id="path3644"
           d="M 16.431639,9.4498338 C 16.431639,9.9024524 16.823538,10.235272 17.30642,10.19273 C 17.789299,10.150188 18.181198,9.7483155 18.181198,9.2956969 C 18.181198,8.8430785 17.789299,8.5102617 17.30642,8.5528035 C 16.823538,8.5953456 16.431639,8.9972154 16.431639,9.4498338 z "
           style="fill:#000000;fill-opacity:1;fill-rule:nonzero;stroke:#0f0f0f;stroke-width:0;stroke-miterlimit:4;stroke-opacity:1" />
        <path
           id="path4706"
           d="M 18.245591,9.1731143 C 18.245591,9.5517758 18.573454,9.8302132 18.977434,9.7946224 C 19.381412,9.7590319 19.709275,9.4228246 19.709275,9.0441631 C 19.709275,8.6655016 19.381412,8.3870665 18.977434,8.4226571 C 18.573454,8.4582479 18.245591,8.7944529 18.245591,9.1731143 z "
           style="fill:#000000;fill-opacity:1;fill-rule:nonzero;stroke:#0f0f0f;stroke-width:0;stroke-miterlimit:4;stroke-opacity:1;display:inline" />
      </g>
      <g
         id="g2643">
        <path
           style="fill:#000000;fill-opacity:1;fill-rule:nonzero;stroke:#0f0f0f;stroke-width:0;stroke-miterlimit:4;stroke-opacity:1"
           d="M 45.783207,8.4554548 C 45.783207,9.8182858 46.574801,10.854609 47.55016,10.768679 C 48.525518,10.68275 49.317111,9.5069473 49.317111,8.1441164 C 49.317111,6.7812855 48.525518,5.7449593 47.55016,5.8308888 C 46.574801,5.9168183 45.783207,7.092624 45.783207,8.4554548 z "
           id="path1473" />
        <path
           style="fill:#000000;fill-opacity:1;fill-rule:nonzero;stroke:#0f0f0f;stroke-width:0;stroke-miterlimit:4;stroke-opacity:1"
           d="M 48.653582,8.4962261 C 48.653582,9.4442351 49.258695,10.160327 50.004275,10.094641 C 50.749861,10.028954 51.354968,9.2062418 51.354968,8.2582328 C 51.354968,7.310221 50.749861,6.5941316 50.004275,6.659818 C 49.258695,6.7255039 48.653582,7.5482143 48.653582,8.4962261 z "
           id="path1475" />
        <path
           style="fill:#f1c616;fill-opacity:1;fill-rule:nonzero;stroke:#0f0f0f;stroke-width:0;stroke-miterlimit:4;stroke-opacity:1"
           d="M 49.017346,8.5158316 C 49.017346,9.2216676 49.465156,9.7550639 50.01693,9.7064525 C 50.568697,9.6578415 51.016511,9.0455403 51.016511,8.3397042 C 51.016511,7.6338709 50.568697,7.1004748 50.01693,7.1490858 C 49.465156,7.1976973 49.017346,7.8099983 49.017346,8.5158316 z "
           id="path1477" />
        <path
           style="fill:#f1c616;fill-opacity:1;fill-rule:nonzero;stroke:#0f0f0f;stroke-width:0;stroke-miterlimit:4;stroke-opacity:1"
           d="M 46.293225,8.5894898 C 46.413607,9.6685962 47.144494,10.409542 47.924666,10.243384 C 48.704841,10.077225 49.240329,9.0665734 49.119945,7.9874672 C 48.999567,6.9083632 48.268683,6.16742 47.488508,6.3335784 C 46.708335,6.4997337 46.172847,7.5103858 46.293225,8.5894898 z "
           id="path1479" />
        <path
           style="fill:#000000;fill-opacity:1;fill-rule:nonzero;stroke:#0f0f0f;stroke-width:0;stroke-miterlimit:4;stroke-opacity:1"
           d="M 47.134293,9.0019874 C 47.134293,9.454606 47.526192,9.7874254 48.009074,9.7448833 C 48.491953,9.7023415 48.883852,9.3004691 48.883852,8.8478505 C 48.883852,8.3952321 48.491953,8.0624153 48.009074,8.1049571 C 47.526192,8.1474992 47.134293,8.549369 47.134293,9.0019874 z "
           id="path1481" />
        <path
           style="fill:#000000;fill-opacity:1;fill-rule:nonzero;stroke:#0f0f0f;stroke-width:0;stroke-miterlimit:4;stroke-opacity:1;display:inline"
           d="M 49.202124,8.8292483 C 49.202124,9.2818668 49.594023,9.6146863 50.076905,9.5721442 C 50.559784,9.5296024 50.951683,9.1277299 50.951683,8.6751114 C 50.951683,8.2224929 50.559784,7.8896761 50.076905,7.9322179 C 49.594023,7.97476 49.202124,8.3766298 49.202124,8.8292483 z "
           id="path1483" />
        <path
           style="fill:#000000;fill-opacity:1;fill-rule:nonzero;stroke:#0f0f0f;stroke-width:0;stroke-miterlimit:4;stroke-opacity:1"
           d="M 45.782997,8.4554548 C 45.782997,9.8182858 46.574591,10.854609 47.54995,10.768679 C 48.525308,10.68275 49.316901,9.5069473 49.316901,8.1441164 C 49.316901,6.7812855 48.525308,5.7449593 47.54995,5.8308888 C 46.574591,5.9168183 45.782997,7.092624 45.782997,8.4554548 z "
           id="path2421" />
        <path
           style="fill:#000000;fill-opacity:1;fill-rule:nonzero;stroke:#0f0f0f;stroke-width:0;stroke-miterlimit:4;stroke-opacity:1"
           d="M 48.653372,8.4962261 C 48.653372,9.4442351 49.258485,10.160327 50.004065,10.094641 C 50.749651,10.028954 51.354758,9.2062418 51.354758,8.2582328 C 51.354758,7.310221 50.749651,6.5941316 50.004065,6.659818 C 49.258485,6.7255039 48.653372,7.5482143 48.653372,8.4962261 z "
           id="path2423" />
        <path
           style="fill:#f1c616;fill-opacity:1;fill-rule:nonzero;stroke:#0f0f0f;stroke-width:0;stroke-miterlimit:4;stroke-opacity:1"
           d="M 49.017136,8.5158316 C 49.017136,9.2216676 49.464946,9.7550639 50.01672,9.7064525 C 50.568487,9.6578415 51.016301,9.0455403 51.016301,8.3397042 C 51.016301,7.6338709 50.568487,7.1004748 50.01672,7.1490858 C 49.464946,7.1976973 49.017136,7.8099983 49.017136,8.5158316 z "
           id="path2425" />
        <path
           style="fill:#f1c616;fill-opacity:1;fill-rule:nonzero;stroke:#0f0f0f;stroke-width:0;stroke-miterlimit:4;stroke-opacity:1"
           d="M 46.293015,8.5894898 C 46.413397,9.6685962 47.144284,10.409542 47.924456,10.243384 C 48.704631,10.077225 49.240119,9.0665734 49.119735,7.9874672 C 48.999357,6.9083632 48.268473,6.16742 47.488298,6.3335784 C 46.708125,6.4997337 46.172637,7.5103858 46.293015,8.5894898 z "
           id="path2427" />
        <path
           style="fill:#000000;fill-opacity:1;fill-rule:nonzero;stroke:#0f0f0f;stroke-width:0;stroke-miterlimit:4;stroke-opacity:1"
           d="M 46.45449,9.6182871 C 46.45449,10.070906 46.846389,10.403725 47.329271,10.361183 C 47.81215,10.318641 48.204049,9.9167688 48.204049,9.4641502 C 48.204049,9.0115318 47.81215,8.678715 47.329271,8.7212568 C 46.846389,8.7637989 46.45449,9.1656687 46.45449,9.6182871 z "
           id="path2429" />
        <path
           style="fill:#000000;fill-opacity:1;fill-rule:nonzero;stroke:#0f0f0f;stroke-width:0;stroke-miterlimit:4;stroke-opacity:1;display:inline"
           d="M 48.95621,9.2684059 C 48.95621,9.6470674 49.284073,9.9255048 49.688053,9.889914 C 50.092031,9.8543235 50.419894,9.5181162 50.419894,9.1394547 C 50.419894,8.7607932 50.092031,8.4823581 49.688053,8.5179487 C 49.284073,8.5535395 48.95621,8.8897445 48.95621,9.2684059 z "
           id="path2431" />
      </g>
      <g
         id="g2657">
        <path
           style="fill:#000000;fill-opacity:1;fill-rule:nonzero;stroke:#0f0f0f;stroke-width:0;stroke-miterlimit:4;stroke-opacity:1"
           d="M 76.786207,8.4554548 C 76.786207,9.8182858 77.577801,10.854609 78.55316,10.768679 C 79.528518,10.68275 80.320111,9.5069473 80.320111,8.1441164 C 80.320111,6.7812855 79.528518,5.7449593 78.55316,5.8308888 C 77.577801,5.9168183 76.786207,7.092624 76.786207,8.4554548 z "
           id="path1589" />
        <path
           style="fill:#000000;fill-opacity:1;fill-rule:nonzero;stroke:#0f0f0f;stroke-width:0;stroke-miterlimit:4;stroke-opacity:1"
           d="M 79.656582,8.4962261 C 79.656582,9.4442351 80.261695,10.160327 81.007275,10.094641 C 81.752861,10.028954 82.357968,9.2062418 82.357968,8.2582328 C 82.357968,7.310221 81.752861,6.5941316 81.007275,6.659818 C 80.261695,6.7255039 79.656582,7.5482143 79.656582,8.4962261 z "
           id="path1591" />
        <path
           style="fill:#f1c616;fill-opacity:1;fill-rule:nonzero;stroke:#0f0f0f;stroke-width:0;stroke-miterlimit:4;stroke-opacity:1"
           d="M 80.020346,8.5158316 C 80.020346,9.2216676 80.468156,9.7550639 81.01993,9.7064525 C 81.571697,9.6578415 82.019511,9.0455403 82.019511,8.3397042 C 82.019511,7.6338709 81.571697,7.1004748 81.01993,7.1490858 C 80.468156,7.1976973 80.020346,7.8099983 80.020346,8.5158316 z "
           id="path1593" />
        <path
           style="fill:#f1c616;fill-opacity:1;fill-rule:nonzero;stroke:#0f0f0f;stroke-width:0;stroke-miterlimit:4;stroke-opacity:1"
           d="M 77.296225,8.5894898 C 77.416607,9.6685962 78.147494,10.409542 78.927666,10.243384 C 79.707841,10.077225 80.243329,9.0665734 80.122945,7.9874672 C 80.002567,6.9083632 79.271683,6.16742 78.491508,6.3335784 C 77.711335,6.4997337 77.175847,7.5103858 77.296225,8.5894898 z "
           id="path1595" />
        <path
           style="fill:#000000;fill-opacity:1;fill-rule:nonzero;stroke:#0f0f0f;stroke-width:0;stroke-miterlimit:4;stroke-opacity:1"
           d="M 78.137293,9.0019874 C 78.137293,9.454606 78.529192,9.7874254 79.012074,9.7448833 C 79.494953,9.7023415 79.886852,9.3004691 79.886852,8.8478505 C 79.886852,8.3952321 79.494953,8.0624153 79.012074,8.1049571 C 78.529192,8.1474992 78.137293,8.549369 78.137293,9.0019874 z "
           id="path1597" />
        <path
           style="fill:#000000;fill-opacity:1;fill-rule:nonzero;stroke:#0f0f0f;stroke-width:0;stroke-miterlimit:4;stroke-opacity:1;display:inline"
           d="M 80.205124,8.8292483 C 80.205124,9.2818668 80.597023,9.6146863 81.079905,9.5721442 C 81.562784,9.5296024 81.954683,9.1277299 81.954683,8.6751114 C 81.954683,8.2224929 81.562784,7.8896761 81.079905,7.9322179 C 80.597023,7.97476 80.205124,8.3766298 80.205124,8.8292483 z "
           id="path1599" />
        <path
           style="fill:#000000;fill-opacity:1;fill-rule:nonzero;stroke:#0f0f0f;stroke-width:0;stroke-miterlimit:4;stroke-opacity:1"
           d="M 76.782997,8.4554548 C 76.782997,9.8182858 77.574591,10.854609 78.54995,10.768679 C 79.525308,10.68275 80.316901,9.5069473 80.316901,8.1441164 C 80.316901,6.7812855 79.525308,5.7449593 78.54995,5.8308888 C 77.574591,5.9168183 76.782997,7.092624 76.782997,8.4554548 z "
           id="path2475" />
        <path
           style="fill:#000000;fill-opacity:1;fill-rule:nonzero;stroke:#0f0f0f;stroke-width:0;stroke-miterlimit:4;stroke-opacity:1"
           d="M 79.653372,8.4962261 C 79.653372,9.4442351 80.258485,10.160327 81.004065,10.094641 C 81.749651,10.028954 82.354758,9.2062418 82.354758,8.2582328 C 82.354758,7.310221 81.749651,6.5941316 81.004065,6.659818 C 80.258485,6.7255039 79.653372,7.5482143 79.653372,8.4962261 z "
           id="path2477" />
        <path
           style="fill:#f1c616;fill-opacity:1;fill-rule:nonzero;stroke:#0f0f0f;stroke-width:0;stroke-miterlimit:4;stroke-opacity:1"
           d="M 80.017136,8.5158316 C 80.017136,9.2216676 80.464946,9.7550639 81.01672,9.7064525 C 81.568487,9.6578415 82.016301,9.0455403 82.016301,8.3397042 C 82.016301,7.6338709 81.568487,7.1004748 81.01672,7.1490858 C 80.464946,7.1976973 80.017136,7.8099983 80.017136,8.5158316 z "
           id="path2479" />
        <path
           style="fill:#f1c616;fill-opacity:1;fill-rule:nonzero;stroke:#0f0f0f;stroke-width:0;stroke-miterlimit:4;stroke-opacity:1"
           d="M 77.293015,8.5894898 C 77.413397,9.6685962 78.144284,10.409542 78.924456,10.243384 C 79.704631,10.077225 80.240119,9.0665734 80.119735,7.9874672 C 79.999357,6.9083632 79.268473,6.16742 78.488298,6.3335784 C 77.708125,6.4997337 77.172637,7.5103858 77.293015,8.5894898 z "
           id="path2481" />
        <path
           style="fill:#000000;fill-opacity:1;fill-rule:nonzero;stroke:#0f0f0f;stroke-width:0;stroke-miterlimit:4;stroke-opacity:1"
           d="M 78.431519,9.4498338 C 78.431519,9.9024524 78.823418,10.235272 79.3063,10.19273 C 79.789179,10.150188 80.181078,9.7483155 80.181078,9.2956969 C 80.181078,8.8430785 79.789179,8.5102617 79.3063,8.5528035 C 78.823418,8.5953456 78.431519,8.9972154 78.431519,9.4498338 z "
           id="path2483" />
        <path
           style="fill:#000000;fill-opacity:1;fill-rule:nonzero;stroke:#0f0f0f;stroke-width:0;stroke-miterlimit:4;stroke-opacity:1;display:inline"
           d="M 80.245471,9.1731143 C 80.245471,9.5517758 80.573334,9.8302132 80.977314,9.7946224 C 81.381292,9.7590319 81.709155,9.4228246 81.709155,9.0441631 C 81.709155,8.6655016 81.381292,8.3870665 80.977314,8.4226571 C 80.573334,8.4582479 80.245471,8.7944529 80.245471,9.1731143 z "
           id="path2485" />
      </g>
      <g
         id="g2685">
        <g
           id="g2389">
          <rect
             transform="matrix(0.940636,-0.339417,-0.143489,0.989652,0,0)"
             y="32.295818"
             x="14.546456"
             height="14.373583"
             width="22.406521"
             id="rect1502"
             style="color:#000000;fill:#ddc998;fill-opacity:1;fill-rule:nonzero;stroke:#000000;stroke-width:0.95022136;stroke-linecap:round;stroke-linejoin:round;marker:none;marker-start:none;marker-mid:none;marker-end:none;stroke-miterlimit:4;stroke-dasharray:none;stroke-dashoffset:0;stroke-opacity:1;visibility:visible;display:inline;overflow:visible" />
          <path
             sodipodi:nodetypes="cccc"
             id="path2379"
             d="M 6.9837314,41.250098 L 15.739532,30.466797 L 20.907703,28.627171 L 27.743527,33.658203"
             style="fill:none;fill-opacity:0.75;fill-rule:evenodd;stroke:#000000;stroke-width:0.41749999;stroke-linecap:round;stroke-linejoin:round;stroke-miterlimit:4;stroke-dasharray:none;stroke-opacity:1" />
          <path
             id="path2377"
             d="M 9.1839392,27.177505 L 18.070639,31.291792 L 29.943735,19.585609"
             style="fill:#ddc998;fill-opacity:1;fill-rule:evenodd;stroke:#000000;stroke-width:0.89249998;stroke-linecap:round;stroke-linejoin:round;stroke-miterlimit:4;stroke-dasharray:none;stroke-opacity:1" />
        </g>
        <g
           id="g2433"
           transform="translate(30.99988,0)">
          <rect
             style="color:#000000;fill:#ddc998;fill-opacity:1;fill-rule:nonzero;stroke:#000000;stroke-width:0.95022136;stroke-linecap:round;stroke-linejoin:round;marker:none;marker-start:none;marker-mid:none;marker-end:none;stroke-miterlimit:4;stroke-dasharray:none;stroke-dashoffset:0;stroke-opacity:1;visibility:visible;display:inline;overflow:visible"
             id="rect2435"
             width="22.406521"
             height="14.373583"
             x="14.546456"
             y="32.295818"
             transform="matrix(0.940636,-0.339417,-0.143489,0.989652,0,0)" />
          <path
             style="fill:none;fill-opacity:0.75;fill-rule:evenodd;stroke:#000000;stroke-width:0.41749999;stroke-linecap:round;stroke-linejoin:round;stroke-miterlimit:4;stroke-dasharray:none;stroke-opacity:1"
             d="M 6.9837314,41.250098 L 15.739532,30.466797 L 20.907703,28.627171 L 27.743527,33.658203"
             id="path2437"
             sodipodi:nodetypes="cccc" />
          <path
             style="fill:#ddc998;fill-opacity:1;fill-rule:evenodd;stroke:#000000;stroke-width:0.89249998;stroke-linecap:round;stroke-linejoin:round;stroke-miterlimit:4;stroke-dasharray:none;stroke-opacity:1"
             d="M 9.1839392,27.177505 L 18.070639,31.291792 L 29.943735,19.585609"
             id="path2439" />
        </g>
        <g
           id="g2487"
           transform="translate(61.99988,0)">
          <rect
             style="color:#000000;fill:#ddc998;fill-opacity:1;fill-rule:nonzero;stroke:#000000;stroke-width:0.95022136;stroke-linecap:round;stroke-linejoin:round;marker:none;marker-start:none;marker-mid:none;marker-end:none;stroke-miterlimit:4;stroke-dasharray:none;stroke-dashoffset:0;stroke-opacity:1;visibility:visible;display:inline;overflow:visible"
             id="rect2489"
             width="22.406521"
             height="14.373583"
             x="14.546456"
             y="32.295818"
             transform="matrix(0.940636,-0.339417,-0.143489,0.989652,0,0)" />
          <path
             style="fill:none;fill-opacity:0.75;fill-rule:evenodd;stroke:#000000;stroke-width:0.41749999;stroke-linecap:round;stroke-linejoin:round;stroke-miterlimit:4;stroke-dasharray:none;stroke-opacity:1"
             d="M 6.9837314,41.250098 L 15.739532,30.466797 L 20.907703,28.627171 L 27.743527,33.658203"
             id="path2491"
             sodipodi:nodetypes="cccc" />
          <path
             style="fill:#ddc998;fill-opacity:1;fill-rule:evenodd;stroke:#000000;stroke-width:0.89249998;stroke-linecap:round;stroke-linejoin:round;stroke-miterlimit:4;stroke-dasharray:none;stroke-opacity:1"
             d="M 9.1839392,27.177505 L 18.070639,31.291792 L 29.943735,19.585609"
             id="path2493" />
        </g>
        <g
           id="g2671">
          <path
             style="fill:#000000;fill-opacity:1;fill-rule:nonzero;stroke:#0f0f0f;stroke-width:0;stroke-miterlimit:4;stroke-opacity:1"
             d="M 107.7863,8.4554548 C 107.7863,9.8182858 108.57789,10.854609 109.55325,10.768679 C 110.52861,10.68275 111.3202,9.5069473 111.3202,8.1441164 C 111.3202,6.7812855 110.52861,5.7449593 109.55325,5.8308888 C 108.57789,5.9168183 107.7863,7.092624 107.7863,8.4554548 z "
             id="path1639" />
          <path
             style="fill:#000000;fill-opacity:1;fill-rule:nonzero;stroke:#0f0f0f;stroke-width:0;stroke-miterlimit:4;stroke-opacity:1"
             d="M 110.65667,8.4962261 C 110.65667,9.4442351 111.26179,10.160327 112.00736,10.094641 C 112.75295,10.028954 113.35806,9.2062418 113.35806,8.2582328 C 113.35806,7.310221 112.75295,6.5941316 112.00736,6.659818 C 111.26179,6.7255039 110.65667,7.5482143 110.65667,8.4962261 z "
             id="path1641" />
          <path
             style="fill:#f1c616;fill-opacity:1;fill-rule:nonzero;stroke:#0f0f0f;stroke-width:0;stroke-miterlimit:4;stroke-opacity:1"
             d="M 111.02044,8.5158316 C 111.02044,9.2216676 111.46825,9.7550639 112.02002,9.7064525 C 112.57179,9.6578415 113.0196,9.0455403 113.0196,8.3397042 C 113.0196,7.6338709 112.57179,7.1004748 112.02002,7.1490858 C 111.46825,7.1976973 111.02044,7.8099983 111.02044,8.5158316 z "
             id="path1643" />
          <path
             style="fill:#f1c616;fill-opacity:1;fill-rule:nonzero;stroke:#0f0f0f;stroke-width:0;stroke-miterlimit:4;stroke-opacity:1"
             d="M 108.29631,8.5894898 C 108.4167,9.6685962 109.14758,10.409542 109.92776,10.243384 C 110.70793,10.077225 111.24342,9.0665734 111.12304,7.9874672 C 111.00266,6.9083632 110.27177,6.16742 109.4916,6.3335784 C 108.71143,6.4997337 108.17594,7.5103858 108.29631,8.5894898 z "
             id="path1645" />
          <path
             style="fill:#000000;fill-opacity:1;fill-rule:nonzero;stroke:#0f0f0f;stroke-width:0;stroke-miterlimit:4;stroke-opacity:1"
             d="M 109.13738,9.0019874 C 109.13738,9.454606 109.52928,9.7874254 110.01216,9.7448833 C 110.49504,9.7023415 110.88694,9.3004691 110.88694,8.8478505 C 110.88694,8.3952321 110.49504,8.0624153 110.01216,8.1049571 C 109.52928,8.1474992 109.13738,8.549369 109.13738,9.0019874 z "
             id="path1647" />
          <path
             style="fill:#000000;fill-opacity:1;fill-rule:nonzero;stroke:#0f0f0f;stroke-width:0;stroke-miterlimit:4;stroke-opacity:1;display:inline"
             d="M 111.20521,8.8292483 C 111.20521,9.2818668 111.59711,9.6146863 112.07999,9.5721442 C 112.56287,9.5296024 112.95477,9.1277299 112.95477,8.6751114 C 112.95477,8.2224929 112.56287,7.8896761 112.07999,7.9322179 C 111.59711,7.97476 111.20521,8.3766298 111.20521,8.8292483 z "
             id="path1649" />
          <path
             style="fill:#000000;fill-opacity:1;fill-rule:nonzero;stroke:#0f0f0f;stroke-width:0;stroke-miterlimit:4;stroke-opacity:1"
             d="M 107.78288,8.4554548 C 107.78288,9.8182858 108.57447,10.854609 109.54983,10.768679 C 110.52519,10.68275 111.31678,9.5069473 111.31678,8.1441164 C 111.31678,6.7812855 110.52519,5.7449593 109.54983,5.8308888 C 108.57447,5.9168183 107.78288,7.092624 107.78288,8.4554548 z "
             id="path2499" />
          <path
             style="fill:#000000;fill-opacity:1;fill-rule:nonzero;stroke:#0f0f0f;stroke-width:0;stroke-miterlimit:4;stroke-opacity:1"
             d="M 110.65325,8.4962261 C 110.65325,9.4442351 111.25836,10.160327 112.00394,10.094641 C 112.74953,10.028954 113.35464,9.2062418 113.35464,8.2582328 C 113.35464,7.310221 112.74953,6.5941316 112.00394,6.659818 C 111.25836,6.7255039 110.65325,7.5482143 110.65325,8.4962261 z "
             id="path2501" />
          <path
             style="fill:#f1c616;fill-opacity:1;fill-rule:nonzero;stroke:#0f0f0f;stroke-width:0;stroke-miterlimit:4;stroke-opacity:1"
             d="M 111.01702,8.5158316 C 111.01702,9.2216676 111.46483,9.7550639 112.0166,9.7064525 C 112.56837,9.6578415 113.01618,9.0455403 113.01618,8.3397042 C 113.01618,7.6338709 112.56837,7.1004748 112.0166,7.1490858 C 111.46483,7.1976973 111.01702,7.8099983 111.01702,8.5158316 z "
             id="path2503" />
          <path
             style="fill:#f1c616;fill-opacity:1;fill-rule:nonzero;stroke:#0f0f0f;stroke-width:0;stroke-miterlimit:4;stroke-opacity:1"
             d="M 108.29289,8.5894898 C 108.41328,9.6685962 109.14416,10.409542 109.92434,10.243384 C 110.70451,10.077225 111.24,9.0665734 111.11961,7.9874672 C 110.99924,6.9083632 110.26835,6.16742 109.48818,6.3335784 C 108.708,6.4997337 108.17252,7.5103858 108.29289,8.5894898 z "
             id="path2505" />
          <path
             style="fill:#000000;fill-opacity:1;fill-rule:nonzero;stroke:#0f0f0f;stroke-width:0;stroke-miterlimit:4;stroke-opacity:1"
             d="M 109.62198,9.3068964 C 109.62198,9.759515 110.01388,10.092335 110.49676,10.049793 C 110.97964,10.007251 111.37154,9.6053781 111.37154,9.1527595 C 111.37154,8.7001411 110.97964,8.3673243 110.49676,8.4098661 C 110.01388,8.4524082 109.62198,8.854278 109.62198,9.3068964 z "
             id="path2507" />
          <path
             style="fill:#000000;fill-opacity:1;fill-rule:nonzero;stroke:#0f0f0f;stroke-width:0;stroke-miterlimit:4;stroke-opacity:1;display:inline"
             d="M 111.57888,9.0301769 C 111.57888,9.4088384 111.90674,9.6872758 112.31072,9.651685 C 112.7147,9.6160945 113.04257,9.2798872 113.04257,8.9012257 C 113.04257,8.5225642 112.7147,8.2441291 112.31072,8.2797197 C 111.90674,8.3153105 111.57888,8.6515155 111.57888,9.0301769 z "
             id="path2509" />
        </g>
        <g
           id="g2511"
           transform="translate(92.99976,0)">
          <rect
             transform="matrix(0.940636,-0.339417,-0.143489,0.989652,0,0)"
             y="32.295818"
             x="14.546456"
             height="14.373583"
             width="22.406521"
             id="rect2513"
             style="color:#000000;fill:#ddc998;fill-opacity:1;fill-rule:nonzero;stroke:#000000;stroke-width:0.95022136;stroke-linecap:round;stroke-linejoin:round;marker:none;marker-start:none;marker-mid:none;marker-end:none;stroke-miterlimit:4;stroke-dasharray:none;stroke-dashoffset:0;stroke-opacity:1;visibility:visible;display:inline;overflow:visible" />
          <path
             sodipodi:nodetypes="cccc"
             id="path2515"
             d="M 6.9837314,41.250098 L 15.739532,30.466797 L 20.907703,28.627171 L 27.743527,33.658203"
             style="fill:none;fill-opacity:0.75;fill-rule:evenodd;stroke:#000000;stroke-width:0.41749999;stroke-linecap:round;stroke-linejoin:round;stroke-miterlimit:4;stroke-dasharray:none;stroke-opacity:1" />
          <path
             id="path2517"
             d="M 9.1839392,27.177505 L 18.070639,31.291792 L 29.943735,19.585609"
             style="fill:#ddc998;fill-opacity:1;fill-rule:evenodd;stroke:#000000;stroke-width:0.89249998;stroke-linecap:round;stroke-linejoin:round;stroke-miterlimit:4;stroke-dasharray:none;stroke-opacity:1" />
        </g>
      </g>
    </g>
  </g>
</svg>
