<?xml version="1.0" encoding="UTF-8" standalone="no"?>
<!-- Created with Inkscape (http://www.inkscape.org/) -->
<svg
   xmlns:dc="http://purl.org/dc/elements/1.1/"
   xmlns:cc="http://web.resource.org/cc/"
   xmlns:rdf="http://www.w3.org/1999/02/22-rdf-syntax-ns#"
   xmlns:svg="http://www.w3.org/2000/svg"
   xmlns="http://www.w3.org/2000/svg"
   xmlns:xlink="http://www.w3.org/1999/xlink"
   xmlns:sodipodi="http://inkscape.sourceforge.net/DTD/sodipodi-0.dtd"
   xmlns:inkscape="http://www.inkscape.org/namespaces/inkscape"
   width="31"
   height="44"
   id="svg1"
   sodipodi:version="0.32"
   inkscape:version="0.43"
   sodipodi:docbase="/home/yekcim/Desktop/SVG/Skins/thunderbirdteam"
   sodipodi:docname="bird.svg"
   inkscape:export-filename="/home/yekcim/Desktop/manchot.png"
   inkscape:export-xdpi="90"
   inkscape:export-ydpi="90"
   version="1.0"
   inkscape:output_extension="org.inkscape.output.svg.inkscape">
  <defs
     id="defs3">
    <linearGradient
       inkscape:collect="always"
       id="linearGradient2285">
      <stop
         style="stop-color:#0d348b;stop-opacity:1;"
         offset="0"
         id="stop2287" />
      <stop
         style="stop-color:#0d348b;stop-opacity:0;"
         offset="1"
         id="stop2289" />
    </linearGradient>
    <linearGradient
       id="linearGradient2410">
      <stop
         style="stop-color:#0d348b;stop-opacity:1;"
         offset="0"
         id="stop2412" />
      <stop
         style="stop-color:#5697be;stop-opacity:1;"
         offset="1"
         id="stop2414" />
    </linearGradient>
    <linearGradient
       id="linearGradient2331">
      <stop
         style="stop-color:#1763a1;stop-opacity:1;"
         offset="0"
         id="stop2333" />
      <stop
         style="stop-color:#68a6c7;stop-opacity:1;"
         offset="1"
         id="stop2335" />
    </linearGradient>
    <linearGradient
       id="linearGradient2306">
      <stop
         style="stop-color:#6a6a6b;stop-opacity:1;"
         offset="0"
         id="stop2308" />
      <stop
         style="stop-color:#c7c7c7;stop-opacity:1;"
         offset="1"
         id="stop2310" />
    </linearGradient>
    <defs
       id="defs1062">
      <linearGradient
         inkscape:collect="always"
         id="linearGradient10630">
        <stop
           style="stop-color:#616161;stop-opacity:1;"
           offset="0"
           id="stop10631" />
        <stop
           style="stop-color:#616161;stop-opacity:0;"
           offset="1"
           id="stop10632" />
      </linearGradient>
      <linearGradient
         inkscape:collect="always"
         id="linearGradient10560">
        <stop
           style="stop-color:#000000;stop-opacity:1;"
           offset="0"
           id="stop10561" />
        <stop
           style="stop-color:#000000;stop-opacity:0;"
           offset="1"
           id="stop10562" />
      </linearGradient>
      <linearGradient
         id="linearGradient13777">
        <stop
           offset="0.0000000"
           style="stop-color:#d17d00;stop-opacity:1.0000000;"
           id="stop13779" />
        <stop
           offset="1.0000000"
           style="stop-color:#a7b135;stop-opacity:0.0000000;"
           id="stop13778" />
      </linearGradient>
      <linearGradient
         id="linearGradient11847">
        <stop
           offset="0.0000000"
           style="stop-color:#000000;stop-opacity:1.0000000;"
           id="stop11849" />
        <stop
           offset="1.0000000"
           style="stop-color:#000000;stop-opacity:0.0000000;"
           id="stop11848" />
      </linearGradient>
      <linearGradient
         id="linearGradient6187">
        <stop
           style="stop-color:#2e1b0b;stop-opacity:1.0000000;"
           offset="0.0000000"
           id="stop6188" />
        <stop
           style="stop-color:#431e00;stop-opacity:0;"
           offset="1"
           id="stop6189" />
      </linearGradient>
      <linearGradient
         inkscape:collect="always"
         id="linearGradient4909">
        <stop
           style="stop-color:#000000;stop-opacity:1;"
           offset="0"
           id="stop4910" />
        <stop
           style="stop-color:#000000;stop-opacity:0;"
           offset="1"
           id="stop4911" />
      </linearGradient>
      <linearGradient
         id="linearGradient1780">
        <stop
           style="stop-color:#454545;stop-opacity:1.0000000;"
           offset="0.0000000"
           id="stop1781" />
        <stop
           style="stop-color:#ffffff;stop-opacity:0;"
           offset="1"
           id="stop1782" />
      </linearGradient>
      <linearGradient
         id="linearGradient3869">
        <stop
           offset="0.0000000"
           style="stop-color:#d2dd2e;stop-opacity:1.0000000;"
           id="stop3872" />
        <stop
           offset="0.76146787"
           style="stop-color:#b3b96d;stop-opacity:0.65555555;"
           id="stop3871" />
        <stop
           offset="1.0000000"
           style="stop-color:#b1b952;stop-opacity:0.0000000;"
           id="stop3870" />
      </linearGradient>
      <linearGradient
         inkscape:collect="always"
         xlink:href="#linearGradient9217"
         id="linearGradient3799"
         gradientUnits="userSpaceOnUse"
         gradientTransform="matrix(0.112563,0,0,0.115364,26.43402,157.1761)"
         x1="4373.3052"
         y1="319.33466"
         x2="96.982727"
         y2="2708.2139" />
      <linearGradient
         inkscape:collect="always"
         xlink:href="#linearGradient7337"
         id="linearGradient3800"
         gradientUnits="userSpaceOnUse"
         gradientTransform="matrix(0.230667,0,0,7.644947e-2,26.55186,129.5549)"
         x1="862.1651"
         y1="2479.5938"
         x2="1523.3719"
         y2="2479.5938" />
      <linearGradient
         inkscape:collect="always"
         xlink:href="#linearGradient5442"
         id="linearGradient3801"
         gradientUnits="userSpaceOnUse"
         gradientTransform="matrix(0.162855,0,0,7.648058e-2,75.52973,161.8049)"
         x1="580.22791"
         y1="2173.3171"
         x2="1782.0374"
         y2="1630.2036" />
      <radialGradient
         inkscape:collect="always"
         xlink:href="#linearGradient5442"
         id="radialGradient3802"
         gradientUnits="userSpaceOnUse"
         gradientTransform="matrix(0.159978,0,0,7.785591e-2,363.0923,173.8583)"
         cx="-606.79681"
         cy="1573.4399"
         fx="-606.79681"
         fy="1573.4399"
         r="739.70477" />
      <linearGradient
         inkscape:collect="always"
         xlink:href="#linearGradient21707"
         id="linearGradient3803"
         gradientUnits="userSpaceOnUse"
         gradientTransform="scale(0.659854,1.515487)"
         x1="4848.5972"
         y1="3945.1116"
         x2="5625.4653"
         y2="1720.9402" />
      <linearGradient
         inkscape:collect="always"
         xlink:href="#linearGradient7337"
         id="linearGradient3804"
         gradientUnits="userSpaceOnUse"
         gradientTransform="matrix(0.236634,0,0,0.208284,-2451.443,4783.687)"
         x1="-7797.7422"
         y1="5021.4731"
         x2="-352.84012"
         y2="1184.9034" />
      <linearGradient
         inkscape:collect="always"
         xlink:href="#linearGradient7337"
         id="linearGradient3805"
         gradientUnits="userSpaceOnUse"
         gradientTransform="matrix(0.236634,0,0,0.208284,-2451.443,4783.687)"
         x1="-7797.7422"
         y1="5021.4731"
         x2="-352.84012"
         y2="1184.9034" />
      <defs
         id="defs3745">
        <linearGradient
           id="linearGradient22333"
           x1="0"
           y1="0.5"
           x2="1"
           y2="0.5"
           gradientUnits="objectBoundingBox"
           spreadMethod="pad"
           xlink:href="#linearGradient13777" />
        <linearGradient
           id="linearGradient21707">
          <stop
             style="stop-color:#ffffff;stop-opacity:1.0000000;"
             offset="0.0000000"
             id="stop21708" />
          <stop
             style="stop-color:#a7b135;stop-opacity:0;"
             offset="1"
             id="stop21709" />
        </linearGradient>
        <linearGradient
           inkscape:collect="always"
           id="linearGradient9217"
           x1="0"
           y1="0.5"
           x2="1"
           y2="0.5"
           gradientUnits="objectBoundingBox"
           spreadMethod="pad"
           xlink:href="#linearGradient11847" />
        <linearGradient
           id="linearGradient8584">
          <stop
             style="stop-color:#000000;stop-opacity:1.0000000;"
             offset="0.0000000"
             id="stop8585" />
          <stop
             style="stop-color:#cece4c;stop-opacity:0;"
             offset="1"
             id="stop8586" />
        </linearGradient>
        <linearGradient
           id="linearGradient7337">
          <stop
             style="stop-color:#b1b12f;stop-opacity:1.0000000;"
             offset="0.0000000"
             id="stop7338" />
          <stop
             style="stop-color:#cece4c;stop-opacity:0;"
             offset="1"
             id="stop7339" />
        </linearGradient>
        <linearGradient
           id="linearGradient5442"
           x1="0"
           y1="0.5"
           x2="1"
           y2="0.5"
           gradientUnits="objectBoundingBox"
           spreadMethod="pad"
           xlink:href="#linearGradient3869" />
      </defs>
      <sodipodi:namedview
         id="namedview3772"
         pagecolor="#ffffff"
         bordercolor="#666666"
         borderopacity="1.0"
         inkscape:pageopacity="0.0"
         inkscape:pageshadow="2"
         inkscape:zoom="0.80057989"
         inkscape:cx="297.63780"
         inkscape:cy="420.94487"
         inkscape:current-layer="layer1"
         inkscape:window-width="1440"
         inkscape:window-height="851"
         inkscape:window-x="0"
         inkscape:window-y="27"
         showguides="true"
         inkscape:guide-bbox="true" />
      <metadata
         id="metadata3773">
        <rdf:RDF>
          <cc:Work
             rdf:about="">
            <dc:format>image/svg+xml</dc:format>
            <dc:type
               rdf:resource="http://purl.org/dc/dcmitype/StillImage" />
          </cc:Work>
        </rdf:RDF>
      </metadata>
      <linearGradient
         inkscape:collect="always"
         xlink:href="#linearGradient4909"
         id="linearGradient6167"
         gradientUnits="userSpaceOnUse"
         gradientTransform="scale(0.891889,1.121216)"
         x1="-148.77991"
         y1="106.3186"
         x2="-160.14931"
         y2="-66.932083" />
      <linearGradient
         inkscape:collect="always"
         xlink:href="#linearGradient10560"
         id="linearGradient10563"
         gradientTransform="matrix(0.915477,0.127968,-0.149762,1.071392,19.54851,-8.45341)"
         x1="698.5448"
         y1="69.852913"
         x2="758.31232"
         y2="359.09653"
         gradientUnits="userSpaceOnUse" />
      <linearGradient
         inkscape:collect="always"
         xlink:href="#linearGradient10560"
         id="linearGradient10578"
         gradientUnits="userSpaceOnUse"
         gradientTransform="matrix(0.915477,0.127968,-0.149762,1.071392,0,0)"
         x1="647.37115"
         y1="96.894905"
         x2="770.59186"
         y2="342.74301" />
      <linearGradient
         inkscape:collect="always"
         xlink:href="#linearGradient4909"
         id="linearGradient10604"
         gradientUnits="userSpaceOnUse"
         gradientTransform="scale(0.891889,1.121216)"
         x1="-148.77991"
         y1="106.3186"
         x2="-160.14931"
         y2="-66.932083" />
      <linearGradient
         inkscape:collect="always"
         xlink:href="#linearGradient10630"
         id="linearGradient10633"
         gradientTransform="scale(0.883732,1.131565)"
         x1="-164.59187"
         y1="105.15539"
         x2="-154.1456"
         y2="3.6783011"
         gradientUnits="userSpaceOnUse" />
      <linearGradient
         inkscape:collect="always"
         xlink:href="#linearGradient10630"
         id="linearGradient10647"
         gradientUnits="userSpaceOnUse"
         gradientTransform="scale(0.883732,1.131565)"
         x1="-164.59187"
         y1="105.15539"
         x2="-154.1456"
         y2="3.6783011" />
      <radialGradient
         inkscape:collect="always"
         xlink:href="#linearGradient1780"
         id="radialGradient5568"
         gradientUnits="userSpaceOnUse"
         gradientTransform="matrix(-0.663014,1.058409,1.330757,0.590372,-891.7907,666.4254)"
         cx="-446.72464"
         cy="218.60974"
         fx="-446.72464"
         fy="218.60974"
         r="308.80975" />
      <linearGradient
         inkscape:collect="always"
         xlink:href="#linearGradient10630"
         id="linearGradient4391"
         gradientUnits="userSpaceOnUse"
         gradientTransform="matrix(0.437171,-0.479724,0.614848,0.55753,723.0732,-61.92042)"
         x1="-164.59187"
         y1="105.15539"
         x2="-154.1456"
         y2="3.6783011" />
    </defs>
    <linearGradient
       inkscape:collect="always"
       xlink:href="#linearGradient2331"
       id="linearGradient2337"
       x1="21.736279"
       y1="17.181818"
       x2="11.174212"
       y2="4.4421611"
       gradientUnits="userSpaceOnUse"
       gradientTransform="translate(3.190494,2.730002)" />
    <linearGradient
       inkscape:collect="always"
       xlink:href="#linearGradient2306"
       id="linearGradient2364"
       gradientUnits="userSpaceOnUse"
       gradientTransform="translate(-0.664239,0.438523)"
       x1="17.11726"
       y1="11.110526"
       x2="17.876976"
       y2="9.9866724" />
    <radialGradient
       inkscape:collect="always"
       xlink:href="#linearGradient2285"
       id="radialGradient2294"
       gradientUnits="userSpaceOnUse"
       gradientTransform="matrix(0.744878,-1.695914,1.517516,0.666524,-42.80168,51.19212)"
       cx="23.654802"
       cy="30.782257"
       fx="23.654802"
       fy="30.782257"
       r="6.2138119" />
    <linearGradient
       inkscape:collect="always"
       xlink:href="#linearGradient2410"
       id="linearGradient2291"
       x1="2.7784317"
       y1="29.519632"
       x2="10.612691"
       y2="18.977943"
       gradientUnits="userSpaceOnUse"
       gradientTransform="matrix(1.021298,0.200795,8.684867e-2,0.996222,-3.91693,-0.257211)" />
    <linearGradient
       inkscape:collect="always"
       xlink:href="#linearGradient2410"
       id="linearGradient2295"
       gradientUnits="userSpaceOnUse"
       x1="2.7784317"
       y1="29.519632"
       x2="10.358426"
       y2="20.062078"
       gradientTransform="matrix(-0.94045,0.532165,0.38407,0.84599,19.98825,-1.651551)" />
  </defs>
  <sodipodi:namedview
     id="base"
     pagecolor="#ffffff"
     bordercolor="#666666"
     borderopacity="1.0"
     inkscape:pageopacity="0.0"
     inkscape:pageshadow="2"
     inkscape:zoom="14.840909"
     inkscape:cx="20.486217"
     inkscape:cy="22.202144"
     inkscape:current-layer="g1160"
     inkscape:window-width="1440"
     inkscape:window-height="826"
     inkscape:window-x="0"
     inkscape:window-y="26" />
  <metadata
     id="metadata4">
    <rdf:RDF>
      <cc:Work
         rdf:about="">
        <dc:format>image/svg+xml</dc:format>
        <dc:type
           rdf:resource="http://purl.org/dc/dcmitype/StillImage" />
      </cc:Work>
    </rdf:RDF>
  </metadata>
  <g
     id="g1160"
     inkscape:groupmode="layer"
     inkscape:label="Layer 1"
     style="display:inline">
    <path
       style="fill:url(#linearGradient2295);fill-opacity:1;fill-rule:evenodd;stroke:#000000;stroke-width:0.69799846;stroke-linecap:round;stroke-linejoin:round;stroke-miterlimit:4;stroke-dasharray:none;stroke-opacity:1;display:inline"
       d="M 17.609628,17.031723 C 31.433727,17.761747 31.326639,34.432218 27.671004,36.903824 C 27.697632,36.673027 28.227669,31.690674 27.49697,30.856405 C 28.01718,33.790911 25.95977,34.665963 25.916589,34.582285 C 26.417352,31.481836 26.463368,30.606006 25.853835,29.150221 C 26.189572,31.816677 24.064563,32.737048 24.197529,32.562012 C 24.601144,30.167314 24.254547,27.261196 23.741861,27.152472 C 24.141082,29.383741 22.778777,30.727627 22.738897,30.754678 C 22.750534,30.374439 22.932403,26.973107 22.028124,25.914704 C 21.917816,26.901943 21.229807,28.252335 21.034984,28.376382 C 21.55708,26.817927 20.436128,24.936156 20.436128,24.936156"
       id="path2293"
       sodipodi:nodetypes="ccccccccccc" />
    <g
       id="g2370"
       transform="matrix(-0.341772,0,-4.925855e-2,0.374098,183.1297,-22.05503)"
       style="fill:#a8a8a9;fill-opacity:1;display:inline">
      <path
         sodipodi:nodetypes="ccsssz"
         id="path2372"
         d="M 458.78172,155.64201 C 464.45972,154.43052 462.86934,158.60907 462.86934,158.60907 C 462.86934,158.60907 451.08778,177.1449 451.79178,169.88475 C 452.49578,162.62459 433.1779,177.17343 441.2708,169.27276 C 449.3637,161.37209 420.9501,173.7702 440.15738,163.45502 C 444.16207,161.30432 453.10373,156.8535 458.78172,155.64201 z "
         style="fill:#a8a8a9;fill-opacity:1;fill-rule:evenodd;stroke:none;stroke-width:2.06699991;stroke-linecap:butt;stroke-linejoin:miter;stroke-miterlimit:4;stroke-dasharray:none;stroke-opacity:1;display:inline" />
      <path
         sodipodi:nodetypes="ccsssz"
         id="path2374"
         d="M 457.86465,155.97029 C 463.54264,154.7588 461.95227,158.93735 461.95227,158.93735 C 461.95227,158.93735 450.17071,177.47317 450.87471,170.21302 C 451.57871,162.95286 432.26083,177.50171 440.35373,169.60104 C 448.44662,161.70036 420.03302,174.09847 439.24031,163.78329 C 443.245,161.63259 452.18666,157.18177 457.86465,155.97029 z "
         style="fill:#a8a8a9;fill-opacity:1;fill-rule:evenodd;stroke:none;stroke-width:2.06699991;stroke-linecap:butt;stroke-linejoin:miter;stroke-miterlimit:4;stroke-dasharray:none;stroke-opacity:1;display:inline" />
      <path
         sodipodi:nodetypes="csssc"
         id="path2376"
         d="M 462.23239,158.97662 C 462.23239,158.97662 450.45083,177.51245 451.15483,170.25229 C 451.85883,162.99214 432.54095,177.54098 440.63385,169.64031 C 448.72674,161.73963 420.31314,174.13775 439.52043,163.82256 C 443.52512,161.67187 458.14477,156.00956 458.14477,156.00956"
         style="fill:#a8a8a9;fill-opacity:1;fill-rule:evenodd;stroke:#000000;stroke-width:1.97249997;stroke-linecap:round;stroke-linejoin:round;stroke-miterlimit:4;stroke-dasharray:none;stroke-opacity:1" />
    </g>
    <g
       id="g30587"
       transform="matrix(-0.341772,0,-0.108369,0.374098,185.835,-21.39443)"
       style="fill:#a8a8a9;fill-opacity:1;display:inline">
      <path
         sodipodi:nodetypes="ccsssz"
         id="path30564"
         d="M 458.78172,155.64201 C 464.45972,154.43052 462.86934,158.60907 462.86934,158.60907 C 462.86934,158.60907 451.08778,177.1449 451.79178,169.88475 C 452.49578,162.62459 433.1779,177.17343 441.2708,169.27276 C 449.3637,161.37209 420.9501,173.7702 440.15738,163.45502 C 444.16207,161.30432 453.10373,156.8535 458.78172,155.64201 z "
         style="fill:#a8a8a9;fill-opacity:1;fill-rule:evenodd;stroke:none;stroke-width:2.06699991;stroke-linecap:butt;stroke-linejoin:miter;stroke-miterlimit:4;stroke-dasharray:none;stroke-opacity:1;display:inline" />
      <path
         sodipodi:nodetypes="ccsssz"
         id="path30566"
         d="M 457.86465,155.97029 C 463.54264,154.7588 461.95227,158.93735 461.95227,158.93735 C 461.95227,158.93735 450.17071,177.47317 450.87471,170.21302 C 451.57871,162.95286 432.26083,177.50171 440.35373,169.60104 C 448.44662,161.70036 420.03302,174.09847 439.24031,163.78329 C 443.245,161.63259 452.18666,157.18177 457.86465,155.97029 z "
         style="fill:#a8a8a9;fill-opacity:1;fill-rule:evenodd;stroke:none;stroke-width:2.06699991;stroke-linecap:butt;stroke-linejoin:miter;stroke-miterlimit:4;stroke-dasharray:none;stroke-opacity:1;display:inline" />
      <path
         sodipodi:nodetypes="csssc"
         id="path30568"
         d="M 462.23239,158.97662 C 462.23239,158.97662 450.45083,177.51245 451.15483,170.25229 C 451.85883,162.99214 432.54095,177.54098 440.63385,169.64031 C 448.72674,161.73963 420.31314,174.13775 439.52043,163.82256 C 443.52512,161.67187 458.14477,156.00956 458.14477,156.00956"
         style="fill:#a8a8a9;fill-opacity:1;fill-rule:evenodd;stroke:#000000;stroke-width:1.97249997;stroke-linecap:round;stroke-linejoin:round;stroke-miterlimit:4;stroke-dasharray:none;stroke-opacity:1" />
    </g>
    <g
       inkscape:label="Layer 1"
       id="g29199"
       transform="matrix(-0.80024,0,0,0.80024,372.6259,-77.80494)" />
    <g
       id="g29315"
       inkscape:label="Layer 1"
       transform="matrix(-0.80024,0,0,0.80024,1530.027,255.1263)" />
    <g
       inkscape:label="Layer 1"
       id="g29317"
       transform="matrix(-0.80024,0,0,0.80024,2197.244,222.64)" />
    <g
       inkscape:label="Layer 1"
       id="g3589"
       transform="matrix(-0.757324,0,0,0.76036,343.2353,-58.62023)" />
    <g
       id="g3591"
       inkscape:label="Layer 1"
       transform="matrix(-0.757324,0,0,0.76036,1438.565,257.7193)" />
    <g
       inkscape:label="Layer 1"
       id="g3593"
       transform="matrix(-0.757324,0,0,0.76036,2070.001,226.852)" />
    <path
       style="fill:url(#linearGradient2337);fill-opacity:1;fill-rule:evenodd;stroke:none;stroke-width:0.92659229;stroke-linecap:butt;stroke-linejoin:miter;stroke-miterlimit:4;stroke-dasharray:none;stroke-opacity:1;display:inline"
       d="M 17.699029,16.247253 C 18.781239,14.092645 20.611416,7.3164683 19.445617,5.7122454 C 18.225426,4.0331739 15.220214,1.6714319 10.566211,6.1648399 C 2.1187738,14.320783 7.2621422,35.900153 14.706586,37.431207 C 30.721885,39.728984 24.66053,25.242231 20.148219,23.505351 C 20.148219,23.505351 16.61682,18.401861 17.699029,16.247253 z M 20.089071,23.475659 C 18.833496,23.083897 17.424515,23.385567 15.88955,24.128897"
       id="path3596"
       sodipodi:nodetypes="czsccscc" />
    <path
       style="color:#000000;fill:url(#radialGradient2294);fill-opacity:1;fill-rule:nonzero;stroke:none;stroke-width:0.84875;stroke-linecap:round;stroke-linejoin:round;marker:none;marker-start:none;marker-mid:none;marker-end:none;stroke-miterlimit:4;stroke-dashoffset:0;stroke-opacity:1;visibility:visible;display:inline;overflow:visible"
       d="M 25.13263,30.266864 C 25.587117,36.97059 21.976455,37.227611 17.730104,37.514706 C 12.967385,37.836712 10.173451,34.659409 9.0459465,30.487835 C 7.9574972,26.46076 13.423653,23.671617 18.437212,23.372574 C 22.554248,23.127005 24.554675,26.688682 25.13263,30.266864 z "
       id="path1410"
       sodipodi:nodetypes="csssc" />
    <path
       style="fill:none;fill-opacity:1;fill-rule:evenodd;stroke:#000000;stroke-width:0.87900001;stroke-linecap:round;stroke-linejoin:round;stroke-miterlimit:4;stroke-dasharray:none;stroke-opacity:1;display:inline"
       d="M 19.320145,5.8382206 C 19.200031,5.6239796 17.812396,3.2714118 15.209345,3.4925007 C 15.16989,3.4958517 15.13105,3.4879385 15.091049,3.4925007 C 13.851011,3.6339304 12.372171,4.4018792 10.566211,6.1648399 C 1.4420727,15.071735 7.1374499,36.238817 15.614797,37.431207 C 27.987241,39.171466 27.498243,26.816767 20.148219,23.505351 C 20.148219,23.505351 16.677226,18.385259 17.759435,16.230651 M 20.089071,23.475659 C 19.628991,23.349062 16.982573,23.076208 15.88955,24.128897"
       id="path3594"
       sodipodi:nodetypes="cscsscscc" />
    <path
       style="fill:#000000;fill-opacity:1;fill-rule:nonzero;stroke:none;stroke-width:1pt;stroke-linecap:butt;stroke-linejoin:miter;stroke-opacity:1;display:inline"
       d="M 20.875415,31.982882 C 22.504303,32.025367 20.858893,30.930331 21.104064,32.176647 C 19.995777,32.583236 20.060252,32.27917 20.895673,32.666828 L 19.630847,32.153804 C 20.681417,32.806472 21.30921,33.575247 22.323842,32.825651 C 22.418544,31.598134 20.621481,30.623079 19.609083,31.359379 L 20.875415,31.982882 z "
       id="path3604" />
    <g
       id="g2352"
       transform="matrix(1.232795,-0.102297,0.173477,1.274376,-2.534161,1.179338)">
      <path
         sodipodi:nodetypes="ccssc"
         id="path1431"
         d="M 17.619727,13.156987 C 17.619727,13.156987 18.761396,10.029462 15.481493,7.6934039 C 14.990276,9.9137273 12.686156,9.4154374 12.532491,9.4362263 C 12.378825,9.4570148 13.265025,10.156332 12.642433,11.133403 C 12.019841,12.110472 14.095931,10.310856 17.619727,13.156987 z "
         style="fill:url(#linearGradient2364);fill-opacity:1;fill-rule:evenodd;stroke:#000000;stroke-width:0.375;stroke-linecap:round;stroke-linejoin:round;stroke-miterlimit:4;stroke-dasharray:none;stroke-opacity:1" />
      <path
         id="path2314"
         d="M 12.715596,9.5688085 C 12.715596,9.5688085 15.027522,9.8577993 17.59633,12.876148"
         style="fill:none;fill-opacity:0.75;fill-rule:evenodd;stroke:#000000;stroke-width:0.2;stroke-linecap:round;stroke-linejoin:round;stroke-miterlimit:4;stroke-dasharray:none;stroke-opacity:1" />
    </g>
    <path
       style="fill:#68a6c7;fill-opacity:1;fill-rule:evenodd;stroke:#000000;stroke-width:0.87900001;stroke-linecap:round;stroke-linejoin:round;stroke-miterlimit:4;stroke-dasharray:none;stroke-opacity:1"
       d="M 18.582991,4.9187032 C 15.880693,1.2740324 13.629878,1.2374051 13.61886,1.1434039 C 13.61886,1.1434039 16.626216,4.2792847 15.729933,4.6820493 C 13.307791,1.9885748 12.288759,2.5139033 12.193976,2.4850533 C 12.127051,2.4922802 15.039223,4.5884003 14.132355,5.026095 C 11.957707,3.3738756 10.507886,3.7715975 10.589575,3.8171449 C 10.61384,3.8443342 12.463303,4.9978202 12.685398,5.7375336"
       id="path2329"
       sodipodi:nodetypes="ccccccs" />
    <path
       style="fill:url(#linearGradient2291);fill-opacity:1;fill-rule:evenodd;stroke:#000000;stroke-width:0.69799846;stroke-linecap:round;stroke-linejoin:round;stroke-miterlimit:4;stroke-dasharray:none;stroke-opacity:1"
       d="M 6.8827961,17.830963 C -4.076436,23.551812 3.9117213,40.417354 8.0726232,41.606536 C 7.9414671,41.3821 5.1467375,36.520876 5.3489141,35.411656 C 6.3142299,38.574713 8.4114711,38.720781 8.4071267,38.620373 C 6.5282224,35.656884 6.0755111,34.785357 5.8840467,33.089564 C 6.8731881,35.914352 9.0471877,36.082018 8.8554959,35.952435 C 7.390512,33.669588 6.2966691,30.597865 6.6644103,30.302905 C 7.3953898,32.709281 9.1463732,33.581187 9.1918063,33.594248 C 9.002084,33.212872 7.24137,29.829391 7.4792758,28.430357 C 8.0373645,29.391692 9.2399986,30.513133 9.4581111,30.568728 C 8.2925529,29.176531 8.3174347,26.864525 8.3174347,26.864525"
       id="path2404"
       sodipodi:nodetypes="ccccccccccc" />
    <path
       id="path3019"
       d="M 14.783117,8.4554548 C 14.783117,9.8182858 15.574711,10.854609 16.55007,10.768679 C 17.525428,10.68275 18.317021,9.5069473 18.317021,8.1441164 C 18.317021,6.7812855 17.525428,5.7449593 16.55007,5.8308888 C 15.574711,5.9168183 14.783117,7.092624 14.783117,8.4554548 z "
       style="fill:#000000;fill-opacity:1;fill-rule:nonzero;stroke:#0f0f0f;stroke-width:0;stroke-miterlimit:4;stroke-opacity:1" />
    <path
       id="path3020"
       d="M 17.653492,8.4962261 C 17.653492,9.4442351 18.258605,10.160327 19.004185,10.094641 C 19.749771,10.028954 20.354878,9.2062418 20.354878,8.2582328 C 20.354878,7.310221 19.749771,6.5941316 19.004185,6.659818 C 18.258605,6.7255039 17.653492,7.5482143 17.653492,8.4962261 z "
       style="fill:#000000;fill-opacity:1;fill-rule:nonzero;stroke:#0f0f0f;stroke-width:0;stroke-miterlimit:4;stroke-opacity:1" />
    <path
       id="path3021"
       d="M 18.017256,8.5158316 C 18.017256,9.2216676 18.465066,9.7550639 19.01684,9.7064525 C 19.568607,9.6578415 20.016421,9.0455403 20.016421,8.3397042 C 20.016421,7.6338709 19.568607,7.1004748 19.01684,7.1490858 C 18.465066,7.1976973 18.017256,7.8099983 18.017256,8.5158316 z "
       style="fill:#f1c616;fill-opacity:1;fill-rule:nonzero;stroke:#0f0f0f;stroke-width:0;stroke-miterlimit:4;stroke-opacity:1" />
    <path
       id="path3643"
       d="M 15.293135,8.5894898 C 15.413517,9.6685962 16.144404,10.409542 16.924576,10.243384 C 17.704751,10.077225 18.240239,9.0665734 18.119855,7.9874672 C 17.999477,6.9083632 17.268593,6.16742 16.488418,6.3335784 C 15.708245,6.4997337 15.172757,7.5103858 15.293135,8.5894898 z "
       style="fill:#f1c616;fill-opacity:1;fill-rule:nonzero;stroke:#0f0f0f;stroke-width:0;stroke-miterlimit:4;stroke-opacity:1" />
    <path
       id="path3644"
       d="M 16.134203,9.0019874 C 16.134203,9.454606 16.526102,9.7874254 17.008984,9.7448833 C 17.491863,9.7023415 17.883762,9.3004691 17.883762,8.8478505 C 17.883762,8.3952321 17.491863,8.0624153 17.008984,8.1049571 C 16.526102,8.1474992 16.134203,8.549369 16.134203,9.0019874 z "
       style="fill:#000000;fill-opacity:1;fill-rule:nonzero;stroke:#0f0f0f;stroke-width:0;stroke-miterlimit:4;stroke-opacity:1" />
    <path
       id="path4706"
       d="M 18.202034,8.8292483 C 18.202034,9.2818668 18.593933,9.6146863 19.076815,9.5721442 C 19.559694,9.5296024 19.951593,9.1277299 19.951593,8.6751114 C 19.951593,8.2224929 19.559694,7.8896761 19.076815,7.9322179 C 18.593933,7.97476 18.202034,8.3766298 18.202034,8.8292483 z "
       style="fill:#000000;fill-opacity:1;fill-rule:nonzero;stroke:#0f0f0f;stroke-width:0;stroke-miterlimit:4;stroke-opacity:1;display:inline" />
  </g>
</svg>
