<?xml version="1.0" encoding="UTF-8" standalone="no"?>
<!-- Created with Inkscape (http://www.inkscape.org/) -->
<svg
   xmlns:dc="http://purl.org/dc/elements/1.1/"
   xmlns:cc="http://web.resource.org/cc/"
   xmlns:rdf="http://www.w3.org/1999/02/22-rdf-syntax-ns#"
   xmlns:svg="http://www.w3.org/2000/svg"
   xmlns="http://www.w3.org/2000/svg"
   xmlns:xlink="http://www.w3.org/1999/xlink"
   xmlns:sodipodi="http://inkscape.sourceforge.net/DTD/sodipodi-0.dtd"
   xmlns:inkscape="http://www.inkscape.org/namespaces/inkscape"
   width="28"
   height="50"
   id="svg1"
   sodipodi:version="0.32"
   inkscape:version="0.43"
   sodipodi:docbase="/home/yekcim/Desktop/SVG/Skins/thunderbirdteam"
   sodipodi:docname="drowned.svg"
   inkscape:export-filename="/home/yekcim/Desktop/manchot.png"
   inkscape:export-xdpi="90"
   inkscape:export-ydpi="90"
   version="1.0"
   inkscape:output_extension="org.inkscape.output.svg.inkscape">
  <defs
     id="defs3">
    <linearGradient
       inkscape:collect="always"
       id="linearGradient2285">
      <stop
         style="stop-color:#0d348b;stop-opacity:1;"
         offset="0"
         id="stop2287" />
      <stop
         style="stop-color:#0d348b;stop-opacity:0;"
         offset="1"
         id="stop2289" />
    </linearGradient>
    <linearGradient
       id="linearGradient2410">
      <stop
         style="stop-color:#0d348b;stop-opacity:1;"
         offset="0"
         id="stop2412" />
      <stop
         style="stop-color:#5697be;stop-opacity:1;"
         offset="1"
         id="stop2414" />
    </linearGradient>
    <linearGradient
       id="linearGradient2331">
      <stop
         style="stop-color:#1763a1;stop-opacity:1;"
         offset="0"
         id="stop2333" />
      <stop
         style="stop-color:#68a6c7;stop-opacity:1;"
         offset="1"
         id="stop2335" />
    </linearGradient>
    <linearGradient
       id="linearGradient2306">
      <stop
         style="stop-color:#6a6a6b;stop-opacity:1;"
         offset="0"
         id="stop2308" />
      <stop
         style="stop-color:#c7c7c7;stop-opacity:1;"
         offset="1"
         id="stop2310" />
    </linearGradient>
    <defs
       id="defs1062">
      <linearGradient
         inkscape:collect="always"
         id="linearGradient10630">
        <stop
           style="stop-color:#616161;stop-opacity:1;"
           offset="0"
           id="stop10631" />
        <stop
           style="stop-color:#616161;stop-opacity:0;"
           offset="1"
           id="stop10632" />
      </linearGradient>
      <linearGradient
         inkscape:collect="always"
         id="linearGradient10560">
        <stop
           style="stop-color:#000000;stop-opacity:1;"
           offset="0"
           id="stop10561" />
        <stop
           style="stop-color:#000000;stop-opacity:0;"
           offset="1"
           id="stop10562" />
      </linearGradient>
      <linearGradient
         id="linearGradient13777">
        <stop
           offset="0.0000000"
           style="stop-color:#d17d00;stop-opacity:1.0000000;"
           id="stop13779" />
        <stop
           offset="1.0000000"
           style="stop-color:#a7b135;stop-opacity:0.0000000;"
           id="stop13778" />
      </linearGradient>
      <linearGradient
         id="linearGradient11847">
        <stop
           offset="0.0000000"
           style="stop-color:#000000;stop-opacity:1.0000000;"
           id="stop11849" />
        <stop
           offset="1.0000000"
           style="stop-color:#000000;stop-opacity:0.0000000;"
           id="stop11848" />
      </linearGradient>
      <linearGradient
         id="linearGradient6187">
        <stop
           style="stop-color:#2e1b0b;stop-opacity:1.0000000;"
           offset="0.0000000"
           id="stop6188" />
        <stop
           style="stop-color:#431e00;stop-opacity:0;"
           offset="1"
           id="stop6189" />
      </linearGradient>
      <linearGradient
         inkscape:collect="always"
         id="linearGradient4909">
        <stop
           style="stop-color:#000000;stop-opacity:1;"
           offset="0"
           id="stop4910" />
        <stop
           style="stop-color:#000000;stop-opacity:0;"
           offset="1"
           id="stop4911" />
      </linearGradient>
      <linearGradient
         id="linearGradient1780">
        <stop
           style="stop-color:#454545;stop-opacity:1.0000000;"
           offset="0.0000000"
           id="stop1781" />
        <stop
           style="stop-color:#ffffff;stop-opacity:0;"
           offset="1"
           id="stop1782" />
      </linearGradient>
      <linearGradient
         id="linearGradient3869">
        <stop
           offset="0.0000000"
           style="stop-color:#d2dd2e;stop-opacity:1.0000000;"
           id="stop3872" />
        <stop
           offset="0.76146787"
           style="stop-color:#b3b96d;stop-opacity:0.65555555;"
           id="stop3871" />
        <stop
           offset="1.0000000"
           style="stop-color:#b1b952;stop-opacity:0.0000000;"
           id="stop3870" />
      </linearGradient>
      <linearGradient
         inkscape:collect="always"
         xlink:href="#linearGradient9217"
         id="linearGradient3799"
         gradientUnits="userSpaceOnUse"
         gradientTransform="matrix(0.112563,0,0,0.115364,26.43402,157.1761)"
         x1="4373.3052"
         y1="319.33466"
         x2="96.982727"
         y2="2708.2139" />
      <linearGradient
         inkscape:collect="always"
         xlink:href="#linearGradient7337"
         id="linearGradient3800"
         gradientUnits="userSpaceOnUse"
         gradientTransform="matrix(0.230667,0,0,7.644947e-2,26.55186,129.5549)"
         x1="862.1651"
         y1="2479.5938"
         x2="1523.3719"
         y2="2479.5938" />
      <linearGradient
         inkscape:collect="always"
         xlink:href="#linearGradient5442"
         id="linearGradient3801"
         gradientUnits="userSpaceOnUse"
         gradientTransform="matrix(0.162855,0,0,7.648058e-2,75.52973,161.8049)"
         x1="580.22791"
         y1="2173.3171"
         x2="1782.0374"
         y2="1630.2036" />
      <radialGradient
         inkscape:collect="always"
         xlink:href="#linearGradient5442"
         id="radialGradient3802"
         gradientUnits="userSpaceOnUse"
         gradientTransform="matrix(0.159978,0,0,7.785591e-2,363.0923,173.8583)"
         cx="-606.79681"
         cy="1573.4399"
         fx="-606.79681"
         fy="1573.4399"
         r="739.70477" />
      <linearGradient
         inkscape:collect="always"
         xlink:href="#linearGradient21707"
         id="linearGradient3803"
         gradientUnits="userSpaceOnUse"
         gradientTransform="scale(0.659854,1.515487)"
         x1="4848.5972"
         y1="3945.1116"
         x2="5625.4653"
         y2="1720.9402" />
      <linearGradient
         inkscape:collect="always"
         xlink:href="#linearGradient7337"
         id="linearGradient3804"
         gradientUnits="userSpaceOnUse"
         gradientTransform="matrix(0.236634,0,0,0.208284,-2451.443,4783.687)"
         x1="-7797.7422"
         y1="5021.4731"
         x2="-352.84012"
         y2="1184.9034" />
      <linearGradient
         inkscape:collect="always"
         xlink:href="#linearGradient7337"
         id="linearGradient3805"
         gradientUnits="userSpaceOnUse"
         gradientTransform="matrix(0.236634,0,0,0.208284,-2451.443,4783.687)"
         x1="-7797.7422"
         y1="5021.4731"
         x2="-352.84012"
         y2="1184.9034" />
      <defs
         id="defs3745">
        <linearGradient
           id="linearGradient22333"
           x1="0"
           y1="0.5"
           x2="1"
           y2="0.5"
           gradientUnits="objectBoundingBox"
           spreadMethod="pad"
           xlink:href="#linearGradient13777" />
        <linearGradient
           id="linearGradient21707">
          <stop
             style="stop-color:#ffffff;stop-opacity:1.0000000;"
             offset="0.0000000"
             id="stop21708" />
          <stop
             style="stop-color:#a7b135;stop-opacity:0;"
             offset="1"
             id="stop21709" />
        </linearGradient>
        <linearGradient
           inkscape:collect="always"
           id="linearGradient9217"
           x1="0"
           y1="0.5"
           x2="1"
           y2="0.5"
           gradientUnits="objectBoundingBox"
           spreadMethod="pad"
           xlink:href="#linearGradient11847" />
        <linearGradient
           id="linearGradient8584">
          <stop
             style="stop-color:#000000;stop-opacity:1.0000000;"
             offset="0.0000000"
             id="stop8585" />
          <stop
             style="stop-color:#cece4c;stop-opacity:0;"
             offset="1"
             id="stop8586" />
        </linearGradient>
        <linearGradient
           id="linearGradient7337">
          <stop
             style="stop-color:#b1b12f;stop-opacity:1.0000000;"
             offset="0.0000000"
             id="stop7338" />
          <stop
             style="stop-color:#cece4c;stop-opacity:0;"
             offset="1"
             id="stop7339" />
        </linearGradient>
        <linearGradient
           id="linearGradient5442"
           x1="0"
           y1="0.5"
           x2="1"
           y2="0.5"
           gradientUnits="objectBoundingBox"
           spreadMethod="pad"
           xlink:href="#linearGradient3869" />
      </defs>
      <sodipodi:namedview
         id="namedview3772"
         pagecolor="#ffffff"
         bordercolor="#666666"
         borderopacity="1.0"
         inkscape:pageopacity="0.0"
         inkscape:pageshadow="2"
         inkscape:zoom="0.80057989"
         inkscape:cx="297.63780"
         inkscape:cy="420.94487"
         inkscape:current-layer="layer1"
         inkscape:window-width="1440"
         inkscape:window-height="851"
         inkscape:window-x="0"
         inkscape:window-y="27"
         showguides="true"
         inkscape:guide-bbox="true" />
      <metadata
         id="metadata3773">
        <rdf:RDF>
          <cc:Work
             rdf:about="">
            <dc:format>image/svg+xml</dc:format>
            <dc:type
               rdf:resource="http://purl.org/dc/dcmitype/StillImage" />
          </cc:Work>
        </rdf:RDF>
      </metadata>
      <linearGradient
         inkscape:collect="always"
         xlink:href="#linearGradient4909"
         id="linearGradient6167"
         gradientUnits="userSpaceOnUse"
         gradientTransform="scale(0.891889,1.121216)"
         x1="-148.77991"
         y1="106.3186"
         x2="-160.14931"
         y2="-66.932083" />
      <linearGradient
         inkscape:collect="always"
         xlink:href="#linearGradient10560"
         id="linearGradient10563"
         gradientTransform="matrix(0.915477,0.127968,-0.149762,1.071392,19.54851,-8.45341)"
         x1="698.5448"
         y1="69.852913"
         x2="758.31232"
         y2="359.09653"
         gradientUnits="userSpaceOnUse" />
      <linearGradient
         inkscape:collect="always"
         xlink:href="#linearGradient10560"
         id="linearGradient10578"
         gradientUnits="userSpaceOnUse"
         gradientTransform="matrix(0.915477,0.127968,-0.149762,1.071392,0,0)"
         x1="647.37115"
         y1="96.894905"
         x2="770.59186"
         y2="342.74301" />
      <linearGradient
         inkscape:collect="always"
         xlink:href="#linearGradient4909"
         id="linearGradient10604"
         gradientUnits="userSpaceOnUse"
         gradientTransform="scale(0.891889,1.121216)"
         x1="-148.77991"
         y1="106.3186"
         x2="-160.14931"
         y2="-66.932083" />
      <linearGradient
         inkscape:collect="always"
         xlink:href="#linearGradient10630"
         id="linearGradient10633"
         gradientTransform="scale(0.883732,1.131565)"
         x1="-164.59187"
         y1="105.15539"
         x2="-154.1456"
         y2="3.6783011"
         gradientUnits="userSpaceOnUse" />
      <linearGradient
         inkscape:collect="always"
         xlink:href="#linearGradient10630"
         id="linearGradient10647"
         gradientUnits="userSpaceOnUse"
         gradientTransform="scale(0.883732,1.131565)"
         x1="-164.59187"
         y1="105.15539"
         x2="-154.1456"
         y2="3.6783011" />
      <radialGradient
         inkscape:collect="always"
         xlink:href="#linearGradient1780"
         id="radialGradient5568"
         gradientUnits="userSpaceOnUse"
         gradientTransform="matrix(-0.663014,1.058409,1.330757,0.590372,-891.7907,666.4254)"
         cx="-446.72464"
         cy="218.60974"
         fx="-446.72464"
         fy="218.60974"
         r="308.80975" />
      <linearGradient
         inkscape:collect="always"
         xlink:href="#linearGradient10630"
         id="linearGradient4391"
         gradientUnits="userSpaceOnUse"
         gradientTransform="matrix(0.437171,-0.479724,0.614848,0.55753,723.0732,-61.92042)"
         x1="-164.59187"
         y1="105.15539"
         x2="-154.1456"
         y2="3.6783011" />
    </defs>
    <linearGradient
       inkscape:collect="always"
       xlink:href="#linearGradient2331"
       id="linearGradient2337"
       x1="21.736279"
       y1="17.181818"
       x2="11.174212"
       y2="4.4421611"
       gradientUnits="userSpaceOnUse"
       gradientTransform="translate(4.715159,4.921709)" />
    <linearGradient
       inkscape:collect="always"
       xlink:href="#linearGradient2306"
       id="linearGradient2364"
       gradientUnits="userSpaceOnUse"
       gradientTransform="translate(-0.664239,0.438523)"
       x1="17.11726"
       y1="11.110526"
       x2="17.876976"
       y2="9.9866724" />
    <radialGradient
       inkscape:collect="always"
       xlink:href="#linearGradient2285"
       id="radialGradient2294"
       gradientUnits="userSpaceOnUse"
       gradientTransform="matrix(0.744878,-1.695914,1.517516,0.666524,-41.27701,53.38383)"
       cx="23.654802"
       cy="30.782257"
       fx="23.654802"
       fy="30.782257"
       r="6.2138119" />
    <linearGradient
       inkscape:collect="always"
       xlink:href="#linearGradient2410"
       id="linearGradient2291"
       x1="2.7784317"
       y1="29.519632"
       x2="10.612691"
       y2="18.977943"
       gradientUnits="userSpaceOnUse"
       gradientTransform="matrix(-1.029777,0.151417,-0.414218,-0.910178,26.59976,39.35317)" />
    <linearGradient
       inkscape:collect="always"
       xlink:href="#linearGradient2410"
       id="linearGradient1769"
       gradientUnits="userSpaceOnUse"
       gradientTransform="matrix(-1.029777,0.151417,-0.414218,-0.910178,35.21359,36.71209)"
       x1="2.7784317"
       y1="29.519632"
       x2="10.612691"
       y2="18.977943" />
  </defs>
  <sodipodi:namedview
     id="base"
     pagecolor="#ffffff"
     bordercolor="#666666"
     borderopacity="1.0"
     inkscape:pageopacity="0.0"
     inkscape:pageshadow="2"
     inkscape:zoom="10.494107"
     inkscape:cx="5.9186366"
     inkscape:cy="21.191494"
     inkscape:current-layer="g1160"
     inkscape:window-width="1440"
     inkscape:window-height="826"
     inkscape:window-x="0"
     inkscape:window-y="26" />
  <metadata
     id="metadata4">
    <rdf:RDF>
      <cc:Work
         rdf:about="">
        <dc:format>image/svg+xml</dc:format>
        <dc:type
           rdf:resource="http://purl.org/dc/dcmitype/StillImage" />
      </cc:Work>
    </rdf:RDF>
  </metadata>
  <g
     id="g1160"
     inkscape:groupmode="layer"
     inkscape:label="Layer 1"
     style="display:inline">
    <path
       style="fill:url(#linearGradient1769);fill-opacity:1;fill-rule:evenodd;stroke:#000000;stroke-width:0.69799846;stroke-linecap:round;stroke-linejoin:round;stroke-miterlimit:4;stroke-dasharray:none;stroke-opacity:1;display:inline"
       d="M 14.632164,15.225524 C 14.632164,15.225524 12.657227,25.030173 18.998251,23.262981 C 30.906987,19.944112 14.264209,0.97932805 9.9449554,1.2463646 C 10.14347,1.4141891 14.399823,5.0645958 14.579269,6.1777188 C 12.614044,3.517897 10.588218,4.0798451 10.62581,4.1730519 C 13.385711,6.3399608 14.103233,7.0105348 14.849452,8.5453078 C 12.974615,6.2123248 10.869222,6.7795198 11.093162,6.8377298 C 13.235789,8.5010748 15.291709,11.031918 15.043435,11.43266 C 13.551553,9.4079968 11.610007,9.1701748 11.562819,9.1730178 C 11.868901,9.4692548 14.657493,12.071524 14.89994,13.46978 C 14.053117,12.749695 12.54526,12.093702 12.321096,12.114056 C 13.884325,13.037664 14.632164,15.225524 14.632164,15.225524 z "
       id="path1767"
       sodipodi:nodetypes="cscccccccccc" />
    <g
       id="g1415"
       transform="matrix(-0.238308,-0.244985,-0.343719,0.183168,185.2647,123.4729)"
       style="fill:#a8a8a9;fill-opacity:1;display:inline">
      <path
         sodipodi:nodetypes="ccsssz"
         id="path1417"
         d="M 458.78172,155.64201 C 464.45972,154.43052 462.86934,158.60907 462.86934,158.60907 C 462.86934,158.60907 451.08778,177.1449 451.79178,169.88475 C 452.49578,162.62459 433.1779,177.17343 441.2708,169.27276 C 449.3637,161.37209 420.9501,173.7702 440.15738,163.45502 C 444.16207,161.30432 453.10373,156.8535 458.78172,155.64201 z "
         style="fill:#a8a8a9;fill-opacity:1;fill-rule:evenodd;stroke:none;stroke-width:2.06699991;stroke-linecap:butt;stroke-linejoin:miter;stroke-miterlimit:4;stroke-dasharray:none;stroke-opacity:1;display:inline" />
      <path
         sodipodi:nodetypes="ccsssz"
         id="path1419"
         d="M 457.86465,155.97029 C 463.54264,154.7588 461.95227,158.93735 461.95227,158.93735 C 461.95227,158.93735 450.17071,177.47317 450.87471,170.21302 C 451.57871,162.95286 432.26083,177.50171 440.35373,169.60104 C 448.44662,161.70036 420.03302,174.09847 439.24031,163.78329 C 443.245,161.63259 452.18666,157.18177 457.86465,155.97029 z "
         style="fill:#a8a8a9;fill-opacity:1;fill-rule:evenodd;stroke:none;stroke-width:2.06699991;stroke-linecap:butt;stroke-linejoin:miter;stroke-miterlimit:4;stroke-dasharray:none;stroke-opacity:1;display:inline" />
      <path
         sodipodi:nodetypes="csssc"
         id="path1421"
         d="M 462.23239,158.97662 C 462.23239,158.97662 450.45083,177.51245 451.15483,170.25229 C 451.85883,162.99214 432.54095,177.54098 440.63385,169.64031 C 448.72674,161.73963 420.31314,174.13775 439.52043,163.82256 C 443.52512,161.67187 458.14477,156.00956 458.14477,156.00956"
         style="fill:#a8a8a9;fill-opacity:1;fill-rule:evenodd;stroke:#000000;stroke-width:1.97249997;stroke-linecap:round;stroke-linejoin:round;stroke-miterlimit:4;stroke-dasharray:none;stroke-opacity:1" />
    </g>
    <g
       id="g30587"
       transform="matrix(-0.238308,-0.244985,-0.343719,0.183168,178.4227,124.2249)"
       style="fill:#a8a8a9;fill-opacity:1;display:inline">
      <path
         sodipodi:nodetypes="ccsssz"
         id="path30564"
         d="M 458.78172,155.64201 C 464.45972,154.43052 462.86934,158.60907 462.86934,158.60907 C 462.86934,158.60907 451.08778,177.1449 451.79178,169.88475 C 452.49578,162.62459 433.1779,177.17343 441.2708,169.27276 C 449.3637,161.37209 420.9501,173.7702 440.15738,163.45502 C 444.16207,161.30432 453.10373,156.8535 458.78172,155.64201 z "
         style="fill:#a8a8a9;fill-opacity:1;fill-rule:evenodd;stroke:none;stroke-width:2.06699991;stroke-linecap:butt;stroke-linejoin:miter;stroke-miterlimit:4;stroke-dasharray:none;stroke-opacity:1;display:inline" />
      <path
         sodipodi:nodetypes="ccsssz"
         id="path30566"
         d="M 457.86465,155.97029 C 463.54264,154.7588 461.95227,158.93735 461.95227,158.93735 C 461.95227,158.93735 450.17071,177.47317 450.87471,170.21302 C 451.57871,162.95286 432.26083,177.50171 440.35373,169.60104 C 448.44662,161.70036 420.03302,174.09847 439.24031,163.78329 C 443.245,161.63259 452.18666,157.18177 457.86465,155.97029 z "
         style="fill:#a8a8a9;fill-opacity:1;fill-rule:evenodd;stroke:none;stroke-width:2.06699991;stroke-linecap:butt;stroke-linejoin:miter;stroke-miterlimit:4;stroke-dasharray:none;stroke-opacity:1;display:inline" />
      <path
         sodipodi:nodetypes="csssc"
         id="path30568"
         d="M 462.23239,158.97662 C 462.23239,158.97662 450.45083,177.51245 451.15483,170.25229 C 451.85883,162.99214 432.54095,177.54098 440.63385,169.64031 C 448.72674,161.73963 420.31314,174.13775 439.52043,163.82256 C 443.52512,161.67187 458.14477,156.00956 458.14477,156.00956"
         style="fill:#a8a8a9;fill-opacity:1;fill-rule:evenodd;stroke:#000000;stroke-width:1.97249997;stroke-linecap:round;stroke-linejoin:round;stroke-miterlimit:4;stroke-dasharray:none;stroke-opacity:1" />
    </g>
    <g
       inkscape:label="Layer 1"
       id="g29199"
       transform="matrix(-0.80024,0,0,0.80024,374.3412,-77.99552)" />
    <g
       id="g29315"
       inkscape:label="Layer 1"
       transform="matrix(-0.80024,0,0,0.80024,1531.742,254.9357)" />
    <g
       inkscape:label="Layer 1"
       id="g29317"
       transform="matrix(-0.80024,0,0,0.80024,2198.959,222.4494)" />
    <g
       inkscape:label="Layer 1"
       id="g3589"
       transform="matrix(-0.757324,0,0,0.76036,344.9506,-58.81081)" />
    <g
       id="g3591"
       inkscape:label="Layer 1"
       transform="matrix(-0.757324,0,0,0.76036,1440.28,257.5287)" />
    <g
       inkscape:label="Layer 1"
       id="g3593"
       transform="matrix(-0.757324,0,0,0.76036,2071.716,226.6614)" />
    <path
       style="fill:url(#linearGradient2337);fill-opacity:1;fill-rule:evenodd;stroke:none;stroke-width:0.92659229;stroke-linecap:butt;stroke-linejoin:miter;stroke-miterlimit:4;stroke-dasharray:none;stroke-opacity:1;display:inline"
       d="M 19.223694,18.43896 C 20.305904,16.284352 22.136081,9.5081744 20.970282,7.9039515 C 19.750091,6.22488 16.744879,3.863138 12.090876,8.356546 C 3.6434391,16.51249 8.7868075,38.09186 16.231251,39.622914 C 32.24655,41.920691 26.185195,27.433938 21.672884,25.697058 C 21.672884,25.697058 18.141485,20.593568 19.223694,18.43896 z M 21.613736,25.667366 C 20.358161,25.275604 18.94918,25.577274 17.414215,26.320604"
       id="path3596"
       sodipodi:nodetypes="czsccscc" />
    <path
       style="color:#000000;fill:url(#radialGradient2294);fill-opacity:1;fill-rule:nonzero;stroke:none;stroke-width:0.84875;stroke-linecap:round;stroke-linejoin:round;marker:none;marker-start:none;marker-mid:none;marker-end:none;stroke-miterlimit:4;stroke-dashoffset:0;stroke-opacity:1;visibility:visible;display:inline;overflow:visible"
       d="M 26.657295,32.458571 C 27.111782,39.162297 23.50112,39.419318 19.254769,39.706413 C 14.49205,40.028419 11.698116,36.851116 10.570612,32.679542 C 9.4821625,28.652467 14.948318,25.863324 19.961877,25.564281 C 24.078913,25.318712 26.07934,28.880389 26.657295,32.458571 z "
       id="path1410"
       sodipodi:nodetypes="csssc" />
    <path
       style="fill:none;fill-opacity:1;fill-rule:evenodd;stroke:#000000;stroke-width:0.87900001;stroke-linecap:round;stroke-linejoin:round;stroke-miterlimit:4;stroke-dasharray:none;stroke-opacity:1;display:inline"
       d="M 20.84481,8.0299267 C 20.724696,7.8156857 19.337061,5.4631179 16.73401,5.6842068 C 16.694555,5.6875578 16.655715,5.6796446 16.615714,5.6842068 C 15.375676,5.8256365 13.896836,6.5935853 12.090876,8.356546 C 2.966738,17.263442 8.6621152,38.430524 17.139462,39.622914 C 29.511906,41.363173 29.022908,29.008474 21.672884,25.697058 C 21.672884,25.697058 18.201891,20.576966 19.2841,18.422358 M 21.613736,25.667366 C 21.153656,25.540769 18.507238,25.267915 17.414215,26.320604"
       id="path3594"
       sodipodi:nodetypes="cscsscscc" />
    <path
       style="fill:#000000;fill-opacity:1;fill-rule:nonzero;stroke:none;stroke-width:1pt;stroke-linecap:butt;stroke-linejoin:miter;stroke-opacity:1;display:inline"
       d="M 22.40008,34.174589 C 24.028968,34.217074 22.383558,33.122038 22.628729,34.368354 C 21.520442,34.774943 21.584917,34.470877 22.420338,34.858535 L 21.155512,34.345511 C 22.206082,34.998179 22.833875,35.766954 23.848507,35.017358 C 23.943209,33.789841 22.146146,32.814786 21.133748,33.551086 L 22.40008,34.174589 z "
       id="path3604" />
    <g
       id="g2352"
       transform="matrix(0.744225,-0.988118,1.066528,0.718781,-0.803237,18.02475)">
      <path
         sodipodi:nodetypes="ccssc"
         id="path1431"
         d="M 17.619727,13.156987 C 17.619727,13.156987 18.761396,10.029462 15.481493,7.6934039 C 14.990276,9.9137273 12.686156,9.4154374 12.532491,9.4362263 C 12.378825,9.4570148 13.265025,10.156332 12.642433,11.133403 C 12.019841,12.110472 14.095931,10.310856 17.619727,13.156987 z "
         style="fill:url(#linearGradient2364);fill-opacity:1;fill-rule:evenodd;stroke:#000000;stroke-width:0.375;stroke-linecap:round;stroke-linejoin:round;stroke-miterlimit:4;stroke-dasharray:none;stroke-opacity:1" />
      <path
         id="path2314"
         d="M 12.715596,9.5688085 C 12.715596,9.5688085 15.027522,9.8577993 17.59633,12.876148"
         style="fill:none;fill-opacity:0.75;fill-rule:evenodd;stroke:#000000;stroke-width:0.2;stroke-linecap:round;stroke-linejoin:round;stroke-miterlimit:4;stroke-dasharray:none;stroke-opacity:1" />
    </g>
    <path
       style="fill:#68a6c7;fill-opacity:1;fill-rule:evenodd;stroke:#000000;stroke-width:0.87900001;stroke-linecap:round;stroke-linejoin:round;stroke-miterlimit:4;stroke-dasharray:none;stroke-opacity:1"
       d="M 16.928512,5.9532431 C 12.885461,3.8941715 10.854045,4.8641493 10.802302,4.784901 C 10.802302,4.784901 14.89179,6.2525581 14.268808,7.0124496 C 10.900345,5.680147 10.222073,6.6044533 10.124363,6.6208518 C 10.067666,6.6571379 13.608711,7.2363289 12.991813,8.0322083 C 10.30882,7.5218533 9.1880216,8.5238392 9.2814475,8.5282231 C 9.3152848,8.5417546 11.484957,8.7504803 12.013345,9.3137809"
       id="path2329"
       sodipodi:nodetypes="ccccccs" />
    <path
       style="fill:url(#linearGradient2291);fill-opacity:1;fill-rule:evenodd;stroke:#000000;stroke-width:0.69799846;stroke-linecap:round;stroke-linejoin:round;stroke-miterlimit:4;stroke-dasharray:none;stroke-opacity:1"
       d="M 6.0183377,17.866612 C 6.0183377,17.866612 4.043401,27.671261 10.384425,25.904069 C 22.293161,22.5852 5.6503826,3.620416 1.3311287,3.8874526 C 1.5296441,4.0552771 5.7859973,7.7056837 5.9654433,8.818807 C 4.0002183,6.158985 1.9743923,6.7209331 2.011984,6.8141399 C 4.7718846,8.981049 5.4894068,9.651623 6.235626,11.186396 C 4.3607887,8.853413 2.2553959,9.420608 2.4793359,9.478818 C 4.6219627,11.142163 6.6778827,13.673006 6.4296084,14.073748 C 4.9377267,12.049085 2.9961806,11.811263 2.948993,11.814106 C 3.255075,12.110343 6.0436665,14.712612 6.2861135,16.110868 C 5.4392906,15.390783 3.9314342,14.73479 3.7072699,14.755144 C 5.2704993,15.678752 6.0183377,17.866612 6.0183377,17.866612 z "
       id="path2404"
       sodipodi:nodetypes="cscccccccccc" />
    <g
       id="g1407"
       transform="matrix(0.665616,-0.746294,-0.746294,-0.665616,12.39157,26.39748)">
      <path
         style="fill:#000000;fill-opacity:1;fill-rule:nonzero;stroke:#0f0f0f;stroke-width:0;stroke-miterlimit:4;stroke-opacity:1"
         d="M 14.783117,8.4554548 C 14.783117,9.8182858 15.574711,10.854609 16.55007,10.768679 C 17.525428,10.68275 18.317021,9.5069473 18.317021,8.1441164 C 18.317021,6.7812855 17.525428,5.7449593 16.55007,5.8308888 C 15.574711,5.9168183 14.783117,7.092624 14.783117,8.4554548 z "
         id="path3019" />
      <path
         style="fill:#000000;fill-opacity:1;fill-rule:nonzero;stroke:#0f0f0f;stroke-width:0;stroke-miterlimit:4;stroke-opacity:1"
         d="M 17.653492,8.4962261 C 17.653492,9.4442351 18.258605,10.160327 19.004185,10.094641 C 19.749771,10.028954 20.354878,9.2062418 20.354878,8.2582328 C 20.354878,7.310221 19.749771,6.5941316 19.004185,6.659818 C 18.258605,6.7255039 17.653492,7.5482143 17.653492,8.4962261 z "
         id="path3020" />
      <path
         style="fill:#f1c616;fill-opacity:1;fill-rule:nonzero;stroke:#0f0f0f;stroke-width:0;stroke-miterlimit:4;stroke-opacity:1"
         d="M 18.017256,8.5158316 C 18.017256,9.2216676 18.465066,9.7550639 19.01684,9.7064525 C 19.568607,9.6578415 20.016421,9.0455403 20.016421,8.3397042 C 20.016421,7.6338709 19.568607,7.1004748 19.01684,7.1490858 C 18.465066,7.1976973 18.017256,7.8099983 18.017256,8.5158316 z "
         id="path3021" />
      <path
         style="fill:#f1c616;fill-opacity:1;fill-rule:nonzero;stroke:#0f0f0f;stroke-width:0;stroke-miterlimit:4;stroke-opacity:1"
         d="M 15.293135,8.5894898 C 15.413517,9.6685962 16.144404,10.409542 16.924576,10.243384 C 17.704751,10.077225 18.240239,9.0665734 18.119855,7.9874672 C 17.999477,6.9083632 17.268593,6.16742 16.488418,6.3335784 C 15.708245,6.4997337 15.172757,7.5103858 15.293135,8.5894898 z "
         id="path3643" />
      <path
         style="fill:#000000;fill-opacity:1;fill-rule:nonzero;stroke:#0f0f0f;stroke-width:0;stroke-miterlimit:4;stroke-opacity:1"
         d="M 16.134203,9.0019874 C 16.134203,9.454606 16.526102,9.7874254 17.008984,9.7448833 C 17.491863,9.7023415 17.883762,9.3004691 17.883762,8.8478505 C 17.883762,8.3952321 17.491863,8.0624153 17.008984,8.1049571 C 16.526102,8.1474992 16.134203,8.549369 16.134203,9.0019874 z "
         id="path3644" />
      <path
         style="fill:#000000;fill-opacity:1;fill-rule:nonzero;stroke:#0f0f0f;stroke-width:0;stroke-miterlimit:4;stroke-opacity:1;display:inline"
         d="M 18.202034,8.8292483 C 18.202034,9.2818668 18.593933,9.6146863 19.076815,9.5721442 C 19.559694,9.5296024 19.951593,9.1277299 19.951593,8.6751114 C 19.951593,8.2224929 19.559694,7.8896761 19.076815,7.9322179 C 18.593933,7.97476 18.202034,8.3766298 18.202034,8.8292483 z "
         id="path4706" />
    </g>
    <g
       inkscape:label="Layer 1"
       id="g1679"
       transform="matrix(-0.742459,-0.298562,-0.298562,0.742459,339.3445,65.84018)" />
    <g
       id="g1681"
       inkscape:label="Layer 1"
       transform="matrix(-0.742459,-0.298562,-0.298562,0.742459,1288.962,806.5477)" />
    <g
       inkscape:label="Layer 1"
       id="g1683"
       transform="matrix(-0.742459,-0.298562,-0.298562,0.742459,1920.123,1025.339)" />
    <g
       inkscape:label="Layer 1"
       id="g1685"
       transform="matrix(-0.702641,-0.282551,-0.283683,0.705458,304.9184,72.6743)" />
    <g
       id="g1687"
       inkscape:label="Layer 1"
       transform="matrix(-0.702641,-0.282551,-0.283683,0.705458,1203.137,774.8298)" />
    <g
       inkscape:label="Layer 1"
       id="g1689"
       transform="matrix(-0.702641,-0.282551,-0.283683,0.705458,1800.496,981.7742)" />
  </g>
</svg>
