<?xml version="1.0" encoding="UTF-8" standalone="no"?>
<!-- Created with Inkscape (http://www.inkscape.org/) -->
<svg
   xmlns:dc="http://purl.org/dc/elements/1.1/"
   xmlns:cc="http://web.resource.org/cc/"
   xmlns:rdf="http://www.w3.org/1999/02/22-rdf-syntax-ns#"
   xmlns:svg="http://www.w3.org/2000/svg"
   xmlns="http://www.w3.org/2000/svg"
   xmlns:xlink="http://www.w3.org/1999/xlink"
   xmlns:sodipodi="http://inkscape.sourceforge.net/DTD/sodipodi-0.dtd"
   xmlns:inkscape="http://www.inkscape.org/namespaces/inkscape"
   width="48.000000px"
   height="48.000000px"
   id="svg1"
   sodipodi:version="0.32"
   inkscape:version="0.43"
   sodipodi:docbase="/home/yekcim/Desktop/SVG/Skins/thunderbirdteam"
   sodipodi:docname="flag.svg"
   inkscape:export-filename="/home/yekcim/Desktop/flag.png"
   inkscape:export-xdpi="72.000000"
   inkscape:export-ydpi="72.000000"
   inkscape:output_extension="org.inkscape.output.svg.inkscape">
  <defs
     id="defs3">
    <defs
       id="defs1062">
      <linearGradient
         inkscape:collect="always"
         id="linearGradient10630">
        <stop
           style="stop-color:#616161;stop-opacity:1;"
           offset="0"
           id="stop10631" />
        <stop
           style="stop-color:#616161;stop-opacity:0;"
           offset="1"
           id="stop10632" />
      </linearGradient>
      <linearGradient
         inkscape:collect="always"
         id="linearGradient10560">
        <stop
           style="stop-color:#000000;stop-opacity:1;"
           offset="0"
           id="stop10561" />
        <stop
           style="stop-color:#000000;stop-opacity:0;"
           offset="1"
           id="stop10562" />
      </linearGradient>
      <linearGradient
         id="linearGradient13777">
        <stop
           offset="0.0000000"
           style="stop-color:#d17d00;stop-opacity:1.0000000;"
           id="stop13779" />
        <stop
           offset="1.0000000"
           style="stop-color:#a7b135;stop-opacity:0.0000000;"
           id="stop13778" />
      </linearGradient>
      <linearGradient
         id="linearGradient11847">
        <stop
           offset="0.0000000"
           style="stop-color:#000000;stop-opacity:1.0000000;"
           id="stop11849" />
        <stop
           offset="1.0000000"
           style="stop-color:#000000;stop-opacity:0.0000000;"
           id="stop11848" />
      </linearGradient>
      <linearGradient
         id="linearGradient6187">
        <stop
           style="stop-color:#2e1b0b;stop-opacity:1.0000000;"
           offset="0.0000000"
           id="stop6188" />
        <stop
           style="stop-color:#431e00;stop-opacity:0;"
           offset="1"
           id="stop6189" />
      </linearGradient>
      <linearGradient
         inkscape:collect="always"
         id="linearGradient4909">
        <stop
           style="stop-color:#000000;stop-opacity:1;"
           offset="0"
           id="stop4910" />
        <stop
           style="stop-color:#000000;stop-opacity:0;"
           offset="1"
           id="stop4911" />
      </linearGradient>
      <linearGradient
         id="linearGradient1780">
        <stop
           style="stop-color:#454545;stop-opacity:1.0000000;"
           offset="0.0000000"
           id="stop1781" />
        <stop
           style="stop-color:#ffffff;stop-opacity:0;"
           offset="1"
           id="stop1782" />
      </linearGradient>
      <linearGradient
         id="linearGradient3869">
        <stop
           offset="0.0000000"
           style="stop-color:#d2dd2e;stop-opacity:1.0000000;"
           id="stop3872" />
        <stop
           offset="0.76146787"
           style="stop-color:#b3b96d;stop-opacity:0.65555555;"
           id="stop3871" />
        <stop
           offset="1.0000000"
           style="stop-color:#b1b952;stop-opacity:0.0000000;"
           id="stop3870" />
      </linearGradient>
      <linearGradient
         inkscape:collect="always"
         xlink:href="#linearGradient9217"
         id="linearGradient3799"
         gradientUnits="userSpaceOnUse"
         gradientTransform="matrix(0.112563,0.000000,0.000000,0.115364,26.43402,157.1761)"
         x1="4373.3052"
         y1="319.33466"
         x2="96.982727"
         y2="2708.2139" />
      <linearGradient
         inkscape:collect="always"
         xlink:href="#linearGradient7337"
         id="linearGradient3800"
         gradientUnits="userSpaceOnUse"
         gradientTransform="matrix(0.230667,0.000000,0.000000,7.644947e-2,26.55186,129.5549)"
         x1="862.16510"
         y1="2479.5938"
         x2="1523.3719"
         y2="2479.5938" />
      <linearGradient
         inkscape:collect="always"
         xlink:href="#linearGradient5442"
         id="linearGradient3801"
         gradientUnits="userSpaceOnUse"
         gradientTransform="matrix(0.162855,0.000000,0.000000,7.648058e-2,75.52973,161.8049)"
         x1="580.22791"
         y1="2173.3171"
         x2="1782.0374"
         y2="1630.2036" />
      <radialGradient
         inkscape:collect="always"
         xlink:href="#linearGradient5442"
         id="radialGradient3802"
         gradientUnits="userSpaceOnUse"
         gradientTransform="matrix(0.159978,0.000000,0.000000,7.785591e-2,363.0923,173.8583)"
         cx="-606.79681"
         cy="1573.4399"
         fx="-606.79681"
         fy="1573.4399"
         r="739.70477" />
      <linearGradient
         inkscape:collect="always"
         xlink:href="#linearGradient21707"
         id="linearGradient3803"
         gradientUnits="userSpaceOnUse"
         gradientTransform="scale(0.659854,1.515487)"
         x1="4848.5972"
         y1="3945.1116"
         x2="5625.4653"
         y2="1720.9402" />
      <linearGradient
         inkscape:collect="always"
         xlink:href="#linearGradient7337"
         id="linearGradient3804"
         gradientUnits="userSpaceOnUse"
         gradientTransform="matrix(0.236634,0.000000,0.000000,0.208284,-2451.443,4783.687)"
         x1="-7797.7422"
         y1="5021.4731"
         x2="-352.84012"
         y2="1184.9034" />
      <linearGradient
         inkscape:collect="always"
         xlink:href="#linearGradient7337"
         id="linearGradient3805"
         gradientUnits="userSpaceOnUse"
         gradientTransform="matrix(0.236634,0.000000,0.000000,0.208284,-2451.443,4783.687)"
         x1="-7797.7422"
         y1="5021.4731"
         x2="-352.84012"
         y2="1184.9034" />
      <defs
         id="defs3745">
        <linearGradient
           id="linearGradient22333"
           x1="0.0000000"
           y1="0.50000000"
           x2="1.0000000"
           y2="0.50000000"
           gradientUnits="objectBoundingBox"
           spreadMethod="pad"
           xlink:href="#linearGradient13777" />
        <linearGradient
           id="linearGradient21707">
          <stop
             style="stop-color:#ffffff;stop-opacity:1.0000000;"
             offset="0.0000000"
             id="stop21708" />
          <stop
             style="stop-color:#a7b135;stop-opacity:0;"
             offset="1"
             id="stop21709" />
        </linearGradient>
        <linearGradient
           inkscape:collect="always"
           id="linearGradient9217"
           x1="0.0000000"
           y1="0.50000000"
           x2="1.0000000"
           y2="0.50000000"
           gradientUnits="objectBoundingBox"
           spreadMethod="pad"
           xlink:href="#linearGradient11847" />
        <linearGradient
           id="linearGradient8584">
          <stop
             style="stop-color:#000000;stop-opacity:1.0000000;"
             offset="0.0000000"
             id="stop8585" />
          <stop
             style="stop-color:#cece4c;stop-opacity:0;"
             offset="1"
             id="stop8586" />
        </linearGradient>
        <linearGradient
           id="linearGradient7337">
          <stop
             style="stop-color:#b1b12f;stop-opacity:1.0000000;"
             offset="0.0000000"
             id="stop7338" />
          <stop
             style="stop-color:#cece4c;stop-opacity:0;"
             offset="1"
             id="stop7339" />
        </linearGradient>
        <linearGradient
           id="linearGradient5442"
           x1="0.0000000"
           y1="0.50000000"
           x2="1.0000000"
           y2="0.50000000"
           gradientUnits="objectBoundingBox"
           spreadMethod="pad"
           xlink:href="#linearGradient3869" />
      </defs>
      <sodipodi:namedview
         id="namedview3772"
         pagecolor="#ffffff"
         bordercolor="#666666"
         borderopacity="1.0"
         inkscape:pageopacity="0.0"
         inkscape:pageshadow="2"
         inkscape:zoom="0.80057989"
         inkscape:cx="297.63780"
         inkscape:cy="420.94487"
         inkscape:current-layer="layer1"
         inkscape:window-width="1440"
         inkscape:window-height="851"
         inkscape:window-x="0"
         inkscape:window-y="27"
         showguides="true"
         inkscape:guide-bbox="true" />
      <metadata
         id="metadata3773">
        <rdf:RDF>
          <cc:Work
             rdf:about="">
            <dc:format>image/svg+xml</dc:format>
            <dc:type
               rdf:resource="http://purl.org/dc/dcmitype/StillImage" />
          </cc:Work>
        </rdf:RDF>
      </metadata>
      <linearGradient
         inkscape:collect="always"
         xlink:href="#linearGradient4909"
         id="linearGradient6167"
         gradientUnits="userSpaceOnUse"
         gradientTransform="scale(0.891889,1.121216)"
         x1="-148.77991"
         y1="106.31860"
         x2="-160.14931"
         y2="-66.932083" />
      <linearGradient
         inkscape:collect="always"
         xlink:href="#linearGradient10560"
         id="linearGradient10563"
         gradientTransform="matrix(0.915477,0.127968,-0.149762,1.071392,19.54851,-8.453410)"
         x1="698.54480"
         y1="69.852913"
         x2="758.31232"
         y2="359.09653"
         gradientUnits="userSpaceOnUse" />
      <linearGradient
         inkscape:collect="always"
         xlink:href="#linearGradient10560"
         id="linearGradient10578"
         gradientUnits="userSpaceOnUse"
         gradientTransform="matrix(0.915477,0.127968,-0.149762,1.071392,0.000000,0.000000)"
         x1="647.37115"
         y1="96.894905"
         x2="770.59186"
         y2="342.74301" />
      <linearGradient
         inkscape:collect="always"
         xlink:href="#linearGradient4909"
         id="linearGradient10604"
         gradientUnits="userSpaceOnUse"
         gradientTransform="scale(0.891889,1.121216)"
         x1="-148.77991"
         y1="106.31860"
         x2="-160.14931"
         y2="-66.932083" />
      <linearGradient
         inkscape:collect="always"
         xlink:href="#linearGradient10630"
         id="linearGradient10633"
         gradientTransform="scale(0.883732,1.131565)"
         x1="-164.59187"
         y1="105.15539"
         x2="-154.14560"
         y2="3.6783011"
         gradientUnits="userSpaceOnUse" />
      <linearGradient
         inkscape:collect="always"
         xlink:href="#linearGradient10630"
         id="linearGradient10647"
         gradientUnits="userSpaceOnUse"
         gradientTransform="scale(0.883732,1.131565)"
         x1="-164.59187"
         y1="105.15539"
         x2="-154.14560"
         y2="3.6783011" />
      <radialGradient
         inkscape:collect="always"
         xlink:href="#linearGradient1780"
         id="radialGradient5568"
         gradientUnits="userSpaceOnUse"
         gradientTransform="matrix(-0.663014,1.058409,1.330757,0.590372,-891.7907,666.4254)"
         cx="-446.72464"
         cy="218.60974"
         fx="-446.72464"
         fy="218.60974"
         r="308.80975" />
      <linearGradient
         inkscape:collect="always"
         xlink:href="#linearGradient10630"
         id="linearGradient4391"
         gradientUnits="userSpaceOnUse"
         gradientTransform="matrix(0.437171,-0.479724,0.614848,0.557530,723.0732,-61.92042)"
         x1="-164.59187"
         y1="105.15539"
         x2="-154.14560"
         y2="3.6783011" />
    </defs>
    <linearGradient
       gradientTransform="matrix(-0.94045,0.532165,0.38407,0.84599,19.04491,-1.651551)"
       y2="20.062078"
       x2="10.358426"
       y1="29.519632"
       x1="2.7784317"
       gradientUnits="userSpaceOnUse"
       id="linearGradient2295"
       xlink:href="#linearGradient2410"
       inkscape:collect="always" />
    <linearGradient
       gradientTransform="matrix(1,0.288735,0,1,-1.06066,-1.495643)"
       gradientUnits="userSpaceOnUse"
       y2="18.977943"
       x2="10.612691"
       y1="29.519632"
       x1="2.7784317"
       id="linearGradient2291"
       xlink:href="#linearGradient2410"
       inkscape:collect="always" />
    <radialGradient
       r="6.2138119"
       fy="30.782257"
       fx="23.654802"
       cy="30.782257"
       cx="23.654802"
       gradientTransform="matrix(0.744878,-1.695914,1.517516,0.666524,-42.80168,51.19212)"
       gradientUnits="userSpaceOnUse"
       id="radialGradient2294"
       xlink:href="#linearGradient2285"
       inkscape:collect="always" />
    <linearGradient
       y2="9.9866724"
       x2="17.876976"
       y1="11.110526"
       x1="17.11726"
       gradientTransform="translate(-0.664239,0.438523)"
       gradientUnits="userSpaceOnUse"
       id="linearGradient2364"
       xlink:href="#linearGradient2306"
       inkscape:collect="always" />
    <linearGradient
       gradientTransform="translate(3.190494,2.730002)"
       gradientUnits="userSpaceOnUse"
       y2="4.4421611"
       x2="11.174212"
       y1="17.181818"
       x1="21.736279"
       id="linearGradient2337"
       xlink:href="#linearGradient2331"
       inkscape:collect="always" />
    <linearGradient
       id="linearGradient2306">
      <stop
         id="stop2308"
         offset="0"
         style="stop-color:#6a6a6b;stop-opacity:1;" />
      <stop
         id="stop2310"
         offset="1"
         style="stop-color:#c7c7c7;stop-opacity:1;" />
    </linearGradient>
    <linearGradient
       id="linearGradient2331">
      <stop
         id="stop2333"
         offset="0"
         style="stop-color:#1763a1;stop-opacity:1;" />
      <stop
         id="stop2335"
         offset="1"
         style="stop-color:#68a6c7;stop-opacity:1;" />
    </linearGradient>
    <linearGradient
       id="linearGradient2410">
      <stop
         id="stop2412"
         offset="0"
         style="stop-color:#0d348b;stop-opacity:1;" />
      <stop
         id="stop2414"
         offset="1"
         style="stop-color:#5697be;stop-opacity:1;" />
    </linearGradient>
    <linearGradient
       id="linearGradient2285"
       inkscape:collect="always">
      <stop
         id="stop2287"
         offset="0"
         style="stop-color:#0d348b;stop-opacity:1;" />
      <stop
         id="stop2289"
         offset="1"
         style="stop-color:#0d348b;stop-opacity:0;" />
    </linearGradient>
  </defs>
  <sodipodi:namedview
     id="base"
     pagecolor="#ffffff"
     bordercolor="#666666"
     borderopacity="1.0"
     inkscape:pageopacity="0.0"
     inkscape:pageshadow="2"
     inkscape:zoom="5.6568542"
     inkscape:cx="44.146092"
     inkscape:cy="0.4472605"
     inkscape:current-layer="g1160"
     inkscape:window-width="1440"
     inkscape:window-height="826"
     inkscape:window-x="0"
     inkscape:window-y="26" />
  <metadata
     id="metadata4">
    <rdf:RDF>
      <cc:Work
         rdf:about="">
        <dc:format>image/svg+xml</dc:format>
        <dc:type
           rdf:resource="http://purl.org/dc/dcmitype/StillImage" />
      </cc:Work>
    </rdf:RDF>
  </metadata>
  <g
     id="g1160"
     inkscape:groupmode="layer"
     inkscape:label="Layer 1"
     style="display:inline">
    <g
       inkscape:label="Layer 1"
       id="g29199"
       transform="matrix(-0.800240,0.000000,0.000000,0.800240,372.6259,-77.80494)" />
    <g
       id="g29315"
       inkscape:label="Layer 1"
       transform="matrix(-0.800240,0.000000,0.000000,0.800240,1530.027,255.1263)" />
    <g
       inkscape:label="Layer 1"
       id="g29317"
       transform="matrix(-0.800240,0.000000,0.000000,0.800240,2197.244,222.6400)" />
    <g
       inkscape:label="Layer 1"
       id="g3589"
       transform="matrix(-0.757324,0,0,0.76036,343.2353,-58.62023)" />
    <g
       id="g3591"
       inkscape:label="Layer 1"
       transform="matrix(-0.757324,0,0,0.76036,1438.565,257.7193)" />
    <g
       inkscape:label="Layer 1"
       id="g3593"
       transform="matrix(-0.757324,0,0,0.76036,2070.001,226.852)" />
    <g
       style="display:inline"
       inkscape:label="Layer 1"
       id="g1657"
       transform="matrix(1.899963,0,0,1.899963,-4.826035,-0.812643)">
      <path
         sodipodi:nodetypes="ccccccccccc"
         id="path2293"
         d="M 16.66629,17.031723 C 30.490389,17.761747 30.383301,34.432218 26.727666,36.903824 C 26.754294,36.673027 27.284331,31.690674 26.553632,30.856405 C 27.073842,33.790911 25.016432,34.665963 24.973251,34.582285 C 25.474014,31.481836 25.52003,30.606006 24.910497,29.150221 C 25.246234,31.816677 23.121225,32.737048 23.254191,32.562012 C 23.657806,30.167314 23.311209,27.261196 22.798523,27.152472 C 23.197744,29.383741 21.835439,30.727627 21.795559,30.754678 C 21.807196,30.374439 21.989065,26.973107 21.084786,25.914704 C 20.974478,26.901943 20.286469,28.252335 20.091646,28.376382 C 20.613742,26.817927 19.49279,24.936156 19.49279,24.936156"
         style="fill:url(#linearGradient2295);fill-opacity:1;fill-rule:evenodd;stroke:#000000;stroke-width:0.69799846;stroke-linecap:round;stroke-linejoin:round;stroke-miterlimit:4;stroke-dasharray:none;stroke-opacity:1;display:inline" />
      <g
         style="fill:#a8a8a9;fill-opacity:1;display:inline"
         transform="matrix(-0.341772,0,-4.925855e-2,0.374098,183.1297,-22.05503)"
         id="g2370">
        <path
           style="fill:#a8a8a9;fill-opacity:1;fill-rule:evenodd;stroke:none;stroke-width:2.06699991;stroke-linecap:butt;stroke-linejoin:miter;stroke-miterlimit:4;stroke-dasharray:none;stroke-opacity:1;display:inline"
           d="M 458.78172,155.64201 C 464.45972,154.43052 462.86934,158.60907 462.86934,158.60907 C 462.86934,158.60907 451.08778,177.1449 451.79178,169.88475 C 452.49578,162.62459 433.1779,177.17343 441.2708,169.27276 C 449.3637,161.37209 420.9501,173.7702 440.15738,163.45502 C 444.16207,161.30432 453.10373,156.8535 458.78172,155.64201 z "
           id="path2372"
           sodipodi:nodetypes="ccsssz" />
        <path
           style="fill:#a8a8a9;fill-opacity:1;fill-rule:evenodd;stroke:none;stroke-width:2.06699991;stroke-linecap:butt;stroke-linejoin:miter;stroke-miterlimit:4;stroke-dasharray:none;stroke-opacity:1;display:inline"
           d="M 457.86465,155.97029 C 463.54264,154.7588 461.95227,158.93735 461.95227,158.93735 C 461.95227,158.93735 450.17071,177.47317 450.87471,170.21302 C 451.57871,162.95286 432.26083,177.50171 440.35373,169.60104 C 448.44662,161.70036 420.03302,174.09847 439.24031,163.78329 C 443.245,161.63259 452.18666,157.18177 457.86465,155.97029 z "
           id="path2374"
           sodipodi:nodetypes="ccsssz" />
        <path
           style="fill:#a8a8a9;fill-opacity:1;fill-rule:evenodd;stroke:#000000;stroke-width:1.97249997;stroke-linecap:round;stroke-linejoin:round;stroke-miterlimit:4;stroke-dasharray:none;stroke-opacity:1"
           d="M 462.23239,158.97662 C 462.23239,158.97662 450.45083,177.51245 451.15483,170.25229 C 451.85883,162.99214 432.54095,177.54098 440.63385,169.64031 C 448.72674,161.73963 420.31314,174.13775 439.52043,163.82256 C 443.52512,161.67187 458.14477,156.00956 458.14477,156.00956"
           id="path2376"
           sodipodi:nodetypes="csssc" />
      </g>
      <g
         style="fill:#a8a8a9;fill-opacity:1;display:inline"
         transform="matrix(-0.341772,0,-0.108369,0.374098,185.835,-21.39443)"
         id="g1664">
        <path
           style="fill:#a8a8a9;fill-opacity:1;fill-rule:evenodd;stroke:none;stroke-width:2.06699991;stroke-linecap:butt;stroke-linejoin:miter;stroke-miterlimit:4;stroke-dasharray:none;stroke-opacity:1;display:inline"
           d="M 458.78172,155.64201 C 464.45972,154.43052 462.86934,158.60907 462.86934,158.60907 C 462.86934,158.60907 451.08778,177.1449 451.79178,169.88475 C 452.49578,162.62459 433.1779,177.17343 441.2708,169.27276 C 449.3637,161.37209 420.9501,173.7702 440.15738,163.45502 C 444.16207,161.30432 453.10373,156.8535 458.78172,155.64201 z "
           id="path1666"
           sodipodi:nodetypes="ccsssz" />
        <path
           style="fill:#a8a8a9;fill-opacity:1;fill-rule:evenodd;stroke:none;stroke-width:2.06699991;stroke-linecap:butt;stroke-linejoin:miter;stroke-miterlimit:4;stroke-dasharray:none;stroke-opacity:1;display:inline"
           d="M 457.86465,155.97029 C 463.54264,154.7588 461.95227,158.93735 461.95227,158.93735 C 461.95227,158.93735 450.17071,177.47317 450.87471,170.21302 C 451.57871,162.95286 432.26083,177.50171 440.35373,169.60104 C 448.44662,161.70036 420.03302,174.09847 439.24031,163.78329 C 443.245,161.63259 452.18666,157.18177 457.86465,155.97029 z "
           id="path1668"
           sodipodi:nodetypes="ccsssz" />
        <path
           style="fill:#a8a8a9;fill-opacity:1;fill-rule:evenodd;stroke:#000000;stroke-width:1.97249997;stroke-linecap:round;stroke-linejoin:round;stroke-miterlimit:4;stroke-dasharray:none;stroke-opacity:1"
           d="M 462.23239,158.97662 C 462.23239,158.97662 450.45083,177.51245 451.15483,170.25229 C 451.85883,162.99214 432.54095,177.54098 440.63385,169.64031 C 448.72674,161.73963 420.31314,174.13775 439.52043,163.82256 C 443.52512,161.67187 458.14477,156.00956 458.14477,156.00956"
           id="path1670"
           sodipodi:nodetypes="csssc" />
      </g>
      <g
         transform="matrix(-0.80024,0,0,0.80024,372.6259,-77.80494)"
         id="g1672"
         inkscape:label="Layer 1" />
      <g
         transform="matrix(-0.80024,0,0,0.80024,1530.027,255.1263)"
         inkscape:label="Layer 1"
         id="g1674" />
      <g
         transform="matrix(-0.80024,0,0,0.80024,2197.244,222.64)"
         id="g1676"
         inkscape:label="Layer 1" />
      <g
         transform="matrix(-0.757324,0,0,0.76036,343.2353,-58.62023)"
         id="g1678"
         inkscape:label="Layer 1" />
      <g
         transform="matrix(-0.757324,0,0,0.76036,1438.565,257.7193)"
         inkscape:label="Layer 1"
         id="g1680" />
      <g
         transform="matrix(-0.757324,0,0,0.76036,2070.001,226.852)"
         id="g1682"
         inkscape:label="Layer 1" />
      <path
         sodipodi:nodetypes="czsccscc"
         id="path1684"
         d="M 17.429504,16.314634 C 18.511714,14.160026 20.611416,7.3164683 19.445617,5.7122454 C 18.225426,4.0331739 14.761953,1.2407962 10.566211,6.1648399 C 3.6165911,14.320783 7.3570945,35.900153 14.706586,37.431207 C 30.721885,39.728984 24.66053,25.242231 20.148219,23.505351 C 20.148219,23.505351 16.347295,18.469242 17.429504,16.314634 z M 20.089071,23.475659 C 18.833496,23.083897 17.424515,23.385567 15.88955,24.128897"
         style="fill:url(#linearGradient2337);fill-opacity:1;fill-rule:evenodd;stroke:none;stroke-width:0.92659229;stroke-linecap:butt;stroke-linejoin:miter;stroke-miterlimit:4;stroke-dasharray:none;stroke-opacity:1;display:inline" />
      <path
         sodipodi:nodetypes="csssc"
         id="path1410"
         d="M 25.13263,30.266864 C 25.587117,36.97059 21.976455,37.227611 17.730104,37.514706 C 12.967385,37.836712 10.173451,34.659409 9.0459465,30.487835 C 7.9574972,26.46076 13.423653,23.671617 18.437212,23.372574 C 22.554248,23.127005 24.554675,26.688682 25.13263,30.266864 z "
         style="color:#000000;fill:url(#radialGradient2294);fill-opacity:1;fill-rule:nonzero;stroke:none;stroke-width:0.84875;stroke-linecap:round;stroke-linejoin:round;marker:none;marker-start:none;marker-mid:none;marker-end:none;stroke-miterlimit:4;stroke-dashoffset:0;stroke-opacity:1;visibility:visible;display:inline;overflow:visible" />
      <path
         sodipodi:nodetypes="cscsscscc"
         id="path1687"
         d="M 19.320145,5.8382206 C 19.200031,5.6239796 17.812396,3.2714118 15.209345,3.4925007 C 15.16989,3.4958517 15.13105,3.4879385 15.091049,3.4925007 C 13.851011,3.6339304 12.048851,4.1224636 10.566211,6.1648399 C 3.8792022,15.376376 7.2547233,36.253476 15.614797,37.431207 C 27.986866,39.17413 27.498243,26.816767 20.148219,23.505351 C 20.148219,23.505351 16.138175,18.385259 17.220384,16.230651 M 20.089071,23.475659 C 19.628991,23.349062 16.982573,23.076208 15.88955,24.128897"
         style="fill:none;fill-opacity:1;fill-rule:evenodd;stroke:#000000;stroke-width:0.87900001;stroke-linecap:round;stroke-linejoin:round;stroke-miterlimit:4;stroke-dasharray:none;stroke-opacity:1;display:inline" />
      <path
         id="path1689"
         d="M 20.875415,31.982882 C 22.504303,32.025367 20.858893,30.930331 21.104064,32.176647 C 19.995777,32.583236 20.060252,32.27917 20.895673,32.666828 L 19.630847,32.153804 C 20.681417,32.806472 21.30921,33.575247 22.323842,32.825651 C 22.418544,31.598134 20.621481,30.623079 19.609083,31.359379 L 20.875415,31.982882 z "
         style="fill:#000000;fill-opacity:1;fill-rule:nonzero;stroke:none;stroke-width:1pt;stroke-linecap:butt;stroke-linejoin:miter;stroke-opacity:1;display:inline" />
      <g
         transform="matrix(1.232795,-0.102297,0.173477,1.274376,-2.534161,1.179338)"
         id="g2352">
        <path
           style="fill:url(#linearGradient2364);fill-opacity:1;fill-rule:evenodd;stroke:#000000;stroke-width:0.375;stroke-linecap:round;stroke-linejoin:round;stroke-miterlimit:4;stroke-dasharray:none;stroke-opacity:1"
           d="M 17.619727,13.156987 C 17.619727,13.156987 18.761396,10.029462 15.481493,7.6934039 C 14.990276,9.9137273 12.686156,9.4154374 12.532491,9.4362263 C 12.378825,9.4570148 13.265025,10.156332 12.642433,11.133403 C 12.019841,12.110472 14.095931,10.310856 17.619727,13.156987 z "
           id="path1431"
           sodipodi:nodetypes="ccssc" />
        <path
           style="fill:none;fill-opacity:0.75;fill-rule:evenodd;stroke:#000000;stroke-width:0.2;stroke-linecap:round;stroke-linejoin:round;stroke-miterlimit:4;stroke-dasharray:none;stroke-opacity:1"
           d="M 12.715596,9.5688085 C 12.715596,9.5688085 15.027522,9.8577993 17.59633,12.876148"
           id="path2314" />
      </g>
      <path
         sodipodi:nodetypes="ccccccs"
         id="path2329"
         d="M 18.582991,4.9187032 C 15.880693,1.2740324 13.629878,1.2374051 13.61886,1.1434039 C 13.61886,1.1434039 16.626216,4.2792847 15.729933,4.6820493 C 13.307791,1.9885748 12.288759,2.5139033 12.193976,2.4850533 C 12.127051,2.4922802 15.039223,4.5884003 14.132355,5.026095 C 11.957707,3.3738756 10.507886,3.7715975 10.589575,3.8171449 C 10.61384,3.8443342 12.463303,4.9978202 12.685398,5.7375336"
         style="fill:#68a6c7;fill-opacity:1;fill-rule:evenodd;stroke:#000000;stroke-width:0.87900001;stroke-linecap:round;stroke-linejoin:round;stroke-miterlimit:4;stroke-dasharray:none;stroke-opacity:1" />
      <path
         sodipodi:nodetypes="ccccccccccc"
         id="path2404"
         d="M 8.1273255,17.462127 C -3.2873454,22.209565 3.2058789,39.705142 7.24778,41.251199 C 7.1366115,41.01622 4.7746325,35.930646 5.0723795,34.843176 C 5.7593405,38.078118 7.8359716,38.405776 7.8403639,38.30537 C 6.225934,35.189899 5.8506243,34.282347 5.8071607,32.576333 C 6.5472355,35.476354 8.6984592,35.832195 8.5187458,35.686453 C 7.2575595,33.285 6.4346247,30.129885 6.8265933,29.867977 C 7.3458203,32.328745 9.0144638,33.349427 9.0585908,33.366385 C 8.9027074,32.969973 7.442497,29.446361 7.8010081,28.073275 C 8.2734975,29.079446 9.3741918,30.301097 9.5866518,30.375425 C 8.5464081,28.887261 8.7719905,26.586152 8.7719905,26.586152"
         style="fill:url(#linearGradient2291);fill-opacity:1;fill-rule:evenodd;stroke:#000000;stroke-width:0.69799846;stroke-linecap:round;stroke-linejoin:round;stroke-miterlimit:4;stroke-dasharray:none;stroke-opacity:1" />
      <path
         style="fill:#000000;fill-opacity:1;fill-rule:nonzero;stroke:#0f0f0f;stroke-width:0;stroke-miterlimit:4;stroke-opacity:1"
         d="M 14.783117,8.4554548 C 14.783117,9.8182858 15.574711,10.854609 16.55007,10.768679 C 17.525428,10.68275 18.317021,9.5069473 18.317021,8.1441164 C 18.317021,6.7812855 17.525428,5.7449593 16.55007,5.8308888 C 15.574711,5.9168183 14.783117,7.092624 14.783117,8.4554548 z "
         id="path1696" />
      <path
         style="fill:#000000;fill-opacity:1;fill-rule:nonzero;stroke:#0f0f0f;stroke-width:0;stroke-miterlimit:4;stroke-opacity:1"
         d="M 17.653492,8.4962261 C 17.653492,9.4442351 18.258605,10.160327 19.004185,10.094641 C 19.749771,10.028954 20.354878,9.2062418 20.354878,8.2582328 C 20.354878,7.310221 19.749771,6.5941316 19.004185,6.659818 C 18.258605,6.7255039 17.653492,7.5482143 17.653492,8.4962261 z "
         id="path1698" />
      <path
         style="fill:#f1c616;fill-opacity:1;fill-rule:nonzero;stroke:#0f0f0f;stroke-width:0;stroke-miterlimit:4;stroke-opacity:1"
         d="M 18.017256,8.5158316 C 18.017256,9.2216676 18.465066,9.7550639 19.01684,9.7064525 C 19.568607,9.6578415 20.016421,9.0455403 20.016421,8.3397042 C 20.016421,7.6338709 19.568607,7.1004748 19.01684,7.1490858 C 18.465066,7.1976973 18.017256,7.8099983 18.017256,8.5158316 z "
         id="path1700" />
      <path
         style="fill:#f1c616;fill-opacity:1;fill-rule:nonzero;stroke:#0f0f0f;stroke-width:0;stroke-miterlimit:4;stroke-opacity:1"
         d="M 15.293135,8.5894898 C 15.413517,9.6685962 16.144404,10.409542 16.924576,10.243384 C 17.704751,10.077225 18.240239,9.0665734 18.119855,7.9874672 C 17.999477,6.9083632 17.268593,6.16742 16.488418,6.3335784 C 15.708245,6.4997337 15.172757,7.5103858 15.293135,8.5894898 z "
         id="path1702" />
      <path
         style="fill:#000000;fill-opacity:1;fill-rule:nonzero;stroke:#0f0f0f;stroke-width:0;stroke-miterlimit:4;stroke-opacity:1"
         d="M 16.134203,9.0019874 C 16.134203,9.454606 16.526102,9.7874254 17.008984,9.7448833 C 17.491863,9.7023415 17.883762,9.3004691 17.883762,8.8478505 C 17.883762,8.3952321 17.491863,8.0624153 17.008984,8.1049571 C 16.526102,8.1474992 16.134203,8.549369 16.134203,9.0019874 z "
         id="path1704" />
      <path
         style="fill:#000000;fill-opacity:1;fill-rule:nonzero;stroke:#0f0f0f;stroke-width:0;stroke-miterlimit:4;stroke-opacity:1;display:inline"
         d="M 18.202034,8.8292483 C 18.202034,9.2818668 18.593933,9.6146863 19.076815,9.5721442 C 19.559694,9.5296024 19.951593,9.1277299 19.951593,8.6751114 C 19.951593,8.2224929 19.559694,7.8896761 19.076815,7.9322179 C 18.593933,7.97476 18.202034,8.3766298 18.202034,8.8292483 z "
         id="path1706" />
    </g>
  </g>
</svg>
