<?xml version="1.0" encoding="UTF-8" standalone="no"?>
<!-- Created with Inkscape (http://www.inkscape.org/) -->
<svg
   xmlns:dc="http://purl.org/dc/elements/1.1/"
   xmlns:cc="http://web.resource.org/cc/"
   xmlns:rdf="http://www.w3.org/1999/02/22-rdf-syntax-ns#"
   xmlns:svg="http://www.w3.org/2000/svg"
   xmlns="http://www.w3.org/2000/svg"
   xmlns:xlink="http://www.w3.org/1999/xlink"
   xmlns:sodipodi="http://inkscape.sourceforge.net/DTD/sodipodi-0.dtd"
   xmlns:inkscape="http://www.inkscape.org/namespaces/inkscape"
   width="31"
   height="44"
   id="svg1"
   sodipodi:version="0.32"
   inkscape:version="0.43"
   sodipodi:docbase="/home/yekcim/Desktop/SVG/Skins/thunderbirdteam"
   sodipodi:docname="jetpack-fly.svg"
   inkscape:export-filename="/home/yekcim/Desktop/manchot.png"
   inkscape:export-xdpi="90"
   inkscape:export-ydpi="90"
   version="1.0"
   inkscape:output_extension="org.inkscape.output.svg.inkscape">
  <defs
     id="defs3">
    <linearGradient
       inkscape:collect="always"
       id="linearGradient2285">
      <stop
         style="stop-color:#0d348b;stop-opacity:1;"
         offset="0"
         id="stop2287" />
      <stop
         style="stop-color:#0d348b;stop-opacity:0;"
         offset="1"
         id="stop2289" />
    </linearGradient>
    <linearGradient
       id="linearGradient2410">
      <stop
         style="stop-color:#0d348b;stop-opacity:1;"
         offset="0"
         id="stop2412" />
      <stop
         style="stop-color:#5697be;stop-opacity:1;"
         offset="1"
         id="stop2414" />
    </linearGradient>
    <linearGradient
       id="linearGradient2331">
      <stop
         style="stop-color:#1763a1;stop-opacity:1;"
         offset="0"
         id="stop2333" />
      <stop
         style="stop-color:#68a6c7;stop-opacity:1;"
         offset="1"
         id="stop2335" />
    </linearGradient>
    <linearGradient
       id="linearGradient2306">
      <stop
         style="stop-color:#6a6a6b;stop-opacity:1;"
         offset="0"
         id="stop2308" />
      <stop
         style="stop-color:#c7c7c7;stop-opacity:1;"
         offset="1"
         id="stop2310" />
    </linearGradient>
    <defs
       id="defs1062">
      <linearGradient
         inkscape:collect="always"
         id="linearGradient10630">
        <stop
           style="stop-color:#616161;stop-opacity:1;"
           offset="0"
           id="stop10631" />
        <stop
           style="stop-color:#616161;stop-opacity:0;"
           offset="1"
           id="stop10632" />
      </linearGradient>
      <linearGradient
         inkscape:collect="always"
         id="linearGradient10560">
        <stop
           style="stop-color:#000000;stop-opacity:1;"
           offset="0"
           id="stop10561" />
        <stop
           style="stop-color:#000000;stop-opacity:0;"
           offset="1"
           id="stop10562" />
      </linearGradient>
      <linearGradient
         id="linearGradient13777">
        <stop
           offset="0.0000000"
           style="stop-color:#d17d00;stop-opacity:1.0000000;"
           id="stop13779" />
        <stop
           offset="1.0000000"
           style="stop-color:#a7b135;stop-opacity:0.0000000;"
           id="stop13778" />
      </linearGradient>
      <linearGradient
         id="linearGradient11847">
        <stop
           offset="0.0000000"
           style="stop-color:#000000;stop-opacity:1.0000000;"
           id="stop11849" />
        <stop
           offset="1.0000000"
           style="stop-color:#000000;stop-opacity:0.0000000;"
           id="stop11848" />
      </linearGradient>
      <linearGradient
         id="linearGradient6187">
        <stop
           style="stop-color:#2e1b0b;stop-opacity:1.0000000;"
           offset="0.0000000"
           id="stop6188" />
        <stop
           style="stop-color:#431e00;stop-opacity:0;"
           offset="1"
           id="stop6189" />
      </linearGradient>
      <linearGradient
         inkscape:collect="always"
         id="linearGradient4909">
        <stop
           style="stop-color:#000000;stop-opacity:1;"
           offset="0"
           id="stop4910" />
        <stop
           style="stop-color:#000000;stop-opacity:0;"
           offset="1"
           id="stop4911" />
      </linearGradient>
      <linearGradient
         id="linearGradient1780">
        <stop
           style="stop-color:#454545;stop-opacity:1.0000000;"
           offset="0.0000000"
           id="stop1781" />
        <stop
           style="stop-color:#ffffff;stop-opacity:0;"
           offset="1"
           id="stop1782" />
      </linearGradient>
      <linearGradient
         id="linearGradient3869">
        <stop
           offset="0.0000000"
           style="stop-color:#d2dd2e;stop-opacity:1.0000000;"
           id="stop3872" />
        <stop
           offset="0.76146787"
           style="stop-color:#b3b96d;stop-opacity:0.65555555;"
           id="stop3871" />
        <stop
           offset="1.0000000"
           style="stop-color:#b1b952;stop-opacity:0.0000000;"
           id="stop3870" />
      </linearGradient>
      <linearGradient
         inkscape:collect="always"
         xlink:href="#linearGradient9217"
         id="linearGradient3799"
         gradientUnits="userSpaceOnUse"
         gradientTransform="matrix(0.112563,0,0,0.115364,26.43402,157.1761)"
         x1="4373.3052"
         y1="319.33466"
         x2="96.982727"
         y2="2708.2139" />
      <linearGradient
         inkscape:collect="always"
         xlink:href="#linearGradient7337"
         id="linearGradient3800"
         gradientUnits="userSpaceOnUse"
         gradientTransform="matrix(0.230667,0,0,7.644947e-2,26.55186,129.5549)"
         x1="862.1651"
         y1="2479.5938"
         x2="1523.3719"
         y2="2479.5938" />
      <linearGradient
         inkscape:collect="always"
         xlink:href="#linearGradient5442"
         id="linearGradient3801"
         gradientUnits="userSpaceOnUse"
         gradientTransform="matrix(0.162855,0,0,7.648058e-2,75.52973,161.8049)"
         x1="580.22791"
         y1="2173.3171"
         x2="1782.0374"
         y2="1630.2036" />
      <radialGradient
         inkscape:collect="always"
         xlink:href="#linearGradient5442"
         id="radialGradient3802"
         gradientUnits="userSpaceOnUse"
         gradientTransform="matrix(0.159978,0,0,7.785591e-2,363.0923,173.8583)"
         cx="-606.79681"
         cy="1573.4399"
         fx="-606.79681"
         fy="1573.4399"
         r="739.70477" />
      <linearGradient
         inkscape:collect="always"
         xlink:href="#linearGradient21707"
         id="linearGradient3803"
         gradientUnits="userSpaceOnUse"
         gradientTransform="scale(0.659854,1.515487)"
         x1="4848.5972"
         y1="3945.1116"
         x2="5625.4653"
         y2="1720.9402" />
      <linearGradient
         inkscape:collect="always"
         xlink:href="#linearGradient7337"
         id="linearGradient3804"
         gradientUnits="userSpaceOnUse"
         gradientTransform="matrix(0.236634,0,0,0.208284,-2451.443,4783.687)"
         x1="-7797.7422"
         y1="5021.4731"
         x2="-352.84012"
         y2="1184.9034" />
      <linearGradient
         inkscape:collect="always"
         xlink:href="#linearGradient7337"
         id="linearGradient3805"
         gradientUnits="userSpaceOnUse"
         gradientTransform="matrix(0.236634,0,0,0.208284,-2451.443,4783.687)"
         x1="-7797.7422"
         y1="5021.4731"
         x2="-352.84012"
         y2="1184.9034" />
      <defs
         id="defs3745">
        <linearGradient
           id="linearGradient22333"
           x1="0"
           y1="0.5"
           x2="1"
           y2="0.5"
           gradientUnits="objectBoundingBox"
           spreadMethod="pad"
           xlink:href="#linearGradient13777" />
        <linearGradient
           id="linearGradient21707">
          <stop
             style="stop-color:#ffffff;stop-opacity:1.0000000;"
             offset="0.0000000"
             id="stop21708" />
          <stop
             style="stop-color:#a7b135;stop-opacity:0;"
             offset="1"
             id="stop21709" />
        </linearGradient>
        <linearGradient
           inkscape:collect="always"
           id="linearGradient9217"
           x1="0"
           y1="0.5"
           x2="1"
           y2="0.5"
           gradientUnits="objectBoundingBox"
           spreadMethod="pad"
           xlink:href="#linearGradient11847" />
        <linearGradient
           id="linearGradient8584">
          <stop
             style="stop-color:#000000;stop-opacity:1.0000000;"
             offset="0.0000000"
             id="stop8585" />
          <stop
             style="stop-color:#cece4c;stop-opacity:0;"
             offset="1"
             id="stop8586" />
        </linearGradient>
        <linearGradient
           id="linearGradient7337">
          <stop
             style="stop-color:#b1b12f;stop-opacity:1.0000000;"
             offset="0.0000000"
             id="stop7338" />
          <stop
             style="stop-color:#cece4c;stop-opacity:0;"
             offset="1"
             id="stop7339" />
        </linearGradient>
        <linearGradient
           id="linearGradient5442"
           x1="0"
           y1="0.5"
           x2="1"
           y2="0.5"
           gradientUnits="objectBoundingBox"
           spreadMethod="pad"
           xlink:href="#linearGradient3869" />
      </defs>
      <sodipodi:namedview
         id="namedview3772"
         pagecolor="#ffffff"
         bordercolor="#666666"
         borderopacity="1.0"
         inkscape:pageopacity="0.0"
         inkscape:pageshadow="2"
         inkscape:zoom="0.80057989"
         inkscape:cx="297.63780"
         inkscape:cy="420.94487"
         inkscape:current-layer="layer1"
         inkscape:window-width="1440"
         inkscape:window-height="851"
         inkscape:window-x="0"
         inkscape:window-y="27"
         showguides="true"
         inkscape:guide-bbox="true" />
      <metadata
         id="metadata3773">
        <rdf:RDF>
          <cc:Work
             rdf:about="">
            <dc:format>image/svg+xml</dc:format>
            <dc:type
               rdf:resource="http://purl.org/dc/dcmitype/StillImage" />
          </cc:Work>
        </rdf:RDF>
      </metadata>
      <linearGradient
         inkscape:collect="always"
         xlink:href="#linearGradient4909"
         id="linearGradient6167"
         gradientUnits="userSpaceOnUse"
         gradientTransform="scale(0.891889,1.121216)"
         x1="-148.77991"
         y1="106.3186"
         x2="-160.14931"
         y2="-66.932083" />
      <linearGradient
         inkscape:collect="always"
         xlink:href="#linearGradient10560"
         id="linearGradient10563"
         gradientTransform="matrix(0.915477,0.127968,-0.149762,1.071392,19.54851,-8.45341)"
         x1="698.5448"
         y1="69.852913"
         x2="758.31232"
         y2="359.09653"
         gradientUnits="userSpaceOnUse" />
      <linearGradient
         inkscape:collect="always"
         xlink:href="#linearGradient10560"
         id="linearGradient10578"
         gradientUnits="userSpaceOnUse"
         gradientTransform="matrix(0.915477,0.127968,-0.149762,1.071392,0,0)"
         x1="647.37115"
         y1="96.894905"
         x2="770.59186"
         y2="342.74301" />
      <linearGradient
         inkscape:collect="always"
         xlink:href="#linearGradient4909"
         id="linearGradient10604"
         gradientUnits="userSpaceOnUse"
         gradientTransform="scale(0.891889,1.121216)"
         x1="-148.77991"
         y1="106.3186"
         x2="-160.14931"
         y2="-66.932083" />
      <linearGradient
         inkscape:collect="always"
         xlink:href="#linearGradient10630"
         id="linearGradient10633"
         gradientTransform="scale(0.883732,1.131565)"
         x1="-164.59187"
         y1="105.15539"
         x2="-154.1456"
         y2="3.6783011"
         gradientUnits="userSpaceOnUse" />
      <linearGradient
         inkscape:collect="always"
         xlink:href="#linearGradient10630"
         id="linearGradient10647"
         gradientUnits="userSpaceOnUse"
         gradientTransform="scale(0.883732,1.131565)"
         x1="-164.59187"
         y1="105.15539"
         x2="-154.1456"
         y2="3.6783011" />
      <radialGradient
         inkscape:collect="always"
         xlink:href="#linearGradient1780"
         id="radialGradient5568"
         gradientUnits="userSpaceOnUse"
         gradientTransform="matrix(-0.663014,1.058409,1.330757,0.590372,-891.7907,666.4254)"
         cx="-446.72464"
         cy="218.60974"
         fx="-446.72464"
         fy="218.60974"
         r="308.80975" />
      <linearGradient
         inkscape:collect="always"
         xlink:href="#linearGradient10630"
         id="linearGradient4391"
         gradientUnits="userSpaceOnUse"
         gradientTransform="matrix(0.437171,-0.479724,0.614848,0.55753,723.0732,-61.92042)"
         x1="-164.59187"
         y1="105.15539"
         x2="-154.1456"
         y2="3.6783011" />
    </defs>
    <linearGradient
       inkscape:collect="always"
       xlink:href="#linearGradient2410"
       id="linearGradient1924"
       gradientUnits="userSpaceOnUse"
       gradientTransform="matrix(0.911152,0.50316,-0.221604,0.975137,5.487706,-6.656816)"
       x1="2.7784317"
       y1="29.519632"
       x2="10.612691"
       y2="18.977943" />
    <radialGradient
       inkscape:collect="always"
       xlink:href="#linearGradient2285"
       id="radialGradient1933"
       gradientUnits="userSpaceOnUse"
       gradientTransform="matrix(1.227305,-1.387332,1.241394,1.098203,-47.25411,30.45596)"
       cx="23.654802"
       cy="30.782257"
       fx="23.654802"
       fy="30.782257"
       r="6.2138119" />
    <linearGradient
       inkscape:collect="always"
       xlink:href="#linearGradient2331"
       id="linearGradient1936"
       gradientUnits="userSpaceOnUse"
       gradientTransform="matrix(0.952206,0.305456,-0.305456,0.952206,11.34297,-1.641367)"
       x1="21.736279"
       y1="17.181818"
       x2="11.174212"
       y2="4.4421611" />
    <linearGradient
       inkscape:collect="always"
       xlink:href="#linearGradient2410"
       id="linearGradient1947"
       gradientUnits="userSpaceOnUse"
       gradientTransform="matrix(-1.058055,0.219465,0.107301,0.922873,28.67627,-0.682532)"
       x1="2.7784317"
       y1="29.519632"
       x2="10.358426"
       y2="20.062078" />
    <linearGradient
       inkscape:collect="always"
       xlink:href="#linearGradient2306"
       id="linearGradient1542"
       gradientUnits="userSpaceOnUse"
       gradientTransform="translate(-0.664239,0.438523)"
       x1="17.11726"
       y1="11.110526"
       x2="17.876976"
       y2="9.9866724" />
  </defs>
  <sodipodi:namedview
     id="base"
     pagecolor="#ffffff"
     bordercolor="#666666"
     borderopacity="1.0"
     inkscape:pageopacity="0.0"
     inkscape:pageshadow="2"
     inkscape:zoom="10.494107"
     inkscape:cx="14.293932"
     inkscape:cy="21.325294"
     inkscape:current-layer="g1160"
     inkscape:window-width="1440"
     inkscape:window-height="826"
     inkscape:window-x="0"
     inkscape:window-y="26" />
  <metadata
     id="metadata4">
    <rdf:RDF>
      <cc:Work
         rdf:about="">
        <dc:format>image/svg+xml</dc:format>
        <dc:type
           rdf:resource="http://purl.org/dc/dcmitype/StillImage" />
      </cc:Work>
    </rdf:RDF>
  </metadata>
  <g
     id="g1160"
     inkscape:groupmode="layer"
     inkscape:label="Layer 1"
     style="display:inline">
    <g
       id="g1534"
       transform="matrix(-0.265346,-0.170499,-0.283829,0.299474,182.1285,66.10737)"
       style="fill:#a8a8a9;fill-opacity:1;display:inline">
      <path
         sodipodi:nodetypes="ccsssz"
         id="path1536"
         d="M 458.78172,155.64201 C 464.45972,154.43052 462.86934,158.60907 462.86934,158.60907 C 462.86934,158.60907 451.08778,177.1449 451.79178,169.88475 C 452.49578,162.62459 433.1779,177.17343 441.2708,169.27276 C 449.3637,161.37209 420.9501,173.7702 440.15738,163.45502 C 444.16207,161.30432 453.10373,156.8535 458.78172,155.64201 z "
         style="fill:#a8a8a9;fill-opacity:1;fill-rule:evenodd;stroke:none;stroke-width:2.06699991;stroke-linecap:butt;stroke-linejoin:miter;stroke-miterlimit:4;stroke-dasharray:none;stroke-opacity:1;display:inline" />
      <path
         sodipodi:nodetypes="ccsssz"
         id="path1538"
         d="M 457.86465,155.97029 C 463.54264,154.7588 461.95227,158.93735 461.95227,158.93735 C 461.95227,158.93735 450.17071,177.47317 450.87471,170.21302 C 451.57871,162.95286 432.26083,177.50171 440.35373,169.60104 C 448.44662,161.70036 420.03302,174.09847 439.24031,163.78329 C 443.245,161.63259 452.18666,157.18177 457.86465,155.97029 z "
         style="fill:#a8a8a9;fill-opacity:1;fill-rule:evenodd;stroke:none;stroke-width:2.06699991;stroke-linecap:butt;stroke-linejoin:miter;stroke-miterlimit:4;stroke-dasharray:none;stroke-opacity:1;display:inline" />
      <path
         sodipodi:nodetypes="csssc"
         id="path1540"
         d="M 462.23239,158.97662 C 462.23239,158.97662 450.45083,177.51245 451.15483,170.25229 C 451.85883,162.99214 432.54095,177.54098 440.63385,169.64031 C 448.72674,161.73963 420.31314,174.13775 439.52043,163.82256 C 443.52512,161.67187 458.14477,156.00956 458.14477,156.00956"
         style="fill:#a8a8a9;fill-opacity:1;fill-rule:evenodd;stroke:#000000;stroke-width:1.97249997;stroke-linecap:round;stroke-linejoin:round;stroke-miterlimit:4;stroke-dasharray:none;stroke-opacity:1" />
    </g>
    <g
       inkscape:label="Layer 1"
       id="g29199"
       transform="matrix(-0.761993,-0.244438,-0.244438,0.761993,388.1027,35.09081)" />
    <g
       id="g29315"
       inkscape:label="Layer 1"
       transform="matrix(-0.761993,-0.244438,-0.244438,0.761993,1388.491,705.6452)" />
    <g
       inkscape:label="Layer 1"
       id="g29317"
       transform="matrix(-0.761993,-0.244438,-0.244438,0.761993,2033.742,878.5171)" />
    <g
       inkscape:label="Layer 1"
       id="g3589"
       transform="matrix(-0.721129,-0.231329,-0.232257,0.724019,354.2567,44.38107)" />
    <g
       id="g3591"
       inkscape:label="Layer 1"
       transform="matrix(-0.721129,-0.231329,-0.232257,0.724019,1300.608,680.1767)" />
    <g
       inkscape:label="Layer 1"
       id="g3593"
       transform="matrix(-0.721129,-0.231329,-0.232257,0.724019,1911.294,843.6606)" />
    <path
       style="fill:url(#linearGradient1947);fill-opacity:1;fill-rule:evenodd;stroke:#000000;stroke-width:0.69799846;stroke-linecap:round;stroke-linejoin:round;stroke-miterlimit:4;stroke-dasharray:none;stroke-opacity:1;display:inline"
       d="M 20.704417,16.381232 C 33.644819,21.299021 28.450752,37.140035 24.214867,38.376877 C 24.310721,38.165245 26.337315,33.582921 25.896372,32.565328 C 25.495356,35.518484 23.268988,35.723266 23.25343,35.630397 C 24.677311,32.831091 24.988655,32.011177 24.852933,30.438784 C 24.358138,33.080352 22.053559,33.307638 22.233635,33.181583 C 23.349435,31.024624 23.907095,28.15153 23.452123,27.891399 C 23.150709,30.137972 21.443015,31.001504 21.396778,31.015081 C 21.524005,30.656569 22.73614,27.473353 22.198375,26.189318 C 21.791781,27.095678 20.724169,28.171373 20.500767,28.229982 C 21.473949,26.905489 20.98137,24.771253 20.98137,24.771253"
       id="path2293"
       sodipodi:nodetypes="ccccccccccc" />
    <g
       id="g30587"
       transform="matrix(-0.265346,-0.170499,-0.283829,0.299474,176.4408,66.37938)"
       style="fill:#a8a8a9;fill-opacity:1;display:inline">
      <path
         sodipodi:nodetypes="ccsssz"
         id="path30564"
         d="M 458.78172,155.64201 C 464.45972,154.43052 462.86934,158.60907 462.86934,158.60907 C 462.86934,158.60907 451.08778,177.1449 451.79178,169.88475 C 452.49578,162.62459 433.1779,177.17343 441.2708,169.27276 C 449.3637,161.37209 420.9501,173.7702 440.15738,163.45502 C 444.16207,161.30432 453.10373,156.8535 458.78172,155.64201 z "
         style="fill:#a8a8a9;fill-opacity:1;fill-rule:evenodd;stroke:none;stroke-width:2.06699991;stroke-linecap:butt;stroke-linejoin:miter;stroke-miterlimit:4;stroke-dasharray:none;stroke-opacity:1;display:inline" />
      <path
         sodipodi:nodetypes="ccsssz"
         id="path30566"
         d="M 457.86465,155.97029 C 463.54264,154.7588 461.95227,158.93735 461.95227,158.93735 C 461.95227,158.93735 450.17071,177.47317 450.87471,170.21302 C 451.57871,162.95286 432.26083,177.50171 440.35373,169.60104 C 448.44662,161.70036 420.03302,174.09847 439.24031,163.78329 C 443.245,161.63259 452.18666,157.18177 457.86465,155.97029 z "
         style="fill:#a8a8a9;fill-opacity:1;fill-rule:evenodd;stroke:none;stroke-width:2.06699991;stroke-linecap:butt;stroke-linejoin:miter;stroke-miterlimit:4;stroke-dasharray:none;stroke-opacity:1;display:inline" />
      <path
         sodipodi:nodetypes="csssc"
         id="path30568"
         d="M 462.23239,158.97662 C 462.23239,158.97662 450.45083,177.51245 451.15483,170.25229 C 451.85883,162.99214 432.54095,177.54098 440.63385,169.64031 C 448.72674,161.73963 420.31314,174.13775 439.52043,163.82256 C 443.52512,161.67187 458.14477,156.00956 458.14477,156.00956"
         style="fill:#a8a8a9;fill-opacity:1;fill-rule:evenodd;stroke:#000000;stroke-width:1.97249997;stroke-linecap:round;stroke-linejoin:round;stroke-miterlimit:4;stroke-dasharray:none;stroke-opacity:1" />
    </g>
    <path
       style="fill:url(#linearGradient1936);fill-opacity:1;fill-rule:evenodd;stroke:none;stroke-width:0.92659229;stroke-linecap:butt;stroke-linejoin:miter;stroke-miterlimit:4;stroke-dasharray:none;stroke-opacity:1;display:inline"
       d="M 21.029166,15.661563 C 22.717792,13.940499 26.530322,8.0472206 25.910261,6.1635692 C 25.26127,4.1920322 23.121097,1.0252066 17.316988,3.8822638 C 6.7820032,9.0680817 5.0880001,31.187164 11.708976,34.918994 C 26.256972,41.998922 24.91038,26.353069 21.14427,23.320888 C 21.14427,23.320888 19.340542,17.382626 21.029166,15.661563 z M 21.097018,23.274548 C 20.021118,22.517987 18.587331,22.374857 16.898673,22.613796"
       id="path3596"
       sodipodi:nodetypes="czsccscc" />
    <path
       style="color:#000000;fill:url(#radialGradient1933);fill-opacity:1;fill-rule:nonzero;stroke:none;stroke-width:0.84875;stroke-linecap:round;stroke-linejoin:round;marker:none;marker-start:none;marker-mid:none;marker-end:none;stroke-miterlimit:4;stroke-dashoffset:0;stroke-opacity:1;visibility:visible;display:inline;overflow:visible"
       d="M 23.825111,31.281761 C 22.210183,37.803916 18.693579,36.945755 14.562483,35.922055 C 9.9290337,34.773869 8.2391591,30.894997 8.4397751,26.578396 C 8.6334416,22.411317 14.69031,21.425148 19.555596,22.67182 C 23.550874,23.695561 24.367757,27.698055 23.825111,31.281761 z "
       id="path1410"
       sodipodi:nodetypes="csssc" />
    <path
       style="fill:none;fill-opacity:1;fill-rule:evenodd;stroke:#000000;stroke-width:0.87900001;stroke-linecap:round;stroke-linejoin:round;stroke-miterlimit:4;stroke-dasharray:none;stroke-opacity:1;display:inline"
       d="M 25.752305,6.2451974 C 25.703373,6.0045063 25.100665,3.3405151 22.554491,2.7559195 C 22.515898,2.7470586 22.481331,2.7276597 22.441849,2.7197853 C 21.217876,2.4756784 19.575141,2.7552033 17.316988,3.8822638 C 5.9082614,9.5764405 4.8658203,31.471554 12.57378,35.196413 C 23.823325,40.632737 27.131516,28.719149 21.14427,23.320888 C 21.14427,23.320888 19.403132,17.385269 21.091757,15.664206 M 21.097018,23.274548 C 20.697597,23.013468 18.261007,21.94529 16.898673,22.613796"
       id="path3594"
       sodipodi:nodetypes="cscsscscc" />
    <path
       style="fill:#000000;fill-opacity:1;fill-rule:nonzero;stroke:none;stroke-width:1pt;stroke-linecap:butt;stroke-linejoin:miter;stroke-opacity:1;display:inline"
       d="M 19.247197,31.615372 C 20.785257,32.15338 19.552973,30.60808 19.405731,31.869719 C 18.226218,31.918342 18.380491,31.648503 19.057571,32.272818 L 18.009902,31.397964 C 18.8109,32.340342 19.173862,33.264137 20.368969,32.860293 C 20.834097,31.720371 19.420759,30.242994 18.231841,30.63486 L 19.247197,31.615372 z "
       id="path3604" />
    <path
       style="fill:url(#linearGradient1924);fill-opacity:1;fill-rule:evenodd;stroke:#000000;stroke-width:0.69799846;stroke-linecap:round;stroke-linejoin:round;stroke-miterlimit:4;stroke-dasharray:none;stroke-opacity:1"
       d="M 10.246129,13.865697 C -1.9367878,15.96556 0.5179021,34.465065 4.1166956,36.868384 C 4.0603633,36.614612 2.8840951,31.132057 3.4154269,30.137607 C 3.3684315,33.444351 5.3208201,34.224053 5.3473536,34.127117 C 4.4634651,30.731342 4.2986039,29.763185 4.6342806,28.089957 C 4.7132984,31.081876 6.7321796,31.90559 6.5892315,31.723647 C 5.8915743,29.102418 5.7882869,25.843384 6.2285496,25.67485 C 6.1895506,28.189498 7.5905188,29.554581 7.6297909,29.580895 C 7.5656298,29.159795 6.922572,25.400202 7.5764508,24.140703 C 7.8142207,25.226564 8.6168253,26.661759 8.8075315,26.781321 C 8.1229349,25.099635 8.8528438,22.905729 8.8528438,22.905729"
       id="path2404"
       sodipodi:nodetypes="ccccccccccc" />
    <g
       id="g2352"
       transform="matrix(1.052439,-0.650092,0.732388,1.057229,2.235506,7.733068)">
      <path
         sodipodi:nodetypes="ccssc"
         id="path1431"
         d="M 17.619727,13.156987 C 17.619727,13.156987 18.761396,10.029462 15.481493,7.6934039 C 14.990276,9.9137273 12.686156,9.4154374 12.532491,9.4362263 C 12.378825,9.4570148 13.265025,10.156332 12.642433,11.133403 C 12.019841,12.110472 14.095931,10.310856 17.619727,13.156987 z "
         style="fill:url(#linearGradient1542);fill-opacity:1;fill-rule:evenodd;stroke:#000000;stroke-width:0.375;stroke-linecap:round;stroke-linejoin:round;stroke-miterlimit:4;stroke-dasharray:none;stroke-opacity:1" />
      <path
         id="path2314"
         d="M 12.715596,9.5688085 C 12.715596,9.5688085 15.027522,9.8577993 17.59633,12.876148"
         style="fill:none;fill-opacity:0.75;fill-rule:evenodd;stroke:#000000;stroke-width:0.2;stroke-linecap:round;stroke-linejoin:round;stroke-miterlimit:4;stroke-dasharray:none;stroke-opacity:1" />
    </g>
    <path
       style="fill:#68a6c7;fill-opacity:1;fill-rule:evenodd;stroke:#000000;stroke-width:0.87899941;stroke-linecap:round;stroke-linejoin:round;stroke-miterlimit:4;stroke-dasharray:none;stroke-opacity:1"
       d="M 22.467121,2.6356537 C 18.406119,0.61222154 16.383314,1.6000272 16.330875,1.521237 C 16.330875,1.521237 20.433112,2.9528697 19.816837,3.7182105 C 16.436788,2.4155857 15.766671,3.345821 15.66911,3.3630781 C 15.612734,3.3998615 19.158734,3.9478865 18.548861,4.7491601 C 15.861483,4.2624219 14.749542,5.2742258 14.843003,5.2777877 C 14.876958,5.2910211 17.04838,5.4806566 17.581702,6.0392879"
       id="path2329"
       sodipodi:nodetypes="ccccccs" />
    <g
       id="g1502"
       transform="matrix(0.891322,-0.45337,-0.45337,-0.891322,11.48533,20.32853)">
      <path
         style="fill:#000000;fill-opacity:1;fill-rule:nonzero;stroke:#0f0f0f;stroke-width:0;stroke-miterlimit:4;stroke-opacity:1"
         d="M 14.783117,8.4554548 C 14.783117,9.8182858 15.574711,10.854609 16.55007,10.768679 C 17.525428,10.68275 18.317021,9.5069473 18.317021,8.1441164 C 18.317021,6.7812855 17.525428,5.7449593 16.55007,5.8308888 C 15.574711,5.9168183 14.783117,7.092624 14.783117,8.4554548 z "
         id="path3019" />
      <path
         style="fill:#000000;fill-opacity:1;fill-rule:nonzero;stroke:#0f0f0f;stroke-width:0;stroke-miterlimit:4;stroke-opacity:1"
         d="M 17.653492,8.4962261 C 17.653492,9.4442351 18.258605,10.160327 19.004185,10.094641 C 19.749771,10.028954 20.354878,9.2062418 20.354878,8.2582328 C 20.354878,7.310221 19.749771,6.5941316 19.004185,6.659818 C 18.258605,6.7255039 17.653492,7.5482143 17.653492,8.4962261 z "
         id="path3020" />
      <path
         style="fill:#f1c616;fill-opacity:1;fill-rule:nonzero;stroke:#0f0f0f;stroke-width:0;stroke-miterlimit:4;stroke-opacity:1"
         d="M 18.017256,8.5158316 C 18.017256,9.2216676 18.465066,9.7550639 19.01684,9.7064525 C 19.568607,9.6578415 20.016421,9.0455403 20.016421,8.3397042 C 20.016421,7.6338709 19.568607,7.1004748 19.01684,7.1490858 C 18.465066,7.1976973 18.017256,7.8099983 18.017256,8.5158316 z "
         id="path3021" />
      <path
         style="fill:#f1c616;fill-opacity:1;fill-rule:nonzero;stroke:#0f0f0f;stroke-width:0;stroke-miterlimit:4;stroke-opacity:1"
         d="M 15.293135,8.5894898 C 15.413517,9.6685962 16.144404,10.409542 16.924576,10.243384 C 17.704751,10.077225 18.240239,9.0665734 18.119855,7.9874672 C 17.999477,6.9083632 17.268593,6.16742 16.488418,6.3335784 C 15.708245,6.4997337 15.172757,7.5103858 15.293135,8.5894898 z "
         id="path3643" />
      <path
         style="fill:#000000;fill-opacity:1;fill-rule:nonzero;stroke:#0f0f0f;stroke-width:0;stroke-miterlimit:4;stroke-opacity:1"
         d="M 16.134203,9.0019874 C 16.134203,9.454606 16.526102,9.7874254 17.008984,9.7448833 C 17.491863,9.7023415 17.883762,9.3004691 17.883762,8.8478505 C 17.883762,8.3952321 17.491863,8.0624153 17.008984,8.1049571 C 16.526102,8.1474992 16.134203,8.549369 16.134203,9.0019874 z "
         id="path3644" />
      <path
         style="fill:#000000;fill-opacity:1;fill-rule:nonzero;stroke:#0f0f0f;stroke-width:0;stroke-miterlimit:4;stroke-opacity:1;display:inline"
         d="M 18.202034,8.8292483 C 18.202034,9.2818668 18.593933,9.6146863 19.076815,9.5721442 C 19.559694,9.5296024 19.951593,9.1277299 19.951593,8.6751114 C 19.951593,8.2224929 19.559694,7.8896761 19.076815,7.9322179 C 18.593933,7.97476 18.202034,8.3766298 18.202034,8.8292483 z "
         id="path4706" />
    </g>
  </g>
</svg>
