<?xml version="1.0" encoding="UTF-8" standalone="no"?>
<!-- Created with Inkscape (http://www.inkscape.org/) -->
<svg
   xmlns:dc="http://purl.org/dc/elements/1.1/"
   xmlns:cc="http://creativecommons.org/ns#"
   xmlns:rdf="http://www.w3.org/1999/02/22-rdf-syntax-ns#"
   xmlns:svg="http://www.w3.org/2000/svg"
   xmlns="http://www.w3.org/2000/svg"
   xmlns:xlink="http://www.w3.org/1999/xlink"
   xmlns:sodipodi="http://sodipodi.sourceforge.net/DTD/sodipodi-0.dtd"
   xmlns:inkscape="http://www.inkscape.org/namespaces/inkscape"
   width="210mm"
   height="297mm"
   id="svg2"
   sodipodi:version="0.32"
   inkscape:version="0.46"
   sodipodi:docname="map"
   inkscape:output_extension="org.inkscape.output.svg.inkscape">
  <defs
     id="defs4">
    <linearGradient
       id="linearGradient3244">
      <stop
         style="stop-color:#495798;stop-opacity:1;"
         offset="0"
         id="stop3246" />
      <stop
         style="stop-color:#243585;stop-opacity:1;"
         offset="1"
         id="stop3248" />
    </linearGradient>
    <linearGradient
       id="linearGradient3155">
      <stop
         style="stop-color:#141a35;stop-opacity:1;"
         offset="0"
         id="stop3157" />
      <stop
         style="stop-color:#1e28b2;stop-opacity:1;"
         offset="1"
         id="stop3159" />
    </linearGradient>
    <inkscape:perspective
       sodipodi:type="inkscape:persp3d"
       inkscape:vp_x="0 : 526.18109 : 1"
       inkscape:vp_y="0 : 1000 : 0"
       inkscape:vp_z="744.09448 : 526.18109 : 1"
       inkscape:persp3d-origin="372.04724 : 350.78739 : 1"
       id="perspective10" />
    <linearGradient
       inkscape:collect="always"
       xlink:href="#linearGradient3155"
       id="linearGradient3181"
       x1="483.96057"
       y1="-217.7095"
       x2="483.96069"
       y2="1282.5906"
       gradientUnits="userSpaceOnUse"
       gradientTransform="translate(147.125,-0.5357143)" />
    <linearGradient
       inkscape:collect="always"
       xlink:href="#linearGradient3244"
       id="linearGradient3278"
       gradientUnits="userSpaceOnUse"
       x1="103.28831"
       y1="544.96228"
       x2="-24.782137"
       y2="-35.602402"
       gradientTransform="matrix(0.9602169,0.1831712,-0.1936516,1.0151564,1950.641,-88.463667)" />
    <linearGradient
       inkscape:collect="always"
       xlink:href="#linearGradient3244"
       id="linearGradient3280"
       gradientUnits="userSpaceOnUse"
       x1="-188.782"
       y1="704.48755"
       x2="-414.94516"
       y2="185.47066"
       gradientTransform="matrix(0.7688626,0.2250245,-0.3350342,0.5771874,1773.4975,56.018813)" />
    <linearGradient
       inkscape:collect="always"
       xlink:href="#linearGradient3244"
       id="linearGradient3284"
       gradientUnits="userSpaceOnUse"
       x1="-159.13553"
       y1="689.75476"
       x2="-159.44226"
       y2="92.713379"
       gradientTransform="matrix(0.4083299,0,0,0.3787184,1176.5416,181.12906)" />
    <linearGradient
       inkscape:collect="always"
       xlink:href="#linearGradient3244"
       id="linearGradient3286"
       gradientUnits="userSpaceOnUse"
       x1="-289.49387"
       y1="573.51349"
       x2="-285.63391"
       y2="268.7457"
       gradientTransform="translate(189.83333,-102.61904)" />
    <linearGradient
       inkscape:collect="always"
       xlink:href="#linearGradient3244"
       id="linearGradient3288"
       gradientUnits="userSpaceOnUse"
       x1="0.46951136"
       y1="520.28174"
       x2="0.76596814"
       y2="4.0964599"
       gradientTransform="translate(189.83333,-102.61904)" />
  </defs>
  <sodipodi:namedview
     id="base"
     pagecolor="#ffffff"
     bordercolor="#666666"
     borderopacity="1.0"
     inkscape:pageopacity="0.0"
     inkscape:pageshadow="2"
     inkscape:zoom="1.18"
     inkscape:cx="-119.59188"
     inkscape:cy="763.38916"
     inkscape:document-units="px"
     inkscape:current-layer="layer6"
     showgrid="false"
     inkscape:window-width="1678"
     inkscape:window-height="1004"
     inkscape:window-x="1"
     inkscape:window-y="19"
     showguides="true"
     inkscape:guide-bbox="true" />
  <metadata
     id="metadata7">
    <rdf:RDF>
      <cc:Work
         rdf:about="">
        <dc:format>image/svg+xml</dc:format>
        <dc:type
           rdf:resource="http://purl.org/dc/dcmitype/StillImage" />
      </cc:Work>
    </rdf:RDF>
  </metadata>
  <g
     inkscape:label="Ciel"
     inkscape:groupmode="layer"
     id="layer1"
     style="display:inline"
     sodipodi:insensitive="true">
    <rect
       style="opacity:1;fill:url(#linearGradient3181);fill-opacity:1;fill-rule:nonzero;stroke:none;stroke-width:1.96500003;stroke-linecap:butt;stroke-linejoin:miter;stroke-miterlimit:4;stroke-dasharray:none;stroke-dashoffset:0;stroke-opacity:1"
       id="rect2383"
       width="3500"
       height="1500.3"
       x="-743.91443"
       y="-218.24522"
       inkscape:export-filename="/home/jeremie/.wormux/map/north/map.png"
       inkscape:export-xdpi="90"
       inkscape:export-ydpi="90" />
    <path
       style="fill:none;fill-opacity:0.75;fill-rule:evenodd;stroke:#000000;stroke-width:1px;stroke-linecap:butt;stroke-linejoin:miter;stroke-opacity:1"
       d="M 1249.6982,723.47986 C 1249.6982,723.47986 1249.6982,723.47986 1249.6982,723.47986 z"
       id="path3270"
       inkscape:export-filename="/home/jeremie/.wormux/map/north/map.png"
       inkscape:export-xdpi="90"
       inkscape:export-ydpi="90" />
  </g>
  <g
     inkscape:groupmode="layer"
     id="layer4"
     inkscape:label="Nuages"
     style="display:inline"
     sodipodi:insensitive="true">
    <g
       style="display:inline"
       id="g2421"
       inkscape:export-filename="/home/jeremie/.wormux/map/north/map.png"
       inkscape:export-xdpi="90"
       inkscape:export-ydpi="90"
       transform="translate(-20.38835,-1.9417476)">
      <path
         inkscape:export-ydpi="90"
         inkscape:export-xdpi="90"
         inkscape:export-filename="/home/jeremie/.wormux/map/north/sky.jpg.png"
         sodipodi:nodetypes="cscccsssssssszsssssssssssszs"
         id="path3238"
         d="M 42.95833,127.86814 C 90.89364,142.28691 135.71654,171.12225 180.45833,193.49314 C 237.341,221.93448 285.37869,262.37621 339.83333,293.49314 C 473.62733,378.20161 619.70075,436.1415 780.45833,412.24314 C 796.03915,410.55734 716.05556,401.90776 696.08333,394.386 C 672.74572,385.05096 650.66866,363.58743 641.61904,340.96338 C 630.39577,312.90521 639.83333,292.91695 639.83333,262.24314 C 639.83333,217.49265 651.91191,186.4003 630.45833,143.49314 C 615.25932,113.09513 576.62877,101.0528 549.20833,121.61814 C 530.79939,135.42484 557.32412,176.65239 535.81547,173.70147 C 509.61238,170.10649 493.72173,130.81221 499.20833,102.86813 C 509.98611,47.975263 500.02006,2.5029124 455.45833,-34.631867 C 411.80912,-71.006207 357.27357,-96.023174 299.20833,-81.506867 C 236.85658,-65.918927 224.55881,8.6431524 227.92857,25.635993 C 231.33571,42.817323 249.06349,74.873053 267.3631,84.118133 C 284.89645,92.976093 241.51698,77.026313 221.08333,87.243133 C 211.49094,92.039333 209.44135,105.41058 205.45833,115.36814 C 198.48402,132.80393 187.48703,81.771833 174.20833,68.493133 C 156.37979,50.664603 140.39415,89.486433 133.58333,62.243133 C 123.63135,22.435213 115.71427,-12.921568 90.27976,-46.834248 C 52.97989,-96.567404 -10.28367,-101.89377 -38.29167,-97.131864 C -106.76103,-85.490745 -118.57462,-33.664817 -78.91667,5.9931324 C -59.56594,25.343863 -95.52898,-6.5068673 -116.41667,-6.5068673 C -140.34123,-6.5068673 -151.16258,5.1195024 -151.53572,26.975273 C -151.88384,47.366003 -140.50363,55.573753 -160.16667,34.118133 C -172.64252,20.504923 -200.36975,33.801693 -213.29167,43.493133 C -229.15038,55.387173 -216.36722,89.437473 -181,87.391943 C -145.72132,85.351533 -32.74772,105.09602 42.95833,127.86814 z"
         style="opacity:0.49013157;fill:url(#linearGradient3288);fill-opacity:1;fill-rule:evenodd;stroke:none;stroke-width:1px;stroke-linecap:butt;stroke-linejoin:miter;stroke-opacity:1" />
      <path
         inkscape:export-ydpi="90"
         inkscape:export-xdpi="90"
         inkscape:export-filename="/home/jeremie/.wormux/map/north/sky.jpg.png"
         sodipodi:nodetypes="czzzsccssssscsszscsc"
         id="path3242"
         d="M -483.38096,295.27885 C -449.20803,324.64591 -442.85839,286.92887 -372.81548,296.32052 C -302.77257,305.71218 -224.38777,367.09827 -114.48215,399.44552 C -4.57652,431.79277 99.60615,469.66015 185.81548,470.57647 C 272.0248,471.4928 377.62601,470.91006 342.95833,462.24314 C 321.63627,456.91263 260.26485,451.46561 236.11309,445.42767 C 176.86981,432.04428 171.81367,411.45763 139.83333,362.24314 C 137.43656,358.24853 135.66666,353.90981 133.58333,349.74314 C 120.70744,323.99136 108.07296,281.02075 75.1792,297.46765 C 58.41978,305.84737 76.62587,363.59879 46.08333,318.49314 C 26.94468,290.22891 14.83333,350.42729 14.83333,315.36814 C 14.83333,282.83378 -16.00582,231.20526 -54.25041,244.85843 C -127.77747,271.1073 -63.5043,319.21279 -82.04167,349.74314 C -108.19903,356.28248 -122.81202,340.07744 -132.04167,321.61814 C -145.1554,295.39068 -156.04549,271.1951 -172.66667,243.49314 C -194.62197,206.90097 -255.5919,153.57475 -286.95238,168.79076 C -317.34576,183.53753 -332.61009,214.3726 -307.48809,251.23124 C -283.96237,285.74786 -376.25813,212.16545 -391.41667,190.36814 C -406.68408,170.0116 -477.15345,180.21597 -454.06548,210.90385 C -413.88816,264.30641 -514.89626,228.855 -483.38096,295.27885 z"
         style="opacity:0.49013157;fill:url(#linearGradient3286);fill-opacity:1;fill-rule:evenodd;stroke:none;stroke-width:1px;stroke-linecap:butt;stroke-linejoin:miter;stroke-opacity:1" />
      <path
         inkscape:export-ydpi="90"
         inkscape:export-xdpi="90"
         inkscape:export-filename="/home/jeremie/.wormux/map/north/sky.jpg.png"
         sodipodi:nodetypes="cscccssssssssszsccsssssssszs"
         id="path3274"
         d="M 1764.975,118.61363 C 1808.2111,142.03132 1845.6668,179.51394 1884.2966,210.41932 C 1933.4083,249.71094 1971.7033,299.56477 2017.9659,341.12786 C 2130.0332,451.62739 2259.0753,537.20188 2418.0652,542.38744 C 2433.3526,543.53004 2358.226,520.09868 2340.5051,508.80459 C 2319.9035,495.0533 2302.8612,469.22056 2298.5528,444.59598 C 2293.2096,414.05677 2306.1423,395.49425 2312.0824,364.35551 C 2320.7483,318.92678 2338.3676,289.57565 2326.0767,242.08847 C 2317.3688,208.44572 2282.6072,189.14486 2252.2951,204.99927 C 2231.9449,215.64324 2249.4305,262.35421 2229.349,255.41882 C 2204.8844,246.96971 2191.353,227.69857 2202.0329,200.33596 C 2223.0118,146.58529 2238.2931,79.259443 2186.6505,52.738213 C 2089.8603,3.0312124 2088.7732,130.09197 2060.1782,116.31788 C 2039.7039,106.45549 2125.1241,67.241023 2030.9881,35.355793 C 2007.6689,27.457253 1994.5424,28.182103 1982.9722,50.183813 C 1971.1518,72.661383 1981.9667,123.15606 1969.8069,128.54027 C 1952.0398,136.40729 1965.4798,73.959643 1933.5867,71.764943 C 1910.5725,70.062353 1920.8402,104.63861 1902.5016,82.379903 C 1888.8347,61.015483 1848.0944,92.283113 1864.703,68.593853 C 1902.5617,14.594972 1866.5124,-75.689062 1775.1276,2.8724624 C 1727.3414,43.953253 1836.2862,-86.147747 1730.5289,-124.67922 C 1666.634,-147.9586 1641.1494,-74.955776 1671.5499,-27.43256 C 1686.3835,-4.2440506 1649.1622,-49.909042 1635.0212,-64.637986 C 1622.3425,-77.843815 1603.818,-66.552792 1599.2272,-44.434113 C 1594.9442,-23.798117 1602.8117,11.618572 1588.0857,-13.76395 C 1578.7425,-29.868682 1549.5435,-21.449226 1535.2589,-13.97783 C 1517.7277,-4.8083603 1523.4083,32.099533 1557.7647,36.501263 C 1592.035,40.891913 1696.6906,81.629203 1764.975,118.61363 z"
         style="opacity:0.49013157;fill:url(#linearGradient3278);fill-opacity:1;fill-rule:evenodd;stroke:none;stroke-width:1px;stroke-linecap:butt;stroke-linejoin:miter;stroke-opacity:1;display:inline" />
      <path
         inkscape:export-ydpi="90"
         inkscape:export-xdpi="90"
         inkscape:export-filename="/home/jeremie/.wormux/map/north/sky.jpg.png"
         sodipodi:nodetypes="czzzscccszczszz"
         id="path3276"
         d="M 1078.4613,143.01428 C 1079.7124,176.88539 1149.1798,167.90159 1194.0043,178.78958 C 1240.2188,190.01518 1297.6471,233.92381 1371.3119,277.32569 C 1444.9769,320.72753 1512.3922,366.02777 1578.3683,385.95585 C 1644.3443,405.88398 1725.7324,429.31046 1701.9815,416.50698 C 1687.3737,408.63228 1642.0125,391.6783 1625.4659,382.75847 C 1589.4898,363.66099 1698.4982,383.51062 1647.81,282.4001 C 1576.5902,161.76422 1530.0116,287.45323 1521.8866,266.73217 C 1531.3469,229.93525 1487.1605,278.13213 1498.9067,257.89643 C 1509.8068,239.11802 1495.8595,175.8625 1429.7079,161.9477 C 1363.5563,148.0329 1395.2736,282.41012 1378.8255,174.219 C 1374.2045,148.158 1345.193,103.65904 1315.9833,105.38465 C 1287.6743,107.05706 1256.7838,106.71394 1263.7503,133.64135 C 1270.2741,158.85777 1244.5995,79.810923 1200.4942,70.802433 C 1156.6999,61.857453 1077.2101,109.14317 1078.4613,143.01428 z"
         style="opacity:0.49013157;fill:url(#linearGradient3280);fill-opacity:1;fill-rule:evenodd;stroke:none;stroke-width:1px;stroke-linecap:butt;stroke-linejoin:miter;stroke-opacity:1;display:inline" />
      <path
         inkscape:export-ydpi="90"
         inkscape:export-xdpi="90"
         inkscape:export-filename="/home/jeremie/.wormux/map/north/sky.jpg.png"
         sodipodi:nodetypes="czzzscscssssscssszsscss"
         id="path3282"
         d="M 901.64817,331.82029 C 904.64902,335.70473 918.19474,328.658 946.79536,332.21479 C 975.39597,335.77158 1008.8734,361.47063 1053.7512,373.72109 C 1098.6289,385.97162 1139.6992,397.86171 1174.901,398.20874 C 1210.1029,398.55576 1238.5171,393.92329 1224.3612,390.64096 C 1215.6548,388.62222 1205.3009,390.97106 1195.439,388.68444 C 1187.0095,386.91826 1213.0898,371.15797 1187.1032,358.02923 C 1157.4708,343.05861 1164.6333,369.32458 1156.1251,357.18088 C 1155.1465,355.6681 1154.4238,354.02494 1153.5731,352.44693 C 1148.3155,342.69426 1143.1565,326.42048 1129.725,332.64923 C 1122.8816,335.82279 1130.3157,357.69435 1117.8443,340.61194 C 1110.0294,329.90779 1105.0839,352.70605 1105.0839,339.42851 C 1105.0839,327.10712 1092.4914,307.55445 1076.875,312.72515 C 1046.8517,322.66608 1071.1356,329.61 1063.5662,341.17242 C 1059.1001,342.20798 1065.4553,325.29043 1048.5623,325.40975 C 1034.6046,325.51128 1035.0485,344.3926 1032.8556,340.32486 C 1027.5009,330.39205 1035.309,322.69933 1028.5221,312.20809 C 1019.5571,298.34997 994.66125,278.15435 981.85582,283.91693 C 969.4453,289.50181 972.3973,299.79009 973.47048,315.13866 C 973.91279,321.46453 958.59604,285.10628 943.97207,302.53887 C 935.3828,312.77775 941.24356,294.81421 939.19994,292.08868 C 932.9658,284.37928 887.03296,294.1966 898.91267,303.2973 C 926.59279,324.50222 877.69616,300.81574 901.64817,331.82029 z"
         style="opacity:0.49013157;fill:url(#linearGradient3284);fill-opacity:1;fill-rule:evenodd;stroke:none;stroke-width:1px;stroke-linecap:butt;stroke-linejoin:miter;stroke-opacity:1;display:inline" />
    </g>
  </g>
  <g
     inkscape:groupmode="layer"
     id="layer3"
     inkscape:label="Icebergs"
     style="display:inline"
     sodipodi:insensitive="true">
    <path
       style="opacity:0.29934208;fill:#28499f;fill-opacity:1;fill-rule:evenodd;stroke:none;stroke-width:1px;stroke-linecap:butt;stroke-linejoin:miter;stroke-opacity:1;display:inline"
       d="M -675,1124.2372 C -655.17401,1074.6509 -642.36282,1060.8043 -651.75449,1043.8973 C -660.61878,1027.9396 -640.04229,979.47459 -646.42404,963.33345 C -658.70392,932.2744 -643.55631,814.83884 -638,801.23718 C -634.39961,792.42355 -587.07698,732.76908 -589.82243,704.28706 C -591.67066,685.11313 -528.48855,615.02109 -500.25,624.98718 C -463.26529,638.04001 -452.68432,696.45364 -400.54558,707.89193 C -380.57249,712.27366 -412.48571,760.11086 -336.96259,772.83021 C -317.27377,776.14614 -322.38086,810.74911 -321.875,830.48718 C -321.44825,861.92137 -342.03224,926.75182 -338.76983,951.35434 C -335.77062,973.972 -265.28576,1027.1763 -312.42038,1069.9908 C -324.06624,1080.5693 -326.37918,1142.7872 -291.38269,1159.4958 C -264.81115,1172.182 -273.95527,1213.9783 -278.83588,1226.9451 C -309.44983,1308.2805 -346.07496,1353.2325 -338.625,1363.7372 C -309.8232,1404.3487 14.814157,1435.3525 36.375,1426.1122 C 65.479455,1413.6388 16.790003,1213.3272 25,1180.4872 C 38.060151,1128.2466 22.318212,1104.8506 78.125,1083.6122 C 121.87484,1066.9623 141.2196,1040.673 153.125,989.86218 C 167.0804,930.30223 224.6143,897.26928 243.75,839.86218 C 256.40993,801.88239 260.97649,813.58647 319,802.86218 C 338.15377,799.32205 300.78247,877.36381 321.875,905.48718 C 351.33829,944.77157 383.47238,1011.2859 421.875,1030.4872 C 468.9293,1054.0143 460.92561,1010.1628 512.5,1061.7372 C 538.03851,1087.2757 590.625,1104.0643 590.625,1146.1122 C 590.625,1202.7794 632.67283,1174.6627 671.875,1164.8622 C 679.23203,1163.0229 686.45833,1160.6955 693.75,1158.6122 C 710.84302,1153.7285 706.6942,1187.6412 703.125,1205.4872 C 701.05013,1215.8615 719.63448,1240.7467 725,1246.1122 C 741.61617,1262.7283 716.24775,1265.7991 750,1274.2372 C 777.84946,1281.1995 726.13613,1349.5552 751.25,1362.1122 C 787.79867,1380.3865 877.1108,1339.8622 921.875,1339.8622 C 958.64569,1339.8622 991.40907,1352.3622 1028.125,1352.3622 C 1058.1514,1352.3622 1091.8877,1363.9846 1118.75,1358.6122 C 1157.0478,1350.9526 1123.2508,1256.4699 1121.875,1233.6122 C 1120.0511,1203.311 1121.5193,1161.8889 1139.2302,1169.4526 C 1169.232,1182.2653 1179.6589,1132.9337 1212.5,1124.2372 C 1274.2842,1107.8765 1290.8936,1044.9552 1281.4898,1016.6726 C 1274.731,996.34488 1293.4075,957.62828 1309.75,943.86218 C 1328.0248,928.46837 1356.3952,880.20945 1344.5973,855.84149 C 1334.5934,835.17883 1353.8497,812.59875 1360.9211,800.92758 C 1367.9325,789.35545 1449.7155,773.01768 1464.625,737.61218 C 1473.9419,715.48747 1487.0726,698.56561 1505.0336,690.43165 C 1526.9199,680.52012 1578.219,679.10932 1586.625,682.48718 C 1602.5203,688.87452 1571.5705,754.83849 1575.375,797.73718 C 1578.7326,835.5962 1661.3323,878.49351 1652.125,933.73718 C 1650.1045,945.86008 1653.052,986.37229 1656.25,1002.3622 C 1663.1852,1037.0382 1662.898,1082.6433 1650.1452,1107.4882 C 1643.8832,1119.6877 1673.2394,1143.6131 1654.9741,1157.2615 C 1640.1764,1168.3188 1680.2468,1190.4336 1696.5,1194.2372 C 1797.7016,1217.9203 1743.4819,1240.681 1774.5,1267.2372 C 1797.0207,1286.5183 1843.2769,1347.8801 1896.875,1383.6122 C 1946.0248,1416.3787 1933.8752,1394.418 1984.375,1392.9872 C 2304.2335,1383.9247 2653.1278,1332.4631 2621.7187,1305.5209 C 2603.3588,1289.7721 2587.2023,1246.0056 2594.8674,1226.6991 C 2605.3242,1200.3607 2579.416,1184.6337 2573.125,1144.8622 C 2571.8899,1137.054 2592.4188,1115.5103 2600.0372,1108.6558 C 2605.9922,1103.2979 2620.6571,1095.3153 2618.1258,1069.9642 C 2613.1883,1020.5141 2623.4797,1007.9819 2673.375,1006.7372 C 2683.7234,1006.4791 2701.1852,945.14962 2720.2222,965.44733 C 2747.8573,994.91251 2816.0955,1071.8611 2793.625,1116.1122 C 2771.1545,1160.3633 2813.7797,1342.2043 2799.5,1372.6122 C 2739.2302,1436.3863 2579.5034,1477.9678 2499.625,1473.7372 C 2340.072,1473.7372 2222.559,1414.8622 2062.5,1414.8622 C 1894.3572,1414.8622 1886.7113,1402.6251 1728.125,1455.4872 C 1626.6932,1489.2978 1525.4772,1500.3918 1421.875,1521.1122 C 1307.9518,1543.8968 1170.3112,1539.8622 1053.125,1539.8622 C 882.8999,1539.8622 710.33206,1536.6308 540.625,1555.4872 C 399.20857,1571.2001 225.92069,1542.5463 87.5,1514.8622 C -30.24728,1491.3127 -153.8196,1442.9872 -275,1442.9872 C -368.27025,1442.9872 -459.6552,1417.9872 -553.125,1417.9872 C -605.70883,1417.9872 -633.01466,1421.3886 -641.75,1359.4872 C -650.381,1298.3252 -694.82599,1173.8235 -675,1124.2372 z"
       id="path3303"
       sodipodi:nodetypes="cssssssscsssssssssssssssssssssssssssssssssssssssssssssssssszccssssccsszz" />
  </g>
  <g
     inkscape:groupmode="layer"
     id="layer5"
     inkscape:label="Ours"
     style="display:inline">
    <path
       style="fill:#5f7491;fill-opacity:1;fill-rule:evenodd;stroke:#8e9fc5;stroke-width:5;stroke-linecap:butt;stroke-linejoin:miter;stroke-miterlimit:4;stroke-dasharray:none;stroke-opacity:1"
       d="M 2093.5358,182.38637 C 2101.3549,151.66665 2097.9859,97.201775 2064.7702,89.270359 C 2011.9517,76.658052 1977.0211,122.57022 1972.6778,153.6413 C 1969.6034,175.63451 1991.6179,197.05551 2006.3655,213.01821 C 2013.5993,220.84811 2025.2846,261.59888 2017.0411,262.39155 C 1980.6167,265.89401 1981.5712,301.85288 2000.4639,293.29728 C 2015.2576,286.59791 2032.5986,288.85198 2049.2898,277.70259 C 2085.9129,244.49584 2085.2319,215.01041 2093.5358,182.38637 z"
       id="path4921"
       sodipodi:nodetypes="cssssscs"
       inkscape:export-filename="/home/jeremie/.wormux/map/north/ours.png"
       inkscape:export-xdpi="90"
       inkscape:export-ydpi="90" />
    <path
       sodipodi:nodetypes="csssssss"
       id="path4923"
       d="M 1836.8931,253.33306 C 1846.0886,260.89549 1858.6624,279.49143 1866.0193,285.37189 C 1888.777,303.56241 1847.3495,296.31775 1854.3689,323.23597 C 1856.4713,331.29846 1890.157,317.85776 1916.5047,317.41073 C 1943.6948,316.96588 1920.5997,279.35933 1918.4465,256.24568 C 1915.5552,225.20886 1922.295,196.13137 1907.7669,172.75054 C 1885.3547,136.6814 1843.2111,147.99686 1828.1552,155.2748 C 1799.41,169.1701 1799.7962,222.8245 1836.8931,253.33306 z"
       style="fill:#5f7491;fill-opacity:1;fill-rule:evenodd;stroke:#8e9fc5;stroke-width:5;stroke-linecap:butt;stroke-linejoin:miter;stroke-miterlimit:4;stroke-dasharray:none;stroke-opacity:1"
       inkscape:export-filename="/home/jeremie/.wormux/map/north/ours.png"
       inkscape:export-xdpi="90"
       inkscape:export-ydpi="90" />
    <path
       sodipodi:nodetypes="cz"
       id="path4932"
       d="M 1667.5845,170.28578 C 1662.0496,137.38335 1710.3022,131.98768 1708.8012,162.06298"
       style="fill:#5f7491;fill-opacity:1;fill-rule:evenodd;stroke:#8e9fc5;stroke-width:5;stroke-linecap:round;stroke-linejoin:round;stroke-miterlimit:4;stroke-dasharray:none;stroke-opacity:1"
       inkscape:transform-center-x="-9.7087379"
       inkscape:export-filename="/home/jeremie/.wormux/map/north/ours.png"
       inkscape:export-xdpi="90"
       inkscape:export-ydpi="90" />
    <path
       id="path4902"
       style="fill:#7891b6;fill-opacity:1;fill-rule:evenodd;stroke:#bfc4cf;stroke-width:5;stroke-linecap:butt;stroke-linejoin:miter;stroke-miterlimit:4;stroke-dasharray:none;stroke-opacity:1"
       d="M 1746.602,239.74083 C 1768.7548,229.44091 1770.5447,209.90517 1791.2621,207.70199 C 1812.9878,205.39158 1838.2101,244.55014 1860.1942,247.50781 C 1893.5233,251.99181 1918.6373,259.74406 1950.4854,241.68257 C 1977.9822,226.08873 1996.9317,219.39463 2029.1262,214.4981 C 2052.0285,211.01485 2075.6296,209.20818 2094.1748,194.10976 C 2110.6325,180.71086 2121.9036,142.16864 2124.7941,120.13343 C 2125.573,114.19579 2125.7433,109.45672 2125.2427,106.73112 C 2113.379,42.140208 2029.3911,-18.489812 1958.2524,33.915581 C 1934.3141,51.550049 1909.9578,72.422907 1881.5534,80.517522 C 1838.5175,92.781807 1814.0163,97.418134 1778.6408,129.06121 C 1759.8677,145.85359 1749.9282,143.35296 1723.3009,147.5078 C 1693.1644,152.21021 1649.3531,169.3007 1635.9223,198.96412 C 1632.3541,206.84498 1636.1409,228.32957 1642.7185,231.00296 C 1690.4726,250.41194 1716.8332,253.58183 1746.602,239.74083 z"
       sodipodi:nodetypes="cssssssssssssss"
       inkscape:export-filename="/home/jeremie/.wormux/map/north/ours.png"
       inkscape:export-xdpi="90"
       inkscape:export-ydpi="90" />
    <path
       style="fill:#181818;fill-opacity:1;fill-rule:evenodd;stroke:#2d2d2d;stroke-width:5;stroke-linecap:butt;stroke-linejoin:miter;stroke-miterlimit:4;stroke-dasharray:none;stroke-opacity:1"
       d="M 1672.8155,190.22626 C 1649.3099,188.4813 1636.5134,193.19729 1628.1552,199.93499 C 1605.5939,218.12198 1628.0573,232.02046 1640.7766,236.82819 C 1677.9736,250.88819 1706.0791,192.69562 1672.8155,190.22626 z"
       id="path4911"
       sodipodi:nodetypes="csss"
       inkscape:export-filename="/home/jeremie/.wormux/map/north/ours.png"
       inkscape:export-xdpi="90"
       inkscape:export-ydpi="90" />
    <path
       style="fill:#7891b6;fill-opacity:1;fill-rule:evenodd;stroke:#bfc4cf;stroke-width:5;stroke-linecap:butt;stroke-linejoin:miter;stroke-miterlimit:4;stroke-dasharray:none;stroke-opacity:1"
       d="M 1855.3397,149.44956 C 1826.5945,163.34486 1826.9807,216.99926 1864.0776,247.50782 C 1873.2731,255.07025 1885.8469,273.66619 1893.2038,279.54665 C 1915.9615,297.73717 1874.534,290.49251 1881.5534,317.41073 C 1883.6558,325.47322 1917.3415,312.03252 1943.6892,311.58549 C 1970.8793,311.14064 1947.7842,273.53409 1945.631,250.42044 C 1942.7397,219.38362 1949.4795,190.30613 1934.9514,166.9253"
       id="path4913"
       sodipodi:nodetypes="cssssss"
       inkscape:export-filename="/home/jeremie/.wormux/map/north/ours.png"
       inkscape:export-xdpi="90"
       inkscape:export-ydpi="90" />
    <path
       style="fill:#7891b6;fill-opacity:1;fill-rule:evenodd;stroke:#bfc4cf;stroke-width:5;stroke-linecap:round;stroke-linejoin:round;stroke-miterlimit:4;stroke-dasharray:none;stroke-opacity:1"
       d="M 2042.7184,89.255386 C 1990.8338,105.28189 1985.6939,163.69341 2003.8835,189.25539 C 2016.1154,206.44515 2031.6081,219.9142 2052.4271,226.14858 C 2062.6391,229.20662 2088.5131,240.81721 2082.5242,246.53693 C 2071.3389,257.21956 2059.3312,256.10903 2054.3689,274.69228 C 2052.2003,282.8134 2087.569,272.33265 2091.2621,271.77966 C 2119.5402,267.54543 2125.5802,279.8567 2133.0097,251.39131 C 2145.4943,203.55745 2126.9325,175.93301 2117.4757,143.62432"
       id="path4915"
       sodipodi:nodetypes="csssssss"
       inkscape:export-filename="/home/jeremie/.wormux/map/north/ours.png"
       inkscape:export-xdpi="90"
       inkscape:export-ydpi="90" />
    <path
       sodipodi:type="arc"
       style="opacity:1;fill:#6f6f6f;fill-opacity:1;fill-rule:nonzero;stroke:#0a0a0a;stroke-width:9.19999981;stroke-linecap:round;stroke-linejoin:round;stroke-miterlimit:4;stroke-dasharray:none;stroke-opacity:1"
       id="path4926"
       sodipodi:cx="1730.5825"
       sodipodi:cy="181.97383"
       sodipodi:rx="8.2524271"
       sodipodi:ry="8.2524271"
       d="M 1738.8349,181.97383 A 8.2524271,8.2524271 0 1 1 1722.3301,181.97383 A 8.2524271,8.2524271 0 1 1 1738.8349,181.97383 z"
       transform="matrix(0.8111497,0,0,0.8111497,324.39381,27.084256)"
       inkscape:export-filename="/home/jeremie/.wormux/map/north/ours.png"
       inkscape:export-xdpi="90"
       inkscape:export-ydpi="90" />
    <path
       transform="matrix(0.7733797,0,0,0.7733797,351.4085,32.501107)"
       d="M 1738.8349,181.97383 A 8.2524271,8.2524271 0 1 1 1722.3301,181.97383 A 8.2524271,8.2524271 0 1 1 1738.8349,181.97383 z"
       sodipodi:ry="8.2524271"
       sodipodi:rx="8.2524271"
       sodipodi:cy="181.97383"
       sodipodi:cx="1730.5825"
       id="path4928"
       style="opacity:1;fill:#6f6f6f;fill-opacity:1;fill-rule:nonzero;stroke:#0a0a0a;stroke-width:9.19999981;stroke-linecap:round;stroke-linejoin:round;stroke-miterlimit:4;stroke-dasharray:none;stroke-opacity:1"
       sodipodi:type="arc"
       inkscape:export-filename="/home/jeremie/.wormux/map/north/ours.png"
       inkscape:export-xdpi="90"
       inkscape:export-ydpi="90" />
    <path
       style="fill:#7891b6;fill-opacity:1;fill-rule:evenodd;stroke:#bec4cf;stroke-width:5;stroke-linecap:round;stroke-linejoin:round;stroke-miterlimit:4;stroke-dasharray:none;stroke-opacity:1"
       d="M 1742.7184,150.42043 C 1747.5728,117.41073 1795.1456,127.11946 1784.466,155.2748"
       id="path4930"
       sodipodi:nodetypes="cz"
       inkscape:export-filename="/home/jeremie/.wormux/map/north/ours.png"
       inkscape:export-xdpi="90"
       inkscape:export-ydpi="90" />
    <g
       id="g3234"
       inkscape:export-filename="/home/jeremie/.wormux/map/north/pinguins.png"
       inkscape:export-xdpi="90"
       inkscape:export-ydpi="90">
      <g
         transform="matrix(0.9993997,-3.4643475e-2,3.4643475e-2,0.9993997,-5.9154031,53.758607)"
         id="g3222">
        <path
           id="path4936"
           style="fill:#121212;fill-opacity:1;fill-rule:evenodd;stroke:#2c2929;stroke-width:5;stroke-linecap:butt;stroke-linejoin:miter;stroke-miterlimit:4;stroke-dasharray:none;stroke-opacity:1"
           d="M 879.51009,306.73088 C 866.96605,295.35786 896.49457,243.35862 896.49457,243.35862 C 896.49457,243.35862 861.57672,256.35974 855.42459,245.55525 C 849.27246,234.75075 896.38344,205.15933 909.86535,194.51647 C 923.34726,183.87361 919.87273,143.24117 962.54471,156.25467 C 992.83176,165.4912 972.17793,191.80855 978.14353,215.88688 C 979.76402,222.42753 1023.9964,285.86229 1001.8421,286.39032 C 993.84309,286.58097 969.11562,262.72768 969.11562,262.72768 C 969.11562,262.72768 967.9404,323.26903 950.9299,323.44587 C 937.20009,323.58859 884.4149,311.17781 879.51009,306.73088 z"
           sodipodi:nodetypes="ccscssscss" />
        <path
           sodipodi:nodetypes="cccsc"
           style="fill:#494949;fill-opacity:1;fill-rule:evenodd;stroke:#2c2929;stroke-width:5;stroke-linecap:butt;stroke-linejoin:miter;stroke-miterlimit:4;stroke-dasharray:none;stroke-opacity:1"
           d="M 934.59375,229.1875 C 909.58964,228.72452 894.67217,286.25561 889.80537,306.92711 C 901.29023,311.54272 925.53754,317.02686 941.67834,319.9538 C 948.1928,298.87333 964.8511,236.88525 939.3125,229.875 C 937.69994,229.43236 936.12872,229.21592 934.59375,229.1875 z"
           id="path4952" />
      </g>
      <path
         style="fill:#c4971d;fill-opacity:1;fill-rule:evenodd;stroke:#c1720d;stroke-width:5;stroke-linecap:butt;stroke-linejoin:round;stroke-miterlimit:4;stroke-dasharray:none;stroke-opacity:1"
         d="M 891.23963,199.71656 C 891.88538,205.91223 910.57985,212.29265 922.72929,212.06555 C 929.8885,211.93172 938.575,219.31841 938.0392,213.6524 C 937.50367,207.98916 935.42121,194.07347 929.06787,193.26567 C 924.65755,192.70491 890.44545,192.09668 891.23963,199.71656 z"
         id="path3220"
         sodipodi:nodetypes="cssss"
         inkscape:transform-center-x="18.179342"
         inkscape:transform-center-y="-2.7518557" />
      <g
         id="g3226"
         transform="matrix(-0.8709756,-0.1214452,-0.124845,0.9214541,1984.1684,434.69265)">
        <path
           sodipodi:nodetypes="ccscssscss"
           d="M 879.51009,306.73088 C 866.96605,295.35786 896.49457,243.35862 896.49457,243.35862 C 896.49457,243.35862 861.57672,256.35974 855.42459,245.55525 C 849.27246,234.75075 896.38344,205.15933 909.86535,194.51647 C 923.34726,183.87361 919.87273,143.24117 962.54471,156.25467 C 992.83176,165.4912 972.17793,191.80855 978.14353,215.88688 C 979.76402,222.42753 1023.9964,285.86229 1001.8421,286.39032 C 993.84309,286.58097 969.11562,262.72768 969.11562,262.72768 C 969.11562,262.72768 967.9404,323.26903 950.9299,323.44587 C 937.20009,323.58859 884.4149,311.17781 879.51009,306.73088 z"
           style="fill:#121212;fill-opacity:1;fill-rule:evenodd;stroke:#2c2929;stroke-width:5;stroke-linecap:butt;stroke-linejoin:miter;stroke-miterlimit:4;stroke-dasharray:none;stroke-opacity:1"
           id="path3228" />
        <path
           id="path3230"
           d="M 934.59375,229.1875 C 909.58964,228.72452 894.67217,286.25561 889.80537,306.92711 C 901.29023,311.54272 925.53754,317.02686 941.67834,319.9538 C 948.1928,298.87333 964.8511,236.88525 939.3125,229.875 C 937.69994,229.43236 936.12872,229.21592 934.59375,229.1875 z"
           style="fill:#494949;fill-opacity:1;fill-rule:evenodd;stroke:#2c2929;stroke-width:5;stroke-linecap:butt;stroke-linejoin:miter;stroke-miterlimit:4;stroke-dasharray:none;stroke-opacity:1"
           sodipodi:nodetypes="cccsc" />
      </g>
      <path
         inkscape:transform-center-y="2.1205481"
         inkscape:transform-center-x="-14.117707"
         sodipodi:nodetypes="cssss"
         id="path3232"
         d="M 1177.1668,507.91784 C 1173.8716,512.67804 1156.6204,509.87812 1147.385,504.50349 C 1141.9429,501.33639 1131.9294,503.62975 1134.9009,499.25314 C 1137.871,494.87869 1145.7582,484.45729 1151.0063,486.51473 C 1154.6494,487.94297 1181.2196,502.06351 1177.1668,507.91784 z"
         style="fill:#c4971d;fill-opacity:1;fill-rule:evenodd;stroke:#c1720d;stroke-width:4.52140951;stroke-linecap:butt;stroke-linejoin:round;stroke-miterlimit:4;stroke-dasharray:none;stroke-opacity:1" />
    </g>
  </g>
  <g
     inkscape:groupmode="layer"
     id="layer6"
     inkscape:label="Igloo">
    <g
       style="display:inline"
       id="g3239"
       inkscape:export-filename="/home/jeremie/.wormux/map/north/igloo.png"
       inkscape:export-xdpi="90"
       inkscape:export-ydpi="90">
      <rect
         transform="matrix(0.9669507,-0.2549635,0.2549635,0.9669507,0,0)"
         y="-154.09657"
         x="-222.43974"
         height="85.593224"
         width="36.440678"
         id="rect3233"
         style="opacity:1;fill:#829bbd;fill-opacity:1;fill-rule:nonzero;stroke:#9bbcee;stroke-width:5;stroke-linecap:round;stroke-linejoin:round;stroke-miterlimit:4;stroke-dasharray:none;stroke-opacity:1" />
      <path
         transform="translate(-14.40678,40.677966)"
         d="M -2.5423737,44.311337 A 158.8983,152.96609 0 1 1 -320.33897,44.311337 A 158.8983,152.96609 0 1 1 -2.5423737,44.311337 z"
         sodipodi:ry="152.96609"
         sodipodi:rx="158.8983"
         sodipodi:cy="44.311337"
         sodipodi:cx="-161.44067"
         id="path3225"
         style="opacity:1;fill:#829bbd;fill-opacity:1;fill-rule:nonzero;stroke:#9bbcee;stroke-width:5;stroke-linecap:round;stroke-linejoin:round;stroke-miterlimit:4;stroke-dasharray:none;stroke-opacity:1"
         sodipodi:type="arc" />
      <path
         sodipodi:nodetypes="cssc"
         d="M -117.79661,128.63337 C -138.24949,45.569617 -118.26628,15.140027 -94.079075,6.1719528 C -69.981827,-2.7627661 -59.513301,-6.8973069 -31.623773,-13.663607 C -0.47321969,-21.221067 35.938323,15.639808 40.677966,86.260488"
         style="fill:#829bbd;fill-opacity:1;fill-rule:evenodd;stroke:#9bbcee;stroke-width:5;stroke-linecap:round;stroke-linejoin:round;stroke-miterlimit:4;stroke-dasharray:none;stroke-opacity:1"
         id="path3229" />
      <path
         style="fill:#4a6c9a;fill-opacity:1;fill-rule:evenodd;stroke:none;stroke-width:0.8177864px;stroke-linecap:butt;stroke-linejoin:miter;stroke-opacity:1"
         d="M -40.980908,93.978718 C -74.939835,-43.936113 24.857829,-24.531013 31.788223,78.731849"
         id="path3235"
         sodipodi:nodetypes="cc" />
    </g>
  </g>
  <g
     inkscape:groupmode="layer"
     id="layer2"
     inkscape:label="Terrain"
     style="display:inline"
     sodipodi:insensitive="true">
    <path
       style="fill:#6f7ec6;fill-opacity:1;fill-rule:evenodd;stroke:#8f9be8;stroke-width:5;stroke-linecap:round;stroke-linejoin:round;stroke-miterlimit:4;stroke-dasharray:none;stroke-opacity:1"
       d="M -666.79912,1365.2423 C -622.9964,1350.5923 -590.7843,1321.1846 -569.92412,1268.3673 C -534.11836,1177.7083 -594.3319,1172.9728 -613.67412,1124.6173 C -618.76228,1111.8969 -564.63422,1113.2653 -540.89113,1088.4046 C -522.3696,1069.0112 -521.00347,1047.4477 -517.11963,1046.8929 C -488.55042,1042.8116 -503.97599,1186.5282 -493.48181,1165.5628 C -446.33244,1071.3674 -493.25274,1187.3464 -438.67412,1199.6173 C -394.47389,1209.3357 -361.19248,1068.1846 -337.26957,1117.6477 C -269.71723,1257.3191 -212.56348,1030.217 -244.92412,988.8 C -267.4472,959.97367 -284.67685,924.31358 -340.41856,1017.6639 C -361.54487,843.0655 -442.97125,882.33059 -456.19987,962.60479 C -491.72417,845.48801 -559.60872,885.65337 -566.08312,853.3757 C -581.30691,777.4785 -570.31138,767.67478 -553.89848,758.27111 C -506.22758,730.95837 -450.91524,811.67805 -449.52819,791.0423 C -446.11207,740.21929 -446.53176,676.27577 -501.01707,629.88971 C -516.20677,616.95796 -451.29184,602.42176 -398.2895,602.42176 C -328.38437,602.42176 -299.47073,583.45075 -302.13566,687.43778 C -302.53866,702.68303 -233.68107,650.84892 -191.10468,637.21648 C -127.75544,616.93282 -216.83708,581.48463 -231.38246,505.86727 C -237.91803,471.89066 -169.2527,396.26498 -213.88351,394.64753 C -309.52914,391.18127 -331.60376,300.49194 -385.37359,328.50993 C -401.28954,336.8033 -416.06436,242.87307 -371.1642,187.6629 C -324.14575,129.84805 -363.66898,98.999358 -262.51884,175.01711 C -243.62069,189.21971 -176.08919,147.18253 -89.22123,108.62468 C -65.58561,98.133596 -41.99188,85.780472 -18.86352,86.458238 C 19.66813,87.587392 90.92204,78.727648 95.76207,94.861943 C 102.54025,117.45707 84.64596,154.95391 83.57365,193.19313 C 83.0649,211.33539 123.94584,228.58105 144.16637,248.24318 C 169.36041,272.74148 126.60771,343.03589 166.64374,322.63374 C 213.77381,298.61651 254.90719,282.13331 290.81096,293.05021 C 301.39555,296.26856 420.79305,318.40939 434.98304,362.67542 C 448.90771,406.11378 357.81779,471.56333 348.46467,487.95717 C 337.974,506.34488 398.96102,567.98692 394.73653,582.69613 C 387.93519,606.37764 372.23267,660.99121 383.26167,677.56229 C 405.63611,711.17992 387.06454,767.28879 398.2144,785.30275 C 408.87988,802.53413 425.70449,838.96589 420.13714,851.703 C 409.89603,875.13284 326.30705,926.16935 304.42729,919.80257 C 294.89552,917.02893 267.62276,811.34858 256.21916,807.23859 C 235.30767,799.70185 159.23,734.40033 134.4006,731.89424 C 117.9685,730.23571 123.042,806.61767 120.22011,818.36727 C 104.88138,882.23376 182.07249,901.53525 176.53999,936.1493 C 173.42003,955.66937 68.99949,1024.8065 34.99188,1131.4098 C 20.50322,1176.8272 202.89192,1092.4421 229.29079,1117.6285 C 244.6432,1132.2758 174.56941,1338.9802 182.96049,1341.0779 C 368.57991,1352.4251 355.84881,1330.9892 485.95957,1343.1689 C 545.61774,1328.2543 416.8716,1134.1905 439.45088,1077.7423 C 453.44553,1042.7557 505.44048,1007.3295 481.99774,960.20206 C 457.42812,910.80929 496.07367,868.07112 514.45088,833.99227 C 553.50556,761.56897 640.1012,921.43314 664.45088,837.11727 C 675.34052,799.4096 765.17896,748.99343 739.77505,714.87302 C 724.24495,694.01428 674.01596,590.72377 694.17906,577.23495 C 755.49016,536.21869 711.80824,483.00107 670.70088,518.36727 C 637.23376,547.16029 642.94858,367.13447 701.95088,383.99227 C 717.20422,388.35037 763.99776,414.45022 777.26075,402.64525 C 808.44328,374.89069 898.8805,333.39703 914.8477,331.80973 C 933.6788,329.93772 1002.0649,379.98614 1010.1354,395.00417 C 1023.0113,418.96422 978.62877,467.95527 972.83382,516.73037 C 966.88218,566.82425 1017.8058,651.45162 1024.9058,657.46734 C 1040.3088,670.51812 1144.3651,593.14668 1173.8259,615.24227 C 1201.432,635.94685 1265.3959,663.53584 1269.2128,692.12719 C 1276.9248,749.89534 1193.0719,714.78503 1169.2624,776.20457 C 1153.0288,818.08101 1122.349,842.7894 1129.6791,886.77005 C 1131.6245,898.44277 1199.4501,915.29728 1242.5502,948.71002 C 1268.6829,968.96904 1225.121,1023.4984 1231.2664,1025.9566 C 1241.7861,1030.1645 1294.9218,1101.0104 1319.2673,1116.7591 C 1342.3301,1131.6782 1399.9888,979.83659 1462.5855,965.13846 C 1482.0108,960.57727 1569.0785,1016.9745 1578.2406,1013.1589 C 1669.4456,975.17721 1578.3262,919.67957 1655.0759,862.11727 C 1699.892,828.50523 1689.3233,815.99161 1736.3259,827.74227 C 1766.8613,835.37613 1809.9753,811.22215 1845.7009,818.36727 C 1876.0636,824.43981 1908.3629,828.06625 1886.3259,783.99227 C 1867.88,747.10044 1845.0426,740.52346 1962.6652,655.91687 C 1989.349,636.72308 1917.8642,629.09423 1911.2548,623.61865 C 1879.5938,597.38881 1850.4528,564.00227 1842.5759,524.61727 C 1841.0707,517.09117 1881.2329,478.94396 1880.4349,470.63499 C 1876.1816,426.35223 1839.4509,403.12529 1839.4509,362.11727 C 1839.4509,352.4658 1980.8102,308.99227 1998.8259,308.99227 C 2037.5524,308.99227 2079.4392,282.58894 2111.3259,274.61727 C 2142.9153,266.71993 2172.9976,280.45312 2198.8259,293.36727 C 2202.8567,295.38266 2189.4509,412.04031 2189.4509,427.74227 C 2189.4509,465.37675 2225.6834,498.77224 2255.0759,518.36727 C 2281.6757,536.10046 2287.1621,535.10726 2305.0759,558.99227 C 2319.1766,577.79324 2308.2009,657.02366 2308.2009,680.86727 C 2308.2009,741.42256 2261.3175,776.16927 2305.0759,830.86727 C 2316.7176,845.41938 2372.832,855.2047 2392.5759,868.36727 C 2434.1926,896.11172 2450.9736,866.02656 2461.3259,824.61727 C 2466.9187,802.24617 2466.2783,733.66787 2492.5759,740.24227 C 2518.3785,746.69293 2531.9515,694.10808 2540.7902,675.21251 C 2565.019,623.41558 2568.0688,606.85305 2555.0759,580.86727 C 2534.6194,539.95419 2528.658,516.94936 2567.5759,555.86727 C 2590.2577,578.54903 2600.1569,588.44827 2620.7009,608.99227 C 2667.5242,655.81554 2667.6473,631.78997 2636.3259,683.99227 C 2611.8022,724.86509 2583.1062,758.32943 2555.0759,793.36727 C 2541.3489,810.52607 2584.1214,828.29938 2589.4509,849.61727 C 2591.2902,856.9743 2593.6176,864.20061 2595.7009,871.49227 C 2599.6787,885.41458 2487.6747,989.1632 2470.7009,1002.7423 C 2443.479,1024.5198 2430.6056,1038.1234 2423.8259,1065.2423 C 2420.0527,1080.3349 2530.7165,1074.6173 2542.5759,1074.6173 C 2565.5871,1074.6173 2536.3259,1120.3561 2536.3259,1143.3673 C 2536.3259,1176.7333 2517.5759,1204.6267 2517.5759,1240.2423 C 2517.5759,1244.4089 2517.5759,1248.5756 2517.5759,1252.7423 C 2517.5759,1270.9342 2552.8622,1236.6746 2570.7009,1240.2423 C 2616.5007,1249.4022 2595.9144,1225.0443 2617.5759,1268.3673 C 2634.2553,1301.7261 2629.0133,1303.8364 2639.4509,1277.7423 C 2648.2634,1255.711 2671.6525,1267.1455 2676.9509,1277.7423 C 2686.7857,1297.4119 2665.5132,1346.9615 2658.2009,1365.2423 C 2644.528,1399.4244 2613.346,1457.548 2625.4285,1427.3417"
       id="path3294"
       sodipodi:nodetypes="cssssscssccssssssssssssssssssssssssssssssssccsssssssssssssssssssssssssssssssssssssssssssssssssssssssssssssz" />
    <path
       style="fill:#95a9de;fill-opacity:1;fill-rule:evenodd;stroke:#c0c8ea;stroke-width:5;stroke-linecap:round;stroke-linejoin:round;stroke-miterlimit:4;stroke-dasharray:none;stroke-opacity:1"
       d="M -259.57143,156.21933 C -280.0256,151.97228 -296.80634,127.68684 -319.57143,116.21933 C -358.02845,95.243539 -398.10837,149.20195 -388.14286,181.93361 C -382.81631,192.58671 -355.61208,171.24836 -344.14286,173.21933 C -332.67364,175.1903 -339.39539,203.73785 -322.57143,206.36218 C -305.74747,208.98651 -295.51878,176.13146 -275.42857,204.50504 C -262.69112,222.49425 -237.87191,213.56412 -236,206.07647 C -221.48313,191.0316 -209.00693,161.23057 -178,184.93361 C -148.39632,207.56395 -150.86714,128.74991 -108.14286,159.07647 C -74.322994,183.08249 -66.64947,157.58802 -54.857143,137.21933 C -43.064816,116.85064 -35.285714,105.74846 -12.285714,128.21933 C 1.071564,141.26932 19.411087,137.80784 23.285714,133.36218 C 58.419925,93.050002 48.928277,132.18103 67.285714,139.36218 C 120.35039,160.12026 122.35817,106.28381 100.42857,90.50504 C 20.535118,33.020167 -45.21678,87.025879 -126.28571,120.36218 C -149.48971,132.14157 -239.11726,160.46638 -259.57143,156.21933 z"
       id="path3268"
       sodipodi:nodetypes="ccczzscsszsssscz"
       inkscape:export-filename="/home/jeremie/.wormux/map/north/map.png"
       inkscape:export-xdpi="90"
       inkscape:export-ydpi="90" />
    <path
       style="fill:#95a9de;fill-opacity:1;fill-rule:evenodd;stroke:#c0c8ea;stroke-width:5;stroke-linecap:round;stroke-linejoin:round;stroke-miterlimit:4;stroke-dasharray:none;stroke-opacity:1"
       d="M -419.23621,598.41593 C -551.06344,571.50687 -506.41183,698.73744 -479.23621,639.17972 C -472.67923,626.06574 -453.41747,633.50352 -446.70439,636.86006 C -435.33948,642.54252 -416.938,619.2663 -404.61103,622.34805 C -388.72702,626.31905 -368.72444,628.66635 -356.69024,625.6578 C -335.49888,622.48531 -329.92469,615.13535 -303.9604,632.78652 C -290.51478,641.92719 -280,632.99483 -280,618.07647 C -280,606.05625 -293.09737,593.06238 -304.72419,590.15568 C -341.69211,581.54952 -370.72458,593.69173 -419.23621,598.41593 z"
       id="path3271"
       sodipodi:nodetypes="ccsscsscc"
       inkscape:export-filename="/home/jeremie/.wormux/map/north/map.png"
       inkscape:export-xdpi="90"
       inkscape:export-ydpi="90" />
    <path
       style="fill:#95a9de;fill-opacity:1;fill-rule:evenodd;stroke:#c0c8ea;stroke-width:5;stroke-linecap:round;stroke-linejoin:round;stroke-miterlimit:4;stroke-dasharray:none;stroke-opacity:1"
       d="M -462.85714,763.79075 C -472.35878,761.41534 -492.791,754.63827 -504.9505,751.5984 C -533.99618,741.12732 -568.05188,743.19864 -590.12729,769.08072 C -604.50038,792.02789 -578.93762,801.76547 -564.75248,783.90391 C -560.5104,778.5624 -547.26071,779.29988 -543.17948,788.50546 C -539.04682,797.82707 -527.31378,796.59251 -516.15276,785.43149 C -504.30232,773.58105 -488.54149,791.59921 -475.8133,797.96331 C -460.76533,805.48729 -453.90042,805.2725 -443.73409,795.10617 C -435.60586,775.68415 -441.77017,761.01825 -462.85714,763.79075 z"
       id="path3273"
       sodipodi:nodetypes="cccsssscc"
       inkscape:export-filename="/home/jeremie/.wormux/map/north/map.png"
       inkscape:export-xdpi="90"
       inkscape:export-ydpi="90" />
    <path
       style="fill:#95a9de;fill-opacity:1;fill-rule:evenodd;stroke:#c0c8ea;stroke-width:5;stroke-linecap:round;stroke-linejoin:round;stroke-miterlimit:4;stroke-dasharray:none;stroke-opacity:1"
       d="M 90.325318,178.84025 C 110.94578,178.11901 113.68907,204.29738 120.76379,215.33248 C 128.29298,227.07646 143.6908,233.70109 149.33521,237.42583 C 159.83326,244.35347 165.71429,251.1832 165.71429,260.93361 C 165.71429,282.94298 156.29937,286.29724 142.9703,276.97321 C 133.04575,270.03074 136.2997,251.94894 116.26591,256.74691 C 110.13972,258.2141 94.0331,257.40559 96.152758,239.26459 C 97.761612,225.49528 97.961224,225.25387 87.468175,220.48099 C 77.802129,216.08428 70.071976,208.39779 70.325318,202.46118 C 70.660087,194.61646 68.715939,179.59608 90.325318,178.84025 z"
       id="path3275"
       sodipodi:nodetypes="csssssszsz"
       inkscape:export-filename="/home/jeremie/.wormux/map/north/map.png"
       inkscape:export-xdpi="90"
       inkscape:export-ydpi="90" />
    <path
       style="fill:#95a9de;fill-opacity:1;fill-rule:evenodd;stroke:#c0c8ea;stroke-width:5;stroke-linecap:round;stroke-linejoin:round;stroke-miterlimit:4;stroke-dasharray:none;stroke-opacity:1"
       d="M 220,286.8742 C 220,284.94651 185.89608,300.67599 180,302.15002 C 168.07454,305.13138 156.55065,308.37257 148.57143,312.36218 C 135.19673,319.04953 140.703,343.7739 148.57143,349.50504 C 161.71613,359.07927 168.20574,345.32387 174.05941,340.93361 C 187.94435,330.5199 200.67115,327.96968 211.76803,339.06657 C 221.45839,348.75692 221.9488,347.58927 237.14286,343.79075 C 243.59797,342.17698 257.00291,327.22359 265.71429,323.79075 C 279.73361,318.26625 278.02823,319.94773 297.14286,329.50504 C 308.50924,335.18823 320.20012,325.31939 328.57143,329.50504 C 339.4546,334.94663 341.98701,341.36868 360,332.36218 C 378.72376,323.0003 376.95079,340.16535 380,352.36218 C 384.68691,371.10984 386.58995,373.57184 402.85714,369.50504 C 437.59736,367.00288 418.46731,390.13791 420,409.50504 C 423.01169,421.55181 443.97805,399.43906 451.42857,389.50504 C 463.76597,362.69449 443.58206,345.54378 425.71429,329.50504 C 415.49936,319.29011 401.9753,319.28458 385.71429,315.21933 C 371.11735,311.57009 360.11769,307.78407 345.71429,300.93361 C 335.30565,295.98311 321.31124,288.48207 309.56153,285.54464 C 296.72465,282.33542 282.53023,280.93361 265.71429,280.93361 C 248.82771,280.93361 239.41842,282.0196 220,286.8742 z"
       id="path3277"
       sodipodi:nodetypes="csssssssssssccccssssc"
       inkscape:export-filename="/home/jeremie/.wormux/map/north/map.png"
       inkscape:export-xdpi="90"
       inkscape:export-ydpi="90" />
    <path
       style="fill:#95a9de;fill-opacity:1;fill-rule:evenodd;stroke:#c0c8ea;stroke-width:5;stroke-linecap:round;stroke-linejoin:round;stroke-miterlimit:4;stroke-dasharray:none;stroke-opacity:1"
       d="M 65.940594,1126.6479 C 82.065036,1122.6875 89.826567,1124.5918 102.85714,1118.0765 C 116.40608,1111.302 136.74077,1112.523 151.42857,1106.6479 C 166.81749,1100.4923 176.0997,1095.2193 191.42857,1095.2193 C 217.16233,1092.7031 244.56245,1080.527 247.69449,1116.7469 C 247.69449,1130.4233 241.64222,1143.1546 228.57143,1145.2052 C 220.35111,1146.4948 210.02526,1129.2295 200,1134.1161 C 176.35418,1145.6418 172.07992,1141.3244 145.71429,1135.7568 C 139.37434,1134.418 128.26933,1151.5656 122.09336,1154.6535 C 106.64191,1162.3793 107.43031,1157.2568 94.285714,1153.0128 C 87.201482,1150.7255 68.398956,1158.3607 64.837341,1160.1415 C 48.579444,1168.2705 33.765111,1164.7922 30.202207,1157.5107 C 16.06255,1128.6134 48.240068,1130.8304 65.940594,1126.6479 z"
       id="path3279"
       sodipodi:nodetypes="cssccsssssssc"
       inkscape:export-filename="/home/jeremie/.wormux/map/north/map.png"
       inkscape:export-xdpi="90"
       inkscape:export-ydpi="90" />
    <path
       style="fill:#95a9de;fill-opacity:1;fill-rule:evenodd;stroke:#c0c8ea;stroke-width:5;stroke-linecap:round;stroke-linejoin:round;stroke-miterlimit:4;stroke-dasharray:none;stroke-opacity:1"
       d="M 716.8034,381.6974 C 730.43244,386.22966 747.5254,391.41317 760.87694,389.27874 C 783.24022,385.84253 800.79936,371.47419 820,360.93361 C 844.21862,347.48095 870.62189,337.55512 897.14286,329.50504 C 933.8374,318.82209 953.94522,337.24861 980.42432,359.83035 C 989.84258,367.86238 1009.8458,379.98996 1020,389.50504 C 1029.3146,398.23334 1035.8929,406.7254 1030.6648,427.638 C 1028.1138,437.84187 1009.6935,451.34868 1002.8571,446.6479 C 984.51597,434.03631 994.28571,411.36455 994.28571,406.6479 C 994.28571,389.41866 970.85474,401.22053 965.71429,403.79075 C 953.42752,409.93414 945.71429,408.06242 945.71429,389.50504 C 945.71429,373.51386 936.97486,358.34328 925.71429,361.6974 C 916.67831,364.3889 910.93167,376.21957 895.50213,372.36218 C 885.85061,369.9493 866.71257,379.58768 862.85714,395.21933 C 859.08287,410.52194 846.98089,406.98377 829.22207,398.07647 C 814.02463,390.45389 806.51743,410.7559 805.71429,412.36218 C 798.78132,426.22812 802.43964,435.21933 782.85714,435.21933 C 766.88212,435.21933 767.72135,416.90992 748.57143,421.6974 C 728.13312,426.80697 735.54943,440.1369 714.28571,429.50504 C 686.39139,409.28542 685.17503,410.95379 665.71429,438.07647 C 652.1418,451.64896 642.85714,425.12977 642.85714,415.21933 C 642.85714,399.47579 646.59727,391.47919 654.28571,383.79075 C 684.8511,362.71493 688.08893,372.14859 716.8034,381.6974 z"
       id="path3281"
       sodipodi:nodetypes="ccccssssssssssssssccscs"
       inkscape:export-filename="/home/jeremie/.wormux/map/north/map.png"
       inkscape:export-xdpi="90"
       inkscape:export-ydpi="90" />
    <path
       style="fill:#95a9de;fill-opacity:1;fill-rule:evenodd;stroke:#c0c8ea;stroke-width:5;stroke-linecap:round;stroke-linejoin:round;stroke-miterlimit:4;stroke-dasharray:none;stroke-opacity:1"
       d="M 631.54173,840.93361 C 624.12834,839.02839 599.566,832.25834 586.59123,825.77095 C 571.47432,818.2125 568.58935,808.08543 554.28571,800.93361 C 537.03033,792.30592 521.31818,803.01005 512.95615,811.37208 C 501.19579,823.13245 498.94785,842.0368 514.28571,849.50504 C 526.96815,855.68031 540.4622,838.53867 548.57143,846.6479 C 553.62246,851.69893 554.33407,858.14489 557.36916,864.21508 C 561.60798,872.69272 579.96732,858.10915 580,858.07647 C 593.74342,844.33304 597.14286,872.75192 597.14286,878.50079 C 597.14286,890.08701 619.84236,873.77661 631.42857,873.77661 C 639.16153,873.77661 643.98332,893.98 662.09336,875.86996 C 671.70111,866.26221 664.60702,849.46871 661.21641,842.6875 C 657.28965,834.83396 636.79558,842.28384 631.54173,840.93361 z"
       id="path3283"
       sodipodi:nodetypes="cssssssssssss"
       inkscape:export-filename="/home/jeremie/.wormux/map/north/map.png"
       inkscape:export-xdpi="90"
       inkscape:export-ydpi="90" />
    <path
       style="fill:#95a9de;fill-opacity:1;fill-rule:evenodd;stroke:#c0c8ea;stroke-width:5;stroke-linecap:round;stroke-linejoin:round;stroke-miterlimit:4;stroke-dasharray:none;stroke-opacity:1"
       d="M 1051.4286,629.50504 C 1037.7015,634.99587 1011.8365,642.63983 1015.9264,657.96331 C 1022.0226,680.80374 1026.3966,682.1916 1042.8571,678.07647 C 1058.7181,674.11122 1068.9555,646.62188 1080,648.17548 C 1090.0452,649.5885 1093.8365,665.09203 1103.9604,665.09203 C 1113.4902,665.09203 1123.3258,657.13914 1125.7143,652.36218 C 1131.5264,640.73795 1146.7044,642.54455 1153.6351,658.07647 C 1161.7324,676.22282 1175.8405,650.80736 1177.1429,649.50504 C 1192.1368,634.51113 1188.5714,667.10324 1188.5714,675.21933 C 1188.5714,692.9043 1208.6342,680.8708 1214.2857,675.21933 C 1229.74,659.76502 1224.5977,689.08906 1220,695.21933 C 1209.3574,709.4094 1243.6218,698.07647 1248.5714,698.07647 C 1259.0908,698.07647 1241.0099,720.09621 1245.7143,729.50504 C 1253.3933,744.86303 1275.7587,722.31772 1277.1429,720.93361 C 1299.69,690.50108 1286.6954,672.3236 1257.1429,658.07647 C 1241.5234,650.26674 1228.4405,647.73339 1218.7836,638.07647 C 1198.3682,624.45328 1182.0438,614.81266 1160,603.79075 C 1121.5215,592.72333 1083.537,609.62334 1051.4286,629.50504 z"
       id="path3285"
       sodipodi:nodetypes="cssssssssssssccccc"
       inkscape:export-filename="/home/jeremie/.wormux/map/north/map.png"
       inkscape:export-xdpi="90"
       inkscape:export-ydpi="90" />
    <path
       style="fill:#95a9de;fill-opacity:1;fill-rule:evenodd;stroke:#c0c8ea;stroke-width:5;stroke-linecap:round;stroke-linejoin:round;stroke-miterlimit:4;stroke-dasharray:none;stroke-opacity:1"
       d="M 1172.0792,890.26883 C 1185.772,906.81076 1218.6513,914.99371 1242.8571,926.6479 C 1259.7168,934.99748 1273.5833,961.37855 1252.8713,973.12598 C 1233.6466,982.73833 1224.0543,950.20807 1220,943.33814 C 1212.6994,930.96731 1196.3332,947.15176 1185.8274,949.92936 C 1165.4858,955.30744 1167.7211,939.93024 1161.867,927.07222 C 1149.6736,900.2905 1119.7689,927.44534 1115.0495,911.48524 C 1103.7907,873.41032 1153.6177,867.96594 1172.0792,890.26883 z"
       id="path3287"
       sodipodi:nodetypes="cccsssss"
       inkscape:export-filename="/home/jeremie/.wormux/map/north/map.png"
       inkscape:export-xdpi="90"
       inkscape:export-ydpi="90" />
    <path
       style="fill:#95a9de;fill-opacity:1;fill-rule:evenodd;stroke:#c0c8ea;stroke-width:5;stroke-linecap:butt;stroke-linejoin:miter;stroke-miterlimit:4;stroke-dasharray:none;stroke-opacity:1"
       d="M 1209.9651,1019.5623 C 1199.8919,1042.9094 1236.936,1024.6109 1234.7798,1056.2436 C 1232.6264,1087.8364 1248.8433,1065.0691 1265.5426,1079.0805 C 1275.6034,1087.522 1264.6413,1112.3665 1288.3795,1109.9323 C 1317.7321,1106.9223 1321.017,1144.1049 1347.8459,1120.8285 C 1370.0196,1101.5909 1388.6964,1065.9684 1406.4975,1066.2584 C 1433.8228,1066.7036 1435.8741,1050.4764 1433.9792,1034.3647 C 1431.9224,1016.8768 1442.9026,993.95967 1456.1344,1003.7772 C 1472.9992,1016.2903 1486.9169,1024.959 1498.2938,1005.7222 C 1505.0998,994.21417 1524.0434,1002.8445 1530.8157,1010.7179 C 1547.9488,1030.6368 1558.7287,1039.2444 1574.371,1026.5549 C 1590.1571,1013.7488 1609.5722,1019.5863 1631.283,1010.8424 C 1666.8047,996.53634 1633.9344,953.18168 1609.8595,970.98477 C 1548.4445,1016.4004 1521.9468,949.58574 1452.1566,956.08112 C 1381.3461,962.67147 1386.8073,1086.389 1318.2239,1092.0583 C 1305.7359,1093.0906 1273.1845,1045.2134 1250.3106,1023.0108 C 1233.9319,1007.1128 1214.8962,1008.1334 1209.9651,1019.5623 z"
       id="path2424"
       sodipodi:nodetypes="cssssssssssssssss"
       inkscape:export-filename="/home/jeremie/.wormux/map/north/map.png"
       inkscape:export-xdpi="90"
       inkscape:export-ydpi="90" />
    <path
       style="fill:#95a9de;fill-opacity:1;fill-rule:evenodd;stroke:#c0c8ea;stroke-width:5;stroke-linecap:butt;stroke-linejoin:miter;stroke-miterlimit:4;stroke-dasharray:none;stroke-opacity:1"
       d="M 1631.8151,884.53324 C 1647.1605,893.73305 1644.429,843.6252 1678.3185,863.74818 C 1697.5612,875.17415 1704.0878,857.00854 1707.2518,853.84453 C 1714.3649,842.19364 1719.4089,840.37745 1730.0813,850.86677 C 1746.7701,870.60107 1752.059,866.54952 1768.7923,850.86677 C 1778.1117,843.30283 1786.71,845.07122 1792.6144,854.83712 C 1800.379,864.05086 1814.85,860.19229 1822.392,852.85195 C 1834.9442,841.08441 1853.2979,842.91836 1869.0437,845.90383 C 1890.4191,848.48677 1906.9508,845.2149 1907.7546,820.09653 C 1904.1051,799.3773 1867.4926,817.41629 1855.1474,813.14842 C 1828.1861,803.82756 1801.6899,810.293 1772.7626,817.11877 C 1747.3733,823.10969 1718.3495,818.93568 1690.111,818.11877 C 1655.0186,817.10359 1607.6499,870.04581 1631.8151,884.53324 z"
       id="path2426"
       sodipodi:nodetypes="cscccccccssss"
       inkscape:export-filename="/home/jeremie/.wormux/map/north/map.png"
       inkscape:export-xdpi="90"
       inkscape:export-ydpi="90" />
    <path
       style="fill:#95a9de;fill-opacity:1;fill-rule:evenodd;stroke:#c0c8ea;stroke-width:5;stroke-linecap:butt;stroke-linejoin:miter;stroke-miterlimit:4;stroke-dasharray:none;stroke-opacity:1"
       d="M 1855.2141,491.57206 C 1846.2661,503.7699 1836.7789,516.13979 1839.3031,531.25335 C 1841.3389,543.44308 1850.5092,543.25424 1855.1474,533.23853 C 1860.1403,522.45681 1854.5531,508.76281 1871.0288,519.3423 C 1882.6666,526.81525 1885.1531,513.31726 1882.9399,504.45347 C 1879.7349,491.61791 1877.9817,486.14652 1886.9103,479.63877 C 1895.1735,473.61602 1882.2627,463.36873 1874.0214,464.79441 C 1856.806,467.77255 1860.1141,484.89248 1855.2141,491.57206 z"
       id="path2428"
       sodipodi:nodetypes="csssssss"
       inkscape:export-filename="/home/jeremie/.wormux/map/north/map.png"
       inkscape:export-xdpi="90"
       inkscape:export-ydpi="90" />
    <path
       style="fill:#95a9de;fill-opacity:1;fill-rule:evenodd;stroke:#c0c8ea;stroke-width:5;stroke-linecap:butt;stroke-linejoin:miter;stroke-miterlimit:4;stroke-dasharray:none;stroke-opacity:1"
       d="M 1867.0585,768.48194 C 1870.3695,775.45031 1879.0638,772.75572 1879.9621,762.52642 C 1880.5623,755.69079 1875.5692,736.91514 1892.9028,748.59312 C 1910.9587,760.75769 1909.6687,741.10536 1908.8065,736.71171 C 1906.4675,724.79251 1911.4717,709.12722 1922.3686,712.03406 C 1948.7821,719.0801 1931.391,690.70913 1952.3914,695.09712 C 1969.8257,698.73998 1952.0299,675.19226 1967.3618,672.18606 C 1994.0669,666.94984 1983.1214,647.08861 1965.3025,647.3343 C 1941.7486,648.91786 1925.463,672.48852 1905.8888,687.52461 C 1880.4657,707.0535 1850.7089,734.07218 1867.0585,768.48194 z"
       id="path2430"
       sodipodi:nodetypes="csssssscss"
       inkscape:export-filename="/home/jeremie/.wormux/map/north/map.png"
       inkscape:export-xdpi="90"
       inkscape:export-ydpi="90" />
    <path
       style="fill:#95a9de;fill-opacity:1;fill-rule:evenodd;stroke:#c0c8ea;stroke-width:5;stroke-linecap:butt;stroke-linejoin:miter;stroke-miterlimit:4;stroke-dasharray:none;stroke-opacity:1"
       d="M 1825.3698,364.49853 C 1820.3715,388.84353 1847.7945,395.6293 1863.0881,376.40959 C 1878.1775,357.44643 1881.7738,360.71101 1898.8213,370.45406 C 1910.6831,377.23336 1917.6606,367.33025 1924.6286,358.543 C 1937.2721,342.59842 1931.8487,345.13046 1949.4433,351.59488 C 1954.7639,353.54974 1961.8006,351.85862 1965.3247,349.60971 C 1972.9245,344.75986 1974.9218,325.78731 1981.2061,343.65418 C 1987.6244,361.90199 2000.9139,362.89199 2008.9986,341.669 C 2013.2439,330.5248 2027.4445,324.44978 2038.7763,325.78759 C 2061.108,328.42405 2064.1522,329.53121 2080.465,311.89135 C 2088.3633,303.35047 2098.859,287.36359 2100.3167,308.91359 C 2101.0158,319.2484 2114.0434,329.69914 2118.1833,316.85429 C 2121.8368,305.51849 2134.0154,293.757 2142.0054,300.97288 C 2153.0537,310.95085 2154.4397,327.57409 2172.7757,310.89876 C 2183.4071,301.23024 2180.3189,305.08553 2187.6645,315.86171 C 2205.3314,341.77933 2229.2357,316.79931 2220.4199,295.01735 C 2207.432,262.92703 2140.111,268.82543 2114.2204,271.24712 C 2070.5762,275.32939 2029.1656,284.94332 1988.1468,301.97288 C 1943.5292,320.49652 1836.8589,308.53857 1825.3698,364.49853 z"
       id="path2432"
       sodipodi:nodetypes="cssssssssssssssssss"
       inkscape:export-filename="/home/jeremie/.wormux/map/north/map.png"
       inkscape:export-xdpi="90"
       inkscape:export-ydpi="90" />
    <path
       style="fill:#95a9de;fill-opacity:1;fill-rule:evenodd;stroke:#c0c8ea;stroke-width:5;stroke-linecap:butt;stroke-linejoin:miter;stroke-miterlimit:4;stroke-dasharray:none;stroke-opacity:1"
       d="M 2178.7312,430.00935 C 2164.0645,439.14252 2181.6945,454.80887 2187.6645,466.73512 C 2192.7501,476.89468 2200.5851,486.04543 2202.5533,497.50535 C 2205.6214,515.36943 2209.5664,537.227 2229.3532,525.29782 C 2241.2078,518.15084 2247.1656,526.59423 2247.2198,537.20888 C 2247.2924,551.41901 2252.672,570.97939 2268.0641,557.06065 C 2276.2656,549.64421 2286.3362,557.68269 2287.9159,565.99394 C 2291.4736,584.71174 2315.6195,592.83758 2320.6713,574.92724 C 2324.0401,562.98366 2293.3776,543.18995 2274.9826,526.33488 C 2257.721,510.51827 2239.3612,496.17401 2220.4199,482.61653 C 2199.4849,467.63201 2198.8972,417.45171 2178.7312,430.00935 z"
       id="path2434"
       sodipodi:nodetypes="cssssssssss"
       inkscape:export-filename="/home/jeremie/.wormux/map/north/map.png"
       inkscape:export-xdpi="90"
       inkscape:export-ydpi="90" />
    <path
       style="fill:#95a9de;fill-opacity:1;fill-rule:evenodd;stroke:#c0c8ea;stroke-width:5;stroke-linecap:butt;stroke-linejoin:miter;stroke-miterlimit:4;stroke-dasharray:none;stroke-opacity:1"
       d="M 2303.8344,802.34112 C 2293.2518,789.32953 2280.7645,789.28614 2276.9974,801.23736 C 2273.7349,811.58765 2271.2542,826.45511 2291.9159,830.91124 C 2304.5181,833.62918 2304.5518,839.94243 2306.7751,850.81489 C 2309.3308,863.31276 2311.3716,879.68549 2325.6343,874.68889 C 2336.8907,870.74547 2348.3997,865.99031 2352.4712,880.68889 C 2354.6028,888.3843 2368.167,897.61473 2378.3081,893.54806 C 2388.7628,889.35563 2396.8097,874.49335 2405.0932,883.5703 C 2418.8432,898.63741 2435.4123,895.95419 2443.8338,891.51842 C 2453.3884,886.48583 2462.0515,883.22196 2460.6263,866.74818 C 2458.8915,846.69535 2433.1733,865.89448 2420.9227,865.75559 C 2392.785,865.43658 2369.6017,845.73752 2343.5008,836.97053 C 2317.8863,828.36691 2318.9039,820.86949 2303.8344,802.34112 z"
       id="path2436"
       sodipodi:nodetypes="cssssssssssss"
       inkscape:export-filename="/home/jeremie/.wormux/map/north/map.png"
       inkscape:export-xdpi="90"
       inkscape:export-ydpi="90" />
    <path
       style="fill:#95a9de;fill-opacity:1;fill-rule:evenodd;stroke:#c0c8ea;stroke-width:5;stroke-linecap:butt;stroke-linejoin:miter;stroke-miterlimit:4;stroke-dasharray:none;stroke-opacity:1"
       d="M 2531.1,521.32747 C 2503.9727,534.52174 2533.9372,594.72177 2544.9963,566.98653 C 2550.5066,553.16714 2558.0538,576.91098 2559.8851,582.86794 C 2562.183,590.34247 2567.3852,602.82736 2576.7591,595.77159 C 2587.4462,587.72735 2590.6495,609.09799 2591.6479,616.61594 C 2593.261,628.76321 2601.0657,651.98784 2612.4923,632.49736 C 2620.2253,619.30702 2630.7647,626.32201 2630.3588,635.47512 C 2629.2082,661.42013 2653.4058,644.88923 2656.1958,653.3343 C 2658.0199,658.85565 2654.7362,663.85613 2654.181,670.21571 C 2653.1359,682.18778 2648.777,696.19934 2654.181,705.94889 C 2663.1167,722.07005 2670.319,681.27846 2674.0327,668.23053 C 2680.4932,645.53208 2673.7883,628.19012 2653.1884,617.60853 C 2618.3796,599.72819 2597.169,566.59127 2566.8332,541.17924 C 2556.9366,532.88894 2542.3784,515.84184 2531.1,521.32747 z"
       id="path2438"
       sodipodi:nodetypes="csssssssssssss"
       inkscape:export-filename="/home/jeremie/.wormux/map/north/map.png"
       inkscape:export-xdpi="90"
       inkscape:export-ydpi="90" />
    <path
       style="fill:#95a9de;fill-opacity:1;fill-rule:evenodd;stroke:#c0c8ea;stroke-width:5;stroke-linecap:butt;stroke-linejoin:miter;stroke-miterlimit:4;stroke-dasharray:none;stroke-opacity:1"
       d="M 2539.0259,1239.0429 C 2528.0496,1245.8083 2516.3507,1252.6169 2516.2112,1263.7835 C 2516.068,1275.2477 2531.8362,1279.6392 2540.9888,1263.7464 C 2548.0915,1251.4131 2556.1757,1261.4453 2559.8851,1272.7168 C 2562.2699,1279.9633 2571.8164,1273.4333 2573.7813,1269.739 C 2582.7105,1252.9504 2584.0732,1248.9943 2599.5886,1268.7464 C 2614.8641,1288.193 2628.1218,1290.8242 2625.3959,1258.7687 C 2624.4343,1247.4605 2602.2698,1238.2919 2581.7294,1234.0651 C 2568.27,1231.2954 2550.2676,1232.1139 2539.0259,1239.0429 z"
       id="path2442"
       sodipodi:nodetypes="cssssssss"
       inkscape:export-filename="/home/jeremie/.wormux/map/north/map.png"
       inkscape:export-xdpi="90"
       inkscape:export-ydpi="90" />
    <path
       style="fill:#95a9de;fill-opacity:1;fill-rule:evenodd;stroke:#c0c8ea;stroke-width:5;stroke-linecap:butt;stroke-linejoin:miter;stroke-miterlimit:4;stroke-dasharray:none;stroke-opacity:1"
       d="M 2640.2847,1264.7761 C 2639.568,1274.3363 2633.0423,1287.818 2649.218,1279.6649 C 2657.2229,1275.6625 2657.2674,1276.1292 2659.1439,1283.6352 C 2661.0349,1291.1991 2666.1257,1289.5908 2673.0401,1289.5908 C 2677.5404,1289.5908 2676.9557,1298.4967 2680.9808,1300.5092 C 2685.314,1302.7253 2693.0703,1293.2383 2692.8919,1284.6278 C 2688.2911,1268.4762 2643.6778,1245.0735 2640.2847,1264.7761 z"
       id="path2444"
       sodipodi:nodetypes="ccssccc"
       inkscape:export-filename="/home/jeremie/.wormux/map/north/map.png"
       inkscape:export-xdpi="90"
       inkscape:export-ydpi="90" />
    <path
       style="fill:#95a9de;fill-opacity:1;fill-rule:evenodd;stroke:#c0c8ea;stroke-width:5;stroke-linecap:butt;stroke-linejoin:miter;stroke-miterlimit:4;stroke-dasharray:none;stroke-opacity:1"
       d="M 2515.2557,1066.3029 C 2487.2828,1076.0785 2440.2729,1055.0469 2436.7152,1069.2288 C 2434.2252,1079.1542 2440.2645,1085.247 2446.6633,1089.0361 C 2455.1291,1094.0492 2465.8649,1099.7525 2477.4632,1088.0657 C 2481.9359,1083.5589 2492.6525,1085.9294 2496.3817,1091.0583 C 2504.5433,1102.2831 2510.011,1090.5913 2519.1741,1087.0879 C 2529.9583,1082.9647 2534.3769,1096.7923 2541.0259,1100.999 C 2549.3722,1106.2796 2557.3243,1098.8795 2559.8851,1091.0731 C 2564.6068,1076.6795 2537.0494,1058.6867 2515.2557,1066.3029 z"
       id="path2446"
       sodipodi:nodetypes="cssssssss"
       inkscape:export-filename="/home/jeremie/.wormux/map/north/map.png"
       inkscape:export-xdpi="90"
       inkscape:export-ydpi="90" />
  </g>
</svg>
