<?xml version="1.0" encoding="UTF-8" standalone="no"?>
<!-- Created with Inkscape (http://www.inkscape.org/) -->
<svg
   xmlns:dc="http://purl.org/dc/elements/1.1/"
   xmlns:cc="http://web.resource.org/cc/"
   xmlns:rdf="http://www.w3.org/1999/02/22-rdf-syntax-ns#"
   xmlns:svg="http://www.w3.org/2000/svg"
   xmlns="http://www.w3.org/2000/svg"
   xmlns:xlink="http://www.w3.org/1999/xlink"
   xmlns:sodipodi="http://inkscape.sourceforge.net/DTD/sodipodi-0.dtd"
   xmlns:inkscape="http://www.inkscape.org/namespaces/inkscape"
   width="27"
   height="32"
   id="svg1"
   sodipodi:version="0.32"
   inkscape:version="0.43"
   sodipodi:docbase="/home/yekcim/Desktop/SVG/Skins/wilberteam"
   sodipodi:docname="dead.svg"
   inkscape:export-filename="/home/yekcim/Desktop/dead.png"
   inkscape:export-xdpi="90.000000"
   inkscape:export-ydpi="90.000000"
   version="1.0"
   inkscape:output_extension="org.inkscape.output.svg.inkscape">
  <defs
     id="defs3">
    <defs
       id="defs1062">
      <linearGradient
         inkscape:collect="always"
         id="linearGradient10630">
        <stop
           style="stop-color:#616161;stop-opacity:1;"
           offset="0"
           id="stop10631" />
        <stop
           style="stop-color:#616161;stop-opacity:0;"
           offset="1"
           id="stop10632" />
      </linearGradient>
      <linearGradient
         inkscape:collect="always"
         id="linearGradient10560">
        <stop
           style="stop-color:#000000;stop-opacity:1;"
           offset="0"
           id="stop10561" />
        <stop
           style="stop-color:#000000;stop-opacity:0;"
           offset="1"
           id="stop10562" />
      </linearGradient>
      <linearGradient
         id="linearGradient13777">
        <stop
           offset="0.0000000"
           style="stop-color:#d17d00;stop-opacity:1.0000000;"
           id="stop13779" />
        <stop
           offset="1.0000000"
           style="stop-color:#a7b135;stop-opacity:0.0000000;"
           id="stop13778" />
      </linearGradient>
      <linearGradient
         id="linearGradient11847">
        <stop
           offset="0.0000000"
           style="stop-color:#000000;stop-opacity:1.0000000;"
           id="stop11849" />
        <stop
           offset="1.0000000"
           style="stop-color:#000000;stop-opacity:0.0000000;"
           id="stop11848" />
      </linearGradient>
      <linearGradient
         id="linearGradient6187">
        <stop
           style="stop-color:#2e1b0b;stop-opacity:1.0000000;"
           offset="0.0000000"
           id="stop6188" />
        <stop
           style="stop-color:#431e00;stop-opacity:0;"
           offset="1"
           id="stop6189" />
      </linearGradient>
      <linearGradient
         inkscape:collect="always"
         id="linearGradient4909">
        <stop
           style="stop-color:#000000;stop-opacity:1;"
           offset="0"
           id="stop4910" />
        <stop
           style="stop-color:#000000;stop-opacity:0;"
           offset="1"
           id="stop4911" />
      </linearGradient>
      <linearGradient
         id="linearGradient1780">
        <stop
           style="stop-color:#454545;stop-opacity:1.0000000;"
           offset="0.0000000"
           id="stop1781" />
        <stop
           style="stop-color:#ffffff;stop-opacity:0;"
           offset="1"
           id="stop1782" />
      </linearGradient>
      <linearGradient
         id="linearGradient3869">
        <stop
           offset="0.0000000"
           style="stop-color:#d2dd2e;stop-opacity:1.0000000;"
           id="stop3872" />
        <stop
           offset="0.76146787"
           style="stop-color:#b3b96d;stop-opacity:0.65555555;"
           id="stop3871" />
        <stop
           offset="1.0000000"
           style="stop-color:#b1b952;stop-opacity:0.0000000;"
           id="stop3870" />
      </linearGradient>
      <linearGradient
         inkscape:collect="always"
         xlink:href="#linearGradient9217"
         id="linearGradient3799"
         gradientUnits="userSpaceOnUse"
         gradientTransform="matrix(0.112563,0,0,0.115364,26.43402,157.1761)"
         x1="4373.3052"
         y1="319.33466"
         x2="96.982727"
         y2="2708.2139" />
      <linearGradient
         inkscape:collect="always"
         xlink:href="#linearGradient7337"
         id="linearGradient3800"
         gradientUnits="userSpaceOnUse"
         gradientTransform="matrix(0.230667,0,0,7.644947e-2,26.55186,129.5549)"
         x1="862.1651"
         y1="2479.5938"
         x2="1523.3719"
         y2="2479.5938" />
      <linearGradient
         inkscape:collect="always"
         xlink:href="#linearGradient5442"
         id="linearGradient3801"
         gradientUnits="userSpaceOnUse"
         gradientTransform="matrix(0.162855,0,0,7.648058e-2,75.52973,161.8049)"
         x1="580.22791"
         y1="2173.3171"
         x2="1782.0374"
         y2="1630.2036" />
      <radialGradient
         inkscape:collect="always"
         xlink:href="#linearGradient5442"
         id="radialGradient3802"
         gradientUnits="userSpaceOnUse"
         gradientTransform="matrix(0.159978,0,0,7.785591e-2,363.0923,173.8583)"
         cx="-606.79681"
         cy="1573.4399"
         fx="-606.79681"
         fy="1573.4399"
         r="739.70477" />
      <linearGradient
         inkscape:collect="always"
         xlink:href="#linearGradient21707"
         id="linearGradient3803"
         gradientUnits="userSpaceOnUse"
         gradientTransform="scale(0.659854,1.515487)"
         x1="4848.5972"
         y1="3945.1116"
         x2="5625.4653"
         y2="1720.9402" />
      <linearGradient
         inkscape:collect="always"
         xlink:href="#linearGradient7337"
         id="linearGradient3804"
         gradientUnits="userSpaceOnUse"
         gradientTransform="matrix(0.236634,0,0,0.208284,-2451.443,4783.687)"
         x1="-7797.7422"
         y1="5021.4731"
         x2="-352.84012"
         y2="1184.9034" />
      <linearGradient
         inkscape:collect="always"
         xlink:href="#linearGradient7337"
         id="linearGradient3805"
         gradientUnits="userSpaceOnUse"
         gradientTransform="matrix(0.236634,0,0,0.208284,-2451.443,4783.687)"
         x1="-7797.7422"
         y1="5021.4731"
         x2="-352.84012"
         y2="1184.9034" />
      <defs
         id="defs3745">
        <linearGradient
           id="linearGradient22333"
           x1="0"
           y1="0.5"
           x2="1"
           y2="0.5"
           gradientUnits="objectBoundingBox"
           spreadMethod="pad"
           xlink:href="#linearGradient13777" />
        <linearGradient
           id="linearGradient21707">
          <stop
             style="stop-color:#ffffff;stop-opacity:1.0000000;"
             offset="0.0000000"
             id="stop21708" />
          <stop
             style="stop-color:#a7b135;stop-opacity:0;"
             offset="1"
             id="stop21709" />
        </linearGradient>
        <linearGradient
           inkscape:collect="always"
           id="linearGradient9217"
           x1="0"
           y1="0.5"
           x2="1"
           y2="0.5"
           gradientUnits="objectBoundingBox"
           spreadMethod="pad"
           xlink:href="#linearGradient11847" />
        <linearGradient
           id="linearGradient8584">
          <stop
             style="stop-color:#000000;stop-opacity:1.0000000;"
             offset="0.0000000"
             id="stop8585" />
          <stop
             style="stop-color:#cece4c;stop-opacity:0;"
             offset="1"
             id="stop8586" />
        </linearGradient>
        <linearGradient
           id="linearGradient7337">
          <stop
             style="stop-color:#b1b12f;stop-opacity:1.0000000;"
             offset="0.0000000"
             id="stop7338" />
          <stop
             style="stop-color:#cece4c;stop-opacity:0;"
             offset="1"
             id="stop7339" />
        </linearGradient>
        <linearGradient
           id="linearGradient5442"
           x1="0"
           y1="0.5"
           x2="1"
           y2="0.5"
           gradientUnits="objectBoundingBox"
           spreadMethod="pad"
           xlink:href="#linearGradient3869" />
      </defs>
      <sodipodi:namedview
         id="namedview3772"
         pagecolor="#ffffff"
         bordercolor="#666666"
         borderopacity="1.0"
         inkscape:pageopacity="0.0"
         inkscape:pageshadow="2"
         inkscape:zoom="0.80057989"
         inkscape:cx="297.63780"
         inkscape:cy="420.94487"
         inkscape:current-layer="layer1"
         inkscape:window-width="1440"
         inkscape:window-height="851"
         inkscape:window-x="0"
         inkscape:window-y="27"
         showguides="true"
         inkscape:guide-bbox="true" />
      <metadata
         id="metadata3773">
        <rdf:RDF>
          <cc:Work
             rdf:about="">
            <dc:format>image/svg+xml</dc:format>
            <dc:type
               rdf:resource="http://purl.org/dc/dcmitype/StillImage" />
          </cc:Work>
        </rdf:RDF>
      </metadata>
      <linearGradient
         inkscape:collect="always"
         xlink:href="#linearGradient4909"
         id="linearGradient6167"
         gradientUnits="userSpaceOnUse"
         gradientTransform="scale(0.891889,1.121216)"
         x1="-148.77991"
         y1="106.3186"
         x2="-160.14931"
         y2="-66.932083" />
      <linearGradient
         inkscape:collect="always"
         xlink:href="#linearGradient10560"
         id="linearGradient10563"
         gradientTransform="matrix(0.915477,0.127968,-0.149762,1.071392,19.54851,-8.45341)"
         x1="698.5448"
         y1="69.852913"
         x2="758.31232"
         y2="359.09653"
         gradientUnits="userSpaceOnUse" />
      <linearGradient
         inkscape:collect="always"
         xlink:href="#linearGradient10560"
         id="linearGradient10578"
         gradientUnits="userSpaceOnUse"
         gradientTransform="matrix(0.915477,0.127968,-0.149762,1.071392,0,0)"
         x1="647.37115"
         y1="96.894905"
         x2="770.59186"
         y2="342.74301" />
      <linearGradient
         inkscape:collect="always"
         xlink:href="#linearGradient4909"
         id="linearGradient10604"
         gradientUnits="userSpaceOnUse"
         gradientTransform="scale(0.891889,1.121216)"
         x1="-148.77991"
         y1="106.3186"
         x2="-160.14931"
         y2="-66.932083" />
      <linearGradient
         inkscape:collect="always"
         xlink:href="#linearGradient10630"
         id="linearGradient10633"
         gradientTransform="scale(0.883732,1.131565)"
         x1="-164.59187"
         y1="105.15539"
         x2="-154.1456"
         y2="3.6783011"
         gradientUnits="userSpaceOnUse" />
      <linearGradient
         inkscape:collect="always"
         xlink:href="#linearGradient10630"
         id="linearGradient10647"
         gradientUnits="userSpaceOnUse"
         gradientTransform="scale(0.883732,1.131565)"
         x1="-164.59187"
         y1="105.15539"
         x2="-154.1456"
         y2="3.6783011" />
      <radialGradient
         inkscape:collect="always"
         xlink:href="#linearGradient1780"
         id="radialGradient5568"
         gradientUnits="userSpaceOnUse"
         gradientTransform="matrix(-0.663014,1.058409,1.330757,0.590372,-891.7907,666.4254)"
         cx="-446.72464"
         cy="218.60974"
         fx="-446.72464"
         fy="218.60974"
         r="308.80975" />
      <linearGradient
         inkscape:collect="always"
         xlink:href="#linearGradient10630"
         id="linearGradient4391"
         gradientUnits="userSpaceOnUse"
         gradientTransform="matrix(0.437171,-0.479724,0.614848,0.55753,723.0732,-61.92042)"
         x1="-164.59187"
         y1="105.15539"
         x2="-154.1456"
         y2="3.6783011" />
    </defs>
    <linearGradient
       gradientUnits="userSpaceOnUse"
       y2="5.8441596"
       x2="-343.45184"
       y1="846.29108"
       x1="921.25916"
       id="linearGradient2329"
       xlink:href="#linearGradient2331"
       inkscape:collect="always" />
    <linearGradient
       id="linearGradient2331">
      <stop
         id="stop2333"
         offset="0"
         style="stop-color:#7d7d7d;stop-opacity:1;" />
      <stop
         id="stop2335"
         offset="1"
         style="stop-color:#f5f5f5;stop-opacity:1;" />
    </linearGradient>
  </defs>
  <sodipodi:namedview
     id="base"
     pagecolor="#ffffff"
     bordercolor="#666666"
     borderopacity="1.0"
     inkscape:pageopacity="0.0"
     inkscape:pageshadow="2"
     inkscape:zoom="14.782951"
     inkscape:cx="19.340529"
     inkscape:cy="15.082226"
     inkscape:current-layer="g1160"
     inkscape:window-width="860"
     inkscape:window-height="767"
     inkscape:window-x="17"
     inkscape:window-y="62" />
  <metadata
     id="metadata4">
    <rdf:RDF>
      <cc:Work
         rdf:about="">
        <dc:format>image/svg+xml</dc:format>
        <dc:type
           rdf:resource="http://purl.org/dc/dcmitype/StillImage" />
      </cc:Work>
    </rdf:RDF>
  </metadata>
  <g
     id="g1160"
     inkscape:groupmode="layer"
     inkscape:label="Layer 1"
     style="display:inline">
    <g
       id="layer1"
       inkscape:label="Calque 1"
       transform="matrix(1.83983e-2,0,0,1.850609e-2,9.960525,11.09431)">
      <g
         id="g1313">
        <path
           id="path5489"
           d="M -495.90894,991.82542 L -160.44054,1104.367 C -160.44054,1104.367 582.02686,1067.5012 884.88398,953.21553 L 881.03118,-35.525621 L 815.54891,-245.67877 C 815.54891,-245.67877 720.96316,-384.57998 688.22206,-399.03804 C 655.48086,-413.4961 495.41286,-460.48902 495.41286,-460.48902 L 168.00096,-541.10384 L 91.604959,-560.62469 L 0.65715936,-542.74295 L -68.917741,-522.38239 L -140.76664,-480.07517 L -207.15834,-429.36156 L -323.34414,-305.79782 L -464.28764,-3.0331466"
           style="fill:url(#linearGradient2329);fill-opacity:1;fill-rule:evenodd;stroke:#000000;stroke-width:0.44152708pt;stroke-linecap:butt;stroke-linejoin:miter;stroke-opacity:1"
           sodipodi:nodetypes="cccccsccccccccc" />
        <path
           sodipodi:nodetypes="cccccccccccccccccccccccccccccccccccccccccccccccccccczcccccccccccccc"
           id="path5434"
           d="M 127.74416,-587.94343 C 47.810164,-594.41279 -23.03741,-557.42476 -90.092493,-526.96615 C -232.15721,-457.55389 -339.54317,-344.57745 -413.85998,-207.55164 C -450.30454,-140.14182 -503.37721,-10.89332 -507.84072,278.97313 C -510.23574,428.69079 -512.57091,578.44197 -517.16622,727.85892 C -518.65468,756.7794 -517.9732,786.40284 -521.13096,814.89415 C -522.44246,825.83262 -523.34896,836.92438 -524.25805,847.96948 C -525.97258,870.55185 -530.22885,978.16005 -530.51231,1000.9605 C -530.23286,1003.8419 -530.48719,1001.3081 -530.28895,1003.3871 L -530.28895,1003.4414 C -530.1371,1005.0344 -530.23015,1004.1478 -530.12143,1005.3151 L -527.6644,1004.4001 C -469.3748,1025.943 -382.8986,1056.2531 -323.50881,1075.4788 C -279.21658,1089.6992 -234.92269,1103.7248 -190.49503,1117.3062 C -190.52823,1117.6688 -190.57342,1118.0222 -190.60664,1118.3843 L -188.42891,1117.9823 C -187.47888,1118.2727 -186.5311,1118.5688 -185.58095,1118.8579 L -181.61619,1116.6447 C -181.61619,1116.6447 -8.2488802,1105.6742 68.887559,1099.9854 C 228.99861,1087.1753 389.46758,1074.6179 546.5535,1048.8495 C 607.98417,1038.2442 776.72617,1000.248 835.30859,981.53235 L 915.2736,959.14518 C 907.60586,930.39702 910.55343,458.50723 908.06973,265.24457 C 908.6403,156.2484 907.79456,46.878848 914.49144,-61.244722 L 912.92792,-60.662329 L 913.37465,-60.937871 C 912.75664,-60.833157 913.01419,-60.875048 912.42532,-60.775207 C 914.01136,-145.837 882.90273,-186.48808 851.61422,-267.03732 C 798.63353,-383.94042 703.69694,-463.56896 582.962,-482.23896 L 588.71364,-483.972 C 554.03404,-486.87821 366.46975,-521.07473 331.89978,-529.24709 C 284.07822,-540.20876 236.44383,-553.525 189.95131,-571.29227 L 127.74416,-587.94343 z M -530.12143,1005.3151 L -530.51231,1005.4339 C -530.50675,1004.1523 -528.54444,1022.2391 -530.12143,1005.3151 z M -158.16289,462.49688 C -163.33242,667.55531 -169.44353,863.02453 -186.08354,1064.6338 C -211.52597,1056.9777 -236.96136,1049.1393 -262.30683,1041.011 C -319.53933,1022.431 -402.71221,995.5039 -458.30959,966.7323 C -457.78681,938.16287 -454.09294,842.43383 -451.94367,821.11791 C -450.73441,810.14395 -449.50756,730.86178 -449.70999,702.18954 C -451.02212,552.9138 -449.55488,403.92969 -445.41022,255.33914 C -442.886,181.02279 -441.23577,106.00248 -430.13768,3.7345045 C -413.04515,-97.628325 -369.93982,-171.84386 -336.30773,-235.36484 C -266.46253,-365.70407 -159.95503,-455.27548 -27.583905,-523.32978 C 24.107301,-540.35454 53.533096,-552.05519 77.096314,-549.25154 L 77.710516,-549.61655 C 93.583895,-546.54244 109.23816,-540.23701 124.67299,-534.84254 C 171.55973,-517.5825 219.32218,-503.90426 267.29154,-492.06506 C 286.75797,-487.10963 340.3136,-476.74893 390.19805,-467.93804 C 303.00698,-467.46597 156.51996,-446.4578 -20.206565,-204.51129 C -77.34201,-122.07471 -136.71499,-30.759532 -143.58829,55.349204 M 841.73032,-22.171657 C 847.32096,81.209689 848.61735,184.39462 850.10642,287.43281 C 855.05034,482.52589 845.33168,675.93251 848.87801,870.84588 C 849.20665,895.39824 846.03892,927.60595 847.64946,955.14386 C 771.17171,976.36242 654.66543,1002.8487 604.46093,1011.9809 C 446.93716,1039.3627 285.83554,1053.2699 124.67299,1065.2714 C 42.287078,1070.854 -42.359592,1075.8593 -124.37899,1079.481 C -114.9794,866.92472 -108.83213,653.89815 -101.42829,441.03869 C -97.786955,331.24825 -95.841039,206.38609 -86.49064,83.217464 C -61.027309,-44.297358 5.4645145,-142.96187 67.826632,-232.69297 C 192.94915,-392.32781 289.87193,-446.84631 475.18842,-451.75387 C 492.87783,-451.67639 510.11671,-450.34078 526.8416,-447.78178 C 643.91526,-429.86896 736.21977,-352.76646 787.73178,-239.15322 C 816.5456,-164.00211 848.23101,-122.89945 843.51721,-49.183906"
           style="fill:#000000;fill-opacity:1;fill-rule:nonzero;stroke:none;stroke-width:1pt;stroke-linecap:butt;stroke-linejoin:miter;stroke-opacity:1" />
      </g>
    </g>
    <g
       inkscape:label="Layer 1"
       id="g29199"
       transform="matrix(-0.80024,0,0,0.80024,285.9809,-107.4224)" />
    <g
       id="g29315"
       inkscape:label="Layer 1"
       transform="matrix(-0.80024,0,0,0.80024,1443.382,225.5088)" />
    <g
       inkscape:label="Layer 1"
       id="g29317"
       transform="matrix(-0.80024,0,0,0.80024,2110.599,193.0225)" />
    <g
       inkscape:label="Layer 1"
       id="g3589"
       transform="matrix(-0.757324,0,0,0.76036,256.5903,-88.23771)" />
    <g
       id="g3591"
       inkscape:label="Layer 1"
       transform="matrix(-0.757324,0,0,0.76036,1351.92,228.1018)" />
    <g
       inkscape:label="Layer 1"
       id="g3593"
       transform="matrix(-0.757324,0,0,0.76036,1983.356,197.2345)" />
    <g
       inkscape:label="Layer 1"
       id="g2916"
       transform="matrix(-0.80024,0,0,0.80024,288.3485,-93.75804)" />
    <g
       id="g2918"
       inkscape:label="Layer 1"
       transform="matrix(-0.80024,0,0,0.80024,1445.75,239.1732)" />
    <g
       inkscape:label="Layer 1"
       id="g2920"
       transform="matrix(-0.80024,0,0,0.80024,2112.967,206.6869)" />
    <g
       inkscape:label="Layer 1"
       id="g2922"
       transform="matrix(-0.757324,0,0,0.76036,258.9579,-74.57333)" />
    <g
       id="g2924"
       inkscape:label="Layer 1"
       transform="matrix(-0.757324,0,0,0.76036,1354.288,241.7662)" />
    <g
       inkscape:label="Layer 1"
       id="g2926"
       transform="matrix(-0.757324,0,0,0.76036,1985.724,210.8989)" />
    <g
       id="g2270"
       transform="matrix(1.061086,0,0,1.061086,-0.935408,3.101314)">
      <path
         sodipodi:nodetypes="ccc"
         id="path1319"
         d="M 15.36013,13.784689 C 15.36013,13.784689 13.222431,11.199537 13.464419,8.8435687 C 16.18843,11.344544 18.264641,11.189176 18.264641,11.189176"
         style="fill:#2f2f2f;fill-opacity:1;fill-rule:evenodd;stroke:#000000;stroke-width:0.80166674;stroke-linecap:round;stroke-linejoin:round;stroke-miterlimit:4;stroke-dasharray:none;stroke-opacity:1" />
      <path
         sodipodi:nodetypes="ccccs"
         id="path1317"
         d="M 16.616782,13.579569 C 14.025869,14.893641 12.838283,15.093088 9.9350278,14.436136 C 10.822736,17.149242 19.398714,24.680734 23.010701,14.634846 C 23.427994,13.474244 23.986391,9.978792 24.481366,8.5714447 C 23.941728,9.39529 21.026536,11.666202 18.334043,11.253133"
         style="fill:#616161;fill-opacity:1;fill-rule:evenodd;stroke:#000000;stroke-width:0.80166674;stroke-linecap:round;stroke-linejoin:round;stroke-miterlimit:4;stroke-dasharray:none;stroke-opacity:1" />
      <g
         transform="matrix(0.302562,1.957591e-2,-1.662906e-2,0.291578,-116.0945,-18.6572)"
         id="g47011">
        <path
           id="path47013"
           d="M 454.75697,75.928206 C 454.75697,80.949126 452.03777,85.024066 448.68733,85.024066 C 445.33689,85.024066 442.6177,80.949126 442.6177,75.928206 C 442.6177,70.907286 445.33689,66.832336 448.68733,66.832336 C 452.03777,66.832336 454.75697,70.907286 454.75697,75.928206 z "
           style="fill:#000000;fill-opacity:1;fill-rule:nonzero;stroke:#0f0f0f;stroke-width:0;stroke-miterlimit:4;stroke-opacity:1" />
        <path
           id="path47015"
           d="M 444.89698,77.010076 C 444.89698,80.502716 442.81836,83.337336 440.25723,83.337336 C 437.69608,83.337336 435.61748,80.502716 435.61748,77.010076 C 435.61748,73.517426 437.69608,70.682816 440.25723,70.682816 C 442.81836,70.682816 444.89698,73.517426 444.89698,77.010076 z "
           style="fill:#000000;fill-opacity:1;fill-rule:nonzero;stroke:#0f0f0f;stroke-width:0;stroke-miterlimit:4;stroke-opacity:1" />
        <path
           id="path47017"
           d="M 443.64742,77.200376 C 443.64742,79.800806 442.10915,81.911286 440.21376,81.911286 C 438.31839,81.911286 436.78011,79.800806 436.78011,77.200376 C 436.78011,74.599956 438.31839,72.489476 440.21376,72.489476 C 442.10915,72.489476 443.64742,74.599956 443.64742,77.200376 z "
           style="fill:#ffffff;fill-opacity:1;fill-rule:nonzero;stroke:#0f0f0f;stroke-width:0;stroke-miterlimit:4;stroke-opacity:1" />
        <path
           id="path47019"
           d="M 453.00501,76.587556 C 452.59149,80.602256 450.08083,83.569266 447.40087,83.210336 C 444.7209,82.851406 442.88145,79.301786 443.29498,75.287086 C 443.70849,71.272396 446.21914,68.305396 448.89911,68.664326 C 451.57907,69.023246 453.41852,72.572866 453.00501,76.587556 z "
           style="fill:#ffffff;fill-opacity:1;fill-rule:nonzero;stroke:#0f0f0f;stroke-width:0;stroke-miterlimit:4;stroke-opacity:1" />
        <path
           id="path47021"
           d="M 450.11587,78.380266 C 450.11587,80.047796 448.76966,81.401166 447.11092,81.401166 C 445.45219,81.401166 444.10598,80.047796 444.10598,78.380266 C 444.10598,76.712736 445.45219,75.359376 447.11092,75.359376 C 448.76966,75.359376 450.11587,76.712736 450.11587,78.380266 z "
           style="fill:#000000;fill-opacity:1;fill-rule:nonzero;stroke:#0f0f0f;stroke-width:0;stroke-miterlimit:4;stroke-opacity:1" />
        <path
           id="path47023"
           d="M 443.01269,78.415036 C 443.01269,80.082566 441.66648,81.435936 440.00774,81.435936 C 438.34901,81.435936 437.0028,80.082566 437.0028,78.415036 C 437.0028,76.747506 438.34901,75.394146 440.00774,75.394146 C 441.66648,75.394146 443.01269,76.747506 443.01269,78.415036 z "
           style="fill:#000000;fill-opacity:1;fill-rule:nonzero;stroke:#0f0f0f;stroke-width:0;stroke-miterlimit:4;stroke-opacity:1;display:inline" />
      </g>
      <g
         transform="matrix(-1.337388,7.292754e-2,6.609676e-2,1.212121,43.51019,0.227213)"
         id="g26871"
         style="display:inline">
        <path
           sodipodi:type="arc"
           style="opacity:1;fill:#000000;fill-opacity:1;stroke:none;stroke-width:2.375;stroke-miterlimit:4;stroke-dasharray:none;stroke-opacity:1"
           id="path26873"
           sodipodi:cx="-15.733945"
           sodipodi:cy="15.477064"
           sodipodi:rx="5.7155962"
           sodipodi:ry="5.7155962"
           d="M -20.812001,12.853825 A 5.7155962,5.7155962 0 1 1 -20.816491,12.862535"
           sodipodi:start="3.6184187"
           sodipodi:end="9.8998895"
           sodipodi:open="true"
           transform="matrix(0.311393,0,0,0.311396,29.70527,6.025865)" />
        <path
           sodipodi:type="arc"
           style="opacity:1;color:#000000;fill:#ffffff;fill-opacity:1;fill-rule:nonzero;stroke:none;stroke-width:0.87900001;stroke-linecap:butt;stroke-linejoin:miter;marker:none;marker-start:none;marker-mid:none;marker-end:none;stroke-miterlimit:4;stroke-dasharray:none;stroke-dashoffset:0;stroke-opacity:1;visibility:visible;display:inline;overflow:visible"
           id="path26875"
           sodipodi:cx="29.808969"
           sodipodi:cy="9.19135"
           sodipodi:rx="1.7235727"
           sodipodi:ry="1.9058738"
           d="M 28.277651,8.3166272 A 1.7235727,1.9058738 0 1 1 28.276297,8.3195316"
           sodipodi:start="3.6184187"
           sodipodi:end="9.8998895"
           sodipodi:open="true"
           transform="matrix(0.245588,0,0,0.219791,18.21059,8.094352)" />
      </g>
      <path
         sodipodi:nodetypes="ccccc"
         id="path27623"
         d="M 20.253097,16.69908 C 20.154407,16.964778 19.278496,17.750866 18.51403,18.175591 C 18.237114,18.412209 19.051963,18.55736 19.421966,18.42117 C 19.950656,18.341737 21.27541,17.055286 21.256677,16.825556 C 21.051814,16.684325 20.584131,16.593259 20.253097,16.69908 z "
         style="fill:#000000;fill-opacity:1;fill-rule:nonzero;stroke:none;stroke-width:1px;stroke-linecap:butt;stroke-linejoin:miter;stroke-opacity:1" />
      <path
         sodipodi:nodetypes="ccccc"
         id="path12567"
         d="M 18.301254,9.269574 C 18.601792,9.1930697 19.741748,9.7884253 20.48274,10.519881 C 20.83157,10.717747 20.622627,9.4534449 20.331391,9.0431792 C 20.027147,8.3636044 18.208267,7.5422459 17.993108,7.754829 C 17.943875,8.1575919 18.056262,8.8895278 18.301254,9.269574 z "
         style="fill:#000000;fill-opacity:1;fill-rule:nonzero;stroke:none;stroke-width:1px;stroke-linecap:butt;stroke-linejoin:miter;stroke-opacity:1;display:inline" />
      <use
         style="fill:#000000;fill-opacity:1"
         height="42"
         width="28"
         transform="matrix(-0.885804,-1.521001e-2,2.825828e-2,0.716481,32.75501,3.45965)"
         id="use12569"
         xlink:href="#path12567"
         y="0"
         x="0" />
    </g>
  </g>
</svg>
