<?xml version="1.0" encoding="UTF-8" standalone="no"?>
<!-- Created with Inkscape (http://www.inkscape.org/) -->
<svg
   xmlns:dc="http://purl.org/dc/elements/1.1/"
   xmlns:cc="http://web.resource.org/cc/"
   xmlns:rdf="http://www.w3.org/1999/02/22-rdf-syntax-ns#"
   xmlns:svg="http://www.w3.org/2000/svg"
   xmlns="http://www.w3.org/2000/svg"
   xmlns:xlink="http://www.w3.org/1999/xlink"
   xmlns:sodipodi="http://inkscape.sourceforge.net/DTD/sodipodi-0.dtd"
   xmlns:inkscape="http://www.inkscape.org/namespaces/inkscape"
   width="48.000000px"
   height="48.000000px"
   id="svg1"
   sodipodi:version="0.32"
   inkscape:version="0.43"
   sodipodi:docbase="/home/yekcim/Desktop/SVG/Skins/wilberteam"
   sodipodi:docname="flag.svg"
   inkscape:export-filename="/home/yekcim/Desktop/flag.png"
   inkscape:export-xdpi="72.000000"
   inkscape:export-ydpi="72.000000"
   inkscape:output_extension="org.inkscape.output.svg.inkscape">
  <defs
     id="defs3">
    <defs
       id="defs1062">
      <linearGradient
         inkscape:collect="always"
         id="linearGradient10630">
        <stop
           style="stop-color:#616161;stop-opacity:1;"
           offset="0"
           id="stop10631" />
        <stop
           style="stop-color:#616161;stop-opacity:0;"
           offset="1"
           id="stop10632" />
      </linearGradient>
      <linearGradient
         inkscape:collect="always"
         id="linearGradient10560">
        <stop
           style="stop-color:#000000;stop-opacity:1;"
           offset="0"
           id="stop10561" />
        <stop
           style="stop-color:#000000;stop-opacity:0;"
           offset="1"
           id="stop10562" />
      </linearGradient>
      <linearGradient
         id="linearGradient13777">
        <stop
           offset="0.0000000"
           style="stop-color:#d17d00;stop-opacity:1.0000000;"
           id="stop13779" />
        <stop
           offset="1.0000000"
           style="stop-color:#a7b135;stop-opacity:0.0000000;"
           id="stop13778" />
      </linearGradient>
      <linearGradient
         id="linearGradient11847">
        <stop
           offset="0.0000000"
           style="stop-color:#000000;stop-opacity:1.0000000;"
           id="stop11849" />
        <stop
           offset="1.0000000"
           style="stop-color:#000000;stop-opacity:0.0000000;"
           id="stop11848" />
      </linearGradient>
      <linearGradient
         id="linearGradient6187">
        <stop
           style="stop-color:#2e1b0b;stop-opacity:1.0000000;"
           offset="0.0000000"
           id="stop6188" />
        <stop
           style="stop-color:#431e00;stop-opacity:0;"
           offset="1"
           id="stop6189" />
      </linearGradient>
      <linearGradient
         inkscape:collect="always"
         id="linearGradient4909">
        <stop
           style="stop-color:#000000;stop-opacity:1;"
           offset="0"
           id="stop4910" />
        <stop
           style="stop-color:#000000;stop-opacity:0;"
           offset="1"
           id="stop4911" />
      </linearGradient>
      <linearGradient
         id="linearGradient1780">
        <stop
           style="stop-color:#454545;stop-opacity:1.0000000;"
           offset="0.0000000"
           id="stop1781" />
        <stop
           style="stop-color:#ffffff;stop-opacity:0;"
           offset="1"
           id="stop1782" />
      </linearGradient>
      <linearGradient
         id="linearGradient3869">
        <stop
           offset="0.0000000"
           style="stop-color:#d2dd2e;stop-opacity:1.0000000;"
           id="stop3872" />
        <stop
           offset="0.76146787"
           style="stop-color:#b3b96d;stop-opacity:0.65555555;"
           id="stop3871" />
        <stop
           offset="1.0000000"
           style="stop-color:#b1b952;stop-opacity:0.0000000;"
           id="stop3870" />
      </linearGradient>
      <linearGradient
         inkscape:collect="always"
         xlink:href="#linearGradient9217"
         id="linearGradient3799"
         gradientUnits="userSpaceOnUse"
         gradientTransform="matrix(0.112563,0.000000,0.000000,0.115364,26.43402,157.1761)"
         x1="4373.3052"
         y1="319.33466"
         x2="96.982727"
         y2="2708.2139" />
      <linearGradient
         inkscape:collect="always"
         xlink:href="#linearGradient7337"
         id="linearGradient3800"
         gradientUnits="userSpaceOnUse"
         gradientTransform="matrix(0.230667,0.000000,0.000000,7.644947e-2,26.55186,129.5549)"
         x1="862.16510"
         y1="2479.5938"
         x2="1523.3719"
         y2="2479.5938" />
      <linearGradient
         inkscape:collect="always"
         xlink:href="#linearGradient5442"
         id="linearGradient3801"
         gradientUnits="userSpaceOnUse"
         gradientTransform="matrix(0.162855,0.000000,0.000000,7.648058e-2,75.52973,161.8049)"
         x1="580.22791"
         y1="2173.3171"
         x2="1782.0374"
         y2="1630.2036" />
      <radialGradient
         inkscape:collect="always"
         xlink:href="#linearGradient5442"
         id="radialGradient3802"
         gradientUnits="userSpaceOnUse"
         gradientTransform="matrix(0.159978,0.000000,0.000000,7.785591e-2,363.0923,173.8583)"
         cx="-606.79681"
         cy="1573.4399"
         fx="-606.79681"
         fy="1573.4399"
         r="739.70477" />
      <linearGradient
         inkscape:collect="always"
         xlink:href="#linearGradient21707"
         id="linearGradient3803"
         gradientUnits="userSpaceOnUse"
         gradientTransform="scale(0.659854,1.515487)"
         x1="4848.5972"
         y1="3945.1116"
         x2="5625.4653"
         y2="1720.9402" />
      <linearGradient
         inkscape:collect="always"
         xlink:href="#linearGradient7337"
         id="linearGradient3804"
         gradientUnits="userSpaceOnUse"
         gradientTransform="matrix(0.236634,0.000000,0.000000,0.208284,-2451.443,4783.687)"
         x1="-7797.7422"
         y1="5021.4731"
         x2="-352.84012"
         y2="1184.9034" />
      <linearGradient
         inkscape:collect="always"
         xlink:href="#linearGradient7337"
         id="linearGradient3805"
         gradientUnits="userSpaceOnUse"
         gradientTransform="matrix(0.236634,0.000000,0.000000,0.208284,-2451.443,4783.687)"
         x1="-7797.7422"
         y1="5021.4731"
         x2="-352.84012"
         y2="1184.9034" />
      <defs
         id="defs3745">
        <linearGradient
           id="linearGradient22333"
           x1="0.0000000"
           y1="0.50000000"
           x2="1.0000000"
           y2="0.50000000"
           gradientUnits="objectBoundingBox"
           spreadMethod="pad"
           xlink:href="#linearGradient13777" />
        <linearGradient
           id="linearGradient21707">
          <stop
             style="stop-color:#ffffff;stop-opacity:1.0000000;"
             offset="0.0000000"
             id="stop21708" />
          <stop
             style="stop-color:#a7b135;stop-opacity:0;"
             offset="1"
             id="stop21709" />
        </linearGradient>
        <linearGradient
           inkscape:collect="always"
           id="linearGradient9217"
           x1="0.0000000"
           y1="0.50000000"
           x2="1.0000000"
           y2="0.50000000"
           gradientUnits="objectBoundingBox"
           spreadMethod="pad"
           xlink:href="#linearGradient11847" />
        <linearGradient
           id="linearGradient8584">
          <stop
             style="stop-color:#000000;stop-opacity:1.0000000;"
             offset="0.0000000"
             id="stop8585" />
          <stop
             style="stop-color:#cece4c;stop-opacity:0;"
             offset="1"
             id="stop8586" />
        </linearGradient>
        <linearGradient
           id="linearGradient7337">
          <stop
             style="stop-color:#b1b12f;stop-opacity:1.0000000;"
             offset="0.0000000"
             id="stop7338" />
          <stop
             style="stop-color:#cece4c;stop-opacity:0;"
             offset="1"
             id="stop7339" />
        </linearGradient>
        <linearGradient
           id="linearGradient5442"
           x1="0.0000000"
           y1="0.50000000"
           x2="1.0000000"
           y2="0.50000000"
           gradientUnits="objectBoundingBox"
           spreadMethod="pad"
           xlink:href="#linearGradient3869" />
      </defs>
      <sodipodi:namedview
         id="namedview3772"
         pagecolor="#ffffff"
         bordercolor="#666666"
         borderopacity="1.0"
         inkscape:pageopacity="0.0"
         inkscape:pageshadow="2"
         inkscape:zoom="0.80057989"
         inkscape:cx="297.63780"
         inkscape:cy="420.94487"
         inkscape:current-layer="layer1"
         inkscape:window-width="1440"
         inkscape:window-height="851"
         inkscape:window-x="0"
         inkscape:window-y="27"
         showguides="true"
         inkscape:guide-bbox="true" />
      <metadata
         id="metadata3773">
        <rdf:RDF>
          <cc:Work
             rdf:about="">
            <dc:format>image/svg+xml</dc:format>
            <dc:type
               rdf:resource="http://purl.org/dc/dcmitype/StillImage" />
          </cc:Work>
        </rdf:RDF>
      </metadata>
      <linearGradient
         inkscape:collect="always"
         xlink:href="#linearGradient4909"
         id="linearGradient6167"
         gradientUnits="userSpaceOnUse"
         gradientTransform="scale(0.891889,1.121216)"
         x1="-148.77991"
         y1="106.31860"
         x2="-160.14931"
         y2="-66.932083" />
      <linearGradient
         inkscape:collect="always"
         xlink:href="#linearGradient10560"
         id="linearGradient10563"
         gradientTransform="matrix(0.915477,0.127968,-0.149762,1.071392,19.54851,-8.453410)"
         x1="698.54480"
         y1="69.852913"
         x2="758.31232"
         y2="359.09653"
         gradientUnits="userSpaceOnUse" />
      <linearGradient
         inkscape:collect="always"
         xlink:href="#linearGradient10560"
         id="linearGradient10578"
         gradientUnits="userSpaceOnUse"
         gradientTransform="matrix(0.915477,0.127968,-0.149762,1.071392,0.000000,0.000000)"
         x1="647.37115"
         y1="96.894905"
         x2="770.59186"
         y2="342.74301" />
      <linearGradient
         inkscape:collect="always"
         xlink:href="#linearGradient4909"
         id="linearGradient10604"
         gradientUnits="userSpaceOnUse"
         gradientTransform="scale(0.891889,1.121216)"
         x1="-148.77991"
         y1="106.31860"
         x2="-160.14931"
         y2="-66.932083" />
      <linearGradient
         inkscape:collect="always"
         xlink:href="#linearGradient10630"
         id="linearGradient10633"
         gradientTransform="scale(0.883732,1.131565)"
         x1="-164.59187"
         y1="105.15539"
         x2="-154.14560"
         y2="3.6783011"
         gradientUnits="userSpaceOnUse" />
      <linearGradient
         inkscape:collect="always"
         xlink:href="#linearGradient10630"
         id="linearGradient10647"
         gradientUnits="userSpaceOnUse"
         gradientTransform="scale(0.883732,1.131565)"
         x1="-164.59187"
         y1="105.15539"
         x2="-154.14560"
         y2="3.6783011" />
      <radialGradient
         inkscape:collect="always"
         xlink:href="#linearGradient1780"
         id="radialGradient5568"
         gradientUnits="userSpaceOnUse"
         gradientTransform="matrix(-0.663014,1.058409,1.330757,0.590372,-891.7907,666.4254)"
         cx="-446.72464"
         cy="218.60974"
         fx="-446.72464"
         fy="218.60974"
         r="308.80975" />
      <linearGradient
         inkscape:collect="always"
         xlink:href="#linearGradient10630"
         id="linearGradient4391"
         gradientUnits="userSpaceOnUse"
         gradientTransform="matrix(0.437171,-0.479724,0.614848,0.557530,723.0732,-61.92042)"
         x1="-164.59187"
         y1="105.15539"
         x2="-154.14560"
         y2="3.6783011" />
    </defs>
    <linearGradient
       id="linearGradient15518">
      <stop
         id="stop15520"
         offset="0.0000000"
         style="stop-color:#dfe39e;stop-opacity:1.0000000;" />
      <stop
         id="stop15525"
         offset="1"
         style="stop-color:#dfe39e;stop-opacity:0;" />
    </linearGradient>
    <radialGradient
       inkscape:collect="always"
       xlink:href="#linearGradient15518"
       id="radialGradient24424"
       gradientUnits="userSpaceOnUse"
       gradientTransform="matrix(-1.111889,-0.265705,0.231968,-1.081326,31.62778,66.57469)"
       cx="18.282640"
       cy="29.646910"
       fx="18.282640"
       fy="29.646910"
       r="4.0840964" />
  </defs>
  <sodipodi:namedview
     id="base"
     pagecolor="#ffffff"
     bordercolor="#666666"
     borderopacity="1.0"
     inkscape:pageopacity="0.0"
     inkscape:pageshadow="2"
     inkscape:zoom="5.6568542"
     inkscape:cx="44.146092"
     inkscape:cy="0.44726050"
     inkscape:current-layer="g1160"
     inkscape:window-width="1440"
     inkscape:window-height="826"
     inkscape:window-x="0"
     inkscape:window-y="26" />
  <metadata
     id="metadata4">
    <rdf:RDF>
      <cc:Work
         rdf:about="">
        <dc:format>image/svg+xml</dc:format>
        <dc:type
           rdf:resource="http://purl.org/dc/dcmitype/StillImage" />
      </cc:Work>
    </rdf:RDF>
  </metadata>
  <g
     id="g1160"
     inkscape:groupmode="layer"
     inkscape:label="Layer 1"
     style="display:inline">
    <g
       inkscape:label="Layer 1"
       id="g29199"
       transform="matrix(-0.800240,0.000000,0.000000,0.800240,372.6259,-77.80494)" />
    <g
       id="g29315"
       inkscape:label="Layer 1"
       transform="matrix(-0.800240,0.000000,0.000000,0.800240,1530.027,255.1263)" />
    <g
       inkscape:label="Layer 1"
       id="g29317"
       transform="matrix(-0.800240,0.000000,0.000000,0.800240,2197.244,222.6400)" />
    <g
       inkscape:label="Layer 1"
       id="g3589"
       transform="matrix(-0.757324,0,0,0.76036,343.2353,-58.62023)" />
    <g
       id="g3591"
       inkscape:label="Layer 1"
       transform="matrix(-0.757324,0,0,0.76036,1438.565,257.7193)" />
    <g
       inkscape:label="Layer 1"
       id="g3593"
       transform="matrix(-0.757324,0,0,0.76036,2070.001,226.852)" />
    <g
       style="display:inline"
       id="g29091"
       transform="matrix(2.122499,-0.226564,0.226564,2.122499,-25.46600,1.124419)">
      <path
         sodipodi:nodetypes="cccccc"
         id="path29093"
         d="M 21.519970,35.683312 L 23.131539,37.051148 L 22.582651,40.358750 L 20.636428,40.436899 L 20.385593,40.138218 L 21.519970,35.683312 z "
         style="fill:#5c4f2d;fill-opacity:1.0000000;fill-rule:evenodd;stroke:none;stroke-width:0.39500001;stroke-linecap:round;stroke-linejoin:round;stroke-miterlimit:4.0000000;stroke-dasharray:none;stroke-opacity:1.0000000;display:inline" />
      <g
         id="g29095">
        <path
           style="fill:#5c4f2d;fill-opacity:1.0000000;fill-rule:evenodd;stroke:#000000;stroke-width:0.90875000;stroke-linecap:round;stroke-linejoin:round;stroke-miterlimit:4.0000000;stroke-dasharray:none;stroke-opacity:1.0000000;display:inline"
           d="M 20.515936,37.977022 C 15.368840,42.418180 24.259144,43.690449 24.259144,43.690449 C 24.259144,43.690449 28.829941,46.806573 29.178702,44.455213 C 29.706293,40.898168 23.150969,39.469575 23.150969,39.469575"
           id="path29097"
           sodipodi:nodetypes="ccsc" />
        <path
           style="fill:#5c4f2d;fill-opacity:1.0000000;fill-rule:evenodd;stroke:#000000;stroke-width:0.90875000;stroke-linecap:round;stroke-linejoin:round;stroke-miterlimit:4.0000000;stroke-dasharray:none;stroke-opacity:1.0000000;display:inline"
           d="M 21.321749,34.760332 C 21.321749,34.760332 21.402472,37.784020 20.297500,39.799582"
           id="path29099"
           sodipodi:nodetypes="cs" />
        <path
           style="fill:#5c4f2d;fill-opacity:1.0000000;fill-rule:evenodd;stroke:#000000;stroke-width:0.90875000;stroke-linecap:round;stroke-linejoin:round;stroke-miterlimit:4.0000000;stroke-dasharray:none;stroke-opacity:1.0000000;display:inline"
           d="M 22.621544,40.544733 C 22.621544,40.544733 22.431434,38.831505 23.307182,36.185076"
           id="path29101"
           sodipodi:nodetypes="cs" />
      </g>
    </g>
    <g
       id="g29072"
       transform="matrix(2.122499,-0.226564,0.226564,2.122499,-39.54635,3.640671)">
      <path
         sodipodi:nodetypes="cccccc"
         id="path29051"
         d="M 21.519970,35.683312 L 23.131539,37.051148 L 22.582651,40.358750 L 20.636428,40.436899 L 20.385593,40.138218 L 21.519970,35.683312 z "
         style="fill:#5c4f2d;fill-opacity:1.0000000;fill-rule:evenodd;stroke:none;stroke-width:0.39500001;stroke-linecap:round;stroke-linejoin:round;stroke-miterlimit:4.0000000;stroke-dasharray:none;stroke-opacity:1.0000000;display:inline" />
      <g
         id="g29067">
        <path
           style="fill:#5c4f2d;fill-opacity:1.0000000;fill-rule:evenodd;stroke:#000000;stroke-width:0.90875000;stroke-linecap:round;stroke-linejoin:round;stroke-miterlimit:4.0000000;stroke-dasharray:none;stroke-opacity:1.0000000;display:inline"
           d="M 20.515936,37.977022 C 15.368840,42.418180 24.259144,43.690449 24.259144,43.690449 C 24.259144,43.690449 28.829941,46.806573 29.178702,44.455213 C 29.706293,40.898168 23.150969,39.469575 23.150969,39.469575"
           id="path29049"
           sodipodi:nodetypes="ccsc" />
        <path
           style="fill:#5c4f2d;fill-opacity:1.0000000;fill-rule:evenodd;stroke:#000000;stroke-width:0.90875000;stroke-linecap:round;stroke-linejoin:round;stroke-miterlimit:4.0000000;stroke-dasharray:none;stroke-opacity:1.0000000;display:inline"
           d="M 21.321749,34.760332 C 21.321749,34.760332 21.402472,37.784020 20.297500,39.799582"
           id="path29053"
           sodipodi:nodetypes="cs" />
        <path
           style="fill:#5c4f2d;fill-opacity:1.0000000;fill-rule:evenodd;stroke:#000000;stroke-width:0.90875000;stroke-linecap:round;stroke-linejoin:round;stroke-miterlimit:4.0000000;stroke-dasharray:none;stroke-opacity:1.0000000;display:inline"
           d="M 22.621544,40.544733 C 22.621544,40.544733 22.431434,38.831505 23.307182,36.185076"
           id="path29055"
           sodipodi:nodetypes="cs" />
      </g>
    </g>
    <path
       style="fill:#5c4f2d;fill-opacity:1.0000000;fill-rule:evenodd;stroke:#000000;stroke-width:2.1345568;stroke-linecap:round;stroke-linejoin:round;stroke-miterlimit:4.0000000;stroke-dasharray:none;stroke-opacity:1.0000000;display:inline"
       d="M 22.462419,39.901992 C 27.786352,46.082514 38.139778,60.341562 39.088449,63.499404 C 37.786242,65.085967 36.004313,67.515373 35.630847,68.781931 C 34.965181,71.039415 36.348171,72.245195 37.879317,70.742407 C 38.761875,69.876193 39.727427,67.687555 40.519747,65.762212 C 41.145883,67.711564 41.957486,70.098353 42.900595,71.202267 C 44.429380,72.991730 46.227783,72.472397 45.803659,70.369327 C 45.540671,69.065277 44.094876,66.887403 42.853163,64.947106 C 44.538945,66.016643 46.675000,67.417452 48.119899,67.758217 C 50.410633,68.298467 51.552830,66.857729 49.967947,65.411720 C 49.046574,64.571082 46.856578,63.715236 44.848056,63.045096 L 26.715883,37.792625"
       id="path15532"
       sodipodi:nodetypes="ccsscsscsscc" />
    <path
       style="fill:#5c4f2d;fill-opacity:1.0000000;fill-rule:evenodd;stroke:none;stroke-width:0.92659229;stroke-linecap:butt;stroke-linejoin:miter;stroke-miterlimit:4.0000000;stroke-dasharray:none;stroke-opacity:1.0000000;display:inline"
       d="M 25.540309,32.268122 C 27.850348,27.668989 26.559253,18.696310 17.133094,28.787499 C 5.1343305,41.632793 2.7774295,80.703669 24.820392,78.950747 C 52.268043,78.732769 44.337579,53.135680 32.550790,49.225214 C 32.550790,49.225214 23.230273,36.867256 25.540309,32.268122 z "
       id="path3596"
       sodipodi:nodetypes="csccs" />
    <path
       sodipodi:type="arc"
       style="opacity:0.52873564;fill:url(#radialGradient24424);fill-opacity:1.0000000;stroke:none;stroke-width:1.0000000;stroke-linecap:round;stroke-linejoin:round;stroke-miterlimit:4.0000000;stroke-dasharray:none;stroke-opacity:1.0000000"
       id="path14760"
       sodipodi:cx="16.691525"
       sodipodi:cy="29.658926"
       sodipodi:rx="4.0840964"
       sodipodi:ry="4.5280199"
       d="M 20.775621 29.658926 A 4.0840964 4.5280199 0 1 1  12.607428,29.658926 A 4.0840964 4.5280199 0 1 1  20.775621 29.658926 z"
       transform="matrix(3.642666,0.000000,0.000000,3.415618,-31.96225,-37.25610)" />
    <path
       style="fill:none;fill-opacity:1.0000000;fill-rule:evenodd;stroke:#000000;stroke-width:2.1345570;stroke-linecap:round;stroke-linejoin:round;stroke-miterlimit:4.0000000;stroke-dasharray:none;stroke-opacity:1.0000000;display:inline"
       d="M 17.858642,26.951793 C 5.4555745,39.403964 0.075085244,79.936198 24.820392,78.950747 C 49.565698,77.965297 45.948465,51.903825 32.077000,49.130457 C 32.077000,49.130457 23.855956,35.615925 26.165993,31.016792 M 31.950745,49.067075 C 31.450082,49.178418 30.621966,48.969528 27.345496,50.556208"
       id="path3594"
       sodipodi:nodetypes="czcscc" />
    <path
       style="fill:#5c4f2d;fill-opacity:1.0000000;fill-rule:evenodd;stroke:#000000;stroke-width:2.1345568;stroke-linecap:round;stroke-linejoin:round;stroke-miterlimit:4.0000000;stroke-dasharray:none;stroke-opacity:1.0000000;display:inline"
       d="M 15.838806,38.496702 C 12.945505,46.123756 8.0837926,63.061218 8.2705217,66.353190 C 10.036243,67.399686 12.540668,69.074539 13.324203,70.137424 C 14.720760,72.031882 13.832670,73.637453 11.880379,72.747876 C 10.755072,72.235119 9.1001683,70.507776 7.6979919,68.968743 C 7.7751811,71.014731 7.8274300,73.535193 7.3179917,74.894807 C 6.4921914,77.098763 4.6245539,77.224785 4.3050041,75.103307 C 4.1068625,73.787841 4.7220227,71.247165 5.2264983,68.999475 C 4.0072929,70.580396 2.4780058,72.626437 1.2363370,73.440135 C -0.73220101,74.730171 -2.2977336,73.766092 -1.3019239,71.865788 C -0.72300726,70.761043 1.0430744,69.208785 2.7020081,67.893040 L 11.120708,37.966655"
       id="path8826"
       sodipodi:nodetypes="ccsscsscsscc" />
    <path
       style="fill:#000000;fill-opacity:1.0000000;fill-rule:nonzero;stroke:none;stroke-width:1.0000000pt;stroke-linecap:butt;stroke-linejoin:miter;stroke-opacity:1.0000000;display:inline"
       d="M 35.552938,63.056697 C 39.029892,63.147384 35.517671,60.809967 36.041002,63.470300 C 33.675300,64.338187 33.812926,63.689141 35.596180,64.516619 L 32.896337,63.421540 C 35.138838,64.814697 36.478898,66.455691 38.644688,64.855636 C 38.846835,62.235431 35.010901,60.154120 32.849880,61.725795 L 35.552938,63.056697 z "
       id="path3604" />
    <path
       style="fill:#2f2816;fill-opacity:1.0000000;fill-rule:evenodd;stroke:#000000;stroke-width:2.2081711;stroke-linecap:round;stroke-linejoin:round;stroke-miterlimit:4.0000000;stroke-dasharray:none;stroke-opacity:1.0000000"
       d="M 28.768754,17.959058 C 28.768754,17.959058 34.260540,10.528275 33.241635,4.0847388 C 26.124638,11.371937 20.390947,11.256001 20.390947,11.256001"
       id="path1319"
       sodipodi:nodetypes="ccc" />
    <path
       style="opacity:1.0000000;fill:#5c4f2d;fill-opacity:1.0000000;fill-rule:evenodd;stroke:#000000;stroke-width:2.2081711;stroke-linecap:round;stroke-linejoin:round;stroke-miterlimit:4.0000000;stroke-dasharray:none;stroke-opacity:1.0000000"
       d="M 25.281708,17.583369 C 32.604809,20.808998 35.901044,21.179442 43.787598,18.937143 C 41.752961,26.532378 19.295247,48.533122 7.8542121,21.444740 C 6.5324288,18.315218 4.4723773,8.7851121 2.8999311,4.9885946 C 4.5077065,7.1735561 12.866204,12.982231 20.209657,11.442315"
       id="path1317"
       sodipodi:nodetypes="ccccs" />
    <g
       id="g47011"
       transform="matrix(-0.829226,9.921903e-2,8.946682e-2,0.799460,385.4545,-90.98409)">
      <path
         style="fill:#000000;fill-opacity:1.0000000;fill-rule:nonzero;stroke:#0f0f0f;stroke-width:0.0000000;stroke-miterlimit:4.0000000;stroke-opacity:1.0000000"
         d="M 454.75697,75.928206 C 454.75697,80.949126 452.03777,85.024066 448.68733,85.024066 C 445.33689,85.024066 442.61770,80.949126 442.61770,75.928206 C 442.61770,70.907286 445.33689,66.832336 448.68733,66.832336 C 452.03777,66.832336 454.75697,70.907286 454.75697,75.928206 z "
         id="path47013" />
      <path
         style="fill:#000000;fill-opacity:1.0000000;fill-rule:nonzero;stroke:#0f0f0f;stroke-width:0.0000000;stroke-miterlimit:4.0000000;stroke-opacity:1.0000000"
         d="M 444.89698,77.010076 C 444.89698,80.502716 442.81836,83.337336 440.25723,83.337336 C 437.69608,83.337336 435.61748,80.502716 435.61748,77.010076 C 435.61748,73.517426 437.69608,70.682816 440.25723,70.682816 C 442.81836,70.682816 444.89698,73.517426 444.89698,77.010076 z "
         id="path47015" />
      <path
         style="fill:#ffffff;fill-opacity:1.0000000;fill-rule:nonzero;stroke:#0f0f0f;stroke-width:0.0000000;stroke-miterlimit:4.0000000;stroke-opacity:1.0000000"
         d="M 443.64742,77.200376 C 443.64742,79.800806 442.10915,81.911286 440.21376,81.911286 C 438.31839,81.911286 436.78011,79.800806 436.78011,77.200376 C 436.78011,74.599956 438.31839,72.489476 440.21376,72.489476 C 442.10915,72.489476 443.64742,74.599956 443.64742,77.200376 z "
         id="path47017" />
      <path
         style="fill:#ffffff;fill-opacity:1.0000000;fill-rule:nonzero;stroke:#0f0f0f;stroke-width:0.0000000;stroke-miterlimit:4.0000000;stroke-opacity:1.0000000"
         d="M 453.00501,76.587556 C 452.59149,80.602256 450.08083,83.569266 447.40087,83.210336 C 444.72090,82.851406 442.88145,79.301786 443.29498,75.287086 C 443.70849,71.272396 446.21914,68.305396 448.89911,68.664326 C 451.57907,69.023246 453.41852,72.572866 453.00501,76.587556 z "
         id="path47019" />
      <path
         style="fill:#000000;fill-opacity:1.0000000;fill-rule:nonzero;stroke:#0f0f0f;stroke-width:0.0000000;stroke-miterlimit:4.0000000;stroke-opacity:1.0000000"
         d="M 450.11587,78.380266 C 450.11587,80.047796 448.76966,81.401166 447.11092,81.401166 C 445.45219,81.401166 444.10598,80.047796 444.10598,78.380266 C 444.10598,76.712736 445.45219,75.359376 447.11092,75.359376 C 448.76966,75.359376 450.11587,76.712736 450.11587,78.380266 z "
         id="path47021" />
      <path
         style="fill:#000000;fill-opacity:1.0000000;fill-rule:nonzero;stroke:#0f0f0f;stroke-width:0.0000000;stroke-miterlimit:4.0000000;stroke-opacity:1.0000000;display:inline"
         d="M 443.01269,78.415036 C 443.01269,80.082566 441.66648,81.435936 440.00774,81.435936 C 438.34901,81.435936 437.00280,80.082566 437.00280,78.415036 C 437.00280,76.747506 438.34901,75.394146 440.00774,75.394146 C 441.66648,75.394146 443.01269,76.747506 443.01269,78.415036 z "
         id="path47023" />
    </g>
    <g
       style="display:inline"
       id="g26871"
       transform="matrix(3.689274,0.000000,0.000000,3.343717,-50.68818,-15.10738)">
      <path
         transform="matrix(0.311393,0.000000,0.000000,0.311396,29.70527,6.025865)"
         sodipodi:open="true"
         sodipodi:end="9.8998895"
         sodipodi:start="3.6184187"
         d="M -20.812001,12.853825 A 5.7155962,5.7155962 0 1 1 -20.816491,12.862535"
         sodipodi:ry="5.7155962"
         sodipodi:rx="5.7155962"
         sodipodi:cy="15.477064"
         sodipodi:cx="-15.733945"
         id="path26873"
         style="opacity:1.0000000;fill:#000000;fill-opacity:1.0000000;stroke:none;stroke-width:2.3750000;stroke-miterlimit:4.0000000;stroke-dasharray:none;stroke-opacity:1.0000000"
         sodipodi:type="arc" />
      <path
         transform="matrix(0.245588,0.000000,0.000000,0.219791,18.21059,8.094352)"
         sodipodi:open="true"
         sodipodi:end="9.8998895"
         sodipodi:start="3.6184187"
         d="M 28.277651,8.3166272 A 1.7235727,1.9058738 0 1 1 28.276297,8.3195316"
         sodipodi:ry="1.9058738"
         sodipodi:rx="1.7235727"
         sodipodi:cy="9.1913500"
         sodipodi:cx="29.808969"
         id="path26875"
         style="opacity:1.0000000;color:#000000;fill:#ffffff;fill-opacity:1.0000000;fill-rule:nonzero;stroke:none;stroke-width:0.87900001;stroke-linecap:butt;stroke-linejoin:miter;marker:none;marker-start:none;marker-mid:none;marker-end:none;stroke-miterlimit:4.0000000;stroke-dasharray:none;stroke-dashoffset:0.0000000;stroke-opacity:1.0000000;visibility:visible;display:inline;overflow:visible"
         sodipodi:type="arc" />
    </g>
    <path
       style="fill:#000000;fill-opacity:1.0000000;fill-rule:nonzero;stroke:none;stroke-width:1.0000000px;stroke-linecap:butt;stroke-linejoin:miter;stroke-opacity:1.0000000"
       d="M 15.748286,26.708605 C 16.059570,27.424578 18.586563,29.455259 20.752840,30.508763 C 21.549954,31.118025 19.330574,31.639455 18.292494,31.320371 C 16.826479,31.181193 12.989951,27.841636 13.007019,27.206979 C 13.549290,26.787814 14.821943,26.467206 15.748286,26.708605 z "
       id="path27623"
       sodipodi:nodetypes="ccccc" />
    <path
       style="fill:#000000;fill-opacity:1.0000000;fill-rule:nonzero;stroke:none;stroke-width:1.0000000px;stroke-linecap:butt;stroke-linejoin:miter;stroke-opacity:1.0000000;display:inline"
       d="M 20.002349,5.9818394 C 19.164279,5.8164966 16.118246,7.6249253 14.189933,9.7478466 C 13.260188,10.344370 13.645247,6.8357115 14.384728,5.6636424 C 15.119596,3.7489171 19.999038,1.2170689 20.622691,1.7694859 C 20.818507,2.8698570 20.619172,4.8998209 20.002349,5.9818394 z "
       id="path12567"
       sodipodi:nodetypes="ccccc" />
    <use
       x="0.0000000"
       y="0.0000000"
       xlink:href="#path12567"
       id="use12569"
       transform="matrix(-0.881763,0.102362,5.889371e-2,0.712440,41.48387,0.969824)"
       width="28.000000"
       height="42.000000"
       style="fill:#000000;fill-opacity:1.0000000" />
  </g>
</svg>
