<?xml version="1.0" encoding="UTF-8" standalone="no"?>
<!-- Created with Inkscape (http://www.inkscape.org/) -->
<svg
   xmlns:dc="http://purl.org/dc/elements/1.1/"
   xmlns:cc="http://web.resource.org/cc/"
   xmlns:rdf="http://www.w3.org/1999/02/22-rdf-syntax-ns#"
   xmlns:svg="http://www.w3.org/2000/svg"
   xmlns="http://www.w3.org/2000/svg"
   xmlns:xlink="http://www.w3.org/1999/xlink"
   xmlns:sodipodi="http://inkscape.sourceforge.net/DTD/sodipodi-0.dtd"
   xmlns:inkscape="http://www.inkscape.org/namespaces/inkscape"
   width="26"
   height="42"
   id="svg1"
   sodipodi:version="0.32"
   inkscape:version="0.43"
   sodipodi:docbase="/home/yekcim/Desktop/SVG/Skins/gnuteam"
   sodipodi:docname="black.svg"
   inkscape:export-filename="/home/yekcim/Desktop/manchot_skin/manchot.png"
   inkscape:export-xdpi="72.000000"
   inkscape:export-ydpi="72.000000"
   version="1.0"
   inkscape:output_extension="org.inkscape.output.svg.inkscape">
  <defs
     id="defs3">
    <defs
       id="defs1062">
      <linearGradient
         inkscape:collect="always"
         id="linearGradient10630">
        <stop
           style="stop-color:#616161;stop-opacity:1;"
           offset="0"
           id="stop10631" />
        <stop
           style="stop-color:#616161;stop-opacity:0;"
           offset="1"
           id="stop10632" />
      </linearGradient>
      <linearGradient
         inkscape:collect="always"
         id="linearGradient10560">
        <stop
           style="stop-color:#000000;stop-opacity:1;"
           offset="0"
           id="stop10561" />
        <stop
           style="stop-color:#000000;stop-opacity:0;"
           offset="1"
           id="stop10562" />
      </linearGradient>
      <linearGradient
         id="linearGradient13777">
        <stop
           offset="0.0000000"
           style="stop-color:#d17d00;stop-opacity:1.0000000;"
           id="stop13779" />
        <stop
           offset="1.0000000"
           style="stop-color:#a7b135;stop-opacity:0.0000000;"
           id="stop13778" />
      </linearGradient>
      <linearGradient
         id="linearGradient11847">
        <stop
           offset="0.0000000"
           style="stop-color:#000000;stop-opacity:1.0000000;"
           id="stop11849" />
        <stop
           offset="1.0000000"
           style="stop-color:#000000;stop-opacity:0.0000000;"
           id="stop11848" />
      </linearGradient>
      <linearGradient
         id="linearGradient6187">
        <stop
           style="stop-color:#2e1b0b;stop-opacity:1.0000000;"
           offset="0.0000000"
           id="stop6188" />
        <stop
           style="stop-color:#431e00;stop-opacity:0;"
           offset="1"
           id="stop6189" />
      </linearGradient>
      <linearGradient
         inkscape:collect="always"
         id="linearGradient4909">
        <stop
           style="stop-color:#000000;stop-opacity:1;"
           offset="0"
           id="stop4910" />
        <stop
           style="stop-color:#000000;stop-opacity:0;"
           offset="1"
           id="stop4911" />
      </linearGradient>
      <linearGradient
         id="linearGradient1780">
        <stop
           style="stop-color:#454545;stop-opacity:1.0000000;"
           offset="0.0000000"
           id="stop1781" />
        <stop
           style="stop-color:#ffffff;stop-opacity:0;"
           offset="1"
           id="stop1782" />
      </linearGradient>
      <linearGradient
         id="linearGradient3869">
        <stop
           offset="0.0000000"
           style="stop-color:#d2dd2e;stop-opacity:1.0000000;"
           id="stop3872" />
        <stop
           offset="0.76146787"
           style="stop-color:#b3b96d;stop-opacity:0.65555555;"
           id="stop3871" />
        <stop
           offset="1.0000000"
           style="stop-color:#b1b952;stop-opacity:0.0000000;"
           id="stop3870" />
      </linearGradient>
      <linearGradient
         inkscape:collect="always"
         xlink:href="#linearGradient9217"
         id="linearGradient3799"
         gradientUnits="userSpaceOnUse"
         gradientTransform="matrix(0.112563,0,0,0.115364,26.43402,157.1761)"
         x1="4373.3052"
         y1="319.33466"
         x2="96.982727"
         y2="2708.2139" />
      <linearGradient
         inkscape:collect="always"
         xlink:href="#linearGradient7337"
         id="linearGradient3800"
         gradientUnits="userSpaceOnUse"
         gradientTransform="matrix(0.230667,0,0,7.644947e-2,26.55186,129.5549)"
         x1="862.1651"
         y1="2479.5938"
         x2="1523.3719"
         y2="2479.5938" />
      <linearGradient
         inkscape:collect="always"
         xlink:href="#linearGradient5442"
         id="linearGradient3801"
         gradientUnits="userSpaceOnUse"
         gradientTransform="matrix(0.162855,0,0,7.648058e-2,75.52973,161.8049)"
         x1="580.22791"
         y1="2173.3171"
         x2="1782.0374"
         y2="1630.2036" />
      <radialGradient
         inkscape:collect="always"
         xlink:href="#linearGradient5442"
         id="radialGradient3802"
         gradientUnits="userSpaceOnUse"
         gradientTransform="matrix(0.159978,0,0,7.785591e-2,363.0923,173.8583)"
         cx="-606.79681"
         cy="1573.4399"
         fx="-606.79681"
         fy="1573.4399"
         r="739.70477" />
      <linearGradient
         inkscape:collect="always"
         xlink:href="#linearGradient21707"
         id="linearGradient3803"
         gradientUnits="userSpaceOnUse"
         gradientTransform="scale(0.659854,1.515487)"
         x1="4848.5972"
         y1="3945.1116"
         x2="5625.4653"
         y2="1720.9402" />
      <linearGradient
         inkscape:collect="always"
         xlink:href="#linearGradient7337"
         id="linearGradient3804"
         gradientUnits="userSpaceOnUse"
         gradientTransform="matrix(0.236634,0,0,0.208284,-2451.443,4783.687)"
         x1="-7797.7422"
         y1="5021.4731"
         x2="-352.84012"
         y2="1184.9034" />
      <linearGradient
         inkscape:collect="always"
         xlink:href="#linearGradient7337"
         id="linearGradient3805"
         gradientUnits="userSpaceOnUse"
         gradientTransform="matrix(0.236634,0,0,0.208284,-2451.443,4783.687)"
         x1="-7797.7422"
         y1="5021.4731"
         x2="-352.84012"
         y2="1184.9034" />
      <defs
         id="defs3745">
        <linearGradient
           id="linearGradient22333"
           x1="0"
           y1="0.5"
           x2="1"
           y2="0.5"
           gradientUnits="objectBoundingBox"
           spreadMethod="pad"
           xlink:href="#linearGradient13777" />
        <linearGradient
           id="linearGradient21707">
          <stop
             style="stop-color:#ffffff;stop-opacity:1.0000000;"
             offset="0.0000000"
             id="stop21708" />
          <stop
             style="stop-color:#a7b135;stop-opacity:0;"
             offset="1"
             id="stop21709" />
        </linearGradient>
        <linearGradient
           inkscape:collect="always"
           id="linearGradient9217"
           x1="0"
           y1="0.5"
           x2="1"
           y2="0.5"
           gradientUnits="objectBoundingBox"
           spreadMethod="pad"
           xlink:href="#linearGradient11847" />
        <linearGradient
           id="linearGradient8584">
          <stop
             style="stop-color:#000000;stop-opacity:1.0000000;"
             offset="0.0000000"
             id="stop8585" />
          <stop
             style="stop-color:#cece4c;stop-opacity:0;"
             offset="1"
             id="stop8586" />
        </linearGradient>
        <linearGradient
           id="linearGradient7337">
          <stop
             style="stop-color:#b1b12f;stop-opacity:1.0000000;"
             offset="0.0000000"
             id="stop7338" />
          <stop
             style="stop-color:#cece4c;stop-opacity:0;"
             offset="1"
             id="stop7339" />
        </linearGradient>
        <linearGradient
           id="linearGradient5442"
           x1="0"
           y1="0.5"
           x2="1"
           y2="0.5"
           gradientUnits="objectBoundingBox"
           spreadMethod="pad"
           xlink:href="#linearGradient3869" />
      </defs>
      <sodipodi:namedview
         id="namedview3772"
         pagecolor="#ffffff"
         bordercolor="#666666"
         borderopacity="1.0"
         inkscape:pageopacity="0.0"
         inkscape:pageshadow="2"
         inkscape:zoom="0.80057989"
         inkscape:cx="297.63780"
         inkscape:cy="420.94487"
         inkscape:current-layer="layer1"
         inkscape:window-width="1440"
         inkscape:window-height="851"
         inkscape:window-x="0"
         inkscape:window-y="27"
         showguides="true"
         inkscape:guide-bbox="true" />
      <metadata
         id="metadata3773">
        <rdf:RDF>
          <cc:Work
             rdf:about="">
            <dc:format>image/svg+xml</dc:format>
            <dc:type
               rdf:resource="http://purl.org/dc/dcmitype/StillImage" />
          </cc:Work>
        </rdf:RDF>
      </metadata>
      <linearGradient
         inkscape:collect="always"
         xlink:href="#linearGradient4909"
         id="linearGradient6167"
         gradientUnits="userSpaceOnUse"
         gradientTransform="scale(0.891889,1.121216)"
         x1="-148.77991"
         y1="106.3186"
         x2="-160.14931"
         y2="-66.932083" />
      <linearGradient
         inkscape:collect="always"
         xlink:href="#linearGradient10560"
         id="linearGradient10563"
         gradientTransform="matrix(0.915477,0.127968,-0.149762,1.071392,19.54851,-8.45341)"
         x1="698.5448"
         y1="69.852913"
         x2="758.31232"
         y2="359.09653"
         gradientUnits="userSpaceOnUse" />
      <linearGradient
         inkscape:collect="always"
         xlink:href="#linearGradient10560"
         id="linearGradient10578"
         gradientUnits="userSpaceOnUse"
         gradientTransform="matrix(0.915477,0.127968,-0.149762,1.071392,0,0)"
         x1="647.37115"
         y1="96.894905"
         x2="770.59186"
         y2="342.74301" />
      <linearGradient
         inkscape:collect="always"
         xlink:href="#linearGradient4909"
         id="linearGradient10604"
         gradientUnits="userSpaceOnUse"
         gradientTransform="scale(0.891889,1.121216)"
         x1="-148.77991"
         y1="106.3186"
         x2="-160.14931"
         y2="-66.932083" />
      <linearGradient
         inkscape:collect="always"
         xlink:href="#linearGradient10630"
         id="linearGradient10633"
         gradientTransform="scale(0.883732,1.131565)"
         x1="-164.59187"
         y1="105.15539"
         x2="-154.1456"
         y2="3.6783011"
         gradientUnits="userSpaceOnUse" />
      <linearGradient
         inkscape:collect="always"
         xlink:href="#linearGradient10630"
         id="linearGradient10647"
         gradientUnits="userSpaceOnUse"
         gradientTransform="scale(0.883732,1.131565)"
         x1="-164.59187"
         y1="105.15539"
         x2="-154.1456"
         y2="3.6783011" />
      <radialGradient
         inkscape:collect="always"
         xlink:href="#linearGradient1780"
         id="radialGradient5568"
         gradientUnits="userSpaceOnUse"
         gradientTransform="matrix(-0.663014,1.058409,1.330757,0.590372,-891.7907,666.4254)"
         cx="-446.72464"
         cy="218.60974"
         fx="-446.72464"
         fy="218.60974"
         r="308.80975" />
      <linearGradient
         inkscape:collect="always"
         xlink:href="#linearGradient10630"
         id="linearGradient4391"
         gradientUnits="userSpaceOnUse"
         gradientTransform="matrix(0.437171,-0.479724,0.614848,0.55753,723.0732,-61.92042)"
         x1="-164.59187"
         y1="105.15539"
         x2="-154.1456"
         y2="3.6783011" />
    </defs>
  </defs>
  <sodipodi:namedview
     id="base"
     pagecolor="#ffffff"
     bordercolor="#666666"
     borderopacity="1.0"
     inkscape:pageopacity="0.0"
     inkscape:pageshadow="2"
     inkscape:zoom="15.571429"
     inkscape:cx="8.9229513"
     inkscape:cy="19.087233"
     inkscape:current-layer="g1160"
     inkscape:window-width="1430"
     inkscape:window-height="821"
     inkscape:window-x="0"
     inkscape:window-y="25" />
  <metadata
     id="metadata4">
    <rdf:RDF>
      <cc:Work
         rdf:about="">
        <dc:format>image/svg+xml</dc:format>
        <dc:type
           rdf:resource="http://purl.org/dc/dcmitype/StillImage" />
      </cc:Work>
    </rdf:RDF>
  </metadata>
  <g
     id="g1160"
     inkscape:groupmode="layer"
     inkscape:label="Layer 1"
     style="display:inline">
    <path
       style="fill:#000000;fill-opacity:1;fill-rule:nonzero;stroke:none;stroke-width:1px;stroke-linecap:butt;stroke-linejoin:miter;stroke-opacity:1;display:inline"
       id="path3467"
       d="M 7.2509775,28.888339 C 6.6064599,29.911101 6.0650431,31.014857 5.4812266,32.082181 C 4.5841583,33.66037 3.5870229,35.222157 2.2747167,36.313796 C 1.860957,36.656926 1.4136936,36.891883 0.96683329,37.111661 L 0.35257627,37.106542 C 0.79963399,36.892522 1.247571,36.664614 1.6632559,36.328023 C 2.9822151,35.256372 4.0023843,33.711714 4.8945562,32.130614 C 5.4683109,31.080032 5.9995864,29.989068 6.5776214,28.947391 L 7.2509775,28.888339 z " />
    <path
       style="fill:#000000;fill-opacity:1;fill-rule:nonzero;stroke:none;stroke-width:1px;stroke-linecap:butt;stroke-linejoin:miter;stroke-opacity:1"
       id="path2574"
       d="M 7.2184485,27.964737 C 7.0139131,27.948081 6.2894592,27.97764 7.2864169,27.90672 C 7.5704,27.886518 6.7090166,28.087452 6.429271,28.238628 C 4.8514995,29.193435 4.3311298,31.327085 3.946943,33.138418 C 3.6827226,34.340065 3.4983727,35.572593 3.0441685,36.743764 C 2.9621167,36.956431 2.841277,37.145065 2.7228649,37.334285 L 2.0727166,37.379212 C 2.1918075,37.197015 2.3146369,37.01617 2.3991475,36.809834 C 2.8754117,35.648805 3.0722466,34.413623 3.349675,33.215845 C 3.7486014,31.397144 4.2535449,29.239527 5.8222508,28.238079 C 6.4515314,27.873635 7.3676012,27.519597 7.8970501,27.840396 L 7.2184485,27.964737 z " />
    <path
       style="fill:#000000;fill-opacity:1;fill-rule:nonzero;stroke:none;stroke-width:1px;stroke-linecap:butt;stroke-linejoin:miter;stroke-opacity:1"
       id="path2576"
       d="M 11.669772,25.684863 C 11.52779,25.615903 11.196749,25.685656 9.8590667,26.362275 C 7.3186807,27.603935 5.5450994,30.115831 3.9023221,32.784776 C 3.340028,33.747108 2.7309959,34.667689 2.0774582,35.547588 L 1.4669113,35.583669 C 2.1353777,34.7077 2.7594456,33.78907 3.3355876,32.826355 C 5.0033056,30.173052 6.7674145,27.62894 9.3071973,26.359474 C 10.24719,25.861501 11.42963,25.286931 12.349706,25.495949 L 11.669772,25.684863 z " />
    <path
       style="fill:#000000;fill-opacity:1;fill-rule:nonzero;stroke:none;stroke-width:1px;stroke-linecap:butt;stroke-linejoin:miter;stroke-opacity:1"
       id="path2578"
       d="M 8.9864451,21.561867 C 8.7954721,21.708171 8.8796304,21.598808 9.5711278,21.371827 C 9.7520198,21.31245 9.2864249,21.721191 9.1763341,21.928073 C 8.9071207,22.433977 8.6867098,22.975369 8.4637869,23.512499 C 7.6918772,25.367592 7.0818444,27.305462 6.3917204,29.202276 C 5.9249817,30.531525 5.2446745,31.723778 4.3623607,32.658403 C 4.0933294,32.929814 3.7990392,33.146175 3.4988756,33.339475 L 2.8780871,33.443922 C 3.1819605,33.258315 3.4789109,33.044755 3.7532692,32.780771 C 4.6455207,31.866451 5.3289461,30.676674 5.8087498,29.357734 C 6.5153561,27.467088 7.1241523,25.527497 7.883132,23.663566 C 8.345203,22.534556 8.5914864,21.410457 9.6202389,21.251539 L 8.9864451,21.561867 z " />
    <path
       style="fill:#000000;fill-opacity:1;fill-rule:nonzero;stroke:none;stroke-width:1px;stroke-linecap:butt;stroke-linejoin:miter;stroke-opacity:1"
       id="path2580"
       d="M 9.4699157,21.02756 C 9.2616021,21.198356 9.4079163,21.049737 10.026596,20.852991 C 10.188912,20.801372 9.7375764,21.106249 9.6161359,21.268162 C 9.2786459,21.718122 9.0363026,22.270038 8.8118582,22.813635 C 8.0614932,24.867157 7.5770075,27.028666 6.8783419,29.104354 C 6.3222473,30.720116 5.6720425,32.305514 4.8341196,33.73584 C 4.6170998,34.09966 4.3786538,34.443477 4.1108791,34.744935 L 3.4853124,34.872867 C 3.7599776,34.580181 4.0028218,34.238852 4.2258262,33.879215 C 5.0843053,32.461076 5.7512945,30.876982 6.3132858,29.257806 C 7.0132629,27.184657 7.5080408,25.031409 8.2270419,22.966428 C 8.6882975,21.803233 9.0884184,20.905217 10.102181,20.717981 L 9.4699157,21.02756 z " />
    <path
       style="fill:#000000;fill-opacity:1;fill-rule:nonzero;stroke:none;stroke-width:1px;stroke-linecap:butt;stroke-linejoin:miter;stroke-opacity:1"
       id="path2582"
       d="M 10.711016,20.210978 C 10.735954,20.15604 10.526257,20.263669 10.572249,20.248187 C 10.761328,20.184536 10.949485,20.111281 11.13929,20.055419 C 11.310201,20.005117 10.824226,20.288147 10.678864,20.430602 C 10.398073,20.705781 10.128842,21.000215 9.8619076,21.299228 C 8.2466839,23.1218 7.4306742,25.702633 6.7573502,28.201264 C 6.371929,29.648784 6.0565451,31.115129 5.7757518,32.587188 L 5.1991577,32.757141 C 5.4969107,31.280098 5.8194852,29.807281 6.2148243,28.354433 C 6.8896944,25.864206 7.6939536,23.273844 9.275544,21.420582 C 9.8639246,20.746132 10.53681,19.832713 11.343893,19.9011 L 10.711016,20.210978 z " />
    <path
       style="fill:#000000;fill-opacity:1;fill-rule:nonzero;stroke:none;stroke-width:1px;stroke-linecap:butt;stroke-linejoin:miter;stroke-opacity:1"
       id="path2584"
       d="M 10.393384,24.068131 C 10.395336,24.062083 10.211726,24.110973 10.21519,24.110058 C 10.386515,24.064785 10.557622,24.012683 10.729102,23.97271 C 10.916997,23.92891 10.356407,24.113974 10.172988,24.20306 C 9.7779119,24.394949 9.3987741,24.636672 9.0191089,24.889573 C 6.7768386,26.270845 5.5908816,28.799682 4.5544751,31.538386 C 4.2826346,32.275695 4.0357548,33.023248 3.7884896,33.770305 L 3.2256637,33.889661 C 3.4824999,33.140545 3.7381562,32.390716 4.0137455,31.649339 C 5.0654151,28.928488 6.2028468,26.359141 8.4392356,24.954639 C 9.2371314,24.411988 10.185494,23.794361 11.046586,23.801062 L 10.393384,24.068131 z " />
    <path
       style="fill:#000000;fill-opacity:1;fill-rule:nonzero;stroke:none;stroke-width:1px;stroke-linecap:butt;stroke-linejoin:miter;stroke-opacity:1"
       id="path2586"
       d="M 10.881075,25.952581 C 10.921086,25.90057 10.673083,25.960535 10.725821,25.952419 C 11.931126,25.766974 10.520923,26.121976 10.004967,26.484337 C 8.4542006,27.786412 7.4936961,29.86333 6.5410107,31.759271 C 5.898432,33.075489 5.2555697,34.420079 4.2402319,35.393398 C 3.3972539,36.213974 2.47678,36.304289 1.5480547,36.439474 C 1.5140395,36.441462 1.4800251,36.443452 1.4460114,36.445438 L 2.1005676,36.227479 C 2.133851,36.224706 2.1671354,36.221932 2.2004194,36.219159 C 2.0228549,36.246969 1.8453414,36.274011 1.6677254,36.302596 C 1.5414848,36.322912 1.9202021,36.26401 2.0467939,36.235874 C 2.595668,36.113886 3.1310082,35.865535 3.6157517,35.414185 C 4.6407697,34.459296 5.298733,33.123785 5.9477563,31.811427 C 6.9110814,29.91275 7.8793387,27.856682 9.3960315,26.493237 C 10.049448,26.006092 10.885013,25.599659 11.560681,25.763756 L 10.881075,25.952581 z " />
    <path
       style="fill:#000000;fill-opacity:1;fill-rule:nonzero;stroke:none;stroke-width:1px;stroke-linecap:butt;stroke-linejoin:miter;stroke-opacity:1"
       id="path2588"
       d="M 11.310952,25.132492 C 11.32505,25.097278 11.186852,25.129769 11.191278,25.129191 C 12.359838,24.977358 11.143731,25.351525 10.672308,25.672106 C 8.7585473,27.062775 7.394921,29.383219 5.9945556,31.472305 C 5.0489896,32.952076 3.9034766,34.143746 2.6473991,35.169121 C 2.0399764,35.664104 1.434282,36.180592 0.75935188,36.425536 L 0.12363467,36.411212 C 0.80527499,36.184539 1.4193137,35.678001 2.0329866,35.18276 C 3.2983396,34.166511 4.4553805,32.98757 5.4146053,31.511204 C 6.8324992,29.439954 8.1912799,27.125381 10.07278,25.679236 C 10.662404,25.261733 11.375049,24.742119 11.990556,24.94367 L 11.310952,25.132492 z " />
    <path
       style="fill:#000000;fill-opacity:1;fill-rule:nonzero;stroke:none;stroke-width:1px;stroke-linecap:butt;stroke-linejoin:miter;stroke-opacity:1"
       id="path2590"
       d="M 11.80102,26.900424 C 11.665669,26.749687 9.7378231,27.398542 8.5143434,28.119605 C 6.6206952,29.32248 5.1952271,31.424878 3.719464,33.317435 C 2.9931897,34.245498 2.1492623,35.010284 1.2883658,35.709801 L 0.67508868,35.723072 C 1.5434832,35.03359 2.3936323,34.275476 3.1270373,33.350446 C 4.6243388,31.464618 6.0597079,29.354432 7.9508182,28.120962 C 9.3716898,27.271801 11.040273,26.5924 12.480299,26.711692 L 11.80102,26.900424 z " />
    <path
       style="fill:#000000;fill-opacity:1;fill-rule:nonzero;stroke:none;stroke-width:1px;stroke-linecap:butt;stroke-linejoin:miter;stroke-opacity:1"
       id="path2592"
       d="M 8.2917629,27.998071 C 7.6472453,29.020833 7.1058285,30.124589 6.522012,31.191913 C 5.6249437,32.770102 4.6278083,34.331889 3.3155021,35.423528 C 2.9017424,35.766658 2.454479,36.001615 2.0076187,36.221393 L 1.3933617,36.216274 C 1.8404194,36.002254 2.2883564,35.774346 2.7040413,35.437755 C 4.0230005,34.366104 5.0431697,32.821446 5.9353416,31.240346 C 6.5090963,30.189764 7.0403718,29.0988 7.6184068,28.057123 L 8.2917629,27.998071 z " />
    <g
       style="display:inline"
       id="g3710"
       transform="matrix(1.034938,-0.194231,0.154475,0.490843,62.97948,15.3395)">
      <path
         sodipodi:nodetypes="cccccccc"
         id="path3712"
         d="M -44.262037,27.119507 L -50.558137,27.19273 L -50.38136,32.496032 L -48.348428,32.496032 L -47.464545,30.197935 L -46.544049,32.538005 L -44.328979,32.49067 L -44.262037,27.119507 z "
         style="fill:#424242;fill-opacity:1;fill-rule:evenodd;stroke:#000000;stroke-width:1px;stroke-linecap:butt;stroke-linejoin:miter;stroke-opacity:1" />
      <path
         sodipodi:nodetypes="czcccc"
         id="path3714"
         d="M -49.237879,18.311952 C -49.211437,18.340419 -55.875868,8.722058 -47.605566,8.6233583 C -39.423652,8.5246586 -45.940838,18.339798 -45.940838,18.339798 L -44.131247,27.220984 L -50.660364,27.203222 L -49.237879,18.311952 z "
         style="fill:#222222;fill-opacity:1;fill-rule:evenodd;stroke:#000000;stroke-width:1px;stroke-linecap:butt;stroke-linejoin:miter;stroke-opacity:1" />
    </g>
    <g
       inkscape:label="Layer 1"
       id="g29199"
       transform="matrix(-0.757324,0,0,0.76036,413.6545,-61.485)" />
    <g
       id="g29315"
       inkscape:label="Layer 1"
       transform="matrix(-0.757324,0,0,0.76036,1508.984,254.8545)" />
    <g
       inkscape:label="Layer 1"
       id="g29317"
       transform="matrix(-0.757324,0,0,0.76036,2140.42,223.9872)" />
    <g
       id="g3598"
       transform="matrix(0.946371,0,0,0.950165,97.63281,8.91519)">
      <path
         sodipodi:nodetypes="czsccscc"
         id="path3596"
         d="M -85.538541,6.9180973 C -84.395005,4.6504823 -82.176317,-2.5520105 -83.408179,-4.240373 C -84.697516,-6.0075098 -88.124538,-8.7395273 -92.790762,-3.7640405 C -98.7305,2.5693644 -99.327672,30.006491 -88.415762,29.142209 C -74.828373,29.034734 -76.830957,16.414024 -82.665762,14.485959 C -82.665762,14.485959 -86.682077,9.1857123 -85.538541,6.9180973 z M -82.728262,14.454709 C -84.054988,14.0424 -85.543813,14.359892 -87.165762,15.142209"
         style="fill:#222222;fill-opacity:1;fill-rule:evenodd;stroke:none;stroke-width:0.92659229;stroke-linecap:butt;stroke-linejoin:miter;stroke-miterlimit:4;stroke-dasharray:none;stroke-opacity:1;display:inline" />
      <path
         sodipodi:nodetypes="cscsccscc"
         id="path3594"
         d="M -83.540762,-4.1077905 C -83.667682,-4.3332682 -85.133952,-6.8092252 -87.884512,-6.5765405 C -87.926203,-6.5730137 -87.967244,-6.581342 -88.009512,-6.5765405 C -89.319821,-6.427693 -90.908771,-5.6459351 -92.790762,-3.7640405 C -98.930642,2.3755338 -99.327672,30.006491 -88.415762,29.142209 C -74.828373,29.034734 -76.830957,16.414024 -82.665762,14.485959 C -82.665762,14.485959 -86.903048,9.0973243 -85.759512,6.8297093 M -82.728262,14.454709 C -84.054988,14.0424 -85.543813,14.359892 -87.165762,15.142209"
         style="fill:none;fill-opacity:1;fill-rule:evenodd;stroke:#000000;stroke-width:0.92659229;stroke-linecap:butt;stroke-linejoin:miter;stroke-miterlimit:4;stroke-dasharray:none;stroke-opacity:1;display:inline" />
    </g>
    <path
       style="fill:#222222;fill-opacity:1;fill-rule:evenodd;stroke:#000000;stroke-width:0.65601468;stroke-linecap:butt;stroke-linejoin:miter;stroke-miterlimit:4.0000000;stroke-dasharray:none;stroke-opacity:1.0000000;display:inline"
       d="M 19.117518,24.965521 C 19.066959,25.928768 19.642434,27.144331 19.751387,27.365064 L 16.703940,25.925338 C 16.704979,25.929544 16.702622,25.943239 16.703940,25.949334 C 16.711099,25.988531 16.706049,26.069227 16.703940,26.141298 C 16.694810,26.304913 16.631954,26.541892 16.411384,26.717187 C 16.406206,26.721127 16.392353,26.737291 16.387006,26.741183 C 16.370449,26.752715 16.332009,26.778122 16.313867,26.789175 C 16.288949,26.803680 16.244267,26.823674 16.216348,26.837164 C 15.972441,26.949497 15.614238,27.017864 15.094887,27.005133 C 14.896311,27.000266 14.750125,27.013986 14.680434,27.029129 C 14.675758,27.030407 14.660059,27.027738 14.656055,27.029129 C 14.652714,27.030632 14.634366,27.051509 14.631676,27.053123 C 14.630869,27.055069 14.631875,27.075064 14.631676,27.077119 C 14.633227,27.079496 14.629563,27.098632 14.631676,27.101114 C 14.639664,27.108880 14.667697,27.116408 14.680434,27.125110 C 15.119909,27.402868 17.708149,28.139079 17.996057,29.020749 C 17.997478,29.025524 17.994772,29.039960 17.996057,29.044744 C 17.998356,29.054334 18.018696,29.083109 18.020436,29.092735 C 18.021165,29.097559 18.019851,29.111900 18.020436,29.116731 C 18.021319,29.126414 18.020139,29.155004 18.020436,29.164722 C 18.020436,29.378891 17.920135,29.579668 17.776640,29.740612 C 17.148462,30.411426 15.530107,30.656971 15.168027,30.700429 C 15.726776,30.712939 19.071766,30.825535 19.263796,31.660248 C 19.270342,31.688703 19.288374,31.727709 19.288176,31.756229 C 19.280447,31.877461 19.200779,32.020977 19.093138,32.140155 C 18.424694,32.846622 16.327560,33.485396 16.167589,33.531891 C 16.369983,33.587586 17.308895,33.825892 19.141898,33.867827 C 20.745776,33.904521 21.126058,33.141575 21.214161,32.788032 C 21.226692,32.733033 21.236240,32.671493 21.238541,32.644060 C 21.296337,32.683056 21.741586,32.960649 22.360002,33.243945 C 22.712338,32.836809 23.006255,32.380604 23.188908,31.852210 C 23.190746,31.846896 23.187093,31.833542 23.188908,31.828215 C 22.911599,31.652475 22.705303,31.494726 22.652557,31.372302 C 22.651524,31.369584 22.653433,31.350988 22.652557,31.348306 C 22.651997,31.345697 22.652955,31.326882 22.652557,31.324312 C 22.652487,31.321813 22.652461,31.302775 22.652557,31.300315 C 22.653165,31.297973 22.651776,31.278622 22.652557,31.276321 C 22.653690,31.274098 22.651245,31.254505 22.652557,31.252324 C 22.655908,31.248129 22.672845,31.232356 22.676936,31.228330 C 22.681783,31.224473 22.695699,31.208014 22.701317,31.204333 C 22.704319,31.202537 22.722497,31.206085 22.725696,31.204333 C 22.780079,31.177024 22.860385,31.147324 22.969492,31.132347 C 23.105876,31.113627 23.232658,31.100531 23.359564,31.108352 C 23.435265,30.526931 23.379270,29.901500 23.140148,29.188717 C 22.838230,28.288739 22.420359,27.550573 21.921170,26.957142 C 21.917841,26.953186 21.900124,26.961086 21.896790,26.957142 C 21.883665,26.957281 21.861124,26.957142 21.848031,26.957142 C 21.612359,26.957142 21.428123,26.884092 21.287301,26.765179 C 21.098211,26.592431 20.976426,26.305621 20.921607,25.997325 C 20.918165,25.994652 20.925050,25.975992 20.921607,25.973330 C 20.334410,25.519307 19.695205,25.197757 19.117518,24.965521 z "
       id="path3602" />
    <path
       style="fill:#000000;fill-opacity:1.0000000;fill-rule:nonzero;stroke:none;stroke-width:1.0000000pt;stroke-linecap:butt;stroke-linejoin:miter;stroke-opacity:1.0000000;display:inline"
       d="M 20.834630,30.361280 C 22.463518,30.403765 20.818108,29.308729 21.063279,30.555045 C 19.954992,30.961634 20.019467,30.657568 20.854888,31.045226 L 19.590062,30.532202 C 20.640632,31.184870 21.268425,31.953645 22.283057,31.204049 C 22.377759,29.976532 20.580696,29.001477 19.568298,29.737777 L 20.834630,30.361280 z "
       id="path3604" />
    <path
       style="fill:#222222;fill-opacity:1;fill-rule:nonzero;stroke:none;stroke-width:1.0000000px;stroke-linecap:butt;stroke-linejoin:miter;stroke-opacity:1.0000000;display:inline"
       id="path3606"
       d="M 15.003267,18.826985 C 15.570938,18.520437 15.470914,18.851715 16.173462,18.993929 C 16.691780,19.133585 17.884618,19.134338 17.718748,19.600250 C 17.096142,20.276761 16.031593,20.905771 15.262187,21.573711 C 15.074450,21.740458 15.165988,21.658322 14.987411,21.820099 L 14.604694,21.987351 C 14.787560,21.823357 14.693890,21.906608 14.885852,21.737613 C 15.653718,21.075434 16.693914,20.450345 17.329271,19.780005 C 17.512332,19.323866 16.314568,19.317008 15.819397,19.180242 C 15.345710,19.087831 14.481552,19.000170 15.385093,18.606682 L 15.003267,18.826985 z " />
    <path
       style="fill:#222222;fill-opacity:1;fill-rule:nonzero;stroke:none;stroke-width:1.0000000px;stroke-linecap:butt;stroke-linejoin:miter;stroke-opacity:1.0000000;display:inline"
       id="path3608"
       d="M 17.436280,17.849731 C 17.580025,17.929814 17.790476,17.986080 17.959166,18.056866 C 18.267463,18.297117 17.940177,18.724819 18.067725,19.030896 C 18.351908,19.416456 19.066208,19.596823 19.498406,19.915711 L 19.115296,20.107329 C 18.696560,19.780034 18.003085,19.587549 17.701126,19.208600 C 17.561607,18.910920 17.861831,18.495851 17.570043,18.255833 C 17.393467,18.181720 17.185820,18.126259 17.015757,18.048717 L 17.436280,17.849731 z " />
    <path
       style="fill:#222222;fill-opacity:1;fill-rule:nonzero;stroke:none;stroke-width:1.0000000px;stroke-linecap:butt;stroke-linejoin:miter;stroke-opacity:1.0000000;display:inline"
       id="path3610"
       d="M 19.153886,17.205512 C 19.812506,16.827990 19.295862,17.316682 19.427048,17.562306 C 19.735896,17.973206 20.385056,18.269461 20.107888,18.853326 C 19.773490,19.366564 19.184092,19.879001 18.780274,20.393776 C 18.759722,20.421065 18.739167,20.448357 18.718614,20.475648 L 18.323163,20.653118 C 18.344272,20.625443 18.365380,20.597768 18.386490,20.570094 C 18.794601,20.054483 19.385435,19.541759 19.727859,19.027432 C 20.010331,18.447633 19.385978,18.142218 19.052164,17.745151 C 18.889860,17.482476 18.901128,17.255927 19.535712,16.985209 L 19.153886,17.205512 z " />
    <path
       style="fill:#222222;fill-opacity:1;fill-rule:nonzero;stroke:none;stroke-width:1.0000000px;stroke-linecap:butt;stroke-linejoin:miter;stroke-opacity:1.0000000;display:inline"
       id="path3612"
       d="M 16.533971,18.078399 C 16.594150,18.189029 16.758938,18.263614 16.879722,18.350045 C 17.234767,18.640865 16.471351,19.128986 16.047556,19.509293 C 15.319652,20.097433 15.803874,20.429379 16.321525,20.723115 L 15.970363,20.900969 C 15.458735,20.603957 14.919812,20.275572 15.656502,19.680125 C 16.067270,19.311520 16.831191,18.828059 16.492119,18.544338 C 16.367162,18.455218 16.203830,18.380901 16.113448,18.277386 L 16.533971,18.078399 z " />
    <path
       style="fill:#222222;fill-opacity:1;fill-rule:nonzero;stroke:none;stroke-width:1.0000000px;stroke-linecap:butt;stroke-linejoin:miter;stroke-opacity:1.0000000;display:inline"
       id="path3614"
       d="M 16.578910,17.702130 C 16.441690,17.978903 16.361645,18.245192 16.424490,18.484849 C 16.653756,18.958531 17.404413,19.209454 17.896022,19.569582 C 18.196645,19.767727 18.181488,20.042159 18.042585,20.360383 L 17.649265,20.541028 C 17.792739,20.226611 17.814470,19.954121 17.524358,19.755875 C 17.043759,19.387891 16.305961,19.129783 16.054436,18.662855 C 15.980872,18.431444 16.041606,18.170550 16.158740,17.900948 L 16.578910,17.702130 z " />
    <path
       style="fill:#222222;fill-opacity:1;fill-rule:nonzero;stroke:none;stroke-width:1.0000000px;stroke-linecap:butt;stroke-linejoin:miter;stroke-opacity:1.0000000;display:inline"
       id="path3616"
       d="M 18.338840,17.608222 C 18.271488,17.614670 18.225059,17.647263 18.168002,17.669614 C 18.734136,17.350268 18.397701,17.602799 18.409846,17.790663 C 18.500151,18.141976 18.888170,18.387689 19.050334,18.714135 C 19.186196,19.087905 18.558507,19.602411 18.066985,20.017801 C 17.893792,20.161977 17.710631,20.304501 17.528007,20.447053 L 17.120333,20.622884 C 17.306032,20.479151 17.492109,20.335440 17.669858,20.190283 C 18.161814,19.781367 18.790008,19.272713 18.665162,18.901234 C 18.508241,18.571956 18.129493,18.322002 18.022313,17.975210 C 17.988843,17.752744 18.160610,17.530761 18.720028,17.388288 L 18.338840,17.608222 z " />
    <path
       style="fill:#222222;fill-opacity:1;fill-rule:nonzero;stroke:none;stroke-width:1.0000000px;stroke-linecap:butt;stroke-linejoin:miter;stroke-opacity:1.0000000;display:inline"
       id="path3618"
       d="M 14.548891,18.296673 C 14.493365,18.528871 14.489839,18.749602 14.560737,18.951982 C 14.699157,19.336980 15.182134,19.564943 15.718712,19.763660 C 16.170349,19.904876 16.441371,20.113605 16.475142,20.431445 C 16.479176,20.661638 16.361232,20.921551 16.478784,21.121946 C 16.517819,21.171667 16.598222,21.199069 16.677850,21.227444 L 16.287880,21.429336 C 16.205970,21.398468 16.123079,21.368497 16.081801,21.316536 C 15.961160,21.114109 16.078274,20.852897 16.081438,20.618250 C 16.055518,20.302344 15.788087,20.097587 15.348404,19.954347 C 14.813164,19.750077 14.324941,19.522517 14.182365,19.134684 C 14.107182,18.935855 14.101663,18.720010 14.128368,18.495660 L 14.548891,18.296673 z " />
    <path
       style="fill:#222222;fill-opacity:1;fill-rule:nonzero;stroke:none;stroke-width:1.0000000px;stroke-linecap:butt;stroke-linejoin:miter;stroke-opacity:1.0000000;display:inline"
       id="path3620"
       d="M 15.406084,18.056783 C 15.152743,18.353943 15.019879,18.646649 15.041737,18.911979 C 15.186489,19.436877 16.111386,19.626421 16.744066,19.926140 C 17.206119,20.114029 17.119489,20.456366 16.954122,20.829013 C 16.882692,20.978677 16.779770,21.130775 16.666136,21.282990 L 16.251393,21.468803 C 16.369202,21.316106 16.476201,21.163469 16.552727,21.012901 C 16.727441,20.643623 16.823815,20.304156 16.377112,20.113264 C 15.752076,19.805326 14.835275,19.608077 14.671952,19.088021 C 14.641312,18.836489 14.743425,18.536198 14.985562,18.255770 L 15.406084,18.056783 z " />
    <path
       style="fill:#222222;fill-opacity:1;fill-rule:nonzero;stroke:none;stroke-width:1.0000000px;stroke-linecap:butt;stroke-linejoin:miter;stroke-opacity:1.0000000;display:inline"
       id="path3622"
       d="M 17.529730,17.880338 C 18.266084,17.459358 17.710115,17.921426 17.628923,18.145792 C 17.565835,18.594178 17.886226,18.938439 18.087476,19.309393 C 18.318406,19.666390 18.105842,20.112884 17.817620,20.567213 C 17.651480,20.827812 17.451659,21.089751 17.245303,21.351564 L 16.840823,21.532587 C 17.052653,21.268820 17.260038,21.004838 17.431425,20.742072 C 17.722748,20.291302 17.930661,19.849582 17.708538,19.493887 C 17.509900,19.119145 17.205542,18.770503 17.238007,18.326910 C 17.315640,18.052956 17.400593,17.879057 17.911559,17.660034 L 17.529730,17.880338 z " />
    <path
       style="fill:#222222;fill-opacity:1;fill-rule:nonzero;stroke:none;stroke-width:1.0000000px;stroke-linecap:butt;stroke-linejoin:miter;stroke-opacity:1.0000000;display:inline"
       id="path3624"
       d="M 18.789742,17.280184 C 18.764420,17.443622 18.796933,17.591032 18.854531,17.733101 C 19.053135,18.143959 19.394548,18.504210 19.602704,18.911855 C 19.748686,19.279328 19.183305,19.761969 18.768687,20.183007 C 18.470718,20.503996 18.095906,20.820505 17.813413,21.141929 C 17.585369,21.393308 17.653747,21.549723 17.953953,21.646475 L 17.568643,21.846703 C 17.262969,21.745285 17.175400,21.583574 17.406464,21.323289 C 17.687431,20.998658 18.070730,20.679925 18.375910,20.356194 C 18.789281,19.941225 19.348984,19.463163 19.220946,19.097333 C 19.026305,18.684726 18.696763,18.319662 18.479725,17.914881 C 18.410809,17.778121 18.362608,17.637041 18.369220,17.479170 L 18.789742,17.280184 z " />
    <path
       style="fill:#222222;fill-opacity:1;fill-rule:nonzero;stroke:none;stroke-width:1.0000000px;stroke-linecap:butt;stroke-linejoin:miter;stroke-opacity:1.0000000;display:inline"
       id="path3626"
       d="M 16.172520,18.530631 C 16.311828,18.772241 16.590340,18.963174 16.774647,19.189255 C 17.154041,19.599487 17.052274,20.134432 16.884197,20.683384 C 16.795722,21.004104 16.591108,21.350633 16.672320,21.637012 C 16.701363,21.715668 16.774594,21.775694 16.857739,21.832152 L 16.465409,22.030354 C 16.380617,21.971599 16.306943,21.908966 16.277376,21.827713 C 16.193237,21.537594 16.401222,21.187413 16.502581,20.860263 C 16.682441,20.311914 16.789800,19.777068 16.408071,19.369927 C 16.218002,19.143900 15.941737,18.954718 15.753053,18.729117 L 16.172520,18.530631 z " />
    <path
       style="fill:#222222;fill-opacity:1;fill-rule:nonzero;stroke:none;stroke-width:1.0000000px;stroke-linecap:butt;stroke-linejoin:miter;stroke-opacity:1.0000000;display:inline"
       id="path3628"
       d="M 17.124607,18.296949 C 16.856218,18.636511 16.666484,18.983052 16.452333,19.323013 C 16.131790,19.825124 15.884761,20.322256 15.687335,20.812613 C 15.480776,21.240144 15.811086,21.498538 16.269231,21.696845 C 16.447746,21.775442 16.669131,21.826326 16.897874,21.870940 L 16.524986,22.067089 C 16.297358,22.019877 16.075804,21.967206 15.896423,21.887738 C 15.437006,21.686749 15.091171,21.423235 15.296742,20.992554 C 15.496490,20.499207 15.760019,19.997563 16.076871,19.493187 C 16.287075,19.156011 16.488965,18.819281 16.689235,18.483115 L 17.124607,18.296949 z " />
    <path
       style="fill:#222222;fill-opacity:1;fill-rule:nonzero;stroke:none;stroke-width:1.0000000px;stroke-linecap:butt;stroke-linejoin:miter;stroke-opacity:1.0000000;display:inline"
       id="path3630"
       d="M 18.154367,17.702734 C 18.270353,17.852025 18.215092,18.055192 18.191740,18.241450 C 18.104846,18.894473 18.356257,19.465560 18.504053,20.058785 C 18.551699,20.456801 18.722945,20.811962 18.994096,21.136797 C 19.191089,21.321154 19.015907,21.563178 18.795407,21.820758 L 18.384306,22.003305 C 18.608039,21.750969 18.792820,21.511301 18.608096,21.326973 C 18.347015,20.995791 18.174971,20.637824 18.137521,20.234608 C 18.002361,19.637302 17.769758,19.062206 17.814447,18.418838 C 17.828609,18.241112 17.870740,18.046615 17.744652,17.908335 L 18.154367,17.702734 z " />
    <path
       style="fill:#222222;fill-opacity:1;fill-rule:nonzero;stroke:none;stroke-width:1.0000000px;stroke-linecap:butt;stroke-linejoin:miter;stroke-opacity:1.0000000;display:inline"
       id="path3632"
       d="M 15.978278,18.241281 C 16.690717,17.858360 16.219613,18.456221 16.385487,18.814785 C 16.652159,19.326488 17.171949,19.741136 17.571734,20.201752 C 17.811485,20.444278 17.838741,20.752436 17.766790,21.081969 C 17.714609,21.269939 17.586381,21.470570 17.613187,21.643499 C 17.772347,21.846618 17.460657,22.011992 17.066779,22.223571 C 16.958108,22.278984 16.855282,22.337149 16.752331,22.395339 L 16.330934,22.572003 C 16.435843,22.511964 16.540518,22.451950 16.652755,22.395429 C 17.030722,22.194041 17.366981,22.034209 17.210340,21.836955 C 17.175199,21.663339 17.302756,21.460765 17.365752,21.268605 C 17.447033,20.938993 17.428491,20.630840 17.197658,20.386249 C 16.811821,19.918524 16.312657,19.494278 16.032711,18.986161 C 15.876228,18.682006 15.600287,18.336244 16.398448,18.042461 L 15.978278,18.241281 z " />
    <path
       style="fill:#222222;fill-opacity:1;fill-rule:nonzero;stroke:none;stroke-width:1.0000000px;stroke-linecap:butt;stroke-linejoin:miter;stroke-opacity:1.0000000;display:inline"
       id="path3634"
       d="M 15.496316,18.683343 C 15.535184,18.845467 15.614184,18.996495 15.662573,19.156352 C 15.750759,19.551881 15.573083,20.005713 15.420976,20.447954 C 15.148636,20.990483 15.848077,21.048605 16.628695,21.093030 C 17.191714,21.123399 17.827233,21.121509 18.067569,21.374761 C 18.161008,21.487029 18.117025,21.611410 17.982552,21.762397 C 17.880451,21.873067 17.736787,21.978619 17.591474,22.082797 L 17.165816,22.264783 C 17.311482,22.161966 17.457004,22.057878 17.562093,21.948446 C 17.697374,21.802463 17.756731,21.682110 17.669928,21.570536 C 17.449416,21.316431 16.823562,21.316227 16.278187,21.281852 C 15.492552,21.232874 14.747105,21.183949 15.031712,20.627994 C 15.186685,20.187198 15.376845,19.732685 15.279521,19.340800 C 15.229275,19.181997 15.147988,19.033884 15.075792,18.882329 L 15.496316,18.683343 z " />
    <path
       style="fill:#222222;fill-opacity:1;fill-rule:nonzero;stroke:none;stroke-width:1.0000000px;stroke-linecap:butt;stroke-linejoin:miter;stroke-opacity:1.0000000;display:inline"
       id="path3636"
       d="M 18.882846,18.796233 C 18.541670,19.154111 18.355586,19.503079 18.211206,19.850564 C 18.028750,20.296395 17.914518,20.732616 17.826174,21.163724 C 17.817716,21.457785 17.570495,21.766346 17.284859,22.082476 C 17.267292,22.101464 17.249729,22.120450 17.232164,22.139439 L 16.824422,22.319972 C 16.842497,22.300867 16.860574,22.281762 16.878651,22.262656 C 17.167252,21.948130 17.419792,21.640761 17.434147,21.346708 C 17.531108,20.911652 17.648526,20.472440 17.835261,20.023604 C 17.977724,19.682021 18.149528,19.339472 18.453289,18.987765 L 18.882846,18.796233 z " />
    <path
       style="fill:#222222;fill-opacity:1;fill-rule:nonzero;stroke:none;stroke-width:1.0000000px;stroke-linecap:butt;stroke-linejoin:miter;stroke-opacity:1.0000000;display:inline"
       id="path3638"
       d="M 19.015320,17.875679 C 19.003354,18.033282 19.004443,18.188059 18.993200,18.345504 C 18.922467,18.920889 18.986683,19.465494 19.014430,20.018235 C 19.020122,20.362843 19.027422,20.711197 18.880220,21.085039 C 18.760018,21.339340 18.520151,21.599060 18.260923,21.854767 L 17.847454,22.036268 C 18.112656,21.781511 18.355995,21.522337 18.482522,21.267905 C 18.636103,20.893138 18.635971,20.543067 18.638880,20.196377 C 18.621355,19.641539 18.579222,19.092381 18.610343,18.526245 C 18.610838,18.374398 18.605281,18.223902 18.594798,18.074664 L 19.015320,17.875679 z " />
    <path
       style="fill:#222222;fill-opacity:1;fill-rule:nonzero;stroke:none;stroke-width:1.0000000px;stroke-linecap:butt;stroke-linejoin:miter;stroke-opacity:1.0000000;display:inline"
       id="path3640"
       d="M 19.782282,18.864732 C 19.913026,18.955362 19.902074,19.090294 19.854715,19.233776 C 19.579985,19.692158 19.143158,20.160205 19.005981,20.606981 C 18.955269,20.914079 19.049415,21.184632 18.800992,21.519788 C 18.605958,21.738092 18.382426,21.955028 18.181331,22.173089 L 17.772503,22.354444 C 17.975099,22.135734 18.201567,21.918340 18.399346,21.699414 C 18.652425,21.365204 18.568227,21.092546 18.619305,20.786303 C 18.758183,20.340089 19.187415,19.874409 19.456528,19.416965 C 19.502353,19.275290 19.513316,19.146040 19.361760,19.063718 L 19.782282,18.864732 z " />
    <path
       style="fill:#222222;fill-opacity:1;fill-rule:nonzero;stroke:none;stroke-width:1.0000000px;stroke-linecap:butt;stroke-linejoin:miter;stroke-opacity:1.0000000;display:inline"
       id="path3642"
       d="M 17.625142,17.647559 C 17.755621,17.581399 17.885130,17.514649 18.016580,17.449080 C 18.273696,17.320830 17.651907,17.756059 17.507592,17.912267 C 17.192030,18.253839 17.013163,18.581473 16.899930,18.909859 C 16.681406,19.755463 17.140690,20.437135 17.424687,21.150431 C 17.597176,21.550038 17.684119,21.973683 17.453953,22.463150 C 17.421640,22.534656 17.375848,22.607331 17.334203,22.679629 L 16.934519,22.860936 C 16.978654,22.788160 17.027198,22.715018 17.061392,22.642998 C 17.302156,22.152942 17.225949,21.726565 17.067287,21.323169 C 16.801734,20.601034 16.355766,19.913341 16.555661,19.069274 C 16.719732,18.551629 17.052713,17.890592 17.993320,17.422213 L 17.625142,17.647559 z " />
    <g
       style="display:inline"
       id="g3644"
       transform="matrix(0.923149,0.209198,-0.208362,0.926849,3.529742,-1.228680)">
      <path
         sodipodi:nodetypes="cz"
         id="path3646"
         d="M 24.335113,7.0557725 C 24.331747,7.1050809 23.415013,13.504978 16.252082,7.4779706"
         style="fill:#222222;fill-opacity:1;fill-rule:evenodd;stroke:#000000;stroke-width:0.63700002;stroke-linecap:butt;stroke-linejoin:miter;stroke-miterlimit:4.0000000;stroke-dasharray:none;stroke-opacity:1.0000000;display:inline" />
      <path
         sodipodi:nodetypes="ccs"
         id="path3648"
         d="M 16.932836,6.2022597 C 21.988771,6.3503145 24.356068,7.0386845 24.356068,7.0386845 C 24.356068,7.0386845 21.000572,12.709996 16.083807,7.3339794"
         style="fill:#222222;fill-opacity:1;fill-rule:evenodd;stroke:#000000;stroke-width:0.43700001;stroke-linecap:butt;stroke-linejoin:miter;stroke-miterlimit:4.0000000;stroke-dasharray:none;stroke-opacity:1.0000000;display:inline" />
    </g>
    <g
       style="display:inline"
       id="g3650"
       transform="matrix(0.939630,-0.113199,0.112747,0.943397,2.119243,3.148858)">
      <path
         sodipodi:nodetypes="cz"
         id="path3652"
         d="M -0.27642496,7.9638485 C -0.27020121,8.0125842 1.0199935,14.313652 7.8732300,7.9700466"
         style="fill:#222222;fill-opacity:1;fill-rule:evenodd;stroke:#000000;stroke-width:0.63700002;stroke-linecap:butt;stroke-linejoin:miter;stroke-miterlimit:4.0000000;stroke-dasharray:none;stroke-opacity:1.0000000" />
      <path
         sodipodi:nodetypes="ccs"
         id="path3654"
         d="M 7.1154262,6.7394562 C 2.0415596,7.1443668 -0.29847461,7.9479690 -0.29847461,7.9479690 C -0.29847461,7.9479690 3.4012762,13.401899 8.0340905,7.8186372"
         style="fill:#222222;fill-opacity:1;fill-rule:evenodd;stroke:#000000;stroke-width:0.43700001;stroke-linecap:butt;stroke-linejoin:miter;stroke-miterlimit:4.0000000;stroke-dasharray:none;stroke-opacity:1.0000000" />
    </g>
    <g
       style="display:inline"
       id="g3656"
       transform="matrix(-1.041237,0.141070,0.000000,1.173574,25.08933,13.81206)">
      <path
         sodipodi:nodetypes="csczscssc"
         id="path3658"
         d="M 6.7591269,-4.8961329 C 6.7591269,-4.8961329 7.3943289,-4.4838409 7.8969489,-4.5576859 C 8.3995679,-4.6315299 8.7696049,-5.1915099 8.7696049,-5.1915099 C 8.7696049,-5.1915099 10.142454,-8.0714369 7.7493959,-9.3267899 C 5.4164679,-10.550600 3.3096029,-5.9299529 2.1084759,-7.7022149 C 0.90734691,-9.4744779 2.1663769,-11.689807 2.1663769,-11.689807 C 2.1663769,-11.689807 -0.48084809,-8.5093179 -0.31524609,-7.1114609 C -0.12278509,-5.4868869 0.40016891,-4.5393389 6.7237739,-6.4468629 C 6.8446189,-6.4833159 6.7591269,-4.8961329 6.7591269,-4.8961329 z "
         style="fill:#424242;fill-opacity:1;fill-rule:evenodd;stroke:none;stroke-width:0.81018460px;stroke-linecap:butt;stroke-linejoin:miter;stroke-opacity:1.0000000;display:inline" />
      <path
         sodipodi:nodetypes="czscssc"
         id="path3660"
         d="M 8.7696049,-5.1915099 C 8.7696049,-5.1915099 10.142454,-8.0714369 7.7493959,-9.3267899 C 5.4164679,-10.550600 3.3096029,-5.9299529 2.1084759,-7.7022149 C 0.90734691,-9.4744779 2.1663769,-11.689807 2.1663769,-11.689807 C 2.1663769,-11.689807 -0.48084809,-8.5093179 -0.31524609,-7.1114609 C -0.12278509,-5.4868869 0.40016891,-4.5393389 6.7237739,-6.4468629 C 6.8446189,-6.4833159 6.7591269,-4.8961329 6.7591269,-4.8961329"
         style="fill:none;fill-opacity:0.75000000;fill-rule:evenodd;stroke:#000000;stroke-width:0.81018460px;stroke-linecap:butt;stroke-linejoin:miter;stroke-opacity:1.0000000;display:inline" />
    </g>
    <g
       style="display:inline"
       id="g3662"
       transform="matrix(1.041237,-0.100764,0.000000,1.173574,3.742468,15.58279)">
      <path
         sodipodi:nodetypes="csczscssc"
         id="path3664"
         d="M 6.7591269,-4.8961329 C 6.7591269,-4.8961329 7.3943289,-4.4838409 7.8969489,-4.5576859 C 8.3995679,-4.6315299 8.7696049,-5.1915099 8.7696049,-5.1915099 C 8.7696049,-5.1915099 10.142454,-8.0714369 7.7493959,-9.3267899 C 5.4164679,-10.550600 3.3096029,-5.9299529 2.1084759,-7.7022149 C 0.90734691,-9.4744779 2.1663769,-11.689807 2.1663769,-11.689807 C 2.1663769,-11.689807 -0.48084809,-8.5093179 -0.31524609,-7.1114609 C -0.12278509,-5.4868869 0.40016891,-4.5393389 6.7237739,-6.4468629 C 6.8446189,-6.4833159 6.7591269,-4.8961329 6.7591269,-4.8961329 z "
         style="fill:#424242;fill-opacity:1;fill-rule:evenodd;stroke:none;stroke-width:0.81018460px;stroke-linecap:butt;stroke-linejoin:miter;stroke-opacity:1.0000000;display:inline" />
      <path
         sodipodi:nodetypes="czscssc"
         id="path3666"
         d="M 8.7696049,-5.1915099 C 8.7696049,-5.1915099 10.142454,-8.0714369 7.7493959,-9.3267899 C 5.4164679,-10.550600 3.3096029,-5.9299529 2.1084759,-7.7022149 C 0.90734691,-9.4744779 2.1663769,-11.689807 2.1663769,-11.689807 C 2.1663769,-11.689807 -0.48084809,-8.5093179 -0.31524609,-7.1114609 C -0.12278509,-5.4868869 0.40016891,-4.5393389 6.7237739,-6.4468629 C 6.8446189,-6.4833159 6.7591269,-4.8961329 6.7591269,-4.8961329"
         style="fill:none;fill-opacity:0.75000000;fill-rule:evenodd;stroke:#000000;stroke-width:0.81018460px;stroke-linecap:butt;stroke-linejoin:miter;stroke-opacity:1.0000000;display:inline" />
    </g>
    <path
       style="fill:#222222;fill-opacity:1;fill-rule:evenodd;stroke:#000000;stroke-width:0.80686522;stroke-linecap:butt;stroke-linejoin:miter;stroke-miterlimit:4.0000000;stroke-dasharray:none;stroke-opacity:1.0000000;display:inline"
       d="M 13.595267,12.193450 L 14.144641,18.663792 L 19.928892,17.743514 L 16.641386,11.638931"
       id="path3682"
       sodipodi:nodetypes="cccc" />
    <path
       style="fill:#222222;fill-opacity:1;fill-rule:evenodd;stroke:#000000;stroke-width:0.80686522;stroke-linecap:butt;stroke-linejoin:miter;stroke-miterlimit:4.0000000;stroke-dasharray:none;stroke-opacity:1.0000000;display:inline"
       d="M 13.994962,18.765237 C 17.965365,20.109408 20.197403,17.808113 20.197403,17.808113"
       id="path3684"
       sodipodi:nodetypes="cc" />
    <path
       style="fill:#000000;fill-opacity:1.0000000;fill-rule:nonzero;stroke:none;stroke-width:1.0000000px;stroke-linecap:butt;stroke-linejoin:miter;stroke-opacity:1.0000000;display:inline"
       d="M 16.183045,19.819167 C 16.896107,19.952290 17.715589,20.248187 18.438037,20.190251 C 18.136503,20.629827 17.670372,21.298814 17.161649,21.229431 C 16.198193,21.060768 15.739406,20.814261 15.297660,20.454348 C 15.533640,20.282212 15.947065,19.991303 16.183045,19.819167 z "
       id="path3686"
       sodipodi:nodetypes="ccccc" />
    <g
       style="display:inline"
       id="g3704"
       transform="matrix(1.014827,0.281571,-7.578854e-2,0.509109,58.93402,37.42442)">
      <path
         sodipodi:nodetypes="cccccccc"
         id="path3706"
         d="M -44.262037,27.119507 L -50.558137,27.19273 L -50.38136,32.496032 L -48.348428,32.496032 L -47.464545,30.197935 L -46.544049,32.538005 L -44.328979,32.49067 L -44.262037,27.119507 z "
         style="fill:#424242;fill-opacity:1;fill-rule:evenodd;stroke:#000000;stroke-width:1px;stroke-linecap:butt;stroke-linejoin:miter;stroke-opacity:1" />
      <path
         sodipodi:nodetypes="czcccc"
         id="path3708"
         d="M -49.237879,18.311952 C -49.211437,18.340419 -55.875868,8.722058 -47.605566,8.6233583 C -39.423652,8.5246586 -45.940838,18.339798 -45.940838,18.339798 L -44.131247,27.220984 L -50.660364,27.203222 L -49.237879,18.311952 z "
         style="fill:#222222;fill-opacity:1;fill-rule:evenodd;stroke:#000000;stroke-width:1px;stroke-linecap:butt;stroke-linejoin:miter;stroke-opacity:1" />
    </g>
    <g
       id="g3733"
       transform="matrix(0.946371,0,0,0.950165,79.25013,13.40328)">
      <path
         sodipodi:nodetypes="cccccccc"
         id="path3698"
         d="M -66.528242,12.381043 L -70.518949,16.844944 L -67.353228,19.127665 L -66.05107,17.697058 L -66.80766,16.03197 L -64.871148,16.446339 L -63.47957,14.866073 L -66.528242,12.381043 z "
         style="fill:#424242;fill-opacity:1;fill-rule:evenodd;stroke:#000000;stroke-width:0.83413351px;stroke-linecap:butt;stroke-linejoin:miter;stroke-opacity:1" />
      <path
         sodipodi:nodetypes="czcccc"
         id="path3700"
         d="M -74.784907,11.884952 C -74.751585,11.879266 -84.556531,12.203445 -79.315948,6.3387022 C -74.13198,0.5361595 -72.657019,9.577411 -72.657019,9.577411 L -66.386058,12.335063 L -70.57839,16.921645 L -74.784907,11.884952 z "
         style="fill:#222222;fill-opacity:1;fill-rule:evenodd;stroke:#000000;stroke-width:0.83413351px;stroke-linecap:butt;stroke-linejoin:miter;stroke-opacity:1" />
    </g>
    <g
       id="g1749"
       transform="translate(9.578222e-2,4.005202e-2)">
      <g
         transform="matrix(0.923030,0.000000,0.000000,0.917700,1.428688,0.986602)"
         id="g1744">
        <path
           id="path1706"
           d="M 13.968190,8.7659780 C 13.968190,10.544493 14.997108,11.987923 16.264881,11.987923 C 17.532654,11.987923 18.561568,10.544493 18.561568,8.7659780 C 18.561568,6.9874630 17.532654,5.5440300 16.264881,5.5440300 C 14.997108,5.5440300 13.968190,6.9874630 13.968190,8.7659780 z "
           style="fill:#000000;fill-opacity:1.0000000;fill-rule:nonzero;stroke:#0f0f0f;stroke-width:0.0000000;stroke-miterlimit:4.0000000;stroke-opacity:1.0000000" />
        <path
           id="path1712"
           d="M 14.631114,8.9995340 C 14.787586,10.421625 15.737595,11.472602 16.751665,11.345461 C 17.765739,11.218321 18.461768,9.9609710 18.305293,8.5388800 C 18.148824,7.1167920 17.198820,6.0658190 16.184746,6.1929590 C 15.170676,6.3200960 14.474646,7.5774460 14.631114,8.9995340 z "
           style="fill:#ffffff;fill-opacity:1.0000000;fill-rule:nonzero;stroke:#0f0f0f;stroke-width:0.0000000;stroke-miterlimit:4.0000000;stroke-opacity:1.0000000" />
        <path
           id="path1714"
           d="M 15.724336,9.6345490 C 15.724336,10.225223 16.233728,10.704615 16.861379,10.704615 C 17.489026,10.704615 17.998418,10.225223 17.998418,9.6345490 C 17.998418,9.0438750 17.489026,8.5644870 16.861379,8.5644870 C 16.233728,8.5644870 15.724336,9.0438750 15.724336,9.6345490 z "
           style="fill:#000000;fill-opacity:1.0000000;fill-rule:nonzero;stroke:#0f0f0f;stroke-width:0.0000000;stroke-miterlimit:4.0000000;stroke-opacity:1.0000000" />
      </g>
      <path
         style="fill:#000000;fill-opacity:1.0000000;fill-rule:nonzero;stroke:#0f0f0f;stroke-width:0.0000000;stroke-miterlimit:4.0000000;stroke-opacity:1.0000000;display:inline"
         d="M 10.784787,9.2079190 C 10.784787,10.986434 11.813705,12.429864 13.081478,12.429864 C 14.349251,12.429864 15.378165,10.986434 15.378165,9.2079190 C 15.378165,7.4294040 14.349251,5.9859710 13.081478,5.9859710 C 11.813705,5.9859710 10.784787,7.4294040 10.784787,9.2079190 z "
         id="path1724" />
      <path
         style="fill:#ffffff;fill-opacity:1.0000000;fill-rule:nonzero;stroke:#0f0f0f;stroke-width:0.0000000;stroke-miterlimit:4.0000000;stroke-opacity:1.0000000;display:inline"
         d="M 11.447711,9.4414750 C 11.604183,10.863566 12.554192,11.914543 13.568262,11.787402 C 14.582336,11.660262 15.278365,10.402912 15.121890,8.9808210 C 14.965421,7.5587330 14.015417,6.5077600 13.001343,6.6349000 C 11.987273,6.7620370 11.291243,8.0193870 11.447711,9.4414750 z "
         id="path1726" />
      <path
         style="fill:#000000;fill-opacity:1.0000000;fill-rule:nonzero;stroke:#0f0f0f;stroke-width:0.0000000;stroke-miterlimit:4.0000000;stroke-opacity:1.0000000;display:inline"
         d="M 12.540933,10.076490 C 12.540933,10.667164 13.050325,11.146556 13.677976,11.146556 C 14.305623,11.146556 14.815015,10.667164 14.815015,10.076490 C 14.815015,9.4858160 14.305623,9.0064280 13.677976,9.0064280 C 13.050325,9.0064280 12.540933,9.4858160 12.540933,10.076490 z "
         id="path1728" />
    </g>
  </g>
</svg>
