<?xml version="1.0" encoding="UTF-8" standalone="no"?>
<!-- Created with Inkscape (http://www.inkscape.org/) -->
<svg
   xmlns:dc="http://purl.org/dc/elements/1.1/"
   xmlns:cc="http://web.resource.org/cc/"
   xmlns:rdf="http://www.w3.org/1999/02/22-rdf-syntax-ns#"
   xmlns:svg="http://www.w3.org/2000/svg"
   xmlns="http://www.w3.org/2000/svg"
   xmlns:xlink="http://www.w3.org/1999/xlink"
   xmlns:sodipodi="http://inkscape.sourceforge.net/DTD/sodipodi-0.dtd"
   xmlns:inkscape="http://www.inkscape.org/namespaces/inkscape"
   width="32.000000px"
   height="44.000000px"
   id="svg1"
   sodipodi:version="0.32"
   inkscape:version="0.43"
   sodipodi:docbase="/home/yekcim/Desktop/SVG/Skins/gnuteam"
   sodipodi:docname="drowned.svg"
   inkscape:export-filename="/home/yekcim/Desktop/drowned.png"
   inkscape:export-xdpi="90.000000"
   inkscape:export-ydpi="90.000000"
   inkscape:output_extension="org.inkscape.output.svg.inkscape">
  <defs
     id="defs3">
    <defs
       id="defs1062">
      <linearGradient
         inkscape:collect="always"
         id="linearGradient10630">
        <stop
           style="stop-color:#616161;stop-opacity:1;"
           offset="0"
           id="stop10631" />
        <stop
           style="stop-color:#616161;stop-opacity:0;"
           offset="1"
           id="stop10632" />
      </linearGradient>
      <linearGradient
         inkscape:collect="always"
         id="linearGradient10560">
        <stop
           style="stop-color:#000000;stop-opacity:1;"
           offset="0"
           id="stop10561" />
        <stop
           style="stop-color:#000000;stop-opacity:0;"
           offset="1"
           id="stop10562" />
      </linearGradient>
      <linearGradient
         id="linearGradient13777">
        <stop
           offset="0.0000000"
           style="stop-color:#d17d00;stop-opacity:1.0000000;"
           id="stop13779" />
        <stop
           offset="1.0000000"
           style="stop-color:#a7b135;stop-opacity:0.0000000;"
           id="stop13778" />
      </linearGradient>
      <linearGradient
         id="linearGradient11847">
        <stop
           offset="0.0000000"
           style="stop-color:#000000;stop-opacity:1.0000000;"
           id="stop11849" />
        <stop
           offset="1.0000000"
           style="stop-color:#000000;stop-opacity:0.0000000;"
           id="stop11848" />
      </linearGradient>
      <linearGradient
         id="linearGradient6187">
        <stop
           style="stop-color:#2e1b0b;stop-opacity:1.0000000;"
           offset="0.0000000"
           id="stop6188" />
        <stop
           style="stop-color:#431e00;stop-opacity:0;"
           offset="1"
           id="stop6189" />
      </linearGradient>
      <linearGradient
         inkscape:collect="always"
         id="linearGradient4909">
        <stop
           style="stop-color:#000000;stop-opacity:1;"
           offset="0"
           id="stop4910" />
        <stop
           style="stop-color:#000000;stop-opacity:0;"
           offset="1"
           id="stop4911" />
      </linearGradient>
      <linearGradient
         id="linearGradient1780">
        <stop
           style="stop-color:#454545;stop-opacity:1.0000000;"
           offset="0.0000000"
           id="stop1781" />
        <stop
           style="stop-color:#ffffff;stop-opacity:0;"
           offset="1"
           id="stop1782" />
      </linearGradient>
      <linearGradient
         id="linearGradient3869">
        <stop
           offset="0.0000000"
           style="stop-color:#d2dd2e;stop-opacity:1.0000000;"
           id="stop3872" />
        <stop
           offset="0.76146787"
           style="stop-color:#b3b96d;stop-opacity:0.65555555;"
           id="stop3871" />
        <stop
           offset="1.0000000"
           style="stop-color:#b1b952;stop-opacity:0.0000000;"
           id="stop3870" />
      </linearGradient>
      <linearGradient
         inkscape:collect="always"
         xlink:href="#linearGradient9217"
         id="linearGradient3799"
         gradientUnits="userSpaceOnUse"
         gradientTransform="matrix(0.112563,0.000000,0.000000,0.115364,26.43402,157.1761)"
         x1="4373.3052"
         y1="319.33466"
         x2="96.982727"
         y2="2708.2139" />
      <linearGradient
         inkscape:collect="always"
         xlink:href="#linearGradient7337"
         id="linearGradient3800"
         gradientUnits="userSpaceOnUse"
         gradientTransform="matrix(0.230667,0.000000,0.000000,7.644947e-2,26.55186,129.5549)"
         x1="862.16510"
         y1="2479.5938"
         x2="1523.3719"
         y2="2479.5938" />
      <linearGradient
         inkscape:collect="always"
         xlink:href="#linearGradient5442"
         id="linearGradient3801"
         gradientUnits="userSpaceOnUse"
         gradientTransform="matrix(0.162855,0.000000,0.000000,7.648058e-2,75.52973,161.8049)"
         x1="580.22791"
         y1="2173.3171"
         x2="1782.0374"
         y2="1630.2036" />
      <radialGradient
         inkscape:collect="always"
         xlink:href="#linearGradient5442"
         id="radialGradient3802"
         gradientUnits="userSpaceOnUse"
         gradientTransform="matrix(0.159978,0.000000,0.000000,7.785591e-2,363.0923,173.8583)"
         cx="-606.79681"
         cy="1573.4399"
         fx="-606.79681"
         fy="1573.4399"
         r="739.70477" />
      <linearGradient
         inkscape:collect="always"
         xlink:href="#linearGradient21707"
         id="linearGradient3803"
         gradientUnits="userSpaceOnUse"
         gradientTransform="scale(0.659854,1.515487)"
         x1="4848.5972"
         y1="3945.1116"
         x2="5625.4653"
         y2="1720.9402" />
      <linearGradient
         inkscape:collect="always"
         xlink:href="#linearGradient7337"
         id="linearGradient3804"
         gradientUnits="userSpaceOnUse"
         gradientTransform="matrix(0.236634,0.000000,0.000000,0.208284,-2451.443,4783.687)"
         x1="-7797.7422"
         y1="5021.4731"
         x2="-352.84012"
         y2="1184.9034" />
      <linearGradient
         inkscape:collect="always"
         xlink:href="#linearGradient7337"
         id="linearGradient3805"
         gradientUnits="userSpaceOnUse"
         gradientTransform="matrix(0.236634,0.000000,0.000000,0.208284,-2451.443,4783.687)"
         x1="-7797.7422"
         y1="5021.4731"
         x2="-352.84012"
         y2="1184.9034" />
      <defs
         id="defs3745">
        <linearGradient
           id="linearGradient22333"
           x1="0.0000000"
           y1="0.50000000"
           x2="1.0000000"
           y2="0.50000000"
           gradientUnits="objectBoundingBox"
           spreadMethod="pad"
           xlink:href="#linearGradient13777" />
        <linearGradient
           id="linearGradient21707">
          <stop
             style="stop-color:#ffffff;stop-opacity:1.0000000;"
             offset="0.0000000"
             id="stop21708" />
          <stop
             style="stop-color:#a7b135;stop-opacity:0;"
             offset="1"
             id="stop21709" />
        </linearGradient>
        <linearGradient
           inkscape:collect="always"
           id="linearGradient9217"
           x1="0.0000000"
           y1="0.50000000"
           x2="1.0000000"
           y2="0.50000000"
           gradientUnits="objectBoundingBox"
           spreadMethod="pad"
           xlink:href="#linearGradient11847" />
        <linearGradient
           id="linearGradient8584">
          <stop
             style="stop-color:#000000;stop-opacity:1.0000000;"
             offset="0.0000000"
             id="stop8585" />
          <stop
             style="stop-color:#cece4c;stop-opacity:0;"
             offset="1"
             id="stop8586" />
        </linearGradient>
        <linearGradient
           id="linearGradient7337">
          <stop
             style="stop-color:#b1b12f;stop-opacity:1.0000000;"
             offset="0.0000000"
             id="stop7338" />
          <stop
             style="stop-color:#cece4c;stop-opacity:0;"
             offset="1"
             id="stop7339" />
        </linearGradient>
        <linearGradient
           id="linearGradient5442"
           x1="0.0000000"
           y1="0.50000000"
           x2="1.0000000"
           y2="0.50000000"
           gradientUnits="objectBoundingBox"
           spreadMethod="pad"
           xlink:href="#linearGradient3869" />
      </defs>
      <sodipodi:namedview
         id="namedview3772"
         pagecolor="#ffffff"
         bordercolor="#666666"
         borderopacity="1.0"
         inkscape:pageopacity="0.0"
         inkscape:pageshadow="2"
         inkscape:zoom="0.80057989"
         inkscape:cx="297.63780"
         inkscape:cy="420.94487"
         inkscape:current-layer="layer1"
         inkscape:window-width="1440"
         inkscape:window-height="851"
         inkscape:window-x="0"
         inkscape:window-y="27"
         showguides="true"
         inkscape:guide-bbox="true" />
      <metadata
         id="metadata3773">
        <rdf:RDF>
          <cc:Work
             rdf:about="">
            <dc:format>image/svg+xml</dc:format>
            <dc:type
               rdf:resource="http://purl.org/dc/dcmitype/StillImage" />
          </cc:Work>
        </rdf:RDF>
      </metadata>
      <linearGradient
         inkscape:collect="always"
         xlink:href="#linearGradient4909"
         id="linearGradient6167"
         gradientUnits="userSpaceOnUse"
         gradientTransform="scale(0.891889,1.121216)"
         x1="-148.77991"
         y1="106.31860"
         x2="-160.14931"
         y2="-66.932083" />
      <linearGradient
         inkscape:collect="always"
         xlink:href="#linearGradient10560"
         id="linearGradient10563"
         gradientTransform="matrix(0.915477,0.127968,-0.149762,1.071392,19.54851,-8.453410)"
         x1="698.54480"
         y1="69.852913"
         x2="758.31232"
         y2="359.09653"
         gradientUnits="userSpaceOnUse" />
      <linearGradient
         inkscape:collect="always"
         xlink:href="#linearGradient10560"
         id="linearGradient10578"
         gradientUnits="userSpaceOnUse"
         gradientTransform="matrix(0.915477,0.127968,-0.149762,1.071392,0.000000,0.000000)"
         x1="647.37115"
         y1="96.894905"
         x2="770.59186"
         y2="342.74301" />
      <linearGradient
         inkscape:collect="always"
         xlink:href="#linearGradient4909"
         id="linearGradient10604"
         gradientUnits="userSpaceOnUse"
         gradientTransform="scale(0.891889,1.121216)"
         x1="-148.77991"
         y1="106.31860"
         x2="-160.14931"
         y2="-66.932083" />
      <linearGradient
         inkscape:collect="always"
         xlink:href="#linearGradient10630"
         id="linearGradient10633"
         gradientTransform="scale(0.883732,1.131565)"
         x1="-164.59187"
         y1="105.15539"
         x2="-154.14560"
         y2="3.6783011"
         gradientUnits="userSpaceOnUse" />
      <linearGradient
         inkscape:collect="always"
         xlink:href="#linearGradient10630"
         id="linearGradient10647"
         gradientUnits="userSpaceOnUse"
         gradientTransform="scale(0.883732,1.131565)"
         x1="-164.59187"
         y1="105.15539"
         x2="-154.14560"
         y2="3.6783011" />
      <radialGradient
         inkscape:collect="always"
         xlink:href="#linearGradient1780"
         id="radialGradient5568"
         gradientUnits="userSpaceOnUse"
         gradientTransform="matrix(-0.663014,1.058409,1.330757,0.590372,-891.7907,666.4254)"
         cx="-446.72464"
         cy="218.60974"
         fx="-446.72464"
         fy="218.60974"
         r="308.80975" />
      <linearGradient
         inkscape:collect="always"
         xlink:href="#linearGradient10630"
         id="linearGradient4391"
         gradientUnits="userSpaceOnUse"
         gradientTransform="matrix(0.437171,-0.479724,0.614848,0.557530,723.0732,-61.92042)"
         x1="-164.59187"
         y1="105.15539"
         x2="-154.14560"
         y2="3.6783011" />
    </defs>
  </defs>
  <sodipodi:namedview
     id="base"
     pagecolor="#ffffff"
     bordercolor="#666666"
     borderopacity="1.0"
     inkscape:pageopacity="0.0"
     inkscape:pageshadow="2"
     inkscape:zoom="12.296629"
     inkscape:cx="25.272818"
     inkscape:cy="20.040761"
     inkscape:current-layer="layer1"
     inkscape:window-width="1440"
     inkscape:window-height="826"
     inkscape:window-x="0"
     inkscape:window-y="26" />
  <metadata
     id="metadata4">
    <rdf:RDF>
      <cc:Work
         rdf:about="">
        <dc:format>image/svg+xml</dc:format>
        <dc:type
           rdf:resource="http://purl.org/dc/dcmitype/StillImage" />
      </cc:Work>
    </rdf:RDF>
  </metadata>
  <g
     inkscape:groupmode="layer"
     id="layer1"
     inkscape:label="gnu">
    <g
       id="g3784"
       transform="translate(0.000000,0.162646)">
      <g
         transform="matrix(-0.757324,0.000000,0.000000,0.760360,417.0833,-59.66217)"
         id="g4366"
         inkscape:label="Layer 1" />
      <g
         transform="matrix(-0.757324,0.000000,0.000000,0.760360,1512.413,256.6774)"
         inkscape:label="Layer 1"
         id="g4368" />
      <g
         transform="matrix(-0.757324,0.000000,0.000000,0.760360,2143.849,225.8101)"
         id="g4370"
         inkscape:label="Layer 1" />
      <g
         transform="matrix(-0.256445,-0.846392,0.971526,-0.299933,-4.866545,-40.71591)"
         id="g2484">
        <path
           style="fill:#767676;fill-opacity:1.0000000;fill-rule:evenodd;stroke:#000000;stroke-width:0.83413351px;stroke-linecap:butt;stroke-linejoin:miter;stroke-opacity:1.0000000"
           d="M -66.528242,12.381043 L -70.518949,16.844944 L -67.353228,19.127665 L -66.051070,17.697058 L -66.807660,16.031970 L -64.871148,16.446339 L -63.479570,14.866073 L -66.528242,12.381043 z "
           id="path2486"
           sodipodi:nodetypes="cccccccc" />
        <path
           style="fill:#6f5532;fill-opacity:1.0000000;fill-rule:evenodd;stroke:#000000;stroke-width:0.83413351px;stroke-linecap:butt;stroke-linejoin:miter;stroke-opacity:1.0000000"
           d="M -74.784907,11.884952 C -74.751585,11.879266 -84.556531,12.203445 -79.315948,6.3387022 C -74.131980,0.53615950 -72.657019,9.5774110 -72.657019,9.5774110 L -66.386058,12.335063 L -70.578390,16.921645 L -74.784907,11.884952 z "
           id="path2488"
           sodipodi:nodetypes="czcccc" />
      </g>
      <g
         transform="matrix(-0.382906,0.923787,-0.923787,-0.382906,45.41374,34.86585)"
         id="g4716">
        <path
           style="fill:#000000;fill-opacity:1.0000000;fill-rule:nonzero;stroke:none;stroke-width:1.0000000px;stroke-linecap:butt;stroke-linejoin:miter;stroke-opacity:1.0000000;display:inline"
           id="path3467"
           d="M 9.4600095,33.964089 C 8.8154919,34.986851 8.2740751,36.090607 7.6902586,37.157931 C 6.7931903,38.736120 5.7960549,40.297907 4.4837487,41.389546 C 4.0699890,41.732676 3.6227256,41.967633 3.1758653,42.187411 L 2.5616083,42.182292 C 3.0086660,41.968272 3.4566030,41.740364 3.8722879,41.403773 C 5.1912471,40.332122 6.2114163,38.787464 7.1035882,37.206364 C 7.6773429,36.155782 8.2086184,35.064818 8.7866534,34.023141 L 9.4600095,33.964089 z " />
        <path
           style="fill:#000000;fill-opacity:1.0000000;fill-rule:nonzero;stroke:none;stroke-width:1.0000000px;stroke-linecap:butt;stroke-linejoin:miter;stroke-opacity:1.0000000"
           id="path2574"
           d="M 9.4274805,33.040487 C 9.2229451,33.023831 8.4984912,33.053390 9.4954489,32.982470 C 9.7794320,32.962268 8.9180486,33.163202 8.6383030,33.314378 C 7.0605315,34.269185 6.5401618,36.402835 6.1559750,38.214168 C 5.8917546,39.415815 5.7074047,40.648343 5.2532005,41.819514 C 5.1711487,42.032181 5.0503090,42.220815 4.9318969,42.410035 L 4.2817486,42.454962 C 4.4008395,42.272765 4.5236689,42.091920 4.6081795,41.885584 C 5.0844437,40.724555 5.2812786,39.489373 5.5587070,38.291595 C 5.9576334,36.472894 6.4625769,34.315277 8.0312828,33.313829 C 8.6605634,32.949385 9.5766332,32.595347 10.106082,32.916146 L 9.4274805,33.040487 z " />
        <path
           style="fill:#000000;fill-opacity:1.0000000;fill-rule:nonzero;stroke:none;stroke-width:1.0000000px;stroke-linecap:butt;stroke-linejoin:miter;stroke-opacity:1.0000000"
           id="path2576"
           d="M 13.878804,30.760613 C 13.736822,30.691653 13.405781,30.761406 12.068099,31.438025 C 9.5277127,32.679685 7.7541314,35.191581 6.1113541,37.860526 C 5.5490600,38.822858 4.9400279,39.743439 4.2864902,40.623338 L 3.6759433,40.659419 C 4.3444097,39.783450 4.9684776,38.864820 5.5446196,37.902105 C 7.2123376,35.248802 8.9764465,32.704690 11.516229,31.435224 C 12.456222,30.937251 13.638662,30.362681 14.558738,30.571699 L 13.878804,30.760613 z " />
        <path
           style="fill:#000000;fill-opacity:1.0000000;fill-rule:nonzero;stroke:none;stroke-width:1.0000000px;stroke-linecap:butt;stroke-linejoin:miter;stroke-opacity:1.0000000"
           id="path2578"
           d="M 11.195477,26.637617 C 11.004504,26.783921 11.088662,26.674558 11.780160,26.447577 C 11.961052,26.388200 11.495457,26.796941 11.385366,27.003823 C 11.116153,27.509727 10.895742,28.051119 10.672819,28.588249 C 9.9009092,30.443342 9.2908764,32.381212 8.6007524,34.278026 C 8.1340137,35.607275 7.4537065,36.799528 6.5713927,37.734153 C 6.3023614,38.005564 6.0080712,38.221925 5.7079076,38.415225 L 5.0871191,38.519672 C 5.3909925,38.334065 5.6879429,38.120505 5.9623012,37.856521 C 6.8545527,36.942201 7.5379781,35.752424 8.0177818,34.433484 C 8.7243881,32.542838 9.3331843,30.603247 10.092164,28.739316 C 10.554235,27.610306 10.800518,26.486207 11.829271,26.327289 L 11.195477,26.637617 z " />
        <path
           style="fill:#000000;fill-opacity:1.0000000;fill-rule:nonzero;stroke:none;stroke-width:1.0000000px;stroke-linecap:butt;stroke-linejoin:miter;stroke-opacity:1.0000000"
           id="path2580"
           d="M 11.678948,26.103310 C 11.470634,26.274106 11.616948,26.125487 12.235628,25.928741 C 12.397944,25.877122 11.946608,26.181999 11.825168,26.343912 C 11.487678,26.793872 11.245335,27.345788 11.020890,27.889385 C 10.270525,29.942907 9.7860395,32.104416 9.0873739,34.180104 C 8.5312793,35.795866 7.8810745,37.381264 7.0431516,38.811590 C 6.8261318,39.175410 6.5876858,39.519227 6.3199111,39.820685 L 5.6943444,39.948617 C 5.9690096,39.655931 6.2118538,39.314602 6.4348582,38.954965 C 7.2933373,37.536826 7.9603265,35.952732 8.5223178,34.333556 C 9.2222949,32.260407 9.7170728,30.107159 10.436074,28.042178 C 10.897330,26.878983 11.297450,25.980967 12.311213,25.793731 L 11.678948,26.103310 z " />
        <path
           style="fill:#000000;fill-opacity:1.0000000;fill-rule:nonzero;stroke:none;stroke-width:1.0000000px;stroke-linecap:butt;stroke-linejoin:miter;stroke-opacity:1.0000000"
           id="path2582"
           d="M 12.920048,25.286728 C 12.944986,25.231790 12.735289,25.339419 12.781281,25.323937 C 12.970360,25.260286 13.158517,25.187031 13.348322,25.131169 C 13.519233,25.080867 13.033258,25.363897 12.887896,25.506352 C 12.607105,25.781531 12.337874,26.075965 12.070940,26.374978 C 10.455716,28.197550 9.6397062,30.778383 8.9663822,33.277014 C 8.5809610,34.724534 8.2655771,36.190879 7.9847838,37.662938 L 7.4081897,37.832891 C 7.7059427,36.355848 8.0285172,34.883031 8.4238563,33.430183 C 9.0987264,30.939956 9.9029856,28.349594 11.484576,26.496332 C 12.072957,25.821882 12.745842,24.908463 13.552925,24.976850 L 12.920048,25.286728 z " />
        <path
           style="fill:#000000;fill-opacity:1.0000000;fill-rule:nonzero;stroke:none;stroke-width:1.0000000px;stroke-linecap:butt;stroke-linejoin:miter;stroke-opacity:1.0000000"
           id="path2584"
           d="M 12.602416,29.143881 C 12.604368,29.137833 12.420758,29.186723 12.424222,29.185808 C 12.595547,29.140535 12.766654,29.088433 12.938134,29.048460 C 13.126029,29.004660 12.565439,29.189724 12.382020,29.278810 C 11.986944,29.470699 11.607806,29.712422 11.228141,29.965323 C 8.9858706,31.346595 7.7999136,33.875432 6.7635071,36.614136 C 6.4916666,37.351445 6.2447868,38.098998 5.9975216,38.846055 L 5.4346957,38.965411 C 5.6915319,38.216295 5.9471882,37.466466 6.2227775,36.725089 C 7.2744471,34.004238 8.4118788,31.434891 10.648268,30.030389 C 11.446163,29.487738 12.394526,28.870111 13.255618,28.876812 L 12.602416,29.143881 z " />
        <path
           style="fill:#000000;fill-opacity:1.0000000;fill-rule:nonzero;stroke:none;stroke-width:1.0000000px;stroke-linecap:butt;stroke-linejoin:miter;stroke-opacity:1.0000000"
           id="path2586"
           d="M 13.090107,31.028331 C 13.130118,30.976320 12.882115,31.036285 12.934853,31.028169 C 14.140158,30.842724 12.729955,31.197726 12.213999,31.560087 C 10.663233,32.862162 9.7027281,34.939080 8.7500427,36.835021 C 8.1074640,38.151239 7.4646017,39.495829 6.4492639,40.469148 C 5.6062859,41.289724 4.6858120,41.380039 3.7570867,41.515224 C 3.7230715,41.517212 3.6890571,41.519202 3.6550434,41.521188 L 4.3095996,41.303229 C 4.3428830,41.300456 4.3761674,41.297682 4.4094514,41.294909 C 4.2318869,41.322719 4.0543734,41.349761 3.8767574,41.378346 C 3.7505168,41.398662 4.1292341,41.339760 4.2558259,41.311624 C 4.8047000,41.189636 5.3400402,40.941285 5.8247837,40.489935 C 6.8498017,39.535046 7.5077650,38.199535 8.1567883,36.887177 C 9.1201134,34.988500 10.088371,32.932432 11.605063,31.568987 C 12.258480,31.081842 13.094045,30.675409 13.769713,30.839506 L 13.090107,31.028331 z " />
        <path
           style="fill:#000000;fill-opacity:1.0000000;fill-rule:nonzero;stroke:none;stroke-width:1.0000000px;stroke-linecap:butt;stroke-linejoin:miter;stroke-opacity:1.0000000"
           id="path2588"
           d="M 13.519984,30.208242 C 13.534082,30.173028 13.395884,30.205519 13.400310,30.204941 C 14.568870,30.053108 13.352763,30.427275 12.881340,30.747856 C 10.967579,32.138525 9.6039530,34.458969 8.2035876,36.548055 C 7.2580216,38.027826 6.1125086,39.219496 4.8564311,40.244871 C 4.2490084,40.739854 3.6433140,41.256342 2.9683839,41.501286 L 2.3326667,41.486962 C 3.0143070,41.260289 3.6283457,40.753751 4.2420186,40.258510 C 5.5073716,39.242261 6.6644125,38.063320 7.6236373,36.586954 C 9.0415312,34.515704 10.400312,32.201131 12.281812,30.754986 C 12.871436,30.337483 13.584081,29.817869 14.199588,30.019420 L 13.519984,30.208242 z " />
        <path
           style="fill:#000000;fill-opacity:1.0000000;fill-rule:nonzero;stroke:none;stroke-width:1.0000000px;stroke-linecap:butt;stroke-linejoin:miter;stroke-opacity:1.0000000"
           id="path2590"
           d="M 14.010052,31.976174 C 13.874701,31.825437 11.946855,32.474292 10.723375,33.195355 C 8.8297272,34.398230 7.4042591,36.500628 5.9284960,38.393185 C 5.2022217,39.321248 4.3582943,40.086034 3.4973978,40.785551 L 2.8841207,40.798822 C 3.7525152,40.109340 4.6026643,39.351226 5.3360693,38.426196 C 6.8333708,36.540368 8.2687399,34.430182 10.159850,33.196712 C 11.580722,32.347551 13.249305,31.668150 14.689331,31.787442 L 14.010052,31.976174 z " />
        <path
           style="fill:#000000;fill-opacity:1.0000000;fill-rule:nonzero;stroke:none;stroke-width:1.0000000px;stroke-linecap:butt;stroke-linejoin:miter;stroke-opacity:1.0000000"
           id="path2592"
           d="M 10.500795,33.073821 C 9.8562773,34.096583 9.3148605,35.200339 8.7310440,36.267663 C 7.8339757,37.845852 6.8368403,39.407639 5.5245341,40.499278 C 5.1107744,40.842408 4.6635110,41.077365 4.2166507,41.297143 L 3.6023937,41.292024 C 4.0494514,41.078004 4.4973884,40.850096 4.9130733,40.513505 C 6.2320325,39.441854 7.2522017,37.897196 8.1443736,36.316096 C 8.7181283,35.265514 9.2494038,34.174550 9.8274388,33.132873 L 10.500795,33.073821 z " />
      </g>
      <g
         transform="matrix(1.034938,-0.194231,0.154475,0.490843,66.40836,17.16233)"
         id="g3710"
         style="display:inline">
        <path
           style="fill:#767676;fill-opacity:1.0000000;fill-rule:evenodd;stroke:#000000;stroke-width:1.0000000px;stroke-linecap:butt;stroke-linejoin:miter;stroke-opacity:1.0000000"
           d="M -44.262037,27.119507 L -50.558137,27.192730 L -50.381360,32.496032 L -48.348428,32.496032 L -47.464545,30.197935 L -46.544049,32.538005 L -44.328979,32.490670 L -44.262037,27.119507 z "
           id="path3712"
           sodipodi:nodetypes="cccccccc" />
        <path
           style="fill:#6f5532;fill-opacity:1.0000000;fill-rule:evenodd;stroke:#000000;stroke-width:1.0000000px;stroke-linecap:butt;stroke-linejoin:miter;stroke-opacity:1.0000000"
           d="M -49.237879,18.311952 C -49.211437,18.340419 -55.875868,8.7220580 -47.605566,8.6233583 C -39.423652,8.5246586 -45.940838,18.339798 -45.940838,18.339798 L -44.131247,27.220984 L -50.660364,27.203222 L -49.237879,18.311952 z "
           id="path3714"
           sodipodi:nodetypes="czcccc" />
      </g>
      <g
         transform="matrix(0.946371,0.000000,0.000000,0.950165,101.0617,10.73802)"
         id="g3598">
        <path
           style="fill:#6f5532;fill-opacity:1.0000000;fill-rule:evenodd;stroke:none;stroke-width:0.92659229;stroke-linecap:butt;stroke-linejoin:miter;stroke-miterlimit:4.0000000;stroke-dasharray:none;stroke-opacity:1.0000000;display:inline"
           d="M -85.538541,6.9180973 C -84.395005,4.6504823 -82.176317,-2.5520105 -83.408179,-4.2403730 C -84.697516,-6.0075098 -88.124538,-8.7395273 -92.790762,-3.7640405 C -98.730500,2.5693644 -99.327672,30.006491 -88.415762,29.142209 C -74.828373,29.034734 -76.830957,16.414024 -82.665762,14.485959 C -82.665762,14.485959 -86.682077,9.1857123 -85.538541,6.9180973 z M -82.728262,14.454709 C -84.054988,14.042400 -85.543813,14.359892 -87.165762,15.142209"
           id="path3596"
           sodipodi:nodetypes="czsccscc" />
        <path
           style="fill:none;fill-opacity:1.0000000;fill-rule:evenodd;stroke:#000000;stroke-width:0.92659229;stroke-linecap:butt;stroke-linejoin:miter;stroke-miterlimit:4.0000000;stroke-dasharray:none;stroke-opacity:1.0000000;display:inline"
           d="M -83.540762,-4.1077905 C -83.667682,-4.3332682 -85.133952,-6.8092252 -87.884512,-6.5765405 C -87.926203,-6.5730137 -87.967244,-6.5813420 -88.009512,-6.5765405 C -89.319821,-6.4276930 -90.908771,-5.6459351 -92.790762,-3.7640405 C -98.930642,2.3755338 -99.327672,30.006491 -88.415762,29.142209 C -74.828373,29.034734 -76.830957,16.414024 -82.665762,14.485959 C -82.665762,14.485959 -86.903048,9.0973243 -85.759512,6.8297093 M -82.728262,14.454709 C -84.054988,14.042400 -85.543813,14.359892 -87.165762,15.142209"
           id="path3594"
           sodipodi:nodetypes="cscsccscc" />
      </g>
      <path
         id="path3602"
         d="M 22.546397,26.788347 C 22.495838,27.751594 23.071313,28.967157 23.180266,29.187890 L 20.132819,27.748164 C 20.133858,27.752370 20.131501,27.766065 20.132819,27.772160 C 20.139978,27.811357 20.134928,27.892053 20.132819,27.964124 C 20.123689,28.127739 20.060833,28.364718 19.840263,28.540013 C 19.835085,28.543953 19.821232,28.560117 19.815885,28.564009 C 19.799328,28.575541 19.760888,28.600948 19.742746,28.612001 C 19.717828,28.626506 19.673146,28.646500 19.645227,28.659990 C 19.401320,28.772323 19.043117,28.840690 18.523766,28.827959 C 18.325190,28.823092 18.179004,28.836812 18.109313,28.851955 C 18.104637,28.853233 18.088938,28.850564 18.084934,28.851955 C 18.081593,28.853458 18.063245,28.874335 18.060555,28.875949 C 18.059748,28.877895 18.060754,28.897890 18.060555,28.899945 C 18.062106,28.902322 18.058442,28.921458 18.060555,28.923940 C 18.068543,28.931706 18.096576,28.939234 18.109313,28.947936 C 18.548788,29.225694 21.137028,29.961905 21.424936,30.843575 C 21.426357,30.848350 21.423651,30.862786 21.424936,30.867570 C 21.427235,30.877160 21.447575,30.905935 21.449315,30.915561 C 21.450044,30.920385 21.448730,30.934726 21.449315,30.939557 C 21.450198,30.949240 21.449018,30.977830 21.449315,30.987548 C 21.449315,31.201717 21.349014,31.402494 21.205519,31.563438 C 20.577341,32.234252 18.958986,32.479797 18.596906,32.523255 C 19.155655,32.535765 22.500645,32.648361 22.692675,33.483074 C 22.699221,33.511529 22.717253,33.550535 22.717055,33.579055 C 22.709326,33.700287 22.629658,33.843803 22.522017,33.962981 C 21.853573,34.669448 19.756439,35.308222 19.596468,35.354717 C 19.798862,35.410412 20.737774,35.648718 22.570777,35.690653 C 24.174655,35.727347 24.554937,34.964401 24.643040,34.610858 C 24.655571,34.555859 24.665119,34.494319 24.667420,34.466886 C 24.725216,34.505882 25.170465,34.783475 25.788881,35.066771 C 26.141217,34.659635 26.435134,34.203430 26.617787,33.675036 C 26.619625,33.669722 26.615972,33.656368 26.617787,33.651041 C 26.340478,33.475301 26.134182,33.317552 26.081436,33.195128 C 26.080403,33.192410 26.082312,33.173814 26.081436,33.171132 C 26.080876,33.168523 26.081834,33.149708 26.081436,33.147138 C 26.081366,33.144639 26.081340,33.125601 26.081436,33.123141 C 26.082044,33.120799 26.080655,33.101448 26.081436,33.099147 C 26.082569,33.096924 26.080124,33.077331 26.081436,33.075150 C 26.084787,33.070955 26.101724,33.055182 26.105815,33.051156 C 26.110662,33.047299 26.124578,33.030840 26.130196,33.027159 C 26.133198,33.025363 26.151376,33.028911 26.154575,33.027159 C 26.208958,32.999850 26.289264,32.970150 26.398371,32.955173 C 26.534755,32.936453 26.661537,32.923357 26.788443,32.931178 C 26.864144,32.349757 26.808149,31.724326 26.569027,31.011543 C 26.267109,30.111565 25.849238,29.373399 25.350049,28.779968 C 25.346720,28.776012 25.329003,28.783912 25.325669,28.779968 C 25.312544,28.780107 25.290003,28.779968 25.276910,28.779968 C 25.041238,28.779968 24.857002,28.706918 24.716180,28.588005 C 24.527090,28.415257 24.405305,28.128447 24.350486,27.820151 C 24.347044,27.817478 24.353929,27.798818 24.350486,27.796156 C 23.763289,27.342133 23.124084,27.020583 22.546397,26.788347 z "
         style="fill:#d1ce86;fill-opacity:1.0000000;fill-rule:evenodd;stroke:#000000;stroke-width:0.65601468;stroke-linecap:butt;stroke-linejoin:miter;stroke-miterlimit:4.0000000;stroke-dasharray:none;stroke-opacity:1.0000000;display:inline" />
      <path
         id="path3604"
         d="M 24.263509,32.184106 C 25.892397,32.226591 24.246987,31.131555 24.492158,32.377871 C 23.383871,32.784460 23.448346,32.480394 24.283767,32.868052 L 23.018941,32.355028 C 24.069511,33.007696 24.697304,33.776471 25.711936,33.026875 C 25.806638,31.799358 24.009575,30.824303 22.997177,31.560603 L 24.263509,32.184106 z "
         style="fill:#000000;fill-opacity:1.0000000;fill-rule:nonzero;stroke:none;stroke-width:1.0000000pt;stroke-linecap:butt;stroke-linejoin:miter;stroke-opacity:1.0000000;display:inline" />
      <g
         transform="matrix(1.014827,0.281571,-7.578854e-2,0.509109,62.36290,39.24725)"
         id="g3704"
         style="display:inline">
        <path
           style="fill:#767676;fill-opacity:1.0000000;fill-rule:evenodd;stroke:#000000;stroke-width:1.0000000px;stroke-linecap:butt;stroke-linejoin:miter;stroke-opacity:1.0000000"
           d="M -44.262037,27.119507 L -50.558137,27.192730 L -50.381360,32.496032 L -48.348428,32.496032 L -47.464545,30.197935 L -46.544049,32.538005 L -44.328979,32.490670 L -44.262037,27.119507 z "
           id="path3706"
           sodipodi:nodetypes="cccccccc" />
        <path
           style="fill:#6f5532;fill-opacity:1.0000000;fill-rule:evenodd;stroke:#000000;stroke-width:1.0000000px;stroke-linecap:butt;stroke-linejoin:miter;stroke-opacity:1.0000000"
           d="M -49.237879,18.311952 C -49.211437,18.340419 -55.875868,8.7220580 -47.605566,8.6233583 C -39.423652,8.5246586 -45.940838,18.339798 -45.940838,18.339798 L -44.131247,27.220984 L -50.660364,27.203222 L -49.237879,18.311952 z "
           id="path3708"
           sodipodi:nodetypes="czcccc" />
      </g>
      <path
         d="M 20.099978,20.400957 C 20.592650,19.984428 20.562746,20.329183 21.279525,20.324181 C 21.815472,20.354487 22.983071,20.110410 22.916354,20.600446 C 22.445846,21.390337 21.533055,22.224440 20.917113,23.036071 C 20.767596,23.237799 20.840328,23.138624 20.698755,23.333608 L 20.358511,23.575847 C 20.503827,23.377813 20.429237,23.478516 20.582428,23.273722 C 21.198045,22.468045 22.087807,21.642777 22.572060,20.856310 C 22.657608,20.372310 21.483935,20.611422 20.971236,20.579195 C 20.488666,20.585969 19.624913,20.677530 20.428462,20.106980 L 20.099978,20.400957 z "
         id="path3606"
         style="fill:#d1ce86;fill-opacity:1.0000000;fill-rule:nonzero;stroke:none;stroke-width:1.0000000px;stroke-linecap:butt;stroke-linejoin:miter;stroke-opacity:1.0000000;display:inline" />
      <path
         d="M 22.280630,18.945165 C 22.437750,18.994042 22.655269,19.005918 22.834896,19.040576 C 23.185938,19.212438 22.953399,19.698206 23.141050,19.971590 C 23.498314,20.290618 24.234426,20.320545 24.722871,20.543942 L 24.387243,20.810109 C 23.910248,20.575721 23.192031,20.529660 22.818726,20.220751 C 22.621083,19.958042 22.829729,19.490192 22.494892,19.315169 C 22.306864,19.278873 22.092255,19.267210 21.909898,19.226222 L 22.280630,18.945165 z "
         id="path3608"
         style="fill:#d1ce86;fill-opacity:1.0000000;fill-rule:nonzero;stroke:none;stroke-width:1.0000000px;stroke-linecap:butt;stroke-linejoin:miter;stroke-opacity:1.0000000;display:inline" />
      <path
         d="M 23.829454,17.962146 C 24.396572,17.457488 23.991224,18.041810 24.170028,18.255282 C 24.556633,18.594048 25.252776,18.750765 25.101338,19.379085 C 24.879394,19.950028 24.407713,20.572522 24.118142,21.159217 C 24.103628,21.190143 24.089112,21.221072 24.074598,21.252000 L 23.723989,21.506853 C 23.738968,21.475435 23.753947,21.444017 23.768928,21.412600 C 24.062529,20.824206 24.535556,20.201136 24.765132,19.627481 C 24.922595,19.002051 24.248851,18.831277 23.840651,18.511174 C 23.627892,18.287401 23.592424,18.063362 24.157938,17.668168 L 23.829454,17.962146 z "
         id="path3610"
         style="fill:#d1ce86;fill-opacity:1.0000000;fill-rule:nonzero;stroke:none;stroke-width:1.0000000px;stroke-linecap:butt;stroke-linejoin:miter;stroke-opacity:1.0000000;display:inline" />
      <path
         d="M 21.444460,19.354152 C 21.526063,19.450076 21.702651,19.489252 21.838602,19.549054 C 22.245776,19.760815 21.598791,20.395225 21.262071,20.854415 C 20.670370,21.579426 21.212411,21.804926 21.779327,21.986168 L 21.472143,22.232307 C 20.910449,22.046623 20.315602,21.835835 20.914402,21.101868 C 21.240775,20.656806 21.889210,20.026853 21.499126,19.818761 C 21.358539,19.757184 21.183431,19.717971 21.073728,19.635209 L 21.444460,19.354152 z "
         id="path3612"
         style="fill:#d1ce86;fill-opacity:1.0000000;fill-rule:nonzero;stroke:none;stroke-width:1.0000000px;stroke-linecap:butt;stroke-linejoin:miter;stroke-opacity:1.0000000;display:inline" />
      <path
         d="M 21.411218,18.976669 C 21.333723,19.275713 21.310034,19.552761 21.420728,19.774418 C 21.742330,20.190963 22.528505,20.282483 23.083560,20.534048 C 23.418450,20.666277 23.459939,20.937977 23.389304,21.277935 L 23.041432,21.535458 C 23.117322,21.198288 23.082665,20.927139 22.758042,20.792654 C 22.212150,20.531140 21.437086,20.429950 21.095085,20.024583 C 20.975593,19.813197 20.981489,19.545392 21.040797,19.257489 L 21.411218,18.976669 z "
         id="path3614"
         style="fill:#d1ce86;fill-opacity:1.0000000;fill-rule:nonzero;stroke:none;stroke-width:1.0000000px;stroke-linecap:butt;stroke-linejoin:miter;stroke-opacity:1.0000000;display:inline" />
      <path
         d="M 23.114410,18.523560 C 23.049815,18.543693 23.011063,18.585121 22.959808,18.618707 C 23.448349,18.189968 23.170905,18.506172 23.221347,18.687544 C 23.381832,19.012844 23.812020,19.173691 24.037730,19.459906 C 24.247411,19.797835 23.738680,20.430213 23.342874,20.937638 C 23.202958,21.114290 23.052947,21.291371 22.903468,21.468370 L 22.540559,21.724127 C 22.692806,21.545342 22.845427,21.366500 22.989601,21.187953 C 23.387160,20.686775 23.897587,20.060021 23.699157,19.722073 C 23.477997,19.432010 23.056013,19.265110 22.879940,18.947698 C 22.801524,18.736837 22.924076,18.484327 23.442344,18.230074 L 23.114410,18.523560 z "
         id="path3616"
         style="fill:#d1ce86;fill-opacity:1.0000000;fill-rule:nonzero;stroke:none;stroke-width:1.0000000px;stroke-linecap:butt;stroke-linejoin:miter;stroke-opacity:1.0000000;display:inline" />
      <path
         d="M 19.546436,19.975189 C 19.539747,20.213840 19.581598,20.430595 19.692523,20.614116 C 19.907012,20.962510 20.426493,21.086496 20.992432,21.170857 C 21.463437,21.216375 21.771529,21.365037 21.869813,21.669180 C 21.921005,21.893644 21.858915,22.172231 22.015093,22.344234 C 22.063502,22.384885 22.147817,22.395202 22.231573,22.406630 L 21.891341,22.684260 C 21.804839,22.670860 21.717561,22.658540 21.666498,22.616157 C 21.506880,22.442799 21.567891,22.163111 21.522829,21.932810 C 21.432626,21.628949 21.128864,21.483437 20.669143,21.433485 C 20.103374,21.343414 19.578841,21.220900 19.359703,20.870585 C 19.245313,20.691418 19.195613,20.481301 19.175704,20.256246 L 19.546436,19.975189 z "
         id="path3618"
         style="fill:#d1ce86;fill-opacity:1.0000000;fill-rule:nonzero;stroke:none;stroke-width:1.0000000px;stroke-linecap:butt;stroke-linejoin:miter;stroke-opacity:1.0000000;display:inline" />
      <path
         d="M 20.336147,19.564479 C 20.149187,19.907307 20.079225,20.221051 20.155073,20.476246 C 20.404472,20.960262 21.348581,20.955949 22.029305,21.119439 C 22.520084,21.208498 22.505558,21.561327 22.420192,21.959980 C 22.380999,22.121118 22.311484,22.291102 22.231509,22.463398 L 21.863730,22.730376 C 21.947693,22.556751 22.021087,22.385403 22.065082,22.222334 C 22.160288,21.825060 22.184939,21.473040 21.708568,21.377891 C 21.033637,21.204789 20.095871,21.199899 19.829290,20.724434 C 19.747679,20.484545 19.785988,20.169689 19.965416,19.845536 L 20.336147,19.564479 z "
         id="path3620"
         style="fill:#d1ce86;fill-opacity:1.0000000;fill-rule:nonzero;stroke:none;stroke-width:1.0000000px;stroke-linecap:butt;stroke-linejoin:miter;stroke-opacity:1.0000000;display:inline" />
      <path
         d="M 22.378372,18.955941 C 23.012650,18.392797 22.563350,18.959133 22.529934,19.195386 C 22.560214,19.647175 22.944439,19.918352 23.217538,20.240105 C 23.516821,20.542107 23.400418,21.022722 23.211577,21.526533 C 23.102458,21.815682 22.960650,22.113055 22.812420,22.411646 L 22.453703,22.671830 C 22.606889,22.370203 22.755681,22.069277 22.869490,21.776930 C 23.062098,21.275966 23.174928,20.800978 22.884532,20.498443 C 22.613212,20.172446 22.243779,19.893691 22.184512,19.452879 C 22.204267,19.168824 22.251721,18.981191 22.706858,18.661962 L 22.378372,18.955941 z "
         id="path3622"
         style="fill:#d1ce86;fill-opacity:1.0000000;fill-rule:nonzero;stroke:none;stroke-width:1.0000000px;stroke-linecap:butt;stroke-linejoin:miter;stroke-opacity:1.0000000;display:inline" />
      <path
         d="M 23.488388,18.109963 C 23.497148,18.275119 23.559223,18.412718 23.644752,18.539942 C 23.923451,18.901293 24.331533,19.183804 24.618921,19.540050 C 24.837214,19.869740 24.382924,20.458143 24.063545,20.955312 C 23.837797,21.330622 23.535923,21.717318 23.325412,22.089878 C 23.153814,22.382708 23.252839,22.521760 23.566511,22.554839 L 23.230497,22.829884 C 22.910516,22.793360 22.791622,22.653064 22.964347,22.350897 C 23.172707,21.975513 23.482431,21.584898 23.714673,21.205425 C 24.034078,20.714451 24.483750,20.131695 24.283356,19.799930 C 24.008177,19.436054 23.610726,19.146396 23.315233,18.794776 C 23.219716,18.675071 23.143586,18.546887 23.117657,18.391020 L 23.488388,18.109963 z "
         id="path3624"
         style="fill:#d1ce86;fill-opacity:1.0000000;fill-rule:nonzero;stroke:none;stroke-width:1.0000000px;stroke-linecap:butt;stroke-linejoin:miter;stroke-opacity:1.0000000;display:inline" />
      <path
         d="M 21.183518,19.870939 C 21.369447,20.078815 21.681217,20.208522 21.908000,20.391964 C 22.363512,20.715598 22.373701,21.260041 22.321867,21.831803 C 22.301099,22.163853 22.171961,22.545000 22.310219,22.808615 C 22.354787,22.879635 22.438779,22.923354 22.531741,22.961546 L 22.188441,23.236049 C 22.093395,23.195947 22.008435,23.149768 21.962821,23.076313 C 21.820931,22.809638 21.952618,22.424226 21.984677,22.083238 C 22.048167,21.509648 22.043471,20.964154 21.586308,20.644025 C 21.353896,20.461818 21.044686,20.333363 20.813717,20.151290 L 21.183518,19.870939 z "
         id="path3626"
         style="fill:#d1ce86;fill-opacity:1.0000000;fill-rule:nonzero;stroke:none;stroke-width:1.0000000px;stroke-linecap:butt;stroke-linejoin:miter;stroke-opacity:1.0000000;display:inline" />
      <path
         d="M 22.067377,19.446829 C 21.874392,19.834246 21.759819,20.212350 21.619999,20.589025 C 21.409331,21.146234 21.269590,21.683483 21.177006,22.203920 C 21.062589,22.664743 21.438899,22.849845 21.927991,22.949902 C 22.118837,22.990188 22.345952,22.994553 22.578982,22.991271 L 22.254289,23.259774 C 22.021817,23.260285 21.794170,23.254206 21.602297,23.213245 C 21.111410,23.110824 20.718855,22.923897 20.831659,22.460194 C 20.925902,21.936354 21.080865,21.391303 21.287456,20.832635 C 21.423985,20.459495 21.552468,20.088498 21.679481,19.718386 L 22.067377,19.446829 z "
         id="path3628"
         style="fill:#d1ce86;fill-opacity:1.0000000;fill-rule:nonzero;stroke:none;stroke-width:1.0000000px;stroke-linecap:butt;stroke-linejoin:miter;stroke-opacity:1.0000000;display:inline" />
      <path
         d="M 22.953261,18.653920 C 23.097418,18.776228 23.085030,18.986412 23.100402,19.173498 C 23.149382,19.830453 23.512648,20.337784 23.779049,20.888047 C 23.907368,21.267812 24.147861,21.580266 24.479907,21.842536 C 24.710543,21.982538 24.588763,22.255364 24.425821,22.552715 L 24.060937,22.815749 C 24.228119,22.522866 24.359778,22.250377 24.141155,22.107885 C 23.817662,21.837336 23.575812,21.522299 23.456405,21.135353 C 23.201534,20.578502 22.855852,20.063387 22.767547,19.424543 C 22.744932,19.247694 22.746249,19.048691 22.594465,18.939233 L 22.953261,18.653920 z "
         id="path3630"
         style="fill:#d1ce86;fill-opacity:1.0000000;fill-rule:nonzero;stroke:none;stroke-width:1.0000000px;stroke-linecap:butt;stroke-linejoin:miter;stroke-opacity:1.0000000;display:inline" />
      <path
         d="M 20.934026,19.627614 C 21.552709,19.106627 21.214337,19.788448 21.450270,20.105336 C 21.816285,20.551415 22.410110,20.850556 22.895919,21.219316 C 23.180342,21.407474 23.270263,21.703478 23.267475,22.040763 C 23.254983,22.235441 23.170662,22.458118 23.232388,22.621864 C 23.429848,22.787993 23.158733,23.013817 22.816664,23.301730 C 22.721679,23.378266 22.632980,23.456297 22.544163,23.534377 L 22.167994,23.793766 C 22.258348,23.713474 22.348478,23.633255 22.446725,23.554902 C 22.775314,23.280229 23.071611,23.054787 22.877821,22.893880 C 22.807796,22.731172 22.891062,22.506731 22.913279,22.305733 C 22.925181,21.966456 22.843790,21.668668 22.567672,21.476660 C 22.094055,21.098079 21.518447,20.785311 21.140176,20.345466 C 20.924601,20.079901 20.583571,19.798133 21.304446,19.346793 L 20.934026,19.627614 z "
         id="path3632"
         style="fill:#d1ce86;fill-opacity:1.0000000;fill-rule:nonzero;stroke:none;stroke-width:1.0000000px;stroke-linecap:butt;stroke-linejoin:miter;stroke-opacity:1.0000000;display:inline" />
      <path
         d="M 20.553051,20.159182 C 20.624365,20.309877 20.732680,20.441476 20.812847,20.587999 C 20.980332,20.957009 20.899581,21.437646 20.841476,21.901690 C 20.686280,22.488564 21.382760,22.401898 22.155878,22.285166 C 22.713144,22.199337 23.334747,22.067056 23.621943,22.265591 C 23.736434,22.356292 23.718915,22.487052 23.618292,22.662424 C 23.541078,22.791692 23.422136,22.924482 23.301297,23.056266 L 22.922051,23.321738 C 23.043514,23.191214 23.164576,23.059476 23.244968,22.930805 C 23.347408,22.760165 23.380801,22.630192 23.272947,22.538809 C 23.004978,22.335370 22.392405,22.463618 21.851585,22.541905 C 21.072622,22.655211 20.333003,22.760320 20.497450,22.157788 C 20.558656,21.694570 20.651486,21.210705 20.475805,20.847137 C 20.394036,20.702027 20.284082,20.573750 20.182318,20.440238 L 20.553051,20.159182 z "
         id="path3634"
         style="fill:#d1ce86;fill-opacity:1.0000000;fill-rule:nonzero;stroke:none;stroke-width:1.0000000px;stroke-linecap:butt;stroke-linejoin:miter;stroke-opacity:1.0000000;display:inline" />
      <path
         d="M 23.890657,19.574631 C 23.630194,19.994912 23.519692,20.374642 23.449702,20.744362 C 23.362631,21.218148 23.340359,21.668528 23.342374,22.108590 C 23.394448,22.398126 23.215818,22.750857 23.001144,23.118880 C 22.987848,23.141070 22.974555,23.163256 22.961261,23.185446 L 22.599251,23.445819 C 22.613020,23.423411 22.626792,23.401003 22.640562,23.378593 C 22.858468,23.011532 23.042548,22.658876 22.996248,22.368136 C 23.001855,21.922442 23.026632,21.468481 23.117274,20.990875 C 23.186599,20.627326 23.284442,20.256808 23.509554,19.850246 L 23.890657,19.574631 z "
         id="path3636"
         style="fill:#d1ce86;fill-opacity:1.0000000;fill-rule:nonzero;stroke:none;stroke-width:1.0000000px;stroke-linecap:butt;stroke-linejoin:miter;stroke-opacity:1.0000000;display:inline" />
      <path
         d="M 23.831380,18.646485 C 23.852015,18.803189 23.884847,18.954447 23.906156,19.110848 C 23.955019,19.688501 24.129640,20.208333 24.270239,20.743613 C 24.346536,21.079717 24.425175,21.419157 24.357833,21.815251 C 24.292381,22.088809 24.110924,22.392229 23.909695,22.695695 L 23.542279,22.958191 C 23.749550,22.654429 23.934517,22.350830 24.006132,22.075846 C 24.079527,21.677537 24.007551,21.334946 23.939245,20.995039 C 23.808220,20.455609 23.654277,19.926789 23.568544,19.366317 C 23.537864,19.217601 23.501538,19.071450 23.460649,18.927540 L 23.831380,18.646485 z "
         id="path3638"
         style="fill:#d1ce86;fill-opacity:1.0000000;fill-rule:nonzero;stroke:none;stroke-width:1.0000000px;stroke-linecap:butt;stroke-linejoin:miter;stroke-opacity:1.0000000;display:inline" />
      <path
         d="M 24.785005,19.457075 C 24.931566,19.518942 24.948540,19.653249 24.931637,19.803397 C 24.756832,20.308405 24.425364,20.856141 24.382802,21.321560 C 24.396197,21.632528 24.543866,21.877999 24.369517,22.257006 C 24.223439,22.510691 24.049189,22.768885 23.897129,23.023576 L 23.534224,23.284977 C 23.687620,23.029343 23.864650,22.770097 24.013287,22.515240 C 24.192387,22.136204 24.054022,21.886631 24.041161,21.576424 C 24.085503,21.111206 24.410023,20.567346 24.579523,20.064408 C 24.595296,19.916344 24.579499,19.787596 24.414274,19.738131 L 24.785005,19.457075 z "
         id="path3640"
         style="fill:#d1ce86;fill-opacity:1.0000000;fill-rule:nonzero;stroke:none;stroke-width:1.0000000px;stroke-linecap:butt;stroke-linejoin:miter;stroke-opacity:1.0000000;display:inline" />
      <path
         d="M 22.423978,18.708536 C 22.538101,18.617005 22.651154,18.525096 22.766348,18.433945 C 22.991669,18.255655 22.472441,18.809233 22.363258,18.991734 C 22.124517,19.390799 22.016700,19.748169 21.973274,20.092803 C 21.932950,20.965255 22.522361,21.538154 22.946706,22.177979 C 23.197537,22.533678 23.369576,22.930461 23.244766,23.456747 C 23.227817,23.533362 23.197915,23.613888 23.171995,23.693194 L 22.818030,23.952671 C 22.846289,23.872386 22.878788,23.790838 22.897473,23.713334 C 23.032535,23.184296 22.870442,22.782637 22.632366,22.420391 C 22.224258,21.768130 21.646645,21.186605 21.669051,20.319481 C 21.723390,19.779183 21.913614,19.063878 22.738069,18.412423 L 22.423978,18.708536 z "
         id="path3642"
         style="fill:#d1ce86;fill-opacity:1.0000000;fill-rule:nonzero;stroke:none;stroke-width:1.0000000px;stroke-linecap:butt;stroke-linejoin:miter;stroke-opacity:1.0000000;display:inline" />
      <g
         transform="matrix(-2.375955e-2,-0.946257,0.949639,-2.547805e-2,15.98972,25.78575)"
         id="g3644"
         style="display:inline">
        <path
           style="fill:#d1ce86;fill-opacity:1.0000000;fill-rule:evenodd;stroke:#000000;stroke-width:0.63700002;stroke-linecap:butt;stroke-linejoin:miter;stroke-miterlimit:4.0000000;stroke-dasharray:none;stroke-opacity:1.0000000;display:inline"
           d="M 24.335113,7.0557725 C 24.331747,7.1050809 23.415013,13.504978 16.252082,7.4779706"
           id="path3646"
           sodipodi:nodetypes="cz" />
        <path
           style="fill:#6f5532;fill-opacity:1.0000000;fill-rule:evenodd;stroke:#000000;stroke-width:0.43700001;stroke-linecap:butt;stroke-linejoin:miter;stroke-miterlimit:4.0000000;stroke-dasharray:none;stroke-opacity:1.0000000;display:inline"
           d="M 16.932836,6.2022597 C 21.988771,6.3503145 24.356068,7.0386845 24.356068,7.0386845 C 24.356068,7.0386845 21.000572,12.709996 16.083807,7.3339794"
           id="path3648"
           sodipodi:nodetypes="ccs" />
      </g>
      <g
         transform="matrix(0.254981,0.911429,-0.915220,0.255108,17.16932,3.222389)"
         id="g3650"
         style="display:inline">
        <path
           style="fill:#d1ce86;fill-opacity:1.0000000;fill-rule:evenodd;stroke:#000000;stroke-width:0.63700002;stroke-linecap:butt;stroke-linejoin:miter;stroke-miterlimit:4.0000000;stroke-dasharray:none;stroke-opacity:1.0000000"
           d="M -0.27642496,7.9638485 C -0.27020121,8.0125842 1.0199935,14.313652 7.8732300,7.9700466"
           id="path3652"
           sodipodi:nodetypes="cz" />
        <path
           style="fill:#6f5532;fill-opacity:1.0000000;fill-rule:evenodd;stroke:#000000;stroke-width:0.43700001;stroke-linecap:butt;stroke-linejoin:miter;stroke-miterlimit:4.0000000;stroke-dasharray:none;stroke-opacity:1.0000000"
           d="M 7.1154262,6.7394562 C 2.0415596,7.1443668 -0.29847461,7.9479690 -0.29847461,7.9479690 C -0.29847461,7.9479690 3.4012762,13.401899 8.0340905,7.8186372"
           id="path3654"
           sodipodi:nodetypes="ccs" />
      </g>
      <g
         transform="matrix(-0.990119,0.351766,0.240860,1.148591,29.75532,13.01615)"
         id="g3656"
         style="display:inline">
        <path
           style="fill:#ababab;fill-opacity:1.0000000;fill-rule:evenodd;stroke:none;stroke-width:0.81018460px;stroke-linecap:butt;stroke-linejoin:miter;stroke-opacity:1.0000000;display:inline"
           d="M 6.7591269,-4.8961329 C 6.7591269,-4.8961329 7.3943289,-4.4838409 7.8969489,-4.5576859 C 8.3995679,-4.6315299 8.7696049,-5.1915099 8.7696049,-5.1915099 C 8.7696049,-5.1915099 10.142454,-8.0714369 7.7493959,-9.3267899 C 5.4164679,-10.550600 3.3096029,-5.9299529 2.1084759,-7.7022149 C 0.90734691,-9.4744779 2.1663769,-11.689807 2.1663769,-11.689807 C 2.1663769,-11.689807 -0.48084809,-8.5093179 -0.31524609,-7.1114609 C -0.12278509,-5.4868869 0.40016891,-4.5393389 6.7237739,-6.4468629 C 6.8446189,-6.4833159 6.7591269,-4.8961329 6.7591269,-4.8961329 z "
           id="path3658"
           sodipodi:nodetypes="csczscssc" />
        <path
           style="fill:none;fill-opacity:0.75000000;fill-rule:evenodd;stroke:#000000;stroke-width:0.81018460px;stroke-linecap:butt;stroke-linejoin:miter;stroke-opacity:1.0000000;display:inline"
           d="M 8.7696049,-5.1915099 C 8.7696049,-5.1915099 10.142454,-8.0714369 7.7493959,-9.3267899 C 5.4164679,-10.550600 3.3096029,-5.9299529 2.1084759,-7.7022149 C 0.90734691,-9.4744779 2.1663769,-11.689807 2.1663769,-11.689807 C 2.1663769,-11.689807 -0.48084809,-8.5093179 -0.31524609,-7.1114609 C -0.12278509,-5.4868869 0.40016891,-4.5393389 6.7237739,-6.4468629 C 6.8446189,-6.4833159 6.7591269,-4.8961329 6.7591269,-4.8961329"
           id="path3660"
           sodipodi:nodetypes="czscssc" />
      </g>
      <g
         transform="matrix(0.998391,-0.312318,0.240860,1.148591,8.006458,18.80504)"
         id="g3662"
         style="display:inline">
        <path
           style="fill:#ababab;fill-opacity:1.0000000;fill-rule:evenodd;stroke:none;stroke-width:0.81018460px;stroke-linecap:butt;stroke-linejoin:miter;stroke-opacity:1.0000000;display:inline"
           d="M 6.7591269,-4.8961329 C 6.7591269,-4.8961329 7.3943289,-4.4838409 7.8969489,-4.5576859 C 8.3995679,-4.6315299 8.7696049,-5.1915099 8.7696049,-5.1915099 C 8.7696049,-5.1915099 10.142454,-8.0714369 7.7493959,-9.3267899 C 5.4164679,-10.550600 3.3096029,-5.9299529 2.1084759,-7.7022149 C 0.90734691,-9.4744779 2.1663769,-11.689807 2.1663769,-11.689807 C 2.1663769,-11.689807 -0.48084809,-8.5093179 -0.31524609,-7.1114609 C -0.12278509,-5.4868869 0.40016891,-4.5393389 6.7237739,-6.4468629 C 6.8446189,-6.4833159 6.7591269,-4.8961329 6.7591269,-4.8961329 z "
           id="path3664"
           sodipodi:nodetypes="csczscssc" />
        <path
           style="fill:none;fill-opacity:0.75000000;fill-rule:evenodd;stroke:#000000;stroke-width:0.81018460px;stroke-linecap:butt;stroke-linejoin:miter;stroke-opacity:1.0000000;display:inline"
           d="M 8.7696049,-5.1915099 C 8.7696049,-5.1915099 10.142454,-8.0714369 7.7493959,-9.3267899 C 5.4164679,-10.550600 3.3096029,-5.9299529 2.1084759,-7.7022149 C 0.90734691,-9.4744779 2.1663769,-11.689807 2.1663769,-11.689807 C 2.1663769,-11.689807 -0.48084809,-8.5093179 -0.31524609,-7.1114609 C -0.12278509,-5.4868869 0.40016891,-4.5393389 6.7237739,-6.4468629 C 6.8446189,-6.4833159 6.7591269,-4.8961329 6.7591269,-4.8961329"
           id="path3666"
           sodipodi:nodetypes="czscssc" />
      </g>
      <path
         transform="matrix(1.127173,-0.347376,0.241653,0.784121,-4.595773,10.90104)"
         d="M 21.062683 22.734009 A 1.5858004 1.5858004 0 1 1  17.891083,22.734009 A 1.5858004 1.5858004 0 1 1  21.062683 22.734009 z"
         sodipodi:ry="1.5858004"
         sodipodi:rx="1.5858004"
         sodipodi:cy="22.734009"
         sodipodi:cx="19.476883"
         id="path2490"
         style="opacity:1.0000000;fill:#000000;fill-opacity:1.0000000;stroke:none;stroke-width:0.80000001;stroke-linecap:butt;stroke-linejoin:round;stroke-miterlimit:4.0000000;stroke-dasharray:none;stroke-opacity:1.0000000"
         sodipodi:type="arc" />
      <path
         sodipodi:nodetypes="cccc"
         id="path3682"
         d="M 17.360512,14.197609 L 19.226138,20.417459 L 24.698379,18.329636 L 20.227978,13.029721"
         style="fill:#6f5532;fill-opacity:1.0000000;fill-rule:evenodd;stroke:#000000;stroke-width:0.80686480;stroke-linecap:butt;stroke-linejoin:miter;stroke-miterlimit:4.0000000;stroke-dasharray:none;stroke-opacity:1.0000000;display:inline" />
      <path
         sodipodi:nodetypes="cc"
         id="path3684"
         d="M 19.100465,20.547464 C 23.262219,21.048151 24.974432,18.337751 24.974432,18.337751"
         style="fill:#362918;fill-opacity:1.0000000;fill-rule:evenodd;stroke:#000000;stroke-width:0.80686480;stroke-linecap:butt;stroke-linejoin:miter;stroke-miterlimit:4.0000000;stroke-dasharray:none;stroke-opacity:1.0000000;display:inline" />
      <g
         transform="matrix(-0.840203,-0.276047,0.312295,-0.967623,-56.83032,9.541317)"
         id="g3733">
        <path
           style="fill:#767676;fill-opacity:1.0000000;fill-rule:evenodd;stroke:#000000;stroke-width:0.83413351px;stroke-linecap:butt;stroke-linejoin:miter;stroke-opacity:1.0000000"
           d="M -66.528242,12.381043 L -70.518949,16.844944 L -67.353228,19.127665 L -66.051070,17.697058 L -66.807660,16.031970 L -64.871148,16.446339 L -63.479570,14.866073 L -66.528242,12.381043 z "
           id="path3698"
           sodipodi:nodetypes="cccccccc" />
        <path
           style="fill:#6f5532;fill-opacity:1.0000000;fill-rule:evenodd;stroke:#000000;stroke-width:0.83413351px;stroke-linecap:butt;stroke-linejoin:miter;stroke-opacity:1.0000000"
           d="M -74.784907,11.884952 C -74.751585,11.879266 -84.556531,12.203445 -79.315948,6.3387022 C -74.131980,0.53615950 -72.657019,9.5774110 -72.657019,9.5774110 L -66.386058,12.335063 L -70.578390,16.921645 L -74.784907,11.884952 z "
           id="path3700"
           sodipodi:nodetypes="czcccc" />
      </g>
      <g
         transform="matrix(0.873649,0.486556,-0.486556,0.873649,10.32691,-7.575644)"
         id="g4817">
        <path
           style="fill:#000000;fill-opacity:1.0000000;fill-rule:nonzero;stroke:none;stroke-width:1.0000000px;stroke-linecap:butt;stroke-linejoin:miter;stroke-opacity:1.0000000"
           id="path4807"
           d="M 13.375398,13.687475 C 13.657340,13.864491 14.024194,14.038494 14.332083,14.225977 C 14.689880,14.432319 14.990291,14.710692 15.293622,14.986521 C 15.670477,15.269793 15.992647,15.610315 16.303769,15.962282 C 16.590230,16.302263 16.901068,16.620118 17.189692,16.958111 C 17.285566,17.068781 17.372386,17.186716 17.462662,17.301706 L 16.021728,18.153228 C 15.934016,18.040209 15.848819,17.925024 15.756398,17.815618 C 15.468572,17.480064 15.156399,17.166909 14.875108,16.825631 C 14.568718,16.477177 14.245018,16.149748 13.873669,15.869332 C 13.577884,15.599311 13.279253,15.334006 12.930593,15.131957 C 12.678538,14.980438 12.169970,14.687117 12.006496,14.682041 L 13.375398,13.687475 z " />
        <path
           style="fill:#000000;fill-opacity:1.0000000;fill-rule:nonzero;stroke:none;stroke-width:1.0000000px;stroke-linecap:butt;stroke-linejoin:miter;stroke-opacity:1.0000000"
           id="path4811"
           d="M 15.997339,13.659666 C 15.715397,13.836682 15.348543,14.010685 15.040654,14.198168 C 14.682857,14.404510 14.382446,14.682883 14.079115,14.958712 C 13.702260,15.241984 13.380090,15.582506 13.068968,15.934473 C 12.782507,16.274454 12.471669,16.592309 12.183045,16.930302 C 12.087171,17.040972 12.000351,17.158907 11.910075,17.273897 L 13.351009,18.125419 C 13.438721,18.012400 13.523918,17.897215 13.616339,17.787809 C 13.904165,17.452255 14.216338,17.139100 14.497629,16.797822 C 14.804019,16.449368 15.127719,16.121939 15.499068,15.841523 C 15.794853,15.571502 16.093484,15.306197 16.442144,15.104148 C 16.694199,14.952629 17.202767,14.659308 17.366241,14.654232 L 15.997339,13.659666 z " />
      </g>
      <g
         transform="matrix(0.729640,0.683832,-0.683832,0.729640,16.38650,-11.55670)"
         id="g4821">
        <path
           style="fill:#000000;fill-opacity:1.0000000;fill-rule:nonzero;stroke:none;stroke-width:1.0000000px;stroke-linecap:butt;stroke-linejoin:miter;stroke-opacity:1.0000000"
           id="path4809"
           d="M 17.757966,12.927759 C 17.990940,13.074031 18.294079,13.217813 18.548493,13.372734 C 18.844148,13.543238 19.092384,13.773263 19.343032,14.001186 C 19.654435,14.235260 19.920650,14.516640 20.177736,14.807477 C 20.414445,15.088410 20.671296,15.351060 20.909792,15.630350 C 20.989014,15.721799 21.060756,15.819251 21.135352,15.914269 L 19.944680,16.617899 C 19.872202,16.524509 19.801802,16.429329 19.725433,16.338925 C 19.487597,16.061650 19.229642,15.802884 18.997206,15.520879 C 18.744029,15.232945 18.476550,14.962384 18.169697,14.730670 C 17.925284,14.507547 17.678519,14.288320 17.390415,14.121363 C 17.182137,13.996160 16.761897,13.753783 16.626815,13.749588 L 17.757966,12.927759 z " />
        <path
           style="fill:#000000;fill-opacity:1.0000000;fill-rule:nonzero;stroke:none;stroke-width:1.0000000px;stroke-linecap:butt;stroke-linejoin:miter;stroke-opacity:1.0000000"
           id="path4815"
           d="M 20.138600,12.994958 C 19.905626,13.141230 19.602487,13.285012 19.348072,13.439933 C 19.052418,13.610437 18.804182,13.840462 18.553534,14.068385 C 18.242131,14.302458 17.975916,14.583838 17.718830,14.874676 C 17.482121,15.155609 17.225270,15.418258 16.986774,15.697549 C 16.907551,15.788998 16.835810,15.886450 16.761213,15.981468 L 17.951886,16.685097 C 18.024364,16.591708 18.094764,16.496528 18.171133,16.406124 C 18.408969,16.128849 18.666924,15.870083 18.899360,15.588078 C 19.152536,15.300143 19.420016,15.029582 19.726869,14.797869 C 19.971282,14.574746 20.218047,14.355519 20.506151,14.188562 C 20.714429,14.063359 21.134669,13.820982 21.269751,13.816787 L 20.138600,12.994958 z " />
      </g>
    </g>
  </g>
</svg>
