<?xml version="1.0" encoding="UTF-8" standalone="no"?>
<!-- Created with Inkscape (http://www.inkscape.org/) -->
<svg
   xmlns:dc="http://purl.org/dc/elements/1.1/"
   xmlns:cc="http://web.resource.org/cc/"
   xmlns:rdf="http://www.w3.org/1999/02/22-rdf-syntax-ns#"
   xmlns:svg="http://www.w3.org/2000/svg"
   xmlns="http://www.w3.org/2000/svg"
   xmlns:xlink="http://www.w3.org/1999/xlink"
   xmlns:sodipodi="http://inkscape.sourceforge.net/DTD/sodipodi-0.dtd"
   xmlns:inkscape="http://www.inkscape.org/namespaces/inkscape"
   width="48.000000px"
   height="48.000000px"
   id="svg1"
   sodipodi:version="0.32"
   inkscape:version="0.43"
   sodipodi:docbase="/home/yekcim/Desktop/SVG/Skins/gnuteam"
   sodipodi:docname="flag.svg"
   inkscape:export-filename="/home/yekcim/Desktop/flag.png"
   inkscape:export-xdpi="90.000000"
   inkscape:export-ydpi="90.000000"
   inkscape:output_extension="org.inkscape.output.svg.inkscape">
  <defs
     id="defs3">
    <defs
       id="defs1062">
      <linearGradient
         inkscape:collect="always"
         id="linearGradient10630">
        <stop
           style="stop-color:#616161;stop-opacity:1;"
           offset="0"
           id="stop10631" />
        <stop
           style="stop-color:#616161;stop-opacity:0;"
           offset="1"
           id="stop10632" />
      </linearGradient>
      <linearGradient
         inkscape:collect="always"
         id="linearGradient10560">
        <stop
           style="stop-color:#000000;stop-opacity:1;"
           offset="0"
           id="stop10561" />
        <stop
           style="stop-color:#000000;stop-opacity:0;"
           offset="1"
           id="stop10562" />
      </linearGradient>
      <linearGradient
         id="linearGradient13777">
        <stop
           offset="0.0000000"
           style="stop-color:#d17d00;stop-opacity:1.0000000;"
           id="stop13779" />
        <stop
           offset="1.0000000"
           style="stop-color:#a7b135;stop-opacity:0.0000000;"
           id="stop13778" />
      </linearGradient>
      <linearGradient
         id="linearGradient11847">
        <stop
           offset="0.0000000"
           style="stop-color:#000000;stop-opacity:1.0000000;"
           id="stop11849" />
        <stop
           offset="1.0000000"
           style="stop-color:#000000;stop-opacity:0.0000000;"
           id="stop11848" />
      </linearGradient>
      <linearGradient
         id="linearGradient6187">
        <stop
           style="stop-color:#2e1b0b;stop-opacity:1.0000000;"
           offset="0.0000000"
           id="stop6188" />
        <stop
           style="stop-color:#431e00;stop-opacity:0;"
           offset="1"
           id="stop6189" />
      </linearGradient>
      <linearGradient
         inkscape:collect="always"
         id="linearGradient4909">
        <stop
           style="stop-color:#000000;stop-opacity:1;"
           offset="0"
           id="stop4910" />
        <stop
           style="stop-color:#000000;stop-opacity:0;"
           offset="1"
           id="stop4911" />
      </linearGradient>
      <linearGradient
         id="linearGradient1780">
        <stop
           style="stop-color:#454545;stop-opacity:1.0000000;"
           offset="0.0000000"
           id="stop1781" />
        <stop
           style="stop-color:#ffffff;stop-opacity:0;"
           offset="1"
           id="stop1782" />
      </linearGradient>
      <linearGradient
         id="linearGradient3869">
        <stop
           offset="0.0000000"
           style="stop-color:#d2dd2e;stop-opacity:1.0000000;"
           id="stop3872" />
        <stop
           offset="0.76146787"
           style="stop-color:#b3b96d;stop-opacity:0.65555555;"
           id="stop3871" />
        <stop
           offset="1.0000000"
           style="stop-color:#b1b952;stop-opacity:0.0000000;"
           id="stop3870" />
      </linearGradient>
      <linearGradient
         inkscape:collect="always"
         xlink:href="#linearGradient9217"
         id="linearGradient3799"
         gradientUnits="userSpaceOnUse"
         gradientTransform="matrix(0.112563,0.000000,0.000000,0.115364,26.43402,157.1761)"
         x1="4373.3052"
         y1="319.33466"
         x2="96.982727"
         y2="2708.2139" />
      <linearGradient
         inkscape:collect="always"
         xlink:href="#linearGradient7337"
         id="linearGradient3800"
         gradientUnits="userSpaceOnUse"
         gradientTransform="matrix(0.230667,0.000000,0.000000,7.644947e-2,26.55186,129.5549)"
         x1="862.16510"
         y1="2479.5938"
         x2="1523.3719"
         y2="2479.5938" />
      <linearGradient
         inkscape:collect="always"
         xlink:href="#linearGradient5442"
         id="linearGradient3801"
         gradientUnits="userSpaceOnUse"
         gradientTransform="matrix(0.162855,0.000000,0.000000,7.648058e-2,75.52973,161.8049)"
         x1="580.22791"
         y1="2173.3171"
         x2="1782.0374"
         y2="1630.2036" />
      <radialGradient
         inkscape:collect="always"
         xlink:href="#linearGradient5442"
         id="radialGradient3802"
         gradientUnits="userSpaceOnUse"
         gradientTransform="matrix(0.159978,0.000000,0.000000,7.785591e-2,363.0923,173.8583)"
         cx="-606.79681"
         cy="1573.4399"
         fx="-606.79681"
         fy="1573.4399"
         r="739.70477" />
      <linearGradient
         inkscape:collect="always"
         xlink:href="#linearGradient21707"
         id="linearGradient3803"
         gradientUnits="userSpaceOnUse"
         gradientTransform="scale(0.659854,1.515487)"
         x1="4848.5972"
         y1="3945.1116"
         x2="5625.4653"
         y2="1720.9402" />
      <linearGradient
         inkscape:collect="always"
         xlink:href="#linearGradient7337"
         id="linearGradient3804"
         gradientUnits="userSpaceOnUse"
         gradientTransform="matrix(0.236634,0.000000,0.000000,0.208284,-2451.443,4783.687)"
         x1="-7797.7422"
         y1="5021.4731"
         x2="-352.84012"
         y2="1184.9034" />
      <linearGradient
         inkscape:collect="always"
         xlink:href="#linearGradient7337"
         id="linearGradient3805"
         gradientUnits="userSpaceOnUse"
         gradientTransform="matrix(0.236634,0.000000,0.000000,0.208284,-2451.443,4783.687)"
         x1="-7797.7422"
         y1="5021.4731"
         x2="-352.84012"
         y2="1184.9034" />
      <defs
         id="defs3745">
        <linearGradient
           id="linearGradient22333"
           x1="0.0000000"
           y1="0.50000000"
           x2="1.0000000"
           y2="0.50000000"
           gradientUnits="objectBoundingBox"
           spreadMethod="pad"
           xlink:href="#linearGradient13777" />
        <linearGradient
           id="linearGradient21707">
          <stop
             style="stop-color:#ffffff;stop-opacity:1.0000000;"
             offset="0.0000000"
             id="stop21708" />
          <stop
             style="stop-color:#a7b135;stop-opacity:0;"
             offset="1"
             id="stop21709" />
        </linearGradient>
        <linearGradient
           inkscape:collect="always"
           id="linearGradient9217"
           x1="0.0000000"
           y1="0.50000000"
           x2="1.0000000"
           y2="0.50000000"
           gradientUnits="objectBoundingBox"
           spreadMethod="pad"
           xlink:href="#linearGradient11847" />
        <linearGradient
           id="linearGradient8584">
          <stop
             style="stop-color:#000000;stop-opacity:1.0000000;"
             offset="0.0000000"
             id="stop8585" />
          <stop
             style="stop-color:#cece4c;stop-opacity:0;"
             offset="1"
             id="stop8586" />
        </linearGradient>
        <linearGradient
           id="linearGradient7337">
          <stop
             style="stop-color:#b1b12f;stop-opacity:1.0000000;"
             offset="0.0000000"
             id="stop7338" />
          <stop
             style="stop-color:#cece4c;stop-opacity:0;"
             offset="1"
             id="stop7339" />
        </linearGradient>
        <linearGradient
           id="linearGradient5442"
           x1="0.0000000"
           y1="0.50000000"
           x2="1.0000000"
           y2="0.50000000"
           gradientUnits="objectBoundingBox"
           spreadMethod="pad"
           xlink:href="#linearGradient3869" />
      </defs>
      <sodipodi:namedview
         id="namedview3772"
         pagecolor="#ffffff"
         bordercolor="#666666"
         borderopacity="1.0"
         inkscape:pageopacity="0.0"
         inkscape:pageshadow="2"
         inkscape:zoom="0.80057989"
         inkscape:cx="297.63780"
         inkscape:cy="420.94487"
         inkscape:current-layer="layer1"
         inkscape:window-width="1440"
         inkscape:window-height="851"
         inkscape:window-x="0"
         inkscape:window-y="27"
         showguides="true"
         inkscape:guide-bbox="true" />
      <metadata
         id="metadata3773">
        <rdf:RDF>
          <cc:Work
             rdf:about="">
            <dc:format>image/svg+xml</dc:format>
            <dc:type
               rdf:resource="http://purl.org/dc/dcmitype/StillImage" />
          </cc:Work>
        </rdf:RDF>
      </metadata>
      <linearGradient
         inkscape:collect="always"
         xlink:href="#linearGradient4909"
         id="linearGradient6167"
         gradientUnits="userSpaceOnUse"
         gradientTransform="scale(0.891889,1.121216)"
         x1="-148.77991"
         y1="106.31860"
         x2="-160.14931"
         y2="-66.932083" />
      <linearGradient
         inkscape:collect="always"
         xlink:href="#linearGradient10560"
         id="linearGradient10563"
         gradientTransform="matrix(0.915477,0.127968,-0.149762,1.071392,19.54851,-8.453410)"
         x1="698.54480"
         y1="69.852913"
         x2="758.31232"
         y2="359.09653"
         gradientUnits="userSpaceOnUse" />
      <linearGradient
         inkscape:collect="always"
         xlink:href="#linearGradient10560"
         id="linearGradient10578"
         gradientUnits="userSpaceOnUse"
         gradientTransform="matrix(0.915477,0.127968,-0.149762,1.071392,0.000000,0.000000)"
         x1="647.37115"
         y1="96.894905"
         x2="770.59186"
         y2="342.74301" />
      <linearGradient
         inkscape:collect="always"
         xlink:href="#linearGradient4909"
         id="linearGradient10604"
         gradientUnits="userSpaceOnUse"
         gradientTransform="scale(0.891889,1.121216)"
         x1="-148.77991"
         y1="106.31860"
         x2="-160.14931"
         y2="-66.932083" />
      <linearGradient
         inkscape:collect="always"
         xlink:href="#linearGradient10630"
         id="linearGradient10633"
         gradientTransform="scale(0.883732,1.131565)"
         x1="-164.59187"
         y1="105.15539"
         x2="-154.14560"
         y2="3.6783011"
         gradientUnits="userSpaceOnUse" />
      <linearGradient
         inkscape:collect="always"
         xlink:href="#linearGradient10630"
         id="linearGradient10647"
         gradientUnits="userSpaceOnUse"
         gradientTransform="scale(0.883732,1.131565)"
         x1="-164.59187"
         y1="105.15539"
         x2="-154.14560"
         y2="3.6783011" />
      <radialGradient
         inkscape:collect="always"
         xlink:href="#linearGradient1780"
         id="radialGradient5568"
         gradientUnits="userSpaceOnUse"
         gradientTransform="matrix(-0.663014,1.058409,1.330757,0.590372,-891.7907,666.4254)"
         cx="-446.72464"
         cy="218.60974"
         fx="-446.72464"
         fy="218.60974"
         r="308.80975" />
      <linearGradient
         inkscape:collect="always"
         xlink:href="#linearGradient10630"
         id="linearGradient4391"
         gradientUnits="userSpaceOnUse"
         gradientTransform="matrix(0.437171,-0.479724,0.614848,0.557530,723.0732,-61.92042)"
         x1="-164.59187"
         y1="105.15539"
         x2="-154.14560"
         y2="3.6783011" />
    </defs>
  </defs>
  <sodipodi:namedview
     id="base"
     pagecolor="#ffffff"
     bordercolor="#666666"
     borderopacity="1.0"
     inkscape:pageopacity="0.0"
     inkscape:pageshadow="2"
     inkscape:zoom="5.6568542"
     inkscape:cx="44.146092"
     inkscape:cy="0.44726050"
     inkscape:current-layer="g1160"
     inkscape:window-width="1440"
     inkscape:window-height="826"
     inkscape:window-x="0"
     inkscape:window-y="26" />
  <metadata
     id="metadata4">
    <rdf:RDF>
      <cc:Work
         rdf:about="">
        <dc:format>image/svg+xml</dc:format>
        <dc:type
           rdf:resource="http://purl.org/dc/dcmitype/StillImage" />
      </cc:Work>
    </rdf:RDF>
  </metadata>
  <g
     id="g1160"
     inkscape:groupmode="layer"
     inkscape:label="Layer 1"
     style="display:inline">
    <g
       inkscape:label="Layer 1"
       id="g29199"
       transform="matrix(-0.800240,0.000000,0.000000,0.800240,372.6259,-77.80494)" />
    <g
       id="g29315"
       inkscape:label="Layer 1"
       transform="matrix(-0.800240,0.000000,0.000000,0.800240,1530.027,255.1263)" />
    <g
       inkscape:label="Layer 1"
       id="g29317"
       transform="matrix(-0.800240,0.000000,0.000000,0.800240,2197.244,222.6400)" />
    <g
       inkscape:label="Layer 1"
       id="g3589"
       transform="matrix(-0.757324,0,0,0.76036,343.2353,-58.62023)" />
    <g
       id="g3591"
       inkscape:label="Layer 1"
       transform="matrix(-0.757324,0,0,0.76036,1438.565,257.7193)" />
    <g
       inkscape:label="Layer 1"
       id="g3593"
       transform="matrix(-0.757324,0,0,0.76036,2070.001,226.852)" />
    <g
       style="display:inline"
       inkscape:label="Layer 1"
       id="g3480"
       transform="matrix(1.411965,0.000000,0.000000,1.411965,-8.116372,-7.975362)">
      <g
         transform="matrix(-0.757324,0.000000,0.000000,0.760360,413.6545,-61.48500)"
         id="g3482"
         inkscape:label="Layer 1" />
      <g
         transform="matrix(-0.757324,0.000000,0.000000,0.760360,1508.984,254.8545)"
         inkscape:label="Layer 1"
         id="g3484" />
      <g
         transform="matrix(-0.757324,0.000000,0.000000,0.760360,2140.420,223.9872)"
         id="g3486"
         inkscape:label="Layer 1" />
      <path
         d="M 12.921398,39.087521 C 12.122715,40.354922 11.451794,41.722691 10.728331,43.045314 C 9.6166889,45.000997 8.3810438,46.936356 6.7548407,48.289109 C 6.2421117,48.714314 5.6878652,49.005472 5.1341182,49.277820 L 4.3729341,49.271476 C 4.9269257,49.006264 5.4820069,48.723842 5.9971216,48.306739 C 7.6315691,46.978755 8.8957575,45.064622 10.001332,43.105332 C 10.712326,41.803456 11.370680,40.451538 12.086978,39.160698 L 12.921398,39.087521 z "
         id="path3467"
         style="fill:#000000;fill-opacity:1.0000000;fill-rule:nonzero;stroke:none;stroke-width:1.0000000px;stroke-linecap:butt;stroke-linejoin:miter;stroke-opacity:1.0000000;display:inline" />
      <path
         d="M 12.881088,37.942998 C 12.627629,37.922358 11.729889,37.958988 12.965314,37.871104 C 13.317224,37.846069 12.249802,38.095066 11.903144,38.282402 C 9.9479768,39.465594 9.3031372,42.109603 8.8270549,44.354197 C 8.4996344,45.843272 8.2711890,47.370614 7.7083414,48.821923 C 7.6066632,49.085459 7.4569193,49.319214 7.3101836,49.553694 L 6.5045231,49.609367 C 6.6521000,49.383590 6.8043096,49.159488 6.9090347,48.903797 C 7.4992188,47.465056 7.7431357,45.934425 8.0869235,44.450144 C 8.5812710,42.196419 9.2069944,39.522711 11.150927,38.281722 C 11.930728,37.830105 13.065917,37.391383 13.722008,37.788916 L 12.881088,37.942998 z "
         id="path2574"
         style="fill:#000000;fill-opacity:1.0000000;fill-rule:nonzero;stroke:none;stroke-width:1.0000000px;stroke-linecap:butt;stroke-linejoin:miter;stroke-opacity:1.0000000" />
      <path
         d="M 18.397145,35.117790 C 18.221202,35.032335 17.810978,35.118772 16.153328,35.957235 C 13.005295,37.495894 10.807482,40.608622 8.7717610,43.915965 C 8.0749689,45.108483 7.3202595,46.249262 6.5103989,47.339628 L 5.7538123,47.384339 C 6.5821725,46.298843 7.3555142,45.160482 8.0694665,43.967490 C 10.136094,40.679531 12.322169,37.526880 15.469455,35.953765 C 16.634289,35.336679 18.099562,34.624675 19.239716,34.883688 L 18.397145,35.117790 z "
         id="path2576"
         style="fill:#000000;fill-opacity:1.0000000;fill-rule:nonzero;stroke:none;stroke-width:1.0000000px;stroke-linecap:butt;stroke-linejoin:miter;stroke-opacity:1.0000000" />
      <path
         d="M 15.071981,30.008594 C 14.835327,30.189893 14.939616,30.054371 15.796516,29.773098 C 16.020677,29.699518 15.443714,30.206028 15.307289,30.462394 C 14.973682,31.089308 14.700550,31.760199 14.424305,32.425807 C 13.467758,34.724629 12.711809,37.126027 11.856611,39.476550 C 11.278231,41.123749 10.435197,42.601182 9.3418384,43.759365 C 9.0084563,44.095696 8.6437733,44.363810 8.2718121,44.603346 L 7.5025341,44.732776 C 7.8790925,44.502773 8.2470720,44.238130 8.5870554,43.911003 C 9.6927289,42.777982 10.539626,41.303616 11.134197,39.669193 C 12.009819,37.326314 12.764237,34.922783 13.704760,32.613009 C 14.277356,31.213946 14.582549,29.820967 15.857374,29.624037 L 15.071981,30.008594 z "
         id="path2578"
         style="fill:#000000;fill-opacity:1.0000000;fill-rule:nonzero;stroke:none;stroke-width:1.0000000px;stroke-linecap:butt;stroke-linejoin:miter;stroke-opacity:1.0000000" />
      <path
         d="M 15.671095,29.346483 C 15.412953,29.558133 15.594265,29.373966 16.360930,29.130159 C 16.562071,29.066193 16.002779,29.443995 15.852290,29.644637 C 15.434074,30.202224 15.133764,30.886156 14.855633,31.559779 C 13.925784,34.104492 13.325412,36.783024 12.459630,39.355206 C 11.770520,41.357450 10.964789,43.322067 9.9264397,45.094520 C 9.6575098,45.545363 9.3620288,45.971420 9.0302037,46.344985 L 8.2550047,46.503518 C 8.5953684,46.140823 8.8962997,45.717849 9.1726456,45.272189 C 10.236469,43.514839 11.062998,41.551837 11.759415,39.545362 C 12.626823,36.976327 13.239949,34.308033 14.130932,31.749119 C 14.702517,30.307694 15.198345,29.194876 16.454595,28.962855 L 15.671095,29.346483 z "
         id="path2580"
         style="fill:#000000;fill-opacity:1.0000000;fill-rule:nonzero;stroke:none;stroke-width:1.0000000px;stroke-linecap:butt;stroke-linejoin:miter;stroke-opacity:1.0000000" />
      <path
         d="M 17.209060,28.334579 C 17.239962,28.266501 16.980108,28.399874 17.037100,28.380689 C 17.271406,28.301813 17.504570,28.211035 17.739775,28.141812 C 17.951567,28.079477 17.349349,28.430206 17.169217,28.606736 C 16.821262,28.947737 16.487632,29.312597 16.156849,29.683133 C 14.155272,31.941656 13.144077,35.139810 12.309697,38.236101 C 11.832085,40.029861 11.441263,41.846948 11.093305,43.671116 L 10.378793,43.881721 C 10.747767,42.051376 11.147500,40.226269 11.637402,38.425908 C 12.473697,35.340031 13.470331,32.130067 15.430231,29.833515 C 16.159348,28.997740 16.993184,27.865836 17.993317,27.950580 L 17.209060,28.334579 z "
         id="path2582"
         style="fill:#000000;fill-opacity:1.0000000;fill-rule:nonzero;stroke:none;stroke-width:1.0000000px;stroke-linecap:butt;stroke-linejoin:miter;stroke-opacity:1.0000000" />
      <path
         d="M 16.815451,33.114343 C 16.817871,33.106849 16.590342,33.167433 16.594635,33.166300 C 16.806940,33.110197 17.018974,33.045632 17.231472,32.996099 C 17.464311,32.941822 16.769630,33.171152 16.542338,33.281547 C 16.052762,33.519335 15.582936,33.818877 15.112457,34.132271 C 12.333847,35.843936 10.864215,38.977657 9.5799056,42.371446 C 9.2430423,43.285115 8.9371101,44.211479 8.6307003,45.137228 L 7.9332493,45.285133 C 8.2515195,44.356833 8.5683274,43.427648 8.9098363,42.508938 C 10.213060,39.137273 11.622560,35.953351 14.393881,34.212900 C 15.382630,33.540450 16.557836,32.775089 17.624897,32.783393 L 16.815451,33.114343 z "
         id="path2584"
         style="fill:#000000;fill-opacity:1.0000000;fill-rule:nonzero;stroke:none;stroke-width:1.0000000px;stroke-linecap:butt;stroke-linejoin:miter;stroke-opacity:1.0000000" />
      <path
         d="M 17.419796,35.449545 C 17.469377,35.385093 17.162053,35.459401 17.227406,35.449343 C 18.721013,35.219541 16.973497,35.659458 16.334128,36.108494 C 14.412426,37.722018 13.222174,40.295725 12.041610,42.645165 C 11.245330,44.276216 10.448699,45.942425 9.1904971,47.148556 C 8.1458830,48.165410 7.0052365,48.277328 5.8543649,48.444849 C 5.8122134,48.447312 5.7700629,48.449779 5.7279132,48.452239 L 6.5390360,48.182146 C 6.5802806,48.178709 6.6215265,48.175272 6.6627718,48.171835 C 6.4427348,48.206297 6.2227609,48.239808 6.0026602,48.275230 C 5.8462234,48.300405 6.3155279,48.227415 6.4723999,48.192549 C 7.1525619,48.041381 7.8159527,47.733627 8.4166444,47.174316 C 9.6868415,45.991023 10.502186,44.336064 11.306453,42.709796 C 12.500200,40.356966 13.700059,37.809097 15.579538,36.119522 C 16.389248,35.515855 17.424676,35.012205 18.261960,35.215554 L 17.419796,35.449545 z "
         id="path2586"
         style="fill:#000000;fill-opacity:1.0000000;fill-rule:nonzero;stroke:none;stroke-width:1.0000000px;stroke-linecap:butt;stroke-linejoin:miter;stroke-opacity:1.0000000" />
      <path
         d="M 17.952497,34.433295 C 17.969968,34.389657 17.798714,34.429920 17.804198,34.429203 C 19.252271,34.241053 17.745278,34.704719 17.161093,35.101981 C 14.789570,36.825291 13.099772,39.700774 11.364446,42.289559 C 10.192706,44.123283 8.7731916,45.599995 7.2166668,46.870634 C 6.4639517,47.484014 5.7133783,48.124044 4.8770083,48.427577 L 4.0892308,48.409827 C 4.9339160,48.128935 5.6948296,47.501235 6.4552899,46.887535 C 8.0233089,45.628204 9.4571082,44.167267 10.645775,42.337762 C 12.402822,39.771080 14.086616,36.902872 16.418161,35.110817 C 17.148820,34.593449 18.031926,33.949546 18.794659,34.199307 L 17.952497,34.433295 z "
         id="path2588"
         style="fill:#000000;fill-opacity:1.0000000;fill-rule:nonzero;stroke:none;stroke-width:1.0000000px;stroke-linecap:butt;stroke-linejoin:miter;stroke-opacity:1.0000000" />
      <path
         d="M 18.559787,36.624107 C 18.392061,36.437314 16.003084,37.241372 14.486954,38.134910 C 12.140355,39.625506 10.373922,42.230787 8.5451642,44.576034 C 7.6451688,45.726085 6.5993782,46.673804 5.5325597,47.540642 L 4.7725898,47.557087 C 5.8486999,46.702685 6.9022003,45.763233 7.8110320,44.616941 C 9.6664804,42.280033 11.445182,39.665101 13.788637,38.136591 C 15.549374,37.084315 17.617073,36.242405 19.401546,36.390231 L 18.559787,36.624107 z "
         id="path2590"
         style="fill:#000000;fill-opacity:1.0000000;fill-rule:nonzero;stroke:none;stroke-width:1.0000000px;stroke-linecap:butt;stroke-linejoin:miter;stroke-opacity:1.0000000" />
      <path
         d="M 14.211134,37.984305 C 13.412451,39.251706 12.741530,40.619476 12.018068,41.942098 C 10.906424,43.897782 9.6707798,45.833141 8.0445766,47.185894 C 7.5318477,47.611099 6.9776012,47.902256 6.4238542,48.174604 L 5.6626700,48.168260 C 6.2166617,47.903048 6.7717429,47.620625 7.2868575,47.203523 C 8.9213050,45.875539 10.185493,43.961407 11.291068,42.002116 C 12.002062,40.700240 12.660416,39.348323 13.376714,38.057482 L 14.211134,37.984305 z "
         id="path2592"
         style="fill:#000000;fill-opacity:1.0000000;fill-rule:nonzero;stroke:none;stroke-width:1.0000000px;stroke-linecap:butt;stroke-linejoin:miter;stroke-opacity:1.0000000" />
      <g
         transform="matrix(1.282490,-0.240690,0.191425,0.608250,81.97988,22.29787)"
         id="g3710"
         style="display:inline">
        <path
           style="fill:#767676;fill-opacity:1.0000000;fill-rule:evenodd;stroke:#000000;stroke-width:1.0000000px;stroke-linecap:butt;stroke-linejoin:miter;stroke-opacity:1.0000000"
           d="M -44.262037,27.119507 L -50.558137,27.192730 L -50.381360,32.496032 L -48.348428,32.496032 L -47.464545,30.197935 L -46.544049,32.538005 L -44.328979,32.490670 L -44.262037,27.119507 z "
           id="path3712"
           sodipodi:nodetypes="cccccccc" />
        <path
           style="fill:#6f5532;fill-opacity:1.0000000;fill-rule:evenodd;stroke:#000000;stroke-width:1.0000000px;stroke-linecap:butt;stroke-linejoin:miter;stroke-opacity:1.0000000"
           d="M -49.237879,18.311952 C -49.211437,18.340419 -55.875868,8.7220580 -47.605566,8.6233583 C -39.423652,8.5246586 -45.940838,18.339798 -45.940838,18.339798 L -44.131247,27.220984 L -50.660364,27.203222 L -49.237879,18.311952 z "
           id="path3714"
           sodipodi:nodetypes="czcccc" />
      </g>
      <g
         transform="matrix(1.172738,0.000000,0.000000,1.177440,124.9221,14.33690)"
         id="g3598">
        <path
           style="fill:#6f5532;fill-opacity:1.0000000;fill-rule:evenodd;stroke:none;stroke-width:0.92659229;stroke-linecap:butt;stroke-linejoin:miter;stroke-miterlimit:4.0000000;stroke-dasharray:none;stroke-opacity:1.0000000;display:inline"
           d="M -85.538541,6.9180973 C -84.395005,4.6504823 -82.176317,-2.5520105 -83.408179,-4.2403730 C -84.697516,-6.0075098 -88.124538,-8.7395273 -92.790762,-3.7640405 C -98.730500,2.5693644 -99.327672,30.006491 -88.415762,29.142209 C -74.828373,29.034734 -76.830957,16.414024 -82.665762,14.485959 C -82.665762,14.485959 -86.682077,9.1857123 -85.538541,6.9180973 z M -82.728262,14.454709 C -84.054988,14.042400 -85.543813,14.359892 -87.165762,15.142209"
           id="path3503"
           sodipodi:nodetypes="czsccscc" />
        <path
           style="fill:none;fill-opacity:1.0000000;fill-rule:evenodd;stroke:#000000;stroke-width:0.92659229;stroke-linecap:butt;stroke-linejoin:miter;stroke-miterlimit:4.0000000;stroke-dasharray:none;stroke-opacity:1.0000000;display:inline"
           d="M -83.540762,-4.1077905 C -83.667682,-4.3332682 -85.133952,-6.8092252 -87.884512,-6.5765405 C -87.926203,-6.5730137 -87.967244,-6.5813420 -88.009512,-6.5765405 C -89.319821,-6.4276930 -90.908771,-5.6459351 -92.790762,-3.7640405 C -98.930642,2.3755338 -99.327672,30.006491 -88.415762,29.142209 C -74.828373,29.034734 -76.830957,16.414024 -82.665762,14.485959 C -82.665762,14.485959 -86.903048,9.0973243 -85.759512,6.8297093 M -82.728262,14.454709 C -84.054988,14.042400 -85.543813,14.359892 -87.165762,15.142209"
           id="path3505"
           sodipodi:nodetypes="cscsccscc" />
      </g>
      <path
         id="path3602"
         d="M 27.626354,34.226385 C 27.563701,35.420036 28.276827,36.926355 28.411841,37.199886 L 24.635461,35.415786 C 24.636748,35.420998 24.633827,35.437968 24.635461,35.445521 C 24.644332,35.494093 24.638074,35.594091 24.635461,35.683402 C 24.624146,35.886152 24.546256,36.179816 24.272927,36.397041 C 24.266510,36.401923 24.249344,36.421953 24.242718,36.426776 C 24.222200,36.441066 24.174565,36.472551 24.152084,36.486247 C 24.121206,36.504222 24.065836,36.528998 24.031239,36.545715 C 23.728991,36.684918 23.285108,36.769638 22.641530,36.753862 C 22.395456,36.747831 22.214303,36.764832 22.127943,36.783597 C 22.122147,36.785181 22.102693,36.781873 22.097732,36.783597 C 22.093592,36.785460 22.070855,36.811331 22.067521,36.813331 C 22.066521,36.815742 22.067768,36.840519 22.067521,36.843066 C 22.069443,36.846012 22.064903,36.869725 22.067521,36.872800 C 22.077421,36.882425 22.112158,36.891753 22.127943,36.902537 C 22.672538,37.246733 25.879871,38.159042 26.236645,39.251602 C 26.238406,39.257520 26.235053,39.275409 26.236645,39.281338 C 26.239494,39.293221 26.264699,39.328879 26.266856,39.340807 C 26.267759,39.346785 26.266131,39.364556 26.266856,39.370543 C 26.267950,39.382542 26.266487,39.417971 26.266856,39.430013 C 26.266856,39.695410 26.142563,39.944212 25.964745,40.143653 C 25.186310,40.974922 23.180853,41.279201 22.732165,41.333054 C 23.424564,41.348556 27.569658,41.488084 27.807621,42.522457 C 27.815733,42.557718 27.838078,42.606054 27.837833,42.641395 C 27.828255,42.791626 27.729530,42.969470 27.596142,43.117154 C 26.767811,43.992605 24.169053,44.784170 23.970817,44.841787 C 24.221623,44.910804 25.385118,45.206111 27.656565,45.258077 C 29.644083,45.303548 30.115327,44.358110 30.224503,43.920001 C 30.240032,43.851846 30.251864,43.775586 30.254715,43.741591 C 30.326336,43.789914 30.878086,44.133907 31.644423,44.484966 C 32.081037,43.980445 32.445257,43.415118 32.671600,42.760335 C 32.673878,42.753750 32.669350,42.737202 32.671600,42.730600 C 32.327960,42.512824 32.072319,42.317342 32.006957,42.165636 C 32.005676,42.162267 32.008042,42.139223 32.006957,42.135899 C 32.006263,42.132666 32.007449,42.109351 32.006957,42.106166 C 32.006870,42.103070 32.006838,42.079478 32.006957,42.076430 C 32.007710,42.073527 32.005989,42.049547 32.006957,42.046696 C 32.008361,42.043941 32.005330,42.019662 32.006957,42.016959 C 32.011109,42.011761 32.032097,41.992214 32.037166,41.987225 C 32.043174,41.982446 32.060418,41.962050 32.067380,41.957489 C 32.071100,41.955263 32.093626,41.959660 32.097590,41.957489 C 32.164981,41.923648 32.264496,41.886843 32.399700,41.868284 C 32.568707,41.845086 32.725815,41.828858 32.883076,41.838550 C 32.976885,41.118055 32.907495,40.343024 32.611177,39.459748 C 32.237041,38.344500 31.719218,37.429768 31.100625,36.694391 C 31.096500,36.689489 31.074545,36.699279 31.070414,36.694391 C 31.054149,36.694564 31.026217,36.694391 31.009992,36.694391 C 30.717948,36.694391 30.489644,36.603868 30.315139,36.456512 C 30.080819,36.242443 29.929904,35.887030 29.861972,35.504991 C 29.857707,35.501679 29.866238,35.478555 29.861972,35.475256 C 29.134320,34.912634 28.342221,34.514171 27.626354,34.226385 z "
         style="fill:#d1ce86;fill-opacity:1.0000000;fill-rule:evenodd;stroke:#000000;stroke-width:0.81293005;stroke-linecap:butt;stroke-linejoin:miter;stroke-miterlimit:4.0000000;stroke-dasharray:none;stroke-opacity:1.0000000;display:inline" />
      <path
         id="path3508"
         d="M 29.754191,40.912782 C 31.772700,40.965429 29.733717,39.608466 30.037531,41.152895 C 28.664148,41.656737 28.744044,41.279940 29.779294,41.760324 L 28.211928,41.124587 C 29.513789,41.933371 30.291747,42.886032 31.549074,41.957137 C 31.666428,40.436004 29.439517,39.227721 28.184959,40.140140 L 29.754191,40.912782 z "
         style="fill:#000000;fill-opacity:1.0000000;fill-rule:nonzero;stroke:none;stroke-width:1.0000000pt;stroke-linecap:butt;stroke-linejoin:miter;stroke-opacity:1.0000000;display:inline" />
      <path
         d="M 22.527995,26.619542 C 23.231450,26.239669 23.107501,26.650188 23.978095,26.826419 C 24.620392,26.999479 26.098550,27.000412 25.893005,27.577768 C 25.121475,28.416097 23.802292,29.195564 22.848847,30.023271 C 22.616205,30.229903 22.729638,30.128120 22.508347,30.328594 L 22.034086,30.535852 C 22.260693,30.332631 22.144617,30.435795 22.382495,30.226377 C 23.334031,29.405809 24.623037,28.631202 25.410367,27.800520 C 25.637216,27.235275 24.152952,27.226776 23.539339,27.057296 C 22.952349,26.942782 21.881489,26.834152 23.001152,26.346544 L 22.527995,26.619542 z "
         id="path3606"
         style="fill:#d1ce86;fill-opacity:1.0000000;fill-rule:nonzero;stroke:none;stroke-width:1.0000000px;stroke-linecap:butt;stroke-linejoin:miter;stroke-opacity:1.0000000;display:inline" />
      <path
         d="M 25.542973,25.408534 C 25.721101,25.507773 25.981891,25.577497 26.190930,25.665214 C 26.572970,25.962932 26.167399,26.492939 26.325456,26.872228 C 26.677614,27.350012 27.562771,27.573522 28.098349,27.968686 L 27.623601,28.206138 C 27.104705,27.800556 26.245354,27.562029 25.871168,27.092437 C 25.698277,26.723554 26.070313,26.209203 25.708731,25.911773 C 25.489919,25.819933 25.232604,25.751207 25.021863,25.655117 L 25.542973,25.408534 z "
         id="path3608"
         style="fill:#d1ce86;fill-opacity:1.0000000;fill-rule:nonzero;stroke:none;stroke-width:1.0000000px;stroke-linecap:butt;stroke-linejoin:miter;stroke-opacity:1.0000000;display:inline" />
      <path
         d="M 27.671422,24.610221 C 28.487580,24.142398 27.847357,24.747982 28.009922,25.052358 C 28.392645,25.561543 29.197081,25.928662 28.853616,26.652184 C 28.439231,27.288186 27.708852,27.923195 27.208443,28.561102 C 27.182975,28.594918 27.157503,28.628738 27.132034,28.662557 L 26.641994,28.882477 C 26.668151,28.848182 26.694308,28.813887 26.720468,28.779594 C 27.226197,28.140652 27.958356,27.505287 28.382686,26.867936 C 28.732724,26.149451 27.959028,25.770982 27.545368,25.278939 C 27.344242,24.953434 27.358205,24.672695 28.144578,24.337223 L 27.671422,24.610221 z "
         id="path3610"
         style="fill:#d1ce86;fill-opacity:1.0000000;fill-rule:nonzero;stroke:none;stroke-width:1.0000000px;stroke-linecap:butt;stroke-linejoin:miter;stroke-opacity:1.0000000;display:inline" />
      <path
         d="M 24.424836,25.691899 C 24.499409,25.828990 24.703614,25.921416 24.853289,26.028521 C 25.293259,26.388903 24.347237,26.993781 23.822073,27.465055 C 22.920058,28.193875 23.520104,28.605221 24.161574,28.969217 L 23.726416,29.189612 C 23.092409,28.821557 22.424578,28.414624 23.337481,27.676749 C 23.846502,27.219975 24.793149,26.620873 24.372973,26.269287 C 24.218127,26.158851 24.015727,26.066757 23.903726,25.938482 L 24.424836,25.691899 z "
         id="path3612"
         style="fill:#d1ce86;fill-opacity:1.0000000;fill-rule:nonzero;stroke:none;stroke-width:1.0000000px;stroke-linecap:butt;stroke-linejoin:miter;stroke-opacity:1.0000000;display:inline" />
      <path
         d="M 24.480524,25.225628 C 24.310482,25.568604 24.211290,25.898587 24.289168,26.195569 C 24.573273,26.782553 25.503484,27.093496 26.112683,27.539764 C 26.485213,27.785305 26.466431,28.125380 26.294303,28.519721 L 25.806903,28.743576 C 25.984695,28.353952 26.011624,28.016284 25.652118,27.770618 C 25.056562,27.314615 24.142287,26.994768 23.830599,26.416153 C 23.739438,26.129389 23.814699,25.806091 23.959851,25.472002 L 24.480524,25.225628 z "
         id="path3614"
         style="fill:#d1ce86;fill-opacity:1.0000000;fill-rule:nonzero;stroke:none;stroke-width:1.0000000px;stroke-linecap:butt;stroke-linejoin:miter;stroke-opacity:1.0000000;display:inline" />
      <path
         d="M 26.661420,25.109258 C 26.577958,25.117247 26.520424,25.157637 26.449719,25.185334 C 27.151269,24.789602 26.734361,25.102537 26.749411,25.335337 C 26.861316,25.770683 27.342147,26.075169 27.543100,26.479699 C 27.711459,26.942873 26.933630,27.580446 26.324539,28.095196 C 26.109919,28.273858 25.882947,28.450473 25.656640,28.627123 L 25.151453,28.845011 C 25.381570,28.666898 25.612155,28.488812 25.832421,28.308934 C 26.442051,27.802208 27.220505,27.171887 27.065796,26.711552 C 26.871341,26.303512 26.401999,25.993770 26.269182,25.564027 C 26.227705,25.288349 26.440558,25.013268 27.133786,24.836716 L 26.661420,25.109258 z "
         id="path3616"
         style="fill:#d1ce86;fill-opacity:1.0000000;fill-rule:nonzero;stroke:none;stroke-width:1.0000000px;stroke-linecap:butt;stroke-linejoin:miter;stroke-opacity:1.0000000;display:inline" />
      <path
         d="M 21.964935,25.962382 C 21.896127,26.250121 21.891758,26.523650 21.979614,26.774438 C 22.151144,27.251525 22.749646,27.534016 23.414571,27.780265 C 23.974237,27.955259 24.310087,28.213916 24.351935,28.607781 C 24.356934,28.893035 24.210779,29.215118 24.356448,29.463446 C 24.404820,29.525060 24.504456,29.559016 24.603130,29.594179 L 24.119881,29.844363 C 24.018379,29.806111 23.915660,29.768971 23.864509,29.704581 C 23.715012,29.453735 23.860138,29.130042 23.864060,28.839269 C 23.831939,28.447799 23.500540,28.194066 22.955687,28.016563 C 22.292421,27.763433 21.687417,27.481442 21.510738,27.000841 C 21.417571,26.754453 21.410732,26.486979 21.443825,26.208966 L 21.964935,25.962382 z "
         id="path3618"
         style="fill:#d1ce86;fill-opacity:1.0000000;fill-rule:nonzero;stroke:none;stroke-width:1.0000000px;stroke-linecap:butt;stroke-linejoin:miter;stroke-opacity:1.0000000;display:inline" />
      <path
         d="M 23.027164,25.665112 C 22.713225,26.033351 22.548581,26.396071 22.575667,26.724867 C 22.755043,27.375317 23.901170,27.610199 24.685185,27.981610 C 25.257758,28.214440 25.150406,28.638663 24.945485,29.100446 C 24.856969,29.285908 24.729429,29.474387 24.588614,29.663011 L 24.074667,29.893270 C 24.220655,29.704049 24.353248,29.514901 24.448078,29.328318 C 24.664583,28.870711 24.784009,28.450045 24.230457,28.213492 C 23.455916,27.831897 22.319820,27.587467 22.117432,26.943017 C 22.079463,26.631320 22.206001,26.259201 22.506055,25.911696 L 23.027164,25.665112 z "
         id="path3620"
         style="fill:#d1ce86;fill-opacity:1.0000000;fill-rule:nonzero;stroke:none;stroke-width:1.0000000px;stroke-linecap:butt;stroke-linejoin:miter;stroke-opacity:1.0000000;display:inline" />
      <path
         d="M 25.658775,25.446462 C 26.571262,24.924786 25.882307,25.497378 25.781695,25.775412 C 25.703517,26.331049 26.100543,26.757656 26.349931,27.217340 C 26.636099,27.659728 26.372690,28.213022 26.015527,28.776024 C 25.809648,29.098957 25.562030,29.423551 25.306315,29.747988 L 24.805085,29.972310 C 25.067584,29.645452 25.324574,29.318327 25.536957,28.992708 C 25.897962,28.434117 26.155607,27.886739 25.880353,27.445964 C 25.634202,26.981585 25.257043,26.549550 25.297274,25.999852 C 25.393476,25.660370 25.498750,25.444874 26.131936,25.173462 L 25.658775,25.446462 z "
         id="path3622"
         style="fill:#d1ce86;fill-opacity:1.0000000;fill-rule:nonzero;stroke:none;stroke-width:1.0000000px;stroke-linecap:butt;stroke-linejoin:miter;stroke-opacity:1.0000000;display:inline" />
      <path
         d="M 27.220176,24.702754 C 27.188797,24.905286 27.229087,25.087955 27.300462,25.264006 C 27.546571,25.773140 27.969649,26.219562 28.227594,26.724713 C 28.408494,27.180084 27.707877,27.778170 27.194085,28.299918 C 26.824843,28.697685 26.360378,29.089902 26.010314,29.488209 C 25.727723,29.799716 25.812456,29.993546 26.184470,30.113440 L 25.706996,30.361561 C 25.328207,30.235884 25.219691,30.035493 25.506025,29.712950 C 25.854198,29.310669 26.329180,28.915696 26.707357,28.514530 C 27.219605,28.000303 27.913185,27.407891 27.754522,26.954557 C 27.513324,26.443255 27.104957,25.990870 26.836004,25.489268 C 26.750604,25.319795 26.690873,25.144970 26.699067,24.949337 L 27.220176,24.702754 z "
         id="path3624"
         style="fill:#d1ce86;fill-opacity:1.0000000;fill-rule:nonzero;stroke:none;stroke-width:1.0000000px;stroke-linecap:butt;stroke-linejoin:miter;stroke-opacity:1.0000000;display:inline" />
      <path
         d="M 23.976928,26.252302 C 24.149558,26.551704 24.494688,26.788307 24.723080,27.068465 C 25.193224,27.576823 25.067114,28.239724 24.858834,28.919982 C 24.749196,29.317417 24.495639,29.746834 24.596278,30.101713 C 24.632267,30.199184 24.723015,30.273568 24.826047,30.343530 L 24.339874,30.589141 C 24.234800,30.516332 24.143504,30.438717 24.106864,30.338029 C 24.002600,29.978515 24.260334,29.544572 24.385937,29.139170 C 24.608819,28.459658 24.741857,27.796881 24.268822,27.292353 C 24.033289,27.012262 23.690943,26.777828 23.457126,26.498264 L 23.976928,26.252302 z "
         id="path3626"
         style="fill:#d1ce86;fill-opacity:1.0000000;fill-rule:nonzero;stroke:none;stroke-width:1.0000000px;stroke-linecap:butt;stroke-linejoin:miter;stroke-opacity:1.0000000;display:inline" />
      <path
         d="M 25.156749,25.962724 C 24.824162,26.383508 24.589046,26.812940 24.323671,27.234217 C 23.926455,27.856431 23.620338,28.472474 23.375688,29.080122 C 23.119722,29.609917 23.529041,29.930117 24.096771,30.175858 C 24.317986,30.273255 24.592325,30.336311 24.875783,30.391596 L 24.413702,30.634663 C 24.131626,30.576158 23.857078,30.510888 23.634789,30.412412 C 23.065483,30.163347 22.636926,29.836802 22.891668,29.303104 C 23.139194,28.691751 23.465758,28.070116 23.858400,27.445097 C 24.118883,27.027269 24.369065,26.609996 24.617238,26.193420 L 25.156749,25.962724 z "
         id="path3628"
         style="fill:#d1ce86;fill-opacity:1.0000000;fill-rule:nonzero;stroke:none;stroke-width:1.0000000px;stroke-linecap:butt;stroke-linejoin:miter;stroke-opacity:1.0000000;display:inline" />
      <path
         d="M 26.432823,25.226376 C 26.576551,25.411377 26.508073,25.663140 26.479134,25.893950 C 26.371456,26.703173 26.683003,27.410862 26.866152,28.145983 C 26.925194,28.639202 27.137401,29.079316 27.473410,29.481850 C 27.717523,29.710304 27.500438,30.010219 27.227196,30.329410 L 26.717761,30.555622 C 26.995011,30.242928 27.223990,29.945933 26.995081,29.717515 C 26.671551,29.307116 26.458355,28.863525 26.411946,28.363862 C 26.244457,27.623683 25.956216,26.911027 26.011595,26.113769 C 26.029145,25.893531 26.081353,25.652512 25.925105,25.481156 L 26.432823,25.226376 z "
         id="path3630"
         style="fill:#d1ce86;fill-opacity:1.0000000;fill-rule:nonzero;stroke:none;stroke-width:1.0000000px;stroke-linecap:butt;stroke-linejoin:miter;stroke-opacity:1.0000000;display:inline" />
      <path
         d="M 23.736224,25.893741 C 24.619074,25.419227 24.035285,26.160094 24.240835,26.604424 C 24.571294,27.238523 25.215415,27.752354 25.710827,28.323147 C 26.007925,28.623684 26.041700,29.005551 25.952539,29.413907 C 25.887877,29.646839 25.728977,29.895460 25.762195,30.109752 C 25.959425,30.361456 25.573181,30.566387 25.085088,30.828575 C 24.950424,30.897242 24.823003,30.969320 24.695427,31.041429 L 24.173234,31.260350 C 24.303236,31.185950 24.432949,31.111581 24.572032,31.041540 C 25.040407,30.791981 25.457098,30.593918 25.262989,30.349482 C 25.219443,30.134338 25.377510,29.883309 25.455575,29.645185 C 25.556298,29.236732 25.533320,28.854870 25.247273,28.551775 C 24.769146,27.972172 24.150585,27.446449 23.803677,26.816792 C 23.609764,26.439885 23.267819,26.011419 24.256897,25.647364 L 23.736224,25.893741 z "
         id="path3632"
         style="fill:#d1ce86;fill-opacity:1.0000000;fill-rule:nonzero;stroke:none;stroke-width:1.0000000px;stroke-linecap:butt;stroke-linejoin:miter;stroke-opacity:1.0000000;display:inline" />
      <path
         d="M 23.138979,26.441541 C 23.187144,26.642445 23.285040,26.829598 23.345004,27.027692 C 23.454283,27.517830 23.234109,28.080216 23.045618,28.628239 C 22.708136,29.300538 23.574880,29.372563 24.542217,29.427614 C 25.239908,29.465247 26.027439,29.462905 26.325262,29.776733 C 26.441052,29.915855 26.386548,30.069988 26.219910,30.257090 C 26.093387,30.394232 25.915360,30.525031 25.735288,30.654128 L 25.207815,30.879644 C 25.388324,30.752234 25.568653,30.623248 25.698880,30.487641 C 25.866519,30.306740 25.940074,30.157599 25.832508,30.019337 C 25.559250,29.704451 24.783696,29.704199 24.107870,29.661601 C 23.134315,29.600908 22.210561,29.540280 22.563244,28.851344 C 22.755286,28.305112 22.990932,27.741882 22.870328,27.256259 C 22.808064,27.059472 22.707333,26.875931 22.617868,26.688124 L 23.138979,26.441541 z "
         id="path3634"
         style="fill:#d1ce86;fill-opacity:1.0000000;fill-rule:nonzero;stroke:none;stroke-width:1.0000000px;stroke-linecap:butt;stroke-linejoin:miter;stroke-opacity:1.0000000;display:inline" />
      <path
         d="M 27.335550,26.581435 C 26.912766,27.024916 26.682172,27.457354 26.503257,27.887956 C 26.277158,28.440427 26.135603,28.980991 26.026127,29.515217 C 26.015646,29.879616 25.709291,30.261984 25.355333,30.653730 C 25.333563,30.677260 25.311799,30.700787 25.290033,30.724319 L 24.784762,30.948034 C 24.807160,30.924359 24.829561,30.900684 24.851962,30.877008 C 25.209595,30.487250 25.522541,30.106359 25.540329,29.741970 C 25.660483,29.202851 25.805987,28.658582 26.037388,28.102386 C 26.213927,27.679098 26.426825,27.254614 26.803245,26.818780 L 27.335550,26.581435 z "
         id="path3636"
         style="fill:#d1ce86;fill-opacity:1.0000000;fill-rule:nonzero;stroke:none;stroke-width:1.0000000px;stroke-linecap:butt;stroke-linejoin:miter;stroke-opacity:1.0000000;display:inline" />
      <path
         d="M 27.499711,25.440689 C 27.484883,25.635989 27.486232,25.827789 27.472300,26.022893 C 27.384648,26.735908 27.464224,27.410779 27.498608,28.095733 C 27.505661,28.522770 27.514708,28.954448 27.332296,29.417712 C 27.183342,29.732840 26.886100,30.054684 26.564866,30.371554 L 26.052497,30.596470 C 26.381134,30.280776 26.682679,29.959608 26.839470,29.644318 C 27.029787,29.179909 27.029623,28.746102 27.033228,28.316486 C 27.011511,27.628934 26.959300,26.948420 26.997865,26.246866 C 26.998479,26.058699 26.991593,25.872205 26.978602,25.687270 L 27.499711,25.440689 z "
         id="path3638"
         style="fill:#d1ce86;fill-opacity:1.0000000;fill-rule:nonzero;stroke:none;stroke-width:1.0000000px;stroke-linecap:butt;stroke-linejoin:miter;stroke-opacity:1.0000000;display:inline" />
      <path
         d="M 28.450126,26.666318 C 28.612143,26.778626 28.598572,26.945834 28.539885,27.123636 C 28.199441,27.691660 27.658127,28.271662 27.488138,28.825304 C 27.425296,29.205859 27.541961,29.541126 27.234116,29.956450 C 26.992431,30.226971 26.715432,30.495797 26.466236,30.766017 L 25.959619,30.990751 C 26.210675,30.719727 26.491313,30.450333 26.736399,30.179042 C 27.050013,29.764891 26.945675,29.427014 27.008971,29.047520 C 27.181068,28.494573 27.712970,27.917505 28.046454,27.350642 C 28.103240,27.175079 28.116825,27.014914 27.929018,26.912901 L 28.450126,26.666318 z "
         id="path3640"
         style="fill:#d1ce86;fill-opacity:1.0000000;fill-rule:nonzero;stroke:none;stroke-width:1.0000000px;stroke-linecap:butt;stroke-linejoin:miter;stroke-opacity:1.0000000;display:inline" />
      <path
         d="M 25.777009,25.158004 C 25.938698,25.076019 26.099186,24.993303 26.262078,24.912050 C 26.580694,24.753123 25.810177,25.292457 25.631342,25.486028 C 25.240299,25.909303 25.018648,26.315305 24.878330,26.722240 C 24.607536,27.770108 25.176679,28.614832 25.528607,29.498745 C 25.742354,29.993936 25.850093,30.518914 25.564873,31.125459 C 25.524831,31.214069 25.468086,31.304128 25.416480,31.393719 L 24.921193,31.618394 C 24.975885,31.528210 25.036040,31.437573 25.078413,31.348326 C 25.376766,30.741051 25.282332,30.212687 25.085718,29.712801 C 24.756646,28.817935 24.204005,27.965749 24.451714,26.919786 C 24.655030,26.278323 25.067658,25.459169 26.233254,24.878756 L 25.777009,25.158004 z "
         id="path3642"
         style="fill:#d1ce86;fill-opacity:1.0000000;fill-rule:nonzero;stroke:none;stroke-width:1.0000000px;stroke-linecap:butt;stroke-linejoin:miter;stroke-opacity:1.0000000;display:inline" />
      <g
         transform="matrix(1.143962,0.259237,-0.258201,1.148547,8.310061,1.766664)"
         id="g3644"
         style="display:inline">
        <path
           style="fill:#d1ce86;fill-opacity:1.0000000;fill-rule:evenodd;stroke:#000000;stroke-width:0.63700002;stroke-linecap:butt;stroke-linejoin:miter;stroke-miterlimit:4.0000000;stroke-dasharray:none;stroke-opacity:1.0000000;display:inline"
           d="M 24.335113,7.0557725 C 24.331747,7.1050809 23.415013,13.504978 16.252082,7.4779706"
           id="path3646"
           sodipodi:nodetypes="cz" />
        <path
           style="fill:#6f5532;fill-opacity:1.0000000;fill-rule:evenodd;stroke:#000000;stroke-width:0.43700001;stroke-linecap:butt;stroke-linejoin:miter;stroke-miterlimit:4.0000000;stroke-dasharray:none;stroke-opacity:1.0000000;display:inline"
           d="M 16.932836,6.2022597 C 21.988771,6.3503145 24.356068,7.0386845 24.356068,7.0386845 C 24.356068,7.0386845 21.000572,12.709996 16.083807,7.3339794"
           id="path3648"
           sodipodi:nodetypes="ccs" />
      </g>
      <g
         transform="matrix(1.164384,-0.140276,0.139715,1.169053,6.562178,7.191287)"
         id="g3650"
         style="display:inline">
        <path
           style="fill:#d1ce86;fill-opacity:1.0000000;fill-rule:evenodd;stroke:#000000;stroke-width:0.63700002;stroke-linecap:butt;stroke-linejoin:miter;stroke-miterlimit:4.0000000;stroke-dasharray:none;stroke-opacity:1.0000000"
           d="M -0.27642496,7.9638485 C -0.27020121,8.0125842 1.0199935,14.313652 7.8732300,7.9700466"
           id="path3652"
           sodipodi:nodetypes="cz" />
        <path
           style="fill:#6f5532;fill-opacity:1.0000000;fill-rule:evenodd;stroke:#000000;stroke-width:0.43700001;stroke-linecap:butt;stroke-linejoin:miter;stroke-miterlimit:4.0000000;stroke-dasharray:none;stroke-opacity:1.0000000"
           d="M 7.1154262,6.7394562 C 2.0415596,7.1443668 -0.29847461,7.9479690 -0.29847461,7.9479690 C -0.29847461,7.9479690 3.4012762,13.401899 8.0340905,7.8186372"
           id="path3654"
           sodipodi:nodetypes="ccs" />
      </g>
      <g
         transform="matrix(-1.290296,0.174813,0.000000,1.454287,35.02659,20.40507)"
         id="g3656"
         style="display:inline">
        <path
           style="fill:#ababab;fill-opacity:1.0000000;fill-rule:evenodd;stroke:none;stroke-width:0.81018460px;stroke-linecap:butt;stroke-linejoin:miter;stroke-opacity:1.0000000;display:inline"
           d="M 6.7591269,-4.8961329 C 6.7591269,-4.8961329 7.3943289,-4.4838409 7.8969489,-4.5576859 C 8.3995679,-4.6315299 8.7696049,-5.1915099 8.7696049,-5.1915099 C 8.7696049,-5.1915099 10.142454,-8.0714369 7.7493959,-9.3267899 C 5.4164679,-10.550600 3.3096029,-5.9299529 2.1084759,-7.7022149 C 0.90734691,-9.4744779 2.1663769,-11.689807 2.1663769,-11.689807 C 2.1663769,-11.689807 -0.48084809,-8.5093179 -0.31524609,-7.1114609 C -0.12278509,-5.4868869 0.40016891,-4.5393389 6.7237739,-6.4468629 C 6.8446189,-6.4833159 6.7591269,-4.8961329 6.7591269,-4.8961329 z "
           id="path3658"
           sodipodi:nodetypes="csczscssc" />
        <path
           style="fill:none;fill-opacity:0.75000000;fill-rule:evenodd;stroke:#000000;stroke-width:0.81018460px;stroke-linecap:butt;stroke-linejoin:miter;stroke-opacity:1.0000000;display:inline"
           d="M 8.7696049,-5.1915099 C 8.7696049,-5.1915099 10.142454,-8.0714369 7.7493959,-9.3267899 C 5.4164679,-10.550600 3.3096029,-5.9299529 2.1084759,-7.7022149 C 0.90734691,-9.4744779 2.1663769,-11.689807 2.1663769,-11.689807 C 2.1663769,-11.689807 -0.48084809,-8.5093179 -0.31524609,-7.1114609 C -0.12278509,-5.4868869 0.40016891,-4.5393389 6.7237739,-6.4468629 C 6.8446189,-6.4833159 6.7591269,-4.8961329 6.7591269,-4.8961329"
           id="path3660"
           sodipodi:nodetypes="czscssc" />
      </g>
      <g
         transform="matrix(1.290296,-0.124866,0.000000,1.454287,8.573670,22.59936)"
         id="g3662"
         style="display:inline">
        <path
           style="fill:#ababab;fill-opacity:1.0000000;fill-rule:evenodd;stroke:none;stroke-width:0.81018460px;stroke-linecap:butt;stroke-linejoin:miter;stroke-opacity:1.0000000;display:inline"
           d="M 6.7591269,-4.8961329 C 6.7591269,-4.8961329 7.3943289,-4.4838409 7.8969489,-4.5576859 C 8.3995679,-4.6315299 8.7696049,-5.1915099 8.7696049,-5.1915099 C 8.7696049,-5.1915099 10.142454,-8.0714369 7.7493959,-9.3267899 C 5.4164679,-10.550600 3.3096029,-5.9299529 2.1084759,-7.7022149 C 0.90734691,-9.4744779 2.1663769,-11.689807 2.1663769,-11.689807 C 2.1663769,-11.689807 -0.48084809,-8.5093179 -0.31524609,-7.1114609 C -0.12278509,-5.4868869 0.40016891,-4.5393389 6.7237739,-6.4468629 C 6.8446189,-6.4833159 6.7591269,-4.8961329 6.7591269,-4.8961329 z "
           id="path3664"
           sodipodi:nodetypes="csczscssc" />
        <path
           style="fill:none;fill-opacity:0.75000000;fill-rule:evenodd;stroke:#000000;stroke-width:0.81018460px;stroke-linecap:butt;stroke-linejoin:miter;stroke-opacity:1.0000000;display:inline"
           d="M 8.7696049,-5.1915099 C 8.7696049,-5.1915099 10.142454,-8.0714369 7.7493959,-9.3267899 C 5.4164679,-10.550600 3.3096029,-5.9299529 2.1084759,-7.7022149 C 0.90734691,-9.4744779 2.1663769,-11.689807 2.1663769,-11.689807 C 2.1663769,-11.689807 -0.48084809,-8.5093179 -0.31524609,-7.1114609 C -0.12278509,-5.4868869 0.40016891,-4.5393389 6.7237739,-6.4468629 C 6.8446189,-6.4833159 6.7591269,-4.8961329 6.7591269,-4.8961329"
           id="path3666"
           sodipodi:nodetypes="czscssc" />
      </g>
      <path
         sodipodi:nodetypes="cccc"
         id="path3682"
         d="M 20.783209,18.399300 L 21.463990,26.417314 L 28.631805,25.276910 L 24.557944,17.712142"
         style="fill:#6f5532;fill-opacity:1.0000000;fill-rule:evenodd;stroke:#000000;stroke-width:0.99986321;stroke-linecap:butt;stroke-linejoin:miter;stroke-miterlimit:4.0000000;stroke-dasharray:none;stroke-opacity:1.0000000;display:inline" />
      <path
         sodipodi:nodetypes="cc"
         id="path3684"
         d="M 21.278509,26.543024 C 26.198612,28.208715 28.964542,25.356961 28.964542,25.356961"
         style="fill:#362918;fill-opacity:1.0000000;fill-rule:evenodd;stroke:#000000;stroke-width:0.99986321;stroke-linecap:butt;stroke-linejoin:miter;stroke-miterlimit:4.0000000;stroke-dasharray:none;stroke-opacity:1.0000000;display:inline" />
      <path
         sodipodi:nodetypes="ccccc"
         id="path3686"
         d="M 23.989970,27.849049 C 24.873593,28.014014 25.889090,28.380689 26.784345,28.308895 C 26.410685,28.853615 25.833058,29.682620 25.202651,29.596641 C 24.008742,29.387635 23.440215,29.082164 22.892805,28.636162 C 23.185231,28.422852 23.697545,28.062359 23.989970,27.849049 z "
         style="fill:#000000;fill-opacity:1.0000000;fill-rule:nonzero;stroke:none;stroke-width:1.0000000px;stroke-linecap:butt;stroke-linejoin:miter;stroke-opacity:1.0000000;display:inline" />
      <g
         transform="matrix(1.257568,0.348921,-9.391707e-2,0.630885,76.96676,49.66539)"
         id="g3704"
         style="display:inline">
        <path
           style="fill:#767676;fill-opacity:1.0000000;fill-rule:evenodd;stroke:#000000;stroke-width:1.0000000px;stroke-linecap:butt;stroke-linejoin:miter;stroke-opacity:1.0000000"
           d="M -44.262037,27.119507 L -50.558137,27.192730 L -50.381360,32.496032 L -48.348428,32.496032 L -47.464545,30.197935 L -46.544049,32.538005 L -44.328979,32.490670 L -44.262037,27.119507 z "
           id="path3706"
           sodipodi:nodetypes="cccccccc" />
        <path
           style="fill:#6f5532;fill-opacity:1.0000000;fill-rule:evenodd;stroke:#000000;stroke-width:1.0000000px;stroke-linecap:butt;stroke-linejoin:miter;stroke-opacity:1.0000000"
           d="M -49.237879,18.311952 C -49.211437,18.340419 -55.875868,8.7220580 -47.605566,8.6233583 C -39.423652,8.5246586 -45.940838,18.339798 -45.940838,18.339798 L -44.131247,27.220984 L -50.660364,27.203222 L -49.237879,18.311952 z "
           id="path3708"
           sodipodi:nodetypes="czcccc" />
      </g>
      <g
         transform="matrix(0.864633,0.792290,-0.795467,0.868100,85.60661,88.48479)"
         id="g3733">
        <path
           style="fill:#767676;fill-opacity:1.0000000;fill-rule:evenodd;stroke:#000000;stroke-width:0.83413351px;stroke-linecap:butt;stroke-linejoin:miter;stroke-opacity:1.0000000"
           d="M -66.528242,12.381043 L -70.518949,16.844944 L -67.353228,19.127665 L -66.051070,17.697058 L -66.807660,16.031970 L -64.871148,16.446339 L -63.479570,14.866073 L -66.528242,12.381043 z "
           id="path3698"
           sodipodi:nodetypes="cccccccc" />
        <path
           style="fill:#6f5532;fill-opacity:1.0000000;fill-rule:evenodd;stroke:#000000;stroke-width:0.83413351px;stroke-linecap:butt;stroke-linejoin:miter;stroke-opacity:1.0000000"
           d="M -74.784907,11.884952 C -74.751585,11.879266 -84.556531,12.203445 -79.315948,6.3387022 C -74.131980,0.53615950 -72.657019,9.5774110 -72.657019,9.5774110 L -66.386058,12.335063 L -70.578390,16.921645 L -74.784907,11.884952 z "
           id="path3700"
           sodipodi:nodetypes="czcccc" />
      </g>
      <g
         transform="matrix(1.239195,0.000000,0.000000,1.239195,4.054716,3.338871)"
         id="g1749">
        <g
           id="g1744"
           transform="matrix(0.923030,0.000000,0.000000,0.917700,1.428688,0.986602)">
          <path
             style="fill:#000000;fill-opacity:1.0000000;fill-rule:nonzero;stroke:#0f0f0f;stroke-width:0.0000000;stroke-miterlimit:4.0000000;stroke-opacity:1.0000000"
             d="M 13.968190,8.7659780 C 13.968190,10.544493 14.997108,11.987923 16.264881,11.987923 C 17.532654,11.987923 18.561568,10.544493 18.561568,8.7659780 C 18.561568,6.9874630 17.532654,5.5440300 16.264881,5.5440300 C 14.997108,5.5440300 13.968190,6.9874630 13.968190,8.7659780 z "
             id="path1706" />
          <path
             style="fill:#ffffff;fill-opacity:1.0000000;fill-rule:nonzero;stroke:#0f0f0f;stroke-width:0.0000000;stroke-miterlimit:4.0000000;stroke-opacity:1.0000000"
             d="M 14.631114,8.9995340 C 14.787586,10.421625 15.737595,11.472602 16.751665,11.345461 C 17.765739,11.218321 18.461768,9.9609710 18.305293,8.5388800 C 18.148824,7.1167920 17.198820,6.0658190 16.184746,6.1929590 C 15.170676,6.3200960 14.474646,7.5774460 14.631114,8.9995340 z "
             id="path1712" />
          <path
             style="fill:#000000;fill-opacity:1.0000000;fill-rule:nonzero;stroke:#0f0f0f;stroke-width:0.0000000;stroke-miterlimit:4.0000000;stroke-opacity:1.0000000"
             d="M 15.724336,9.6345490 C 15.724336,10.225223 16.233728,10.704615 16.861379,10.704615 C 17.489026,10.704615 17.998418,10.225223 17.998418,9.6345490 C 17.998418,9.0438750 17.489026,8.5644870 16.861379,8.5644870 C 16.233728,8.5644870 15.724336,9.0438750 15.724336,9.6345490 z "
             id="path1714" />
        </g>
        <path
           id="path1724"
           d="M 10.784787,9.2079190 C 10.784787,10.986434 11.813705,12.429864 13.081478,12.429864 C 14.349251,12.429864 15.378165,10.986434 15.378165,9.2079190 C 15.378165,7.4294040 14.349251,5.9859710 13.081478,5.9859710 C 11.813705,5.9859710 10.784787,7.4294040 10.784787,9.2079190 z "
           style="fill:#000000;fill-opacity:1.0000000;fill-rule:nonzero;stroke:#0f0f0f;stroke-width:0.0000000;stroke-miterlimit:4.0000000;stroke-opacity:1.0000000;display:inline" />
        <path
           id="path1726"
           d="M 11.447711,9.4414750 C 11.604183,10.863566 12.554192,11.914543 13.568262,11.787402 C 14.582336,11.660262 15.278365,10.402912 15.121890,8.9808210 C 14.965421,7.5587330 14.015417,6.5077600 13.001343,6.6349000 C 11.987273,6.7620370 11.291243,8.0193870 11.447711,9.4414750 z "
           style="fill:#ffffff;fill-opacity:1.0000000;fill-rule:nonzero;stroke:#0f0f0f;stroke-width:0.0000000;stroke-miterlimit:4.0000000;stroke-opacity:1.0000000;display:inline" />
        <path
           id="path1728"
           d="M 12.540933,10.076490 C 12.540933,10.667164 13.050325,11.146556 13.677976,11.146556 C 14.305623,11.146556 14.815015,10.667164 14.815015,10.076490 C 14.815015,9.4858160 14.305623,9.0064280 13.677976,9.0064280 C 13.050325,9.0064280 12.540933,9.4858160 12.540933,10.076490 z "
           style="fill:#000000;fill-opacity:1.0000000;fill-rule:nonzero;stroke:#0f0f0f;stroke-width:0.0000000;stroke-miterlimit:4.0000000;stroke-opacity:1.0000000;display:inline" />
      </g>
    </g>
  </g>
</svg>
