<?xml version="1.0" encoding="UTF-8" standalone="no"?>
<!-- Created with Inkscape (http://www.inkscape.org/) -->
<svg
   xmlns:dc="http://purl.org/dc/elements/1.1/"
   xmlns:cc="http://web.resource.org/cc/"
   xmlns:rdf="http://www.w3.org/1999/02/22-rdf-syntax-ns#"
   xmlns:svg="http://www.w3.org/2000/svg"
   xmlns="http://www.w3.org/2000/svg"
   xmlns:xlink="http://www.w3.org/1999/xlink"
   xmlns:sodipodi="http://inkscape.sourceforge.net/DTD/sodipodi-0.dtd"
   xmlns:inkscape="http://www.inkscape.org/namespaces/inkscape"
   width="32.000000px"
   height="42.000000px"
   id="svg1"
   sodipodi:version="0.32"
   inkscape:version="0.43"
   sodipodi:docbase="/home/yekcim/Desktop/SVG/Skins/gnuteam"
   sodipodi:docname="jump.svg"
   inkscape:export-filename="/home/yekcim/Desktop/jump2.png"
   inkscape:export-xdpi="90.000000"
   inkscape:export-ydpi="90.000000"
   inkscape:output_extension="org.inkscape.output.svg.inkscape">
  <defs
     id="defs3">
    <defs
       id="defs1062">
      <linearGradient
         inkscape:collect="always"
         id="linearGradient10630">
        <stop
           style="stop-color:#616161;stop-opacity:1;"
           offset="0"
           id="stop10631" />
        <stop
           style="stop-color:#616161;stop-opacity:0;"
           offset="1"
           id="stop10632" />
      </linearGradient>
      <linearGradient
         inkscape:collect="always"
         id="linearGradient10560">
        <stop
           style="stop-color:#000000;stop-opacity:1;"
           offset="0"
           id="stop10561" />
        <stop
           style="stop-color:#000000;stop-opacity:0;"
           offset="1"
           id="stop10562" />
      </linearGradient>
      <linearGradient
         id="linearGradient13777">
        <stop
           offset="0.0000000"
           style="stop-color:#d17d00;stop-opacity:1.0000000;"
           id="stop13779" />
        <stop
           offset="1.0000000"
           style="stop-color:#a7b135;stop-opacity:0.0000000;"
           id="stop13778" />
      </linearGradient>
      <linearGradient
         id="linearGradient11847">
        <stop
           offset="0.0000000"
           style="stop-color:#000000;stop-opacity:1.0000000;"
           id="stop11849" />
        <stop
           offset="1.0000000"
           style="stop-color:#000000;stop-opacity:0.0000000;"
           id="stop11848" />
      </linearGradient>
      <linearGradient
         id="linearGradient6187">
        <stop
           style="stop-color:#2e1b0b;stop-opacity:1.0000000;"
           offset="0.0000000"
           id="stop6188" />
        <stop
           style="stop-color:#431e00;stop-opacity:0;"
           offset="1"
           id="stop6189" />
      </linearGradient>
      <linearGradient
         inkscape:collect="always"
         id="linearGradient4909">
        <stop
           style="stop-color:#000000;stop-opacity:1;"
           offset="0"
           id="stop4910" />
        <stop
           style="stop-color:#000000;stop-opacity:0;"
           offset="1"
           id="stop4911" />
      </linearGradient>
      <linearGradient
         id="linearGradient1780">
        <stop
           style="stop-color:#454545;stop-opacity:1.0000000;"
           offset="0.0000000"
           id="stop1781" />
        <stop
           style="stop-color:#ffffff;stop-opacity:0;"
           offset="1"
           id="stop1782" />
      </linearGradient>
      <linearGradient
         id="linearGradient3869">
        <stop
           offset="0.0000000"
           style="stop-color:#d2dd2e;stop-opacity:1.0000000;"
           id="stop3872" />
        <stop
           offset="0.76146787"
           style="stop-color:#b3b96d;stop-opacity:0.65555555;"
           id="stop3871" />
        <stop
           offset="1.0000000"
           style="stop-color:#b1b952;stop-opacity:0.0000000;"
           id="stop3870" />
      </linearGradient>
      <linearGradient
         inkscape:collect="always"
         xlink:href="#linearGradient9217"
         id="linearGradient3799"
         gradientUnits="userSpaceOnUse"
         gradientTransform="matrix(0.112563,0.000000,0.000000,0.115364,26.43402,157.1761)"
         x1="4373.3052"
         y1="319.33466"
         x2="96.982727"
         y2="2708.2139" />
      <linearGradient
         inkscape:collect="always"
         xlink:href="#linearGradient7337"
         id="linearGradient3800"
         gradientUnits="userSpaceOnUse"
         gradientTransform="matrix(0.230667,0.000000,0.000000,7.644947e-2,26.55186,129.5549)"
         x1="862.16510"
         y1="2479.5938"
         x2="1523.3719"
         y2="2479.5938" />
      <linearGradient
         inkscape:collect="always"
         xlink:href="#linearGradient5442"
         id="linearGradient3801"
         gradientUnits="userSpaceOnUse"
         gradientTransform="matrix(0.162855,0.000000,0.000000,7.648058e-2,75.52973,161.8049)"
         x1="580.22791"
         y1="2173.3171"
         x2="1782.0374"
         y2="1630.2036" />
      <radialGradient
         inkscape:collect="always"
         xlink:href="#linearGradient5442"
         id="radialGradient3802"
         gradientUnits="userSpaceOnUse"
         gradientTransform="matrix(0.159978,0.000000,0.000000,7.785591e-2,363.0923,173.8583)"
         cx="-606.79681"
         cy="1573.4399"
         fx="-606.79681"
         fy="1573.4399"
         r="739.70477" />
      <linearGradient
         inkscape:collect="always"
         xlink:href="#linearGradient21707"
         id="linearGradient3803"
         gradientUnits="userSpaceOnUse"
         gradientTransform="scale(0.659854,1.515487)"
         x1="4848.5972"
         y1="3945.1116"
         x2="5625.4653"
         y2="1720.9402" />
      <linearGradient
         inkscape:collect="always"
         xlink:href="#linearGradient7337"
         id="linearGradient3804"
         gradientUnits="userSpaceOnUse"
         gradientTransform="matrix(0.236634,0.000000,0.000000,0.208284,-2451.443,4783.687)"
         x1="-7797.7422"
         y1="5021.4731"
         x2="-352.84012"
         y2="1184.9034" />
      <linearGradient
         inkscape:collect="always"
         xlink:href="#linearGradient7337"
         id="linearGradient3805"
         gradientUnits="userSpaceOnUse"
         gradientTransform="matrix(0.236634,0.000000,0.000000,0.208284,-2451.443,4783.687)"
         x1="-7797.7422"
         y1="5021.4731"
         x2="-352.84012"
         y2="1184.9034" />
      <defs
         id="defs3745">
        <linearGradient
           id="linearGradient22333"
           x1="0.0000000"
           y1="0.50000000"
           x2="1.0000000"
           y2="0.50000000"
           gradientUnits="objectBoundingBox"
           spreadMethod="pad"
           xlink:href="#linearGradient13777" />
        <linearGradient
           id="linearGradient21707">
          <stop
             style="stop-color:#ffffff;stop-opacity:1.0000000;"
             offset="0.0000000"
             id="stop21708" />
          <stop
             style="stop-color:#a7b135;stop-opacity:0;"
             offset="1"
             id="stop21709" />
        </linearGradient>
        <linearGradient
           inkscape:collect="always"
           id="linearGradient9217"
           x1="0.0000000"
           y1="0.50000000"
           x2="1.0000000"
           y2="0.50000000"
           gradientUnits="objectBoundingBox"
           spreadMethod="pad"
           xlink:href="#linearGradient11847" />
        <linearGradient
           id="linearGradient8584">
          <stop
             style="stop-color:#000000;stop-opacity:1.0000000;"
             offset="0.0000000"
             id="stop8585" />
          <stop
             style="stop-color:#cece4c;stop-opacity:0;"
             offset="1"
             id="stop8586" />
        </linearGradient>
        <linearGradient
           id="linearGradient7337">
          <stop
             style="stop-color:#b1b12f;stop-opacity:1.0000000;"
             offset="0.0000000"
             id="stop7338" />
          <stop
             style="stop-color:#cece4c;stop-opacity:0;"
             offset="1"
             id="stop7339" />
        </linearGradient>
        <linearGradient
           id="linearGradient5442"
           x1="0.0000000"
           y1="0.50000000"
           x2="1.0000000"
           y2="0.50000000"
           gradientUnits="objectBoundingBox"
           spreadMethod="pad"
           xlink:href="#linearGradient3869" />
      </defs>
      <sodipodi:namedview
         id="namedview3772"
         pagecolor="#ffffff"
         bordercolor="#666666"
         borderopacity="1.0"
         inkscape:pageopacity="0.0"
         inkscape:pageshadow="2"
         inkscape:zoom="0.80057989"
         inkscape:cx="297.63780"
         inkscape:cy="420.94487"
         inkscape:current-layer="layer1"
         inkscape:window-width="1440"
         inkscape:window-height="851"
         inkscape:window-x="0"
         inkscape:window-y="27"
         showguides="true"
         inkscape:guide-bbox="true" />
      <metadata
         id="metadata3773">
        <rdf:RDF>
          <cc:Work
             rdf:about="">
            <dc:format>image/svg+xml</dc:format>
            <dc:type
               rdf:resource="http://purl.org/dc/dcmitype/StillImage" />
          </cc:Work>
        </rdf:RDF>
      </metadata>
      <linearGradient
         inkscape:collect="always"
         xlink:href="#linearGradient4909"
         id="linearGradient6167"
         gradientUnits="userSpaceOnUse"
         gradientTransform="scale(0.891889,1.121216)"
         x1="-148.77991"
         y1="106.31860"
         x2="-160.14931"
         y2="-66.932083" />
      <linearGradient
         inkscape:collect="always"
         xlink:href="#linearGradient10560"
         id="linearGradient10563"
         gradientTransform="matrix(0.915477,0.127968,-0.149762,1.071392,19.54851,-8.453410)"
         x1="698.54480"
         y1="69.852913"
         x2="758.31232"
         y2="359.09653"
         gradientUnits="userSpaceOnUse" />
      <linearGradient
         inkscape:collect="always"
         xlink:href="#linearGradient10560"
         id="linearGradient10578"
         gradientUnits="userSpaceOnUse"
         gradientTransform="matrix(0.915477,0.127968,-0.149762,1.071392,0.000000,0.000000)"
         x1="647.37115"
         y1="96.894905"
         x2="770.59186"
         y2="342.74301" />
      <linearGradient
         inkscape:collect="always"
         xlink:href="#linearGradient4909"
         id="linearGradient10604"
         gradientUnits="userSpaceOnUse"
         gradientTransform="scale(0.891889,1.121216)"
         x1="-148.77991"
         y1="106.31860"
         x2="-160.14931"
         y2="-66.932083" />
      <linearGradient
         inkscape:collect="always"
         xlink:href="#linearGradient10630"
         id="linearGradient10633"
         gradientTransform="scale(0.883732,1.131565)"
         x1="-164.59187"
         y1="105.15539"
         x2="-154.14560"
         y2="3.6783011"
         gradientUnits="userSpaceOnUse" />
      <linearGradient
         inkscape:collect="always"
         xlink:href="#linearGradient10630"
         id="linearGradient10647"
         gradientUnits="userSpaceOnUse"
         gradientTransform="scale(0.883732,1.131565)"
         x1="-164.59187"
         y1="105.15539"
         x2="-154.14560"
         y2="3.6783011" />
      <radialGradient
         inkscape:collect="always"
         xlink:href="#linearGradient1780"
         id="radialGradient5568"
         gradientUnits="userSpaceOnUse"
         gradientTransform="matrix(-0.663014,1.058409,1.330757,0.590372,-891.7907,666.4254)"
         cx="-446.72464"
         cy="218.60974"
         fx="-446.72464"
         fy="218.60974"
         r="308.80975" />
      <linearGradient
         inkscape:collect="always"
         xlink:href="#linearGradient10630"
         id="linearGradient4391"
         gradientUnits="userSpaceOnUse"
         gradientTransform="matrix(0.437171,-0.479724,0.614848,0.557530,723.0732,-61.92042)"
         x1="-164.59187"
         y1="105.15539"
         x2="-154.14560"
         y2="3.6783011" />
    </defs>
  </defs>
  <sodipodi:namedview
     id="base"
     pagecolor="#ffffff"
     bordercolor="#666666"
     borderopacity="1.0"
     inkscape:pageopacity="0.0"
     inkscape:pageshadow="2"
     inkscape:zoom="11.010663"
     inkscape:cx="34.201413"
     inkscape:cy="19.796674"
     inkscape:current-layer="g1160"
     inkscape:window-width="1440"
     inkscape:window-height="826"
     inkscape:window-x="0"
     inkscape:window-y="26" />
  <metadata
     id="metadata4">
    <rdf:RDF>
      <cc:Work
         rdf:about="">
        <dc:format>image/svg+xml</dc:format>
        <dc:type
           rdf:resource="http://purl.org/dc/dcmitype/StillImage" />
      </cc:Work>
    </rdf:RDF>
  </metadata>
  <g
     id="g1160"
     inkscape:groupmode="layer"
     inkscape:label="Layer 1"
     style="display:inline">
    <g
       id="g19179"
       transform="matrix(7.093983e-2,0.997481,-0.997481,7.093983e-2,35.30349,12.59725)">
      <path
         d="M 9.7593023,27.850001 C 8.9640193,28.760480 8.2580353,29.766957 7.5158133,30.730869 C 6.3849263,32.150907 5.1577263,33.539229 3.6920513,34.414226 C 3.2300983,34.689063 2.7518183,34.851841 2.2762883,34.999686 L 1.6702513,34.899402 C 2.1450833,34.757276 2.6229363,34.601566 3.0857773,34.333488 C 4.5549253,33.479268 5.8022263,32.111439 6.9287263,30.687766 C 7.6584143,29.738834 8.3523953,28.743422 9.0849313,27.803950 L 9.7593023,27.850001 z "
         id="path3467"
         style="fill:#000000;fill-opacity:1.0000000;fill-rule:nonzero;stroke:none;stroke-width:1.0000000px;stroke-linecap:butt;stroke-linejoin:miter;stroke-opacity:1.0000000;display:inline" />
      <path
         d="M 9.8703493,26.932522 C 9.6708693,26.884359 8.9505913,26.801250 9.9464913,26.885744 C 10.230172,26.909811 9.3480533,26.974778 9.0482533,27.080758 C 7.3415343,27.779422 6.4966813,29.806605 5.8363323,31.536480 C 5.3890173,32.682637 5.0158203,33.871685 4.3855433,34.958282 C 4.2715143,35.155658 4.1228913,35.323278 3.9765763,35.491853 L 3.3273243,35.435446 C 3.4732203,35.273914 3.6226013,35.114297 3.7380783,34.923557 C 4.3885763,33.850399 4.7745183,32.660665 5.2342813,31.520377 C 5.9103343,29.785509 6.7436643,27.732258 8.4486563,26.986110 C 9.1268283,26.723628 10.086708,26.515887 10.560023,26.914887 L 9.8703493,26.932522 z "
         id="path2574"
         style="fill:#000000;fill-opacity:1.0000000;fill-rule:nonzero;stroke:none;stroke-width:1.0000000px;stroke-linecap:butt;stroke-linejoin:miter;stroke-opacity:1.0000000" />
      <path
         d="M 14.621301,25.370291 C 14.491726,25.280154 14.153874,25.297743 12.727470,25.758803 C 10.025305,26.591621 7.8837513,28.798194 5.8470753,31.180196 C 5.1423903,32.043722 4.3980063,32.858756 3.6159603,33.626701 L 3.0072013,33.567694 C 3.8033863,32.805946 4.5623223,31.995170 5.2807463,31.133412 C 7.3396383,28.770730 9.4768263,26.530862 12.182706,25.670481 C 13.188534,25.324254 14.445753,24.939941 15.322302,25.289070 L 14.621301,25.370291 z "
         id="path2576"
         style="fill:#000000;fill-opacity:1.0000000;fill-rule:nonzero;stroke:none;stroke-width:1.0000000px;stroke-linecap:butt;stroke-linejoin:miter;stroke-opacity:1.0000000" />
      <path
         d="M 12.609595,20.881151 C 12.398249,20.996080 12.498344,20.901086 13.216670,20.784051 C 13.404580,20.753435 12.881248,21.085054 12.740416,21.272368 C 12.396028,21.730420 12.094351,22.231097 11.790853,22.727174 C 10.740684,24.440171 9.8376033,26.260040 8.8617633,28.026934 C 8.1945973,29.267755 7.3376823,30.340127 6.3211433,31.126669 C 6.0132873,31.353092 5.6890133,31.521214 5.3625123,31.665643 L 4.7330363,31.672588 C 5.0620103,31.536333 5.3884793,31.371391 5.7004443,31.153132 C 6.7236543,30.388190 7.5832653,29.318747 8.2617413,28.090136 C 9.2529073,26.331891 10.155033,24.510130 11.193799,22.786397 C 11.825311,21.742670 12.242883,20.670342 13.283836,20.672831 L 12.609595,20.881151 z "
         id="path2578"
         style="fill:#000000;fill-opacity:1.0000000;fill-rule:nonzero;stroke:none;stroke-width:1.0000000px;stroke-linecap:butt;stroke-linejoin:miter;stroke-opacity:1.0000000" />
      <path
         d="M 13.170053,20.428255 C 12.937779,20.564692 13.105364,20.440553 13.747066,20.342098 C 13.915422,20.316266 13.422278,20.547488 13.277205,20.688617 C 12.874039,21.080816 12.549064,21.588490 12.243059,22.090720 C 11.183413,24.003087 10.369690,26.063355 9.3576833,28.005636 C 8.5578233,29.515653 7.6696983,30.981084 6.6201663,32.264216 C 6.3493673,32.589993 6.0605033,32.892688 5.7492313,33.148989 L 5.1113943,33.178394 C 5.4281143,32.931827 5.7209373,32.632272 5.9969993,32.311555 C 7.0649503,31.043649 7.9694553,29.582109 8.7756693,28.069633 C 9.7885793,26.130064 10.611189,24.079553 11.641627,22.151003 C 12.277634,21.073378 12.812134,20.248249 13.842667,20.220438 L 13.170053,20.428255 z "
         id="path2580"
         style="fill:#000000;fill-opacity:1.0000000;fill-rule:nonzero;stroke:none;stroke-width:1.0000000px;stroke-linecap:butt;stroke-linejoin:miter;stroke-opacity:1.0000000" />
      <path
         d="M 14.522741,19.813951 C 14.555894,19.763543 14.332047,19.837362 14.379883,19.829197 C 14.576544,19.795628 14.773783,19.752429 14.969953,19.726667 C 15.146596,19.703469 14.622619,19.907738 14.456930,20.025935 C 14.136873,20.254257 13.825252,20.503393 13.515190,20.757409 C 11.636944,22.307541 10.430699,24.730668 9.3781583,27.094707 C 8.7729903,28.464975 8.2340953,29.864699 7.7284873,31.275430 L 7.1325163,31.353940 C 7.6556523,29.940915 8.2026543,28.535912 8.8184453,27.161917 C 9.8712113,24.806421 11.067326,22.372058 12.917101,20.786393 C 13.602928,20.211312 14.409283,19.413252 15.196006,19.605933 L 14.522741,19.813951 z "
         id="path2582"
         style="fill:#000000;fill-opacity:1.0000000;fill-rule:nonzero;stroke:none;stroke-width:1.0000000px;stroke-linecap:butt;stroke-linejoin:miter;stroke-opacity:1.0000000" />
      <path
         d="M 13.610983,23.575229 C 13.613849,23.569557 13.424880,23.589391 13.428444,23.589025 C 13.604716,23.570859 13.781831,23.545913 13.957435,23.533008 C 14.149849,23.518866 13.567346,23.614786 13.372334,23.674360 C 12.952286,23.802681 12.540258,23.982705 12.125977,24.173689 C 9.6966803,25.190648 8.1330213,27.505055 6.6845683,30.049976 C 6.3017113,30.736229 5.9419253,31.436470 5.5818343,32.136163 L 5.0073093,32.166822 C 5.3771743,31.466579 5.7459843,30.765449 6.1331763,30.075760 C 7.5939383,27.550842 9.1159393,25.188891 11.543027,24.148072 C 12.415402,23.735678 13.448048,23.272541 14.297691,23.412654 L 13.610983,23.575229 z "
         id="path2584"
         style="fill:#000000;fill-opacity:1.0000000;fill-rule:nonzero;stroke:none;stroke-width:1.0000000px;stroke-linecap:butt;stroke-linejoin:miter;stroke-opacity:1.0000000" />
      <path
         d="M 13.800636,25.512502 C 13.848226,25.467323 13.593925,25.488116 13.647284,25.488274 C 14.866766,25.491926 13.418577,25.624016 12.852683,25.902008 C 11.118807,26.947929 9.8479353,28.850833 8.6128443,30.576159 C 7.7739833,31.776847 6.9304443,33.005519 5.7764903,33.809665 C 4.8164923,34.489635 3.8931453,34.436159 2.9546903,34.425732 C 2.9207773,34.422422 2.8868663,34.419115 2.8529563,34.415804 L 3.5333893,34.301955 C 3.5666993,34.304375 3.6000113,34.306794 3.6333223,34.309215 C 3.4535943,34.309161 3.2740343,34.308357 3.0941343,34.309061 C 2.9662703,34.309560 3.3495403,34.310082 3.4789633,34.301912 C 4.0401133,34.266489 4.6074823,34.104133 5.1563383,33.733389 C 6.3169983,32.948951 7.1740473,31.731589 8.0186763,30.535714 C 9.2647023,28.809334 10.540002,26.928230 12.249729,25.816399 C 12.970767,25.436441 13.859239,25.164458 14.501298,25.431318 L 13.800636,25.512502 z "
         id="path2586"
         style="fill:#000000;fill-opacity:1.0000000;fill-rule:nonzero;stroke:none;stroke-width:1.0000000px;stroke-linecap:butt;stroke-linejoin:miter;stroke-opacity:1.0000000" />
      <path
         d="M 14.352452,24.768971 C 14.371839,24.736368 14.230275,24.747042 14.234737,24.747157 C 15.412707,24.778319 14.153297,24.959432 13.637874,25.203054 C 11.531658,26.280223 9.8247843,28.361213 8.1174833,30.207947 C 6.9539433,31.523238 5.6375373,32.522915 4.2376843,33.341166 C 3.5608683,33.735997 2.8824273,34.152342 2.1776843,34.289691 L 1.5518733,34.176987 C 2.2604133,34.058727 2.9455553,33.653506 3.6285853,33.259389 C 5.0361873,32.451592 6.3620083,31.466277 7.5385133,30.156467 C 9.2603673,28.330071 10.961543,26.254130 13.044489,25.117154 C 13.691709,24.796107 14.476293,24.393254 15.053112,24.687789 L 14.352452,24.768971 z "
         id="path2588"
         style="fill:#000000;fill-opacity:1.0000000;fill-rule:nonzero;stroke:none;stroke-width:1.0000000px;stroke-linecap:butt;stroke-linejoin:miter;stroke-opacity:1.0000000" />
      <path
         d="M 14.562517,26.591503 C 14.452170,26.421605 12.447041,26.763746 11.126568,27.286418 C 9.0693353,28.181182 7.3351713,30.037175 5.5838503,31.678067 C 4.7224813,32.482317 3.7701933,33.107024 2.8112613,33.664621 L 2.2033413,33.582657 C 3.1681253,33.036136 4.1255243,32.418984 4.9934683,31.618836 C 6.7650243,29.987931 8.5101773,28.125779 10.569646,27.200396 C 12.104983,26.581776 13.858719,26.169266 15.262842,26.510360 L 14.562517,26.591503 z "
         id="path2590"
         style="fill:#000000;fill-opacity:1.0000000;fill-rule:nonzero;stroke:none;stroke-width:1.0000000px;stroke-linecap:butt;stroke-linejoin:miter;stroke-opacity:1.0000000" />
      <path
         d="M 10.925520,27.131847 C 10.130238,28.042326 9.4242543,29.048803 8.6820313,30.012715 C 7.5511453,31.432753 6.3239443,32.821075 4.8582693,33.696072 C 4.3963173,33.970909 3.9180363,34.133687 3.4425073,34.281533 L 2.8364703,34.181248 C 3.3113013,34.039122 3.7891553,33.883412 4.2519953,33.615333 C 5.7211443,32.761114 6.9684453,31.393286 8.0949453,29.969612 C 8.8246323,29.020680 9.5186153,28.025268 10.251150,27.085796 L 10.925520,27.131847 z "
         id="path2592"
         style="fill:#000000;fill-opacity:1.0000000;fill-rule:nonzero;stroke:none;stroke-width:1.0000000px;stroke-linecap:butt;stroke-linejoin:miter;stroke-opacity:1.0000000" />
    </g>
    <g
       style="display:inline"
       id="g3710"
       transform="matrix(0.898296,-0.549442,0.318869,0.403871,59.50473,-1.422336)">
      <path
         sodipodi:nodetypes="cccccccc"
         id="path3712"
         d="M -44.262037,27.119507 L -50.558137,27.192730 L -50.381360,32.496032 L -48.348428,32.496032 L -47.464545,30.197935 L -46.544049,32.538005 L -44.328979,32.490670 L -44.262037,27.119507 z "
         style="fill:#767676;fill-opacity:1.0000000;fill-rule:evenodd;stroke:#000000;stroke-width:1.0000000px;stroke-linecap:butt;stroke-linejoin:miter;stroke-opacity:1.0000000" />
      <path
         sodipodi:nodetypes="czcccc"
         id="path3714"
         d="M -49.237879,18.311952 C -49.211437,18.340419 -55.875868,8.7220580 -47.605566,8.6233583 C -39.423652,8.5246586 -45.940838,18.339798 -45.940838,18.339798 L -44.131247,27.220984 L -50.660364,27.203222 L -49.237879,18.311952 z "
         style="fill:#6f5532;fill-opacity:1.0000000;fill-rule:evenodd;stroke:#000000;stroke-width:1.0000000px;stroke-linecap:butt;stroke-linejoin:miter;stroke-opacity:1.0000000" />
    </g>
    <g
       inkscape:label="Layer 1"
       id="g19047"
       transform="matrix(-0.757324,0.000000,0.000000,0.760360,444.6135,-62.91142)" />
    <g
       id="g19049"
       inkscape:label="Layer 1"
       transform="matrix(-0.757324,0.000000,0.000000,0.760360,1539.943,253.4281)" />
    <g
       inkscape:label="Layer 1"
       id="g19051"
       transform="matrix(-0.757324,0.000000,0.000000,0.760360,2171.379,222.5608)" />
    <g
       id="g3598"
       transform="matrix(0.934929,0.146714,-0.147302,0.938678,101.7815,22.13003)">
      <path
         sodipodi:nodetypes="czsccscc"
         id="path19054"
         d="M -85.538541,6.9180973 C -84.395005,4.6504823 -82.176317,-2.5520105 -83.408179,-4.2403730 C -84.697516,-6.0075098 -88.124538,-8.7395273 -92.790762,-3.7640405 C -98.730500,2.5693644 -99.327672,30.006491 -88.415762,29.142209 C -74.828373,29.034734 -76.830957,16.414024 -82.665762,14.485959 C -82.665762,14.485959 -86.682077,9.1857123 -85.538541,6.9180973 z M -82.728262,14.454709 C -84.054988,14.042400 -85.543813,14.359892 -87.165762,15.142209"
         style="fill:#6f5532;fill-opacity:1.0000000;fill-rule:evenodd;stroke:none;stroke-width:0.92659229;stroke-linecap:butt;stroke-linejoin:miter;stroke-miterlimit:4.0000000;stroke-dasharray:none;stroke-opacity:1.0000000;display:inline" />
      <path
         sodipodi:nodetypes="cscsccscc"
         id="path19056"
         d="M -83.540762,-4.1077905 C -83.667682,-4.3332682 -85.133952,-6.8092252 -87.884512,-6.5765405 C -87.926203,-6.5730137 -87.967244,-6.5813420 -88.009512,-6.5765405 C -89.319821,-6.4276930 -90.908771,-5.6459351 -92.790762,-3.7640405 C -98.930642,2.3755338 -99.327672,30.006491 -88.415762,29.142209 C -74.828373,29.034734 -76.830957,16.414024 -82.665762,14.485959 C -82.665762,14.485959 -86.903048,9.0973243 -85.759512,6.8297093 M -82.728262,14.454709 C -84.054988,14.042400 -85.543813,14.359892 -87.165762,15.142209"
         style="fill:none;fill-opacity:1.0000000;fill-rule:evenodd;stroke:#000000;stroke-width:0.92659229;stroke-linecap:butt;stroke-linejoin:miter;stroke-miterlimit:4.0000000;stroke-dasharray:none;stroke-opacity:1.0000000;display:inline" />
    </g>
    <path
       style="fill:#d1ce86;fill-opacity:1.0000000;fill-rule:evenodd;stroke:#000000;stroke-width:0.65601468;stroke-linecap:butt;stroke-linejoin:miter;stroke-miterlimit:4.0000000;stroke-dasharray:none;stroke-opacity:1.0000000;display:inline"
       d="M 21.727239,25.814254 C 21.527961,26.758017 21.908032,28.048099 21.981448,28.283054 L 19.194042,26.388295 C 19.194417,26.392611 19.189965,26.405775 19.190322,26.412001 C 19.191318,26.451834 19.173819,26.530771 19.160562,26.601644 C 19.126178,26.761866 19.027343,26.986235 18.782265,27.125216 C 18.776538,27.128306 18.760347,27.142127 18.754461,27.145143 C 18.736317,27.153969 18.694403,27.173109 18.674766,27.181216 C 18.647901,27.191683 18.600660,27.204508 18.570987,27.213507 C 18.312614,27.286669 17.948143,27.298678 17.437044,27.205587 C 17.241624,27.169994 17.095078,27.160886 17.023882,27.165041 C 17.019064,27.165579 17.003969,27.160509 16.999798,27.161262 C 16.996264,27.162229 16.974901,27.180009 16.971994,27.181187 C 16.970895,27.182984 16.968789,27.202893 16.968274,27.204892 C 16.969437,27.207481 16.962851,27.225818 16.964554,27.228597 C 16.971241,27.237508 16.997768,27.249291 17.009002,27.259862 C 17.400104,27.602393 19.842919,28.730952 19.990663,29.646597 C 19.991326,29.651534 19.986415,29.665376 19.986943,29.670302 C 19.987727,29.680132 20.003361,29.711713 20.003587,29.721492 C 20.003559,29.726371 20.000038,29.740335 19.999867,29.745198 C 19.999238,29.754901 19.993640,29.782962 19.992427,29.792609 C 19.959225,30.004188 19.829011,30.186989 19.662300,30.323741 C 18.937721,30.889060 17.300866,30.880746 16.936426,30.867546 C 17.486481,30.966527 20.773574,31.596328 20.833879,32.450719 C 20.835935,32.479845 20.847702,32.521175 20.843085,32.549320 C 20.816655,32.667888 20.715701,32.797318 20.590885,32.898368 C 19.821001,33.492666 17.650193,33.798603 17.484948,33.819736 C 17.676261,33.906135 18.566877,34.287117 20.371219,34.612711 C 21.950017,34.897608 22.443980,34.202840 22.585826,33.867230 C 22.606732,33.814838 22.625705,33.755522 22.632231,33.728778 C 22.683283,33.776262 23.080114,34.119525 23.647135,34.495268 C 24.058329,34.147676 24.419417,33.742552 24.681777,33.248862 C 24.684417,33.243898 24.682878,33.230139 24.685497,33.225157 C 24.438785,33.008552 24.259439,32.820728 24.226310,32.691607 C 24.225711,32.688762 24.230480,32.670687 24.230030,32.667901 C 24.229881,32.665237 24.233744,32.646798 24.233750,32.644197 C 24.234068,32.641718 24.236994,32.622906 24.237470,32.620490 C 24.238434,32.618271 24.240061,32.598939 24.241190,32.596786 C 24.242654,32.594766 24.243276,32.575031 24.244910,32.573080 C 24.248871,32.569455 24.268048,32.556498 24.272714,32.553155 C 24.278100,32.550096 24.294400,32.535993 24.300520,32.533228 C 24.303764,32.531919 24.321173,32.538242 24.324605,32.537007 C 24.382564,32.518459 24.466503,32.501568 24.576613,32.503687 C 24.714250,32.506336 24.841530,32.513054 24.965689,32.540454 C 25.130611,31.977798 25.172252,31.351248 25.046522,30.610012 C 24.887776,29.674109 24.589394,28.880085 24.188238,28.216441 C 24.185563,28.212016 24.166835,28.217074 24.164153,28.212661 C 24.151165,28.210764 24.128918,28.207132 24.115983,28.205102 C 23.883161,28.168566 23.712477,28.067838 23.591792,27.928531 C 23.431769,27.728557 23.355920,27.426335 23.349558,27.113268 C 23.346572,27.110093 23.356267,27.092726 23.353278,27.089563 C 22.843566,26.549997 22.261938,26.133240 21.727239,25.814254 z "
       id="path3602" />
    <path
       style="fill:#000000;fill-opacity:1.0000000;fill-rule:nonzero;stroke:none;stroke-width:1.0000000pt;stroke-linecap:butt;stroke-linejoin:miter;stroke-opacity:1.0000000;display:inline"
       d="M 22.587098,31.410979 C 24.189707,31.705473 22.733951,30.368592 22.782944,31.637848 C 21.625023,31.867706 21.735857,31.577312 22.501080,32.089797 L 21.331079,31.386892 C 22.267766,32.194537 22.768788,33.051343 23.887361,32.468105 C 24.171217,31.270110 22.547041,30.028249 21.432736,30.598697 L 22.587098,31.410979 z "
       id="path19059" />
    <path
       style="fill:#d1ce86;fill-opacity:1.0000000;fill-rule:nonzero;stroke:none;stroke-width:1.0000000px;stroke-linecap:butt;stroke-linejoin:miter;stroke-opacity:1.0000000;display:inline"
       id="path3606"
       d="M 18.614373,19.112109 C 19.222704,18.897272 19.072532,19.209038 19.744539,19.458447 C 20.234940,19.676768 21.413240,19.862435 21.177146,20.297000 C 20.457189,20.868811 19.307997,21.325182 18.444343,21.865767 C 18.233026,22.001393 18.336190,21.934441 18.134692,22.066578 L 17.730674,22.172476 C 17.936752,22.038814 17.831309,22.106537 18.047149,21.969345 C 18.908388,21.434212 20.032914,20.977940 20.764511,20.414202 C 21.016073,19.991957 19.833853,19.799496 19.365871,19.587618 C 18.912237,19.422889 18.072117,19.202320 19.025736,18.953663 L 18.614373,19.112109 z " />
    <path
       style="fill:#d1ce86;fill-opacity:1.0000000;fill-rule:nonzero;stroke:none;stroke-width:1.0000000px;stroke-linecap:butt;stroke-linejoin:miter;stroke-opacity:1.0000000;display:inline"
       id="path3608"
       d="M 21.169472,18.523854 C 21.299064,18.625254 21.498248,18.713465 21.653925,18.809547 C 21.921249,19.094688 21.531614,19.466481 21.610170,19.788631 C 21.831144,20.213586 22.508847,20.502508 22.886383,20.884544 L 22.478199,21.014452 C 22.115265,20.626199 21.460015,20.328533 21.220454,19.907353 C 21.128770,19.591643 21.489712,19.228135 21.238661,18.945784 C 21.075709,18.845192 20.879171,18.758211 20.723185,18.655242 L 21.169472,18.523854 z " />
    <path
       style="fill:#d1ce86;fill-opacity:1.0000000;fill-rule:nonzero;stroke:none;stroke-width:1.0000000px;stroke-linecap:butt;stroke-linejoin:miter;stroke-opacity:1.0000000;display:inline"
       id="path3610"
       d="M 22.966185,18.153701 C 23.675368,17.882847 23.089210,18.285537 23.180731,18.548529 C 23.422144,19.002341 24.017528,19.395652 23.653196,19.929490 C 23.243274,20.384682 22.581560,20.799550 22.102820,21.245499 C 22.078286,21.269272 22.053748,21.293047 22.029213,21.316822 L 21.611030,21.430840 C 21.636174,21.406772 21.661317,21.382704 21.686462,21.358637 C 22.169573,20.912529 22.832751,20.497599 23.250770,20.042576 C 23.619712,19.513577 23.050255,19.115063 22.782033,18.671046 C 22.662413,18.386385 22.708667,18.164322 23.377547,17.995255 L 22.966185,18.153701 z " />
    <path
       style="fill:#d1ce86;fill-opacity:1.0000000;fill-rule:nonzero;stroke:none;stroke-width:1.0000000px;stroke-linecap:butt;stroke-linejoin:miter;stroke-opacity:1.0000000;display:inline"
       id="path3612"
       d="M 20.242622,18.609875 C 20.284923,18.728497 20.436156,18.827727 20.542080,18.931838 C 20.847748,19.274183 20.017889,19.638052 19.540260,19.948062 C 18.729978,20.416246 19.156885,20.819246 19.622740,21.189681 L 19.248251,21.310945 C 18.788854,20.938207 18.307355,20.530245 19.127450,20.056204 C 19.590396,19.755736 20.420031,19.396549 20.129043,19.063692 C 20.019413,18.956278 19.869576,18.857538 19.796335,18.741263 L 20.242622,18.609875 z " />
    <path
       style="fill:#d1ce86;fill-opacity:1.0000000;fill-rule:nonzero;stroke:none;stroke-width:1.0000000px;stroke-linecap:butt;stroke-linejoin:miter;stroke-opacity:1.0000000;display:inline"
       id="path3614"
       d="M 20.345350,18.245122 C 20.166882,18.497276 20.046522,18.747936 20.071454,18.994438 C 20.224514,19.497936 20.927196,19.862198 21.357031,20.294185 C 21.623302,20.536540 21.565783,20.805304 21.379226,21.098147 L 20.962656,21.215632 C 21.153139,20.927259 21.216851,20.661432 20.960980,20.420608 C 20.543239,19.982566 19.854375,19.613200 19.678278,19.112923 C 19.641478,18.872906 19.741924,18.624581 19.899438,18.376398 L 20.345350,18.245122 z " />
    <path
       style="fill:#d1ce86;fill-opacity:1.0000000;fill-rule:nonzero;stroke:none;stroke-width:1.0000000px;stroke-linecap:butt;stroke-linejoin:miter;stroke-opacity:1.0000000;display:inline"
       id="path3616"
       d="M 22.098561,18.425187 C 22.031024,18.421116 21.980103,18.446117 21.920271,18.459352 C 22.529068,18.231634 22.157551,18.428955 22.140425,18.616430 C 22.175175,18.977496 22.520411,19.280392 22.630006,19.628031 C 22.706281,20.018345 22.006418,20.429321 21.456441,20.763489 C 21.262991,20.879073 21.059949,20.991478 20.857433,21.103995 L 20.427429,21.214500 C 20.633166,21.101293 20.839272,20.988166 21.037376,20.872320 C 21.586777,20.544615 22.286232,20.139498 22.220485,19.753156 C 22.116508,19.403532 21.781089,19.097883 21.728968,18.738668 C 21.730391,18.513703 21.934495,18.321032 22.509236,18.267007 L 22.098561,18.425187 z " />
    <path
       style="fill:#d1ce86;fill-opacity:1.0000000;fill-rule:nonzero;stroke:none;stroke-width:1.0000000px;stroke-linecap:butt;stroke-linejoin:miter;stroke-opacity:1.0000000;display:inline"
       id="path3618"
       d="M 18.247703,18.517767 C 18.156851,18.738550 18.119148,18.956066 18.157815,19.166990 C 18.234876,19.568792 18.676673,19.868874 19.175957,20.148373 C 19.600242,20.357898 19.835628,20.606120 19.819717,20.925353 C 19.788016,21.153388 19.631204,21.391874 19.716268,21.608070 C 19.747123,21.663241 19.822306,21.702777 19.896572,21.743153 L 19.480018,21.882148 C 19.403884,21.838955 19.326641,21.796496 19.293918,21.738764 C 19.206117,21.520082 19.362310,21.280184 19.401813,21.048864 C 19.425180,20.732759 19.192726,20.489018 18.780564,20.279347 C 18.283463,19.994569 17.836421,19.694072 17.755693,19.288825 C 17.712243,19.080744 17.740253,18.866653 17.801416,18.649156 L 18.247703,18.517767 z " />
    <path
       style="fill:#d1ce86;fill-opacity:1.0000000;fill-rule:nonzero;stroke:none;stroke-width:1.0000000px;stroke-linecap:butt;stroke-linejoin:miter;stroke-opacity:1.0000000;display:inline"
       id="path3620"
       d="M 19.131722,18.413666 C 18.835376,18.667959 18.658741,18.936528 18.639201,19.202039 C 18.700829,19.743032 19.585160,20.073669 20.163726,20.467847 C 20.591065,20.725096 20.452410,21.049864 20.231272,21.392369 C 20.137503,21.529150 20.012246,21.663454 19.876389,21.796212 L 19.437854,21.915482 C 19.577911,21.782894 19.707279,21.648691 19.806222,21.511807 C 20.036072,21.174079 20.183908,20.853656 19.772199,20.595821 C 19.202459,20.194708 18.327321,19.857714 18.246595,19.318626 C 18.255320,19.065385 18.402752,18.784554 18.685436,18.545055 L 19.131722,18.413666 z " />
    <path
       style="fill:#d1ce86;fill-opacity:1.0000000;fill-rule:nonzero;stroke:none;stroke-width:1.0000000px;stroke-linecap:butt;stroke-linejoin:miter;stroke-opacity:1.0000000;display:inline"
       id="path3622"
       d="M 21.257048,18.568579 C 22.049763,18.266844 21.428882,18.637135 21.313889,18.846201 C 21.182051,19.279386 21.445198,19.669154 21.586507,20.066823 C 21.759301,20.455304 21.480088,20.863447 21.124917,21.267601 C 20.920385,21.499293 20.682372,21.727087 20.437923,21.953744 L 20.010269,22.069873 C 20.260429,21.842134 20.506232,21.613494 20.716283,21.380475 C 21.073965,20.980318 21.347844,20.576170 21.183549,20.190340 C 21.045408,19.789334 20.798779,19.397723 20.899620,18.964526 C 21.018785,18.705920 21.129670,18.547293 21.668414,18.410132 L 21.257048,18.568579 z " />
    <path
       style="fill:#d1ce86;fill-opacity:1.0000000;fill-rule:nonzero;stroke:none;stroke-width:1.0000000px;stroke-linecap:butt;stroke-linejoin:miter;stroke-opacity:1.0000000;display:inline"
       id="path3624"
       d="M 22.594867,18.171017 C 22.544513,18.328554 22.553781,18.479222 22.588658,18.628503 C 22.721166,19.065183 23.002603,19.474007 23.145046,19.908993 C 23.232294,20.294655 22.598926,20.683811 22.124048,21.035481 C 21.779919,21.306396 21.360571,21.560972 21.031663,21.834716 C 20.767406,22.047703 20.810708,22.212827 21.092286,22.354950 L 20.680593,22.493023 C 20.394337,22.345443 20.332897,22.172112 20.601519,21.950795 C 20.929416,21.673647 21.357493,21.418189 21.709171,21.145683 C 22.181876,20.799815 22.808925,20.414303 22.739149,20.033046 C 22.610827,19.595253 22.341864,19.183514 22.190202,18.749980 C 22.143321,18.604189 22.117574,18.457342 22.148580,18.302405 L 22.594867,18.171017 z " />
    <path
       style="fill:#d1ce86;fill-opacity:1.0000000;fill-rule:nonzero;stroke:none;stroke-width:1.0000000px;stroke-linecap:butt;stroke-linejoin:miter;stroke-opacity:1.0000000;display:inline"
       id="path3626"
       d="M 19.815433,19.000604 C 19.915600,19.260890 20.161145,19.492692 20.308175,19.744612 C 20.619385,20.208701 20.435917,20.721402 20.184769,21.237661 C 20.047643,21.540787 19.791781,21.851406 19.827615,22.146912 C 19.844113,22.229120 19.907152,22.299773 19.980540,22.368438 L 19.562226,22.503422 C 19.487568,22.432232 19.424494,22.358935 19.407881,22.274081 C 19.369736,21.974425 19.629494,21.660721 19.780345,21.353240 C 20.043040,20.839404 20.232017,20.327668 19.918022,19.866270 C 19.765291,19.613510 19.521694,19.383786 19.370266,19.131662 L 19.815433,19.000604 z " />
    <path
       style="fill:#d1ce86;fill-opacity:1.0000000;fill-rule:nonzero;stroke:none;stroke-width:1.0000000px;stroke-linecap:butt;stroke-linejoin:miter;stroke-opacity:1.0000000;display:inline"
       id="path3628"
       d="M 20.792236,18.917348 C 20.474450,19.211196 20.233287,19.524134 19.969021,19.826785 C 19.574513,20.273133 19.253401,20.725958 18.982343,21.179780 C 18.712002,21.570120 18.998260,21.876597 19.420123,22.143532 C 19.584295,22.248854 19.795115,22.333443 20.014176,22.412979 L 19.615388,22.548949 C 19.397831,22.467019 19.187121,22.380638 19.022229,22.274322 C 18.599525,22.004540 18.298723,21.690598 18.568576,21.296993 C 18.842392,20.840577 19.180503,20.385852 19.571717,19.936695 C 19.831651,19.636183 20.083303,19.334822 20.333267,19.033768 L 20.792236,18.917348 z " />
    <path
       style="fill:#d1ce86;fill-opacity:1.0000000;fill-rule:nonzero;stroke:none;stroke-width:1.0000000px;stroke-linecap:butt;stroke-linejoin:miter;stroke-opacity:1.0000000;display:inline"
       id="path3630"
       d="M 21.901666,18.489958 C 21.993106,18.655425 21.907016,18.847569 21.855072,19.027955 C 21.667991,19.659612 21.827828,20.262770 21.881871,20.871736 C 21.867238,21.272326 21.981353,21.649741 22.198868,22.012685 C 22.364899,22.225352 22.154314,22.437292 21.896548,22.657575 L 21.462117,22.774182 C 21.722264,22.559582 21.941967,22.351458 21.788052,22.140721 C 21.581470,21.773068 21.467001,21.392757 21.492513,20.988610 C 21.451586,20.377572 21.310951,19.773369 21.454840,19.144707 C 21.496383,18.971326 21.568157,18.785711 21.465031,18.629556 L 21.901666,18.489958 z " />
    <path
       style="fill:#d1ce86;fill-opacity:1.0000000;fill-rule:nonzero;stroke:none;stroke-width:1.0000000px;stroke-linecap:butt;stroke-linejoin:miter;stroke-opacity:1.0000000;display:inline"
       id="path3632"
       d="M 19.668396,18.684640 C 20.431585,18.416796 19.873492,18.934395 19.981773,19.314339 C 20.165893,19.861197 20.615117,20.351414 20.938660,20.868439 C 21.137914,21.145201 21.117068,21.453859 20.994900,21.768253 C 20.914209,21.945861 20.756428,22.124188 20.756101,22.299182 C 20.881848,22.524519 20.548288,22.639573 20.126372,22.787532 C 20.010424,22.825428 19.899824,22.866949 19.789096,22.908475 L 19.345406,23.017675 C 19.458355,22.974626 19.571068,22.931565 19.690710,22.893127 C 20.095328,22.752769 20.452301,22.646999 20.328133,22.427846 C 20.320332,22.250881 20.477752,22.070531 20.569776,21.890461 C 20.701174,21.577434 20.730628,21.270133 20.540504,20.992713 C 20.231842,20.470827 19.804483,19.974326 19.606694,19.428953 C 19.499255,19.104216 19.280253,18.719855 20.114309,18.553361 L 19.668396,18.684640 z " />
    <path
       style="fill:#d1ce86;fill-opacity:1.0000000;fill-rule:nonzero;stroke:none;stroke-width:1.0000000px;stroke-linecap:butt;stroke-linejoin:miter;stroke-opacity:1.0000000;display:inline"
       id="path3634"
       d="M 19.123729,19.046640 C 19.136994,19.212829 19.191625,19.374278 19.214647,19.539704 C 19.240448,19.944123 18.994564,20.364923 18.775736,20.778237 C 18.422582,21.271986 19.104556,21.437839 19.868849,21.602744 C 20.420353,21.720029 21.048482,21.816685 21.246651,22.104134 C 21.321556,22.229531 21.258822,22.345589 21.102568,22.473904 C 20.984544,22.567407 20.826254,22.649411 20.666547,22.729802 L 20.217822,22.843599 C 20.377667,22.764608 20.537566,22.684338 20.658349,22.592521 C 20.814626,22.469275 20.891924,22.359579 20.823467,22.235897 C 20.645014,21.950679 20.026759,21.853452 19.493306,21.734945 C 18.724762,21.564764 17.995913,21.400865 18.363267,20.895753 C 18.584702,20.484312 18.843025,20.064774 18.807631,19.662539 C 18.782611,19.497866 18.725269,19.338942 18.677441,19.178027 L 19.123729,19.046640 z " />
    <path
       style="fill:#d1ce86;fill-opacity:1.0000000;fill-rule:nonzero;stroke:none;stroke-width:1.0000000px;stroke-linecap:butt;stroke-linejoin:miter;stroke-opacity:1.0000000;display:inline"
       id="path3636"
       d="M 22.451815,19.683171 C 22.059283,19.983831 21.821349,20.299732 21.624845,20.620633 C 21.375478,21.032788 21.195001,21.446026 21.040891,21.858226 C 20.986948,22.147421 20.694880,22.413925 20.363689,22.681951 C 20.343390,22.697986 20.323096,22.714020 20.302800,22.730057 L 19.872000,22.845196 C 19.892818,22.829124 19.913638,22.813052 19.934459,22.796979 C 20.268331,22.530997 20.565468,22.266495 20.625236,21.978223 C 20.788471,21.563458 20.972559,21.147759 21.226619,20.733299 C 21.420314,20.417931 21.643146,20.106158 21.997759,19.805794 L 22.451815,19.683171 z " />
    <path
       style="fill:#d1ce86;fill-opacity:1.0000000;fill-rule:nonzero;stroke:none;stroke-width:1.0000000px;stroke-linecap:butt;stroke-linejoin:miter;stroke-opacity:1.0000000;display:inline"
       id="path3638"
       d="M 22.725399,18.794284 C 22.689145,18.948126 22.666226,19.101201 22.630711,19.254999 C 22.471632,19.812463 22.450643,20.360439 22.392364,20.910799 C 22.344563,21.252123 22.297771,21.597397 22.094392,21.943899 C 21.936220,22.176491 21.658989,22.395885 21.363253,22.608312 L 20.926645,22.723520 C 21.228136,22.512957 21.508712,22.294640 21.673153,22.062900 C 21.882977,21.716473 21.937117,21.370614 21.993738,21.028566 C 22.062440,20.477719 22.105951,19.928669 22.224463,19.374202 C 22.248492,19.224267 22.266333,19.074729 22.279113,18.925670 L 22.725399,18.794284 z " />
    <path
       style="fill:#d1ce86;fill-opacity:1.0000000;fill-rule:nonzero;stroke:none;stroke-width:1.0000000px;stroke-linecap:butt;stroke-linejoin:miter;stroke-opacity:1.0000000;display:inline"
       id="path3640"
       d="M 23.329758,19.890280 C 23.444871,20.000083 23.413133,20.131686 23.344103,20.266091 C 23.001633,20.676341 22.497527,21.071009 22.292745,21.491117 C 22.195038,21.786640 22.246102,22.068518 21.948724,22.361109 C 21.722205,22.546538 21.467744,22.726198 21.235275,22.910447 L 20.803274,23.026230 C 21.037327,22.841572 21.294759,22.661915 21.524087,22.476297 C 21.825918,22.185362 21.785008,21.902947 21.882944,21.608325 C 22.089319,21.189036 22.585555,20.795529 22.922331,20.385335 C 22.989565,20.252477 23.020433,20.126490 22.883472,20.021667 L 23.329758,19.890280 z " />
    <path
       style="fill:#d1ce86;fill-opacity:1.0000000;fill-rule:nonzero;stroke:none;stroke-width:1.0000000px;stroke-linecap:butt;stroke-linejoin:miter;stroke-opacity:1.0000000;display:inline"
       id="path3642"
       d="M 21.387393,18.353405 C 21.526551,18.308273 21.664843,18.262408 21.804869,18.218010 C 22.078758,18.131171 21.397014,18.464743 21.230227,18.596690 C 20.865527,18.885211 20.638030,19.181155 20.475257,19.488016 C 20.128283,20.289520 20.476336,21.034152 20.646319,21.782852 C 20.754772,22.204368 20.774988,22.636370 20.471723,23.084237 C 20.428715,23.149869 20.372210,23.214567 20.319861,23.279535 L 19.896901,23.396687 C 19.951785,23.331633 20.011081,23.266901 20.056027,23.201053 C 20.369852,22.754247 20.360667,22.321211 20.266461,21.898095 C 20.116069,21.143522 19.782105,20.395006 20.110437,19.592133 C 20.352774,19.106182 20.784208,18.504758 21.786055,18.187862 L 21.387393,18.353405 z " />
    <g
       style="display:inline"
       id="g3644"
       transform="matrix(0.879557,0.349783,-0.349530,0.883342,10.38875,-2.479802)">
      <path
         sodipodi:nodetypes="cz"
         id="path3646"
         d="M 24.335113,7.0557725 C 24.331747,7.1050809 23.415013,13.504978 16.252082,7.4779706"
         style="fill:#d1ce86;fill-opacity:1.0000000;fill-rule:evenodd;stroke:#000000;stroke-width:0.63700002;stroke-linecap:butt;stroke-linejoin:miter;stroke-miterlimit:4.0000000;stroke-dasharray:none;stroke-opacity:1.0000000;display:inline" />
      <path
         sodipodi:nodetypes="ccs"
         id="path3648"
         d="M 16.932836,6.2022597 C 21.988771,6.3503145 24.356068,7.0386845 24.356068,7.0386845 C 24.356068,7.0386845 21.000572,12.709996 16.083807,7.3339794"
         style="fill:#6f5532;fill-opacity:1.0000000;fill-rule:evenodd;stroke:#000000;stroke-width:0.43700001;stroke-linecap:butt;stroke-linejoin:miter;stroke-miterlimit:4.0000000;stroke-dasharray:none;stroke-opacity:1.0000000;display:inline" />
    </g>
    <g
       style="display:inline"
       id="g3650"
       transform="matrix(0.945819,3.383839e-2,-3.486891e-2,0.949470,8.316660,1.626145)">
      <path
         sodipodi:nodetypes="cz"
         id="path3652"
         d="M -0.27642496,7.9638485 C -0.27020121,8.0125842 1.0199935,14.313652 7.8732300,7.9700466"
         style="fill:#d1ce86;fill-opacity:1.0000000;fill-rule:evenodd;stroke:#000000;stroke-width:0.63700002;stroke-linecap:butt;stroke-linejoin:miter;stroke-miterlimit:4.0000000;stroke-dasharray:none;stroke-opacity:1.0000000" />
      <path
         sodipodi:nodetypes="ccs"
         id="path3654"
         d="M 7.1154262,6.7394562 C 2.0415596,7.1443668 -0.29847461,7.9479690 -0.29847461,7.9479690 C -0.29847461,7.9479690 3.4012762,13.401899 8.0340905,7.8186372"
         style="fill:#6f5532;fill-opacity:1.0000000;fill-rule:evenodd;stroke:#000000;stroke-width:0.43700001;stroke-linecap:butt;stroke-linejoin:miter;stroke-miterlimit:4.0000000;stroke-dasharray:none;stroke-opacity:1.0000000" />
    </g>
    <g
       style="display:inline"
       id="g3656"
       transform="matrix(-1.050518,-2.205626e-2,-0.181937,1.159386,29.35595,15.72143)">
      <path
         sodipodi:nodetypes="csczscssc"
         id="path3658"
         d="M 6.7591269,-4.8961329 C 6.7591269,-4.8961329 7.3943289,-4.4838409 7.8969489,-4.5576859 C 8.3995679,-4.6315299 8.7696049,-5.1915099 8.7696049,-5.1915099 C 8.7696049,-5.1915099 10.142454,-8.0714369 7.7493959,-9.3267899 C 5.4164679,-10.550600 3.3096029,-5.9299529 2.1084759,-7.7022149 C 0.90734691,-9.4744779 2.1663769,-11.689807 2.1663769,-11.689807 C 2.1663769,-11.689807 -0.48084809,-8.5093179 -0.31524609,-7.1114609 C -0.12278509,-5.4868869 0.40016891,-4.5393389 6.7237739,-6.4468629 C 6.8446189,-6.4833159 6.7591269,-4.8961329 6.7591269,-4.8961329 z "
         style="fill:#ababab;fill-opacity:1.0000000;fill-rule:evenodd;stroke:none;stroke-width:0.81018460px;stroke-linecap:butt;stroke-linejoin:miter;stroke-opacity:1.0000000;display:inline" />
      <path
         sodipodi:nodetypes="czscssc"
         id="path3660"
         d="M 8.7696049,-5.1915099 C 8.7696049,-5.1915099 10.142454,-8.0714369 7.7493959,-9.3267899 C 5.4164679,-10.550600 3.3096029,-5.9299529 2.1084759,-7.7022149 C 0.90734691,-9.4744779 2.1663769,-11.689807 2.1663769,-11.689807 C 2.1663769,-11.689807 -0.48084809,-8.5093179 -0.31524609,-7.1114609 C -0.12278509,-5.4868869 0.40016891,-4.5393389 6.7237739,-6.4468629 C 6.8446189,-6.4833159 6.7591269,-4.8961329 6.7591269,-4.8961329"
         style="fill:none;fill-opacity:0.75000000;fill-rule:evenodd;stroke:#000000;stroke-width:0.81018460px;stroke-linecap:butt;stroke-linejoin:miter;stroke-opacity:1.0000000;display:inline" />
    </g>
    <g
       style="display:inline"
       id="g3662"
       transform="matrix(1.044270,6.187497e-2,-0.181937,1.159386,7.992660,14.16140)">
      <path
         sodipodi:nodetypes="csczscssc"
         id="path3664"
         d="M 6.7591269,-4.8961329 C 6.7591269,-4.8961329 7.3943289,-4.4838409 7.8969489,-4.5576859 C 8.3995679,-4.6315299 8.7696049,-5.1915099 8.7696049,-5.1915099 C 8.7696049,-5.1915099 10.142454,-8.0714369 7.7493959,-9.3267899 C 5.4164679,-10.550600 3.3096029,-5.9299529 2.1084759,-7.7022149 C 0.90734691,-9.4744779 2.1663769,-11.689807 2.1663769,-11.689807 C 2.1663769,-11.689807 -0.48084809,-8.5093179 -0.31524609,-7.1114609 C -0.12278509,-5.4868869 0.40016891,-4.5393389 6.7237739,-6.4468629 C 6.8446189,-6.4833159 6.7591269,-4.8961329 6.7591269,-4.8961329 z "
         style="fill:#ababab;fill-opacity:1.0000000;fill-rule:evenodd;stroke:none;stroke-width:0.81018460px;stroke-linecap:butt;stroke-linejoin:miter;stroke-opacity:1.0000000;display:inline" />
      <path
         sodipodi:nodetypes="czscssc"
         id="path3666"
         d="M 8.7696049,-5.1915099 C 8.7696049,-5.1915099 10.142454,-8.0714369 7.7493959,-9.3267899 C 5.4164679,-10.550600 3.3096029,-5.9299529 2.1084759,-7.7022149 C 0.90734691,-9.4744779 2.1663769,-11.689807 2.1663769,-11.689807 C 2.1663769,-11.689807 -0.48084809,-8.5093179 -0.31524609,-7.1114609 C -0.12278509,-5.4868869 0.40016891,-4.5393389 6.7237739,-6.4468629 C 6.8446189,-6.4833159 6.7591269,-4.8961329 6.7591269,-4.8961329"
         style="fill:none;fill-opacity:0.75000000;fill-rule:evenodd;stroke:#000000;stroke-width:0.81018460px;stroke-linecap:butt;stroke-linejoin:miter;stroke-opacity:1.0000000;display:inline" />
    </g>
    <path
       style="fill:#6f5532;fill-opacity:1.0000000;fill-rule:evenodd;stroke:#000000;stroke-width:0.80686522;stroke-linecap:butt;stroke-linejoin:miter;stroke-miterlimit:4.0000000;stroke-dasharray:none;stroke-opacity:1.0000000;display:inline"
       d="M 18.251778,12.340493 L 17.791427,18.817778 L 23.648416,18.805346 L 21.347036,12.264912"
       id="path3682"
       sodipodi:nodetypes="cccc" />
    <path
       style="fill:#362918;fill-opacity:1.0000000;fill-rule:evenodd;stroke:#000000;stroke-width:0.80686522;stroke-linecap:butt;stroke-linejoin:miter;stroke-miterlimit:4.0000000;stroke-dasharray:none;stroke-opacity:1.0000000;display:inline"
       d="M 17.627831,18.894792 C 21.341848,20.838235 23.903666,18.910790 23.903666,18.910790"
       id="path3684"
       sodipodi:nodetypes="cc" />
    <path
       style="fill:#000000;fill-opacity:1.0000000;fill-rule:nonzero;stroke:none;stroke-width:1.0000000px;stroke-linecap:butt;stroke-linejoin:miter;stroke-opacity:1.0000000;display:inline"
       d="M 19.626071,20.275194 C 20.309875,20.517252 21.073577,20.936614 21.796272,20.991378 C 21.430237,21.378893 20.866030,21.967529 20.374214,21.820119 C 19.448554,21.504132 19.033529,21.189481 18.652920,20.765436 C 18.912733,20.631965 19.366258,20.408665 19.626071,20.275194 z "
       id="path3686"
       sodipodi:nodetypes="ccccc" />
    <g
       style="display:inline"
       id="g3704"
       transform="matrix(0.828468,-0.650229,0.365019,0.362901,46.19699,-3.497996)">
      <path
         sodipodi:nodetypes="cccccccc"
         id="path3706"
         d="M -44.262037,27.119507 L -50.558137,27.192730 L -50.381360,32.496032 L -48.348428,32.496032 L -47.464545,30.197935 L -46.544049,32.538005 L -44.328979,32.490670 L -44.262037,27.119507 z "
         style="fill:#767676;fill-opacity:1.0000000;fill-rule:evenodd;stroke:#000000;stroke-width:1.0000000px;stroke-linecap:butt;stroke-linejoin:miter;stroke-opacity:1.0000000" />
      <path
         sodipodi:nodetypes="czcccc"
         id="path3708"
         d="M -49.237879,18.311952 C -49.211437,18.340419 -55.875868,8.7220580 -47.605566,8.6233583 C -39.423652,8.5246586 -45.940838,18.339798 -45.940838,18.339798 L -44.131247,27.220984 L -50.660364,27.203222 L -49.237879,18.311952 z "
         style="fill:#6f5532;fill-opacity:1.0000000;fill-rule:evenodd;stroke:#000000;stroke-width:1.0000000px;stroke-linecap:butt;stroke-linejoin:miter;stroke-opacity:1.0000000" />
    </g>
    <g
       id="g3733"
       transform="matrix(9.297181e-2,0.941793,-0.945569,9.334402e-2,25.23570,91.95593)">
      <path
         sodipodi:nodetypes="cccccccc"
         id="path3698"
         d="M -66.528242,12.381043 L -70.518949,16.844944 L -67.353228,19.127665 L -66.051070,17.697058 L -66.807660,16.031970 L -64.871148,16.446339 L -63.479570,14.866073 L -66.528242,12.381043 z "
         style="fill:#767676;fill-opacity:1.0000000;fill-rule:evenodd;stroke:#000000;stroke-width:0.83413351px;stroke-linecap:butt;stroke-linejoin:miter;stroke-opacity:1.0000000" />
      <path
         sodipodi:nodetypes="czcccc"
         id="path3700"
         d="M -74.784907,11.884952 C -74.751585,11.879266 -84.556531,12.203445 -79.315948,6.3387022 C -74.131980,0.53615950 -72.657019,9.5774110 -72.657019,9.5774110 L -66.386058,12.335063 L -70.578390,16.921645 L -74.784907,11.884952 z "
         style="fill:#6f5532;fill-opacity:1.0000000;fill-rule:evenodd;stroke:#000000;stroke-width:0.83413351px;stroke-linecap:butt;stroke-linejoin:miter;stroke-opacity:1.0000000" />
    </g>
    <g
       id="g1749"
       transform="matrix(0.987910,0.155028,-0.155028,0.987910,6.799610,-1.758768)">
      <g
         transform="matrix(0.923030,0.000000,0.000000,0.917700,1.428688,0.986602)"
         id="g1744">
        <path
           id="path1706"
           d="M 13.968190,8.7659780 C 13.968190,10.544493 14.997108,11.987923 16.264881,11.987923 C 17.532654,11.987923 18.561568,10.544493 18.561568,8.7659780 C 18.561568,6.9874630 17.532654,5.5440300 16.264881,5.5440300 C 14.997108,5.5440300 13.968190,6.9874630 13.968190,8.7659780 z "
           style="fill:#000000;fill-opacity:1.0000000;fill-rule:nonzero;stroke:#0f0f0f;stroke-width:0.0000000;stroke-miterlimit:4.0000000;stroke-opacity:1.0000000" />
        <path
           id="path1712"
           d="M 14.631114,8.9995340 C 14.787586,10.421625 15.737595,11.472602 16.751665,11.345461 C 17.765739,11.218321 18.461768,9.9609710 18.305293,8.5388800 C 18.148824,7.1167920 17.198820,6.0658190 16.184746,6.1929590 C 15.170676,6.3200960 14.474646,7.5774460 14.631114,8.9995340 z "
           style="fill:#ffffff;fill-opacity:1.0000000;fill-rule:nonzero;stroke:#0f0f0f;stroke-width:0.0000000;stroke-miterlimit:4.0000000;stroke-opacity:1.0000000" />
        <path
           id="path1714"
           d="M 15.724336,9.6345490 C 15.724336,10.225223 16.233728,10.704615 16.861379,10.704615 C 17.489026,10.704615 17.998418,10.225223 17.998418,9.6345490 C 17.998418,9.0438750 17.489026,8.5644870 16.861379,8.5644870 C 16.233728,8.5644870 15.724336,9.0438750 15.724336,9.6345490 z "
           style="fill:#000000;fill-opacity:1.0000000;fill-rule:nonzero;stroke:#0f0f0f;stroke-width:0.0000000;stroke-miterlimit:4.0000000;stroke-opacity:1.0000000" />
      </g>
      <path
         style="fill:#000000;fill-opacity:1.0000000;fill-rule:nonzero;stroke:#0f0f0f;stroke-width:0.0000000;stroke-miterlimit:4.0000000;stroke-opacity:1.0000000;display:inline"
         d="M 10.784787,9.2079190 C 10.784787,10.986434 11.813705,12.429864 13.081478,12.429864 C 14.349251,12.429864 15.378165,10.986434 15.378165,9.2079190 C 15.378165,7.4294040 14.349251,5.9859710 13.081478,5.9859710 C 11.813705,5.9859710 10.784787,7.4294040 10.784787,9.2079190 z "
         id="path1724" />
      <path
         style="fill:#ffffff;fill-opacity:1.0000000;fill-rule:nonzero;stroke:#0f0f0f;stroke-width:0.0000000;stroke-miterlimit:4.0000000;stroke-opacity:1.0000000;display:inline"
         d="M 11.447711,9.4414750 C 11.604183,10.863566 12.554192,11.914543 13.568262,11.787402 C 14.582336,11.660262 15.278365,10.402912 15.121890,8.9808210 C 14.965421,7.5587330 14.015417,6.5077600 13.001343,6.6349000 C 11.987273,6.7620370 11.291243,8.0193870 11.447711,9.4414750 z "
         id="path1726" />
      <path
         style="fill:#000000;fill-opacity:1.0000000;fill-rule:nonzero;stroke:#0f0f0f;stroke-width:0.0000000;stroke-miterlimit:4.0000000;stroke-opacity:1.0000000;display:inline"
         d="M 12.540933,10.076490 C 12.540933,10.667164 13.050325,11.146556 13.677976,11.146556 C 14.305623,11.146556 14.815015,10.667164 14.815015,10.076490 C 14.815015,9.4858160 14.305623,9.0064280 13.677976,9.0064280 C 13.050325,9.0064280 12.540933,9.4858160 12.540933,10.076490 z "
         id="path1728" />
    </g>
  </g>
</svg>
