<?xml version="1.0" encoding="UTF-8" standalone="no"?>
<!-- Created with Inkscape (http://www.inkscape.org/) -->
<svg
   xmlns:dc="http://purl.org/dc/elements/1.1/"
   xmlns:cc="http://web.resource.org/cc/"
   xmlns:rdf="http://www.w3.org/1999/02/22-rdf-syntax-ns#"
   xmlns:svg="http://www.w3.org/2000/svg"
   xmlns="http://www.w3.org/2000/svg"
   xmlns:sodipodi="http://sodipodi.sourceforge.net/DTD/sodipodi-0.dtd"
   xmlns:inkscape="http://www.inkscape.org/namespaces/inkscape"
   width="9.1999998"
   height="7.3499999"
   id="svg5851"
   sodipodi:version="0.32"
   inkscape:version="0.45"
   version="1.0"
   inkscape:export-filename="/home/yekcim/Dev/wormux/trunk/data/body/beastieteam/eyes.png"
   inkscape:export-xdpi="90"
   inkscape:export-ydpi="90"
   sodipodi:docname="eyes.svg"
   sodipodi:docbase="/home/yekcim/Desktop"
   inkscape:output_extension="org.inkscape.output.svg.inkscape"
   sodipodi:modified="TRUE">
  <defs
     id="defs5853" />
  <sodipodi:namedview
     id="base"
     pagecolor="#ffffff"
     bordercolor="#666666"
     borderopacity="1.0"
     inkscape:pageopacity="0.0"
     inkscape:pageshadow="2"
     inkscape:zoom="29.736741"
     inkscape:cx="3.8600653"
     inkscape:cy="2.3901024"
     inkscape:document-units="px"
     inkscape:current-layer="layer1"
     width="9.2px"
     height="7.35px"
     inkscape:window-width="910"
     inkscape:window-height="626"
     inkscape:window-x="10"
     inkscape:window-y="73" />
  <metadata
     id="metadata5856">
    <rdf:RDF>
      <cc:Work
         rdf:about="">
        <dc:format>image/svg+xml</dc:format>
        <dc:type
           rdf:resource="http://purl.org/dc/dcmitype/StillImage" />
      </cc:Work>
    </rdf:RDF>
  </metadata>
  <g
     inkscape:label="Calque 1"
     inkscape:groupmode="layer"
     id="layer1"
     transform="translate(-404.53966,-477.25808)">
    <g
       id="g2161"
       transform="translate(0.5500079,0)"
       inkscape:export-filename="/home/yekcim/Dev/wormux/trunk/data/body/beastieteam/g2161.png"
       inkscape:export-xdpi="90"
       inkscape:export-ydpi="90">
      <path
         style="fill:#000000;fill-opacity:1;fill-rule:nonzero;stroke:#0f0f0f;stroke-width:0;stroke-miterlimit:4;stroke-opacity:1"
         d="M 405.22823,481.36896 C 405.38651,483.38342 406.67695,484.82331 408.10868,484.58303 C 409.54043,484.34274 410.57396,482.5128 410.41569,480.49835 C 410.25741,478.48389 408.96697,477.04398 407.53524,477.28427 C 406.10349,477.52456 405.06996,479.3545 405.22823,481.36896 z "
         id="path5765" />
      <path
         style="fill:#000000;fill-opacity:1;fill-rule:nonzero;stroke:#0f0f0f;stroke-width:0;stroke-miterlimit:4;stroke-opacity:1"
         d="M 409.48109,481.54312 C 409.58379,482.85031 410.49574,483.77217 411.51669,483.60082 C 412.53766,483.42947 413.2829,482.2295 413.18019,480.92229 C 413.07749,479.6151 412.16554,478.69325 411.14458,478.86459 C 410.12363,479.03595 409.37837,480.23591 409.48109,481.54312 z "
         id="path5767" />
      <path
         style="fill:#ffffff;fill-opacity:1;fill-rule:nonzero;stroke:#0f0f0f;stroke-width:0;stroke-miterlimit:4;stroke-opacity:1"
         d="M 409.71726,481.48618 C 409.80561,482.6108 410.58588,483.40461 411.45895,483.25809 C 412.332,483.11156 412.96885,482.07991 412.8805,480.9553 C 412.79213,479.83068 412.01186,479.03687 411.13881,479.1834 C 410.26574,479.32992 409.62889,480.36157 409.71726,481.48618 z "
         id="path5769" />
      <path
         style="fill:#ffffff;fill-opacity:1;fill-rule:nonzero;stroke:#0f0f0f;stroke-width:0;stroke-miterlimit:4;stroke-opacity:1"
         d="M 405.6479,481.63264 C 405.986,483.39535 407.28639,484.52175 408.55055,484.14691 C 409.81472,483.77208 410.56631,482.03725 410.22821,480.27454 C 409.89011,478.51183 408.58973,477.38543 407.32556,477.76027 C 406.0614,478.1351 405.3098,479.86993 405.6479,481.63264 z "
         id="path5771" />
    </g>
  </g>
</svg>
