<?xml version="1.0" encoding="UTF-8" standalone="no"?>
<!-- Created with Inkscape (http://www.inkscape.org/) -->
<svg
   xmlns:dc="http://purl.org/dc/elements/1.1/"
   xmlns:cc="http://web.resource.org/cc/"
   xmlns:rdf="http://www.w3.org/1999/02/22-rdf-syntax-ns#"
   xmlns:svg="http://www.w3.org/2000/svg"
   xmlns="http://www.w3.org/2000/svg"
   xmlns:xlink="http://www.w3.org/1999/xlink"
   xmlns:sodipodi="http://sodipodi.sourceforge.net/DTD/sodipodi-0.dtd"
   xmlns:inkscape="http://www.inkscape.org/namespaces/inkscape"
   width="64.397507"
   height="88.569443"
   id="svg2229"
   sodipodi:version="0.32"
   inkscape:version="0.44"
   version="1.0"
   sodipodi:docbase="/home/yekcim/Desktop/sources de skins allégées"
   sodipodi:docname="thunderbird.svg">
  <defs
     id="defs2231">
    <linearGradient
       inkscape:collect="always"
       xlink:href="#linearGradient2306"
       id="linearGradient2329"
       x1="921.25916"
       y1="846.29108"
       x2="-343.45184"
       y2="5.8441596"
       gradientUnits="userSpaceOnUse" />
    <linearGradient
       inkscape:collect="always"
       xlink:href="#linearGradient2306"
       id="linearGradient25186"
       gradientUnits="userSpaceOnUse"
       gradientTransform="translate(-0.664239,0.438523)"
       x1="17.11726"
       y1="11.110526"
       x2="17.876976"
       y2="9.9866724" />
    <linearGradient
       inkscape:collect="always"
       xlink:href="#linearGradient2410"
       id="linearGradient26123"
       gradientUnits="userSpaceOnUse"
       gradientTransform="matrix(1.021298,0.200795,8.684867e-2,0.996222,76.67825,-1.885716)"
       x1="0.9667182"
       y1="32.833435"
       x2="11.053966"
       y2="18.826265" />
    <linearGradient
       inkscape:collect="always"
       xlink:href="#linearGradient2306"
       id="linearGradient26121"
       gradientUnits="userSpaceOnUse"
       gradientTransform="translate(-0.664239,0.438523)"
       x1="17.11726"
       y1="11.110526"
       x2="17.876976"
       y2="9.9866724" />
    <radialGradient
       inkscape:collect="always"
       xlink:href="#linearGradient2285"
       id="radialGradient26119"
       gradientUnits="userSpaceOnUse"
       gradientTransform="matrix(0.744878,-1.695914,1.517516,0.666524,37.5435,49.56362)"
       cx="23.654802"
       cy="30.782257"
       fx="23.654802"
       fy="30.782257"
       r="6.2138119" />
    <linearGradient
       inkscape:collect="always"
       xlink:href="#linearGradient2331"
       id="linearGradient26117"
       gradientUnits="userSpaceOnUse"
       gradientTransform="translate(83.78567,1.101497)"
       x1="21.736279"
       y1="17.181818"
       x2="11.174212"
       y2="4.4421611" />
    <linearGradient
       inkscape:collect="always"
       xlink:href="#linearGradient2410"
       id="linearGradient26115"
       gradientUnits="userSpaceOnUse"
       gradientTransform="matrix(-0.94045,0.532165,0.38407,0.84599,100.5834,-3.280056)"
       x1="2.7784317"
       y1="29.519632"
       x2="10.358426"
       y2="20.062078" />
    <radialGradient
       inkscape:collect="always"
       xlink:href="#linearGradient3086"
       id="radialGradient26127"
       gradientUnits="userSpaceOnUse"
       gradientTransform="matrix(1.793293,-5.343937e-2,3.31655e-2,1.334272,-10.48646,-1.658214)"
       cx="8.7862368"
       cy="7.0137215"
       fx="8.7862368"
       fy="7.0137215"
       r="12.590872" />
    <linearGradient
       inkscape:collect="always"
       xlink:href="#linearGradient2410"
       id="linearGradient26318"
       gradientUnits="userSpaceOnUse"
       gradientTransform="matrix(1.021298,0.200795,8.684867e-2,0.996222,76.67825,-1.885716)"
       x1="0.9667182"
       y1="32.833435"
       x2="11.053966"
       y2="18.826265" />
    <linearGradient
       inkscape:collect="always"
       xlink:href="#linearGradient2306"
       id="linearGradient26316"
       gradientUnits="userSpaceOnUse"
       gradientTransform="translate(-0.664239,0.438523)"
       x1="17.11726"
       y1="11.110526"
       x2="17.876976"
       y2="9.9866724" />
    <radialGradient
       inkscape:collect="always"
       xlink:href="#linearGradient2285"
       id="radialGradient26314"
       gradientUnits="userSpaceOnUse"
       gradientTransform="matrix(0.744878,-1.695914,1.517516,0.666524,37.5435,49.56362)"
       cx="23.654802"
       cy="30.782257"
       fx="23.654802"
       fy="30.782257"
       r="6.2138119" />
    <linearGradient
       inkscape:collect="always"
       xlink:href="#linearGradient2331"
       id="linearGradient26312"
       gradientUnits="userSpaceOnUse"
       gradientTransform="translate(83.78567,1.101497)"
       x1="21.736279"
       y1="17.181818"
       x2="11.174212"
       y2="4.4421611" />
    <linearGradient
       inkscape:collect="always"
       xlink:href="#linearGradient2410"
       id="linearGradient26310"
       gradientUnits="userSpaceOnUse"
       gradientTransform="matrix(-0.94045,0.532165,0.38407,0.84599,100.5834,-3.280056)"
       x1="2.7784317"
       y1="29.519632"
       x2="10.358426"
       y2="20.062078" />
    <linearGradient
       inkscape:collect="always"
       xlink:href="#linearGradient2306"
       id="linearGradient26404"
       gradientUnits="userSpaceOnUse"
       x1="921.25916"
       y1="846.29108"
       x2="-343.45184"
       y2="5.8441596" />
    <linearGradient
       inkscape:collect="always"
       xlink:href="#linearGradient2306"
       id="linearGradient26406"
       gradientUnits="userSpaceOnUse"
       gradientTransform="translate(-0.664239,0.438523)"
       x1="17.11726"
       y1="11.110526"
       x2="17.876976"
       y2="9.9866724" />
    <linearGradient
       id="linearGradient3086"
       inkscape:collect="always">
      <stop
         id="stop3088"
         offset="0"
         style="stop-color:#ffffff;stop-opacity:1;" />
      <stop
         id="stop3090"
         offset="1"
         style="stop-color:#ffffff;stop-opacity:0;" />
    </linearGradient>
    <radialGradient
       inkscape:collect="always"
       xlink:href="#linearGradient3086"
       id="radialGradient26418"
       gradientUnits="userSpaceOnUse"
       gradientTransform="matrix(1.793293,-5.343937e-2,3.31655e-2,1.334272,-10.48646,-1.658214)"
       cx="8.7862368"
       cy="7.0137215"
       fx="8.7862368"
       fy="7.0137215"
       r="12.590872" />
    <linearGradient
       inkscape:collect="always"
       xlink:href="#linearGradient2410"
       id="linearGradient26510"
       gradientUnits="userSpaceOnUse"
       gradientTransform="matrix(-0.94045,0.532165,0.38407,0.84599,-76.47503,107.4825)"
       x1="2.7784317"
       y1="29.519632"
       x2="10.358426"
       y2="20.062078" />
    <linearGradient
       id="linearGradient2285"
       inkscape:collect="always">
      <stop
         id="stop2287"
         offset="0"
         style="stop-color:#0d348b;stop-opacity:1;" />
      <stop
         id="stop2289"
         offset="1"
         style="stop-color:#0d348b;stop-opacity:0;" />
    </linearGradient>
    <radialGradient
       inkscape:collect="always"
       xlink:href="#linearGradient2285"
       id="radialGradient26528"
       gradientUnits="userSpaceOnUse"
       gradientTransform="matrix(0.744878,-1.695914,1.517516,0.666524,83.68705,71.87698)"
       cx="23.654802"
       cy="30.782257"
       fx="23.654802"
       fy="30.782257"
       r="6.2138119" />
    <linearGradient
       id="linearGradient2331">
      <stop
         id="stop2333"
         offset="0"
         style="stop-color:#1763a1;stop-opacity:1;" />
      <stop
         id="stop2335"
         offset="1"
         style="stop-color:#68a6c7;stop-opacity:1;" />
    </linearGradient>
    <linearGradient
       inkscape:collect="always"
       xlink:href="#linearGradient2331"
       id="linearGradient26526"
       gradientUnits="userSpaceOnUse"
       gradientTransform="translate(129.9292,23.41486)"
       x1="21.736279"
       y1="17.181818"
       x2="11.174212"
       y2="4.4421611" />
    <linearGradient
       id="linearGradient2306">
      <stop
         id="stop2308"
         offset="0"
         style="stop-color:#6a6a6b;stop-opacity:1;" />
      <stop
         id="stop2310"
         offset="1"
         style="stop-color:#c7c7c7;stop-opacity:1;" />
    </linearGradient>
    <linearGradient
       inkscape:collect="always"
       xlink:href="#linearGradient2306"
       id="linearGradient26512"
       gradientUnits="userSpaceOnUse"
       gradientTransform="translate(-0.664239,0.438523)"
       x1="17.11726"
       y1="11.110526"
       x2="17.876976"
       y2="9.9866724" />
    <linearGradient
       id="linearGradient2410">
      <stop
         id="stop2412"
         offset="0"
         style="stop-color:#0d348b;stop-opacity:1;" />
      <stop
         id="stop2414"
         offset="1"
         style="stop-color:#5697be;stop-opacity:1;" />
    </linearGradient>
    <linearGradient
       inkscape:collect="always"
       xlink:href="#linearGradient2410"
       id="linearGradient26487"
       gradientUnits="userSpaceOnUse"
       gradientTransform="matrix(1.021298,0.200795,8.684867e-2,0.996222,-120.8849,105.8011)"
       x1="0.9667182"
       y1="32.833435"
       x2="11.053966"
       y2="18.826265" />
  </defs>
  <sodipodi:namedview
     id="base"
     pagecolor="#ffffff"
     bordercolor="#666666"
     borderopacity="1.0"
     inkscape:pageopacity="0.0"
     inkscape:pageshadow="2"
     inkscape:zoom="4.5952643"
     inkscape:cx="32.198753"
     inkscape:cy="44.284721"
     inkscape:document-units="px"
     inkscape:current-layer="layer1"
     inkscape:window-width="1024"
     inkscape:window-height="626"
     inkscape:window-x="5"
     inkscape:window-y="49" />
  <metadata
     id="metadata2234">
    <rdf:RDF>
      <cc:Work
         rdf:about="">
        <dc:format>image/svg+xml</dc:format>
        <dc:type
           rdf:resource="http://purl.org/dc/dcmitype/StillImage" />
      </cc:Work>
    </rdf:RDF>
  </metadata>
  <g
     inkscape:label="Calque 1"
     inkscape:groupmode="layer"
     id="layer1"
     transform="translate(227.8949,-110.9346)">
    <g
       style="display:inline"
       inkscape:label="Layer 1"
       id="g1886"
       transform="translate(-190.2974,164.5694)">
      <g
         transform="matrix(1.83983e-2,0,0,1.850609e-2,9.960525,11.09431)"
         inkscape:label="Calque 1"
         id="g2274">
        <g
           id="g1313">
          <path
             sodipodi:nodetypes="cccccsccccccccc"
             style="fill:url(#linearGradient2329);fill-opacity:1;fill-rule:evenodd;stroke:black;stroke-width:0.44152708pt;stroke-linecap:butt;stroke-linejoin:miter;stroke-opacity:1"
             d="M -495.90894,991.82542 L -160.44054,1104.367 C -160.44054,1104.367 582.02686,1067.5012 884.88398,953.21553 L 881.03118,-35.525621 L 815.54891,-245.67877 C 815.54891,-245.67877 720.96316,-384.57998 688.22206,-399.03804 C 655.48086,-413.4961 495.41286,-460.48902 495.41286,-460.48902 L 168.00096,-541.10384 L 91.604959,-560.62469 L 0.65715936,-542.74295 L -68.917741,-522.38239 L -140.76664,-480.07517 L -207.15834,-429.36156 L -323.34414,-305.79782 L -464.28764,-3.0331466"
             id="path5489" />
          <path
             style="fill:black;fill-opacity:1;fill-rule:nonzero;stroke:none;stroke-width:1pt;stroke-linecap:butt;stroke-linejoin:miter;stroke-opacity:1"
             d="M 127.74416,-587.94343 C 47.810164,-594.41279 -23.03741,-557.42476 -90.092493,-526.96615 C -232.15721,-457.55389 -339.54317,-344.57745 -413.85998,-207.55164 C -450.30454,-140.14182 -503.37721,-10.89332 -507.84072,278.97313 C -510.23574,428.69079 -512.57091,578.44197 -517.16622,727.85892 C -518.65468,756.7794 -517.9732,786.40284 -521.13096,814.89415 C -522.44246,825.83262 -523.34896,836.92438 -524.25805,847.96948 C -525.97258,870.55185 -530.22885,978.16005 -530.51231,1000.9605 C -530.23286,1003.8419 -530.48719,1001.3081 -530.28895,1003.3871 L -530.28895,1003.4414 C -530.1371,1005.0344 -530.23015,1004.1478 -530.12143,1005.3151 L -527.6644,1004.4001 C -469.3748,1025.943 -382.8986,1056.2531 -323.50881,1075.4788 C -279.21658,1089.6992 -234.92269,1103.7248 -190.49503,1117.3062 C -190.52823,1117.6688 -190.57342,1118.0222 -190.60664,1118.3843 L -188.42891,1117.9823 C -187.47888,1118.2727 -186.5311,1118.5688 -185.58095,1118.8579 L -181.61619,1116.6447 C -181.61619,1116.6447 -8.2488802,1105.6742 68.887559,1099.9854 C 228.99861,1087.1753 389.46758,1074.6179 546.5535,1048.8495 C 607.98417,1038.2442 776.72617,1000.248 835.30859,981.53235 L 915.2736,959.14518 C 907.60586,930.39702 910.55343,458.50723 908.06973,265.24457 C 908.6403,156.2484 907.79456,46.878848 914.49144,-61.244722 L 912.92792,-60.662329 L 913.37465,-60.937871 C 912.75664,-60.833157 913.01419,-60.875048 912.42532,-60.775207 C 914.01136,-145.837 882.90273,-186.48808 851.61422,-267.03732 C 798.63353,-383.94042 703.69694,-463.56896 582.962,-482.23896 L 588.71364,-483.972 C 554.03404,-486.87821 366.46975,-521.07473 331.89978,-529.24709 C 284.07822,-540.20876 236.44383,-553.525 189.95131,-571.29227 L 127.74416,-587.94343 z M -530.12143,1005.3151 L -530.51231,1005.4339 C -530.50675,1004.1523 -528.54444,1022.2391 -530.12143,1005.3151 z M -158.16289,462.49688 C -163.33242,667.55531 -169.44353,863.02453 -186.08354,1064.6338 C -211.52597,1056.9777 -236.96136,1049.1393 -262.30683,1041.011 C -319.53933,1022.431 -402.71221,995.5039 -458.30959,966.7323 C -457.78681,938.16287 -454.09294,842.43383 -451.94367,821.11791 C -450.73441,810.14395 -449.50756,730.86178 -449.70999,702.18954 C -451.02212,552.9138 -449.55488,403.92969 -445.41022,255.33914 C -442.886,181.02279 -441.23577,106.00248 -430.13768,3.7345045 C -413.04515,-97.628325 -369.93982,-171.84386 -336.30773,-235.36484 C -266.46253,-365.70407 -159.95503,-455.27548 -27.583905,-523.32978 C 24.107301,-540.35454 53.533096,-552.05519 77.096314,-549.25154 L 77.710516,-549.61655 C 93.583895,-546.54244 109.23816,-540.23701 124.67299,-534.84254 C 171.55973,-517.5825 219.32218,-503.90426 267.29154,-492.06506 C 286.75797,-487.10963 340.3136,-476.74893 390.19805,-467.93804 C 303.00698,-467.46597 156.51996,-446.4578 -20.206565,-204.51129 C -77.34201,-122.07471 -136.71499,-30.759532 -143.58829,55.349204 M 841.73032,-22.171657 C 847.32096,81.209689 848.61735,184.39462 850.10642,287.43281 C 855.05034,482.52589 845.33168,675.93251 848.87801,870.84588 C 849.20665,895.39824 846.03892,927.60595 847.64946,955.14386 C 771.17171,976.36242 654.66543,1002.8487 604.46093,1011.9809 C 446.93716,1039.3627 285.83554,1053.2699 124.67299,1065.2714 C 42.287078,1070.854 -42.359592,1075.8593 -124.37899,1079.481 C -114.9794,866.92472 -108.83213,653.89815 -101.42829,441.03869 C -97.786955,331.24825 -95.841039,206.38609 -86.49064,83.217464 C -61.027309,-44.297358 5.4645145,-142.96187 67.826632,-232.69297 C 192.94915,-392.32781 289.87193,-446.84631 475.18842,-451.75387 C 492.87783,-451.67639 510.11671,-450.34078 526.8416,-447.78178 C 643.91526,-429.86896 736.21977,-352.76646 787.73178,-239.15322 C 816.5456,-164.00211 848.23101,-122.89945 843.51721,-49.183906"
             id="path5434"
             sodipodi:nodetypes="cccccccccccccccccccccccccccccccccccccccccccccccccccczcccccccccccccc" />
        </g>
      </g>
      <g
         transform="matrix(-0.80024,0,0,0.80024,285.9809,-107.4224)"
         id="g29199"
         inkscape:label="Layer 1" />
      <g
         transform="matrix(-0.80024,0,0,0.80024,1443.382,225.5088)"
         inkscape:label="Layer 1"
         id="g29315" />
      <g
         transform="matrix(-0.80024,0,0,0.80024,2110.599,193.0225)"
         id="g29317"
         inkscape:label="Layer 1" />
      <g
         transform="matrix(-0.757324,0,0,0.76036,256.5903,-88.23771)"
         id="g3589"
         inkscape:label="Layer 1" />
      <g
         transform="matrix(-0.757324,0,0,0.76036,1351.92,228.1018)"
         inkscape:label="Layer 1"
         id="g3591" />
      <g
         transform="matrix(-0.757324,0,0,0.76036,1983.356,197.2345)"
         id="g3593"
         inkscape:label="Layer 1" />
      <g
         transform="matrix(-0.80024,0,0,0.80024,288.3485,-93.75804)"
         id="g2916"
         inkscape:label="Layer 1" />
      <g
         transform="matrix(-0.80024,0,0,0.80024,1445.75,239.1732)"
         inkscape:label="Layer 1"
         id="g2918" />
      <g
         transform="matrix(-0.80024,0,0,0.80024,2112.967,206.6869)"
         id="g2920"
         inkscape:label="Layer 1" />
      <g
         transform="matrix(-0.757324,0,0,0.76036,258.9579,-74.57333)"
         id="g2922"
         inkscape:label="Layer 1" />
      <g
         transform="matrix(-0.757324,0,0,0.76036,1354.288,241.7662)"
         inkscape:label="Layer 1"
         id="g2924" />
      <g
         transform="matrix(-0.757324,0,0,0.76036,1985.724,210.8989)"
         id="g2926"
         inkscape:label="Layer 1" />
      <g
         transform="matrix(0.989644,-0.143546,0.143546,0.989644,39.60205,9.919458)"
         id="g2484">
        <path
           sodipodi:type="arc"
           style="opacity:1;color:black;fill:#3151a4;fill-opacity:1;fill-rule:nonzero;stroke:none;stroke-width:0.41749999;stroke-linecap:round;stroke-linejoin:round;marker:none;marker-start:none;marker-mid:none;marker-end:none;stroke-miterlimit:4;stroke-dasharray:none;stroke-dashoffset:0;stroke-opacity:1;visibility:visible;display:inline;overflow:visible"
           id="path2482"
           sodipodi:cx="-23.337694"
           sodipodi:cy="0.950719"
           sodipodi:rx="1.9617193"
           sodipodi:ry="8.7262688"
           d="M -21.375975 0.950719 A 1.9617193 8.7262688 0 1 1  -25.299413,0.950719 A 1.9617193 8.7262688 0 1 1  -21.375975 0.950719 z"
           transform="matrix(0.974244,-0.225497,0.225497,0.974244,0.30068,-5.27191)" />
        <path
           style="fill:black;fill-opacity:1;fill-rule:nonzero;stroke:none;stroke-width:1px;stroke-linecap:butt;stroke-linejoin:miter;stroke-opacity:1"
           id="path1398"
           d="M -20.170581,7.7866158 C -19.430094,10.242854 -19.20038,12.874374 -19.14703,15.436119 C -19.124945,15.661138 -19.161305,15.882136 -19.181797,16.10429 L -19.637094,16.325858 C -19.602718,16.10177 -19.549566,15.880673 -19.566931,15.650234 C -19.530473,13.111033 -19.741548,10.433537 -20.622564,8.0439677 L -20.170581,7.7866158 z " />
        <path
           style="fill:black;fill-opacity:1;fill-rule:nonzero;stroke:none;stroke-width:1px;stroke-linecap:butt;stroke-linejoin:miter;stroke-opacity:1"
           d="M -21.634334,8.4894892 C -24.353071,4.1323254 -25.074856,-3.2233119 -24.945692,-6.2499155 C -24.816529,-9.2765191 -23.675982,-7.9339421 -23.12567,-7.0950195 C -20.694364,-3.9077924 -19.349493,2.7087239 -18.946457,6.7399102 C -19.012387,7.2413601 -18.617149,8.3187079 -19.424263,8.3166676 C -20.09748,7.7668155 -19.476879,6.7727999 -19.60473,6.0310548 C -19.621385,3.0716689 -21.424467,-3.1502043 -22.190916,-4.6939235 C -22.998804,-6.321107 -23.684261,-7.9083462 -24.1845,-7.0200273 C -24.705317,-6.095166 -24.647159,-5.0586654 -24.661165,-4.4306084 C -24.748524,-0.60873261 -23.986077,3.2704336 -22.197801,6.6669009 C -22.032908,7.2628635 -21.210761,7.7911748 -21.555969,8.4486543 C -21.58209,8.462266 -21.608212,8.4758776 -21.634334,8.4894892 z "
           id="path1400"
           sodipodi:nodetypes="czcccczzsccc" />
      </g>
    </g>
    <g
       style="display:inline"
       id="g25130"
       transform="translate(-307.6701,157.7567)">
      <path
         sodipodi:nodetypes="ccccccccccc"
         id="path25132"
         d="M 98.048558,15.371968 C 111.87266,16.101992 111.92182,32.803713 108.26618,35.275319 C 108.29281,35.044522 108.82285,30.062169 108.09215,29.2279 C 108.61236,32.162406 106.55495,33.037458 106.51177,32.95378 C 107.01253,29.853331 107.05855,28.977501 106.44902,27.521716 C 106.78475,30.188172 104.65974,31.108543 104.79271,30.933507 C 105.19632,28.538809 104.84973,25.632691 104.33704,25.523967 C 104.73626,27.755236 103.37396,29.099122 103.33408,29.126173 C 103.34571,28.745934 103.52758,25.344602 102.6233,24.286199 C 102.513,25.273438 101.82499,26.62383 101.63016,26.747877 C 102.15226,25.189422 100.87506,23.276401 100.87506,23.276401"
         style="fill:#3d3d3d;fill-opacity:1;fill-rule:evenodd;stroke:black;stroke-width:0.80000001;stroke-linecap:round;stroke-linejoin:round;stroke-miterlimit:4;stroke-dasharray:none;stroke-opacity:1;display:inline" />
      <g
         style="fill:#a8a8a9;fill-opacity:1;display:inline"
         transform="matrix(-0.341772,0,-4.925855e-2,0.374098,263.7249,-23.68353)"
         id="g25134">
        <path
           style="fill:#3d3d3d;fill-opacity:1;fill-rule:evenodd;stroke:black;stroke-width:2.23732495;stroke-linecap:round;stroke-linejoin:round;stroke-miterlimit:4;stroke-dasharray:none;stroke-opacity:1"
           d="M 462.23239,158.97662 C 462.23239,158.97662 450.45083,177.51245 451.15483,170.25229 C 451.85883,162.99214 432.54095,177.54098 440.63385,169.64031 C 448.72674,161.73963 420.31314,174.13775 439.52043,163.82256 C 443.52512,161.67187 458.14477,156.00956 458.14477,156.00956"
           id="path25140"
           sodipodi:nodetypes="csssc" />
      </g>
      <g
         style="fill:#a8a8a9;fill-opacity:1;display:inline"
         transform="matrix(-0.341772,0,-0.108369,0.374098,266.4302,-23.02294)"
         id="g25142">
        <path
           style="fill:#3d3d3d;fill-opacity:1;fill-rule:evenodd;stroke:none;stroke-width:2.06699991;stroke-linecap:butt;stroke-linejoin:miter;stroke-miterlimit:4;stroke-dasharray:none;stroke-opacity:1;display:inline"
           d="M 458.78172,155.64201 C 464.45972,154.43052 462.86934,158.60907 462.86934,158.60907 C 462.86934,158.60907 451.08778,177.1449 451.79178,169.88475 C 452.49578,162.62459 433.1779,177.17343 441.2708,169.27276 C 449.3637,161.37209 420.9501,173.7702 440.15738,163.45502 C 444.16207,161.30432 453.10373,156.8535 458.78172,155.64201 z "
           id="path25144"
           sodipodi:nodetypes="ccsssz" />
        <path
           style="fill:#3d3d3d;fill-opacity:1;fill-rule:evenodd;stroke:black;stroke-width:2.23732495;stroke-linecap:round;stroke-linejoin:round;stroke-miterlimit:4;stroke-dasharray:none;stroke-opacity:1"
           d="M 462.23239,158.97662 C 462.23239,158.97662 450.45083,177.51245 451.15483,170.25229 C 451.85883,162.99214 432.54095,177.54098 440.63385,169.64031 C 448.72674,161.73963 420.31314,174.13775 439.52043,163.82256 C 443.52512,161.67187 458.14477,156.00956 458.14477,156.00956"
           id="path25148"
           sodipodi:nodetypes="csssc" />
      </g>
      <path
         sodipodi:nodetypes="czsccs"
         id="path25150"
         d="M 98.294209,14.618748 C 99.376419,12.46414 101.2066,5.6879633 100.0408,4.0837404 C 98.820606,2.4046689 95.815394,0.0429269 91.161391,4.5363349 C 82.713954,12.692278 87.857322,34.271648 95.301766,35.802702 C 111.31706,38.100479 105.25571,23.613726 100.7434,21.876846 C 100.7434,21.876846 97.212,16.773356 98.294209,14.618748 z "
         style="fill:#3d3d3d;fill-opacity:1;fill-rule:evenodd;stroke:none;stroke-width:0.92659229;stroke-linecap:butt;stroke-linejoin:miter;stroke-miterlimit:4;stroke-dasharray:none;stroke-opacity:1;display:inline" />
      <path
         sodipodi:nodetypes="cscsscscc"
         id="path25154"
         d="M 99.915325,4.2097156 C 99.795211,3.9954746 98.407576,1.6429068 95.804525,1.8639957 C 95.76507,1.8673467 95.72623,1.8594335 95.686229,1.8639957 C 94.446191,2.0054254 92.967351,2.7733742 91.161391,4.5363349 C 82.037253,13.44323 87.73263,34.610312 96.209977,35.802702 C 108.58242,37.542961 108.09342,25.188262 100.7434,21.876846 C 100.7434,21.876846 97.272406,16.756754 98.354615,14.602146 M 100.68425,21.847154 C 99.78667,21.470557 97.577753,21.447703 96.48473,22.500392"
         style="fill:none;fill-opacity:1;fill-rule:evenodd;stroke:black;stroke-width:0.80000001;stroke-linecap:round;stroke-linejoin:round;stroke-miterlimit:4;stroke-dasharray:none;stroke-opacity:1;display:inline" />
      <path
         id="path25156"
         d="M 101.4706,30.354377 C 103.09948,30.396862 101.45407,29.301826 101.69924,30.548142 C 100.59096,30.954731 100.65543,30.650665 101.49085,31.038323 L 100.22603,30.525299 C 101.2766,31.177967 101.90439,31.946742 102.91902,31.197146 C 103.01372,29.969629 101.21666,28.994574 100.20426,29.730874 L 101.4706,30.354377 z "
         style="fill:black;fill-opacity:1;fill-rule:nonzero;stroke:none;stroke-width:1pt;stroke-linecap:butt;stroke-linejoin:miter;stroke-opacity:1;display:inline" />
      <g
         transform="matrix(1.232795,-0.102297,0.173477,1.274376,78.06102,-0.449167)"
         id="g25158">
        <path
           style="fill:url(#linearGradient25186);fill-opacity:1;fill-rule:evenodd;stroke:black;stroke-width:0.31734136;stroke-linecap:round;stroke-linejoin:round;stroke-miterlimit:4;stroke-dasharray:none;stroke-opacity:1"
           d="M 17.619727,13.156987 C 17.619727,13.156987 18.761396,10.029462 15.481493,7.6934039 C 14.990276,9.9137273 12.686156,9.4154374 12.532491,9.4362263 C 12.378825,9.4570148 13.265025,10.156332 12.642433,11.133403 C 12.019841,12.110472 14.095931,10.310856 17.619727,13.156987 z "
           id="path25160"
           sodipodi:nodetypes="ccssc" />
        <path
           style="fill:none;fill-opacity:0.75;fill-rule:evenodd;stroke:black;stroke-width:0.2;stroke-linecap:round;stroke-linejoin:round;stroke-miterlimit:4;stroke-dasharray:none;stroke-opacity:1"
           d="M 12.715596,9.5688085 C 12.715596,9.5688085 15.027522,9.8577993 17.59633,12.876148"
           id="path25162" />
      </g>
      <path
         sodipodi:nodetypes="ccccccs"
         id="path25164"
         d="M 99.178171,3.2901982 C 96.475873,-0.3544726 94.225058,-0.3910999 94.21404,-0.4851011 C 94.21404,-0.4851011 97.221396,2.6507797 96.325113,3.0535443 C 93.902971,0.3600698 92.883939,0.8853983 92.789156,0.8565483 C 92.722231,0.8637752 95.634403,2.9598953 94.727535,3.39759 C 92.552887,1.7453706 91.103066,2.1430925 91.184755,2.1886399 C 91.20902,2.2158292 93.058483,3.3693152 93.280578,4.1090286"
         style="fill:#3d3d3d;fill-opacity:1;fill-rule:evenodd;stroke:black;stroke-width:0.80000001;stroke-linecap:round;stroke-linejoin:round;stroke-miterlimit:4;stroke-dasharray:none;stroke-opacity:1" />
      <path
         sodipodi:nodetypes="ccccccccccc"
         id="path25166"
         d="M 87.477976,16.202458 C 76.518744,21.923307 84.506901,38.788849 88.667803,39.978031 C 88.536647,39.753595 85.741917,34.892371 85.944094,33.783151 C 86.90941,36.946208 89.006651,37.092276 89.002307,36.991868 C 87.123402,34.028379 86.670691,33.156852 86.479227,31.461059 C 87.468368,34.285847 89.642368,34.453513 89.450676,34.32393 C 87.985692,32.041083 86.891849,28.96936 87.25959,28.6744 C 87.99057,31.080776 89.741553,31.952682 89.786986,31.965743 C 89.597264,31.584367 87.83655,28.200886 88.074456,26.801852 C 88.632544,27.763187 89.835179,28.884628 90.053291,28.940223 C 88.887733,27.548026 88.912615,25.23602 88.912615,25.23602"
         style="fill:#3d3d3d;fill-opacity:1;fill-rule:evenodd;stroke:black;stroke-width:0.80000001;stroke-linecap:round;stroke-linejoin:round;stroke-miterlimit:4;stroke-dasharray:none;stroke-opacity:1" />
      <path
         style="fill:black;fill-opacity:1;fill-rule:nonzero;stroke:#0f0f0f;stroke-width:0;stroke-miterlimit:4;stroke-opacity:1"
         d="M 95.378297,6.8269498 C 95.378297,8.1897808 96.169891,9.226104 97.14525,9.140174 C 98.120608,9.054245 98.912201,7.8784423 98.912201,6.5156114 C 98.912201,5.1527805 98.120608,4.1164543 97.14525,4.2023838 C 96.169891,4.2883133 95.378297,5.464119 95.378297,6.8269498 z "
         id="path25168" />
      <path
         style="fill:black;fill-opacity:1;fill-rule:nonzero;stroke:#0f0f0f;stroke-width:0;stroke-miterlimit:4;stroke-opacity:1"
         d="M 98.248672,6.8677211 C 98.248672,7.8157301 98.853785,8.531822 99.599365,8.466136 C 100.34495,8.400449 100.95006,7.5777368 100.95006,6.6297278 C 100.95006,5.681716 100.34495,4.9656266 99.599365,5.031313 C 98.853785,5.0969989 98.248672,5.9197093 98.248672,6.8677211 z "
         id="path25170" />
      <path
         style="fill:#848484;fill-opacity:1;fill-rule:nonzero;stroke:#0f0f0f;stroke-width:0;stroke-miterlimit:4;stroke-opacity:1"
         d="M 98.612436,6.8873266 C 98.612436,7.5931626 99.060246,8.1265589 99.61202,8.0779475 C 100.16379,8.0293365 100.6116,7.4170353 100.6116,6.7111992 C 100.6116,6.0053659 100.16379,5.4719698 99.61202,5.5205808 C 99.060246,5.5691923 98.612436,6.1814933 98.612436,6.8873266 z "
         id="path25172" />
      <path
         style="fill:#848484;fill-opacity:1;fill-rule:nonzero;stroke:#0f0f0f;stroke-width:0;stroke-miterlimit:4;stroke-opacity:1"
         d="M 95.888315,6.9609848 C 96.008697,8.0400912 96.739584,8.781037 97.519756,8.614879 C 98.299931,8.44872 98.835419,7.4380684 98.715035,6.3589622 C 98.594657,5.2798582 97.863773,4.538915 97.083598,4.7050734 C 96.303425,4.8712287 95.767937,5.8818808 95.888315,6.9609848 z "
         id="path25174" />
      <path
         style="fill:black;fill-opacity:1;fill-rule:nonzero;stroke:#0f0f0f;stroke-width:0;stroke-miterlimit:4;stroke-opacity:1"
         d="M 96.49238,7.3734824 C 96.49238,7.826101 96.884279,8.1589204 97.367161,8.1163783 C 97.85004,8.0738365 98.241939,7.6719641 98.241939,7.2193455 C 98.241939,6.7667271 97.85004,6.4339103 97.367161,6.4764521 C 96.884279,6.5189942 96.49238,6.920864 96.49238,7.3734824 z "
         id="path25176" />
      <path
         style="fill:black;fill-opacity:1;fill-rule:nonzero;stroke:#0f0f0f;stroke-width:0;stroke-miterlimit:4;stroke-opacity:1;display:inline"
         d="M 98.678508,7.2007433 C 98.678508,7.6533618 99.070407,7.9861813 99.553289,7.9436392 C 100.03616,7.9010974 100.42807,7.4992249 100.42807,7.0466064 C 100.42807,6.5939879 100.03616,6.2611711 99.553289,6.3037129 C 99.070407,6.346255 98.678508,6.7481248 98.678508,7.2007433 z "
         id="path25178" />
    </g>
    <g
       style="display:inline"
       id="g26065"
       transform="translate(-279.0995,112.7292)">
      <path
         sodipodi:nodetypes="ccccccccccc"
         id="path26067"
         d="M 98.048558,15.371968 C 111.87266,16.101992 111.92182,32.803713 108.26618,35.275319 C 108.29281,35.044522 108.82285,30.062169 108.09215,29.2279 C 108.61236,32.162406 106.55495,33.037458 106.51177,32.95378 C 107.01253,29.853331 107.05855,28.977501 106.44902,27.521716 C 106.78475,30.188172 104.65974,31.108543 104.79271,30.933507 C 105.19632,28.538809 104.84973,25.632691 104.33704,25.523967 C 104.73626,27.755236 103.37396,29.099122 103.33408,29.126173 C 103.34571,28.745934 103.52758,25.344602 102.6233,24.286199 C 102.513,25.273438 101.82499,26.62383 101.63016,26.747877 C 102.15226,25.189422 100.87506,23.276401 100.87506,23.276401"
         style="fill:url(#linearGradient26115);fill-opacity:1;fill-rule:evenodd;stroke:black;stroke-width:0.80000001;stroke-linecap:round;stroke-linejoin:round;stroke-miterlimit:4;stroke-dasharray:none;stroke-opacity:1;display:inline" />
      <g
         style="fill:#a8a8a9;fill-opacity:1;display:inline"
         transform="matrix(-0.341772,0,-4.925855e-2,0.374098,263.7249,-23.68353)"
         id="g26069">
        <path
           style="fill:#a8a8a9;fill-opacity:1;fill-rule:evenodd;stroke:none;stroke-width:2.06699991;stroke-linecap:butt;stroke-linejoin:miter;stroke-miterlimit:4;stroke-dasharray:none;stroke-opacity:1;display:inline"
           d="M 458.78172,155.64201 C 464.45972,154.43052 462.86934,158.60907 462.86934,158.60907 C 462.86934,158.60907 451.08778,177.1449 451.79178,169.88475 C 452.49578,162.62459 433.1779,177.17343 441.2708,169.27276 C 449.3637,161.37209 420.9501,173.7702 440.15738,163.45502 C 444.16207,161.30432 453.10373,156.8535 458.78172,155.64201 z "
           id="path26071"
           sodipodi:nodetypes="ccsssz" />
        <path
           style="fill:#a8a8a9;fill-opacity:1;fill-rule:evenodd;stroke:none;stroke-width:2.06699991;stroke-linecap:butt;stroke-linejoin:miter;stroke-miterlimit:4;stroke-dasharray:none;stroke-opacity:1;display:inline"
           d="M 457.86465,155.97029 C 463.54264,154.7588 461.95227,158.93735 461.95227,158.93735 C 461.95227,158.93735 450.17071,177.47317 450.87471,170.21302 C 451.57871,162.95286 432.26083,177.50171 440.35373,169.60104 C 448.44662,161.70036 420.03302,174.09847 439.24031,163.78329 C 443.245,161.63259 452.18666,157.18177 457.86465,155.97029 z "
           id="path26073"
           sodipodi:nodetypes="ccsssz" />
        <path
           style="fill:#a8a8a9;fill-opacity:1;fill-rule:evenodd;stroke:black;stroke-width:2.23732495;stroke-linecap:round;stroke-linejoin:round;stroke-miterlimit:4;stroke-dasharray:none;stroke-opacity:1"
           d="M 462.23239,158.97662 C 462.23239,158.97662 450.45083,177.51245 451.15483,170.25229 C 451.85883,162.99214 432.54095,177.54098 440.63385,169.64031 C 448.72674,161.73963 420.31314,174.13775 439.52043,163.82256 C 443.52512,161.67187 458.14477,156.00956 458.14477,156.00956"
           id="path26075"
           sodipodi:nodetypes="csssc" />
      </g>
      <g
         style="fill:#a8a8a9;fill-opacity:1;display:inline"
         transform="matrix(-0.341772,0,-0.108369,0.374098,266.4302,-23.02294)"
         id="g26077">
        <path
           style="fill:#a8a8a9;fill-opacity:1;fill-rule:evenodd;stroke:none;stroke-width:2.06699991;stroke-linecap:butt;stroke-linejoin:miter;stroke-miterlimit:4;stroke-dasharray:none;stroke-opacity:1;display:inline"
           d="M 458.78172,155.64201 C 464.45972,154.43052 462.86934,158.60907 462.86934,158.60907 C 462.86934,158.60907 451.08778,177.1449 451.79178,169.88475 C 452.49578,162.62459 433.1779,177.17343 441.2708,169.27276 C 449.3637,161.37209 420.9501,173.7702 440.15738,163.45502 C 444.16207,161.30432 453.10373,156.8535 458.78172,155.64201 z "
           id="path26079"
           sodipodi:nodetypes="ccsssz" />
        <path
           style="fill:#a8a8a9;fill-opacity:1;fill-rule:evenodd;stroke:none;stroke-width:2.06699991;stroke-linecap:butt;stroke-linejoin:miter;stroke-miterlimit:4;stroke-dasharray:none;stroke-opacity:1;display:inline"
           d="M 457.86465,155.97029 C 463.54264,154.7588 461.95227,158.93735 461.95227,158.93735 C 461.95227,158.93735 450.17071,177.47317 450.87471,170.21302 C 451.57871,162.95286 432.26083,177.50171 440.35373,169.60104 C 448.44662,161.70036 420.03302,174.09847 439.24031,163.78329 C 443.245,161.63259 452.18666,157.18177 457.86465,155.97029 z "
           id="path26081"
           sodipodi:nodetypes="ccsssz" />
        <path
           style="fill:#a8a8a9;fill-opacity:1;fill-rule:evenodd;stroke:black;stroke-width:2.23732495;stroke-linecap:round;stroke-linejoin:round;stroke-miterlimit:4;stroke-dasharray:none;stroke-opacity:1"
           d="M 462.23239,158.97662 C 462.23239,158.97662 450.45083,177.51245 451.15483,170.25229 C 451.85883,162.99214 432.54095,177.54098 440.63385,169.64031 C 448.72674,161.73963 420.31314,174.13775 439.52043,163.82256 C 443.52512,161.67187 458.14477,156.00956 458.14477,156.00956"
           id="path26083"
           sodipodi:nodetypes="csssc" />
      </g>
      <path
         sodipodi:nodetypes="czsccs"
         id="path26085"
         d="M 98.294209,14.618748 C 99.376419,12.46414 101.2066,5.6879633 100.0408,4.0837404 C 98.820606,2.4046689 95.815394,0.0429269 91.161391,4.5363349 C 82.713954,12.692278 87.857322,34.271648 95.301766,35.802702 C 111.31706,38.100479 105.25571,23.613726 100.7434,21.876846 C 100.7434,21.876846 97.212,16.773356 98.294209,14.618748 z "
         style="fill:url(#linearGradient26117);fill-opacity:1;fill-rule:evenodd;stroke:none;stroke-width:0.92659229;stroke-linecap:butt;stroke-linejoin:miter;stroke-miterlimit:4;stroke-dasharray:none;stroke-opacity:1;display:inline" />
      <path
         sodipodi:nodetypes="csssc"
         id="path26087"
         d="M 105.47781,28.638359 C 105.9323,35.342085 102.32164,35.599106 98.07528,35.886201 C 93.31256,36.208207 90.51863,33.030904 89.39113,28.85933 C 88.30268,24.832255 93.76883,22.043112 98.78239,21.744069 C 102.89943,21.4985 104.89986,25.060177 105.47781,28.638359 z "
         style="color:black;fill:url(#radialGradient26119);fill-opacity:1;fill-rule:nonzero;stroke:none;stroke-width:0.84875;stroke-linecap:round;stroke-linejoin:round;marker:none;marker-start:none;marker-mid:none;marker-end:none;stroke-miterlimit:4;stroke-dashoffset:0;stroke-opacity:1;visibility:visible;display:inline;overflow:visible" />
      <path
         sodipodi:nodetypes="cscsscscc"
         id="path26089"
         d="M 99.915325,4.2097156 C 99.795211,3.9954746 98.407576,1.6429068 95.804525,1.8639957 C 95.76507,1.8673467 95.72623,1.8594335 95.686229,1.8639957 C 94.446191,2.0054254 92.967351,2.7733742 91.161391,4.5363349 C 82.037253,13.44323 87.73263,34.610312 96.209977,35.802702 C 108.58242,37.542961 108.09342,25.188262 100.7434,21.876846 C 100.7434,21.876846 97.272406,16.756754 98.354615,14.602146 M 100.68425,21.847154 C 99.78667,21.470557 97.577753,21.447703 96.48473,22.500392"
         style="fill:none;fill-opacity:1;fill-rule:evenodd;stroke:black;stroke-width:0.80000001;stroke-linecap:round;stroke-linejoin:round;stroke-miterlimit:4;stroke-dasharray:none;stroke-opacity:1;display:inline" />
      <path
         id="path26091"
         d="M 101.4706,30.354377 C 103.09948,30.396862 101.45407,29.301826 101.69924,30.548142 C 100.59096,30.954731 100.65543,30.650665 101.49085,31.038323 L 100.22603,30.525299 C 101.2766,31.177967 101.90439,31.946742 102.91902,31.197146 C 103.01372,29.969629 101.21666,28.994574 100.20426,29.730874 L 101.4706,30.354377 z "
         style="fill:black;fill-opacity:1;fill-rule:nonzero;stroke:none;stroke-width:1pt;stroke-linecap:butt;stroke-linejoin:miter;stroke-opacity:1;display:inline" />
      <g
         transform="matrix(1.232795,-0.102297,0.173477,1.274376,78.06102,-0.449167)"
         id="g26093">
        <path
           style="fill:url(#linearGradient26121);fill-opacity:1;fill-rule:evenodd;stroke:black;stroke-width:0.31734136;stroke-linecap:round;stroke-linejoin:round;stroke-miterlimit:4;stroke-dasharray:none;stroke-opacity:1"
           d="M 17.619727,13.156987 C 17.619727,13.156987 18.761396,10.029462 15.481493,7.6934039 C 14.990276,9.9137273 12.686156,9.4154374 12.532491,9.4362263 C 12.378825,9.4570148 13.265025,10.156332 12.642433,11.133403 C 12.019841,12.110472 14.095931,10.310856 17.619727,13.156987 z "
           id="path26095"
           sodipodi:nodetypes="ccssc" />
        <path
           style="fill:none;fill-opacity:0.75;fill-rule:evenodd;stroke:black;stroke-width:0.2;stroke-linecap:round;stroke-linejoin:round;stroke-miterlimit:4;stroke-dasharray:none;stroke-opacity:1"
           d="M 12.715596,9.5688085 C 12.715596,9.5688085 15.027522,9.8577993 17.59633,12.876148"
           id="path26097" />
      </g>
      <path
         sodipodi:nodetypes="ccccccs"
         id="path26099"
         d="M 99.178171,3.2901982 C 96.475873,-0.3544726 94.225058,-0.3910999 94.21404,-0.4851011 C 94.21404,-0.4851011 97.221396,2.6507797 96.325113,3.0535443 C 93.902971,0.3600698 92.883939,0.8853983 92.789156,0.8565483 C 92.722231,0.8637752 95.634403,2.9598953 94.727535,3.39759 C 92.552887,1.7453706 91.103066,2.1430925 91.184755,2.1886399 C 91.20902,2.2158292 93.058483,3.3693152 93.280578,4.1090286"
         style="fill:#68a6c7;fill-opacity:1;fill-rule:evenodd;stroke:black;stroke-width:0.80000001;stroke-linecap:round;stroke-linejoin:round;stroke-miterlimit:4;stroke-dasharray:none;stroke-opacity:1" />
      <path
         sodipodi:nodetypes="ccccccccccc"
         id="path26101"
         d="M 87.477976,16.202458 C 76.518744,21.923307 84.506901,38.788849 88.667803,39.978031 C 88.536647,39.753595 85.741917,34.892371 85.944094,33.783151 C 86.90941,36.946208 89.006651,37.092276 89.002307,36.991868 C 87.123402,34.028379 86.670691,33.156852 86.479227,31.461059 C 87.468368,34.285847 89.642368,34.453513 89.450676,34.32393 C 87.985692,32.041083 86.891849,28.96936 87.25959,28.6744 C 87.99057,31.080776 89.741553,31.952682 89.786986,31.965743 C 89.597264,31.584367 87.83655,28.200886 88.074456,26.801852 C 88.632544,27.763187 89.835179,28.884628 90.053291,28.940223 C 88.887733,27.548026 88.912615,25.23602 88.912615,25.23602"
         style="fill:url(#linearGradient26123);fill-opacity:1;fill-rule:evenodd;stroke:black;stroke-width:0.80000001;stroke-linecap:round;stroke-linejoin:round;stroke-miterlimit:4;stroke-dasharray:none;stroke-opacity:1" />
      <path
         style="fill:black;fill-opacity:1;fill-rule:nonzero;stroke:#0f0f0f;stroke-width:0;stroke-miterlimit:4;stroke-opacity:1"
         d="M 95.378297,6.8269498 C 95.378297,8.1897808 96.169891,9.226104 97.14525,9.140174 C 98.120608,9.054245 98.912201,7.8784423 98.912201,6.5156114 C 98.912201,5.1527805 98.120608,4.1164543 97.14525,4.2023838 C 96.169891,4.2883133 95.378297,5.464119 95.378297,6.8269498 z "
         id="path26103" />
      <path
         style="fill:black;fill-opacity:1;fill-rule:nonzero;stroke:#0f0f0f;stroke-width:0;stroke-miterlimit:4;stroke-opacity:1"
         d="M 98.248672,6.8677211 C 98.248672,7.8157301 98.853785,8.531822 99.599365,8.466136 C 100.34495,8.400449 100.95006,7.5777368 100.95006,6.6297278 C 100.95006,5.681716 100.34495,4.9656266 99.599365,5.031313 C 98.853785,5.0969989 98.248672,5.9197093 98.248672,6.8677211 z "
         id="path26105" />
      <path
         style="fill:#f1c616;fill-opacity:1;fill-rule:nonzero;stroke:#0f0f0f;stroke-width:0;stroke-miterlimit:4;stroke-opacity:1"
         d="M 98.612436,6.8873266 C 98.612436,7.5931626 99.060246,8.1265589 99.61202,8.0779475 C 100.16379,8.0293365 100.6116,7.4170353 100.6116,6.7111992 C 100.6116,6.0053659 100.16379,5.4719698 99.61202,5.5205808 C 99.060246,5.5691923 98.612436,6.1814933 98.612436,6.8873266 z "
         id="path26107" />
      <path
         style="fill:#f1c616;fill-opacity:1;fill-rule:nonzero;stroke:#0f0f0f;stroke-width:0;stroke-miterlimit:4;stroke-opacity:1"
         d="M 95.888315,6.9609848 C 96.008697,8.0400912 96.739584,8.781037 97.519756,8.614879 C 98.299931,8.44872 98.835419,7.4380684 98.715035,6.3589622 C 98.594657,5.2798582 97.863773,4.538915 97.083598,4.7050734 C 96.303425,4.8712287 95.767937,5.8818808 95.888315,6.9609848 z "
         id="path26109" />
      <path
         style="fill:black;fill-opacity:1;fill-rule:nonzero;stroke:#0f0f0f;stroke-width:0;stroke-miterlimit:4;stroke-opacity:1"
         d="M 96.729383,7.3734824 C 96.729383,7.826101 97.121282,8.1589204 97.604164,8.1163783 C 98.087043,8.0738365 98.478942,7.6719641 98.478942,7.2193455 C 98.478942,6.7667271 98.087043,6.4339103 97.604164,6.4764521 C 97.121282,6.5189942 96.729383,6.920864 96.729383,7.3734824 z "
         id="path26111" />
      <path
         style="fill:black;fill-opacity:1;fill-rule:nonzero;stroke:#0f0f0f;stroke-width:0;stroke-miterlimit:4;stroke-opacity:1;display:inline"
         d="M 98.797214,7.2007433 C 98.797214,7.6533618 99.189113,7.9861813 99.671995,7.9436392 C 100.15487,7.9010974 100.54677,7.4992249 100.54677,7.0466064 C 100.54677,6.5939879 100.15487,6.2611711 99.671995,6.3037129 C 99.189113,6.346255 98.797214,6.7481248 98.797214,7.2007433 z "
         id="path26113" />
    </g>
    <g
       style="display:inline"
       id="g26408"
       transform="translate(-233.6255,106.3278)">
      <path
         inkscape:tile-cy="8.6375513"
         inkscape:tile-cx="14.266624"
         inkscape:tile-h="20.478873"
         inkscape:tile-w="21.145145"
         transform="matrix(0.708545,0.35216,-0.388599,0.655818,44.86597,3.783205)"
         d="M 25.071794 8.4751015 A 12.190872 11.788343 0 1 1  0.69004917,8.4751015 A 12.190872 11.788343 0 1 1  25.071794 8.4751015 z"
         sodipodi:ry="11.788343"
         sodipodi:rx="12.190872"
         sodipodi:cy="8.4751015"
         sodipodi:cx="12.880921"
         id="path26125"
         style="fill:url(#radialGradient26127);fill-opacity:1;stroke:black;stroke-width:1.10114503;stroke-miterlimit:4;stroke-dasharray:none;stroke-opacity:1;display:inline"
         sodipodi:type="arc" />
      <path
         style="fill:#e1e1e1;fill-opacity:0.93059938;stroke:black;stroke-width:0.77298254;stroke-linecap:round;stroke-linejoin:round;stroke-miterlimit:4;stroke-opacity:1;display:inline"
         d="M 41.744531,17.271566 C 44.770429,21.382677 49.314962,22.595596 53.891853,22.054868 C 54.823212,21.944834 54.21452,23.732114 53.658012,23.810024 C 49.157023,24.440163 43.978332,23.049576 40.912956,18.98498 C 40.412453,18.321332 41.27877,16.638764 41.744531,17.271566 z "
         id="path26129"
         sodipodi:nodetypes="cssss" />
    </g>
    <g
       style="display:inline"
       id="g40805"
       transform="translate(-309.436,112.7292)">
      <path
         sodipodi:nodetypes="ccccccccccc"
         id="path2293"
         d="M 98.048558,15.371968 C 111.87266,16.101992 111.92182,32.803713 108.26618,35.275319 C 108.29281,35.044522 108.82285,30.062169 108.09215,29.2279 C 108.61236,32.162406 106.55495,33.037458 106.51177,32.95378 C 107.01253,29.853331 107.05855,28.977501 106.44902,27.521716 C 106.78475,30.188172 104.65974,31.108543 104.79271,30.933507 C 105.19632,28.538809 104.84973,25.632691 104.33704,25.523967 C 104.73626,27.755236 103.37396,29.099122 103.33408,29.126173 C 103.34571,28.745934 103.52758,25.344602 102.6233,24.286199 C 102.513,25.273438 101.82499,26.62383 101.63016,26.747877 C 102.15226,25.189422 100.87506,23.276401 100.87506,23.276401"
         style="fill:url(#linearGradient26310);fill-opacity:1;fill-rule:evenodd;stroke:black;stroke-width:0.80000001;stroke-linecap:round;stroke-linejoin:round;stroke-miterlimit:4;stroke-dasharray:none;stroke-opacity:1;display:inline" />
      <g
         style="fill:#a8a8a9;fill-opacity:1;display:inline"
         transform="matrix(-0.341772,0,-4.925855e-2,0.374098,263.7249,-23.68353)"
         id="g2370">
        <path
           style="fill:#a8a8a9;fill-opacity:1;fill-rule:evenodd;stroke:none;stroke-width:2.06699991;stroke-linecap:butt;stroke-linejoin:miter;stroke-miterlimit:4;stroke-dasharray:none;stroke-opacity:1;display:inline"
           d="M 458.78172,155.64201 C 464.45972,154.43052 462.86934,158.60907 462.86934,158.60907 C 462.86934,158.60907 451.08778,177.1449 451.79178,169.88475 C 452.49578,162.62459 433.1779,177.17343 441.2708,169.27276 C 449.3637,161.37209 420.9501,173.7702 440.15738,163.45502 C 444.16207,161.30432 453.10373,156.8535 458.78172,155.64201 z "
           id="path2372"
           sodipodi:nodetypes="ccsssz" />
        <path
           style="fill:#a8a8a9;fill-opacity:1;fill-rule:evenodd;stroke:none;stroke-width:2.06699991;stroke-linecap:butt;stroke-linejoin:miter;stroke-miterlimit:4;stroke-dasharray:none;stroke-opacity:1;display:inline"
           d="M 457.86465,155.97029 C 463.54264,154.7588 461.95227,158.93735 461.95227,158.93735 C 461.95227,158.93735 450.17071,177.47317 450.87471,170.21302 C 451.57871,162.95286 432.26083,177.50171 440.35373,169.60104 C 448.44662,161.70036 420.03302,174.09847 439.24031,163.78329 C 443.245,161.63259 452.18666,157.18177 457.86465,155.97029 z "
           id="path2374"
           sodipodi:nodetypes="ccsssz" />
        <path
           style="fill:#a8a8a9;fill-opacity:1;fill-rule:evenodd;stroke:black;stroke-width:2.23732495;stroke-linecap:round;stroke-linejoin:round;stroke-miterlimit:4;stroke-dasharray:none;stroke-opacity:1"
           d="M 462.23239,158.97662 C 462.23239,158.97662 450.45083,177.51245 451.15483,170.25229 C 451.85883,162.99214 432.54095,177.54098 440.63385,169.64031 C 448.72674,161.73963 420.31314,174.13775 439.52043,163.82256 C 443.52512,161.67187 458.14477,156.00956 458.14477,156.00956"
           id="path2376"
           sodipodi:nodetypes="csssc" />
      </g>
      <g
         style="fill:#a8a8a9;fill-opacity:1;display:inline"
         transform="matrix(-0.341772,0,-0.108369,0.374098,266.4302,-23.02294)"
         id="g1663">
        <path
           style="fill:#a8a8a9;fill-opacity:1;fill-rule:evenodd;stroke:none;stroke-width:2.06699991;stroke-linecap:butt;stroke-linejoin:miter;stroke-miterlimit:4;stroke-dasharray:none;stroke-opacity:1;display:inline"
           d="M 458.78172,155.64201 C 464.45972,154.43052 462.86934,158.60907 462.86934,158.60907 C 462.86934,158.60907 451.08778,177.1449 451.79178,169.88475 C 452.49578,162.62459 433.1779,177.17343 441.2708,169.27276 C 449.3637,161.37209 420.9501,173.7702 440.15738,163.45502 C 444.16207,161.30432 453.10373,156.8535 458.78172,155.64201 z "
           id="path1665"
           sodipodi:nodetypes="ccsssz" />
        <path
           style="fill:#a8a8a9;fill-opacity:1;fill-rule:evenodd;stroke:none;stroke-width:2.06699991;stroke-linecap:butt;stroke-linejoin:miter;stroke-miterlimit:4;stroke-dasharray:none;stroke-opacity:1;display:inline"
           d="M 457.86465,155.97029 C 463.54264,154.7588 461.95227,158.93735 461.95227,158.93735 C 461.95227,158.93735 450.17071,177.47317 450.87471,170.21302 C 451.57871,162.95286 432.26083,177.50171 440.35373,169.60104 C 448.44662,161.70036 420.03302,174.09847 439.24031,163.78329 C 443.245,161.63259 452.18666,157.18177 457.86465,155.97029 z "
           id="path1667"
           sodipodi:nodetypes="ccsssz" />
        <path
           style="fill:#a8a8a9;fill-opacity:1;fill-rule:evenodd;stroke:black;stroke-width:2.23732495;stroke-linecap:round;stroke-linejoin:round;stroke-miterlimit:4;stroke-dasharray:none;stroke-opacity:1"
           d="M 462.23239,158.97662 C 462.23239,158.97662 450.45083,177.51245 451.15483,170.25229 C 451.85883,162.99214 432.54095,177.54098 440.63385,169.64031 C 448.72674,161.73963 420.31314,174.13775 439.52043,163.82256 C 443.52512,161.67187 458.14477,156.00956 458.14477,156.00956"
           id="path1669"
           sodipodi:nodetypes="csssc" />
      </g>
      <path
         sodipodi:nodetypes="czsccs"
         id="path1683"
         d="M 98.294209,14.618748 C 99.376419,12.46414 101.2066,5.6879633 100.0408,4.0837404 C 98.820606,2.4046689 95.815394,0.0429269 91.161391,4.5363349 C 82.713954,12.692278 87.857322,34.271648 95.301766,35.802702 C 111.31706,38.100479 105.25571,23.613726 100.7434,21.876846 C 100.7434,21.876846 97.212,16.773356 98.294209,14.618748 z "
         style="fill:url(#linearGradient26312);fill-opacity:1;fill-rule:evenodd;stroke:none;stroke-width:0.92659229;stroke-linecap:butt;stroke-linejoin:miter;stroke-miterlimit:4;stroke-dasharray:none;stroke-opacity:1;display:inline" />
      <path
         sodipodi:nodetypes="csssc"
         id="path1410"
         d="M 105.47781,28.638359 C 105.9323,35.342085 102.32164,35.599106 98.07528,35.886201 C 93.31256,36.208207 90.51863,33.030904 89.39113,28.85933 C 88.30268,24.832255 93.76883,22.043112 98.78239,21.744069 C 102.89943,21.4985 104.89986,25.060177 105.47781,28.638359 z "
         style="color:black;fill:url(#radialGradient26314);fill-opacity:1;fill-rule:nonzero;stroke:none;stroke-width:0.84875;stroke-linecap:round;stroke-linejoin:round;marker:none;marker-start:none;marker-mid:none;marker-end:none;stroke-miterlimit:4;stroke-dashoffset:0;stroke-opacity:1;visibility:visible;display:inline;overflow:visible" />
      <path
         sodipodi:nodetypes="cscsscscc"
         id="path1686"
         d="M 99.915325,4.2097156 C 99.795211,3.9954746 98.407576,1.6429068 95.804525,1.8639957 C 95.76507,1.8673467 95.72623,1.8594335 95.686229,1.8639957 C 94.446191,2.0054254 92.967351,2.7733742 91.161391,4.5363349 C 82.037253,13.44323 87.73263,34.610312 96.209977,35.802702 C 108.58242,37.542961 108.09342,25.188262 100.7434,21.876846 C 100.7434,21.876846 97.272406,16.756754 98.354615,14.602146 M 100.68425,21.847154 C 99.78667,21.470557 97.577753,21.447703 96.48473,22.500392"
         style="fill:none;fill-opacity:1;fill-rule:evenodd;stroke:black;stroke-width:0.80000001;stroke-linecap:round;stroke-linejoin:round;stroke-miterlimit:4;stroke-dasharray:none;stroke-opacity:1;display:inline" />
      <path
         id="path1688"
         d="M 101.4706,30.354377 C 103.09948,30.396862 101.45407,29.301826 101.69924,30.548142 C 100.59096,30.954731 100.65543,30.650665 101.49085,31.038323 L 100.22603,30.525299 C 101.2766,31.177967 101.90439,31.946742 102.91902,31.197146 C 103.01372,29.969629 101.21666,28.994574 100.20426,29.730874 L 101.4706,30.354377 z "
         style="fill:black;fill-opacity:1;fill-rule:nonzero;stroke:none;stroke-width:1pt;stroke-linecap:butt;stroke-linejoin:miter;stroke-opacity:1;display:inline" />
      <g
         transform="matrix(1.232795,-0.102297,0.173477,1.274376,78.06102,-0.449167)"
         id="g2352">
        <path
           style="fill:url(#linearGradient26316);fill-opacity:1;fill-rule:evenodd;stroke:black;stroke-width:0.31734136;stroke-linecap:round;stroke-linejoin:round;stroke-miterlimit:4;stroke-dasharray:none;stroke-opacity:1"
           d="M 17.619727,13.156987 C 17.619727,13.156987 18.761396,10.029462 15.481493,7.6934039 C 14.990276,9.9137273 12.686156,9.4154374 12.532491,9.4362263 C 12.378825,9.4570148 13.265025,10.156332 12.642433,11.133403 C 12.019841,12.110472 14.095931,10.310856 17.619727,13.156987 z "
           id="path1431"
           sodipodi:nodetypes="ccssc" />
        <path
           style="fill:none;fill-opacity:0.75;fill-rule:evenodd;stroke:black;stroke-width:0.2;stroke-linecap:round;stroke-linejoin:round;stroke-miterlimit:4;stroke-dasharray:none;stroke-opacity:1"
           d="M 12.715596,9.5688085 C 12.715596,9.5688085 15.027522,9.8577993 17.59633,12.876148"
           id="path2314" />
      </g>
      <path
         sodipodi:nodetypes="ccccccs"
         id="path2329"
         d="M 99.178171,3.2901982 C 96.475873,-0.3544726 94.225058,-0.3910999 94.21404,-0.4851011 C 94.21404,-0.4851011 97.221396,2.6507797 96.325113,3.0535443 C 93.902971,0.3600698 92.883939,0.8853983 92.789156,0.8565483 C 92.722231,0.8637752 95.634403,2.9598953 94.727535,3.39759 C 92.552887,1.7453706 91.103066,2.1430925 91.184755,2.1886399 C 91.20902,2.2158292 93.058483,3.3693152 93.280578,4.1090286"
         style="fill:#68a6c7;fill-opacity:1;fill-rule:evenodd;stroke:black;stroke-width:0.80000001;stroke-linecap:round;stroke-linejoin:round;stroke-miterlimit:4;stroke-dasharray:none;stroke-opacity:1" />
      <path
         sodipodi:nodetypes="ccccccccccc"
         id="path2404"
         d="M 87.477976,16.202458 C 76.518744,21.923307 84.506901,38.788849 88.667803,39.978031 C 88.536647,39.753595 85.741917,34.892371 85.944094,33.783151 C 86.90941,36.946208 89.006651,37.092276 89.002307,36.991868 C 87.123402,34.028379 86.670691,33.156852 86.479227,31.461059 C 87.468368,34.285847 89.642368,34.453513 89.450676,34.32393 C 87.985692,32.041083 86.891849,28.96936 87.25959,28.6744 C 87.99057,31.080776 89.741553,31.952682 89.786986,31.965743 C 89.597264,31.584367 87.83655,28.200886 88.074456,26.801852 C 88.632544,27.763187 89.835179,28.884628 90.053291,28.940223 C 88.887733,27.548026 88.912615,25.23602 88.912615,25.23602"
         style="fill:url(#linearGradient26318);fill-opacity:1;fill-rule:evenodd;stroke:black;stroke-width:0.80000001;stroke-linecap:round;stroke-linejoin:round;stroke-miterlimit:4;stroke-dasharray:none;stroke-opacity:1" />
      <path
         style="fill:black;fill-opacity:1;fill-rule:nonzero;stroke:#0f0f0f;stroke-width:0;stroke-miterlimit:4;stroke-opacity:1"
         d="M 95.378297,6.8269498 C 95.378297,8.1897808 96.169891,9.226104 97.14525,9.140174 C 98.120608,9.054245 98.912201,7.8784423 98.912201,6.5156114 C 98.912201,5.1527805 98.120608,4.1164543 97.14525,4.2023838 C 96.169891,4.2883133 95.378297,5.464119 95.378297,6.8269498 z "
         id="path1695" />
      <path
         style="fill:black;fill-opacity:1;fill-rule:nonzero;stroke:#0f0f0f;stroke-width:0;stroke-miterlimit:4;stroke-opacity:1"
         d="M 98.248672,6.8677211 C 98.248672,7.8157301 98.853785,8.531822 99.599365,8.466136 C 100.34495,8.400449 100.95006,7.5777368 100.95006,6.6297278 C 100.95006,5.681716 100.34495,4.9656266 99.599365,5.031313 C 98.853785,5.0969989 98.248672,5.9197093 98.248672,6.8677211 z "
         id="path1697" />
      <path
         style="fill:#f1c616;fill-opacity:1;fill-rule:nonzero;stroke:#0f0f0f;stroke-width:0;stroke-miterlimit:4;stroke-opacity:1"
         d="M 98.612436,6.8873266 C 98.612436,7.5931626 99.060246,8.1265589 99.61202,8.0779475 C 100.16379,8.0293365 100.6116,7.4170353 100.6116,6.7111992 C 100.6116,6.0053659 100.16379,5.4719698 99.61202,5.5205808 C 99.060246,5.5691923 98.612436,6.1814933 98.612436,6.8873266 z "
         id="path1699" />
      <path
         style="fill:#f1c616;fill-opacity:1;fill-rule:nonzero;stroke:#0f0f0f;stroke-width:0;stroke-miterlimit:4;stroke-opacity:1"
         d="M 95.888315,6.9609848 C 96.008697,8.0400912 96.739584,8.781037 97.519756,8.614879 C 98.299931,8.44872 98.835419,7.4380684 98.715035,6.3589622 C 98.594657,5.2798582 97.863773,4.538915 97.083598,4.7050734 C 96.303425,4.8712287 95.767937,5.8818808 95.888315,6.9609848 z "
         id="path1701" />
      <path
         style="fill:black;fill-opacity:1;fill-rule:nonzero;stroke:#0f0f0f;stroke-width:0;stroke-miterlimit:4;stroke-opacity:1"
         d="M 96.729383,7.3734824 C 96.729383,7.826101 97.121282,8.1589204 97.604164,8.1163783 C 98.087043,8.0738365 98.478942,7.6719641 98.478942,7.2193455 C 98.478942,6.7667271 98.087043,6.4339103 97.604164,6.4764521 C 97.121282,6.5189942 96.729383,6.920864 96.729383,7.3734824 z "
         id="path1703" />
      <path
         style="fill:black;fill-opacity:1;fill-rule:nonzero;stroke:#0f0f0f;stroke-width:0;stroke-miterlimit:4;stroke-opacity:1;display:inline"
         d="M 98.797214,7.2007433 C 98.797214,7.6533618 99.189113,7.9861813 99.671995,7.9436392 C 100.15487,7.9010974 100.54677,7.4992249 100.54677,7.0466064 C 100.54677,6.5939879 100.15487,6.2611711 99.671995,6.3037129 C 99.189113,6.346255 98.797214,6.7481248 98.797214,7.2007433 z "
         id="path1705" />
    </g>
    <g
       style="display:inline"
       inkscape:label="Layer 1"
       id="g26320"
       transform="translate(-110.5522,162.9305)"
       inkscape:export-xdpi="90"
       inkscape:export-ydpi="90">
      <g
         transform="matrix(1.83983e-2,0,0,1.850609e-2,9.960525,11.09431)"
         inkscape:label="Calque 1"
         id="g26322">
        <g
           id="g26324">
          <path
             sodipodi:nodetypes="cccccsccccccccc"
             style="fill:url(#linearGradient26404);fill-opacity:1;fill-rule:evenodd;stroke:black;stroke-width:0.44152708pt;stroke-linecap:butt;stroke-linejoin:miter;stroke-opacity:1"
             d="M -495.90894,991.82542 L -160.44054,1104.367 C -160.44054,1104.367 582.02686,1067.5012 884.88398,953.21553 L 881.03118,-35.525621 L 815.54891,-245.67877 C 815.54891,-245.67877 720.96316,-384.57998 688.22206,-399.03804 C 655.48086,-413.4961 495.41286,-460.48902 495.41286,-460.48902 L 168.00096,-541.10384 L 91.604959,-560.62469 L 0.65715936,-542.74295 L -68.917741,-522.38239 L -140.76664,-480.07517 L -207.15834,-429.36156 L -323.34414,-305.79782 L -464.28764,-3.0331466"
             id="path26326" />
          <path
             style="fill:black;fill-opacity:1;fill-rule:nonzero;stroke:none;stroke-width:1pt;stroke-linecap:butt;stroke-linejoin:miter;stroke-opacity:1"
             d="M 127.74416,-587.94343 C 47.810164,-594.41279 -23.03741,-557.42476 -90.092493,-526.96615 C -232.15721,-457.55389 -339.54317,-344.57745 -413.85998,-207.55164 C -450.30454,-140.14182 -503.37721,-10.89332 -507.84072,278.97313 C -510.23574,428.69079 -512.57091,578.44197 -517.16622,727.85892 C -518.65468,756.7794 -517.9732,786.40284 -521.13096,814.89415 C -522.44246,825.83262 -523.34896,836.92438 -524.25805,847.96948 C -525.97258,870.55185 -530.22885,978.16005 -530.51231,1000.9605 C -530.23286,1003.8419 -530.48719,1001.3081 -530.28895,1003.3871 L -530.28895,1003.4414 C -530.1371,1005.0344 -530.23015,1004.1478 -530.12143,1005.3151 L -527.6644,1004.4001 C -469.3748,1025.943 -382.8986,1056.2531 -323.50881,1075.4788 C -279.21658,1089.6992 -234.92269,1103.7248 -190.49503,1117.3062 C -190.52823,1117.6688 -190.57342,1118.0222 -190.60664,1118.3843 L -188.42891,1117.9823 C -187.47888,1118.2727 -186.5311,1118.5688 -185.58095,1118.8579 L -181.61619,1116.6447 C -181.61619,1116.6447 -8.2488802,1105.6742 68.887559,1099.9854 C 228.99861,1087.1753 389.46758,1074.6179 546.5535,1048.8495 C 607.98417,1038.2442 776.72617,1000.248 835.30859,981.53235 L 915.2736,959.14518 C 907.60586,930.39702 910.55343,458.50723 908.06973,265.24457 C 908.6403,156.2484 907.79456,46.878848 914.49144,-61.244722 L 912.92792,-60.662329 L 913.37465,-60.937871 C 912.75664,-60.833157 913.01419,-60.875048 912.42532,-60.775207 C 914.01136,-145.837 882.90273,-186.48808 851.61422,-267.03732 C 798.63353,-383.94042 703.69694,-463.56896 582.962,-482.23896 L 588.71364,-483.972 C 554.03404,-486.87821 366.46975,-521.07473 331.89978,-529.24709 C 284.07822,-540.20876 236.44383,-553.525 189.95131,-571.29227 L 127.74416,-587.94343 z M -530.12143,1005.3151 L -530.51231,1005.4339 C -530.50675,1004.1523 -528.54444,1022.2391 -530.12143,1005.3151 z M -158.16289,462.49688 C -163.33242,667.55531 -169.44353,863.02453 -186.08354,1064.6338 C -211.52597,1056.9777 -236.96136,1049.1393 -262.30683,1041.011 C -319.53933,1022.431 -402.71221,995.5039 -458.30959,966.7323 C -457.78681,938.16287 -454.09294,842.43383 -451.94367,821.11791 C -450.73441,810.14395 -449.50756,730.86178 -449.70999,702.18954 C -451.02212,552.9138 -449.55488,403.92969 -445.41022,255.33914 C -442.886,181.02279 -441.23577,106.00248 -430.13768,3.7345045 C -413.04515,-97.628325 -369.93982,-171.84386 -336.30773,-235.36484 C -266.46253,-365.70407 -159.95503,-455.27548 -27.583905,-523.32978 C 24.107301,-540.35454 53.533096,-552.05519 77.096314,-549.25154 L 77.710516,-549.61655 C 93.583895,-546.54244 109.23816,-540.23701 124.67299,-534.84254 C 171.55973,-517.5825 219.32218,-503.90426 267.29154,-492.06506 C 286.75797,-487.10963 340.3136,-476.74893 390.19805,-467.93804 C 303.00698,-467.46597 156.51996,-446.4578 -20.206565,-204.51129 C -77.34201,-122.07471 -136.71499,-30.759532 -143.58829,55.349204 M 841.73032,-22.171657 C 847.32096,81.209689 848.61735,184.39462 850.10642,287.43281 C 855.05034,482.52589 845.33168,675.93251 848.87801,870.84588 C 849.20665,895.39824 846.03892,927.60595 847.64946,955.14386 C 771.17171,976.36242 654.66543,1002.8487 604.46093,1011.9809 C 446.93716,1039.3627 285.83554,1053.2699 124.67299,1065.2714 C 42.287078,1070.854 -42.359592,1075.8593 -124.37899,1079.481 C -114.9794,866.92472 -108.83213,653.89815 -101.42829,441.03869 C -97.786955,331.24825 -95.841039,206.38609 -86.49064,83.217464 C -61.027309,-44.297358 5.4645145,-142.96187 67.826632,-232.69297 C 192.94915,-392.32781 289.87193,-446.84631 475.18842,-451.75387 C 492.87783,-451.67639 510.11671,-450.34078 526.8416,-447.78178 C 643.91526,-429.86896 736.21977,-352.76646 787.73178,-239.15322 C 816.5456,-164.00211 848.23101,-122.89945 843.51721,-49.183906"
             id="path26328"
             sodipodi:nodetypes="cccccccccccccccccccccccccccccccccccccccccccccccccccczcccccccccccccc" />
        </g>
      </g>
      <g
         transform="matrix(-0.80024,0,0,0.80024,285.9809,-107.4224)"
         id="g26330"
         inkscape:label="Layer 1" />
      <g
         transform="matrix(-0.80024,0,0,0.80024,1443.382,225.5088)"
         inkscape:label="Layer 1"
         id="g26332" />
      <g
         transform="matrix(-0.80024,0,0,0.80024,2110.599,193.0225)"
         id="g26334"
         inkscape:label="Layer 1" />
      <g
         transform="matrix(-0.757324,0,0,0.76036,256.5903,-88.23771)"
         id="g26336"
         inkscape:label="Layer 1" />
      <g
         transform="matrix(-0.757324,0,0,0.76036,1351.92,228.1018)"
         inkscape:label="Layer 1"
         id="g26338" />
      <g
         transform="matrix(-0.757324,0,0,0.76036,1983.356,197.2345)"
         id="g26340"
         inkscape:label="Layer 1" />
      <g
         transform="matrix(-0.80024,0,0,0.80024,288.3485,-93.75804)"
         id="g26342"
         inkscape:label="Layer 1" />
      <g
         transform="matrix(-0.80024,0,0,0.80024,1445.75,239.1732)"
         inkscape:label="Layer 1"
         id="g26344" />
      <g
         transform="matrix(-0.80024,0,0,0.80024,2112.967,206.6869)"
         id="g26346"
         inkscape:label="Layer 1" />
      <g
         transform="matrix(-0.757324,0,0,0.76036,258.9579,-74.57333)"
         id="g26348"
         inkscape:label="Layer 1" />
      <g
         transform="matrix(-0.757324,0,0,0.76036,1354.288,241.7662)"
         inkscape:label="Layer 1"
         id="g26350" />
      <g
         transform="matrix(-0.757324,0,0,0.76036,1985.724,210.8989)"
         id="g26352"
         inkscape:label="Layer 1" />
      <g
         transform="matrix(0.989644,-0.143546,0.143546,0.989644,39.60205,9.919458)"
         id="g26354">
        <path
           sodipodi:type="arc"
           style="opacity:1;color:black;fill:#3151a4;fill-opacity:1;fill-rule:nonzero;stroke:none;stroke-width:0.41749999;stroke-linecap:round;stroke-linejoin:round;marker:none;marker-start:none;marker-mid:none;marker-end:none;stroke-miterlimit:4;stroke-dasharray:none;stroke-dashoffset:0;stroke-opacity:1;visibility:visible;display:inline;overflow:visible"
           id="path26356"
           sodipodi:cx="-23.337694"
           sodipodi:cy="0.950719"
           sodipodi:rx="1.9617193"
           sodipodi:ry="8.7262688"
           d="M -21.375975 0.950719 A 1.9617193 8.7262688 0 1 1  -25.299413,0.950719 A 1.9617193 8.7262688 0 1 1  -21.375975 0.950719 z"
           transform="matrix(0.974244,-0.225497,0.225497,0.974244,0.30068,-5.27191)" />
        <path
           style="fill:black;fill-opacity:1;fill-rule:nonzero;stroke:none;stroke-width:1px;stroke-linecap:butt;stroke-linejoin:miter;stroke-opacity:1"
           id="path26358"
           d="M -20.170581,7.7866158 C -19.430094,10.242854 -19.20038,12.874374 -19.14703,15.436119 C -19.124945,15.661138 -19.161305,15.882136 -19.181797,16.10429 L -19.637094,16.325858 C -19.602718,16.10177 -19.549566,15.880673 -19.566931,15.650234 C -19.530473,13.111033 -19.741548,10.433537 -20.622564,8.0439677 L -20.170581,7.7866158 z " />
        <path
           style="fill:black;fill-opacity:1;fill-rule:nonzero;stroke:none;stroke-width:1px;stroke-linecap:butt;stroke-linejoin:miter;stroke-opacity:1"
           d="M -21.634334,8.4894892 C -24.353071,4.1323254 -25.074856,-3.2233119 -24.945692,-6.2499155 C -24.816529,-9.2765191 -23.675982,-7.9339421 -23.12567,-7.0950195 C -20.694364,-3.9077924 -19.349493,2.7087239 -18.946457,6.7399102 C -19.012387,7.2413601 -18.617149,8.3187079 -19.424263,8.3166676 C -20.09748,7.7668155 -19.476879,6.7727999 -19.60473,6.0310548 C -19.621385,3.0716689 -21.424467,-3.1502043 -22.190916,-4.6939235 C -22.998804,-6.321107 -23.684261,-7.9083462 -24.1845,-7.0200273 C -24.705317,-6.095166 -24.647159,-5.0586654 -24.661165,-4.4306084 C -24.748524,-0.60873261 -23.986077,3.2704336 -22.197801,6.6669009 C -22.032908,7.2628635 -21.210761,7.7911748 -21.555969,8.4486543 C -21.58209,8.462266 -21.608212,8.4758776 -21.634334,8.4894892 z "
           id="path26360"
           sodipodi:nodetypes="czcccczzsccc" />
      </g>
    </g>
    <g
       style="display:inline"
       id="g26362"
       transform="translate(-227.925,156.1179)"
       inkscape:export-xdpi="90"
       inkscape:export-ydpi="90">
      <path
         sodipodi:nodetypes="ccccccccccc"
         id="path26364"
         d="M 98.048558,15.371968 C 111.87266,16.101992 111.92182,32.803713 108.26618,35.275319 C 108.29281,35.044522 108.82285,30.062169 108.09215,29.2279 C 108.61236,32.162406 106.55495,33.037458 106.51177,32.95378 C 107.01253,29.853331 107.05855,28.977501 106.44902,27.521716 C 106.78475,30.188172 104.65974,31.108543 104.79271,30.933507 C 105.19632,28.538809 104.84973,25.632691 104.33704,25.523967 C 104.73626,27.755236 103.37396,29.099122 103.33408,29.126173 C 103.34571,28.745934 103.52758,25.344602 102.6233,24.286199 C 102.513,25.273438 101.82499,26.62383 101.63016,26.747877 C 102.15226,25.189422 100.87506,23.276401 100.87506,23.276401"
         style="fill:#3d3d3d;fill-opacity:1;fill-rule:evenodd;stroke:black;stroke-width:0.80000001;stroke-linecap:round;stroke-linejoin:round;stroke-miterlimit:4;stroke-dasharray:none;stroke-opacity:1;display:inline" />
      <g
         style="fill:#a8a8a9;fill-opacity:1;display:inline"
         transform="matrix(-0.341772,0,-4.925855e-2,0.374098,263.7249,-23.68353)"
         id="g26366">
        <path
           style="fill:#3d3d3d;fill-opacity:1;fill-rule:evenodd;stroke:black;stroke-width:2.23732495;stroke-linecap:round;stroke-linejoin:round;stroke-miterlimit:4;stroke-dasharray:none;stroke-opacity:1"
           d="M 462.23239,158.97662 C 462.23239,158.97662 450.45083,177.51245 451.15483,170.25229 C 451.85883,162.99214 432.54095,177.54098 440.63385,169.64031 C 448.72674,161.73963 420.31314,174.13775 439.52043,163.82256 C 443.52512,161.67187 458.14477,156.00956 458.14477,156.00956"
           id="path26368"
           sodipodi:nodetypes="csssc" />
      </g>
      <g
         style="fill:#a8a8a9;fill-opacity:1;display:inline"
         transform="matrix(-0.341772,0,-0.108369,0.374098,266.4302,-23.02294)"
         id="g26370">
        <path
           style="fill:#3d3d3d;fill-opacity:1;fill-rule:evenodd;stroke:none;stroke-width:2.06699991;stroke-linecap:butt;stroke-linejoin:miter;stroke-miterlimit:4;stroke-dasharray:none;stroke-opacity:1;display:inline"
           d="M 458.78172,155.64201 C 464.45972,154.43052 462.86934,158.60907 462.86934,158.60907 C 462.86934,158.60907 451.08778,177.1449 451.79178,169.88475 C 452.49578,162.62459 433.1779,177.17343 441.2708,169.27276 C 449.3637,161.37209 420.9501,173.7702 440.15738,163.45502 C 444.16207,161.30432 453.10373,156.8535 458.78172,155.64201 z "
           id="path26372"
           sodipodi:nodetypes="ccsssz" />
        <path
           style="fill:#3d3d3d;fill-opacity:1;fill-rule:evenodd;stroke:black;stroke-width:2.23732495;stroke-linecap:round;stroke-linejoin:round;stroke-miterlimit:4;stroke-dasharray:none;stroke-opacity:1"
           d="M 462.23239,158.97662 C 462.23239,158.97662 450.45083,177.51245 451.15483,170.25229 C 451.85883,162.99214 432.54095,177.54098 440.63385,169.64031 C 448.72674,161.73963 420.31314,174.13775 439.52043,163.82256 C 443.52512,161.67187 458.14477,156.00956 458.14477,156.00956"
           id="path26374"
           sodipodi:nodetypes="csssc" />
      </g>
      <path
         sodipodi:nodetypes="czsccs"
         id="path26376"
         d="M 98.294209,14.618748 C 99.376419,12.46414 101.2066,5.6879633 100.0408,4.0837404 C 98.820606,2.4046689 95.815394,0.0429269 91.161391,4.5363349 C 82.713954,12.692278 87.857322,34.271648 95.301766,35.802702 C 111.31706,38.100479 105.25571,23.613726 100.7434,21.876846 C 100.7434,21.876846 97.212,16.773356 98.294209,14.618748 z "
         style="fill:#3d3d3d;fill-opacity:1;fill-rule:evenodd;stroke:none;stroke-width:0.92659229;stroke-linecap:butt;stroke-linejoin:miter;stroke-miterlimit:4;stroke-dasharray:none;stroke-opacity:1;display:inline" />
      <path
         sodipodi:nodetypes="cscsscscc"
         id="path26378"
         d="M 99.915325,4.2097156 C 99.795211,3.9954746 98.407576,1.6429068 95.804525,1.8639957 C 95.76507,1.8673467 95.72623,1.8594335 95.686229,1.8639957 C 94.446191,2.0054254 92.967351,2.7733742 91.161391,4.5363349 C 82.037253,13.44323 87.73263,34.610312 96.209977,35.802702 C 108.58242,37.542961 108.09342,25.188262 100.7434,21.876846 C 100.7434,21.876846 97.272406,16.756754 98.354615,14.602146 M 100.68425,21.847154 C 99.78667,21.470557 97.577753,21.447703 96.48473,22.500392"
         style="fill:none;fill-opacity:1;fill-rule:evenodd;stroke:black;stroke-width:0.80000001;stroke-linecap:round;stroke-linejoin:round;stroke-miterlimit:4;stroke-dasharray:none;stroke-opacity:1;display:inline" />
      <path
         id="path26380"
         d="M 101.4706,30.354377 C 103.09948,30.396862 101.45407,29.301826 101.69924,30.548142 C 100.59096,30.954731 100.65543,30.650665 101.49085,31.038323 L 100.22603,30.525299 C 101.2766,31.177967 101.90439,31.946742 102.91902,31.197146 C 103.01372,29.969629 101.21666,28.994574 100.20426,29.730874 L 101.4706,30.354377 z "
         style="fill:black;fill-opacity:1;fill-rule:nonzero;stroke:none;stroke-width:1pt;stroke-linecap:butt;stroke-linejoin:miter;stroke-opacity:1;display:inline" />
      <g
         transform="matrix(1.232795,-0.102297,0.173477,1.274376,78.06102,-0.449167)"
         id="g26382">
        <path
           style="fill:url(#linearGradient26406);fill-opacity:1;fill-rule:evenodd;stroke:black;stroke-width:0.31734136;stroke-linecap:round;stroke-linejoin:round;stroke-miterlimit:4;stroke-dasharray:none;stroke-opacity:1"
           d="M 17.619727,13.156987 C 17.619727,13.156987 18.761396,10.029462 15.481493,7.6934039 C 14.990276,9.9137273 12.686156,9.4154374 12.532491,9.4362263 C 12.378825,9.4570148 13.265025,10.156332 12.642433,11.133403 C 12.019841,12.110472 14.095931,10.310856 17.619727,13.156987 z "
           id="path26384"
           sodipodi:nodetypes="ccssc" />
        <path
           style="fill:none;fill-opacity:0.75;fill-rule:evenodd;stroke:black;stroke-width:0.2;stroke-linecap:round;stroke-linejoin:round;stroke-miterlimit:4;stroke-dasharray:none;stroke-opacity:1"
           d="M 12.715596,9.5688085 C 12.715596,9.5688085 15.027522,9.8577993 17.59633,12.876148"
           id="path26386" />
      </g>
      <path
         sodipodi:nodetypes="ccccccs"
         id="path26388"
         d="M 99.178171,3.2901982 C 96.475873,-0.3544726 94.225058,-0.3910999 94.21404,-0.4851011 C 94.21404,-0.4851011 97.221396,2.6507797 96.325113,3.0535443 C 93.902971,0.3600698 92.883939,0.8853983 92.789156,0.8565483 C 92.722231,0.8637752 95.634403,2.9598953 94.727535,3.39759 C 92.552887,1.7453706 91.103066,2.1430925 91.184755,2.1886399 C 91.20902,2.2158292 93.058483,3.3693152 93.280578,4.1090286"
         style="fill:#3d3d3d;fill-opacity:1;fill-rule:evenodd;stroke:black;stroke-width:0.80000001;stroke-linecap:round;stroke-linejoin:round;stroke-miterlimit:4;stroke-dasharray:none;stroke-opacity:1" />
      <path
         sodipodi:nodetypes="ccccccccccc"
         id="path26390"
         d="M 87.477976,16.202458 C 76.518744,21.923307 84.506901,38.788849 88.667803,39.978031 C 88.536647,39.753595 85.741917,34.892371 85.944094,33.783151 C 86.90941,36.946208 89.006651,37.092276 89.002307,36.991868 C 87.123402,34.028379 86.670691,33.156852 86.479227,31.461059 C 87.468368,34.285847 89.642368,34.453513 89.450676,34.32393 C 87.985692,32.041083 86.891849,28.96936 87.25959,28.6744 C 87.99057,31.080776 89.741553,31.952682 89.786986,31.965743 C 89.597264,31.584367 87.83655,28.200886 88.074456,26.801852 C 88.632544,27.763187 89.835179,28.884628 90.053291,28.940223 C 88.887733,27.548026 88.912615,25.23602 88.912615,25.23602"
         style="fill:#3d3d3d;fill-opacity:1;fill-rule:evenodd;stroke:black;stroke-width:0.80000001;stroke-linecap:round;stroke-linejoin:round;stroke-miterlimit:4;stroke-dasharray:none;stroke-opacity:1" />
      <path
         style="fill:black;fill-opacity:1;fill-rule:nonzero;stroke:#0f0f0f;stroke-width:0;stroke-miterlimit:4;stroke-opacity:1"
         d="M 95.378297,6.8269498 C 95.378297,8.1897808 96.169891,9.226104 97.14525,9.140174 C 98.120608,9.054245 98.912201,7.8784423 98.912201,6.5156114 C 98.912201,5.1527805 98.120608,4.1164543 97.14525,4.2023838 C 96.169891,4.2883133 95.378297,5.464119 95.378297,6.8269498 z "
         id="path26392" />
      <path
         style="fill:black;fill-opacity:1;fill-rule:nonzero;stroke:#0f0f0f;stroke-width:0;stroke-miterlimit:4;stroke-opacity:1"
         d="M 98.248672,6.8677211 C 98.248672,7.8157301 98.853785,8.531822 99.599365,8.466136 C 100.34495,8.400449 100.95006,7.5777368 100.95006,6.6297278 C 100.95006,5.681716 100.34495,4.9656266 99.599365,5.031313 C 98.853785,5.0969989 98.248672,5.9197093 98.248672,6.8677211 z "
         id="path26394" />
      <path
         style="fill:#848484;fill-opacity:1;fill-rule:nonzero;stroke:#0f0f0f;stroke-width:0;stroke-miterlimit:4;stroke-opacity:1"
         d="M 98.612436,6.8873266 C 98.612436,7.5931626 99.060246,8.1265589 99.61202,8.0779475 C 100.16379,8.0293365 100.6116,7.4170353 100.6116,6.7111992 C 100.6116,6.0053659 100.16379,5.4719698 99.61202,5.5205808 C 99.060246,5.5691923 98.612436,6.1814933 98.612436,6.8873266 z "
         id="path26396" />
      <path
         style="fill:#848484;fill-opacity:1;fill-rule:nonzero;stroke:#0f0f0f;stroke-width:0;stroke-miterlimit:4;stroke-opacity:1"
         d="M 95.888315,6.9609848 C 96.008697,8.0400912 96.739584,8.781037 97.519756,8.614879 C 98.299931,8.44872 98.835419,7.4380684 98.715035,6.3589622 C 98.594657,5.2798582 97.863773,4.538915 97.083598,4.7050734 C 96.303425,4.8712287 95.767937,5.8818808 95.888315,6.9609848 z "
         id="path26398" />
      <path
         style="fill:black;fill-opacity:1;fill-rule:nonzero;stroke:#0f0f0f;stroke-width:0;stroke-miterlimit:4;stroke-opacity:1"
         d="M 96.49238,7.3734824 C 96.49238,7.826101 96.884279,8.1589204 97.367161,8.1163783 C 97.85004,8.0738365 98.241939,7.6719641 98.241939,7.2193455 C 98.241939,6.7667271 97.85004,6.4339103 97.367161,6.4764521 C 96.884279,6.5189942 96.49238,6.920864 96.49238,7.3734824 z "
         id="path26400" />
      <path
         style="fill:black;fill-opacity:1;fill-rule:nonzero;stroke:#0f0f0f;stroke-width:0;stroke-miterlimit:4;stroke-opacity:1;display:inline"
         d="M 98.678508,7.2007433 C 98.678508,7.6533618 99.070407,7.9861813 99.553289,7.9436392 C 100.03616,7.9010974 100.42807,7.4992249 100.42807,7.0466064 C 100.42807,6.5939879 100.03616,6.2611711 99.553289,6.3037129 C 99.070407,6.346255 98.678508,6.7481248 98.678508,7.2007433 z "
         id="path26402" />
    </g>
    <g
       style="display:inline"
       id="g26532"
       inkscape:export-xdpi="90"
       inkscape:export-ydpi="90"
       transform="translate(-233.6255,106.3278)">
      <path
         inkscape:tile-cy="8.6375513"
         inkscape:tile-cx="14.266624"
         inkscape:tile-h="20.478873"
         inkscape:tile-w="21.145145"
         transform="matrix(0.708545,0.35216,-0.388599,0.655818,94.16059,20.48409)"
         d="M 25.071794 8.4751015 A 12.190872 11.788343 0 1 1  0.69004917,8.4751015 A 12.190872 11.788343 0 1 1  25.071794 8.4751015 z"
         sodipodi:ry="11.788343"
         sodipodi:rx="12.190872"
         sodipodi:cy="8.4751015"
         sodipodi:cx="12.880921"
         id="path26414"
         style="fill:url(#radialGradient26418);fill-opacity:1;stroke:black;stroke-width:1.10114503;stroke-miterlimit:4;stroke-dasharray:none;stroke-opacity:1;display:inline"
         sodipodi:type="arc" />
      <path
         style="fill:#e1e1e1;fill-opacity:0.93059938;stroke:black;stroke-width:0.77298254;stroke-linecap:round;stroke-linejoin:round;stroke-miterlimit:4;stroke-opacity:1;display:inline"
         d="M 91.039151,33.972446 C 94.065049,38.083557 98.609582,39.296476 103.18647,38.755748 C 104.11783,38.645714 103.50914,40.432994 102.95263,40.510904 C 98.451643,41.141043 93.272952,39.750456 90.207576,35.68586 C 89.707073,35.022212 90.57339,33.339644 91.039151,33.972446 z "
         id="path26416"
         sodipodi:nodetypes="cssss" />
    </g>
    <path
       style="fill:url(#linearGradient26510);fill-opacity:1;fill-rule:evenodd;stroke:black;stroke-width:0.80000001;stroke-linecap:round;stroke-linejoin:round;stroke-miterlimit:4;stroke-dasharray:none;stroke-opacity:1;display:inline"
       d="M -79.009793,126.1345 C -65.185693,126.86453 -65.136533,143.56625 -68.792173,146.03786 C -68.765543,145.80706 -68.235503,140.82471 -68.966203,139.99044 C -68.445993,142.92494 -70.503403,143.79999 -70.546583,143.71632 C -70.045823,140.61587 -69.999803,139.74004 -70.609333,138.28425 C -70.273603,140.95071 -72.398613,141.87108 -72.265643,141.69604 C -71.862033,139.30135 -72.208623,136.39523 -72.721313,136.2865 C -72.322093,138.51777 -73.684393,139.86166 -73.724273,139.88871 C -73.712643,139.50847 -73.530773,136.10714 -74.435053,135.04874 C -74.545353,136.03597 -75.233363,137.38637 -75.428193,137.51041 C -74.906093,135.95196 -76.183293,134.03894 -76.183293,134.03894"
       id="path26422"
       sodipodi:nodetypes="ccccccccccc"
       inkscape:export-xdpi="90"
       inkscape:export-ydpi="90" />
    <g
       id="g26424"
       transform="matrix(-0.341772,0,-4.925855e-2,0.374098,105.5939,76.43232)"
       style="fill:#a8a8a9;fill-opacity:1;display:inline"
       inkscape:export-xdpi="90"
       inkscape:export-ydpi="90">
      <path
         sodipodi:nodetypes="ccsssz"
         id="path26426"
         d="M 458.78172,155.64201 C 464.45972,154.43052 462.86934,158.60907 462.86934,158.60907 C 462.86934,158.60907 451.08778,177.1449 451.79178,169.88475 C 452.49578,162.62459 433.1779,177.17343 441.2708,169.27276 C 449.3637,161.37209 420.9501,173.7702 440.15738,163.45502 C 444.16207,161.30432 453.10373,156.8535 458.78172,155.64201 z "
         style="fill:#a8a8a9;fill-opacity:1;fill-rule:evenodd;stroke:none;stroke-width:2.06699991;stroke-linecap:butt;stroke-linejoin:miter;stroke-miterlimit:4;stroke-dasharray:none;stroke-opacity:1;display:inline" />
      <path
         sodipodi:nodetypes="ccsssz"
         id="path26428"
         d="M 457.86465,155.97029 C 463.54264,154.7588 461.95227,158.93735 461.95227,158.93735 C 461.95227,158.93735 450.17071,177.47317 450.87471,170.21302 C 451.57871,162.95286 432.26083,177.50171 440.35373,169.60104 C 448.44662,161.70036 420.03302,174.09847 439.24031,163.78329 C 443.245,161.63259 452.18666,157.18177 457.86465,155.97029 z "
         style="fill:#a8a8a9;fill-opacity:1;fill-rule:evenodd;stroke:none;stroke-width:2.06699991;stroke-linecap:butt;stroke-linejoin:miter;stroke-miterlimit:4;stroke-dasharray:none;stroke-opacity:1;display:inline" />
      <path
         sodipodi:nodetypes="csssc"
         id="path26430"
         d="M 462.23239,158.97662 C 462.23239,158.97662 450.45083,177.51245 451.15483,170.25229 C 451.85883,162.99214 432.54095,177.54098 440.63385,169.64031 C 448.72674,161.73963 420.31314,174.13775 439.52043,163.82256 C 443.52512,161.67187 458.14477,156.00956 458.14477,156.00956"
         style="fill:#a8a8a9;fill-opacity:1;fill-rule:evenodd;stroke:black;stroke-width:2.23732495;stroke-linecap:round;stroke-linejoin:round;stroke-miterlimit:4;stroke-dasharray:none;stroke-opacity:1" />
    </g>
    <g
       style="display:inline"
       id="g26520"
       transform="translate(-235.2682,91.28829)"
       inkscape:export-xdpi="90"
       inkscape:export-ydpi="90">
      <path
         sodipodi:nodetypes="czsccs"
         id="path26440"
         d="M 144.43776,36.932108 C 145.51997,34.7775 147.35015,28.001323 146.18435,26.3971 C 144.96416,24.718029 141.95894,22.356287 137.30494,26.849695 C 128.8575,35.005638 134.00087,56.585008 141.44532,58.116062 C 157.46061,60.413839 151.39926,45.927086 146.88695,44.190206 C 146.88695,44.190206 143.35555,39.086716 144.43776,36.932108 z "
         style="fill:url(#linearGradient26526);fill-opacity:1;fill-rule:evenodd;stroke:none;stroke-width:0.92659229;stroke-linecap:butt;stroke-linejoin:miter;stroke-miterlimit:4;stroke-dasharray:none;stroke-opacity:1;display:inline" />
      <path
         sodipodi:nodetypes="csssc"
         id="path26442"
         d="M 151.62136,50.951719 C 152.07585,57.655445 148.46519,57.912466 144.21883,58.199561 C 139.45611,58.521567 136.66218,55.344264 135.53468,51.17269 C 134.44623,47.145615 139.91238,44.356472 144.92594,44.057429 C 149.04298,43.81186 151.04341,47.373537 151.62136,50.951719 z "
         style="color:black;fill:url(#radialGradient26528);fill-opacity:1;fill-rule:nonzero;stroke:none;stroke-width:0.84875;stroke-linecap:round;stroke-linejoin:round;marker:none;marker-start:none;marker-mid:none;marker-end:none;stroke-miterlimit:4;stroke-dashoffset:0;stroke-opacity:1;visibility:visible;display:inline;overflow:visible" />
      <path
         sodipodi:nodetypes="cscsscscc"
         id="path26444"
         d="M 146.05888,26.523076 C 145.93876,26.308835 144.55113,23.956267 141.94807,24.177356 C 141.90862,24.180707 141.86978,24.172794 141.82978,24.177356 C 140.58974,24.318785 139.1109,25.086734 137.30494,26.849695 C 128.1808,35.75659 133.87618,56.923672 142.35353,58.116062 C 154.72597,59.856321 154.23697,47.501622 146.88695,44.190206 C 146.88695,44.190206 143.41596,39.070114 144.49817,36.915506 M 146.8278,44.160514 C 145.93022,43.783917 143.7213,43.761063 142.62828,44.813752"
         style="fill:none;fill-opacity:1;fill-rule:evenodd;stroke:black;stroke-width:0.80000001;stroke-linecap:round;stroke-linejoin:round;stroke-miterlimit:4;stroke-dasharray:none;stroke-opacity:1;display:inline" />
      <path
         id="path26446"
         d="M 147.61415,52.667737 C 149.24303,52.710222 147.59762,51.615186 147.84279,52.861502 C 146.73451,53.268091 146.79898,52.964025 147.6344,53.351683 L 146.36958,52.838659 C 147.42015,53.491327 148.04794,54.260102 149.06257,53.510506 C 149.15727,52.282989 147.36021,51.307934 146.34781,52.044234 L 147.61415,52.667737 z "
         style="fill:black;fill-opacity:1;fill-rule:nonzero;stroke:none;stroke-width:1pt;stroke-linecap:butt;stroke-linejoin:miter;stroke-opacity:1;display:inline" />
    </g>
    <g
       style="display:inline"
       id="g26448"
       transform="matrix(1.232795,-0.102297,0.173477,1.274376,-63.58723,126.244)"
       inkscape:export-xdpi="90"
       inkscape:export-ydpi="90">
      <path
         sodipodi:nodetypes="ccssc"
         id="path26450"
         d="M 17.619727,13.156987 C 17.619727,13.156987 18.761396,10.029462 15.481493,7.6934039 C 14.990276,9.9137273 12.686156,9.4154374 12.532491,9.4362263 C 12.378825,9.4570148 13.265025,10.156332 12.642433,11.133403 C 12.019841,12.110472 14.095931,10.310856 17.619727,13.156987 z "
         style="fill:url(#linearGradient26512);fill-opacity:1;fill-rule:evenodd;stroke:black;stroke-width:0.31734136;stroke-linecap:round;stroke-linejoin:round;stroke-miterlimit:4;stroke-dasharray:none;stroke-opacity:1" />
      <path
         id="path26452"
         d="M 12.715596,9.5688085 C 12.715596,9.5688085 15.027522,9.8577993 17.59633,12.876148"
         style="fill:none;fill-opacity:0.75;fill-rule:evenodd;stroke:black;stroke-width:0.2;stroke-linecap:round;stroke-linejoin:round;stroke-miterlimit:4;stroke-dasharray:none;stroke-opacity:1" />
    </g>
    <path
       style="fill:#68a6c7;fill-opacity:1;fill-rule:evenodd;stroke:black;stroke-width:0.80000001;stroke-linecap:round;stroke-linejoin:round;stroke-miterlimit:4;stroke-dasharray:none;stroke-opacity:1;display:inline"
       d="M -68.889653,181.08743 C -71.591953,177.44276 -73.842763,177.40614 -73.853783,177.31214 C -73.853783,177.31214 -70.846423,180.44802 -71.742713,180.85078 C -74.164853,178.15731 -75.183883,178.68263 -75.278663,178.65378 C -75.345593,178.66101 -72.433423,180.75713 -73.340293,181.19483 C -75.514933,179.54261 -76.964753,179.94033 -76.883063,179.98588 C -76.858803,180.01307 -75.009343,181.16655 -74.787243,181.90627"
       id="path26454"
       sodipodi:nodetypes="ccccccs"
       inkscape:export-xdpi="90"
       inkscape:export-ydpi="90" />
    <path
       style="fill:url(#linearGradient26487);fill-opacity:1;fill-rule:evenodd;stroke:black;stroke-width:0.80000001;stroke-linecap:round;stroke-linejoin:round;stroke-miterlimit:4;stroke-dasharray:none;stroke-opacity:1;display:inline"
       d="M -110.0851,123.88928 C -121.04434,129.61013 -113.05618,146.47568 -108.89528,147.66486 C -109.02643,147.44042 -111.82116,142.5792 -111.61899,141.46998 C -110.65367,144.63303 -108.55643,144.7791 -108.56077,144.67869 C -110.43968,141.71521 -110.89239,140.84368 -111.08385,139.14789 C -110.09471,141.97267 -107.92071,142.14034 -108.1124,142.01076 C -109.57739,139.72791 -110.67123,136.65619 -110.30349,136.36123 C -109.57251,138.7676 -107.82153,139.63951 -107.77609,139.65257 C -107.96582,139.27119 -109.72653,135.88771 -109.48862,134.48868 C -108.93054,135.45001 -107.7279,136.57145 -107.50979,136.62705 C -108.67535,135.23485 -108.65047,132.92285 -108.65047,132.92285"
       id="path26456"
       sodipodi:nodetypes="ccccccccccc"
       inkscape:export-xdpi="90"
       inkscape:export-ydpi="90" />
    <g
       style="display:inline"
       id="g26514"
       transform="translate(-215.7098,157.6921)"
       inkscape:export-xdpi="90"
       inkscape:export-ydpi="90">
      <path
         style="fill:black;fill-opacity:1;fill-rule:nonzero;stroke:#0f0f0f;stroke-width:0;stroke-miterlimit:4;stroke-opacity:1"
         d="M 151.85308,22.673433 C 151.85308,24.036264 152.64467,25.072587 153.62003,24.986657 C 154.59539,24.900728 155.38698,23.724925 155.38698,22.362094 C 155.38698,20.999264 154.59539,19.962937 153.62003,20.048867 C 152.64467,20.134796 151.85308,21.310602 151.85308,22.673433 z "
         id="path26458" />
      <path
         style="fill:black;fill-opacity:1;fill-rule:nonzero;stroke:#0f0f0f;stroke-width:0;stroke-miterlimit:4;stroke-opacity:1"
         d="M 154.72345,22.714204 C 154.72345,23.662213 155.32856,24.378305 156.07415,24.312619 C 156.81973,24.246932 157.42484,23.42422 157.42484,22.476211 C 157.42484,21.528199 156.81973,20.81211 156.07415,20.877796 C 155.32856,20.943482 154.72345,21.766192 154.72345,22.714204 z "
         id="path26460" />
      <path
         style="fill:#f1c616;fill-opacity:1;fill-rule:nonzero;stroke:#0f0f0f;stroke-width:0;stroke-miterlimit:4;stroke-opacity:1"
         d="M 155.08722,22.73381 C 155.08722,23.439646 155.53503,23.973042 156.0868,23.92443 C 156.63857,23.875819 157.08638,23.263518 157.08638,22.557682 C 157.08638,21.851849 156.63857,21.318453 156.0868,21.367064 C 155.53503,21.415675 155.08722,22.027976 155.08722,22.73381 z "
         id="path26462" />
      <path
         style="fill:#f1c616;fill-opacity:1;fill-rule:nonzero;stroke:#0f0f0f;stroke-width:0;stroke-miterlimit:4;stroke-opacity:1"
         d="M 152.3631,22.807468 C 152.48348,23.886574 153.21436,24.62752 153.99454,24.461362 C 154.77471,24.295203 155.3102,23.284551 155.18982,22.205445 C 155.06944,21.126341 154.33855,20.385398 153.55838,20.551556 C 152.77821,20.717712 152.24272,21.728364 152.3631,22.807468 z "
         id="path26464" />
    </g>
    <path
       id="path26468"
       d="M -52.314773,180.42385 C -52.314773,180.87646 -51.922873,181.20928 -51.439993,181.16674 C -50.957113,181.1242 -50.565213,180.72233 -50.565213,180.26971 C -50.565213,179.81709 -50.957113,179.48427 -51.439993,179.52682 C -51.922873,179.56936 -52.314773,179.97123 -52.314773,180.42385 z "
       style="fill:black;fill-opacity:1;fill-rule:nonzero;stroke:#0f0f0f;stroke-width:0;stroke-miterlimit:4;stroke-opacity:1;display:inline"
       inkscape:export-xdpi="90"
       inkscape:export-ydpi="90" />
    <g
       style="display:inline"
       id="g1756"
       inkscape:export-xdpi="90"
       inkscape:export-ydpi="90"
       transform="translate(-233.6255,106.3278)">
      <path
         style="fill:black;fill-opacity:1;fill-rule:nonzero;stroke:#0f0f0f;stroke-width:0;stroke-miterlimit:4;stroke-opacity:1"
         d="M 193.09151,66.097177 C 193.09151,67.460008 193.8831,68.496331 194.85846,68.410401 C 195.83382,68.324472 196.62541,67.148669 196.62541,65.785838 C 196.62541,64.423008 195.83382,63.386681 194.85846,63.472611 C 193.8831,63.55854 193.09151,64.734346 193.09151,66.097177 z "
         id="path1687" />
      <path
         style="fill:black;fill-opacity:1;fill-rule:nonzero;stroke:#0f0f0f;stroke-width:0;stroke-miterlimit:4;stroke-opacity:1"
         d="M 195.96188,66.137948 C 195.96188,67.085957 196.56699,67.802049 197.31258,67.736363 C 198.05816,67.670676 198.66327,66.847964 198.66327,65.899955 C 198.66327,64.951943 198.05816,64.235854 197.31258,64.30154 C 196.56699,64.367226 195.96188,65.189936 195.96188,66.137948 z "
         id="path1689" />
      <path
         style="fill:#f1c616;fill-opacity:1;fill-rule:nonzero;stroke:#0f0f0f;stroke-width:0;stroke-miterlimit:4;stroke-opacity:1"
         d="M 196.32565,66.157554 C 196.32565,66.86339 196.77346,67.396786 197.32523,67.348175 C 197.877,67.299563 198.32481,66.687262 198.32481,65.981426 C 198.32481,65.275593 197.877,64.742197 197.32523,64.790808 C 196.77346,64.839419 196.32565,65.45172 196.32565,66.157554 z "
         id="path1691" />
      <path
         style="fill:#f1c616;fill-opacity:1;fill-rule:nonzero;stroke:#0f0f0f;stroke-width:0;stroke-miterlimit:4;stroke-opacity:1"
         d="M 193.60153,66.231212 C 193.72191,67.310318 194.45279,68.051264 195.23297,67.885106 C 196.01314,67.718947 196.54863,66.708295 196.42824,65.629189 C 196.30787,64.550085 195.57698,63.809142 194.79681,63.9753 C 194.01664,64.141456 193.48115,65.152108 193.60153,66.231212 z "
         id="path1693" />
      <path
         style="fill:black;fill-opacity:1;fill-rule:nonzero;stroke:#0f0f0f;stroke-width:0;stroke-miterlimit:4;stroke-opacity:1"
         d="M 194.44259,66.643709 C 194.44259,67.096328 194.83449,67.429147 195.31737,67.386605 C 195.80025,67.344063 196.19215,66.942191 196.19215,66.489573 C 196.19215,66.036954 195.80025,65.704137 195.31737,65.746679 C 194.83449,65.789221 194.44259,66.191091 194.44259,66.643709 z "
         id="path1696" />
      <path
         style="fill:black;fill-opacity:1;fill-rule:nonzero;stroke:#0f0f0f;stroke-width:0;stroke-miterlimit:4;stroke-opacity:1;display:inline"
         d="M 196.51042,66.47097 C 196.51042,66.923589 196.90232,67.256408 197.38521,67.213866 C 197.86808,67.171324 198.25998,66.769452 198.25998,66.316833 C 198.25998,65.864215 197.86808,65.531398 197.38521,65.57394 C 196.90232,65.616482 196.51042,66.018352 196.51042,66.47097 z "
         id="path1698" />
    </g>
  </g>
</svg>
