<?xml version="1.0" encoding="UTF-8" standalone="no"?>
<!-- Created with Inkscape (http://www.inkscape.org/) -->
<svg
   xmlns:dc="http://purl.org/dc/elements/1.1/"
   xmlns:cc="http://web.resource.org/cc/"
   xmlns:rdf="http://www.w3.org/1999/02/22-rdf-syntax-ns#"
   xmlns:svg="http://www.w3.org/2000/svg"
   xmlns="http://www.w3.org/2000/svg"
   xmlns:xlink="http://www.w3.org/1999/xlink"
   xmlns:sodipodi="http://sodipodi.sourceforge.net/DTD/sodipodi-0.dtd"
   xmlns:inkscape="http://www.inkscape.org/namespaces/inkscape"
   width="759.9353"
   height="354.97339"
   id="svg2"
   sodipodi:version="0.32"
   inkscape:version="0.44"
   sodipodi:docbase="/home/yekcim/Desktop/Stock_SVG"
   sodipodi:docname="iconesChargement_audio.svg"
   version="1.0">
  <defs
     id="defs4">
    <linearGradient
       id="linearGradient3148">
      <stop
         id="stop3150"
         offset="0"
         style="stop-color:#787878;stop-opacity:1;" />
      <stop
         id="stop3152"
         offset="1"
         style="stop-color:#343434;stop-opacity:1;" />
    </linearGradient>
    <linearGradient
       id="linearGradient2235">
      <stop
         style="stop-color:#787878;stop-opacity:1;"
         offset="0"
         id="stop2237" />
      <stop
         style="stop-color:#505050;stop-opacity:1;"
         offset="1"
         id="stop2239" />
    </linearGradient>
    <linearGradient
       id="linearGradient2210">
      <stop
         style="stop-color:#6c6c6c;stop-opacity:1;"
         offset="0"
         id="stop2212" />
      <stop
         style="stop-color:#484848;stop-opacity:1;"
         offset="1"
         id="stop2214" />
    </linearGradient>
    <linearGradient
       inkscape:collect="always"
       xlink:href="#linearGradient2210"
       id="linearGradient2216"
       x1="-125.87096"
       y1="316.6069"
       x2="-124.84283"
       y2="388.64764"
       gradientUnits="userSpaceOnUse" />
    <linearGradient
       inkscape:collect="always"
       xlink:href="#linearGradient2235"
       id="linearGradient2224"
       x1="-105.01237"
       y1="315.89554"
       x2="-105.2291"
       y2="370.28632"
       gradientUnits="userSpaceOnUse" />
    <linearGradient
       inkscape:collect="always"
       xlink:href="#linearGradient2235"
       id="linearGradient2241"
       x1="-94.159561"
       y1="398.53922"
       x2="-96.074463"
       y2="370.28632"
       gradientUnits="userSpaceOnUse" />
    <linearGradient
       inkscape:collect="always"
       xlink:href="#linearGradient2235"
       id="linearGradient2249"
       x1="-104.95153"
       y1="403.76831"
       x2="-105.2291"
       y2="370.28632"
       gradientUnits="userSpaceOnUse" />
    <linearGradient
       inkscape:collect="always"
       xlink:href="#linearGradient2235"
       id="linearGradient3130"
       x1="414.86868"
       y1="286.41736"
       x2="423.92999"
       y2="297.52905"
       gradientUnits="userSpaceOnUse" />
    <linearGradient
       inkscape:collect="always"
       xlink:href="#linearGradient2235"
       id="linearGradient3138"
       x1="463.57172"
       y1="286.60635"
       x2="470.94443"
       y2="302.78384"
       gradientUnits="userSpaceOnUse" />
    <linearGradient
       inkscape:collect="always"
       xlink:href="#linearGradient3148"
       id="linearGradient3146"
       x1="290.24893"
       y1="259.01886"
       x2="294.63718"
       y2="292.54886"
       gradientUnits="userSpaceOnUse" />
    <linearGradient
       inkscape:collect="always"
       xlink:href="#linearGradient3148"
       id="linearGradient3160"
       x1="645.25293"
       y1="253.90569"
       x2="654.41888"
       y2="302.74591"
       gradientUnits="userSpaceOnUse" />
  </defs>
  <sodipodi:namedview
     id="base"
     pagecolor="#ffffff"
     bordercolor="#666666"
     borderopacity="1.0"
     inkscape:pageopacity="0.0"
     inkscape:pageshadow="2"
     inkscape:zoom="0.55282277"
     inkscape:cx="389.25069"
     inkscape:cy="398.38636"
     inkscape:document-units="px"
     inkscape:current-layer="layer1"
     showguides="false"
     inkscape:guide-bbox="true"
     inkscape:window-width="1063"
     inkscape:window-height="788"
     inkscape:window-x="207"
     inkscape:window-y="82">
    <sodipodi:guide
       orientation="horizontal"
       position="847.57252"
       id="guide2229" />
    <sodipodi:guide
       orientation="horizontal"
       position="618.9384"
       id="guide2235" />
    <sodipodi:guide
       orientation="horizontal"
       position="636.1577"
       id="guide2237" />
  </sodipodi:namedview>
  <metadata
     id="metadata7">
    <rdf:RDF>
      <cc:Work
         rdf:about="">
        <dc:format>image/svg+xml</dc:format>
        <dc:type
           rdf:resource="http://purl.org/dc/dcmitype/StillImage" />
      </cc:Work>
    </rdf:RDF>
  </metadata>
  <g
     inkscape:label="Calque 1"
     inkscape:groupmode="layer"
     id="layer1"
     transform="translate(21.44086,-10.40598)">
    <path
       style="color:black;fill:black;fill-opacity:1;fill-rule:nonzero;stroke:black;stroke-width:60;stroke-linecap:butt;stroke-linejoin:miter;marker:none;marker-start:none;marker-mid:none;marker-end:none;stroke-miterlimit:4;stroke-dasharray:none;stroke-dashoffset:0;stroke-opacity:1;visibility:visible;display:inline;overflow:visible"
       d="M 488.83817,40.41062 C 473.50957,40.93505 454.63487,54.54734 446.11947,71.34812 L 397.80687,159.22312 L 387.71317,68.44187 C 387.96787,55.73754 376.36457,45.50437 361.71317,45.50437 L 231.58817,45.50437 C 228.3558,45.50437 224.90496,46.43999 221.61942,48.00437 C 221.60633,48.00913 221.60126,48.03085 221.58817,48.03562 C 221.55485,48.05155 221.52771,48.05082 221.49442,48.06687 C 209.20907,52.56616 195.62989,62.52904 187.02567,74.16062 L 16.150666,279.00437 C 4.407206,294.87979 6.523626,307.66062 20.869416,307.66062 L 146.11942,318.37937 C 146.26328,318.39727 146.41466,318.42512 146.55692,318.44187 L 146.96317,318.47312 C 147.94737,318.58236 148.91377,318.67161 149.80692,318.72312 L 149.99442,318.72312 C 150.0577,318.7265 150.11915,318.75129 150.18192,318.75437 L 150.71317,318.78562 C 150.76921,318.78562 150.84443,318.78601 150.90067,318.78562 C 150.91052,318.78593 150.92209,318.78532 150.93192,318.78562 C 150.97694,318.78525 151.01177,318.78624 151.05692,318.78562 C 151.06896,318.78594 151.07615,318.78531 151.08817,318.78562 C 151.13523,318.78492 151.19722,318.78659 151.24442,318.78562 C 151.25436,318.78584 151.26575,318.78541 151.27567,318.78562 C 151.32101,318.78463 151.3552,318.78686 151.40067,318.78562 C 151.42039,318.78597 151.44352,318.78531 151.46317,318.78562 C 151.51578,318.78404 151.56665,318.78752 151.61942,318.78562 C 151.7362,318.78686 151.84871,318.78562 151.96317,318.78562 L 152.71317,318.69187 C 152.73558,318.69016 152.75323,318.69364 152.77567,318.69187 L 153.08817,318.66062 C 153.54973,318.61911 154.02237,318.56875 154.49442,318.50437 L 154.55692,318.50437 C 154.61697,318.49607 154.68421,318.48179 154.74442,318.47312 L 154.93192,318.47312 C 154.99229,318.46409 155.02765,318.45126 155.08817,318.44187 L 319.93192,300.84812 L 317.96317,304.44187 C 309.27807,321.57731 314.75999,335.37937 330.24447,335.37937 L 480.40067,335.37937 C 482.27577,335.37937 484.21647,335.17163 486.18187,334.78562 C 487.96667,335.18103 489.81487,335.37937 491.71317,335.37937 L 680.11947,304.62937 C 695.60377,304.62937 708.25967,290.82728 708.49447,273.69187 L 673.46317,71.34812 C 673.69787,54.21271 661.41637,40.41063 645.93187,40.41062 L 629.90067,40.41062 L 489.74447,40.41062 C 489.44197,40.41062 489.14357,40.40017 488.83817,40.41062 z "
       id="path1345" />
    <path
       style="color:black;fill:url(#linearGradient3146);fill-opacity:1;fill-rule:nonzero;stroke:none;stroke-width:9.79868031;stroke-linecap:butt;stroke-linejoin:miter;marker:none;marker-start:none;marker-mid:none;marker-end:none;stroke-miterlimit:4;stroke-dashoffset:0;stroke-opacity:1;visibility:visible;display:inline;overflow:visible"
       d="M 233.56042,39.17238 L 363.70321,39.17238 C 378.35462,39.17238 389.94479,49.40006 389.69011,62.10439 L 412.21555,264.82312 C 411.96089,277.52745 399.96067,287.75513 385.30926,287.75513 L 153.96493,312.44675 C 139.31351,312.44675 105.4881,302.21907 105.74278,289.51474 L 206.65414,62.10439 C 206.90881,52.05892 221.56786,39.17238 233.56042,39.17238 z "
       id="rect1313"
       sodipodi:nodetypes="ccccccccc" />
    <path
       style="color:black;fill:#aeaeae;fill-opacity:1;fill-rule:nonzero;stroke:none;stroke-width:9.79868031;stroke-linecap:butt;stroke-linejoin:miter;marker:none;marker-start:none;marker-mid:none;marker-end:none;stroke-miterlimit:4;stroke-dashoffset:0;stroke-opacity:1;visibility:visible;display:inline;overflow:visible"
       d="M 236.11083,39.17227 L 354.8571,39.17227 C 369.20288,39.17227 371.29791,51.95284 359.55444,67.82824 L 199.80124,283.79073 C 188.05778,299.66614 167.05452,312.44671 152.70872,312.44671 L 22.844824,301.32908 C 8.4990339,301.32908 6.4040239,288.54852 18.147484,272.6731 L 189.01831,67.82824 C 200.76178,51.95284 221.76503,39.17227 236.11083,39.17227 z "
       id="rect1309"
       sodipodi:nodetypes="ccccccccc" />
    <path
       style="color:black;fill:#868686;fill-opacity:1;fill-rule:nonzero;stroke:none;stroke-width:9.79868031;stroke-linecap:butt;stroke-linejoin:miter;marker:none;marker-start:none;marker-mid:none;marker-end:none;stroke-miterlimit:4;stroke-dashoffset:0;stroke-opacity:1;visibility:visible;display:inline;overflow:visible"
       d="M 237.67506,49.417 L 338.37728,49.417 C 351.68612,49.417 355.25387,59.13033 346.37671,71.19576 L 222.57569,239.46058 C 213.69854,251.52602 195.8376,261.23936 182.52875,261.23936 L 70.708904,253.8276 C 57.400064,253.8276 53.832324,244.11428 62.709484,232.04884 L 197.62813,71.19576 C 206.50529,59.13033 224.36622,49.417 237.67506,49.417 z "
       id="rect2188"
       sodipodi:nodetypes="ccccccccc" />
    <path
       style="color:black;fill:url(#linearGradient3160);fill-opacity:1;fill-rule:nonzero;stroke:none;stroke-width:9.79868031;stroke-linecap:butt;stroke-linejoin:miter;marker:none;marker-start:none;marker-mid:none;marker-end:none;stroke-miterlimit:4;stroke-dashoffset:0;stroke-opacity:1;visibility:visible;display:inline;overflow:visible"
       d="M 497.74224,34.067868 L 647.91308,34.067868 C 663.39746,34.067868 675.67426,47.862801 675.43953,64.99821 L 710.49475,267.36307 C 710.26003,284.49848 697.6053,298.29341 682.12092,298.29341 L 493.70178,329.03165 C 478.21741,329.03165 465.94061,315.23672 466.17533,298.10131 L 469.36841,64.99821 C 469.60314,47.862801 482.25787,34.067868 497.74224,34.067868 z "
       id="rect1311"
       sodipodi:nodetypes="ccccccccc" />
    <path
       style="color:black;fill:#a9a9a9;fill-opacity:1;fill-rule:nonzero;stroke:none;stroke-width:9.79868031;stroke-linecap:butt;stroke-linejoin:miter;marker:none;marker-start:none;marker-mid:none;marker-end:none;stroke-miterlimit:4;stroke-dashoffset:0;stroke-opacity:1;visibility:visible;display:inline;overflow:visible"
       d="M 491.72209,34.068175 L 631.89293,34.068175 C 647.3773,34.068175 652.85111,47.863133 644.16602,64.998582 L 526.01768,298.10227 C 517.3326,315.23771 497.87487,329.03267 482.3905,329.03267 L 332.21966,329.03267 C 316.73528,329.03267 311.26148,315.23771 319.94656,298.10227 L 448.0949,64.998582 C 456.77999,47.863133 476.23771,34.068175 491.72209,34.068175 z "
       id="rect1307"
       sodipodi:nodetypes="ccccccccc" />
    <path
       style="color:black;fill:#868686;fill-opacity:1;fill-rule:nonzero;stroke:none;stroke-width:9.79868031;stroke-linecap:butt;stroke-linejoin:miter;marker:none;marker-start:none;marker-mid:none;marker-end:none;stroke-miterlimit:4;stroke-dashoffset:0;stroke-opacity:1;visibility:visible;display:inline;overflow:visible"
       d="M 497.78287,46.189985 L 614.26351,46.189985 C 629.74789,46.189985 637.50519,55.479665 631.65656,67.018858 L 537.06003,253.65542 C 531.2114,265.19461 514.03717,274.48429 498.55279,274.48429 L 372.07215,274.48429 C 356.58777,274.48429 348.83048,265.19461 354.67911,253.65542 L 459.27564,67.018858 C 465.12427,55.479665 482.29849,46.189985 497.78287,46.189985 z "
       id="rect2220"
       sodipodi:nodetypes="ccccccccc" />
    <rect
       style="opacity:1;color:black;fill:url(#linearGradient3138);fill-opacity:1;fill-rule:nonzero;stroke:none;stroke-width:9.79868031;stroke-linecap:butt;stroke-linejoin:miter;marker:none;marker-start:none;marker-mid:none;marker-end:none;stroke-miterlimit:4;stroke-dasharray:none;stroke-dashoffset:0;stroke-opacity:1;visibility:visible;display:inline;overflow:visible"
       id="rect2222"
       width="38.385818"
       height="22.223379"
       x="451.75153"
       y="286.60635"
       rx="13.808006"
       ry="10.101525" />
    <rect
       style="opacity:1;color:black;fill:url(#linearGradient3130);fill-opacity:1;fill-rule:nonzero;stroke:none;stroke-width:9.79868031;stroke-linecap:butt;stroke-linejoin:miter;marker:none;marker-start:none;marker-mid:none;marker-end:none;stroke-miterlimit:4;stroke-dasharray:none;stroke-dashoffset:0;stroke-opacity:1;visibility:visible;display:inline;overflow:visible"
       id="rect2224"
       width="38.385818"
       height="22.223379"
       x="404.73709"
       y="286.41736"
       rx="13.808006"
       ry="10.101525" />
    <path
       sodipodi:type="arc"
       style="opacity:1;color:black;fill:#444;fill-opacity:1;fill-rule:nonzero;stroke:none;stroke-width:9.79868031;stroke-linecap:butt;stroke-linejoin:miter;marker:none;marker-start:none;marker-mid:none;marker-end:none;stroke-miterlimit:4;stroke-dasharray:none;stroke-dashoffset:0;stroke-opacity:1;visibility:visible;display:inline;overflow:visible"
       id="path2231"
       sodipodi:cx="-105.2291"
       sodipodi:cy="370.28632"
       sodipodi:rx="45.918148"
       sodipodi:ry="33.481983"
       d="M -59.310955 370.28632 A 45.918148 33.481983 0 1 1  -151.14725,370.28632 A 45.918148 33.481983 0 1 1  -59.310955 370.28632 z"
       transform="matrix(1.380052,0,-0.741177,1.45588,591.8841,-342.5518)" />
    <path
       sodipodi:type="arc"
       style="opacity:1;color:black;fill:#404040;fill-opacity:1;fill-rule:nonzero;stroke:none;stroke-width:9.79868031;stroke-linecap:butt;stroke-linejoin:miter;marker:none;marker-start:none;marker-mid:none;marker-end:none;stroke-miterlimit:4;stroke-dasharray:none;stroke-dashoffset:0;stroke-opacity:1;visibility:visible;display:inline;overflow:visible"
       id="path2233"
       sodipodi:cx="-105.2291"
       sodipodi:cy="370.28632"
       sodipodi:rx="45.918148"
       sodipodi:ry="33.481983"
       d="M -59.310955 370.28632 A 45.918148 33.481983 0 1 1  -151.14725,370.28632 A 45.918148 33.481983 0 1 1  -59.310955 370.28632 z"
       transform="matrix(1.489583,0,-0.600002,1.571429,846.7385,-377.953)" />
    <path
       sodipodi:type="arc"
       style="opacity:1;color:black;fill:#4a4a4a;fill-opacity:1;fill-rule:nonzero;stroke:none;stroke-width:9.79868031;stroke-linecap:butt;stroke-linejoin:miter;marker:none;marker-start:none;marker-mid:none;marker-end:none;stroke-miterlimit:4;stroke-dasharray:none;stroke-dashoffset:0;stroke-opacity:1;visibility:visible;display:inline;overflow:visible"
       id="path2239"
       sodipodi:cx="-105.2291"
       sodipodi:cy="370.28632"
       sodipodi:rx="45.918148"
       sodipodi:ry="33.481983"
       d="M -59.310955 370.28632 A 45.918148 33.481983 0 1 1  -151.14725,370.28632 A 45.918148 33.481983 0 1 1  -59.310955 370.28632 z"
       transform="matrix(0.89375,0,-0.360001,0.942858,748.7419,-251.3875)" />
    <path
       sodipodi:type="arc"
       style="opacity:1;color:black;fill:#4a4a4a;fill-opacity:1;fill-rule:nonzero;stroke:none;stroke-width:9.79868031;stroke-linecap:butt;stroke-linejoin:miter;marker:none;marker-start:none;marker-mid:none;marker-end:none;stroke-miterlimit:4;stroke-dasharray:none;stroke-dashoffset:0;stroke-opacity:1;visibility:visible;display:inline;overflow:visible"
       id="path2241"
       sodipodi:cx="-105.2291"
       sodipodi:cy="370.28632"
       sodipodi:rx="45.918148"
       sodipodi:ry="33.481983"
       d="M -59.310955 370.28632 A 45.918148 33.481983 0 1 1  -151.14725,370.28632 A 45.918148 33.481983 0 1 1  -59.310955 370.28632 z"
       transform="matrix(0.828031,0,-0.33353,0.873528,459.8344,-223.4961)" />
    <path
       style="opacity:1;color:black;fill:#414141;fill-opacity:1;fill-rule:nonzero;stroke:none;stroke-width:9.79868031;stroke-linecap:butt;stroke-linejoin:miter;marker:none;marker-start:none;marker-mid:none;marker-end:none;stroke-miterlimit:4;stroke-dasharray:none;stroke-dashoffset:0;stroke-opacity:1;visibility:visible;display:inline;overflow:visible"
       d="M 260.11588,70.709473 C 239.20201,70.811286 217.31862,83.877946 211.17838,99.959473 C 205.11038,115.85181 216.67111,128.80883 237.05338,129.20947 C 222.15555,126.02002 214.51061,114.3228 219.58463,100.39697 C 225.21586,84.941862 244.50909,72.216993 263.74088,70.834473 C 262.64819,70.757744 261.51366,70.709473 260.36588,70.709473 C 260.2839,70.709473 260.1979,70.709074 260.11588,70.709473 z "
       id="path2264" />
    <path
       style="opacity:1;color:black;fill:#414141;fill-opacity:1;fill-rule:nonzero;stroke:none;stroke-width:9.79868031;stroke-linecap:butt;stroke-linejoin:miter;marker:none;marker-start:none;marker-mid:none;marker-end:none;stroke-miterlimit:4;stroke-dasharray:none;stroke-dashoffset:0;stroke-opacity:1;visibility:visible;display:inline;overflow:visible"
       d="M 530.15207,67.364649 C 508.58635,67.47234 486.02089,81.293334 479.68927,98.303246 C 473.43214,115.11304 485.3532,128.81808 506.37075,129.24184 C 491.00858,125.86827 483.12536,113.49577 488.35753,98.766002 C 494.16428,82.41867 514.05884,68.959197 533.89005,67.496865 C 532.7633,67.415706 531.59341,67.364649 530.40986,67.364649 C 530.32532,67.364649 530.23664,67.364228 530.15207,67.364649 z "
       id="path2271" />
    <path
       sodipodi:type="arc"
       style="opacity:1;color:black;fill:url(#linearGradient2241);fill-opacity:1;fill-rule:nonzero;stroke:none;stroke-width:9.79868031;stroke-linecap:butt;stroke-linejoin:miter;marker:none;marker-start:none;marker-mid:none;marker-end:none;stroke-miterlimit:4;stroke-dasharray:none;stroke-dashoffset:0;stroke-opacity:1;visibility:visible;display:inline;overflow:visible"
       id="path1329"
       sodipodi:cx="-105.2291"
       sodipodi:cy="370.28632"
       sodipodi:rx="45.918148"
       sodipodi:ry="33.481983"
       d="M -59.310955 370.28632 A 45.918148 33.481983 0 1 1  -151.14725,370.28632 A 45.918148 33.481983 0 1 1  -59.310955 370.28632 z"
       transform="matrix(1.337257,0,-0.718193,1.367622,583.5365,-307.2148)" />
    <path
       sodipodi:type="arc"
       style="opacity:1;color:black;fill:url(#linearGradient2249);fill-opacity:1;fill-rule:nonzero;stroke:none;stroke-width:9.79868031;stroke-linecap:butt;stroke-linejoin:miter;marker:none;marker-start:none;marker-mid:none;marker-end:none;stroke-miterlimit:4;stroke-dasharray:none;stroke-dashoffset:0;stroke-opacity:1;visibility:visible;display:inline;overflow:visible"
       id="path2204"
       sodipodi:cx="-105.2291"
       sodipodi:cy="370.28632"
       sodipodi:rx="45.918148"
       sodipodi:ry="33.481983"
       d="M -59.310955 370.28632 A 45.918148 33.481983 0 1 1  -151.14725,370.28632 A 45.918148 33.481983 0 1 1  -59.310955 370.28632 z"
       transform="matrix(1.445488,0,-0.58224,1.470563,840.0889,-337.2215)" />
    <path
       sodipodi:type="arc"
       style="opacity:1;color:black;fill:url(#linearGradient2224);fill-opacity:1;fill-rule:nonzero;stroke:none;stroke-width:9.79868031;stroke-linecap:butt;stroke-linejoin:miter;marker:none;marker-start:none;marker-mid:none;marker-end:none;stroke-miterlimit:4;stroke-dasharray:none;stroke-dashoffset:0;stroke-opacity:1;visibility:visible;display:inline;overflow:visible"
       id="path2206"
       sodipodi:cx="-105.2291"
       sodipodi:cy="370.28632"
       sodipodi:rx="45.918148"
       sodipodi:ry="33.481983"
       d="M -59.310955 370.28632 A 45.918148 33.481983 0 1 1  -151.14725,370.28632 A 45.918148 33.481983 0 1 1  -59.310955 370.28632 z"
       transform="matrix(0.572399,0,-0.230562,0.524942,617.1482,14.10526)" />
    <path
       sodipodi:type="arc"
       style="opacity:1;color:black;fill:url(#linearGradient2216);fill-opacity:1;fill-rule:nonzero;stroke:none;stroke-width:9.79868031;stroke-linecap:butt;stroke-linejoin:miter;marker:none;marker-start:none;marker-mid:none;marker-end:none;stroke-miterlimit:4;stroke-dasharray:none;stroke-dashoffset:0;stroke-opacity:1;visibility:visible;display:inline;overflow:visible"
       id="path2208"
       sodipodi:cx="-105.2291"
       sodipodi:cy="370.28632"
       sodipodi:rx="45.918148"
       sodipodi:ry="33.481983"
       d="M -59.310955 370.28632 A 45.918148 33.481983 0 1 1  -151.14725,370.28632 A 45.918148 33.481983 0 1 1  -59.310955 370.28632 z"
       transform="matrix(0.515604,0,-0.276913,0.459826,334.9411,31.04044)" />
  </g>
</svg>
