<?xml version="1.0" encoding="UTF-8" standalone="no"?>
<!-- Created with Inkscape (http://www.inkscape.org/) -->
<svg
   xmlns:dc="http://purl.org/dc/elements/1.1/"
   xmlns:cc="http://web.resource.org/cc/"
   xmlns:rdf="http://www.w3.org/1999/02/22-rdf-syntax-ns#"
   xmlns:svg="http://www.w3.org/2000/svg"
   xmlns="http://www.w3.org/2000/svg"
   xmlns:xlink="http://www.w3.org/1999/xlink"
   xmlns:sodipodi="http://sodipodi.sourceforge.net/DTD/sodipodi-0.dtd"
   xmlns:inkscape="http://www.inkscape.org/namespaces/inkscape"
   width="268.66843"
   height="257.2803"
   id="svg2"
   sodipodi:version="0.32"
   inkscape:version="0.44"
   sodipodi:docbase="/home/yekcim/Desktop/Stock_SVG"
   sodipodi:docname="iconesChargement_armes.svg"
   version="1.0">
  <defs
     id="defs4">
    <linearGradient
       id="linearGradient6840">
      <stop
         style="stop-color:#ffffff;stop-opacity:1;"
         offset="0"
         id="stop6842" />
      <stop
         style="stop-color:#ffffff;stop-opacity:0;"
         offset="1"
         id="stop6844" />
    </linearGradient>
    <linearGradient
       inkscape:collect="always"
       xlink:href="#linearGradient2515"
       id="linearGradient5569"
       gradientUnits="userSpaceOnUse"
       gradientTransform="matrix(1.211894,-0.930205,0.990722,1.290738,-1236.537,400.5879)"
       x1="985.78931"
       y1="621.25568"
       x2="1011.4193"
       y2="660.35217" />
    <linearGradient
       id="linearGradient2692">
      <stop
         style="stop-color:#9dbd87;stop-opacity:1;"
         offset="0"
         id="stop2694" />
      <stop
         id="stop2700"
         offset="0.27336448"
         style="stop-color:#4d7531;stop-opacity:1;" />
      <stop
         style="stop-color:#4a6c32;stop-opacity:1;"
         offset="0.75"
         id="stop2702" />
      <stop
         style="stop-color:#27381b;stop-opacity:1;"
         offset="1"
         id="stop2696" />
    </linearGradient>
    <radialGradient
       inkscape:collect="always"
       xlink:href="#linearGradient2692"
       id="radialGradient5567"
       gradientUnits="userSpaceOnUse"
       gradientTransform="matrix(1.041124,-7.731054e-3,1.226509e-2,1.45609,-48.23281,-291.8134)"
       cx="977.37177"
       cy="653.18262"
       fx="977.37177"
       fy="653.18262"
       r="26.809002" />
    <linearGradient
       inkscape:collect="always"
       xlink:href="#linearGradient2515"
       id="linearGradient5565"
       gradientUnits="userSpaceOnUse"
       gradientTransform="matrix(1.527733,0,0,1.480246,-1219.688,-343.271)"
       x1="959.53882"
       y1="630.16101"
       x2="985.23077"
       y2="630.16101" />
    <linearGradient
       id="linearGradient2515">
      <stop
         style="stop-color:#777777;stop-opacity:1;"
         offset="0"
         id="stop2517" />
      <stop
         id="stop2523"
         offset="0.5"
         style="stop-color:#ebebeb;stop-opacity:1;" />
      <stop
         style="stop-color:#cbcbcb;stop-opacity:1;"
         offset="1"
         id="stop2519" />
    </linearGradient>
    <linearGradient
       inkscape:collect="always"
       xlink:href="#linearGradient2515"
       id="linearGradient5563"
       gradientUnits="userSpaceOnUse"
       gradientTransform="matrix(1.564244,0,0,1.592055,-748.0842,-1103.226)"
       x1="381.65939"
       y1="1072.2004"
       x2="395.62241"
       y2="1072.2004" />
    <linearGradient
       id="linearGradient2237">
      <stop
         style="stop-color:#878787;stop-opacity:1;"
         offset="0"
         id="stop2239" />
      <stop
         style="stop-color:#000000;stop-opacity:1;"
         offset="1"
         id="stop2241" />
    </linearGradient>
    <linearGradient
       id="linearGradient2229">
      <stop
         id="stop2231"
         offset="0"
         style="stop-color:#000000;stop-opacity:1;" />
      <stop
         id="stop2233"
         offset="1"
         style="stop-color:#000000;stop-opacity:0;" />
    </linearGradient>
    <linearGradient
       inkscape:collect="always"
       xlink:href="#linearGradient2229"
       id="linearGradient2219"
       x1="338.31308"
       y1="264.96851"
       x2="338.31308"
       y2="315.62958"
       gradientUnits="userSpaceOnUse" />
    <linearGradient
       inkscape:collect="always"
       xlink:href="#linearGradient2229"
       id="linearGradient2221"
       x1="349.47568"
       y1="319.92291"
       x2="347.75833"
       y2="355.98672"
       gradientUnits="userSpaceOnUse" />
    <linearGradient
       inkscape:collect="always"
       xlink:href="#linearGradient2229"
       id="linearGradient2223"
       x1="261.89209"
       y1="275.27243"
       x2="411.29938"
       y2="331.94418"
       gradientUnits="userSpaceOnUse" />
    <linearGradient
       inkscape:collect="always"
       xlink:href="#linearGradient2229"
       id="linearGradient2225"
       x1="352.91034"
       y1="356.84546"
       x2="351.19299"
       y2="381.74661"
       gradientUnits="userSpaceOnUse" />
    <linearGradient
       inkscape:collect="always"
       xlink:href="#linearGradient2229"
       id="linearGradient2227"
       x1="339.17175"
       y1="287.29373"
       x2="339.17175"
       y2="229.76334"
       gradientUnits="userSpaceOnUse" />
    <linearGradient
       inkscape:collect="always"
       xlink:href="#linearGradient2237"
       id="linearGradient2243"
       x1="338.57141"
       y1="267.7269"
       x2="323.81461"
       y2="489.26187"
       gradientUnits="userSpaceOnUse" />
    <linearGradient
       inkscape:collect="always"
       xlink:href="#linearGradient2237"
       id="linearGradient2279"
       gradientUnits="userSpaceOnUse"
       x1="338.57141"
       y1="267.7269"
       x2="323.81461"
       y2="489.26187"
       gradientTransform="translate(349.5472,216.8539)" />
    <linearGradient
       inkscape:collect="always"
       xlink:href="#linearGradient2229"
       id="linearGradient2281"
       gradientUnits="userSpaceOnUse"
       x1="339.17175"
       y1="287.29373"
       x2="339.17175"
       y2="229.76334"
       gradientTransform="translate(349.5472,216.8539)" />
    <linearGradient
       inkscape:collect="always"
       xlink:href="#linearGradient2229"
       id="linearGradient2283"
       gradientUnits="userSpaceOnUse"
       x1="352.91034"
       y1="356.84546"
       x2="351.19299"
       y2="381.74661"
       gradientTransform="translate(349.5472,216.8539)" />
    <linearGradient
       inkscape:collect="always"
       xlink:href="#linearGradient2229"
       id="linearGradient2285"
       gradientUnits="userSpaceOnUse"
       x1="261.89209"
       y1="275.27243"
       x2="411.29938"
       y2="331.94418"
       gradientTransform="translate(349.5472,216.8539)" />
    <linearGradient
       inkscape:collect="always"
       xlink:href="#linearGradient2229"
       id="linearGradient2287"
       gradientUnits="userSpaceOnUse"
       x1="349.47568"
       y1="319.92291"
       x2="347.75833"
       y2="355.98672"
       gradientTransform="translate(349.5472,216.8539)" />
    <linearGradient
       inkscape:collect="always"
       xlink:href="#linearGradient2229"
       id="linearGradient2289"
       gradientUnits="userSpaceOnUse"
       x1="338.31308"
       y1="264.96851"
       x2="338.31308"
       y2="315.62958"
       gradientTransform="translate(349.5472,216.8539)" />
    <linearGradient
       inkscape:collect="always"
       xlink:href="#linearGradient2237"
       id="linearGradient2325"
       gradientUnits="userSpaceOnUse"
       x1="338.57141"
       y1="267.7269"
       x2="323.81461"
       y2="489.26187" />
    <linearGradient
       inkscape:collect="always"
       xlink:href="#linearGradient2229"
       id="linearGradient2327"
       gradientUnits="userSpaceOnUse"
       x1="339.17175"
       y1="287.29373"
       x2="339.17175"
       y2="229.76334" />
    <linearGradient
       inkscape:collect="always"
       xlink:href="#linearGradient2229"
       id="linearGradient2329"
       gradientUnits="userSpaceOnUse"
       x1="352.91034"
       y1="356.84546"
       x2="351.19299"
       y2="381.74661" />
    <linearGradient
       inkscape:collect="always"
       xlink:href="#linearGradient2229"
       id="linearGradient2331"
       gradientUnits="userSpaceOnUse"
       x1="261.89209"
       y1="275.27243"
       x2="411.29938"
       y2="331.94418" />
    <linearGradient
       inkscape:collect="always"
       xlink:href="#linearGradient2229"
       id="linearGradient2333"
       gradientUnits="userSpaceOnUse"
       x1="349.47568"
       y1="319.92291"
       x2="347.75833"
       y2="355.98672" />
    <linearGradient
       inkscape:collect="always"
       xlink:href="#linearGradient2229"
       id="linearGradient2335"
       gradientUnits="userSpaceOnUse"
       x1="338.31308"
       y1="264.96851"
       x2="338.31308"
       y2="315.62958" />
    <linearGradient
       inkscape:collect="always"
       xlink:href="#linearGradient2237"
       id="linearGradient6752"
       gradientUnits="userSpaceOnUse"
       x1="338.57141"
       y1="267.7269"
       x2="323.81461"
       y2="489.26187" />
    <linearGradient
       inkscape:collect="always"
       xlink:href="#linearGradient2229"
       id="linearGradient6754"
       gradientUnits="userSpaceOnUse"
       x1="339.17175"
       y1="287.29373"
       x2="339.17175"
       y2="229.76334" />
    <linearGradient
       inkscape:collect="always"
       xlink:href="#linearGradient2229"
       id="linearGradient6756"
       gradientUnits="userSpaceOnUse"
       x1="352.91034"
       y1="356.84546"
       x2="351.19299"
       y2="381.74661" />
    <linearGradient
       inkscape:collect="always"
       xlink:href="#linearGradient2229"
       id="linearGradient6758"
       gradientUnits="userSpaceOnUse"
       x1="261.89209"
       y1="275.27243"
       x2="411.29938"
       y2="331.94418" />
    <linearGradient
       inkscape:collect="always"
       xlink:href="#linearGradient2229"
       id="linearGradient6760"
       gradientUnits="userSpaceOnUse"
       x1="349.47568"
       y1="319.92291"
       x2="347.75833"
       y2="355.98672" />
    <linearGradient
       inkscape:collect="always"
       xlink:href="#linearGradient2229"
       id="linearGradient6762"
       gradientUnits="userSpaceOnUse"
       x1="338.31308"
       y1="264.96851"
       x2="338.31308"
       y2="315.62958" />
    <linearGradient
       inkscape:collect="always"
       xlink:href="#linearGradient2229"
       id="linearGradient6767"
       gradientUnits="userSpaceOnUse"
       x1="338.31308"
       y1="264.96851"
       x2="338.31308"
       y2="315.62958"
       gradientTransform="matrix(0.49862,0,0,0.49862,-59.99488,201.5506)" />
    <linearGradient
       inkscape:collect="always"
       xlink:href="#linearGradient2229"
       id="linearGradient6770"
       gradientUnits="userSpaceOnUse"
       x1="349.47568"
       y1="319.92291"
       x2="347.75833"
       y2="355.98672"
       gradientTransform="matrix(0.49862,0,0,0.49862,-59.99488,201.5506)" />
    <linearGradient
       inkscape:collect="always"
       xlink:href="#linearGradient2229"
       id="linearGradient6773"
       gradientUnits="userSpaceOnUse"
       x1="261.89209"
       y1="275.27243"
       x2="411.29938"
       y2="331.94418"
       gradientTransform="matrix(0.49862,0,0,0.49862,-59.99488,201.5506)" />
    <linearGradient
       inkscape:collect="always"
       xlink:href="#linearGradient2229"
       id="linearGradient6776"
       gradientUnits="userSpaceOnUse"
       x1="352.91034"
       y1="356.84546"
       x2="351.19299"
       y2="381.74661"
       gradientTransform="matrix(0.49862,0,0,0.49862,-59.99488,201.5506)" />
    <linearGradient
       inkscape:collect="always"
       xlink:href="#linearGradient2229"
       id="linearGradient6779"
       gradientUnits="userSpaceOnUse"
       x1="339.17175"
       y1="287.29373"
       x2="339.17175"
       y2="229.76334"
       gradientTransform="matrix(0.49862,0,0,0.49862,-59.99488,201.5506)" />
    <linearGradient
       inkscape:collect="always"
       xlink:href="#linearGradient2237"
       id="linearGradient6782"
       gradientUnits="userSpaceOnUse"
       x1="338.57141"
       y1="267.7269"
       x2="323.81461"
       y2="489.26187"
       gradientTransform="matrix(1.141774,0,0,0.493014,-322.3066,202.8372)" />
    <linearGradient
       inkscape:collect="always"
       xlink:href="#linearGradient2237"
       id="linearGradient6795"
       gradientUnits="userSpaceOnUse"
       gradientTransform="matrix(0.14234,0,0,0.195907,70.7212,443.5783)"
       x1="338.57141"
       y1="267.7269"
       x2="323.81461"
       y2="489.26187" />
    <linearGradient
       inkscape:collect="always"
       xlink:href="#linearGradient2229"
       id="linearGradient6812"
       x1="133.1973"
       y1="333.38351"
       x2="132.68144"
       y2="319.13574"
       gradientUnits="userSpaceOnUse"
       gradientTransform="translate(153.061,165.7423)" />
    <linearGradient
       inkscape:collect="always"
       xlink:href="#linearGradient2237"
       id="linearGradient6817"
       gradientUnits="userSpaceOnUse"
       gradientTransform="matrix(1.141774,0,0,0.493014,-167.5799,367.7467)"
       x1="338.57141"
       y1="267.7269"
       x2="323.81461"
       y2="489.26187" />
    <linearGradient
       inkscape:collect="always"
       xlink:href="#linearGradient6840"
       id="linearGradient6838"
       gradientUnits="userSpaceOnUse"
       gradientTransform="matrix(1,0,0,1.120084,153.1723,128.8048)"
       x1="133.82056"
       y1="328.81091"
       x2="133.82056"
       y2="328.12009" />
    <linearGradient
       inkscape:collect="always"
       xlink:href="#linearGradient2237"
       id="linearGradient6878"
       gradientUnits="userSpaceOnUse"
       gradientTransform="matrix(0.14234,0,0,0.195907,349.2469,347.9998)"
       x1="338.57141"
       y1="267.7269"
       x2="323.81461"
       y2="489.26187" />
    <linearGradient
       inkscape:collect="always"
       xlink:href="#linearGradient2237"
       id="linearGradient6880"
       gradientUnits="userSpaceOnUse"
       gradientTransform="matrix(1.141774,0,0,0.493014,110.9458,272.1682)"
       x1="338.57141"
       y1="267.7269"
       x2="323.81461"
       y2="489.26187" />
    <linearGradient
       inkscape:collect="always"
       xlink:href="#linearGradient6840"
       id="linearGradient6882"
       gradientUnits="userSpaceOnUse"
       gradientTransform="matrix(1,0,0,1.120084,431.698,33.22633)"
       x1="133.82056"
       y1="328.81091"
       x2="133.82056"
       y2="328.12009" />
    <linearGradient
       inkscape:collect="always"
       xlink:href="#linearGradient2229"
       id="linearGradient6884"
       gradientUnits="userSpaceOnUse"
       gradientTransform="translate(431.5867,70.1639)"
       x1="133.1973"
       y1="333.38351"
       x2="132.68144"
       y2="319.13574" />
    <linearGradient
       inkscape:collect="always"
       xlink:href="#linearGradient2515"
       id="linearGradient6957"
       gradientUnits="userSpaceOnUse"
       gradientTransform="matrix(1.211894,-0.930205,0.990722,1.290738,-1236.537,400.5879)"
       x1="985.78931"
       y1="621.25568"
       x2="1011.4193"
       y2="660.35217" />
    <radialGradient
       inkscape:collect="always"
       xlink:href="#linearGradient2692"
       id="radialGradient6959"
       gradientUnits="userSpaceOnUse"
       gradientTransform="matrix(1.041124,-7.731054e-3,1.226509e-2,1.45609,-48.23281,-291.8134)"
       cx="977.37177"
       cy="653.18262"
       fx="977.37177"
       fy="653.18262"
       r="26.809002" />
    <linearGradient
       inkscape:collect="always"
       xlink:href="#linearGradient2515"
       id="linearGradient6961"
       gradientUnits="userSpaceOnUse"
       gradientTransform="matrix(1.527733,0,0,1.480246,-1219.688,-343.271)"
       x1="959.53882"
       y1="630.16101"
       x2="985.23077"
       y2="630.16101" />
    <linearGradient
       inkscape:collect="always"
       xlink:href="#linearGradient2515"
       id="linearGradient6963"
       gradientUnits="userSpaceOnUse"
       gradientTransform="matrix(1.564244,0,0,1.592055,-748.0842,-1103.226)"
       x1="381.65939"
       y1="1072.2004"
       x2="395.62241"
       y2="1072.2004" />
    <linearGradient
       inkscape:collect="always"
       xlink:href="#linearGradient2515"
       id="linearGradient6967"
       gradientUnits="userSpaceOnUse"
       gradientTransform="matrix(1.564244,0,0,1.592056,-580.0727,-1103.681)"
       x1="381.65939"
       y1="1072.2004"
       x2="395.62241"
       y2="1072.2004" />
    <linearGradient
       inkscape:collect="always"
       xlink:href="#linearGradient2515"
       id="linearGradient6974"
       gradientUnits="userSpaceOnUse"
       gradientTransform="matrix(1.527733,0,0,1.480246,-1088.677,-448.502)"
       x1="959.53882"
       y1="630.16101"
       x2="985.23077"
       y2="630.16101" />
    <linearGradient
       inkscape:collect="always"
       xlink:href="#linearGradient2515"
       id="linearGradient6978"
       gradientUnits="userSpaceOnUse"
       gradientTransform="matrix(1.211894,-0.930205,0.990722,1.290738,-1196.684,237.3425)"
       x1="985.78931"
       y1="621.25568"
       x2="1011.4193"
       y2="660.35217" />
    <linearGradient
       inkscape:collect="always"
       xlink:href="#linearGradient2237"
       id="linearGradient7027"
       gradientUnits="userSpaceOnUse"
       gradientTransform="matrix(0.14234,0,0,0.195907,210.994,-30.01862)"
       x1="338.57141"
       y1="267.7269"
       x2="323.81461"
       y2="489.26187" />
    <linearGradient
       inkscape:collect="always"
       xlink:href="#linearGradient2237"
       id="linearGradient7029"
       gradientUnits="userSpaceOnUse"
       gradientTransform="matrix(1.141774,0,0,0.493014,-27.30698,-105.8503)"
       x1="338.57141"
       y1="267.7269"
       x2="323.81461"
       y2="489.26187" />
    <linearGradient
       inkscape:collect="always"
       xlink:href="#linearGradient6840"
       id="linearGradient7031"
       gradientUnits="userSpaceOnUse"
       gradientTransform="matrix(1,0,0,1.120084,293.4456,-344.7921)"
       x1="133.82056"
       y1="328.81091"
       x2="133.82056"
       y2="328.12009" />
    <linearGradient
       inkscape:collect="always"
       xlink:href="#linearGradient2229"
       id="linearGradient7033"
       gradientUnits="userSpaceOnUse"
       gradientTransform="translate(293.3343,-307.8545)"
       x1="133.1973"
       y1="333.38351"
       x2="132.68144"
       y2="319.13574" />
    <linearGradient
       inkscape:collect="always"
       xlink:href="#linearGradient2515"
       id="linearGradient7035"
       gradientUnits="userSpaceOnUse"
       gradientTransform="matrix(1.211894,-0.930205,0.990722,1.290738,-1236.537,400.5879)"
       x1="985.78931"
       y1="621.25568"
       x2="1011.4193"
       y2="660.35217" />
    <radialGradient
       inkscape:collect="always"
       xlink:href="#linearGradient2692"
       id="radialGradient7037"
       gradientUnits="userSpaceOnUse"
       gradientTransform="matrix(1.041124,-7.731054e-3,1.226509e-2,1.45609,-48.23281,-291.8134)"
       cx="977.37177"
       cy="653.18262"
       fx="977.37177"
       fy="653.18262"
       r="26.809002" />
    <linearGradient
       inkscape:collect="always"
       xlink:href="#linearGradient2515"
       id="linearGradient7039"
       gradientUnits="userSpaceOnUse"
       gradientTransform="matrix(1.527733,0,0,1.480246,-1219.688,-343.271)"
       x1="959.53882"
       y1="630.16101"
       x2="985.23077"
       y2="630.16101" />
    <linearGradient
       inkscape:collect="always"
       xlink:href="#linearGradient2515"
       id="linearGradient7041"
       gradientUnits="userSpaceOnUse"
       gradientTransform="matrix(1.564244,0,0,1.592055,-748.0842,-1103.226)"
       x1="381.65939"
       y1="1072.2004"
       x2="395.62241"
       y2="1072.2004" />
    <linearGradient
       inkscape:collect="always"
       xlink:href="#linearGradient2237"
       id="linearGradient7076"
       gradientUnits="userSpaceOnUse"
       gradientTransform="matrix(0.14234,0,0,0.195907,70.7212,443.5783)"
       x1="338.57141"
       y1="267.7269"
       x2="323.81461"
       y2="489.26187" />
    <linearGradient
       inkscape:collect="always"
       xlink:href="#linearGradient2237"
       id="linearGradient7078"
       gradientUnits="userSpaceOnUse"
       gradientTransform="matrix(1.141774,0,0,0.493014,-167.5799,367.7467)"
       x1="338.57141"
       y1="267.7269"
       x2="323.81461"
       y2="489.26187" />
    <linearGradient
       inkscape:collect="always"
       xlink:href="#linearGradient6840"
       id="linearGradient7080"
       gradientUnits="userSpaceOnUse"
       gradientTransform="matrix(1,0,0,1.120084,153.1723,128.8048)"
       x1="133.82056"
       y1="328.81091"
       x2="133.82056"
       y2="328.12009" />
    <linearGradient
       inkscape:collect="always"
       xlink:href="#linearGradient2229"
       id="linearGradient7082"
       gradientUnits="userSpaceOnUse"
       gradientTransform="translate(153.061,165.7423)"
       x1="133.1973"
       y1="333.38351"
       x2="132.68144"
       y2="319.13574" />
    <linearGradient
       inkscape:collect="always"
       xlink:href="#linearGradient2515"
       id="linearGradient7084"
       gradientUnits="userSpaceOnUse"
       gradientTransform="matrix(1.211894,-0.930205,0.990722,1.290738,-1236.537,400.5879)"
       x1="985.78931"
       y1="621.25568"
       x2="1011.4193"
       y2="660.35217" />
    <radialGradient
       inkscape:collect="always"
       xlink:href="#linearGradient2692"
       id="radialGradient7086"
       gradientUnits="userSpaceOnUse"
       gradientTransform="matrix(1.041124,-7.731054e-3,1.226509e-2,1.45609,-48.23281,-291.8134)"
       cx="977.37177"
       cy="653.18262"
       fx="977.37177"
       fy="653.18262"
       r="26.809002" />
    <linearGradient
       inkscape:collect="always"
       xlink:href="#linearGradient2515"
       id="linearGradient7088"
       gradientUnits="userSpaceOnUse"
       gradientTransform="matrix(1.527733,0,0,1.480246,-1219.688,-343.271)"
       x1="959.53882"
       y1="630.16101"
       x2="985.23077"
       y2="630.16101" />
    <linearGradient
       inkscape:collect="always"
       xlink:href="#linearGradient2515"
       id="linearGradient7090"
       gradientUnits="userSpaceOnUse"
       gradientTransform="matrix(1.564244,0,0,1.592055,-748.0842,-1103.226)"
       x1="381.65939"
       y1="1072.2004"
       x2="395.62241"
       y2="1072.2004" />
  </defs>
  <sodipodi:namedview
     id="base"
     pagecolor="#ffffff"
     bordercolor="#666666"
     borderopacity="1.0"
     inkscape:pageopacity="0.0"
     inkscape:pageshadow="2"
     inkscape:zoom="0.35729144"
     inkscape:cx="730.24514"
     inkscape:cy="501.21683"
     inkscape:document-units="px"
     inkscape:current-layer="layer1"
     inkscape:window-width="1024"
     inkscape:window-height="626"
     inkscape:window-x="246"
     inkscape:window-y="230" />
  <metadata
     id="metadata7">
    <rdf:RDF>
      <cc:Work
         rdf:about="">
        <dc:format>image/svg+xml</dc:format>
        <dc:type
           rdf:resource="http://purl.org/dc/dcmitype/StillImage" />
      </cc:Work>
    </rdf:RDF>
  </metadata>
  <g
     inkscape:label="Calque 1"
     inkscape:groupmode="layer"
     id="layer1"
     transform="translate(-391.801,-387.6554)">
    <g
       id="g7043"
       transform="matrix(0.942037,0.335509,-0.335509,0.942037,503.4099,-78.76028)">
      <path
         id="path6846"
         d="M 131.18271,453.87233 C 127.77022,454.04968 125.05772,456.96155 125.05771,460.52858 L 125.05771,481.80983 C 121.81848,483.12104 119.29602,485.45506 118.05771,488.30983 L 110.74521,488.30983 C 108.72357,488.30983 107.08896,490.90165 107.08896,494.12233 L 107.08896,511.59108 C 107.08896,514.81176 108.72357,517.40357 110.74521,517.40358 L 117.21396,517.40358 L 117.21396,542.27858 C 117.21396,548.72909 123.43064,553.9036 131.15146,553.90358 L 231.74521,553.90358 L 231.74521,570.02858 C 231.74522,575.82885 239.17633,580.49733 248.40146,580.49733 L 295.90146,580.49733 L 309.96396,618.68483 C 312.0299,624.29237 319.89941,628.8098 327.62021,628.80983 L 369.55771,628.80983 C 377.27853,628.80983 381.84241,624.29238 379.77646,618.68483 L 347.33896,530.68483 C 345.86456,526.68289 341.43932,523.20463 336.21396,521.55983 L 336.93271,505.80983 C 338.05267,503.56992 339.69951,493.83384 335.46396,491.71608 C 333.30498,489.59831 329.04724,488.41171 328.93271,490.90358 C 328.34505,503.68653 328.03091,513.31282 322.74521,517.96608 L 322.74521,492.30983 C 322.74518,485.8593 316.52852,480.68483 308.80771,480.68483 L 148.80771,480.68483 L 144.71396,460.52858 C 144.71396,456.84649 141.84463,453.87234 138.27646,453.87233 L 131.52646,453.87233 C 131.41495,453.87233 131.29279,453.86661 131.18271,453.87233 z M 251.55771,553.90358 L 269.30771,553.90358 C 269.83561,559.09473 269.69352,565.42724 267.02646,568.15358 C 263.95133,571.29703 266.36183,572.77857 269.68271,572.77858 C 273.00361,572.77858 275.68273,569.23859 275.68271,564.84108 L 278.27646,553.90358 L 286.08896,553.90358 L 293.71396,574.59108 L 261.24521,574.59108 C 250.56347,574.59106 241.96396,571.88663 241.96396,568.52858 L 241.96396,559.15358 C 241.96397,556.90682 245.80956,554.95278 251.55771,553.90358 z "
         style="color:black;fill:black;fill-opacity:1;fill-rule:nonzero;stroke:#252a6d;stroke-width:9.79899979;stroke-linecap:butt;stroke-linejoin:miter;marker:none;marker-start:none;marker-mid:none;marker-end:none;stroke-miterlimit:4;stroke-dasharray:none;stroke-dashoffset:0;stroke-opacity:1;visibility:visible;display:inline;overflow:visible" />
      <path
         sodipodi:nodetypes="cccsssc"
         id="rect6734"
         d="M 334.48397,491.94907 C 338.71949,494.06683 337.07459,503.80467 335.95463,506.04458 L 334.90113,528.39795 C 333.78117,530.63786 322.72091,531.25534 318.48539,529.13757 C 314.24986,527.0198 310.36951,521.38041 312.86161,521.27173 C 326.86087,520.66125 327.11254,508.95351 327.93186,491.13128 C 328.04641,488.63942 332.32499,489.8313 334.48397,491.94907 z "
         style="color:black;fill:#6e6868;fill-opacity:1;fill-rule:nonzero;stroke:none;stroke-width:9.79868031;stroke-linecap:butt;stroke-linejoin:miter;marker:none;marker-start:none;marker-mid:none;marker-end:none;stroke-miterlimit:4;stroke-dashoffset:0;stroke-opacity:1;visibility:visible;display:inline;overflow:visible" />
      <rect
         ry="5.8135085"
         rx="3.6491613"
         y="488.53989"
         x="106.10297"
         height="29.106161"
         width="25.621273"
         id="rect6793"
         style="color:black;fill:url(#linearGradient7076);fill-opacity:1;fill-rule:nonzero;stroke:none;stroke-width:9.79868031;stroke-linecap:butt;stroke-linejoin:miter;marker:none;marker-start:none;marker-mid:none;marker-end:none;stroke-miterlimit:4;stroke-dasharray:none;stroke-dashoffset:0;stroke-opacity:1;visibility:visible;display:inline;overflow:visible" />
      <rect
         ry="8.2183685"
         rx="8.7987432"
         y="488.73709"
         x="108.28381"
         height="19.550249"
         width="7.1255593"
         id="rect6797"
         style="color:black;fill:#9b9b9b;fill-opacity:1;fill-rule:nonzero;stroke:none;stroke-width:9.79868031;stroke-linecap:butt;stroke-linejoin:miter;marker:none;marker-start:none;marker-mid:none;marker-end:none;stroke-miterlimit:4;stroke-dasharray:none;stroke-dashoffset:0;stroke-opacity:1;visibility:visible;display:inline;overflow:visible" />
      <rect
         ry="8.2183685"
         rx="5.4672976"
         y="492.42001"
         x="109.09845"
         height="5.5215311"
         width="4.6857295"
         id="rect6799"
         style="color:black;fill:#eaeaea;fill-opacity:1;fill-rule:nonzero;stroke:none;stroke-width:9.79868031;stroke-linecap:butt;stroke-linejoin:miter;marker:none;marker-start:none;marker-mid:none;marker-end:none;stroke-miterlimit:4;stroke-dasharray:none;stroke-dashoffset:0;stroke-opacity:1;visibility:visible;display:inline;overflow:visible" />
      <path
         id="path6720"
         d="M 246.86724,543.57906 C 237.89327,543.75658 230.74421,548.35839 230.74421,554.04535 L 230.74421,570.25619 C 230.74421,576.05646 238.18203,580.72248 247.40716,580.72248 L 306.01607,580.72248 C 315.2412,580.72248 322.67902,576.05645 322.67902,570.25619 L 322.67902,554.04535 C 322.67902,548.2451 315.2412,543.57906 306.01607,543.57906 L 247.40716,543.57906 C 247.22698,543.57906 247.04601,543.57553 246.86724,543.57906 z M 259.75078,553.31678 C 259.91665,553.31547 260.08655,553.31678 260.25346,553.31678 L 296.57683,553.31678 C 307.25857,553.31678 315.86489,556.02554 315.86489,559.38359 L 315.86489,568.77102 C 315.86489,572.12906 307.25857,574.82381 296.57683,574.82381 L 260.25346,574.82381 C 249.57173,574.8238 240.9654,572.12907 240.9654,568.77102 L 240.9654,559.38359 C 240.9654,556.078 249.30157,553.39945 259.75078,553.31678 z "
         style="color:black;fill:#464646;fill-opacity:1;fill-rule:nonzero;stroke:none;stroke-width:9.79868031;stroke-linecap:butt;stroke-linejoin:miter;marker:none;marker-start:none;marker-mid:none;marker-end:none;stroke-miterlimit:4;stroke-dasharray:none;stroke-dashoffset:0;stroke-opacity:1;visibility:visible;display:inline;overflow:visible" />
      <rect
         transform="matrix(1,0,0.345706,0.938343,0,0)"
         ry="10.787011"
         rx="13.9365"
         y="555.00586"
         x="80.94178"
         height="115.38641"
         width="69.806801"
         id="rect6722"
         style="color:black;fill:#636363;fill-opacity:1;fill-rule:nonzero;stroke:none;stroke-width:9.79868031;stroke-linecap:butt;stroke-linejoin:miter;marker:none;marker-start:none;marker-mid:none;marker-end:none;stroke-miterlimit:4;stroke-dasharray:none;stroke-dashoffset:0;stroke-opacity:1;visibility:visible;display:inline;overflow:visible" />
      <path
         sodipodi:nodetypes="cccsssc"
         id="rect6726"
         d="M 272.70081,540.24809 C 276.02171,540.24809 278.69521,543.78833 278.69521,548.18583 L 274.69521,565.07681 C 274.69521,569.47432 272.02171,573.01455 268.70081,573.01455 C 265.37992,573.01455 262.9585,571.54747 266.03363,568.40402 C 269.39357,564.9694 268.7778,555.77293 267.81549,550.40397 C 267.04898,546.12743 269.37992,540.24809 272.70081,540.24809 z "
         style="color:black;fill:#767676;fill-opacity:1;fill-rule:nonzero;stroke:none;stroke-width:9.79868031;stroke-linecap:butt;stroke-linejoin:miter;marker:none;marker-start:none;marker-mid:none;marker-end:none;stroke-miterlimit:4;stroke-dashoffset:0;stroke-opacity:1;visibility:visible;display:inline;overflow:visible" />
      <path
         sodipodi:nodetypes="ccccccccc"
         id="rect6728"
         d="M 130.52138,454.11589 L 137.2832,454.11589 C 140.85137,454.11589 143.72395,457.08017 143.72395,460.76226 L 149.72395,490.20838 C 149.72395,493.89047 146.85137,496.85475 143.2832,496.85475 L 130.52138,496.85475 C 126.95321,496.85475 124.08063,493.89047 124.08063,490.20838 L 124.08063,460.76226 C 124.08063,457.08017 126.95321,454.11589 130.52138,454.11589 z "
         style="color:black;fill:#a8a8a8;fill-opacity:1;fill-rule:nonzero;stroke:none;stroke-width:9.79868031;stroke-linecap:butt;stroke-linejoin:miter;marker:none;marker-start:none;marker-mid:none;marker-end:none;stroke-miterlimit:4;stroke-dashoffset:0;stroke-opacity:1;visibility:visible;display:inline;overflow:visible" />
      <path
         id="rect6736"
         d="M 129.2579,480.90947 C 121.95857,481.29356 116.22665,486.33591 116.22665,492.53447 L 116.22665,542.50322 C 116.22665,548.95374 122.44333,554.12824 130.16415,554.12822 L 292.53915,554.12822 L 315.60165,616.97197 C 317.41996,621.93076 325.09959,625.94071 332.8204,625.94072 L 361.8204,625.94072 C 369.54122,625.94072 374.29496,621.93077 372.47665,616.97197 L 343.10165,536.87822 C 341.28334,531.91943 333.60373,527.94072 325.8829,527.94072 L 321.7579,527.94072 L 321.7579,492.53447 C 321.7579,486.08395 315.54121,480.90947 307.8204,480.90947 L 130.16415,480.90947 C 129.86255,480.90947 129.55462,480.89386 129.2579,480.90947 z "
         style="color:black;fill:url(#linearGradient7078);fill-opacity:1;fill-rule:nonzero;stroke:none;stroke-width:9.79868031;stroke-linecap:butt;stroke-linejoin:miter;marker:none;marker-start:none;marker-mid:none;marker-end:none;stroke-miterlimit:4;stroke-dasharray:none;stroke-dashoffset:0;stroke-opacity:1;visibility:visible;display:inline;overflow:visible" />
      <rect
         ry="8.2183685"
         rx="8.7987432"
         y="483.74515"
         x="119.19156"
         height="47.867538"
         width="197.82626"
         id="rect6730"
         style="color:black;fill:#9b9b9b;fill-opacity:1;fill-rule:nonzero;stroke:none;stroke-width:9.79868031;stroke-linecap:butt;stroke-linejoin:miter;marker:none;marker-start:none;marker-mid:none;marker-end:none;stroke-miterlimit:4;stroke-dasharray:none;stroke-dashoffset:0;stroke-opacity:1;visibility:visible;display:inline;overflow:visible" />
      <rect
         ry="8.2183685"
         rx="5.4672976"
         y="487.33704"
         x="121.95886"
         height="5.5215311"
         width="93.684486"
         id="rect6732"
         style="opacity:0.77876108;color:black;fill:#eaeaea;fill-opacity:1;fill-rule:nonzero;stroke:none;stroke-width:9.79868031;stroke-linecap:butt;stroke-linejoin:miter;marker:none;marker-start:none;marker-mid:none;marker-end:none;stroke-miterlimit:4;stroke-dasharray:none;stroke-dashoffset:0;stroke-opacity:1;visibility:visible;display:inline;overflow:visible" />
      <rect
         ry="11.643539"
         rx="13.936499"
         y="456.28595"
         x="126.50833"
         height="5.3486385"
         width="9.5129452"
         id="rect6748"
         style="color:black;fill:white;fill-opacity:1;fill-rule:nonzero;stroke:none;stroke-width:9.79868031;stroke-linecap:butt;stroke-linejoin:miter;marker:none;marker-start:none;marker-mid:none;marker-end:none;stroke-miterlimit:4;stroke-dasharray:none;stroke-dashoffset:0;stroke-opacity:1;visibility:visible;display:inline;overflow:visible" />
      <rect
         ry="4.8869228"
         rx="4.6344361"
         y="487.78726"
         x="269.97028"
         height="14.434916"
         width="42.914032"
         id="rect6836"
         style="opacity:0.37463128;color:black;fill:url(#linearGradient7080);fill-opacity:1;fill-rule:nonzero;stroke:none;stroke-width:9.79868031;stroke-linecap:butt;stroke-linejoin:miter;marker:none;marker-start:none;marker-mid:none;marker-end:none;stroke-miterlimit:4;stroke-dasharray:none;stroke-dashoffset:0;stroke-opacity:1;visibility:visible;display:inline;overflow:visible" />
      <rect
         ry="4.8869228"
         rx="4.6344361"
         y="486.23849"
         x="269.85892"
         height="12.887357"
         width="42.914032"
         id="rect6804"
         style="color:black;fill:url(#linearGradient7082);fill-opacity:1;fill-rule:nonzero;stroke:none;stroke-width:9.79868031;stroke-linecap:butt;stroke-linejoin:miter;marker:none;marker-start:none;marker-mid:none;marker-end:none;stroke-miterlimit:4;stroke-dasharray:none;stroke-dashoffset:0;stroke-opacity:1;visibility:visible;display:inline;overflow:visible" />
      <rect
         ry="5.4921346"
         rx="12.125949"
         y="534.38092"
         x="119.00949"
         height="16.529612"
         width="179.8593"
         id="rect6830"
         style="color:black;fill:#757575;fill-opacity:1;fill-rule:nonzero;stroke:none;stroke-width:9.79868031;stroke-linecap:butt;stroke-linejoin:miter;marker:none;marker-start:none;marker-mid:none;marker-end:none;stroke-miterlimit:4;stroke-dasharray:none;stroke-dashoffset:0;stroke-opacity:1;visibility:visible;display:inline;overflow:visible" />
      <rect
         ry="8.2183685"
         rx="5.4672976"
         y="534.77484"
         x="121.59641"
         height="2.0865791"
         width="169.55136"
         id="rect6832"
         style="opacity:0.77876108;color:black;fill:#eaeaea;fill-opacity:1;fill-rule:nonzero;stroke:none;stroke-width:9.79868031;stroke-linecap:butt;stroke-linejoin:miter;marker:none;marker-start:none;marker-mid:none;marker-end:none;stroke-miterlimit:4;stroke-dasharray:none;stroke-dashoffset:0;stroke-opacity:1;visibility:visible;display:inline;overflow:visible" />
      <path
         sodipodi:nodetypes="cccccccccc"
         id="rect6887"
         d="M 321.15324,524.44533 L 331.68932,524.07239 C 335.86861,524.07239 341.53639,529.06971 343.93409,535.74039 L 372.22471,614.44815 C 374.62241,621.11882 373.18813,626.48908 369.00884,626.48908 L 324.53485,626.48908 C 320.35555,626.48908 315.06072,621.11882 312.66302,614.44815 L 291.83128,555.13348 C 296.59953,553.66286 308.66584,553.17001 304.39883,537.10144 C 313.70546,537.05006 320.55537,536.37955 321.15324,524.44533 z "
         style="color:black;fill:#232323;fill-opacity:1;fill-rule:evenodd;stroke:none;stroke-width:9.79899979;stroke-linecap:butt;stroke-linejoin:miter;marker:none;marker-start:none;marker-mid:none;marker-end:none;stroke-miterlimit:4;stroke-dashoffset:10.99997587;stroke-opacity:1;visibility:visible;display:inline;overflow:visible" />
    </g>
    <g
       id="g7063"
       transform="matrix(-0.996268,8.631764e-2,8.631764e-2,0.996268,871.7555,-32.20277)">
      <path
         id="path6939"
         d="M 450.59328,514.84181 C 450.11499,514.87965 449.63953,515.04246 449.24953,515.34181 L 411.81203,544.09181 C 410.56402,545.04974 410.4772,547.03453 411.62453,548.52931 L 415.21828,553.24806 L 414.21828,557.31056 C 408.94622,557.44492 403.28334,565.2737 400.99953,576.02931 C 400.90152,576.49091 400.80096,576.94611 400.71828,577.40431 C 398.68483,588.67643 401.24384,598.76868 406.68703,600.27931 C 412.35152,601.85137 419.02153,593.53414 421.53078,581.71681 C 423.61852,571.88443 422.1817,562.73192 418.37453,559.02931 L 418.68703,557.71681 C 419.84604,559.07295 421.67529,559.44982 422.87453,558.52931 L 425.99953,556.12306 L 426.99953,557.40431 C 427.07623,557.50424 427.16154,557.60095 427.24953,557.68556 L 430.37453,561.74806 C 425.5568,576.34169 428.92964,594.90844 440.65578,610.18556 C 457.76059,632.47015 486.19022,639.38876 504.12453,625.62306 C 522.05883,611.85736 522.72933,582.59515 505.62453,560.31056 C 494.09511,545.28974 477.42082,537.23861 462.28078,537.81056 L 457.68703,531.81056 L 459.34328,530.52931 C 467.12683,529.2163 480.06496,528.48582 490.15578,535.21681 C 506.73064,546.27305 509.62279,562.44743 514.37453,565.02931 C 514.41561,565.05163 514.4847,565.07447 514.53078,565.09181 C 516.8834,565.90995 525.31203,560.68556 525.31203,560.68556 C 525.31205,560.68556 504.36453,533.75967 498.03078,528.31056 C 492.01858,523.13828 471.08615,511.0995 453.93703,516.77931 L 453.59328,516.31056 C 452.80449,515.2829 451.64552,514.75856 450.59328,514.84181 z M 412.78078,562.74806 C 412.81491,562.7413 412.84042,562.754 412.87453,562.74806 L 412.49953,564.24806 C 412.12228,565.77543 412.76147,567.31853 413.93703,567.68556 C 415.11261,568.05258 416.37231,567.11919 416.74953,565.59181 L 417.03078,564.43556 C 419.54699,567.47372 420.41906,574.01845 418.93703,580.99806 C 417.05511,589.86108 412.06038,596.14585 407.81203,594.96681 C 403.82917,593.86148 401.89421,586.60691 403.21828,578.40431 C 403.30655,577.85748 403.47564,577.30199 403.59328,576.74806 C 405.2032,569.16607 409.04384,563.48881 412.78078,562.74806 z "
         style="fill:#232323;fill-opacity:1;fill-rule:evenodd;stroke:#252a6d;stroke-width:10;stroke-linecap:butt;stroke-linejoin:miter;stroke-miterlimit:4;stroke-dasharray:none;stroke-opacity:1;display:inline" />
      <g
         transform="translate(-125.9476,240.6999)"
         id="g6819">
        <path
           style="fill:url(#linearGradient7084);fill-opacity:1;fill-rule:evenodd;stroke:none;stroke-width:1pt;stroke-linecap:butt;stroke-linejoin:miter;stroke-opacity:1;display:inline"
           d="M 578.67278,291.02863 C 578.67278,291.02863 600.84826,283.83461 616.32663,294.15932 C 632.90151,305.21557 635.81157,321.38824 640.56331,323.97012 C 642.66647,325.11287 651.47749,319.60703 651.47749,319.60703 C 651.47749,319.60703 630.53945,292.70378 624.2057,287.25467 C 617.87184,281.80568 594.96672,268.72552 577.38428,276.78166 C 568.68582,280.76725 565.38447,283.15079 565.38447,283.15079 L 578.67278,291.02863 z "
           id="path2506"
           sodipodi:nodetypes="csscsscc" />
        <path
           sodipodi:type="arc"
           style="color:black;fill:url(#radialGradient7086);fill-opacity:1;fill-rule:evenodd;stroke:none;stroke-width:6;stroke-linecap:butt;stroke-linejoin:miter;marker:none;marker-start:none;marker-mid:none;marker-end:none;stroke-miterlimit:4;stroke-dasharray:none;stroke-dashoffset:10.99997587;stroke-opacity:1;visibility:visible;display:inline;overflow:visible"
           id="path1627"
           sodipodi:cx="972.38483"
           sodipodi:cy="659.48334"
           sodipodi:rx="26.809002"
           sodipodi:ry="31.277168"
           d="M 999.19383 659.48334 A 26.809002 31.277168 0 1 1  945.57582,659.48334 A 26.809002 31.277168 0 1 1  999.19383 659.48334 z"
           transform="matrix(1.211894,-0.930205,0.990722,1.290738,-1232.475,397.4705)" />
        <rect
           style="color:black;fill:url(#linearGradient7088);fill-opacity:1;fill-rule:evenodd;stroke:none;stroke-width:6;stroke-linecap:butt;stroke-linejoin:miter;marker:none;marker-start:none;marker-mid:none;marker-end:none;stroke-miterlimit:4;stroke-dasharray:none;stroke-dashoffset:10.99997587;stroke-opacity:1;visibility:visible;display:inline;overflow:visible"
           id="rect2502"
           width="39.895435"
           height="13.846409"
           x="246.22949"
           y="582.49536"
           rx="2.417635"
           ry="2.425386"
           transform="matrix(0.793263,-0.608879,0.608879,0.793263,0,0)" />
        <rect
           style="opacity:0.30973451;color:black;fill:black;fill-opacity:1;fill-rule:evenodd;stroke:none;stroke-width:6;stroke-linecap:butt;stroke-linejoin:miter;marker:none;marker-start:none;marker-mid:none;marker-end:none;stroke-miterlimit:4;stroke-dasharray:none;stroke-dashoffset:10.99997587;stroke-opacity:1;visibility:visible;display:inline;overflow:visible"
           id="rect2541"
           width="39.895435"
           height="13.846409"
           x="246.20935"
           y="576.34479"
           rx="2.417635"
           ry="2.425386"
           transform="matrix(0.793263,-0.608879,0.608879,0.793263,0,0)" />
        <rect
           style="color:black;fill:black;fill-opacity:1;fill-rule:evenodd;stroke:none;stroke-width:6;stroke-linecap:butt;stroke-linejoin:miter;marker:none;marker-start:none;marker-mid:none;marker-end:none;stroke-miterlimit:4;stroke-dasharray:none;stroke-dashoffset:10.99997587;stroke-opacity:1;visibility:visible;display:inline;overflow:visible"
           id="rect2504"
           width="52.902775"
           height="18.175648"
           x="239.40338"
           y="567.95483"
           rx="2.8398237"
           ry="3.4013376"
           transform="matrix(0.793263,-0.608879,0.608879,0.793263,0,0)" />
        <path
           style="opacity:0.18879053;color:black;fill:white;fill-opacity:1;fill-rule:evenodd;stroke:none;stroke-width:6;stroke-linecap:butt;stroke-linejoin:miter;marker:none;marker-start:none;marker-mid:none;marker-end:none;stroke-miterlimit:4;stroke-dasharray:none;stroke-dashoffset:10.99997587;stroke-opacity:1;visibility:visible;display:inline;overflow:visible"
           d="M 573.74056,312.34122 C 573.75858,312.33016 573.81658,312.36401 573.8346,312.35359 C 573.92453,312.30472 574.05441,312.23485 574.14142,312.20262 C 574.19303,312.18533 574.29261,312.14436 574.34185,312.13332 C 574.37403,312.12738 574.45838,312.10795 574.48908,312.10485 C 574.50403,312.10402 574.56861,312.11732 574.58311,312.11721 C 574.61119,312.11848 574.65113,312.12536 574.67715,312.12959 C 574.6896,312.13245 574.75932,312.13834 574.77118,312.14195 C 574.80493,312.15506 574.87836,312.18748 574.90605,312.20751 C 574.91454,312.21498 574.93915,312.25248 574.94688,312.26071 L 581.60272,320.9321 L 587.18859,316.6446 C 583.79336,314.47599 580.18873,312.42196 576.32257,310.52845 L 577.75893,309.42595 C 581.65321,311.14601 585.42904,313.05559 589.05054,315.21543 L 595.16838,310.51959 C 591.32321,308.80361 587.13974,307.19404 582.54682,305.75094 L 585.25996,303.66844 C 589.57144,305.22816 593.63408,306.91297 597.45593,308.76376 L 603.41419,304.19042 C 605.19551,302.82315 606.9043,301.88835 607.74686,301.79478 C 607.76303,301.79357 607.82545,301.80769 607.8409,301.80713 C 607.89985,301.80761 607.98198,301.82046 608.02896,301.83187 C 608.03993,301.8354 608.11282,301.83998 608.12299,301.84424 C 608.13155,301.84993 608.15609,301.89104 608.16383,301.89745 C 608.17072,301.90457 608.19862,301.94278 608.20466,301.95064 C 608.20978,301.95913 608.24131,301.99471 608.24549,302.00384 C 608.2526,302.03484 608.27481,302.11482 608.27396,302.15107 C 608.27282,302.1637 608.2636,302.23189 608.2616,302.2451 C 608.24161,302.34126 608.17798,302.48825 608.1181,302.60886 C 607.68882,303.42232 606.44133,304.74129 604.80253,305.99918 L 599.74865,309.87835 C 606.16018,313.18059 611.80079,316.97142 616.6442,321.42681 L 621.59169,317.62931 C 623.23052,316.3714 624.82714,315.50735 625.72393,315.30296 C 625.8182,315.28393 625.9411,315.24878 626.01839,315.24602 C 626.03312,315.24615 626.09842,315.25759 626.11242,315.25839 C 626.1257,315.25986 626.19395,315.26859 626.20645,315.27075 C 626.22996,315.27646 626.28013,315.27461 626.30048,315.28311 C 626.30986,315.28807 626.33276,315.33063 626.34132,315.33631 C 626.34904,315.34272 626.37526,315.38238 626.38215,315.38951 C 626.38819,315.39738 626.41787,315.43422 626.42298,315.44271 C 626.42627,315.45245 626.46145,315.48558 626.46382,315.49591 C 626.4653,315.50684 626.45087,315.57844 626.45145,315.58994 C 626.45089,315.61413 626.44309,315.65759 626.43909,315.68398 C 626.43625,315.69772 626.43041,315.76374 626.42673,315.77801 C 626.42219,315.7928 626.41971,315.85674 626.41436,315.87204 C 626.10613,316.66178 624.76133,318.07079 622.98002,319.43806 L 618.29853,323.0314 C 622.8942,327.58429 626.63807,332.79128 629.56739,338.81416 L 634.24887,335.22083 C 636.06582,333.82621 637.87797,332.93401 638.75725,332.94393 C 638.77379,332.94481 638.83543,332.95474 638.85127,332.95631 C 638.86639,332.95855 638.93091,332.96574 638.94531,332.96868 C 638.98626,332.9796 639.04615,333.01691 639.08017,333.03423 C 639.11183,333.05372 639.19078,333.07373 639.21504,333.0998 C 639.22228,333.10923 639.24956,333.14294 639.25587,333.153 C 639.26125,333.16366 639.23904,333.23576 639.24351,333.24703 C 639.24704,333.25889 639.2817,333.28779 639.28434,333.30022 C 639.28608,333.31325 639.2711,333.38067 639.27197,333.39426 C 639.27189,333.49316 639.2639,333.64678 639.22251,333.7704 C 638.89981,334.64014 637.63312,336.08939 635.92304,337.40198 L 630.76277,341.36282 C 633.27234,347.1914 635.01642,353.72758 635.95948,361.12998 L 638.72582,359.00664 C 640.36461,357.74877 641.9962,356.93018 642.93974,356.78669 C 643.03916,356.77437 643.19228,356.7786 643.27503,356.78297 C 643.29086,356.78453 643.35394,356.79308 643.36906,356.79532 C 643.38346,356.79826 643.44944,356.80405 643.46309,356.80769 C 643.47598,356.81206 643.49179,356.85585 643.50393,356.86089 C 643.51526,356.86667 643.5874,356.86678 643.59795,356.87326 C 643.6077,356.88048 643.62987,356.9185 643.63879,356.92646 C 643.64688,356.93515 643.67238,356.97022 643.67963,356.97966 C 643.68594,356.98971 643.71508,357.02218 643.72045,357.03286 C 643.73384,357.06668 643.74367,357.14103 643.74893,357.18008 C 643.75066,357.20725 643.77916,357.298 643.7774,357.32732 C 643.77044,357.38809 643.71985,357.48747 643.69946,357.55621 C 643.40971,358.4215 642.14569,359.84786 640.39999,361.18779 L 636.30369,364.33197 C 636.75478,369.174 636.90719,374.35855 636.69214,379.9275 L 633.979,382.01 C 634.22051,376.57707 634.25017,371.29793 633.90974,366.16947 L 630.18584,369.0278 C 631.62808,373.36255 632.9325,377.90028 634.06814,382.78698 L 632.63178,383.88948 C 631.40929,379.26795 630.06453,374.74655 628.48348,370.33447 L 622.84441,374.6628 L 630.76609,384.98336 C 630.77205,384.99296 630.8019,385.02642 630.80693,385.03656 C 630.81911,385.06848 630.83145,385.14779 630.83539,385.1838 C 630.83581,385.19618 630.82348,385.26506 630.82302,385.27782 C 630.82084,385.29126 630.81367,385.35813 630.81065,385.37185 C 630.80681,385.38585 630.80296,385.45167 630.79829,385.46589 C 630.78736,385.49475 630.74679,385.57121 630.73273,385.60075 C 630.70933,385.64546 630.64401,385.73107 630.61396,385.77645 C 630.56034,385.85218 630.45927,385.95958 630.3888,386.03381 C 630.31514,386.10734 630.25221,386.2232 630.16365,386.29119 C 629.91563,386.48155 629.5834,386.60111 629.34957,386.66242 C 629.31675,386.66978 629.2338,386.68634 629.20233,386.69089 C 629.12555,386.69864 629.02611,386.71755 628.96107,386.70699 C 628.9237,386.69842 628.85802,386.65683 628.8262,386.64142 C 628.81627,386.63552 628.79461,386.5949 628.78537,386.58822 C 628.76839,386.5733 628.70521,386.59394 628.69133,386.57587 L 620.76966,376.25531 L 615.34339,380.42031 C 619.29043,383.01635 623.41526,385.40388 627.6843,387.68699 L 626.14153,388.87116 C 621.57882,386.61496 617.3938,384.28828 613.48143,381.84948 L 609.54474,384.87114 C 614.58452,386.3764 619.89035,387.5915 625.414,388.58417 L 622.43488,390.87084 C 616.76217,389.81687 611.5649,388.51274 606.8316,386.95364 L 603.74607,389.32198 C 602.14293,390.55257 600.57694,391.38484 599.6262,391.5543 C 599.56467,391.56366 599.4407,391.56696 599.38493,391.5704 C 599.31326,391.57232 599.20417,391.5955 599.14367,391.58651 C 599.11489,391.58063 599.03461,391.52963 599.0088,391.52094 C 598.97243,391.50577 598.90316,391.47705 598.87393,391.45538 C 598.86502,391.44742 598.84119,391.41087 598.83311,391.40218 C 598.82587,391.39274 598.79858,391.35904 598.79227,391.34899 C 598.7869,391.33831 598.75589,391.30706 598.75143,391.29578 C 598.7479,391.28392 598.76645,391.21419 598.7638,391.20175 C 598.75855,391.16268 598.73269,391.09851 598.73533,391.05451 C 598.73707,391.03933 598.74511,390.97619 598.7477,390.96049 C 598.76829,390.86322 598.84131,390.71077 598.8912,390.59672 C 599.30069,389.72211 600.46873,388.37137 602.0719,387.14084 L 603.77426,385.83417 C 596.62136,383.19822 590.57424,379.96487 585.49065,376.112 L 581.92635,378.84784 C 580.14506,380.21513 578.36718,381.05995 577.47116,381.08389 C 577.38496,381.08291 577.25731,381.06499 577.18907,381.04679 C 577.17617,381.04243 577.10717,381.03949 577.09505,381.03443 C 577.08371,381.02866 577.06476,380.9877 577.05421,380.98123 C 577.025,380.95956 576.94107,380.94397 576.91934,380.91567 C 576.91303,380.90561 576.93708,380.83232 576.93171,380.82164 C 576.92724,380.81037 576.89441,380.7803 576.89087,380.76843 C 576.88292,380.73109 576.86236,380.6636 576.86241,380.6212 C 576.8633,380.60653 576.87303,380.54235 576.87476,380.52717 C 576.88773,380.44864 576.93145,380.29483 576.96507,380.20425 C 577.31867,379.33149 578.57773,377.95193 580.25217,376.66669 L 583.2845,374.33919 C 578.13704,370.0209 574.05097,365.07258 570.89846,359.41392 L 568.29173,361.41476 C 566.33229,362.91875 564.44752,363.90759 563.7178,363.82651 C 563.70528,363.82435 563.63551,363.81701 563.62377,363.81414 C 563.6128,363.81061 563.5931,363.76521 563.58293,363.76095 C 563.57356,363.75599 563.49746,363.75427 563.4889,363.74858 C 563.48202,363.74145 563.4541,363.70325 563.44806,363.69538 C 563.44295,363.68689 563.41142,363.65131 563.40723,363.64219 C 563.40396,363.63245 563.42196,363.55849 563.4196,363.54815 C 563.41603,363.47907 563.42954,363.35478 563.4567,363.26605 C 563.49414,363.159 563.57734,362.99141 563.65339,362.86146 C 564.15287,362.04487 565.37147,360.78186 566.90341,359.606 L 569.82932,357.36017 C 566.85146,351.47286 564.79827,344.92845 563.46713,337.7267 L 560.3284,340.13587 C 558.40458,341.61252 556.56417,342.54965 555.80766,342.50679 C 555.79439,342.50532 555.72614,342.49659 555.71363,342.49442 C 555.67838,342.48588 555.60688,342.44375 555.57876,342.42886 C 555.57104,342.42246 555.54482,342.38279 555.53793,342.37566 C 555.53189,342.36779 555.50221,342.33096 555.4971,342.32247 C 555.49291,342.31335 555.45954,342.279 555.45626,342.26926 C 555.45477,342.25834 555.46922,342.18674 555.46863,342.17523 C 555.46976,342.1269 555.47858,342.04423 555.49336,341.98717 C 555.49789,341.97238 555.50037,341.90844 555.50573,341.89313 C 555.51806,341.86155 555.55575,341.79178 555.57129,341.75827 C 555.97331,340.94859 557.26562,339.61235 558.94006,338.32712 L 563.03637,335.18294 C 562.36122,330.91686 561.92332,326.44983 561.69292,321.75762 L 564.67206,319.47096 C 564.69779,324.4246 564.95015,329.0422 565.48351,333.30461 L 572.13334,328.20044 C 571.08513,324.06545 570.35351,319.81925 569.83233,315.51012 L 571.37508,314.32596 C 572.07946,318.64636 573.02761,322.73938 574.1549,326.64877 L 579.52796,322.5246 L 572.87213,313.85322 C 572.85825,313.83514 572.89454,313.77945 572.8845,313.75919 C 572.88043,313.74853 572.84679,313.7171 572.84366,313.70598 C 572.837,313.67127 572.81382,313.59707 572.81519,313.55875 C 572.81653,313.54564 572.82538,313.47816 572.82755,313.46472 C 572.86078,313.31377 572.96415,313.09181 573.08982,312.92525 C 573.19882,312.78929 573.36832,312.62694 573.52777,312.50456 C 573.59864,312.45017 573.66851,312.38552 573.74056,312.34122 z M 597.5143,311.59335 L 591.07726,316.53419 C 596.65712,320.06109 601.90445,324.21068 606.69605,329.06265 L 614.78224,322.85598 C 610.13396,318.69455 604.42899,314.90428 597.5143,311.59335 z M 589.2153,317.96335 L 582.99106,322.74086 L 594.83273,338.16849 L 604.56809,330.69599 C 600.07134,326.08002 594.98093,321.83815 589.2153,317.96335 z M 580.9163,324.33336 L 574.85164,328.98837 C 576.95886,335.66981 579.66997,341.74069 582.91622,347.31516 L 592.75797,339.76099 L 580.9163,324.33336 z M 572.83009,330.54003 L 565.86107,335.8892 C 567.04477,343.59903 569.10814,350.18448 571.85088,355.80851 L 580.57547,349.11183 C 577.18266,343.18621 574.64542,336.95647 572.83009,330.54003 z M 616.48977,324.41973 L 608.29716,330.70807 C 612.54775,335.24889 616.4446,340.34961 619.93841,346.205 L 627.75863,340.2025 C 625.08652,334.49258 621.44661,329.22597 616.48977,324.41973 z M 606.16922,332.34141 L 596.22106,339.97724 L 608.02191,355.35167 L 617.81047,347.83834 C 614.46349,342.37759 610.63008,337.15152 606.16922,332.34141 z M 594.1463,341.56974 L 584.09175,349.28725 C 587.54533,354.87175 591.54486,359.96789 595.99899,364.58002 L 605.94715,356.94418 L 594.1463,341.56974 z M 581.75101,351.08391 L 572.92002,357.86226 C 576.21557,363.94364 580.33908,368.83905 585.25286,372.82835 L 593.76464,366.29502 C 588.9578,361.44479 584.99977,356.39594 581.75101,351.08391 z M 628.90081,342.79198 L 621.2934,348.63115 C 624.26414,353.93832 626.94654,359.79439 629.25645,366.27499 L 633.61875,362.92665 C 632.91992,355.82178 631.47019,349.08026 628.90081,342.79198 z M 619.21864,350.22365 L 609.69607,357.53282 L 621.17024,372.48165 L 627.50089,367.62249 C 625.18958,361.55772 622.4194,355.76887 619.21864,350.22365 z M 607.62131,359.12532 L 597.93916,366.55699 C 602.52315,371.04052 607.54176,375.10353 612.92444,378.81082 L 619.0955,374.07416 L 607.62131,359.12532 z M 595.70481,368.27199 L 587.51221,374.56034 C 593.0396,378.57815 599.39836,381.5517 606.3278,383.87416 L 611.00929,380.28084 C 605.20697,376.47953 600.12127,372.47063 595.70481,368.27199 z "
           id="path6487" />
        <path
           style="color:black;fill:black;fill-opacity:1;fill-rule:evenodd;stroke:none;stroke-width:6;stroke-linecap:butt;stroke-linejoin:miter;marker:none;marker-start:none;marker-mid:none;marker-end:none;stroke-miterlimit:4;stroke-dasharray:none;stroke-dashoffset:10.99997587;stroke-opacity:1;visibility:visible;display:inline;overflow:visible"
           d="M 526.88506,336.34976 C 524.85161,347.62187 527.42851,357.70831 532.8717,359.21894 C 538.53619,360.791 545.19702,352.47419 547.70627,340.65686 C 550.2155,328.83953 547.62114,318.00489 541.95664,316.43286 C 536.29216,314.86081 529.68936,323.14297 527.18011,334.96029 C 527.0821,335.42189 526.96774,335.89156 526.88506,336.34976 z M 529.40775,337.35429 C 529.49604,336.80746 529.64619,336.23128 529.76383,335.67735 C 531.64576,326.81438 536.57902,320.57214 540.82738,321.75117 C 545.07572,322.93019 547.0045,331.07683 545.12256,339.93983 C 543.24063,348.80285 538.24933,355.07966 534.00098,353.90062 C 530.01811,352.79528 528.08368,345.55689 529.40775,337.35429 z "
           id="path2508" />
        <rect
           style="color:black;fill:url(#linearGradient7090);fill-opacity:1;fill-rule:evenodd;stroke:none;stroke-width:6;stroke-linecap:butt;stroke-linejoin:miter;marker:none;marker-start:none;marker-mid:none;marker-end:none;stroke-miterlimit:4;stroke-dasharray:none;stroke-dashoffset:10.99997587;stroke-opacity:1;visibility:visible;display:inline;overflow:visible"
           id="rect2513"
           width="21.841585"
           height="4.4459801"
           x="-151.07568"
           y="601.55389"
           rx="2.8398314"
           ry="2.7925971"
           transform="matrix(0.239785,-0.970826,0.95456,0.29802,0,0)" />
        <path
           style="opacity:0.94100294;color:black;fill:#2f4025;fill-opacity:1;fill-rule:evenodd;stroke:none;stroke-width:6;stroke-linecap:butt;stroke-linejoin:miter;marker:none;marker-start:none;marker-mid:none;marker-end:none;stroke-miterlimit:4;stroke-dasharray:none;stroke-dashoffset:10.99997587;stroke-opacity:1;visibility:visible;display:inline;overflow:visible"
           d="M 573.68514,311.22724 C 573.70316,311.21618 573.76115,311.25003 573.77918,311.23961 C 573.86912,311.19074 573.99899,311.12086 574.086,311.08864 C 574.13761,311.07135 574.2372,311.03038 574.28643,311.01933 C 574.31861,311.0134 574.40296,310.99396 574.43368,310.99087 C 574.44861,310.99004 574.51319,311.00333 574.5277,311.00323 C 574.55577,311.00449 574.59572,311.01138 574.62173,311.0156 C 574.63418,311.01845 574.7039,311.02436 574.71577,311.02797 C 574.74951,311.04107 574.82293,311.0735 574.85063,311.09353 C 574.85913,311.101 574.88373,311.13849 574.89147,311.14673 L 581.5473,319.81812 L 587.13317,315.53061 C 583.73796,313.36201 580.13332,311.30798 576.26715,309.41447 L 577.70351,308.31198 C 581.59779,310.03202 585.37363,311.9416 588.99512,314.10145 L 595.11297,309.40562 C 591.26778,307.68963 587.08432,306.08006 582.4914,304.63696 L 585.20454,302.55446 C 589.51601,304.11418 593.57866,305.79898 597.40052,307.64978 L 603.35877,303.07644 C 605.14009,301.70917 606.84888,300.77437 607.69145,300.6808 C 607.70762,300.67957 607.77003,300.69371 607.78548,300.69315 C 607.84444,300.69363 607.92656,300.70647 607.97354,300.71789 C 607.98451,300.72142 608.05741,300.726 608.06758,300.73025 C 608.07613,300.73595 608.10069,300.77706 608.10841,300.78345 C 608.11529,300.79059 608.14321,300.82878 608.14924,300.83664 C 608.15436,300.84514 608.18589,300.88073 608.19008,300.88985 C 608.19719,300.92087 608.21939,301.00083 608.21854,301.03708 C 608.21741,301.04973 608.20819,301.11791 608.20618,301.13112 C 608.18621,301.22728 608.12256,301.37428 608.06268,301.49488 C 607.6334,302.30833 606.38592,303.62731 604.74711,304.8852 L 599.69323,308.76437 C 606.10476,312.06661 611.74538,315.85743 616.58878,320.31282 L 621.53627,316.51532 C 623.17509,315.25741 624.77172,314.39336 625.66852,314.18898 C 625.76278,314.16994 625.88568,314.1348 625.96297,314.13204 C 625.97771,314.13217 626.043,314.1436 626.057,314.14441 C 626.07028,314.14587 626.13852,314.15461 626.15104,314.15677 C 626.17454,314.16248 626.22471,314.16063 626.24507,314.16913 C 626.25444,314.17409 626.27734,314.21665 626.28589,314.22233 C 626.29363,314.22874 626.31985,314.26841 626.32673,314.27553 C 626.33277,314.28339 626.36246,314.32024 626.36757,314.32873 C 626.37085,314.33847 626.40604,314.3716 626.40839,314.38193 C 626.40988,314.39285 626.39545,314.46445 626.39604,314.47597 C 626.39547,314.50015 626.38767,314.5436 626.38367,314.57 C 626.38082,314.58373 626.37499,314.64976 626.3713,314.66402 C 626.36677,314.67881 626.36429,314.74275 626.35894,314.75806 C 626.05071,315.54779 624.70591,316.95681 622.92461,318.32408 L 618.24311,321.91742 C 622.83878,326.4703 626.58266,331.67729 629.51197,337.70018 L 634.19344,334.10685 C 636.0104,332.71222 637.82255,331.82002 638.70183,331.82996 C 638.71838,331.83083 638.78003,331.84076 638.79586,331.84233 C 638.81097,331.84457 638.87549,331.85176 638.88989,331.85469 C 638.93085,331.86562 638.99074,331.90293 639.02475,331.92025 C 639.0564,331.93974 639.13536,331.95975 639.15962,331.98581 C 639.16687,331.99525 639.19415,332.02896 639.20045,332.03902 C 639.20584,332.04968 639.18363,332.12178 639.18809,332.13304 C 639.19163,332.14491 639.22627,332.1738 639.22893,332.18625 C 639.23066,332.19927 639.21568,332.26669 639.21655,332.28028 C 639.21646,332.37917 639.20848,332.53279 639.16709,332.65641 C 638.8444,333.52616 637.5777,334.9754 635.86762,336.28799 L 630.70735,340.24883 C 633.21693,346.07743 634.96101,352.6136 635.90408,360.016 L 638.67041,357.89267 C 640.30919,356.63479 641.94078,355.81619 642.88432,355.67272 C 642.98374,355.66038 643.13687,355.66462 643.21961,355.66899 C 643.23544,355.67055 643.29852,355.67909 643.31364,355.68135 C 643.32804,355.68428 643.39402,355.69006 643.40767,355.69371 C 643.42057,355.69806 643.43637,355.74186 643.44851,355.74691 C 643.45984,355.75269 643.53198,355.75279 643.54254,355.75928 C 643.55227,355.76649 643.57445,355.80452 643.58337,355.81248 C 643.59146,355.82117 643.61697,355.85624 643.62421,355.86568 C 643.63052,355.87573 643.65966,355.9082 643.66504,355.91888 C 643.67842,355.95269 643.68825,356.02705 643.69351,356.0661 C 643.69524,356.09326 643.72374,356.18401 643.72198,356.21333 C 643.71502,356.2741 643.66443,356.37348 643.64405,356.44223 C 643.35429,357.30752 642.09028,358.73388 640.34457,360.07382 L 636.24827,363.21799 C 636.69936,368.06002 636.85177,373.24456 636.63672,378.81351 L 633.92358,380.89601 C 634.16509,375.46308 634.19475,370.18395 633.85432,365.05549 L 630.13042,367.91382 C 631.57265,372.24857 632.87709,376.78629 634.01271,381.673 L 632.57635,382.7755 C 631.35388,378.15397 630.00911,373.63257 628.42806,369.22049 L 622.789,373.54882 L 630.71067,383.86938 C 630.71663,383.87898 630.74648,383.91244 630.75151,383.92257 C 630.76369,383.95449 630.77604,384.03381 630.77997,384.0698 C 630.78039,384.0822 630.76806,384.15106 630.7676,384.16383 C 630.76542,384.17728 630.75825,384.24414 630.75524,384.25788 C 630.75139,384.27186 630.74755,384.33769 630.74288,384.3519 C 630.73194,384.38077 630.69137,384.45722 630.67731,384.48676 C 630.65392,384.53148 630.58858,384.61709 630.55855,384.66247 C 630.50492,384.73819 630.40385,384.84559 630.33338,384.91983 C 630.25973,384.99337 630.1968,385.1092 630.10823,385.1772 C 629.8602,385.36757 629.52798,385.48711 629.29415,385.54843 C 629.26133,385.5558 629.17838,385.57237 629.14691,385.57691 C 629.07014,385.58465 628.97071,385.60357 628.90565,385.59301 C 628.86828,385.58443 628.8026,385.54285 628.77078,385.52744 C 628.76085,385.52154 628.73919,385.48092 628.72995,385.47423 C 628.71297,385.45931 628.6498,385.47995 628.63592,385.46187 L 620.71425,375.14132 L 615.28797,379.30633 C 619.23502,381.90237 623.35984,384.2899 627.62889,386.573 L 626.08611,387.75717 C 621.5234,385.50097 617.33838,383.17429 613.42602,380.7355 L 609.48932,383.75717 C 614.5291,385.26241 619.83494,386.47752 625.35859,387.47018 L 622.37946,389.75686 C 616.70676,388.70289 611.50948,387.39876 606.77619,385.83967 L 603.69065,388.208 C 602.0875,389.43858 600.52153,390.27085 599.57078,390.44031 C 599.50925,390.44967 599.38528,390.45297 599.32951,390.45642 C 599.25783,390.45834 599.14875,390.48151 599.08825,390.47252 C 599.05947,390.46664 598.97918,390.41564 598.95339,390.40697 C 598.91701,390.39179 598.84774,390.36307 598.81852,390.3414 C 598.80961,390.33344 598.78578,390.29689 598.77769,390.2882 C 598.77045,390.27877 598.74317,390.24506 598.73685,390.235 C 598.73148,390.22432 598.70048,390.19307 598.69602,390.1818 C 598.69248,390.16993 598.71104,390.10021 598.70839,390.08777 C 598.70313,390.0487 598.67727,389.98453 598.67992,389.94053 C 598.68165,389.92535 598.6897,389.86221 598.69229,389.84651 C 598.71287,389.74924 598.78589,389.59679 598.83578,389.48274 C 599.24529,388.60813 600.41331,387.2574 602.01648,386.02686 L 603.71885,384.72019 C 596.56595,382.08424 590.51883,378.85089 585.43523,374.99802 L 581.87092,377.73385 C 580.08964,379.10115 578.31176,379.94597 577.41575,379.96991 C 577.32954,379.96893 577.20189,379.95101 577.13365,379.93281 C 577.12075,379.92845 577.05175,379.9255 577.03963,379.92045 C 577.02829,379.91467 577.00934,379.87373 576.99879,379.86725 C 576.96958,379.84557 576.88565,379.82999 576.86392,379.80168 C 576.85761,379.79162 576.88167,379.71832 576.87629,379.70765 C 576.87182,379.69638 576.83899,379.66632 576.83546,379.65445 C 576.82751,379.6171 576.80695,379.54962 576.80699,379.50722 C 576.80788,379.49255 576.81762,379.42837 576.81935,379.41319 C 576.83231,379.33466 576.87603,379.18085 576.90965,379.09026 C 577.26325,378.2175 578.52231,376.83795 580.19675,375.5527 L 583.22908,373.2252 C 578.08162,368.90691 573.99556,363.9586 570.84306,358.29994 L 568.23631,360.30078 C 566.27687,361.80477 564.3921,362.79361 563.66238,362.71253 C 563.64987,362.71035 563.5801,362.70303 563.56835,362.70016 C 563.55738,362.69662 563.53768,362.65122 563.52751,362.64696 C 563.51814,362.64201 563.44204,362.64028 563.43348,362.6346 C 563.42661,362.62747 563.39868,362.58926 563.39265,362.5814 C 563.38754,362.57291 563.356,362.53733 563.35181,362.5282 C 563.34853,362.51846 563.36655,362.44451 563.36419,362.43416 C 563.36061,362.36508 563.37413,362.2408 563.40128,362.15207 C 563.43872,362.04501 563.52194,361.87743 563.59798,361.74747 C 564.09745,360.93089 565.31605,359.66788 566.84798,358.49202 L 569.7739,356.24618 C 566.79606,350.35888 564.74286,343.81446 563.41171,336.61272 L 560.27298,339.02189 C 558.34916,340.49854 556.50875,341.43566 555.75224,341.39281 C 555.73897,341.39134 555.67072,341.38261 555.65821,341.38044 C 555.62297,341.37189 555.55146,341.32977 555.52334,341.31488 C 555.51562,341.30847 555.48939,341.26881 555.48251,341.26168 C 555.47648,341.25382 555.44679,341.21697 555.44168,341.20848 C 555.43749,341.19937 555.40412,341.16502 555.40084,341.15529 C 555.39935,341.14436 555.4138,341.07276 555.41321,341.06125 C 555.41434,341.01291 555.42316,340.93026 555.43794,340.87319 C 555.44248,340.8584 555.44496,340.79446 555.45031,340.77916 C 555.46263,340.74756 555.50034,340.6778 555.51587,340.64429 C 555.91788,339.83461 557.21021,338.49837 558.88464,337.21313 L 562.98095,334.06896 C 562.3058,329.80287 561.8679,325.33585 561.63751,320.64365 L 564.61664,318.35698 C 564.64236,323.31062 564.89473,327.92823 565.42809,332.19063 L 572.07793,327.08646 C 571.02971,322.95147 570.2981,318.70526 569.77691,314.39615 L 571.31968,313.21197 C 572.02404,317.53238 572.97221,321.6254 574.09948,325.53479 L 579.47255,321.41062 L 572.81672,312.73923 C 572.80284,312.72115 572.83912,312.66546 572.82908,312.6452 C 572.82501,312.63455 572.79137,312.60312 572.78825,312.592 C 572.7816,312.55728 572.7584,312.48308 572.75977,312.44477 C 572.76111,312.43166 572.76996,312.36419 572.77214,312.35074 C 572.80537,312.19979 572.90873,311.97783 573.0344,311.81128 C 573.14341,311.67531 573.3129,311.51295 573.47235,311.39057 C 573.54322,311.33618 573.61311,311.27154 573.68514,311.22724 z M 597.45889,310.47937 L 591.02184,315.42021 C 596.60171,318.94711 601.84903,323.0967 606.64063,327.94867 L 614.72682,321.742 C 610.07854,317.58057 604.37357,313.79029 597.45889,310.47937 z M 589.15989,316.84937 L 582.93564,321.62688 L 594.77731,337.0545 L 604.51268,329.58199 C 600.01592,324.96603 594.92551,320.72416 589.15989,316.84937 z M 580.86089,323.21938 L 574.79623,327.87438 C 576.90345,334.55583 579.61455,340.62671 582.8608,346.20117 L 592.70256,338.647 L 580.86089,323.21938 z M 572.77468,329.42605 L 565.80565,334.77522 C 566.98934,342.48504 569.05273,349.07049 571.79546,354.69452 L 580.52005,347.99785 C 577.12724,342.07224 574.59001,335.84249 572.77468,329.42605 z M 616.43436,323.30575 L 608.24175,329.59409 C 612.49233,334.13492 616.38918,339.23563 619.883,345.09101 L 627.70321,339.08851 C 625.0311,333.37859 621.39119,328.11199 616.43436,323.30575 z M 606.1138,331.22743 L 596.16565,338.86326 L 607.96649,354.23768 L 617.75505,346.72435 C 614.40807,341.2636 610.57466,336.03753 606.1138,331.22743 z M 594.0909,340.45576 L 584.03633,348.17327 C 587.48991,353.75777 591.48944,358.85391 595.94357,363.46603 L 605.89174,355.83018 L 594.0909,340.45576 z M 581.6956,349.96993 L 572.86461,356.74827 C 576.16014,362.82966 580.28366,367.72506 585.19744,371.71436 L 593.70922,365.18103 C 588.90238,360.3308 584.94435,355.28196 581.6956,349.96993 z M 628.84539,341.67799 L 621.23798,347.51716 C 624.20872,352.82434 626.89113,358.68041 629.20104,365.16101 L 633.56333,361.81267 C 632.86451,354.70781 631.41477,347.96628 628.84539,341.67799 z M 619.16322,349.10966 L 609.64065,356.41883 L 621.11482,371.36768 L 627.44547,366.50851 C 625.13415,360.44374 622.36398,354.6549 619.16322,349.10966 z M 607.5659,358.01133 L 597.88374,365.44301 C 602.46773,369.92654 607.48634,373.98954 612.86903,377.69685 L 619.04009,372.96017 L 607.5659,358.01133 z M 595.64939,367.158 L 587.45679,373.44635 C 592.98418,377.46417 599.34296,380.43772 606.27239,382.76018 L 610.95388,379.16684 C 605.15155,375.36555 600.06585,371.35665 595.64939,367.158 z "
           id="rect2545" />
      </g>
    </g>
  </g>
</svg>
