<?xml version="1.0" encoding="UTF-8" standalone="no"?>
<!-- Created with Inkscape (http://www.inkscape.org/) -->
<svg
   xmlns:dc="http://purl.org/dc/elements/1.1/"
   xmlns:cc="http://web.resource.org/cc/"
   xmlns:rdf="http://www.w3.org/1999/02/22-rdf-syntax-ns#"
   xmlns:svg="http://www.w3.org/2000/svg"
   xmlns="http://www.w3.org/2000/svg"
   xmlns:sodipodi="http://sodipodi.sourceforge.net/DTD/sodipodi-0.dtd"
   xmlns:inkscape="http://www.inkscape.org/namespaces/inkscape"
   width="497.67947"
   height="357.85117"
   id="svg6033"
   sodipodi:version="0.32"
   inkscape:version="0.44"
   sodipodi:docbase="/home/yekcim/Desktop/Stock_SVG"
   sodipodi:docname="iconesChargement_carte.svg"
   version="1.0">
  <defs
     id="defs6035" />
  <sodipodi:namedview
     id="base"
     pagecolor="#ffffff"
     bordercolor="#666666"
     borderopacity="1.0"
     inkscape:pageopacity="0.0"
     inkscape:pageshadow="2"
     inkscape:zoom="0.37407338"
     inkscape:cx="367.71827"
     inkscape:cy="493.96503"
     inkscape:document-units="px"
     inkscape:current-layer="layer1"
     inkscape:window-width="1024"
     inkscape:window-height="686"
     inkscape:window-x="246"
     inkscape:window-y="95" />
  <metadata
     id="metadata6038">
    <rdf:RDF>
      <cc:Work
         rdf:about="">
        <dc:format>image/svg+xml</dc:format>
        <dc:type
           rdf:resource="http://purl.org/dc/dcmitype/StillImage" />
      </cc:Work>
    </rdf:RDF>
  </metadata>
  <g
     inkscape:label="Calque 1"
     inkscape:groupmode="layer"
     id="layer1"
     transform="translate(-121.5393,-275.2452)">
    <g
       id="g6858">
      <path
         id="rect6849"
         d="M 324.86592,287.75261 C 313.14295,288.20977 300.45076,294.87974 295.95967,303.06511 L 135.61592,595.28386 C 133.03854,599.98134 133.72988,604.1667 136.89717,606.97136 C 136.90276,606.97631 136.89157,606.99767 136.89717,607.00261 C 136.88767,607.92535 137.06043,608.79945 137.45967,609.59636 C 133.73137,615.79232 139.16497,620.59636 150.42842,620.59636 L 386.86592,620.59636 C 398.93054,620.59636 412.99168,615.08456 418.39717,608.25261 L 604.61592,372.94011 C 610.02141,366.10816 604.64929,360.59636 592.58467,360.59636 L 592.33467,360.59636 L 598.39717,352.25261 C 603.55447,345.14924 598.4323,339.38059 586.92842,339.15886 L 593.45967,329.09636 C 598.57197,321.21335 593.27752,314.8776 581.61592,314.87761 L 569.49092,314.87761 L 575.95967,303.06511 C 580.6144,294.58148 574.64929,287.75262 562.58467,287.75261 L 326.14717,287.75261 C 325.72302,287.75261 325.29307,287.73595 324.86592,287.75261 z "
         style="color:black;fill:#474747;fill-opacity:1;fill-rule:evenodd;stroke:white;stroke-width:25;stroke-linecap:butt;stroke-linejoin:miter;marker:none;marker-start:none;marker-mid:none;marker-end:none;stroke-miterlimit:4;stroke-dasharray:none;stroke-dashoffset:0;stroke-opacity:1;visibility:visible;display:inline;overflow:visible" />
      <rect
         transform="matrix(1,0,-0.620482,0.784221,0,0)"
         ry="15.725204"
         rx="21.777294"
         y="460.24496"
         x="619.8595"
         height="331.53918"
         width="280"
         id="rect6043"
         style="color:black;fill:#baa792;fill-opacity:1;fill-rule:evenodd;stroke:none;stroke-width:10;stroke-linecap:butt;stroke-linejoin:miter;marker:none;marker-start:none;marker-mid:none;marker-end:none;stroke-miterlimit:4;stroke-dasharray:none;stroke-dashoffset:0;stroke-opacity:1;visibility:visible;display:inline;overflow:visible" />
      <rect
         transform="matrix(1,0,-0.610455,0.792051,0,0)"
         ry="15.227571"
         rx="21.049812"
         y="453.89261"
         x="611.46405"
         height="321.0473"
         width="270.64645"
         id="rect6055"
         style="opacity:0.07079647;color:black;fill:black;fill-opacity:1;fill-rule:evenodd;stroke:none;stroke-width:10;stroke-linecap:butt;stroke-linejoin:miter;marker:none;marker-start:none;marker-mid:none;marker-end:none;stroke-miterlimit:4;stroke-dasharray:none;stroke-dashoffset:0;stroke-opacity:1;visibility:visible;display:inline;overflow:visible" />
      <rect
         transform="matrix(1,0,-0.587517,0.809212,0,0)"
         ry="16.160641"
         rx="21.645025"
         y="419.55048"
         x="576.00464"
         height="340.71964"
         width="278.29935"
         id="rect6045"
         style="color:black;fill:#baa792;fill-opacity:1;fill-rule:evenodd;stroke:none;stroke-width:10;stroke-linecap:butt;stroke-linejoin:miter;marker:none;marker-start:none;marker-mid:none;marker-end:none;stroke-miterlimit:4;stroke-dasharray:none;stroke-dashoffset:0;stroke-opacity:1;visibility:visible;display:inline;overflow:visible" />
      <rect
         transform="matrix(1,0,-0.563225,0.826303,0,0)"
         ry="15.662293"
         rx="21.049812"
         y="410.87082"
         x="556.51147"
         height="330.21289"
         width="270.64645"
         id="rect6049"
         style="opacity:0.07079647;color:black;fill:black;fill-opacity:1;fill-rule:evenodd;stroke:none;stroke-width:10;stroke-linecap:butt;stroke-linejoin:miter;marker:none;marker-start:none;marker-mid:none;marker-end:none;stroke-miterlimit:4;stroke-dasharray:none;stroke-dashoffset:0;stroke-opacity:1;visibility:visible;display:inline;overflow:visible" />
      <rect
         transform="matrix(1,0,-0.544116,0.83901,0,0)"
         ry="16.959591"
         rx="21.049812"
         y="375.70374"
         x="536.3811"
         height="357.56418"
         width="270.64645"
         id="rect6047"
         style="color:black;fill:#baa792;fill-opacity:1;fill-rule:evenodd;stroke:none;stroke-width:10;stroke-linecap:butt;stroke-linejoin:miter;marker:none;marker-start:none;marker-mid:none;marker-end:none;stroke-miterlimit:4;stroke-dasharray:none;stroke-dashoffset:0;stroke-opacity:1;visibility:visible;display:inline;overflow:visible" />
      <rect
         transform="matrix(1,0,-0.525356,0.850883,0,0)"
         ry="16.404423"
         rx="21.049812"
         y="369.62253"
         x="513.99506"
         height="345.85947"
         width="270.64645"
         id="rect6053"
         style="opacity:0.07079647;color:black;fill:black;fill-opacity:1;fill-rule:evenodd;stroke:none;stroke-width:10;stroke-linecap:butt;stroke-linejoin:miter;marker:none;marker-start:none;marker-mid:none;marker-end:none;stroke-miterlimit:4;stroke-dasharray:none;stroke-dashoffset:0;stroke-opacity:1;visibility:visible;display:inline;overflow:visible" />
      <rect
         transform="matrix(1,0,-0.481025,0.876707,0,0)"
         ry="17.466963"
         rx="21.777294"
         y="328.58932"
         x="462.3454"
         height="368.26123"
         width="280"
         id="rect6041"
         style="color:black;fill:#ae9477;fill-opacity:1;fill-rule:evenodd;stroke:none;stroke-width:10;stroke-linecap:butt;stroke-linejoin:miter;marker:none;marker-start:none;marker-mid:none;marker-end:none;stroke-miterlimit:4;stroke-dasharray:none;stroke-dashoffset:0;stroke-opacity:1;visibility:visible;display:inline;overflow:visible" />
      <rect
         transform="matrix(1,0,-0.486783,0.873523,0,0)"
         ry="16.561041"
         rx="20.553328"
         y="337.96448"
         x="472.0094"
         height="349.16129"
         width="264.26297"
         id="rect6051"
         style="color:black;fill:#cda981;fill-opacity:1;fill-rule:evenodd;stroke:none;stroke-width:10;stroke-linecap:butt;stroke-linejoin:miter;marker:none;marker-start:none;marker-mid:none;marker-end:none;stroke-miterlimit:4;stroke-dasharray:none;stroke-dashoffset:0;stroke-opacity:1;visibility:visible;display:inline;overflow:visible" />
      <path
         id="rect6192"
         d="M 328.99107,288.35268 C 318.09964,293.48556 306.2524,299.32571 293.83482,305.75893 L 159.64732,550.29018 C 163.73492,551.81069 167.64634,552.99314 171.24107,553.75893 C 213.38392,562.73674 175.9361,590.32452 219.08482,600.72768 C 253.07313,608.92225 300.8403,613.1689 386.95982,577.22768 C 486.24554,535.79163 380.52678,514.37677 376.24107,488.13393 C 372.53288,465.42746 332.92843,473.46709 305.52232,480.54018 C 265.17529,490.95313 244.09375,470.86434 245.52232,447.38393 C 246.87303,425.18323 288.34806,386.73702 318.39732,376.25893 C 361.96875,361.06571 374.08928,385.9338 414.80357,381.79018 C 453.16093,377.88644 521.32408,332.30814 512.95982,288.35268 L 328.99107,288.35268 z "
         style="opacity:0.15634215;color:black;fill:#c9853a;fill-opacity:1;fill-rule:evenodd;stroke:none;stroke-width:10;stroke-linecap:butt;stroke-linejoin:miter;marker:none;marker-start:none;marker-mid:none;marker-end:none;stroke-miterlimit:4;stroke-dasharray:none;stroke-dashoffset:0;stroke-opacity:1;visibility:visible;display:inline;overflow:visible" />
      <path
         id="rect6202"
         d="M 374.3125,288.23214 C 368.68935,289.60634 363.28809,291.67991 358.28125,294.79464 C 332.00388,306.04578 306.11365,318.3523 280.78125,331.70089 L 164.03125,544.45089 C 172.36863,547.02652 180.8262,549.366 188.3125,553.76339 C 198.4517,560.65512 203.75152,572.8951 203.875,584.91964 C 206.32701,592.30058 215.55476,591.85827 221.53125,594.16964 C 256.43184,602.35603 293.09478,597.26017 327.28125,587.98214 C 355.08048,580.05909 382.45205,568.98543 407.03125,553.51339 C 409.89722,550.89543 409.90797,546.1521 406.3125,544.29464 C 391.22771,528.82722 366.46313,522.01624 358.4375,500.29464 C 357.32315,495.69885 353.18058,492.92621 348.5,493.54464 C 320.81457,492.11055 294.64989,507.63677 266.78125,502.48214 C 249.1172,500.17515 233.82039,487.55266 228.53125,470.41964 C 223.35795,455.1285 226.75427,437.37397 237.53125,425.35714 C 259.22798,395.10165 291.46459,370.50346 328.8125,364.16964 C 349.03041,361.49777 368.79947,368.04086 387.875,373.38839 C 418.56057,378.37186 447.96276,362.02601 470.4375,342.60714 C 483.09968,331.21987 495.52274,315.4868 494.03125,297.51339 C 493.45112,294.17077 492.18919,291.04335 490.4375,288.23214 L 374.3125,288.23214 z "
         style="opacity:0.22123892;color:black;fill:#c68135;fill-opacity:1;fill-rule:evenodd;stroke:none;stroke-width:10;stroke-linecap:butt;stroke-linejoin:miter;marker:none;marker-start:none;marker-mid:none;marker-end:none;stroke-miterlimit:4;stroke-dasharray:none;stroke-dashoffset:0;stroke-opacity:1;visibility:visible;display:inline;overflow:visible" />
      <path
         id="rect6169"
         d="M 524.64286,287.95536 C 527.17347,301.70773 570.45062,310.18032 545.54911,330.83036 C 529.37821,344.24037 461.95537,385.60706 446.98661,392.95536 C 407.70091,412.24107 411.24268,398.57761 384.11161,410.83036 C 361.96874,420.83035 346.25,455.8125 368.39286,462.95536 C 390.53571,470.09821 399.84822,477.25894 402.70536,490.83036 C 403.58826,495.02413 409.95499,510.29661 419.83036,512.95536 C 435.82021,517.26032 443.88541,522.10776 448.54911,532.48661 L 574.29911,303.26786 C 578.95384,294.78423 572.98873,287.95537 560.92411,287.95536 L 524.64286,287.95536 z M 418.95536,586.39286 C 403.80976,591.20488 386.44773,594.52177 367.70536,600.11161 C 357.10268,603.27382 348.90692,607.01017 343.23661,610.83036 L 383.76786,610.83036 C 395.83248,610.83036 409.30063,604.0015 413.95536,595.51786 L 418.95536,586.39286 z "
         style="opacity:0.58997055;color:black;fill:#8ebde3;fill-opacity:1;fill-rule:evenodd;stroke:none;stroke-width:10;stroke-linecap:butt;stroke-linejoin:miter;marker:none;marker-start:none;marker-mid:none;marker-end:none;stroke-miterlimit:4;stroke-dasharray:none;stroke-dashoffset:0;stroke-opacity:1;visibility:visible;display:inline;overflow:visible" />
      <path
         id="rect6207"
         d="M 458.40279,302.52123 C 434.4527,304.25189 412.23648,317.85543 387.74654,315.67748 C 363.95873,320.48276 343.74146,334.90135 321.52779,343.95873 C 301.84222,353.6907 282.27682,363.83964 263.09029,374.61498 L 260.71529,378.98998 C 278.20556,365.82517 298.14272,356.03519 319.59029,351.08373 C 342.98835,346.32618 367.38892,349.86124 389.59029,357.89623 C 410.45947,362.35162 431.26746,353.72064 447.71529,341.27123 C 458.97563,333.12454 470.20323,322.45464 473.77779,308.64623 C 472.55389,301.86331 463.48558,302.55205 458.40279,302.52123 z M 207.34029,476.27123 L 176.62154,532.23998 C 182.36111,534.22041 188.13405,535.98823 193.74654,537.77123 C 210.54938,545.5121 222.80268,561.65631 226.80904,579.64623 C 276.39986,589.86769 327.35074,576.18173 372.27779,555.48998 C 374.12832,555.08315 374.89621,554.70199 374.96529,554.30248 C 374.96958,554.25986 374.94443,554.18954 374.93404,554.14623 C 374.92084,554.10276 374.8982,554.03431 374.87154,553.98998 C 374.47395,553.38456 372.8822,552.67171 371.40279,551.70873 C 360.34442,543.97049 349.59402,534.82457 343.12154,522.83373 C 313.63226,526.44572 283.13217,538.65417 253.52779,528.92748 C 229.7435,521.94022 212.41744,500.19268 207.34029,476.27123 z "
         style="opacity:0.29203539;color:black;fill:#c99352;fill-opacity:1;fill-rule:evenodd;stroke:none;stroke-width:10;stroke-linecap:butt;stroke-linejoin:miter;marker:none;marker-start:none;marker-mid:none;marker-end:none;stroke-miterlimit:4;stroke-dasharray:none;stroke-dashoffset:0;stroke-opacity:1;visibility:visible;display:inline;overflow:visible" />
      <path
         id="rect6181"
         d="M 543.16517,287.75892 C 541.60109,288.51994 540.14939,289.43443 539.07142,290.54017 C 550.95085,298.17875 563.89673,309.94779 562.41517,325.29017 L 574.60267,303.07142 C 579.2574,294.58779 573.29229,287.75891 561.22767,287.75892 L 543.16517,287.75892 z M 549.72767,348.41517 C 543.56849,354.12726 536.05669,358.72403 529.16517,362.88392 C 493.36293,385.88942 458.25769,412.11735 417.22767,425.04017 C 402.12636,428.1515 383.48229,426.35849 373.10267,439.91517 C 370.58534,443.10209 367.07883,447.65562 368.32142,451.57142 C 381.89707,455.17445 395.08679,462.06899 403.35267,473.60267 C 409.00006,480.64069 411.72223,489.44464 414.47767,497.72767 C 421.7716,505.26217 434.1934,503.39511 441.50892,511.13392 C 446.26606,514.71952 450.22286,519.1441 453.32142,524.10267 L 549.72767,348.41517 z "
         style="opacity:0.26548671;color:black;fill:#e7dfd6;fill-opacity:1;fill-rule:evenodd;stroke:none;stroke-width:10;stroke-linecap:butt;stroke-linejoin:miter;marker:none;marker-start:none;marker-mid:none;marker-end:none;stroke-miterlimit:4;stroke-dasharray:none;stroke-dashoffset:0;stroke-opacity:1;visibility:visible;display:inline;overflow:visible" />
      <path
         id="rect6174"
         d="M 559.86161,304.77232 C 562.44124,308.37474 564.37651,312.41867 565.67411,316.67857 L 570.29911,308.27232 C 566.8583,306.60343 563.32503,305.35778 559.86161,304.77232 z M 533.01786,376.20982 C 522.14501,383.16247 510.55169,389.27763 500.39286,397.05357 C 467.79371,418.21954 433.51069,441.024 393.98661,444.86607 C 388.56838,445.72293 383.06599,446.87443 378.58036,450.20982 C 397.66369,458.51123 412.52251,475.85061 418.14286,495.92857 C 424.94902,499.58429 433.52182,499.62989 439.45536,505.05357 C 445.36109,508.9937 450.31673,513.95 454.33036,519.58482 L 533.01786,376.20982 z "
         style="opacity:0.34218289;color:black;fill:#ddd2c7;fill-opacity:1;fill-rule:evenodd;stroke:none;stroke-width:10;stroke-linecap:butt;stroke-linejoin:miter;marker:none;marker-start:none;marker-mid:none;marker-end:none;stroke-miterlimit:4;stroke-dasharray:none;stroke-dashoffset:0;stroke-opacity:1;visibility:visible;display:inline;overflow:visible" />
      <path
         id="rect6213"
         d="M 445.76339,320.48214 L 444.79464,320.76339 L 444.29464,320.88839 C 427.08785,325.8804 409.40761,330.51283 391.51339,330.70089 C 388.98295,331.13293 387.63293,331.57813 387.20089,332.01339 C 387.19606,332.01851 387.17423,332.03953 387.16964,332.04464 C 387.1653,332.04975 387.14248,332.07078 387.13839,332.07589 C 387.12685,332.09121 387.11649,332.1231 387.10714,332.13839 C 387.09851,332.15367 387.08237,332.18565 387.07589,332.20089 C 387.07397,332.20597 387.07758,332.22707 387.07589,332.23214 C 387.07444,332.23721 387.04586,332.25832 387.04464,332.26339 C 387.04366,332.26845 387.04539,332.28958 387.04464,332.29464 C 387.04412,332.29969 387.04493,332.32084 387.04464,332.32589 C 387.04458,332.33093 387.04447,332.3521 387.04464,332.35714 C 387.04504,332.36218 387.04401,332.38336 387.04464,332.38839 C 387.04719,332.40347 387.07132,332.43585 387.07589,332.45089 C 387.07763,332.4559 387.07392,332.47714 387.07589,332.48214 C 387.08245,332.49713 387.09862,332.5297 387.10714,332.54464 C 387.11041,332.54961 387.1349,332.57093 387.13839,332.57589 C 387.63034,333.2354 390.01785,333.85763 393.13839,334.32589 C 405.79914,337.74596 419.69437,337.24684 431.10714,330.35714 C 436.38301,327.63129 441.24851,324.36682 445.76339,320.48214 z M 197.35714,483.60714 L 183.26339,509.23214 C 200.99513,515.8215 219.9154,520.95111 231.88839,536.16964 C 238.57933,542.8882 242.25957,552.39239 247.20089,559.79464 C 280.81021,563.84621 314.71074,557.20094 346.04464,545.26339 C 343.08802,542.50988 340.94917,536.45344 335.85714,539.38839 C 306.36237,545.40518 274.08429,551.77056 245.41964,539.16964 C 221.99154,529.20829 204.69479,507.86873 197.35714,483.60714 z "
         style="opacity:0.33038348;color:black;fill:#be8547;fill-opacity:1;fill-rule:evenodd;stroke:none;stroke-width:10;stroke-linecap:butt;stroke-linejoin:miter;marker:none;marker-start:none;marker-mid:none;marker-end:none;stroke-miterlimit:4;stroke-dasharray:none;stroke-dashoffset:0;stroke-opacity:1;visibility:visible;display:inline;overflow:visible" />
      <path
         sodipodi:nodetypes="ccccccccccccccccccccc"
         id="path6057"
         d="M 419.85283,295.18516 L 375.9375,382.71875 L 258.64408,382.71875 L 255.8443,387.71875 L 373.4375,387.71875 L 322.6875,489.15625 L 199.52358,489.15625 L 196.59319,494.15625 L 320.1875,494.15625 L 267.4375,600.25371 L 273.78867,600.22874 L 326.71875,494.15625 L 461.0625,494.15625 L 463.67874,489.15625 L 329.21875,489.15625 L 379.9375,387.71875 L 520,387.71875 L 522.8087,382.71875 L 382.4375,382.71875 L 426.25358,295.24917 L 419.85283,295.18516 z "
         style="opacity:0.4424779;fill:white;fill-opacity:1;fill-rule:evenodd;stroke:none;stroke-width:5;stroke-linecap:butt;stroke-linejoin:miter;stroke-miterlimit:4;stroke-opacity:1" />
      <rect
         transform="matrix(1,0,-0.609706,0.792627,0,0)"
         ry="3.4129872"
         rx="3.9761121"
         y="579.51166"
         x="593.8869"
         height="10.54924"
         width="10.291123"
         id="rect6232"
         style="opacity:0.4424779;color:black;fill:#261c11;fill-opacity:1;fill-rule:evenodd;stroke:none;stroke-width:5;stroke-linecap:butt;stroke-linejoin:miter;marker:none;marker-start:none;marker-mid:none;marker-end:none;stroke-miterlimit:4;stroke-dasharray:none;stroke-dashoffset:0;stroke-opacity:1;visibility:visible;display:inline;overflow:visible" />
      <rect
         transform="matrix(1,0,-0.583823,0.811881,0,0)"
         ry="3.332051"
         rx="3.9761121"
         y="505.16354"
         x="599.83649"
         height="10.299074"
         width="10.291123"
         id="rect6234"
         style="opacity:0.4424779;color:black;fill:#261c11;fill-opacity:1;fill-rule:evenodd;stroke:none;stroke-width:5;stroke-linecap:butt;stroke-linejoin:miter;marker:none;marker-start:none;marker-mid:none;marker-end:none;stroke-miterlimit:4;stroke-dasharray:none;stroke-dashoffset:0;stroke-opacity:1;visibility:visible;display:inline;overflow:visible" />
      <rect
         transform="matrix(1,0,-0.583823,0.811881,0,0)"
         ry="3.332051"
         rx="7.4552054"
         y="501.20245"
         x="612.05719"
         height="10.299074"
         width="19.295845"
         id="rect6236"
         style="opacity:0.4424779;color:black;fill:#261c11;fill-opacity:1;fill-rule:evenodd;stroke:none;stroke-width:5;stroke-linecap:butt;stroke-linejoin:miter;marker:none;marker-start:none;marker-mid:none;marker-end:none;stroke-miterlimit:4;stroke-dasharray:none;stroke-dashoffset:0;stroke-opacity:1;visibility:visible;display:inline;overflow:visible" />
      <rect
         transform="matrix(1,0,-0.583823,0.811881,0,0)"
         ry="3.332051"
         rx="6.9581923"
         y="490.90347"
         x="604.98206"
         height="10.299074"
         width="18.009455"
         id="rect6238"
         style="opacity:0.4424779;color:black;fill:#261c11;fill-opacity:1;fill-rule:evenodd;stroke:none;stroke-width:5;stroke-linecap:butt;stroke-linejoin:miter;marker:none;marker-start:none;marker-mid:none;marker-end:none;stroke-miterlimit:4;stroke-dasharray:none;stroke-dashoffset:0;stroke-opacity:1;visibility:visible;display:inline;overflow:visible" />
      <rect
         transform="matrix(1,0,-0.583823,0.811881,0,0)"
         ry="3.332051"
         rx="3.9761121"
         y="496.4491"
         x="590.83179"
         height="10.299074"
         width="10.291123"
         id="rect6240"
         style="opacity:0.4424779;color:black;fill:#261c11;fill-opacity:1;fill-rule:evenodd;stroke:none;stroke-width:5;stroke-linecap:butt;stroke-linejoin:miter;marker:none;marker-start:none;marker-mid:none;marker-end:none;stroke-miterlimit:4;stroke-dasharray:none;stroke-dashoffset:0;stroke-opacity:1;visibility:visible;display:inline;overflow:visible" />
      <rect
         transform="matrix(1,0,-0.583823,0.811881,0,0)"
         ry="3.332051"
         rx="3.9761121"
         y="517.83923"
         x="597.26373"
         height="10.299074"
         width="10.291123"
         id="rect6242"
         style="opacity:0.4424779;color:black;fill:#261c11;fill-opacity:1;fill-rule:evenodd;stroke:none;stroke-width:5;stroke-linecap:butt;stroke-linejoin:miter;marker:none;marker-start:none;marker-mid:none;marker-end:none;stroke-miterlimit:4;stroke-dasharray:none;stroke-dashoffset:0;stroke-opacity:1;visibility:visible;display:inline;overflow:visible" />
      <rect
         transform="matrix(1,0,-0.583823,0.811881,0,0)"
         ry="3.332051"
         rx="3.9761121"
         y="540.02161"
         x="604.33887"
         height="10.299074"
         width="10.291123"
         id="rect6244"
         style="opacity:0.4424779;color:black;fill:#261c11;fill-opacity:1;fill-rule:evenodd;stroke:none;stroke-width:5;stroke-linecap:butt;stroke-linejoin:miter;marker:none;marker-start:none;marker-mid:none;marker-end:none;stroke-miterlimit:4;stroke-dasharray:none;stroke-dashoffset:0;stroke-opacity:1;visibility:visible;display:inline;overflow:visible" />
      <rect
         transform="matrix(1,0,-0.583823,0.811881,0,0)"
         ry="3.332051"
         rx="3.9761121"
         y="551.11279"
         x="621.70508"
         height="10.299074"
         width="10.291123"
         id="rect6246"
         style="opacity:0.4424779;color:black;fill:#261c11;fill-opacity:1;fill-rule:evenodd;stroke:none;stroke-width:5;stroke-linecap:butt;stroke-linejoin:miter;marker:none;marker-start:none;marker-mid:none;marker-end:none;stroke-miterlimit:4;stroke-dasharray:none;stroke-dashoffset:0;stroke-opacity:1;visibility:visible;display:inline;overflow:visible" />
      <rect
         transform="matrix(1,0,-0.62469,0.780873,0,0)"
         ry="2.6649036"
         rx="3.230592"
         y="414.02548"
         x="631.69"
         height="8.2369804"
         width="8.3615408"
         id="rect6248"
         style="opacity:0.4424779;color:black;fill:#261c11;fill-opacity:1;fill-rule:evenodd;stroke:none;stroke-width:5;stroke-linecap:butt;stroke-linejoin:miter;marker:none;marker-start:none;marker-mid:none;marker-end:none;stroke-miterlimit:4;stroke-dasharray:none;stroke-dashoffset:0;stroke-opacity:1;visibility:visible;display:inline;overflow:visible" />
      <rect
         transform="matrix(1,0,-0.599997,0.800003,0,0)"
         ry="4.161869"
         rx="8.9462452"
         y="416.18546"
         x="623.40558"
         height="12.863968"
         width="23.15501"
         id="rect6250"
         style="opacity:0.4424779;color:black;fill:#261c11;fill-opacity:1;fill-rule:evenodd;stroke:none;stroke-width:5;stroke-linecap:butt;stroke-linejoin:miter;marker:none;marker-start:none;marker-mid:none;marker-end:none;stroke-miterlimit:4;stroke-dasharray:none;stroke-dashoffset:0;stroke-opacity:1;visibility:visible;display:inline;overflow:visible" />
      <rect
         transform="matrix(1,0,-0.599993,0.800005,0,0)"
         ry="2.0809453"
         rx="3.230592"
         y="388.04419"
         x="701.06934"
         height="6.4320164"
         width="8.3615408"
         id="rect6252"
         style="opacity:0.4424779;color:black;fill:#261c11;fill-opacity:1;fill-rule:evenodd;stroke:none;stroke-width:5;stroke-linecap:butt;stroke-linejoin:miter;marker:none;marker-start:none;marker-mid:none;marker-end:none;stroke-miterlimit:4;stroke-dasharray:none;stroke-dashoffset:0;stroke-opacity:1;visibility:visible;display:inline;overflow:visible" />
      <rect
         transform="matrix(1,0,-0.583823,0.811881,0,0)"
         ry="3.332051"
         rx="3.9761121"
         y="654.89441"
         x="710.16199"
         height="10.299074"
         width="10.291123"
         id="rect6254"
         style="opacity:0.4424779;color:black;fill:#261c11;fill-opacity:1;fill-rule:evenodd;stroke:none;stroke-width:5;stroke-linecap:butt;stroke-linejoin:miter;marker:none;marker-start:none;marker-mid:none;marker-end:none;stroke-miterlimit:4;stroke-dasharray:none;stroke-dashoffset:0;stroke-opacity:1;visibility:visible;display:inline;overflow:visible" />
      <rect
         transform="matrix(1,0,-0.583823,0.811881,0,0)"
         ry="3.332051"
         rx="3.9761121"
         y="646.97217"
         x="671.44745"
         height="10.299074"
         width="10.291123"
         id="rect6256"
         style="opacity:0.4424779;color:black;fill:#261c11;fill-opacity:1;fill-rule:evenodd;stroke:none;stroke-width:5;stroke-linecap:butt;stroke-linejoin:miter;marker:none;marker-start:none;marker-mid:none;marker-end:none;stroke-miterlimit:4;stroke-dasharray:none;stroke-dashoffset:0;stroke-opacity:1;visibility:visible;display:inline;overflow:visible" />
      <path
         id="path6314"
         d="M 450.23604,290.17689 C 450.23604,290.17689 471.46145,309.47272 452.16562,316.54785 C 432.86979,323.62299 418.07632,318.47744 402.63966,320.40702 C 387.20299,322.3366 384.63022,330.69813 371.76633,333.27091 C 358.90244,335.84368 345.39536,335.84368 328.02911,338.41646 C 310.66287,340.98924 288.79426,346.13479 283.00551,353.85313 C 277.21676,361.57146 261.1369,373.79215 261.7801,383.44007 C 262.42329,393.08798 274.00079,398.23354 281.71912,403.37909 C 289.43745,408.52465 297.79898,413.02701 288.79426,423.96131 C 279.78954,434.89561 269.49843,436.8252 261.1369,450.97547 C 252.77538,465.12575 215.4701,479.27602 237.33871,492.7831 C 259.20732,506.29019 288.15107,488.92394 296.51259,494.71269 C 304.87412,500.50144 308.09009,509.50616 284.93509,507.57657 C 261.7801,505.64699 238.6251,506.93338 244.41385,515.29491 C 250.2026,523.65643 271.42801,516.58129 284.2919,515.9381 C 297.15579,515.29491 320.31078,517.22449 320.31078,524.29963 C 320.31078,531.37476 317.73801,548.09782 304.87412,551.31379 C 292.01023,554.52976 288.79426,557.74573 266.28246,550.6706 C 243.77066,543.59546 242.48427,539.0931 233.47955,546.16823 C 224.47483,553.24337 210.32455,564.82087 200.67664,562.89129 C 191.02872,560.9617 189.09914,555.17296 189.09914,551.31379 C 189.09914,547.45462 194.24469,542.30907 187.81275,538.4499 C 181.3808,534.59074 175.59206,533.94754 175.59206,533.94754"
         style="opacity:0.11504427;fill:none;fill-opacity:0.75;fill-rule:evenodd;stroke:#040404;stroke-width:1pt;stroke-linecap:butt;stroke-linejoin:miter;stroke-opacity:1" />
      <rect
         transform="matrix(1,0,-0.583823,0.811881,0,0)"
         ry="3.332051"
         rx="3.9761121"
         y="658.06335"
         x="663.12933"
         height="10.299074"
         width="10.291123"
         id="rect6258"
         style="opacity:0.4424779;color:black;fill:#261c11;fill-opacity:1;fill-rule:evenodd;stroke:none;stroke-width:5;stroke-linecap:butt;stroke-linejoin:miter;marker:none;marker-start:none;marker-mid:none;marker-end:none;stroke-miterlimit:4;stroke-dasharray:none;stroke-dashoffset:0;stroke-opacity:1;visibility:visible;display:inline;overflow:visible" />
      <rect
         transform="matrix(1,0,-0.657926,0.753082,0,0)"
         ry="5.5264516"
         rx="7.431726"
         y="723.10834"
         x="683.36493"
         height="17.081772"
         width="19.235073"
         id="rect6260"
         style="opacity:0.4424779;color:black;fill:#261c11;fill-opacity:1;fill-rule:evenodd;stroke:none;stroke-width:5;stroke-linecap:butt;stroke-linejoin:miter;marker:none;marker-start:none;marker-mid:none;marker-end:none;stroke-miterlimit:4;stroke-dasharray:none;stroke-dashoffset:0;stroke-opacity:1;visibility:visible;display:inline;overflow:visible" />
      <rect
         transform="matrix(1,0,-0.602621,0.798027,0,0)"
         ry="1.8253398"
         rx="2.2483027"
         y="656.99359"
         x="602.13953"
         height="5.641963"
         width="5.8191419"
         id="rect6262"
         style="opacity:0.4424779;color:black;fill:#261c11;fill-opacity:1;fill-rule:evenodd;stroke:none;stroke-width:5;stroke-linecap:butt;stroke-linejoin:miter;marker:none;marker-start:none;marker-mid:none;marker-end:none;stroke-miterlimit:4;stroke-dasharray:none;stroke-dashoffset:0;stroke-opacity:1;visibility:visible;display:inline;overflow:visible" />
      <flowRoot
         transform="matrix(0.52644,0,-0.291566,0.280003,253.8867,382.2845)"
         id="flowRoot6264"
         xml:space="preserve"><flowRegion
           id="flowRegion6266"><rect
             y="507.57657"
             x="212.25414"
             height="14.793469"
             width="103.55429"
             id="rect6268" /></flowRegion><flowPara
           id="flowPara6270">rerggfsdg</flowPara></flowRoot>      <flowRoot
         transform="matrix(0.52644,0,-0.291566,0.280003,361.1114,376.5425)"
         id="flowRoot6272"
         xml:space="preserve"><flowRegion
           id="flowRegion6274"><rect
             y="507.57657"
             x="212.25414"
             height="14.793469"
             width="103.55429"
             id="rect6276" /></flowRegion><flowPara
           id="flowPara6278">rerggfsdg</flowPara></flowRoot>      <flowRoot
         transform="matrix(0.52644,0,-0.291566,0.280003,302.5807,269.7722)"
         id="flowRoot6280"
         xml:space="preserve"><flowRegion
           id="flowRegion6282"><rect
             y="507.57657"
             x="212.25414"
             height="14.793469"
             width="103.55429"
             id="rect6284" /></flowRegion><flowPara
           id="flowPara6286">rerggfsdg</flowPara></flowRoot>      <flowRoot
         transform="matrix(0.52644,0,-0.291566,0.280003,370.1162,181.6546)"
         id="flowRoot6288"
         xml:space="preserve"><flowRegion
           id="flowRegion6290"><rect
             y="507.57657"
             x="212.25414"
             height="14.793469"
             width="103.55429"
             id="rect6292" /></flowRegion><flowPara
           id="flowPara6294">rerggfsdg</flowPara></flowRoot>      <flowRoot
         transform="matrix(0.52644,0,-0.291566,0.280003,494.8959,176.5091)"
         id="flowRoot6296"
         xml:space="preserve"><flowRegion
           id="flowRegion6298"><rect
             y="507.57657"
             x="212.25414"
             height="14.793469"
             width="103.55429"
             id="rect6300" /></flowRegion><flowPara
           id="flowPara6302">rerggfsdg</flowPara></flowRoot>      <flowRoot
         transform="matrix(0.52644,0,-0.291566,0.280003,452.445,194.5185)"
         id="flowRoot6304"
         xml:space="preserve"><flowRegion
           id="flowRegion6306"><rect
             y="507.57657"
             x="212.25414"
             height="14.793469"
             width="103.55429"
             id="rect6308" /></flowRegion><flowPara
           id="flowPara6310">rerggfsdg</flowPara></flowRoot>    </g>
  </g>
</svg>
