<?xml version="1.0" encoding="UTF-8" standalone="no"?>
<!-- Created with Inkscape (http://www.inkscape.org/) -->
<svg
   xmlns:dc="http://purl.org/dc/elements/1.1/"
   xmlns:cc="http://web.resource.org/cc/"
   xmlns:rdf="http://www.w3.org/1999/02/22-rdf-syntax-ns#"
   xmlns:svg="http://www.w3.org/2000/svg"
   xmlns="http://www.w3.org/2000/svg"
   xmlns:xlink="http://www.w3.org/1999/xlink"
   xmlns:sodipodi="http://sodipodi.sourceforge.net/DTD/sodipodi-0.dtd"
   xmlns:inkscape="http://www.inkscape.org/namespaces/inkscape"
   width="3000"
   height="2200"
   id="svg1315"
   sodipodi:version="0.32"
   inkscape:version="0.44"
   sodipodi:docbase="/home/yekcim/Mes dessins/Wormux/Maps/EasterIsland"
   sodipodi:docname="cartepaques.svg"
   version="1.0"
   inkscape:export-filename="/home/yekcim/Desktop/map.png"
   inkscape:export-xdpi="90"
   inkscape:export-ydpi="90">
  <defs
     id="defs1317">
    <linearGradient
       inkscape:collect="always"
       id="linearGradient3207">
      <stop
         style="stop-color:#6c693f;stop-opacity:1;"
         offset="0"
         id="stop3209" />
      <stop
         style="stop-color:#6c693f;stop-opacity:0;"
         offset="1"
         id="stop3211" />
    </linearGradient>
    <linearGradient
       inkscape:collect="always"
       id="linearGradient3199">
      <stop
         style="stop-color:#6c693f;stop-opacity:1;"
         offset="0"
         id="stop3201" />
      <stop
         style="stop-color:#6c693f;stop-opacity:0;"
         offset="1"
         id="stop3203" />
    </linearGradient>
    <linearGradient
       inkscape:collect="always"
       id="linearGradient3191">
      <stop
         style="stop-color:#6c693f;stop-opacity:1;"
         offset="0"
         id="stop3193" />
      <stop
         style="stop-color:#6c693f;stop-opacity:0;"
         offset="1"
         id="stop3195" />
    </linearGradient>
    <linearGradient
       inkscape:collect="always"
       id="linearGradient3183">
      <stop
         style="stop-color:#6c693f;stop-opacity:1;"
         offset="0"
         id="stop3185" />
      <stop
         style="stop-color:#6c693f;stop-opacity:0;"
         offset="1"
         id="stop3187" />
    </linearGradient>
    <linearGradient
       inkscape:collect="always"
       id="linearGradient3175">
      <stop
         style="stop-color:#6c693f;stop-opacity:1;"
         offset="0"
         id="stop3177" />
      <stop
         style="stop-color:#6c693f;stop-opacity:0;"
         offset="1"
         id="stop3179" />
    </linearGradient>
    <linearGradient
       inkscape:collect="always"
       id="linearGradient3165">
      <stop
         style="stop-color:#6c693f;stop-opacity:1;"
         offset="0"
         id="stop3167" />
      <stop
         style="stop-color:#6c693f;stop-opacity:0;"
         offset="1"
         id="stop3169" />
    </linearGradient>
    <linearGradient
       inkscape:collect="always"
       id="linearGradient3157">
      <stop
         style="stop-color:#6c693f;stop-opacity:1;"
         offset="0"
         id="stop3159" />
      <stop
         style="stop-color:#6c693f;stop-opacity:0;"
         offset="1"
         id="stop3161" />
    </linearGradient>
    <linearGradient
       inkscape:collect="always"
       id="linearGradient3149">
      <stop
         style="stop-color:#6c693f;stop-opacity:1;"
         offset="0"
         id="stop3151" />
      <stop
         style="stop-color:#6c693f;stop-opacity:0;"
         offset="1"
         id="stop3153" />
    </linearGradient>
    <linearGradient
       inkscape:collect="always"
       id="linearGradient3141">
      <stop
         style="stop-color:#6c693f;stop-opacity:1;"
         offset="0"
         id="stop3143" />
      <stop
         style="stop-color:#6c693f;stop-opacity:0;"
         offset="1"
         id="stop3145" />
    </linearGradient>
    <linearGradient
       inkscape:collect="always"
       id="linearGradient3133">
      <stop
         style="stop-color:#6c693f;stop-opacity:1;"
         offset="0"
         id="stop3135" />
      <stop
         style="stop-color:#6c693f;stop-opacity:0;"
         offset="1"
         id="stop3137" />
    </linearGradient>
    <linearGradient
       inkscape:collect="always"
       id="linearGradient3125">
      <stop
         style="stop-color:#6c693f;stop-opacity:1;"
         offset="0"
         id="stop3127" />
      <stop
         style="stop-color:#6c693f;stop-opacity:0;"
         offset="1"
         id="stop3129" />
    </linearGradient>
    <linearGradient
       inkscape:collect="always"
       id="linearGradient3117">
      <stop
         style="stop-color:#6c693f;stop-opacity:1;"
         offset="0"
         id="stop3119" />
      <stop
         style="stop-color:#6c693f;stop-opacity:0;"
         offset="1"
         id="stop3121" />
    </linearGradient>
    <linearGradient
       inkscape:collect="always"
       id="linearGradient3109">
      <stop
         style="stop-color:#6c693f;stop-opacity:1;"
         offset="0"
         id="stop3111" />
      <stop
         style="stop-color:#6c693f;stop-opacity:0;"
         offset="1"
         id="stop3113" />
    </linearGradient>
    <linearGradient
       inkscape:collect="always"
       id="linearGradient3101">
      <stop
         style="stop-color:#6c693f;stop-opacity:1;"
         offset="0"
         id="stop3103" />
      <stop
         style="stop-color:#6c693f;stop-opacity:0;"
         offset="1"
         id="stop3105" />
    </linearGradient>
    <linearGradient
       id="linearGradient21492">
      <stop
         style="stop-color:#ff0000;stop-opacity:1;"
         offset="0"
         id="stop21494" />
      <stop
         id="stop21502"
         offset="0.35714287"
         style="stop-color:#ff0000;stop-opacity:0.74901961;" />
      <stop
         id="stop21500"
         offset="0.35714287"
         style="stop-color:#ff0000;stop-opacity:0.75213677;" />
      <stop
         style="stop-color:#1f1f1f;stop-opacity:0;"
         offset="1"
         id="stop21496" />
    </linearGradient>
    <linearGradient
       id="linearGradient9197">
      <stop
         style="stop-color:#c8ced1;stop-opacity:1;"
         offset="0"
         id="stop9199" />
      <stop
         id="stop10706"
         offset="1"
         style="stop-color:#ffffff;stop-opacity:1;" />
      <stop
         style="stop-color:#c8ced1;stop-opacity:0;"
         offset="1"
         id="stop9201" />
    </linearGradient>
    <linearGradient
       inkscape:collect="always"
       xlink:href="#linearGradient9197"
       id="linearGradient1945"
       gradientUnits="userSpaceOnUse"
       gradientTransform="matrix(1.874999,0,0,2.749999,1.015471e-5,-403.3331)"
       x1="717.58514"
       y1="145.16667"
       x2="717.58514"
       y2="1030.2667" />
    <linearGradient
       inkscape:collect="always"
       xlink:href="#linearGradient3101"
       id="linearGradient3107"
       x1="722.7777"
       y1="2223.5247"
       x2="1134.5604"
       y2="2223.5247"
       gradientUnits="userSpaceOnUse" />
    <linearGradient
       inkscape:collect="always"
       xlink:href="#linearGradient3109"
       id="linearGradient3115"
       x1="529.16892"
       y1="2330.7723"
       x2="947.2434"
       y2="2330.7723"
       gradientUnits="userSpaceOnUse" />
    <linearGradient
       inkscape:collect="always"
       xlink:href="#linearGradient3117"
       id="linearGradient3123"
       x1="590.3438"
       y1="2070.5304"
       x2="1082.8675"
       y2="2070.5304"
       gradientUnits="userSpaceOnUse" />
    <linearGradient
       inkscape:collect="always"
       xlink:href="#linearGradient3125"
       id="linearGradient3131"
       x1="625.52292"
       y1="1894.8494"
       x2="1150.4797"
       y2="1894.8494"
       gradientUnits="userSpaceOnUse"
       gradientTransform="matrix(-1,0,0,1,1776.003,0)" />
    <linearGradient
       inkscape:collect="always"
       xlink:href="#linearGradient3133"
       id="linearGradient3139"
       x1="1159.325"
       y1="2170.0086"
       x2="1637.8584"
       y2="2170.0086"
       gradientUnits="userSpaceOnUse"
       gradientTransform="matrix(0.986938,0.161102,0.161102,-0.986938,-338.3356,4103.885)" />
    <linearGradient
       inkscape:collect="always"
       xlink:href="#linearGradient3141"
       id="linearGradient3147"
       x1="1235.4403"
       y1="2354.9487"
       x2="1690.7397"
       y2="2354.9487"
       gradientUnits="userSpaceOnUse" />
    <linearGradient
       inkscape:collect="always"
       xlink:href="#linearGradient3149"
       id="linearGradient3155"
       x1="1299.1741"
       y1="2035.245"
       x2="1551.1201"
       y2="2035.245"
       gradientUnits="userSpaceOnUse" />
    <radialGradient
       inkscape:collect="always"
       xlink:href="#linearGradient3157"
       id="radialGradient3163"
       cx="1525.5629"
       cy="1937.4059"
       fx="1525.5629"
       fy="1937.4059"
       r="175.97501"
       gradientTransform="matrix(1,0,0,0.276075,0,1402.536)"
       gradientUnits="userSpaceOnUse" />
    <linearGradient
       inkscape:collect="always"
       xlink:href="#linearGradient3165"
       id="linearGradient3173"
       x1="1366.6285"
       y1="1787.0822"
       x2="1782.2334"
       y2="1787.0822"
       gradientUnits="userSpaceOnUse" />
    <linearGradient
       inkscape:collect="always"
       xlink:href="#linearGradient3175"
       id="linearGradient3181"
       x1="1770.2517"
       y1="2003.8419"
       x2="2195.9637"
       y2="2003.8419"
       gradientUnits="userSpaceOnUse" />
    <linearGradient
       inkscape:collect="always"
       xlink:href="#linearGradient3183"
       id="linearGradient3189"
       x1="1693.4684"
       y1="2203.5363"
       x2="1976.0767"
       y2="2203.5363"
       gradientUnits="userSpaceOnUse"
       gradientTransform="matrix(-1,0,0,1,3588.912,0)" />
    <linearGradient
       inkscape:collect="always"
       xlink:href="#linearGradient3191"
       id="linearGradient3197"
       x1="1906.9888"
       y1="2149.9264"
       x2="2205.2731"
       y2="2149.9264"
       gradientUnits="userSpaceOnUse"
       gradientTransform="matrix(-1,0,0,1,4112.262,0)" />
    <linearGradient
       inkscape:collect="always"
       xlink:href="#linearGradient3199"
       id="linearGradient3205"
       x1="2252.4048"
       y1="2186.5415"
       x2="2450.3407"
       y2="2186.5415"
       gradientUnits="userSpaceOnUse" />
    <linearGradient
       inkscape:collect="always"
       xlink:href="#linearGradient3207"
       id="linearGradient3213"
       x1="2089.6251"
       y1="1929.1426"
       x2="2432.581"
       y2="1929.1426"
       gradientUnits="userSpaceOnUse" />
  </defs>
  <sodipodi:namedview
     id="base"
     pagecolor="#ffffff"
     bordercolor="#666666"
     borderopacity="1.0"
     inkscape:pageopacity="0.0"
     inkscape:pageshadow="2"
     inkscape:zoom="0.28524178"
     inkscape:cx="1830.9546"
     inkscape:cy="750.70511"
     inkscape:current-layer="layer1"
     inkscape:document-units="px"
     inkscape:window-width="1270"
     inkscape:window-height="945"
     inkscape:window-x="0"
     inkscape:window-y="25"
     width="3000px"
     height="2200px" />
  <metadata
     id="metadata1320">
    <rdf:RDF>
      <cc:Work
         rdf:about="">
        <dc:format>image/svg+xml</dc:format>
        <dc:type
           rdf:resource="http://purl.org/dc/dcmitype/StillImage" />
      </cc:Work>
    </rdf:RDF>
  </metadata>
  <g
     id="layer1"
     inkscape:label="sky"
     inkscape:groupmode="layer"
     style="display:inline"
     sodipodi:insensitive="true">
    <rect
       style="fill:url(#linearGradient1945);fill-opacity:1;stroke:none;stroke-width:3;stroke-miterlimit:4;stroke-dasharray:none;stroke-opacity:1"
       id="rect1323"
       width="3000"
       height="2200"
       x="0"
       y="0"
       inkscape:export-filename="/donnees/Images/Wormux/fondcartepaques.png"
       inkscape:export-xdpi="90"
       inkscape:export-ydpi="90" />
    <path
       style="opacity:0.40065146;fill:white;fill-opacity:1;fill-rule:evenodd;stroke:none;stroke-width:1px;stroke-linecap:butt;stroke-linejoin:miter;stroke-opacity:1"
       d="M 312.24119,1375.2519 C 357.72582,1388.6967 405.9119,1378.3349 452.52449,1382.5773 C 562.03243,1380.2305 671.72736,1398.3329 781.23151,1388.5543 C 833.9096,1374.6481 886.8771,1385.6483 939.89401,1382.7838 C 965.12042,1383.8964 1050.089,1376.7702 981.86012,1365.2956 C 931.76398,1358.6239 936.73188,1331.3668 885.50887,1340.5557 C 840.03552,1330.4409 832.10193,1318.6409 836.01289,1305.0206 C 810.98973,1268.5603 747.52031,1270.3041 709.26852,1312.1203 C 696.68397,1339.4548 657.55369,1334.9413 681.93505,1301.1526 C 733.31328,1270.4461 714.39312,1215.0419 663.639,1210.3922 C 627.73086,1171.7049 588.054,1175.0212 557.66823,1197.6095 C 527.04434,1199.4081 511.52536,1262.0294 480.79357,1203.1862 C 449.84402,1195.5863 451.72582,1237.7464 424.46703,1247.1518 C 415.59195,1273.3238 376.81425,1297.685 357.4913,1279.9365 C 340.38816,1293.5249 337.98723,1360.8252 313.32536,1358.0488 L 312.35827,1365.7286 L 312.24119,1375.2519 L 312.24119,1375.2519 z "
       id="path1952"
       sodipodi:nodetypes="cccccccccccccccccc" />
    <path
       style="opacity:0.40065146;fill:white;fill-opacity:1;fill-rule:evenodd;stroke:none;stroke-width:1px;stroke-linecap:butt;stroke-linejoin:miter;stroke-opacity:1"
       d="M 1753.2175,1259.2031 C 1806.2466,1272.4393 1861.4515,1259.3665 1915.0247,1268.9701 C 1969.6517,1272.6288 2026.1738,1280.0479 2079.286,1263.9608 C 2112.1577,1264.2549 2170.1079,1274.6982 2186.969,1255.4107 C 1991.6982,1263.8571 1981.6094,1173.5844 1989.0872,1100.7565 C 1955.2482,1075.2979 1921.9734,1082.3618 1899.4306,1118.5905 C 1883.2913,1131.0644 1866.1025,1172.1619 1851.7584,1136.5981 C 1817.8142,1130.1565 1826.5785,1189.4034 1806.1634,1210.678 C 1795.9601,1254.4111 1775.4576,1173.1316 1773.3046,1221.5566 C 1777.149,1241.0014 1745.5843,1239.2561 1753.2175,1259.2031 z "
       id="path1954"
       sodipodi:nodetypes="cccccccccc" />
    <path
       style="opacity:0.40065146;fill:white;fill-opacity:1;fill-rule:evenodd;stroke:none;stroke-width:1px;stroke-linecap:butt;stroke-linejoin:miter;stroke-opacity:1"
       d="M 2675.2195,927.51016 C 2709.8426,934.399 2745.4995,928.06512 2780.3239,934.07816 C 2813.0036,940.58421 2844.7775,927.92612 2877.1052,931.47388 C 2890.8327,935.53442 2927.4051,925.77497 2896.4981,920.38826 C 2878.7737,912.09829 2831.7781,922.64346 2852.7211,890.70899 C 2849.0824,865.29489 2815.0237,866.44234 2804.8099,888.87786 C 2798.6469,870.78727 2833.3669,846.83348 2800.4146,838.69248 C 2777.2245,821.30777 2753.0681,845.77069 2744.7069,866.79603 C 2737.8915,875.59822 2728.0617,851.84446 2720.1452,870.51913 C 2710.8941,882.84767 2705.0444,923.30616 2687.789,898.66513 C 2690.5561,913.4822 2675.0171,915.55178 2675.2195,927.51016 z "
       id="path1950" />
    <path
       style="opacity:0.40065146;fill:white;fill-opacity:1;fill-rule:evenodd;stroke:none;stroke-width:1px;stroke-linecap:butt;stroke-linejoin:miter;stroke-opacity:1"
       d="M 378.60142,422.55987 C 389.5015,422.73063 409.61656,430.9258 425.96097,430.9258 C 443.30708,430.9258 458.65877,423.7709 476.1064,428.13715 C 499.96335,434.10736 524.39786,428.13715 548.53867,428.13715 C 574.41342,428.13715 602.25525,433.71443 629.32852,433.71443 C 654.96006,433.71443 683.42872,436.50307 710.11838,436.50307 C 736.20341,436.50307 763.8776,439.29172 790.90822,439.29172 C 826.16132,439.29172 847.50145,437.44315 880.05563,430.9258 C 903.70383,426.19144 931.96364,426.2591 955.27378,430.9258 C 978.88689,435.65313 1004.554,428.13715 1027.7061,428.13715 C 1046.3016,428.13715 1065.1886,428.99905 1083.4231,425.34851 C 1098.6874,422.29262 1054.4159,411.40531 1038.8495,411.40531 C 1023.9148,411.40531 1009.4136,406.06999 994.27577,403.03939 C 976.86906,399.55457 965.87396,394.67347 946.91621,394.67347 C 930.58483,394.67347 911.88214,399.15224 893.98494,394.67347 C 861.24208,386.47958 859.78724,381.11437 882.8415,369.5757 C 897.323,362.32772 918.62206,363.5624 899.55664,344.47792 C 882.19186,327.09582 884.92863,348.65637 871.69806,322.16881 C 860.92263,300.5964 847.74261,308.5052 824.3385,302.64834 C 807.316,298.38844 800.09133,321.26505 785.3365,324.95746 C 773.4458,327.9331 768.711,344.29849 768.62136,344.47792 C 758.9307,363.87863 749.12036,334.08764 749.12036,322.16881 C 749.12036,321.44964 775.14488,304.41456 776.97893,297.07104 C 780.97064,281.08825 800.86082,295.09163 793.69407,266.396 C 790.62224,254.09642 747.45998,243.19674 737.97695,241.29823 C 682.92934,230.27771 752.51905,257.84041 701.7608,227.35504 C 681.20704,215.0105 655.38489,231.94768 643.2578,244.08688 C 627.97885,259.38112 639.44622,256.89244 612.61338,263.60735 C 596.47527,267.64592 588.2588,290.05606 584.75483,297.07104 C 575.11059,316.37878 573.15884,313.34989 562.46796,302.64834 C 551.62047,291.79 543.87758,268.27311 517.89425,294.28241 C 499.68671,312.50815 539.13222,319.38018 498.39326,319.38018 C 488.01098,319.38018 486.98204,337.18423 484.46397,347.26658 C 483.12061,352.64539 459.18858,362.0213 456.6054,372.36434 C 451.39745,393.2169 448.31449,389.12955 437.10441,383.51891 C 421.78229,375.85019 448.08463,354.27902 420.38927,361.20978 C 406.63435,364.65194 407.21284,393.16623 403.67413,400.25075 C 393.29732,421.02512 378.60142,374.65291 378.60142,422.55987 z "
       id="path3948" />
    <path
       style="opacity:0.40065146;fill:white;fill-opacity:1;fill-rule:evenodd;stroke:none;stroke-width:1px;stroke-linecap:butt;stroke-linejoin:miter;stroke-opacity:1"
       d="M 2103.0466,581.5124 C 2112.8947,578.24043 2140.3782,583.96659 2155.9782,587.08968 C 2174.796,590.85699 2194.7714,589.87832 2214.481,589.87832 C 2235.8392,589.87832 2257.1975,589.87832 2278.5557,589.87832 C 2303.7164,589.87832 2324.2137,595.4556 2348.2021,595.4556 C 2372.8993,595.4556 2395.7288,592.66695 2420.6344,592.66695 C 2443.0467,592.66695 2464.0408,589.87832 2487.4949,589.87832 C 2507.6444,589.87832 2519.1222,581.5124 2540.4262,581.5124 C 2561.7478,581.5124 2580.1412,579.98195 2601.7152,584.30103 C 2622.9952,588.56129 2642.3982,589.87832 2665.7898,589.87832 C 2688.6321,589.87832 2651.8202,580.108 2646.2888,578.72375 C 2634.6987,575.82334 2614.3097,569.68985 2604.501,564.78055 C 2592.0646,558.55613 2577.1935,559.20327 2559.9271,559.20327 C 2543.0685,559.20327 2525.0133,551.86037 2509.7819,548.04871 C 2488.4883,542.72001 2523.4903,534.10549 2532.0688,534.10549 C 2545.7335,534.10549 2553.5427,512.95767 2548.7839,503.43045 C 2543.4112,492.67442 2507.1484,496.38258 2498.6383,500.64182 C 2491.2095,504.36 2484.6574,489.48726 2476.3516,489.48726 C 2456.4176,489.48726 2455.6635,505.41894 2442.9213,511.79638 C 2421.9357,522.29966 2427.0866,511.79638 2406.7052,511.79638 C 2398.6701,511.79638 2390.7513,532.33863 2384.4183,500.64182 C 2380.273,479.89496 2401.9248,491.89598 2406.7052,472.75541 C 2409.7685,460.4897 2387.3579,456.10051 2376.0608,450.44629 C 2368.2251,446.52452 2392.1148,436.64466 2389.9901,428.13715 C 2385.5559,410.38327 2360.5578,414.19395 2342.6305,414.19395 C 2321.0079,414.19395 2326.3776,400.25075 2295.2709,400.25075 C 2278.4659,400.25075 2274.1345,415.99753 2259.0548,419.77123 C 2236.137,425.5064 2222.5255,414.82081 2211.6952,436.50307 C 2204.6467,450.61413 2233.386,455.47556 2197.7658,464.38949 C 2182.7229,468.15398 2186.5556,481.38844 2183.8365,492.2759 C 2180.5696,505.35687 2205.93,506.2191 2172.6933,506.2191 C 2166.2819,506.2191 2155.168,473.2106 2147.6204,503.43045 C 2142.9899,521.97085 2141.5718,516.3537 2122.5478,520.1623 C 2098.3611,525.00446 2121.0208,541.70721 2128.1195,545.26007 C 2138.2239,550.31735 2102.6774,547.67906 2094.6892,539.68279 C 2092.2621,537.25339 2079.9049,558.77527 2069.6164,553.62599 C 2052.1388,544.87845 2035.0416,567.56919 2069.6164,567.56919 C 2085.3495,567.56919 2057.1434,578.72375 2080.7599,578.72375 C 2095.5751,578.72375 2077.7449,571.3815 2103.0466,581.5124 z "
       id="path4823" />
    <path
       style="opacity:0.40065146;fill:white;fill-opacity:1;fill-rule:evenodd;stroke:none;stroke-width:1px;stroke-linecap:butt;stroke-linejoin:miter;stroke-opacity:1"
       d="M 1208.7867,640.07384 C 1213.7084,640.07384 1244.2193,637.28521 1261.718,637.28521 C 1265.4324,637.28521 1269.1469,637.28521 1272.8614,637.28521 C 1293.9184,637.28521 1295.6382,640.07384 1317.4352,640.07384 C 1339.4462,640.07384 1353.6291,643.98239 1373.1523,640.07384 C 1388.9349,636.91416 1407.6471,646.08187 1420.5118,642.86248 C 1442.7373,637.30056 1445.3078,645.02322 1465.0856,640.07384 C 1478.6528,636.67865 1501.1072,640.07384 1509.6592,640.07384 C 1518.0898,640.07384 1491.3139,631.70792 1481.8008,631.70792 C 1471.4841,631.70792 1453.4269,626.00171 1442.7986,623.342 C 1424.3662,618.7293 1421.928,626.83945 1409.3684,620.55336 C 1402.6721,617.20183 1413.9701,605.51472 1412.1542,598.24423 C 1408.1233,582.10411 1407.0503,581.51238 1381.5098,581.51238 C 1374.6306,581.51238 1361.4717,595.99336 1356.4371,601.03288 C 1348.4219,609.05612 1339.5753,578.76044 1328.5785,581.51238 C 1315.6129,584.75706 1317.4197,597.55097 1303.5059,601.03288 C 1302.1697,601.36726 1285.449,590.97329 1281.219,592.66695 C 1276.0458,594.73831 1269.4874,590.17271 1264.5038,592.66695 C 1251.7631,599.04368 1271.5809,602.74764 1245.0028,609.3988 C 1240.6802,610.48054 1241.7976,628.07961 1231.0735,606.61015 C 1226.252,596.95751 1208.0309,607.88571 1214.3584,620.55336 C 1223.9561,639.76802 1208.7867,620.03577 1208.7867,640.07384 z "
       id="path5698" />
  </g>
  <g
     inkscape:groupmode="layer"
     id="layer3"
     inkscape:label="map"
     style="display:inline">
    <g
       id="g1918"
       transform="translate(0,173.5281)">
      <path
         inkscape:export-filename="/donnees/Images/Wormux/g8950.png"
         inkscape:export-ydpi="90"
         inkscape:export-xdpi="90"
         sodipodi:nodetypes="cssssssssssssssssssssssssssssssssssssssssssssssssssssssssss"
         id="path1325"
         d="M 691.86764,1541.5282 C 701.31458,1534.3817 693.37234,1533.0021 713.08887,1507.6439 C 729.3096,1486.782 732.81028,1475.6229 748.46304,1470.0056 C 771.52068,1461.7309 820.63769,1455.4366 853.75782,1475.0318 C 869.00824,1484.0546 874.86884,1482.0021 891.93257,1488.6021 C 909.72291,1495.4833 910.46052,1514.5775 926.7624,1521.0984 C 964.3232,1536.1232 975.17996,1562.3778 1011.1869,1562.3778 C 1042.1603,1562.3778 1048.9459,1540.6071 1067.5281,1569.8901 C 1080.7379,1590.7071 1090.0261,1586.4031 1090.0261,1548.952 C 1090.0261,1511.8676 1105.2928,1517.6156 1125.5065,1530.1711 C 1147.7691,1543.9995 1138.9274,1564.927 1142.6497,1569.8901 C 1150.9522,1580.9604 1173.101,1559.4272 1187.7226,1588.671 C 1192.1751,1597.576 1205.9051,1612.5021 1210.1759,1632.0356 C 1214.1001,1649.9841 1261.1999,1645.2436 1272.6288,1645.2436 C 1277.5728,1645.2436 1300.2194,1623.9591 1293.2074,1594.6637 C 1285.7676,1563.5804 1257.4811,1551.3371 1247.8199,1521.0601 C 1239.2018,1494.052 1236.6234,1468.1867 1244.0638,1438.4245 C 1248.9724,1418.7897 1255.1657,1419.8102 1274.1124,1400.8629 C 1284.6771,1390.298 1327.0624,1389.4119 1341.722,1382.082 C 1367.1579,1369.3639 1395.3718,1369.1102 1420.5996,1382.082 C 1438.3521,1391.2103 1446.8921,1386.1083 1446.8921,1423.3999 C 1446.8921,1436.7935 1439.0457,1463.5813 1429.4397,1478.4143 C 1419.1659,1494.2786 1431.8374,1513.5172 1443.136,1524.8162 C 1451.3976,1533.0778 1482.2753,1519.5765 1488.2091,1521.0601 C 1501.7555,1524.4468 1495.612,1547.3531 1529.5259,1547.3531 C 1559.6863,1547.3531 1565.999,1558.1444 1586.3872,1547.9501 C 1606.6085,1537.8392 1600.9668,1517.6491 1614.2402,1505.5153 C 1629.2706,1491.7751 1651.6196,1487.7294 1664.7448,1491.0107 C 1684.4461,1495.9362 1706.3504,1513.7986 1710.4531,1530.2096 C 1715.4473,1550.1866 1710.6076,1563.1675 1721.086,1573.6463 C 1734.3965,1586.9572 1749.326,1588.671 1769.9149,1588.671 C 1791.5703,1588.671 1790.9973,1577.4024 1814.9879,1577.4024 C 1830.7323,1577.4024 1850.2374,1560.1858 1862.7167,1557.0658 C 1880.0686,1552.7278 1886.3013,1573.0018 1904.2224,1573.0018 C 1931.9409,1573.0018 1957.2396,1565.8944 1972.7432,1573.6463 C 1988.333,1581.4412 2002.9955,1581.1585 2025.3284,1581.1585 C 2049.0384,1581.1585 2055.5118,1580.2152 2062.8891,1562.3778 C 2070.0115,1545.1567 2096.2632,1544.4583 2100.4499,1536.0847 C 2106.3689,1524.2465 2100.4499,1493.3266 2100.4499,1479.7422 C 2100.4499,1461.7525 2120.0794,1454.0655 2133.3825,1456.5609 C 2151.7309,1460.0025 2150.2516,1430.4259 2164.3034,1423.3999 C 2181.5214,1414.7908 2166.5022,1399.3741 2190.5959,1393.3505 C 2210.1517,1388.4615 2213.0178,1382.082 2235.6688,1382.082 C 2246.8931,1382.082 2270.0061,1391.7241 2273.2296,1404.6191 C 2276.4283,1417.414 2293.888,1431.8512 2307.0343,1438.4245 C 2323.4346,1446.6247 2330.5481,1450.6703 2340.8392,1460.9615 C 2353.6856,1473.8084 2380.6216,1509.4139 2401.6199,1509.4139 C 2424.5887,1509.4139 2413.7482,1524.4079 2431.6295,1528.8785 C 2445.6163,1532.3751 2441.9259,1542.0222 2439.3695,1552.2485 C 2435.0268,1569.6188 2446.0092,1574.553 2446.0092,1592.427 C 2446.0092,1622.6785 2453.5215,1649.0453 2453.5215,1678.8188 C 2444.1718,1783.9649 2576.7428,2137.7756 2560.5952,2249.5044 C 2171.8782,2291.0249 1575.7276,2256.2471 1186.4313,2256.2471 C 899.71714,2256.2471 757.40825,2254.0937 470.69412,2254.0937 C 469.46502,2145.0357 550.12585,1816.4217 549.23635,1726.0736 C 554.24371,1670.2663 540.91741,1691.7351 532.02483,1637.4325 C 529.7343,1623.4454 577.3882,1592.6222 627.88652,1616.4816 C 645.17935,1624.6523 663.89203,1626.6622 672.14911,1604.2437 C 680.9447,1580.3631 673.44167,1555.467 691.86764,1541.5282 z "
         style="fill:#69732e;fill-opacity:1;fill-rule:evenodd;stroke:#a7b775;stroke-width:5.77972555;stroke-linecap:butt;stroke-linejoin:miter;stroke-miterlimit:4;stroke-dasharray:none;stroke-opacity:1" />
      <g
         inkscape:export-ydpi="90"
         inkscape:export-xdpi="90"
         inkscape:export-filename="/donnees/Images/Wormux/g8950.png"
         transform="matrix(1.469973,0,0,1.470004,755.7692,216.6704)"
         id="g7174">
        <g
           transform="matrix(0.989219,-0.146447,0.146447,0.989219,-110.6732,89.7008)"
           id="g7179">
          <path
             sodipodi:nodetypes="ccssscssssssscssssc"
             id="path4549"
             d="M 497,898 L 498,841 C 498,841 492.50085,841.7606 493,839 C 493.80337,834.55686 497.98895,749.14142 498,749 C 498.48466,742.79676 498.03482,747.36833 498.60045,745.13393 C 499.63393,741.05135 504,742 504,742 C 504,742 504.93303,736.06697 503.93303,726.06697 C 502.93303,716.06697 505.53348,710 507,702 C 508.45371,694.06988 512,687 516,684 C 520,681 535.00225,675 551,675 C 564.66516,675 589.23622,677.55392 596,682 C 602.67356,686.38677 608,710 608,716 C 608,722 608,739 609,744 C 610,749 612,902 612,902 C 612,902 602.53348,909.26787 598.46652,911.13393 C 593.92206,913.21909 578,918 563,918 C 548,918 522.5022,917.37624 519,917 C 515.10949,916.58205 504,913 501,909 C 498,905 497.86607,904.19865 497,898 z "
             style="fill:#494a43;fill-opacity:1;fill-rule:evenodd;stroke:none;stroke-width:1px;stroke-linecap:butt;stroke-linejoin:miter;stroke-opacity:1" />
          <path
             sodipodi:nodetypes="csssccsscsscssssssssscc"
             id="path4551"
             d="M 504.17075,720.88496 C 513.36034,713.99277 532.42169,706.63406 539.88823,706.05971 C 547.35477,705.48536 555.39565,702.61361 571.47743,704.91101 C 587.55921,707.20841 595.02575,710.08015 600.19489,712.9519 C 605.36403,715.82364 607.66143,717.54669 607.66143,717.54669 L 608.81013,742.81805 C 608.81013,742.81805 607.08708,743.3924 603.64099,742.24371 C 600.19489,741.09501 585.83616,738.22326 581.24137,739.37196 C 576.64657,740.52066 574.92353,739.94631 574.92353,739.94631 C 574.92353,739.94631 574.92353,764.06897 575.49788,770.38682 C 576.07223,776.70466 576.64657,787.04294 578.94397,789.34034 C 581.24137,791.63773 583.53876,795.08383 583.53876,795.08383 C 583.53876,795.08383 581.24137,793.36078 578.36962,792.21208 C 575.49788,791.06339 573.77483,780.15075 573.20048,775.55596 C 572.62613,770.96116 569.75438,753.15634 569.75438,743.96675 C 569.75438,734.77717 572.05178,729.03367 570.90308,725.01323 C 569.75438,720.99279 566.30829,718.12104 561.7135,716.39799 C 557.1187,714.67495 553.09826,713.52625 548.50346,715.82364 C 543.90867,718.12104 541.61127,723.29018 538.16518,728.45933 C 534.71908,733.62847 533.57039,733.62847 526.6782,733.62847 C 519.78601,733.62847 513.46816,732.47977 510.59642,731.33107 C 507.72467,730.18237 505.10378,728.45933 505.10378,728.45933 L 504.17075,720.88496 z "
             style="fill:#1f1f1f;fill-opacity:1;fill-rule:evenodd;stroke:none;stroke-width:1px;stroke-linecap:butt;stroke-linejoin:miter;stroke-opacity:1" />
          <path
             sodipodi:nodetypes="csssssssscscsccssssscsscs"
             id="path4553"
             d="M 526.10385,818.0578 C 523.57994,813.94743 532.42169,805.99646 535.86778,804.84777 C 539.31388,803.69907 545.05737,801.40167 546.78042,802.55037 C 548.50346,803.69907 550.80086,807.71951 553.67261,806.57081 C 556.54435,805.42212 559.99045,803.69907 568.03134,802.55037 C 576.07223,801.40167 579.51832,799.67862 583.53876,801.40167 C 587.55921,803.12472 592.154,810.59126 592.154,812.88865 C 592.154,815.18605 599.04619,824.37564 603.64099,828.97043 C 608.23578,833.56522 609.95883,832.99088 609.95883,830.69348 C 609.95883,828.39608 608.81013,746.26415 608.81013,746.26415 C 608.81013,746.26415 612.83057,746.8385 612.83057,748.56155 C 612.83057,750.28459 614.4106,824.59131 614.4106,824.59131 C 614.4106,824.59131 615.5593,831.37566 613.83625,833.67305 C 612.1132,835.97045 610.53318,836.43697 610.53318,836.43697 L 612.25622,894.44624 C 612.25622,894.44624 612.68755,902.41448 612.25622,901.91278 C 610.1381,899.44913 611.10752,896.74363 608.81013,891.57449 C 606.51273,886.40535 600.19489,876.64141 594.4514,871.47227 C 588.70791,866.30313 580.66702,855.96484 574.34918,854.81614 C 568.03134,853.66745 559.99045,852.51875 555.97,853.0931 C 551.94956,853.66745 537.59083,855.39049 537.59083,855.39049 C 537.59083,855.39049 543.90867,852.51875 547.35477,851.9444 C 550.80086,851.37005 570.32873,849.07265 576.07223,850.22135 C 581.81572,851.37005 582.96442,849.647 582.96442,849.647 C 582.96442,849.647 533.63106,830.31638 526.10385,818.0578 z "
             style="fill:#1f1f1f;fill-opacity:1;fill-rule:evenodd;stroke:none;stroke-width:1px;stroke-linecap:butt;stroke-linejoin:miter;stroke-opacity:1" />
        </g>
      </g>
      <g
         inkscape:export-ydpi="90"
         inkscape:export-xdpi="90"
         transform="matrix(1.614831,0,0,1.614866,442.5892,297.9765)"
         id="g8950">
        <path
           style="fill:#494a43;fill-opacity:1;fill-rule:evenodd;stroke:none;stroke-width:1px;stroke-linecap:butt;stroke-linejoin:miter;stroke-opacity:1"
           d="M 252,421 C 257.07577,426.76965 283,462 286,466 C 289,470 295,476 295,484 C 295,492 289,510 289,510 L 285,516 C 285,516 309,554 315,560 C 321,566 354.97059,595.54452 356,599 C 359.60766,611.11007 348.42581,615.24879 348.42581,615.24879 C 348.42581,615.24879 349,618 343,620 C 337,622 336,630 337,635 C 338,640 349,651 349,651 C 349,651 346,671 347,677 C 348,683 365,727 365,734 C 365,741 367,745 362,747 C 357,749 348,750 345,750 C 342,750 332.27695,762 332.27695,771 C 332.27695,780 341,805 345,812 C 349,819 361,828 354,827 C 347,826 322,819 312,816 C 302,813 273,804 264,799 C 255,794 233,786 221,779 C 209,772 198,762 191,760 C 184,758 184,757 184,757 C 184,757 191,750 199,738 C 207,726 210,712 212,707 C 214,702 215,694 215,694 C 215,694 211,688 211,675 C 211,662 209,647 209,647 L 197,644 C 197,644 191,629 188,613 C 185,597 176,538 175,532 C 174,526 173,519 171,512 C 169,505 166,476 165,468 C 164,460 163,450 165,445 C 167,440 173,430 181,426 C 189,422 205,417 214,417 C 223,417 231,416 238,417 C 245,418 250.63299,419.44611 252,421 z "
           id="path7194"
           sodipodi:nodetypes="cssccsscsscssssssssssscsscsccsssssssss" />
        <path
           style="fill:#1f1f1f;fill-opacity:1;fill-rule:evenodd;stroke:none;stroke-width:1px;stroke-linecap:butt;stroke-linejoin:miter;stroke-opacity:1"
           d="M 209,505 C 209,505 223,493 228,488 C 233,483 236,475 243,474 C 250,473 270,477 270,477 C 270,477 283,475 287,476 C 291,477 295,482 295,482 C 295,482 294,501 292,506 C 290,511 284.8513,516.72304 284.8513,516.72304 C 284.8513,516.72304 286.12089,517.41385 282.72305,512.27695 C 278.82203,506.37933 271,495 271,495 C 271,495 261,493 259,499 C 257,505 251,518 251,518 C 251,518 238,518 227,515 C 216,512 211,508 209,505 z "
           id="path7196"
           sodipodi:nodetypes="csscscscscscsc" />
        <path
           style="fill:#1f1f1f;fill-opacity:1;fill-rule:evenodd;stroke:none;stroke-width:1px;stroke-linecap:butt;stroke-linejoin:miter;stroke-opacity:1"
           d="M 196.46411,643.67943 C 198.42581,640.67943 213,638 213,638 L 216,635 L 211,601 C 211,601 220,630 221,636 C 222,642 219,647 219,647 L 210.46412,659.85645 L 208,647 L 196.46411,643.67943 z "
           id="path7198"
           sodipodi:nodetypes="ccccscccc" />
        <path
           style="fill:#1f1f1f;fill-opacity:1;fill-rule:evenodd;stroke:none;stroke-width:1px;stroke-linecap:butt;stroke-linejoin:miter;stroke-opacity:1"
           d="M 356.32563,601.88976 C 355.93065,602.44366 349,604 342,604 C 335,604 328,603 319,606 C 310,609 301,611 300,616 C 299,621 300,626 308,629 C 316,632 336.15361,637.23875 341.57435,642.86152 C 345.56413,647 348,650 340,650 C 332,650 324,653 324,653 C 324,653 347,651 343,655 C 339,659 334,658 326,660 C 318,662 318,664 318,664 C 318,664 332,672 339,680 C 346,688 353.56413,699.98978 355.71283,704.8513 C 357.37962,708.62248 351,691 350,684 C 349,677 351.13848,664.84108 352.13848,659.84108 C 353.13848,654.84108 345,646 342,639 C 339,632 336.86152,623.86152 339.86152,622.86152 C 342.86152,621.86152 345.46411,621.78468 349.46411,618.78468 C 353.46411,615.78468 357,613 357,609 C 357,605 356.74106,601.46411 356.32563,601.88976 z "
           id="path7200"
           sodipodi:nodetypes="csssssscsscssssssssc" />
        <path
           style="fill:#1f1f1f;fill-opacity:1;fill-rule:evenodd;stroke:none;stroke-width:1px;stroke-linecap:butt;stroke-linejoin:miter;stroke-opacity:1"
           d="M 229,706 C 248,722 274,744 281,753 C 288,762 305,784 313,794 C 321,804 322.16543,809.01418 332.98978,817.40521 C 343.81413,825.79624 356.2974,827.56413 356.2974,827.56413 C 356.2974,827.56413 358,826 353,821 C 348,816 337,794 336,789 C 335,784 334,772 336,765 C 338,758 344.57435,749.56413 344.57435,749.56413 C 344.57435,749.56413 324,748 314,745 C 304,742 283,734 272,729 C 261,724 250,717 244,714 C 238,711 231,707 229,706 z "
           id="path7202"
           sodipodi:nodetypes="cssscssscsssc" />
      </g>
      <g
         transform="matrix(1.126824,0,0,1.126848,582.9936,675.9241)"
         inkscape:export-ydpi="90"
         inkscape:export-xdpi="90"
         id="g5719">
        <path
           style="fill:#978548;fill-opacity:1;fill-rule:evenodd;stroke:#5d4626;stroke-width:1.42476737px;stroke-linecap:butt;stroke-linejoin:miter;stroke-opacity:1"
           d="M 241.5,490 C 243.86716,489.05314 259,501.5 258,503.5 C 257,505.5 240.5,515.5 235.5,520 C 230.5,524.5 226.5,527 223.5,530.5 C 220.5,534 217.5,535.5 213,529.5 C 208.5,523.5 205.13659,523.86341 205,520 C 204.86259,516.11334 209.25226,514.02243 217.5,509 C 227.4721,502.92752 228,500.5 232,497 C 236,493.5 239,491 241.5,490 z "
           id="path1340"
           sodipodi:nodetypes="csssssssz" />
        <path
           style="fill:#978548;fill-opacity:1;fill-rule:evenodd;stroke:#5d4626;stroke-width:1.42476737px;stroke-linecap:butt;stroke-linejoin:miter;stroke-opacity:1"
           d="M 209,500 C 210.2903,502.41866 221.5,510 225,514.5 C 228.5,519 236.5,529 236.5,529 C 236.5,529 240.13902,534.29877 242.13902,533.79877 C 244.13902,533.29877 245.65976,531.44815 248.15976,528.44815 C 250.65976,525.44815 253.80395,525.28321 254.79877,522.2884 C 255.79359,519.29358 252.19086,516.51037 249.5,513.5 C 245.23274,508.72606 241.5,507 236.5,502.5 C 231.5,498 228,494.5 226.5,492.5 C 225,490.5 221.82988,488.31951 220,489 C 217.90417,489.7794 216.05923,492.5401 213.32988,494.48963 C 209.82988,496.98963 208.76956,499.56804 209,500 z "
           id="path1342"
           sodipodi:nodetypes="cscsssssssss" />
        <path
           style="fill:none;fill-opacity:0.75;fill-rule:evenodd;stroke:#7b662b;stroke-width:1.42476737px;stroke-linecap:butt;stroke-linejoin:miter;stroke-opacity:1"
           d="M 233.88278,520.45343 C 237.18155,517.15466 240.81019,514.51564 243.11933,512.86625 C 245.42847,511.21687 240.48032,516.16503 238.17118,517.81441 C 235.86204,519.4638 233.5529,521.11318 233.88278,520.45343 z "
           id="path2223"
           sodipodi:nodetypes="cssc" />
        <path
           style="fill:#c7be6e;fill-opacity:1;fill-rule:evenodd;stroke:none;stroke-width:1px;stroke-linecap:butt;stroke-linejoin:miter;stroke-opacity:1"
           d="M 231.24376,500.66081 C 228.60475,503.29982 226.29561,504.94921 224.9761,506.26872 C 223.65659,507.58822 222.99684,507.58822 223.32671,508.90773 C 223.65659,510.22724 225.96573,511.21687 227.94499,514.18576 C 229.92425,517.15466 227.61511,514.84552 226.29561,513.52601 C 224.9761,512.2065 223.98647,511.54675 222.99684,510.22724 C 222.00721,508.90773 221.34745,507.9181 222.33708,506.5986 C 223.93282,504.47096 226.95536,503.29982 228.60475,501.65044 C 229.64791,500.60728 231.57364,500.66081 231.24376,500.66081 z "
           id="path4844"
           sodipodi:nodetypes="csssssssc" />
      </g>
      <path
         sodipodi:nodetypes="csssssscssscsss"
         id="path17990"
         d="M 1529.7469,1231.266 C 1549.7229,1227.5862 1577.5841,1223.9063 1610.702,1223.3806 C 1643.82,1222.855 1674.3095,1219.7008 1676.4123,1219.1751 C 1678.515,1218.6494 1614.3818,1217.0723 1612.279,1216.5466 C 1610.1763,1216.021 1604.3938,1200.2501 1600.714,1188.1591 C 1597.0342,1176.0682 1589.6748,1156.6176 1584.9437,1151.8864 C 1580.2124,1147.1551 1562.865,1149.7835 1552.877,1152.9377 C 1542.889,1156.092 1533.9524,1160.2974 1533.9524,1160.2974 C 1533.9524,1160.2974 1518.1821,1161.8745 1508.7197,1162.4002 C 1499.2574,1162.9259 1496.1033,1163.4516 1495.052,1165.0287 C 1494.0006,1166.6058 1488.7438,1191.3133 1487.6925,1211.2896 C 1486.6411,1231.266 1485.0641,1231.7918 1485.0641,1231.7918 C 1485.0641,1231.7918 1442.5522,1259.7533 1437.2269,1263.3333 C 1434.4209,1265.2197 1454.1595,1254.6489 1475.1439,1246.7428 C 1496.6759,1238.6307 1519.6304,1233.1296 1529.7469,1231.266 z "
         style="fill:#494a43;fill-opacity:1;fill-rule:evenodd;stroke:none;stroke-width:1px;stroke-linecap:butt;stroke-linejoin:miter;stroke-opacity:1" />
      <path
         sodipodi:nodetypes="csscsscssssc"
         id="path18865"
         d="M 1584.9437,1151.8864 C 1590.7262,1161.3489 1598.6113,1180.7995 1599.6627,1184.4793 C 1600.714,1188.1591 1604.9195,1202.3528 1607.0222,1207.0841 C 1609.125,1211.8153 1611.2277,1216.021 1611.2277,1216.021 C 1611.2277,1216.021 1591.7775,1216.021 1581.7895,1217.0723 C 1571.8016,1218.1237 1554.454,1220.2265 1544.4661,1221.8035 C 1534.4781,1223.3806 1526.5928,1224.432 1526.5928,1224.432 C 1526.5928,1224.432 1527.6442,1214.4438 1541.3119,1210.764 C 1554.9797,1207.0841 1582.8409,1207.6097 1587.572,1200.7757 C 1592.3032,1193.9418 1593.8801,1188.6848 1592.3032,1179.2224 C 1590.7262,1169.7599 1587.0464,1159.2461 1585.995,1156.6176 C 1584.9437,1153.9892 1584.4179,1151.8864 1584.9437,1151.8864 z "
         style="fill:#1f1f1f;fill-opacity:1;fill-rule:evenodd;stroke:none;stroke-width:1px;stroke-linecap:butt;stroke-linejoin:miter;stroke-opacity:1" />
      <path
         sodipodi:nodetypes="cscsss"
         id="path19740"
         d="M 1546.0431,1231.266 C 1571.2901,1227.6593 1573.9043,1226.5348 1584.4179,1226.0091 C 1594.9315,1225.4834 1602.2911,1226.0091 1602.2911,1226.0091 C 1602.2911,1226.0091 1583.3666,1227.5862 1570.2245,1229.1632 C 1557.0826,1230.7403 1537.6322,1233.3688 1532.3753,1234.4202 C 1527.1185,1235.4716 1545.5317,1231.3391 1546.0431,1231.266 z "
         style="fill:#1f1f1f;fill-opacity:1;fill-rule:evenodd;stroke:none;stroke-width:1px;stroke-linecap:butt;stroke-linejoin:miter;stroke-opacity:1" />
      <g
         transform="matrix(1.604678,0,0,1.606282,404.6947,218.5685)"
         id="g1921">
        <g
           id="g4539"
           transform="matrix(0.884517,0,0,0.883653,14.4184,50.35901)"
           inkscape:export-filename="/donnees/Images/Wormux/g8950.png"
           inkscape:export-xdpi="90"
           inkscape:export-ydpi="90">
          <path
             sodipodi:nodetypes="cssccszccsssscssscssssssssc"
             id="path1912"
             d="M 1264,557 C 1255,561 1253.3844,560.84672 1248.3844,566.84672 C 1243.3844,572.84672 1234,599 1233,604 C 1232,609 1225,637 1225,637 L 1218.3854,667.86829 C 1218.3854,667.86829 1211.5942,663.55151 1210.4098,668.08781 C 1209.4901,671.61003 1188.4913,750.46464 1188.7513,756.16096 C 1189.0051,761.72364 1198.4098,761.0878 1198.4098,761.0878 L 1183,833 C 1183,833 1183,836 1185,839 C 1187,842 1188,839 1175,843 C 1162,847 1145,868 1139,879 C 1133,890 1128,917 1126,931 C 1124,945 1123,954 1123,954 C 1123,954 1156,965 1170,968 C 1184,971 1226,971 1242,971 C 1258,971 1292,964 1306,962 C 1320,960 1347,950 1347,950 C 1347,950 1348,926 1348,917 C 1348,908 1342,892 1340,884 C 1338,876 1328,868 1328,864 C 1328,860 1357,698 1359,688 C 1361,678 1363,657 1364,653 C 1365,649 1366.5377,586.69343 1363.3844,580.84672 C 1360.3449,575.21098 1333,562 1323,560 C 1313,558 1291.0828,555 1285,555 C 1273,555 1268.9246,555.30657 1264,557 z "
             style="fill:#494a43;fill-opacity:1;fill-rule:evenodd;stroke:none;stroke-width:1px;stroke-linecap:butt;stroke-linejoin:miter;stroke-opacity:1" />
          <path
             id="path2787"
             d="M 1233.6067,603.51053 C 1233.6067,603.51053 1241.6091,596.12367 1245.9181,593.66138 C 1250.2272,591.19909 1260.6919,587.50565 1267.4632,587.50565 C 1274.2345,587.50565 1289.0082,586.27451 1298.2418,587.50565 C 1307.4754,588.7368 1321.6335,590.58352 1329.636,594.27695 C 1337.6384,597.97038 1351.181,605.35725 1355.49,609.66625 C 1359.799,613.97526 1365.3392,621.9777 1365.3392,621.9777 C 1365.3392,621.9777 1365.3392,634.28914 1365.3392,639.82929 C 1365.3392,645.36944 1364.7236,651.52516 1364.7236,651.52516 C 1364.7236,651.52516 1353.6433,647.21616 1346.872,644.1383 C 1340.1007,641.06044 1335.7917,636.75143 1330.2515,636.13586 C 1324.7114,635.52029 1322.2491,634.28914 1320.4024,640.44486 C 1318.5557,646.60059 1315.4778,652.75631 1315.4778,660.75875 C 1315.4778,668.76119 1316.0934,684.76606 1316.0934,684.76606 L 1312.3999,680.97492 C 1312.3999,680.97492 1310.116,680.11752 1309.3221,673.68576 C 1309.0205,671.24202 1309.9377,664.45218 1310.5532,657.06531 C 1311.1688,649.67845 1311.7844,644.75387 1313.6311,637.367 C 1315.4778,629.98014 1316.0934,626.90228 1316.0934,620.74655 C 1316.0934,614.59083 1316.709,612.74411 1314.2467,607.81954 C 1311.7844,602.89496 1306.8598,597.97038 1302.5508,596.12367 C 1298.2418,594.27695 1293.3172,592.43023 1287.7771,593.66138 C 1282.2369,594.89252 1278.9979,598.1487 1277.1512,599.99542 C 1275.3044,601.84213 1272.1567,606.77207 1269.8449,610.46014 C 1267.6415,613.97526 1265.6165,617.66869 1265.6165,617.66869 C 1265.6165,617.66869 1256.3829,617.05312 1250.8427,617.66869 C 1245.3026,618.28426 1240.9936,620.13098 1236.069,621.9777 C 1231.1444,623.82441 1227.451,626.90228 1227.451,626.90228 L 1233.6067,603.51053 z "
             style="fill:#1f1f1f;fill-opacity:1;fill-rule:evenodd;stroke:none;stroke-width:1px;stroke-linecap:butt;stroke-linejoin:miter;stroke-opacity:1"
             sodipodi:nodetypes="cssssscscssssccssssssssscsscc" />
          <path
             sodipodi:nodetypes="cssssccsscccscssssssssssssssssscsssssc"
             id="path2789"
             d="M 1242.8403,716.16025 C 1244.687,708.77338 1248.3804,703.8488 1250.8427,702.61766 C 1253.305,701.38651 1262.5386,698.30865 1268.0787,698.30865 C 1273.6189,698.30865 1285.3148,697.69308 1293.3172,699.5398 C 1301.3196,701.38651 1311.1688,704.46437 1315.4778,706.92666 C 1319.7868,709.38895 1323.4802,710.00452 1323.4802,710.00452 L 1324.7114,707.54223 C 1324.7114,707.54223 1329.636,714.31353 1332.0983,720.46925 C 1334.5605,726.62497 1339.4851,748.17 1341.3318,752.47901 C 1343.1786,756.78801 1345.0253,761.71259 1345.0253,761.71259 L 1356.7211,700.15537 L 1347.4876,782.64204 C 1347.4876,782.64204 1345.0253,784.48876 1342.563,783.87319 C 1340.1007,783.25762 1330.2516,850.35499 1330.2516,850.35499 C 1330.2516,850.35499 1327.7892,841.73698 1324.0958,834.35011 C 1320.4024,826.96324 1317.3245,817.11409 1313.6311,809.72722 C 1309.9377,802.34035 1307.4754,795.56906 1301.3196,789.41334 C 1295.1639,783.25762 1290.8549,776.48632 1284.6992,772.79289 C 1278.5435,769.09946 1265.6165,764.79045 1258.2296,763.55931 C 1250.8427,762.32816 1232.9911,761.09702 1229.2977,761.09702 C 1225.6043,761.09702 1255.7673,760.48144 1263.7697,761.71259 C 1271.7722,762.94373 1287.7771,765.40602 1295.7795,769.09946 C 1303.7819,772.79289 1310.5532,774.63961 1313.6311,775.87075 C 1316.709,777.10189 1319.7868,775.87075 1317.9401,773.40846 C 1316.0934,770.94617 1306.8598,766.02159 1300.7041,762.94373 C 1294.5484,759.86587 1282.2369,756.78801 1271.7722,754.94129 C 1261.3075,753.09458 1247.1493,752.47901 1242.2247,752.47901 C 1237.3001,752.47901 1243.4559,750.63229 1249.6116,751.24786 C 1255.7673,751.86343 1267.4632,751.86343 1273.6189,753.09458 C 1279.7746,754.32572 1286.5459,754.94129 1293.3172,757.40358 C 1300.0885,759.86587 1307.4754,762.94373 1311.7844,765.40602 C 1316.0934,767.86831 1318.5557,769.09946 1318.5557,769.09946 C 1318.5557,769.09946 1324.7114,769.09946 1319.7868,764.79045 C 1314.8622,760.48144 1309.9377,758.01916 1303.7819,753.71015 C 1298.0764,749.71632 1294.5484,747.55443 1286.5459,743.86099 C 1278.5435,740.16756 1273.6189,737.70527 1263.7697,734.01184 C 1253.9206,730.31841 1251.8574,729.48653 1247.1492,724.77825 C 1244.6869,722.31596 1242.2247,718.00696 1242.8403,716.16025 z "
             style="fill:#1f1f1f;fill-opacity:1;fill-rule:evenodd;stroke:none;stroke-width:1px;stroke-linecap:butt;stroke-linejoin:miter;stroke-opacity:1" />
          <path
             id="path2791"
             d="M 1186.2076,841.1214 C 1193.5945,847.27713 1207.1371,855.27956 1215.1395,858.35743 C 1223.142,861.43529 1232.3756,863.89758 1240.378,865.12872 C 1248.3804,866.35986 1263.7697,868.20658 1269.9255,868.20658 C 1276.0812,868.20658 1288.3926,868.82215 1295.7795,868.82215 C 1303.1664,868.82215 1311.1688,869.43773 1317.3245,868.20658 C 1323.4802,866.97544 1327.7892,864.51315 1327.7892,864.51315 C 1327.7892,864.51315 1338.254,876.82459 1340.1007,881.74917 C 1341.9474,886.67375 1345.0253,894.67619 1346.2564,902.06305 C 1347.4876,909.44992 1348.7187,924.22365 1348.7187,930.99495 C 1348.7187,937.76624 1347.4876,950.07768 1347.4876,950.07768 C 1347.4876,950.07768 1339.5657,953.77112 1333.7666,955.35891 C 1326.642,957.3096 1329.9291,955.79615 1319.4644,958.17783 C 1309.2606,960.50015 1293.7545,951.03279 1288.8299,949.18608 C 1283.9053,947.33936 1276.6968,943.92196 1269.9255,937.76624 C 1263.1542,931.61052 1253.305,926.07037 1242.8403,915.60564 C 1232.3756,905.14091 1227.451,903.90977 1219.4485,893.44504 C 1211.4461,882.98031 1204.0592,874.3623 1199.1347,865.74429 C 1194.2101,857.12628 1188.6699,850.35499 1187.4388,846.66155 C 1186.2076,842.96812 1186.2076,840.50583 1186.2076,841.1214 z "
             style="fill:#1f1f1f;fill-opacity:1;fill-rule:evenodd;stroke:none;stroke-width:1px;stroke-linecap:butt;stroke-linejoin:miter;stroke-opacity:1"
             sodipodi:nodetypes="cssssscssscssssssssc" />
        </g>
        <g
           id="g15354"
           transform="matrix(0.702212,0,0,0.701526,270.3534,447.0572)"
           inkscape:export-xdpi="90"
           inkscape:export-ydpi="90">
          <path
             sodipodi:nodetypes="csssssc"
             id="path13604"
             d="M 1002.544,645.77841 C 1020.2716,652.30964 1017.939,651.84312 1032.401,653.24267 C 1046.8631,654.64222 1049.6622,654.64222 1059.459,653.70919 C 1069.2559,652.77616 1074.3773,652.77977 1074.3875,650.91009 C 1074.4739,634.59851 1068.6596,623.31053 1059.9255,618.25393 C 1051.0616,613.12225 1044.711,610.40299 1034.2671,614.5218 C 1012.3218,623.17643 1003.0105,643.91234 1002.544,645.77841 z "
             style="fill:#494a43;fill-opacity:1;fill-rule:evenodd;stroke:none;stroke-width:1px;stroke-linecap:butt;stroke-linejoin:miter;stroke-opacity:1" />
          <path
             style="fill:#1f1f1f;fill-opacity:1;fill-rule:evenodd;stroke:none;stroke-width:1px;stroke-linecap:butt;stroke-linejoin:miter;stroke-opacity:1"
             d="M 1059.459,640.64673 C 1058.9925,651.84312 1017.939,651.84312 1032.401,653.24267 C 1046.8631,654.64222 1049.6622,654.64222 1059.459,653.70919 C 1069.2559,652.77616 1074.3773,652.77977 1074.3875,650.91009 C 1074.4739,634.59851 1068.6596,623.31053 1059.9255,618.25393 C 1051.0616,613.12225 1062.7246,627.58427 1059.459,640.64673 z "
             id="path15352"
             sodipodi:nodetypes="cssssc" />
        </g>
        <path
           sodipodi:type="arc"
           style="fill:#730100;fill-opacity:1;stroke:none;stroke-width:1;stroke-linecap:round;stroke-linejoin:miter;stroke-miterlimit:3.5999999;stroke-dasharray:none;stroke-opacity:1"
           id="path20617"
           sodipodi:cx="1118"
           sodipodi:cy="360"
           sodipodi:rx="12"
           sodipodi:ry="12"
           d="M 1130 360 A 12 12 0 1 1  1106,360 A 12 12 0 1 1  1130 360 z"
           transform="matrix(0.526659,0,0,0.526144,610.2491,411.7057)" />
        <path
           sodipodi:type="arc"
           style="fill:#b22725;fill-opacity:1;stroke:none;stroke-width:1;stroke-linecap:round;stroke-linejoin:miter;stroke-miterlimit:3.5999999;stroke-dasharray:none;stroke-opacity:1"
           id="path21504"
           sodipodi:cx="1106.75"
           sodipodi:cy="491.75"
           sodipodi:rx="3.75"
           sodipodi:ry="3.75"
           d="M 1110.5 491.75 A 3.75 3.75 0 1 1  1103,491.75 A 3.75 3.75 0 1 1  1110.5 491.75 z"
           transform="matrix(0.702212,0,0,0.701526,419.9496,254.5639)" />
      </g>
    </g>
    <path
       style="opacity:1;color:black;fill:url(#linearGradient3107);fill-opacity:1.0;fill-rule:evenodd;stroke:none;stroke-width:8;stroke-linecap:round;stroke-linejoin:round;marker:none;marker-start:none;marker-mid:none;marker-end:none;stroke-miterlimit:4;stroke-dasharray:none;stroke-dashoffset:0;stroke-opacity:1;visibility:visible;display:inline;overflow:visible"
       d="M 764.76768,2138.6991 C 672.44205,2129.2655 753.63036,2238.5556 805.91015,2224.8375 C 883.47728,2280.8797 976.23674,2305.2353 1070.5122,2305.2506 C 1108.0007,2321.7303 1173.7729,2277.726 1103.5215,2273.702 C 1024.5574,2265.7337 937.04176,2256.4571 877.84906,2197.4729 C 841.1945,2175.971 803.64207,2155.9101 764.76768,2138.6991 z "
       id="path1929" />
    <path
       style="opacity:1;color:black;fill:url(#linearGradient3123);fill-opacity:1.0;fill-rule:evenodd;stroke:none;stroke-width:8;stroke-linecap:round;stroke-linejoin:round;marker:none;marker-start:none;marker-mid:none;marker-end:none;stroke-miterlimit:4;stroke-dasharray:none;stroke-dashoffset:0;stroke-opacity:1;visibility:visible;display:inline;overflow:visible"
       d="M 595.77731,1992.2416 C 588.07681,1995.4079 589.98275,2005.6825 592.86683,2011.6481 C 599.37478,2031.2035 616.52354,2049.5619 638.11696,2050.4788 C 650.46064,2049.4307 659.42453,2036.0831 672.5821,2039.0915 C 684.902,2041.1221 696.5047,2046.1204 708.83808,2048.1604 C 830.05361,2079.9749 946.40025,2130.9788 1071.2375,2147.9047 C 1074.2133,2146.8086 1078.4159,2150.807 1080.4503,2148.7053 C 1084.7596,2134.0621 1084.3792,2114.8773 1070.3382,2105.6013 C 1045.8332,2086.765 1013.8028,2084.436 984.6228,2078.0174 C 945.88692,2071.8612 906.00966,2065.9893 871.14802,2046.9772 C 842.67255,2037.2491 812.99898,2031.048 783.87351,2023.3286 C 723.08061,2009.154 661.66188,1997.1961 599.46147,1991.7345 C 598.22287,1991.817 596.99767,1992.0226 595.77731,1992.2416 z "
       id="path1931" />
    <path
       style="opacity:1;color:black;fill:url(#linearGradient3139);fill-opacity:1;fill-rule:evenodd;stroke:none;stroke-width:8;stroke-linecap:round;stroke-linejoin:round;marker:none;marker-start:none;marker-mid:none;marker-end:none;stroke-miterlimit:4;stroke-dasharray:none;stroke-dashoffset:0;stroke-opacity:1;visibility:visible;display:inline;overflow:visible"
       d="M 1181.1668,2245.2584 C 1097.0524,2251.4637 1172.249,2150.374 1222.3242,2175.9485 C 1356.1755,2130.9614 1502.6949,2098.81 1642.3532,2136.4472 C 1615.9937,2200.3804 1520.1904,2134.392 1466.2556,2163.4182 C 1367.8427,2177.9736 1278.1729,2225.0634 1181.1668,2245.2584 z "
       id="path1933" />
    <path
       style="opacity:1;color:black;fill:url(#radialGradient3163);fill-opacity:1.0;fill-rule:evenodd;stroke:none;stroke-width:8;stroke-linecap:round;stroke-linejoin:round;marker:none;marker-start:none;marker-mid:none;marker-end:none;stroke-miterlimit:4;stroke-dasharray:none;stroke-dashoffset:0;stroke-opacity:1;visibility:visible;display:inline;overflow:visible"
       d="M 1388.5,1893.9688 C 1330.9612,1865.8022 1340.911,1964.0718 1394.244,1929.4387 C 1497.655,1942.8875 1597.4557,1976.8125 1701.5379,1985.9883 C 1687.2283,1894.3916 1557.3292,1945.6946 1494.8334,1908.8861 C 1459.4774,1903.3066 1424.0125,1898.4363 1388.5,1893.9688 z "
       id="path1935" />
    <path
       style="opacity:1;color:black;fill:url(#linearGradient3131);fill-opacity:1;fill-rule:evenodd;stroke:none;stroke-width:8;stroke-linecap:round;stroke-linejoin:round;marker:none;marker-start:none;marker-mid:none;marker-end:none;stroke-miterlimit:4;stroke-dasharray:none;stroke-dashoffset:0;stroke-opacity:1;visibility:visible;display:inline;overflow:visible"
       d="M 1066.8363,1883.0033 C 1123.3325,1874.8575 1201.262,1980.1044 1105.042,1935.1676 C 1031.6747,1902.5264 948.33774,1879.6069 868.40294,1900.2385 C 792.58885,1904.8467 661.21232,1891.8978 625.52292,1848.7821 C 715.80672,1828.3288 807.74648,1873.8081 897.58096,1848.3736 C 955.39762,1848.6307 1015.0363,1855.5197 1066.8363,1883.0033 z "
       id="path1937" />
    <path
       style="opacity:1;color:black;fill:url(#linearGradient3189);fill-opacity:1;fill-rule:evenodd;stroke:none;stroke-width:8;stroke-linecap:round;stroke-linejoin:round;marker:none;marker-start:none;marker-mid:none;marker-end:none;stroke-miterlimit:4;stroke-dasharray:none;stroke-dashoffset:0;stroke-opacity:1;visibility:visible;display:inline;overflow:visible"
       d="M 1859.6117,2150.9317 C 1938.6818,2136.3298 1869.1228,2242.8806 1820.8803,2212.8685 C 1755.9816,2231.965 1689.9743,2267.6382 1620.7107,2254.7999 C 1582.3604,2220.7496 1694.8655,2201.6296 1726.4453,2196.829 C 1775.8228,2194.2848 1814.2,2164.7579 1859.6117,2150.9317 z "
       id="path1939" />
    <path
       style="opacity:1;color:black;fill:#6c693f;fill-opacity:1;fill-rule:evenodd;stroke:none;stroke-width:8;stroke-linecap:round;stroke-linejoin:round;marker:none;marker-start:none;marker-mid:none;marker-end:none;stroke-miterlimit:4;stroke-dasharray:none;stroke-dashoffset:0;stroke-opacity:1;visibility:visible;display:inline;overflow:visible"
       d="M 2129.7812,2311.8125 C 2091.4765,2340.116 1976.2117,2307.5185 1990.0089,2375.7274 C 2047.672,2380.9465 2181.436,2360.6837 2174.2175,2316.1322 C 2159.4528,2314.1044 2144.4556,2314.6445 2129.7812,2311.8125 z "
       id="path1941" />
    <path
       style="opacity:1;color:black;fill:url(#linearGradient3181);fill-opacity:1.0;fill-rule:evenodd;stroke:none;stroke-width:8;stroke-linecap:round;stroke-linejoin:round;marker:none;marker-start:none;marker-mid:none;marker-end:none;stroke-miterlimit:4;stroke-dasharray:none;stroke-dashoffset:0;stroke-opacity:1;visibility:visible;display:inline;overflow:visible"
       d="M 1816.9062,1934.5312 C 1771.2885,1891.0265 1745.2775,2013.4429 1805.1805,1966.0891 C 1940.2307,1959.9607 2051.4119,2050.2637 2177.4085,2082.6737 C 2247.9527,2025.3894 2097.4098,2004.0193 2057.9561,1980.9766 C 1981.6662,1950.5639 1899.8059,1927.6111 1816.9062,1934.5312 z "
       id="path1943" />
    <path
       style="opacity:1;color:black;fill:url(#linearGradient3205);fill-opacity:1.0;fill-rule:evenodd;stroke:none;stroke-width:8;stroke-linecap:round;stroke-linejoin:round;marker:none;marker-start:none;marker-mid:none;marker-end:none;stroke-miterlimit:4;stroke-dasharray:none;stroke-dashoffset:0;stroke-opacity:1;visibility:visible;display:inline;overflow:visible"
       d="M 2299.6562,2135.2188 C 2208.1203,2113.0686 2266.6686,2258.7086 2331.4622,2224.5823 C 2359.5327,2244.4807 2490.1027,2252.7703 2438.3202,2203.0999 C 2388.4317,2190.9302 2331.2332,2180.2578 2299.6562,2135.2188 z "
       id="path1945" />
    <path
       style="opacity:1;color:black;fill:url(#linearGradient3147);fill-opacity:1.0;fill-rule:evenodd;stroke:none;stroke-width:8;stroke-linecap:round;stroke-linejoin:round;marker:none;marker-start:none;marker-mid:none;marker-end:none;stroke-miterlimit:4;stroke-dasharray:none;stroke-dashoffset:0;stroke-opacity:1;visibility:visible;display:inline;overflow:visible"
       d="M 1285.75,2320.0938 C 1240.9065,2286.2282 1206.6719,2380.3107 1270.7972,2347.4519 C 1411.8372,2354.0288 1548.4361,2408.1302 1690.7397,2395.3265 C 1633.4653,2323.8591 1523.4353,2378.4696 1448.7601,2333.8202 C 1395.1068,2323.8395 1340.4316,2316.3598 1285.75,2320.0938 z "
       id="path1947" />
    <path
       style="opacity:1;color:black;fill:url(#linearGradient3197);fill-opacity:1;fill-rule:evenodd;stroke:none;stroke-width:8;stroke-linecap:round;stroke-linejoin:round;marker:none;marker-start:none;marker-mid:none;marker-end:none;stroke-miterlimit:4;stroke-dasharray:none;stroke-dashoffset:0;stroke-opacity:1;visibility:visible;display:inline;overflow:visible"
       d="M 2077.2478,2123.741 C 2110.8758,2117.8965 2241.5084,2114.3915 2195.6051,2160.6399 C 2108.5487,2154.5091 2018.4903,2151.004 1934.6429,2179.4613 C 1865.6078,2172.8061 1943.0984,2108.0383 1980.0809,2131.4532 C 2012.2411,2126.7188 2044.7043,2123.4011 2077.2478,2123.741 z "
       id="path1949" />
    <path
       style="opacity:1;color:black;fill:url(#linearGradient3213);fill-opacity:1.0;fill-rule:evenodd;stroke:none;stroke-width:8;stroke-linecap:round;stroke-linejoin:round;marker:none;marker-start:none;marker-mid:none;marker-end:none;stroke-miterlimit:4;stroke-dasharray:none;stroke-dashoffset:0;stroke-opacity:1;visibility:visible;display:inline;overflow:visible"
       d="M 2089.6251,1940.9905 C 2189.1402,1982.7477 2296.2552,1943.6073 2399.1174,1944.6042 C 2473.04,1920.3094 2407.7466,1880.2131 2363.5138,1906.7053 C 2271.7417,1911.1948 2176.5043,1905.6627 2089.6251,1940.9905 z "
       id="path1951" />
    <path
       style="opacity:1;color:black;fill:url(#linearGradient3155);fill-opacity:1.0;fill-rule:evenodd;stroke:none;stroke-width:8;stroke-linecap:round;stroke-linejoin:round;marker:none;marker-start:none;marker-mid:none;marker-end:none;stroke-miterlimit:4;stroke-dasharray:none;stroke-dashoffset:0;stroke-opacity:1;visibility:visible;display:inline;overflow:visible"
       d="M 1509.8573,1999.0231 C 1596.1906,1991.0734 1528.7692,2109.3356 1473.4276,2059.5981 C 1415.2496,2063.9452 1333.8481,2082.7727 1299.1741,2020.5883 C 1368.9822,2010.2153 1444.7639,2034.9302 1509.8573,1999.0231 z "
       id="path1953" />
    <path
       style="opacity:1;color:black;fill:url(#linearGradient3173);fill-opacity:1.0;fill-rule:evenodd;stroke:none;stroke-width:8;stroke-linecap:round;stroke-linejoin:round;marker:none;marker-start:none;marker-mid:none;marker-end:none;stroke-miterlimit:4;stroke-dasharray:none;stroke-dashoffset:0;stroke-opacity:1;visibility:visible;display:inline;overflow:visible"
       d="M 1407.625,1715.2812 C 1330.9885,1694.3756 1375.2726,1805.1042 1430.9352,1781.0735 C 1541.6936,1827.684 1660.0369,1870.7314 1782.2334,1859.8126 C 1731.8838,1787.4047 1620.8637,1836.4115 1556.4821,1777.1226 C 1506.6686,1756.9772 1457.7845,1734.5784 1407.625,1715.2812 z "
       id="path1955" />
    <path
       style="opacity:1;color:black;fill:url(#linearGradient3115);fill-opacity:1.0;fill-rule:evenodd;stroke:none;stroke-width:8;stroke-linecap:round;stroke-linejoin:round;marker:none;marker-start:none;marker-mid:none;marker-end:none;stroke-miterlimit:4;stroke-dasharray:none;stroke-dashoffset:0;stroke-opacity:1;visibility:visible;display:inline;overflow:visible"
       d="M 586.1875,2280.3125 C 540.61554,2245.6621 494.02218,2337.9461 567.76748,2315.1557 C 660.07468,2344.9559 752.72711,2400.5588 853.19777,2379.6031 C 882.76361,2409.3408 1005.4246,2360.3285 913.86382,2354.439 C 818.9356,2357.7224 725.91441,2336.8744 645.57267,2286.7237 C 626.54427,2280.5009 606.14192,2277.2255 586.1875,2280.3125 z "
       id="path1957" />
  </g>
</svg>
