<?xml version="1.0" encoding="UTF-8" standalone="no"?>
<!-- Created with Inkscape (http://www.inkscape.org/) -->
<svg
   xmlns:dc="http://purl.org/dc/elements/1.1/"
   xmlns:cc="http://web.resource.org/cc/"
   xmlns:rdf="http://www.w3.org/1999/02/22-rdf-syntax-ns#"
   xmlns:svg="http://www.w3.org/2000/svg"
   xmlns="http://www.w3.org/2000/svg"
   xmlns:xlink="http://www.w3.org/1999/xlink"
   xmlns:sodipodi="http://inkscape.sourceforge.net/DTD/sodipodi-0.dtd"
   xmlns:inkscape="http://www.inkscape.org/namespaces/inkscape"
   width="1600"
   height="1325"
   id="svg2"
   sodipodi:version="0.32"
   inkscape:version="0.43"
   version="1.0"
   sodipodi:docbase="/home/yekcim/Desktop/SVG/Maps"
   sodipodi:docname="fondarbres.svg"
   inkscape:output_extension="org.inkscape.output.svg.inkscape">
  <defs
     id="defs4">
    <linearGradient
       id="linearGradient2186">
      <stop
         style="stop-color:#94dc82;stop-opacity:1;"
         offset="0"
         id="stop2188" />
      <stop
         style="stop-color:#55c839;stop-opacity:1;"
         offset="1"
         id="stop2190" />
    </linearGradient>
    <linearGradient
       id="linearGradient2218">
      <stop
         style="stop-color:#3073c3;stop-opacity:1;"
         offset="0"
         id="stop2220" />
      <stop
         style="stop-color:#b7ede9;stop-opacity:1;"
         offset="1"
         id="stop2222" />
    </linearGradient>
    <radialGradient
       inkscape:collect="always"
       xlink:href="#linearGradient2218"
       id="radialGradient2224"
       cx="508.68265"
       cy="982.92877"
       fx="508.68265"
       fy="982.92877"
       r="915.71429"
       gradientTransform="matrix(1.441091,2.973197e-2,-2.621573e-2,1.300805,95.56754,-47.39471)"
       gradientUnits="userSpaceOnUse" />
    <linearGradient
       inkscape:collect="always"
       xlink:href="#linearGradient2186"
       id="linearGradient2195"
       gradientUnits="userSpaceOnUse"
       x1="722.09497"
       y1="521.78589"
       x2="930.17841"
       y2="1701.644"
       gradientTransform="matrix(1,0,0,0.975306,0,10.73544)" />
  </defs>
  <sodipodi:namedview
     id="base"
     pagecolor="#ffffff"
     bordercolor="#666666"
     borderopacity="1.0"
     inkscape:pageopacity="0.0"
     inkscape:pageshadow="2"
     inkscape:zoom="0.35"
     inkscape:cx="1428.9487"
     inkscape:cy="567.03912"
     inkscape:document-units="px"
     inkscape:current-layer="layer1"
     inkscape:window-width="1440"
     inkscape:window-height="825"
     inkscape:window-x="0"
     inkscape:window-y="25" />
  <metadata
     id="metadata7">
    <rdf:RDF>
      <cc:Work
         rdf:about="">
        <dc:format>image/svg+xml</dc:format>
        <dc:type
           rdf:resource="http://purl.org/dc/dcmitype/StillImage" />
      </cc:Work>
    </rdf:RDF>
  </metadata>
  <g
     inkscape:label="Calque 1"
     inkscape:groupmode="layer"
     id="layer1">
    <rect
       style="opacity:1;color:#000000;fill:url(#radialGradient2224);fill-opacity:1;fill-rule:evenodd;stroke:none;stroke-width:1.46399999;stroke-linecap:round;stroke-linejoin:round;marker:none;marker-start:none;marker-mid:none;marker-end:none;stroke-miterlimit:4;stroke-dasharray:none;stroke-dashoffset:0;stroke-opacity:1;visibility:visible;display:inline;overflow:visible"
       id="rect2208"
       width="1628.5715"
       height="922.85712"
       x="-11.428569"
       y="-9.2857103" />
    <path
       style="opacity:1;color:#000000;fill:url(#linearGradient2195);fill-opacity:1;fill-rule:evenodd;stroke:none;stroke-width:1.46399999;stroke-linecap:round;stroke-linejoin:round;marker:none;marker-start:none;marker-mid:none;marker-end:none;stroke-miterlimit:4;stroke-dashoffset:0;stroke-opacity:1;visibility:visible;display:inline;overflow:visible"
       d="M 692.65625,434.74989 C 684.76055,435.1313 676.69096,442.83966 668.53125,460.68694 C 630.0192,544.92224 637.98877,667.06652 530.28125,708.44524 C 471.48235,731.03441 402.07224,632.86732 345.53125,545.56907 C 345.00381,547.64637 344.59671,549.85057 344,551.84761 C 342.57421,556.61934 340.94573,561.1501 339.09375,565.37999 C 338.16775,567.4949 337.1969,569.51824 336.15625,571.47565 C 335.11559,573.43303 334.00446,575.2985 332.84375,577.08366 C 330.52231,580.65395 328.38658,583.56296 326.40625,585.86142 C 324.42591,588.15985 322.59989,589.86905 320.90625,591.07321 C 320.05942,591.67527 319.2541,592.14389 318.46875,592.50569 C 317.68339,592.86746 316.91818,593.12393 316.1875,593.26765 C 315.45681,593.41134 314.74531,593.44173 314.0625,593.38957 C 313.37968,593.33737 312.73549,593.18873 312.09375,592.96287 C 310.81026,592.51111 309.59752,591.75129 308.4375,590.73795 C 307.27747,589.72459 306.15346,588.44745 305.0625,587.05007 C 302.88057,584.25529 300.79464,580.8978 298.5625,577.63227 C 297.44642,575.99947 296.30399,574.39225 295.09375,572.90813 C 293.8835,571.42399 292.60882,570.0429 291.25,568.88499 C 289.89117,567.72706 288.4368,566.79607 286.875,566.14194 C 286.09409,565.81486 285.27935,565.54782 284.4375,565.37999 C 283.59564,565.21213 282.7221,565.12255 281.8125,565.13616 C 280.90289,565.14974 279.9529,565.25419 278.96875,565.47142 C 277.98459,565.68862 276.97175,566.03414 275.90625,566.47721 C 274.84074,566.92024 273.7474,567.46244 272.59375,568.15351 C 271.44009,568.84456 270.21735,569.69144 268.96875,570.65274 C 266.47153,572.57529 263.79283,575.04427 260.875,578.18088 C 257.95716,581.31747 254.79911,585.11252 251.40625,589.64073 C 249.70981,591.90481 248.02265,594.00455 246.34375,595.94974 C 244.66484,597.89492 243.00356,599.67231 241.34375,601.31393 C 239.68393,602.95552 238.04539,604.4714 236.40625,605.82472 C 234.7671,607.17802 233.11691,608.3713 231.5,609.45164 C 229.88308,610.53196 228.2806,611.49392 226.6875,612.31661 C 225.09439,613.13926 223.50523,613.83929 221.9375,614.41961 C 220.36976,614.9999 218.82204,615.43788 217.28125,615.79113 C 215.74045,616.14436 214.23103,616.41159 212.71875,616.55309 C 211.20646,616.69457 209.70095,616.72994 208.21875,616.67501 C 206.73654,616.62004 205.26304,616.4539 203.8125,616.21783 C 202.36195,615.98173 200.94857,615.6749 199.53125,615.273 C 198.11392,614.87108 196.69503,614.39294 195.3125,613.84052 C 192.54742,612.73566 189.86649,611.34103 187.25,609.72595 C 184.6335,608.11084 182.08036,606.27319 179.625,604.27033 C 177.16963,602.26744 174.81292,600.10758 172.53125,597.8394 C 170.24957,595.57119 168.03292,593.17948 165.9375,590.76843 C 161.74664,585.94629 157.96429,580.98054 154.59375,576.3217 C 151.2232,571.66284 148.29353,567.311 145.84375,563.79511 C 143.39396,560.27919 141.42857,557.5993 140,556.20601 C 139.2857,555.50933 138.4209,555.06103 137.46875,554.83449 C 136.51659,554.60791 135.45592,554.5825 134.28125,554.74305 C 133.10657,554.90358 131.81934,555.2537 130.4375,555.71836 C 129.05565,556.18298 127.57366,556.76985 126,557.45562 C 122.85268,558.82712 119.35379,560.5742 115.53125,562.33215 C 111.70871,564.09007 107.5625,565.85022 103.1875,567.3306 C 101,568.07076 98.771345,568.73491 96.46875,569.28121 C 94.166158,569.82748 91.808594,570.26141 89.40625,570.53082 C 87.003909,570.8002 84.549247,570.92608 82.0625,570.83561 C 79.575756,570.7451 77.055804,570.45463 74.5,569.92126 C 71.944199,569.38785 69.359515,568.60321 66.75,567.54395 C 64.140488,566.48466 61.49163,565.128 58.84375,563.45985 C 56.19587,561.79168 53.545898,559.81565 50.875,557.45562 C 50.555778,557.17352 50.225678,556.77293 49.90625,556.48031 C 32.877986,603.21056 10.36804,668.4131 -11.4375,732.5536 L -11.4375,1337.5179 L 1614.2812,1337.5179 L 1614.2812,758.61256 C 1586.4017,685.62631 1556.117,608.11098 1532.2188,551.45139 C 1532.0782,551.6961 1531.9542,551.97076 1531.8125,552.21335 C 1530.1197,555.10881 1528.3471,557.83578 1526.4688,560.38154 C 1524.5905,562.92728 1522.6029,565.27731 1520.5312,567.39155 C 1518.4597,569.50578 1516.3041,571.3986 1514.0312,572.99957 C 1512.8949,573.80002 1511.7358,574.29696 1510.5312,574.55396 C 1509.3269,574.81093 1508.0786,574.82641 1506.8125,574.58444 C 1505.5463,574.34244 1504.2592,573.84841 1502.9375,573.15196 C 1501.6157,572.45547 1500.2463,571.54582 1498.875,570.43939 C 1497.5038,569.33292 1496.1332,568.04056 1494.7188,566.56864 C 1493.3043,565.09669 1491.8579,563.45454 1490.4062,561.66163 C 1487.5031,558.07579 1484.5459,553.8902 1481.5312,549.28743 C 1478.5166,544.68463 1475.4519,539.64728 1472.375,534.38353 C 1469.2982,529.11975 1466.1833,523.61588 1463.0938,518.04715 C 1456.9145,506.90965 1450.7784,495.53496 1444.8438,485.31343 C 1441.8765,480.20266 1438.9573,475.3669 1436.125,471.01909 C 1433.2929,466.67128 1430.5539,462.81859 1427.9062,459.58972 C 1426.5824,457.97529 1425.2686,456.49927 1424,455.23132 C 1422.7316,453.96337 1421.4883,452.87758 1420.2812,452.00062 C 1419.0743,451.12365 1417.9206,450.46102 1416.7812,450.01953 C 1415.642,449.57804 1414.5341,449.37148 1413.4688,449.40996 C 1412.4034,449.44845 1411.3604,449.73088 1410.375,450.29383 C 1409.3897,450.85679 1408.4616,451.6916 1407.5625,452.82353 C 1406.6633,453.95546 1405.8069,455.40606 1405,457.15146 C 1404.1932,458.89685 1403.4271,460.93519 1402.7188,463.33856 C 1402.0105,465.74192 1401.3537,468.49235 1400.75,471.59818 C 1400.1464,474.70402 1399.5864,478.16897 1399.0938,482.02177 C 1398.6011,485.87457 1398.1881,490.11745 1397.8125,494.76171 C 1397.4367,499.40597 1397.0962,504.4597 1396.8438,509.93991 C 1396.5913,515.42013 1396.269,520.60014 1395.875,525.51434 C 1395.4811,530.42851 1395.0262,535.07227 1394.5,539.44293 C 1393.974,543.81356 1393.3991,547.93704 1392.75,551.78665 C 1392.1011,555.63624 1391.3876,559.22492 1390.625,562.57598 C 1389.8625,565.92701 1389.0231,569.02736 1388.1562,571.90235 C 1387.2894,574.77731 1386.3994,577.4053 1385.4375,579.82671 C 1384.4754,582.24809 1383.4542,584.45019 1382.4062,586.44051 C 1381.3584,588.4308 1380.2809,590.22297 1379.1562,591.80469 C 1378.0317,593.38639 1376.8484,594.75414 1375.6562,595.94974 C 1374.4643,597.14532 1373.2502,598.16558 1372,598.99758 C 1370.7499,599.82954 1369.4865,600.48781 1368.1875,600.97867 C 1366.8884,601.4695 1365.5573,601.78176 1364.2188,601.95397 C 1362.8802,602.12617 1361.5254,602.16934 1360.1562,602.04541 C 1358.7873,601.92145 1357.3903,601.65057 1356,601.25297 C 1354.6099,600.85535 1353.2144,600.31686 1351.8125,599.6681 C 1350.4104,599.01931 1348.9984,598.25968 1347.5938,597.38223 C 1346.1891,596.50474 1344.8045,595.50947 1343.4062,594.42583 C 1342.0082,593.34216 1340.601,592.1577 1339.2188,590.89034 C 1336.4542,588.35562 1333.7394,585.49099 1331.0938,582.35641 C 1328.4481,579.22181 1325.8902,575.82263 1323.4375,572.26809 C 1320.9846,568.71351 1318.6235,564.99905 1316.4375,561.20446 C 1314.2514,557.40983 1312.2204,553.53837 1310.375,549.68365 C 1308.5298,545.8289 1306.8991,541.98921 1305.4688,538.25428 C 1304.0384,534.51931 1302.8167,530.90019 1301.875,527.46495 C 1300.9335,524.02968 1300.254,520.78943 1299.875,517.8338 C 1299.6856,516.35596 1299.4086,515.09105 1299.0625,514.05449 C 1298.7162,513.01789 1298.3056,512.18401 1297.8125,511.55526 C 1297.3192,510.92649 1296.7555,510.49906 1296.125,510.2447 C 1295.4947,509.99031 1294.7889,509.91428 1294.0312,510.00087 C 1293.2737,510.08746 1292.4688,510.33824 1291.5938,510.73235 C 1290.7188,511.12643 1289.7949,511.67951 1288.8125,512.3477 C 1286.8474,513.68406 1284.6797,515.54073 1282.3438,517.77284 C 1280.0078,520.00493 1277.5031,522.593 1274.875,525.45338 C 1272.2471,528.31373 1269.4662,531.43666 1266.625,534.65783 C 1260.9429,541.10014 1254.9361,548.00518 1248.875,554.28588 C 1245.8446,557.4262 1242.7881,560.39537 1239.7812,563.09411 C 1236.7745,565.79282 1233.8105,568.20591 1230.9062,570.19556 C 1229.4542,571.19036 1228.0053,572.07976 1226.5938,572.84718 C 1225.1822,573.61456 1223.7988,574.26075 1222.4375,574.76731 C 1221.0761,575.27383 1219.7386,575.65226 1218.4375,575.86453 C 1217.1363,576.07677 1215.8875,576.13238 1214.6562,576.01692 C 1213.4252,575.90143 1212.2136,575.60966 1211.0625,575.13305 C 1209.9112,574.65641 1208.8116,573.99268 1207.75,573.12148 C 1206.6886,572.25025 1205.6805,571.15951 1204.7188,569.8603 C 1203.757,568.56105 1202.8525,567.04922 1202,565.28855 C 1201.1477,563.52785 1200.3267,561.53988 1199.5938,559.28432 C 1198.8608,557.02873 1198.1975,554.50958 1197.5938,551.7257 C 1196.9901,548.94178 1196.4647,545.86688 1196,542.52124 C 1195.8183,541.21272 1195.6908,539.65225 1195.5312,538.25428 C 1148.626,646.57566 1098.6471,751.65439 1049.0938,779.88643 C 937.12472,843.67864 877.76873,682.83819 844.8125,604.51415 C 815.27593,534.31723 815.38946,668.56798 785.96875,624.23363 C 762.35897,588.65575 729.39136,433.78772 692.9375,434.74989 C 692.84392,434.75235 692.74987,434.74536 692.65625,434.74989 z "
       id="path2238" />
    <path
       style="opacity:1;color:#000000;fill:#ffffff;fill-opacity:1;fill-rule:evenodd;stroke:none;stroke-width:1.46399999;stroke-linecap:round;stroke-linejoin:round;marker:none;marker-start:none;marker-mid:none;marker-end:none;stroke-miterlimit:4;stroke-dashoffset:0;stroke-opacity:1;visibility:visible;display:inline;overflow:visible"
       d="M 49.919643,559.5759 C 50.239071,559.87592 50.569171,560.28669 50.888393,560.5759 C 53.559291,562.99568 56.209263,565.02177 58.857143,566.73215 C 61.505023,568.44253 64.153878,569.83357 66.763393,570.91965 C 69.372908,572.00573 71.957589,572.81027 74.513393,573.35715 C 77.069197,573.90403 79.589146,574.20188 82.075893,574.29465 C 84.56264,574.38742 87.017299,574.25838 89.419643,573.98215 C 91.821987,573.70592 94.179548,573.26103 96.482143,572.7009 C 98.784738,572.14077 101.01339,571.45983 103.20089,570.7009 C 107.57589,569.18304 111.7221,567.37836 115.54464,565.5759 C 119.36718,563.77344 122.86607,561.98215 126.01339,560.5759 C 127.58705,559.87277 129.06905,559.27107 130.45089,558.79465 C 131.83273,558.31823 133.11997,557.95927 134.29464,557.79465 C 135.46931,557.63003 136.52999,557.65612 137.48214,557.8884 C 138.43429,558.12068 139.2991,558.58036 140.01339,559.29465 C 141.44196,560.72322 143.40736,563.47099 145.85714,567.0759 C 148.30692,570.68081 151.2366,575.14286 154.60714,579.91965 C 157.97768,584.69644 161.76004,589.78795 165.95089,594.73215 C 168.04631,597.20425 170.26297,599.65654 172.54464,601.98215 C 174.82631,604.30776 177.18303,606.52233 179.63839,608.5759 C 182.09375,610.62947 184.6469,612.51368 187.26339,614.16965 C 189.87988,615.82562 192.56082,617.25559 195.32589,618.3884 C 196.70842,618.95481 198.12732,619.44508 199.54464,619.85715 C 200.96196,620.26922 202.37535,620.58385 203.82589,620.8259 C 205.27643,621.06795 206.74994,621.23832 208.23214,621.29465 C 209.71434,621.35098 211.21986,621.31474 212.73214,621.16965 C 214.24442,621.02456 215.75385,620.7506 217.29464,620.3884 C 218.83543,620.0262 220.38316,619.57716 221.95089,618.98215 C 223.51862,618.38714 225.10779,617.66941 226.70089,616.8259 C 228.29399,615.98239 229.89648,614.9961 231.51339,613.8884 C 233.1303,612.7807 234.7805,611.55724 236.41964,610.16965 C 238.05878,608.78206 239.69733,607.22783 241.35714,605.54465 C 243.01695,603.86147 244.67824,602.0391 246.35714,600.04465 C 248.03604,598.0502 249.72321,595.89733 251.41964,593.5759 C 254.8125,588.93304 257.97056,585.04193 260.88839,581.8259 C 263.80622,578.60987 266.48493,576.07841 268.98214,574.10715 C 270.23074,573.12152 271.45349,572.25322 272.60714,571.54465 C 273.76079,570.83608 274.85414,570.28018 275.91964,569.8259 C 276.98514,569.37162 277.99799,569.01738 278.98214,568.79465 C 279.96629,568.57192 280.91629,568.46485 281.82589,568.4509 C 282.73549,568.43695 283.60904,568.52882 284.45089,568.7009 C 285.29274,568.87298 286.10749,569.14681 286.88839,569.48215 C 288.45019,570.15284 289.90457,571.10743 291.26339,572.29465 C 292.62221,573.48187 293.8969,574.89796 295.10714,576.41965 C 296.31738,577.94134 297.45982,579.58929 298.57589,581.2634 C 300.80803,584.61161 302.89397,588.05414 305.07589,590.91965 C 306.16685,592.35241 307.29087,593.66191 308.45089,594.7009 C 309.61091,595.73989 310.82366,596.51898 312.10714,596.98215 C 312.74888,597.21373 313.39308,597.36616 314.07589,597.41965 C 314.7587,597.47314 315.47021,597.44201 316.20089,597.29465 C 316.93157,597.14729 317.69679,596.88436 318.48214,596.5134 C 319.26749,596.14244 320.07282,595.66198 320.91964,595.04465 C 322.61328,593.81 324.43931,592.05755 326.41964,589.7009 C 328.39997,587.34425 330.53571,584.36161 332.85714,580.7009 C 334.01785,578.87054 335.12899,576.95787 336.16964,574.9509 C 337.21029,572.94393 338.18115,570.86939 339.10714,568.7009 C 340.95912,564.36392 342.58761,559.71848 344.01339,554.8259 C 344.6101,552.7783 345.01721,550.51832 345.54464,548.3884 C 298.51417,473.93572 260.23307,407.03985 245.79464,427.0134 C 168.3917,534.08957 173.82226,318.25343 122.29464,392.66965 C 101.93615,422.07141 75.552477,487.45132 49.919643,559.5759 z "
       id="path2206" />
    <path
       style="opacity:1;color:#000000;fill:#ebfaeb;fill-opacity:1;fill-rule:evenodd;stroke:none;stroke-width:1.46399999;stroke-linecap:round;stroke-linejoin:round;marker:none;marker-start:none;marker-mid:none;marker-end:none;stroke-miterlimit:4;stroke-dashoffset:0;stroke-opacity:1;visibility:visible;display:inline;overflow:visible"
       d="M 1195.5446,540.8884 C 1195.704,542.32177 1195.8316,543.92178 1196.0133,545.2634 C 1196.478,548.69375 1197.0034,551.84653 1197.6071,554.7009 C 1198.2108,557.55527 1198.8741,560.13823 1199.6071,562.4509 C 1200.3401,564.76357 1201.161,566.8019 1202.0133,568.60715 C 1202.8657,570.4124 1203.7703,571.96254 1204.7321,573.29465 C 1205.6939,574.62676 1206.7019,575.74514 1207.7633,576.6384 C 1208.8248,577.53166 1209.9246,578.21222 1211.0759,578.7009 C 1212.2271,579.18958 1213.4385,579.48877 1214.6696,579.60715 C 1215.9007,579.72553 1217.1497,579.66854 1218.4509,579.4509 C 1219.752,579.23326 1221.0895,578.84528 1222.4509,578.3259 C 1223.8122,577.80652 1225.1955,577.14399 1226.6071,576.35715 C 1228.0187,575.57031 1229.4675,574.65842 1230.9196,573.6384 C 1233.8238,571.59837 1236.7878,569.12422 1239.7946,566.35715 C 1242.8014,563.59008 1245.8579,560.54576 1248.8883,557.3259 C 1254.9493,550.88618 1260.9562,543.80635 1266.6383,537.2009 C 1269.4794,533.89817 1272.2604,530.6962 1274.8883,527.7634 C 1277.5163,524.8306 1280.0211,522.17703 1282.3571,519.8884 C 1284.6931,517.59977 1286.8608,515.69612 1288.8259,514.3259 C 1289.8084,513.64079 1290.7321,513.07374 1291.6071,512.66965 C 1292.4821,512.26556 1293.287,512.00843 1294.0446,511.91965 C 1294.8022,511.83087 1295.508,511.90885 1296.1383,512.16965 C 1296.7687,512.43045 1297.3326,512.86874 1297.8259,513.5134 C 1298.3191,514.15806 1298.7296,515.01309 1299.0759,516.0759 C 1299.4221,517.13871 1299.6989,518.43567 1299.8883,519.9509 C 1300.2672,522.98136 1300.9468,526.30368 1301.8883,529.8259 C 1302.8299,533.34812 1304.0517,537.0589 1305.4821,540.8884 C 1306.9125,544.7179 1308.5431,548.65483 1310.3883,552.60715 C 1312.2336,556.55947 1314.2648,560.52898 1316.4509,564.41965 C 1318.6369,568.31032 1320.998,572.11886 1323.4509,575.7634 C 1325.9037,579.40794 1328.4614,582.89321 1331.1071,586.10715 C 1333.7528,589.32109 1336.4675,592.25828 1339.2321,594.85715 C 1340.6144,596.15659 1342.0215,597.37107 1343.4196,598.48215 C 1344.8177,599.59323 1346.2024,600.61373 1347.6071,601.5134 C 1349.0118,602.41307 1350.4238,603.19196 1351.8259,603.85715 C 1353.2279,604.52234 1354.6232,605.07449 1356.0133,605.48215 C 1357.4035,605.88981 1358.8006,606.16758 1360.1696,606.29465 C 1361.5386,606.42172 1362.8935,606.37748 1364.2321,606.2009 C 1365.5707,606.02432 1366.9018,605.70419 1368.2009,605.2009 C 1369.4999,604.69761 1370.7632,604.02271 1372.0133,603.16965 C 1373.2635,602.31659 1374.4776,601.27053 1375.6696,600.04465 C 1376.8616,598.81877 1378.045,597.41642 1379.1696,595.79465 C 1380.2942,594.17288 1381.3717,592.33536 1382.4196,590.29465 C 1383.4675,588.25394 1384.4888,585.99612 1385.4509,583.5134 C 1386.4129,581.03068 1387.3027,578.33618 1388.1696,575.3884 C 1389.0365,572.44062 1389.8758,569.2618 1390.6383,565.8259 C 1391.4009,562.39 1392.1144,558.71048 1392.7633,554.7634 C 1393.4123,550.81632 1393.9873,546.58847 1394.5133,542.10715 C 1395.0394,537.62583 1395.4944,532.86452 1395.8883,527.8259 C 1396.2823,522.78728 1396.6046,517.47612 1396.8571,511.85715 C 1397.1096,506.23818 1397.4501,501.0565 1397.8259,496.29465 C 1398.2016,491.5328 1398.6144,487.1825 1399.1071,483.23215 C 1399.5998,479.2818 1400.1597,475.72912 1400.7633,472.54465 C 1401.367,469.36018 1402.0238,466.54012 1402.7321,464.0759 C 1403.4404,461.61168 1404.2065,459.52174 1405.0133,457.73215 C 1405.8202,455.94256 1406.6767,454.45524 1407.5759,453.29465 C 1408.475,452.13406 1409.403,451.27811 1410.3883,450.7009 C 1411.3737,450.12369 1412.4167,449.83411 1413.4821,449.79465 C 1414.5475,449.75519 1415.6553,449.96698 1416.7946,450.41965 C 1417.9339,450.87232 1419.0876,451.55173 1420.2946,452.4509 C 1421.5016,453.35007 1422.7449,454.46335 1424.0133,455.7634 C 1425.2818,457.06345 1426.5957,458.57684 1427.9196,460.23215 C 1430.5673,463.54277 1433.3062,467.49301 1436.1383,471.9509 C 1438.9705,476.40879 1441.8898,481.36698 1444.8571,486.60715 C 1450.7917,497.08748 1456.9278,508.75019 1463.1071,520.16965 C 1466.1967,525.87938 1469.3115,531.52263 1472.3883,536.91965 C 1475.4652,542.31667 1478.5299,547.48159 1481.5446,552.2009 C 1484.5593,556.92021 1487.5164,561.2118 1490.4196,564.8884 C 1491.8712,566.7267 1493.3176,568.41046 1494.7321,569.91965 C 1496.1466,571.42884 1497.5171,572.75395 1498.8883,573.8884 C 1500.2596,575.02285 1501.6291,575.95556 1502.9509,576.66965 C 1504.2726,577.38374 1505.5597,577.8903 1506.8259,578.1384 C 1508.092,578.3865 1509.3402,578.37066 1510.5446,578.10715 C 1511.749,577.84364 1512.9082,577.33415 1514.0446,576.5134 C 1516.3174,574.8719 1518.473,572.93118 1520.5446,570.7634 C 1522.6162,568.59562 1524.6038,566.18612 1526.4821,563.5759 C 1528.3604,560.96568 1530.1331,558.1697 1531.8259,555.2009 C 1531.9677,554.95217 1532.0915,554.67058 1532.2321,554.41965 C 1471.1962,406.04814 1398.2059,256.79494 1351.2946,256.29465 C 1308.8626,255.84213 1254.625,400.99582 1195.5446,540.8884 z "
       id="rect1327" />
  </g>
</svg>
