<?xml version="1.0" encoding="UTF-8" standalone="no"?>
<!-- Created with Inkscape (http://www.inkscape.org/) -->
<svg
   xmlns:dc="http://purl.org/dc/elements/1.1/"
   xmlns:cc="http://web.resource.org/cc/"
   xmlns:rdf="http://www.w3.org/1999/02/22-rdf-syntax-ns#"
   xmlns:svg="http://www.w3.org/2000/svg"
   xmlns="http://www.w3.org/2000/svg"
   xmlns:xlink="http://www.w3.org/1999/xlink"
   xmlns:sodipodi="http://sodipodi.sourceforge.net/DTD/sodipodi-0.dtd"
   xmlns:inkscape="http://www.inkscape.org/namespaces/inkscape"
   width="300"
   height="225"
   id="svg2"
   sodipodi:version="0.32"
   inkscape:version="0.45"
   version="1.0"
   inkscape:export-filename="/home/yekcim/Desktop/preview2.png"
   inkscape:export-xdpi="90"
   inkscape:export-ydpi="90"
   sodipodi:docname="random map preview.svg"
   sodipodi:docbase="/home/yekcim/Mes dessins/Wormux/maps"
   inkscape:output_extension="org.inkscape.output.svg.inkscape"
   sodipodi:modified="TRUE">
  <defs
     id="defs4">
    <linearGradient
       y2="577.26147"
       x2="803.51434"
       y1="521.48157"
       x1="749.50446"
       gradientUnits="userSpaceOnUse"
       id="linearGradient3652"
       xlink:href="#linearGradient9884"
       inkscape:collect="always" />
    <linearGradient
       y2="567.74658"
       x2="803.16522"
       y1="539.46381"
       x1="770.01819"
       gradientUnits="userSpaceOnUse"
       id="linearGradient3650"
       xlink:href="#linearGradient9884"
       inkscape:collect="always" />
    <linearGradient
       y2="577.26147"
       x2="803.51434"
       y1="521.48157"
       x1="749.50446"
       gradientUnits="userSpaceOnUse"
       id="linearGradient3648"
       xlink:href="#linearGradient9884"
       inkscape:collect="always" />
    <linearGradient
       y2="567.74658"
       x2="803.16522"
       y1="539.46381"
       x1="770.01819"
       gradientUnits="userSpaceOnUse"
       id="linearGradient3646"
       xlink:href="#linearGradient9884"
       inkscape:collect="always" />
    <linearGradient
       y2="567.74658"
       x2="803.16522"
       y1="539.46381"
       x1="770.01819"
       gradientUnits="userSpaceOnUse"
       id="linearGradient21449"
       xlink:href="#linearGradient9884"
       inkscape:collect="always" />
    <linearGradient
       id="linearGradient9884">
      <stop
         id="stop9886"
         offset="0"
         style="stop-color:#376b34;stop-opacity:1;" />
      <stop
         id="stop9888"
         offset="1"
         style="stop-color:#4f2512;stop-opacity:1;" />
    </linearGradient>
    <linearGradient
       y2="577.26147"
       x2="803.51434"
       y1="521.48157"
       x1="749.50446"
       gradientUnits="userSpaceOnUse"
       id="linearGradient21451"
       xlink:href="#linearGradient9884"
       inkscape:collect="always" />
    <linearGradient
       y2="567.74658"
       x2="803.16522"
       y1="539.46381"
       x1="770.01819"
       gradientUnits="userSpaceOnUse"
       id="linearGradient21453"
       xlink:href="#linearGradient9884"
       inkscape:collect="always" />
    <linearGradient
       y2="577.26147"
       x2="803.51434"
       y1="521.48157"
       x1="749.50446"
       gradientUnits="userSpaceOnUse"
       id="linearGradient21455"
       xlink:href="#linearGradient9884"
       inkscape:collect="always" />
    <filter
       inkscape:collect="always"
       id="filter3527">
      <feGaussianBlur
         inkscape:collect="always"
         stdDeviation="0.65586987"
         id="feGaussianBlur3529" />
    </filter>
  </defs>
  <sodipodi:namedview
     id="base"
     pagecolor="#ffffff"
     bordercolor="#666666"
     borderopacity="1.0"
     inkscape:pageopacity="0.0"
     inkscape:pageshadow="2"
     inkscape:zoom="1"
     inkscape:cx="388.60176"
     inkscape:cy="132.66121"
     inkscape:document-units="px"
     inkscape:current-layer="layer2"
     width="300px"
     height="225px"
     borderlayer="true"
     inkscape:showpageshadow="false"
     inkscape:window-width="1280"
     inkscape:window-height="725"
     inkscape:window-x="0"
     inkscape:window-y="49" />
  <metadata
     id="metadata7">
    <rdf:RDF>
      <cc:Work
         rdf:about="">
        <dc:format>image/svg+xml</dc:format>
        <dc:type
           rdf:resource="http://purl.org/dc/dcmitype/StillImage" />
      </cc:Work>
    </rdf:RDF>
  </metadata>
  <g
     inkscape:groupmode="layer"
     id="layer3"
     inkscape:label="map2">
    <image
       y="-16"
       x="-52.999996"
       id="image3538"
       height="252"
       width="400.00003"
       sodipodi:absref="/home/yekcim/Dev/wormux/trunk/data/map/randomamoebas/sky.jpg"
       xlink:href="/home/yekcim/Dev/wormux/trunk/data/map/randomamoebas/sky.jpg" />
    <g
       id="g3596"
       transform="translate(-71.446624,25.106553)">
      <path
         style="fill:#cea3a3"
         d="M 154.03983,177.04799 C 152.52678,175.22487 153.5528,171.76307 155.80115,171.10528 C 156.73552,170.83191 163.69035,170.08543 171.25633,169.44642 C 181.81943,168.55429 189.01445,168.56411 202.2522,169.4887 C 220.20823,170.74284 223,171.39497 223,174.33518 C 223,178.36043 221.82451,178.5 187.92244,178.5 C 160.57566,178.5 155.0483,178.26313 154.03983,177.04799 z M 306.26506,175.52702 C 304.48584,175.10447 302.23584,173.81515 301.26506,172.66185 L 299.5,170.56493 L 294,172.49982 C 276.65531,178.60165 257.81194,168.53421 267.8288,158.51735 C 275.49158,150.85458 296.28495,152.19062 301.85321,160.70353 C 304.03312,164.03622 304.4377,164.23486 307.34661,163.40059 C 312.12227,162.03095 320.33249,162.32315 324.36035,164.0061 C 330.85277,166.7188 330.1858,173.5212 323.23823,175.45067 C 318.99268,176.62974 311.05861,176.66543 306.26506,175.52702 z M 245.68607,171.45878 C 239.14564,169.55283 237.85392,164.66114 243.16571,161.91431 C 246.699,160.08717 253.97766,160.40665 256.49945,162.49955 C 261.7668,166.87105 253.48617,173.73181 245.68607,171.45878 z M 96,158.20919 C 93.260503,156.82702 91.144571,151.88 91.056442,146.65121 C 91.016224,144.26503 90.137648,142.49686 88,140.5 C 85.540773,138.20274 85.005733,136.91368 85.031803,133.34879 C 85.073518,127.64468 86.365308,126.14979 94.347469,122.56844 C 102.43044,118.94185 118.26992,117.25017 141,117.58587 C 154.19512,117.78075 155.81642,117.61007 159.01609,115.68924 C 168.3494,110.08628 178.9199,109.50682 197.5,113.57961 C 209.73112,116.26069 212.36344,119.71716 208.45181,127.96031 C 206.44521,132.18891 203.9502,133.23575 191.16466,135.21353 C 182.38234,136.57206 179.2554,136.65294 172.66326,135.69213 C 163.14261,134.30448 157.95558,131.96036 156.19543,128.25 C 155.47582,126.73307 154.07363,125.5 153.06827,125.5 C 151.50086,125.5 151.31638,126.12731 151.75068,129.98041 C 152.10549,133.12823 151.77152,135.19975 150.62784,136.94523 C 149.73253,138.31165 149,140.77037 149,142.40905 C 149,144.09169 147.98077,146.5734 146.65826,148.1109 C 144.58507,150.52113 143.61643,150.83333 138.21155,150.83333 C 131.74043,150.83333 129.40567,149.69719 127.93665,145.83338 C 127.15873,143.78729 126.60468,143.63344 121.79083,144.12675 C 114.11305,144.91355 114,144.99201 114,149.53436 C 114,151.78778 113.5595,154.45457 113.02111,155.46056 C 111.05948,159.12589 101.02775,160.74585 96,158.20919 z M 280.81396,143.49147 C 271.69078,142.04171 262.63958,139.4564 260.75,137.76058 C 258.40486,135.65591 258.42953,129.32625 260.79119,127.18897 C 263.08725,125.11106 285.42128,122.37361 300.14428,122.36551 C 310.90386,122.35959 324.85166,123.85232 330.67001,125.63244 C 335.9066,127.23458 337.13973,134.64936 332.77238,138.27395 C 328.71995,141.63716 292.21374,145.30302 280.81396,143.49147 z M 214.00916,131.66667 C 213.45412,131.48333 213,130.2347 213,128.89192 C 213,125.26961 216.74306,124.29261 230.5,124.32412 L 242.5,124.35161 L 236.00299,122.6758 C 230.57219,121.27501 229.27624,120.51707 228.10602,118.0572 C 226.90446,115.53146 226.90616,114.75789 228.11799,112.59885 C 229.93968,109.35329 234.89491,108.27788 246.14646,108.68621 C 255.57367,109.02833 259,110.71675 259,115.02013 C 259,118.29741 255.4202,122.2511 251.73781,123.04082 C 247.0885,124.0379 246.1698,124.83188 248.91544,125.48004 C 252.23917,126.26466 253.7578,128.88198 252.06961,130.91613 C 250.94504,132.27114 248.17426,132.4638 232.88676,132.24995 C 223.05912,132.11248 214.5642,131.85 214.00916,131.66667 z M 110.71662,111.73936 C 107.1591,107.80834 106.59365,74.86483 109.97524,68.546262 C 111.31036,66.051577 114.41597,65.117067 116.91919,66.456754 C 119.80426,68.000794 120.5,72.875227 120.5,91.54423 C 120.5,105.69855 120.24387,108.47932 118.72695,110.79423 C 116.66572,113.93977 113.0898,114.36169 110.71662,111.73936 z M 90.710296,107.87696 C 89.436966,106.60363 89.962271,103.72846 91.581787,103.10699 C 93.891765,102.22057 100.28402,102.39375 101.84839,103.38514 C 102.59001,103.85512 103.03564,105.08573 102.83867,106.11983 C 102.5482,107.64489 101.43612,108.05546 96.950577,108.29363 C 93.909085,108.45513 91.100958,108.26763 90.710296,107.87696 z M 266.37869,104.2162 C 264.11197,103.54729 261.52447,102.3824 260.62869,101.62756 C 258.17816,99.56258 258.58404,94.97235 261.41399,92.74632 C 262.74168,91.70195 264.49813,89.243563 265.31721,87.283227 C 267.56579,81.901625 271.09394,81.114255 293.23728,81.052368 C 309.41674,81.007149 311.91116,80.795236 311.51011,79.5 C 310.57234,76.471385 312.51251,75.589769 320.76628,75.293967 L 328.96886,75 L 329.29398,60.5 C 329.48452,52.002223 330.10039,45.117321 330.78177,43.867649 C 333.3383,39.178942 338.53448,40.312082 339.46931,45.762153 C 339.77476,47.542969 340.35663,55.075 340.76234,62.5 L 341.5,76 L 349.5,76 C 356.997,76 357.5198,76.139246 357.81492,78.214654 C 358.18944,80.84842 356.50468,81.400613 347,81.75934 C 339.61707,82.037987 338.33248,83.710736 344.835,84.578523 C 349.34926,85.180967 350.96937,86.612803 350.96937,90 C 350.96937,94.44683 349.63872,94.9952 338.62205,95.08842 C 328.92576,95.17047 327.95274,95.36198 325.11963,97.74588 C 322.53187,99.92334 320.72773,100.41116 313.28325,100.94628 C 308.45246,101.29352 302.25,102.283 299.5,103.14511 C 292.98498,105.18754 271.97287,105.86704 266.37869,104.2162 z M 328.33513,81.50033 C 327.1283,81.013722 324.91561,81.003736 323.33513,81.477763 C 320.88539,82.212507 321.17966,82.331162 325.5,82.350661 C 329.32007,82.367902 329.98912,82.167236 328.33513,81.50033 z M 180.33806,96.26799 C 175.25114,95.22803 173.18406,93.18808 175,91 C 176.84932,88.771704 193.80895,88.838567 194.66813,91.07754 C 196.079,94.75422 187.7284,97.77886 180.33806,96.26799 z M 235.89913,92.87846 C 234.91477,91.69237 234.63446,88.479403 234.85531,80.913853 C 235.02137,75.225162 234.90122,69.767354 234.58832,68.785389 C 234.06661,67.148182 232.42089,67.008577 214.7597,67.10334 C 197.82302,67.194215 194.53507,67.484722 187.5,69.51187 C 172.54977,73.819762 143.3501,71.746764 136.91208,65.920437 C 133.94962,63.239448 134.58711,55.875824 138,53.353884 C 142.08262,50.337048 159.41102,48.171586 172.5,49.042554 C 184.3405,49.830446 186.77322,49.847169 215.2241,49.336248 L 233.94821,49 L 234.57393,46.157264 C 235.8131,40.527506 245.81741,39.198639 247.48182,44.442716 C 248.26378,46.906468 249.31565,46.954067 258.88091,44.958546 C 269.81945,42.676529 281.99226,43.006279 298.81063,46.040206 C 314.90161,48.942917 318,50.235319 318,54.044492 C 318,57.405767 315.93668,58.073857 301.5,59.387076 C 288.65736,60.555296 276.61307,62.446401 277.34619,63.179528 C 278.06334,63.89667 308.9953,63.702994 314.59653,62.946291 C 318.91646,62.362686 319.79527,62.524109 320.36379,64.005633 C 321.79379,67.732153 319.83971,68.088636 299.8033,67.756488 C 289.18648,67.58049 277.575,67.540397 274,67.667392 C 256.14285,68.301732 256.53529,68.366004 256.18664,64.75 C 255.82837,61.034168 255.34397,60.861695 252.33168,63.377423 C 250.47604,64.92717 249.99971,66.905177 249.02852,77.094153 C 248.40436,83.642369 247.68395,89.71921 247.42762,90.59824 C 246.39725,94.13165 238.27282,95.73858 235.89913,92.87846 z M 122,48.616308 C 111.32433,46.3229 110,45.742571 110,43.357828 C 110,40.143664 106.99251,36.5 104.33954,36.5 C 101.10534,36.5 96.811987,32.193626 97.66531,29.80553 C 98.814054,26.590675 100.18865,25.5 103.09165,25.5 C 104.65737,25.5 107.69211,24.585924 109.83551,23.468719 C 115.40174,20.567437 122.7028,19.922177 128.61923,21.808634 C 131.30365,22.664566 136.7253,23.662213 140.66734,24.025627 L 147.83469,24.686381 L 147.27976,20.34319 C 146.97455,17.954436 146.52375,15.775 146.27799,15.5 C 146.03223,15.225 139.90665,14.990902 132.66558,14.979782 C 118.60487,14.958189 112.48405,13.494848 108.75,9.262134 C 106.33112,6.520229 106.56146,2.121354 109.29003,-1.0507895 L 111.58006,-3.7131064 L 119.29693,-2.4682411 C 124.06215,-1.6995291 130.54923,-1.4643388 136.2569,-1.8533545 C 171.05972,-4.225398 171,-4.2319869 171,1.979988 C 171,5.213419 171.00322,5.215417 177.25,5.855311 C 192.62947,7.430718 202.41783,10.838574 204.07381,15.194128 C 205.30949,18.44422 204.46424,22.771303 202.19332,24.820912 C 199.909,26.88261 182.4792,29 167.79216,29 L 156.08431,29 L 155.79216,31.474907 C 155.59287,33.163066 154.22844,34.667812 151.5,36.208456 C 147.69856,38.35498 147.63476,38.467916 150.21482,38.48355 C 153.57877,38.503933 155.5603,41.584553 154.03849,44.42808 C 152.80555,46.731849 144.52284,49.326548 136.31769,49.97942 C 132.73839,50.26422 127.22957,49.739754 122,48.616308 z M 236,36.880534 C 235.175,36.657063 230.45533,36.142522 225.51185,35.737111 C 217.83814,35.107796 216.47102,34.725041 216.16346,33.119827 C 215.96532,32.085732 216.40999,30.855123 217.15161,30.38514 C 217.89322,29.915157 225.0824,29.523735 233.12756,29.515313 C 244.32449,29.503591 248.02241,29.822071 248.89481,30.873252 C 250.55576,32.874573 249.23424,35.301601 246.16646,35.883984 C 240.39635,36.979374 237.43613,37.269545 236,36.880534 z "
         id="path3601" />
      <path
         style="fill:#a25555"
         d="M 155.36163,177 C 154.1556,173.85714 155.8276,172.67833 162.68542,171.83651 C 171.49905,170.75461 202.24957,170.75771 212.31608,171.84151 C 218.99654,172.56076 220.24955,172.99664 220.94018,174.84151 C 221.44512,176.19034 221.32655,177.27559 220.62411,177.73469 C 220.00585,178.13877 205.19838,178.47627 187.71862,178.48469 C 160.3814,178.49786 155.85674,178.29025 155.36163,177 z M 306,173.82135 C 305.175,173.53493 303.6,172.2491 302.5,170.96394 L 300.5,168.62729 L 294.5,170.66569 C 286.10717,173.51701 278.45163,173.42867 272.3623,170.41022 C 267.75799,168.12788 267.5,167.78777 267.5,164 C 267.5,160.21726 267.76173,159.87023 272.3189,157.6107 C 278.19077,154.69932 285.17424,154.44844 293.28425,156.85755 C 298.31835,158.35295 299.28716,159.0572 300.75459,162.28789 C 301.68195,164.32955 302.55211,166.17307 302.68828,166.3846 C 302.82445,166.59613 304.29507,166.20621 305.95631,165.5181 C 310.51057,163.63166 321.33326,163.83312 324.42967,165.86196 C 327.91445,168.14527 327.91721,172.20078 324.4349,173.52475 C 321.78654,174.53166 308.65456,174.74293 306,173.82135 z M 244.25,169.46884 C 242.78723,168.88088 242,167.71928 242,166.14886 C 242,163.47493 244.08019,162.53659 250.05887,162.51365 C 256.96795,162.48715 259.30321,167.29362 253.46053,169.51501 C 250.33908,170.70178 247.27924,170.68644 244.25,169.46884 z M 98.346582,157.36644 C 94.759905,156.37285 93,152.72478 93,146.28362 C 93,143.07778 92.343077,141.74614 89.385568,138.95685 C 86.344529,136.08878 85.879354,135.10793 86.453291,132.774 C 87.656105,127.88272 89.62593,126.05801 96.637792,123.3398 C 104.79566,120.17732 123.06098,118.52295 142.82501,119.15643 C 155.08149,119.54927 155.18701,119.53326 161.80398,116.27574 C 167.90942,113.27004 169.24282,113 177.97897,113 C 183.65668,113 190.72933,113.7425 195.5,114.83938 C 207.68597,117.64122 208,117.82974 208,122.3437 C 208,128.90961 205.47433,130.97616 195.13863,132.8671 C 182.9884,135.09001 173.682,134.95445 165.52747,132.43577 C 159.65064,130.6206 158.67106,129.95699 157.40872,126.93577 C 156.23669,124.13071 155.43574,123.5 153.0456,123.5 C 149.26316,123.5 148.59203,124.72979 150.09947,128.89853 C 151.18015,131.88709 151.06991,132.71634 149.16209,135.94986 C 147.97294,137.96531 147,141.1085 147,142.93472 C 147,146.98005 145.31413,148.51405 140.09962,149.21346 C 134.26583,149.99594 131.45331,148.93347 129.18603,145.09072 C 127.28777,141.87341 126.90646,141.69603 122.83328,142.13535 C 111.35191,143.37372 112,142.96171 112,149.02226 C 112,153.57323 111.63519,154.68108 109.75,155.8551 C 106.62876,157.79888 102.0826,158.4014 98.346582,157.36644 z M 281.5,141.86045 C 280.4,141.63629 275.79502,140.71974 271.26672,139.82367 C 261.74175,137.93883 259.46859,136.19598 260.48708,131.55885 C 260.85859,129.86733 261.91349,128.09752 262.83128,127.62592 C 265.44848,126.28112 285.33767,124.31543 298,124.15013 C 310.29866,123.98957 326.79579,125.81787 330.9597,127.80289 C 334.53482,129.50723 335.03371,134.80469 331.80877,136.81882 C 326.47818,140.14803 290.69445,143.73405 281.5,141.86045 z M 243.89368,131.06034 C 243.61766,130.78432 236.92812,130.43283 229.02805,130.27924 C 218.86973,130.08176 214.54623,129.64482 214.2611,128.78688 C 214.03935,128.11967 215.12739,127.21967 216.67896,126.78688 C 219.77075,125.92448 245.1401,126.07404 248.75,126.97595 C 251.49004,127.66054 251.75737,130.5 249.08179,130.5 C 248.02677,130.5 246.54077,130.73899 245.77955,131.0311 C 245.01834,131.3232 244.1697,131.33636 243.89368,131.06034 z M 240,121.85827 C 235.31625,120.97822 230.50164,119.21265 229.76531,118.10509 C 228.08238,115.57369 229.00479,112.44868 231.7421,111.40795 C 235.65847,109.91895 252.04549,109.91879 254.82759,111.40773 C 258.25305,113.24098 257.5124,118.50311 253.56376,120.38687 C 250.37116,121.90996 243.97051,122.6043 240,121.85827 z M 111.62292,110.6989 C 108.91563,106.31841 108.34889,77.854809 110.84017,71.386385 C 112.05168,68.240786 114.87077,66.941413 116.63974,68.713256 C 118.93331,71.010568 120.35446,88.377121 119.11139,98.91722 C 118.50054,104.0967 117.72744,109.0467 117.39339,109.91722 C 116.76792,111.54716 112.50414,112.12474 111.62292,110.6989 z M 94.25,106.79427 C 90.318766,106.03708 91.826187,104.5 96.5,104.5 C 100.96311,104.5 102.45857,105.72632 99.418213,106.89301 C 98.548229,107.22686 97.535729,107.43872 97.168213,107.36382 C 96.800696,107.28892 95.4875,107.03262 94.25,106.79427 z M 269.09016,102.99287 C 260.26269,101.32707 257.35675,97.27803 262.54769,93.8768 C 263.94892,92.95867 265.71082,90.73452 266.46303,88.934233 C 267.21524,87.133946 268.86298,85.108516 270.12467,84.433278 C 272.86366,82.967418 301.4662,82.593983 319.26538,83.791697 C 329.62072,84.488512 331.10476,84.39057 331.64817,82.97448 C 332.76806,80.056096 330.31223,79.118294 322.01221,79.294811 C 317.54475,79.38982 314,79.048377 314,78.523045 C 314,78.004857 317.7125,77.450186 322.25,77.290442 L 330.5,77 L 330.67567,64 C 330.89223,47.973666 331.80205,43.113381 334.66345,42.697128 C 335.86655,42.52211 337.00572,43.072513 337.362,44.000975 C 337.70111,44.88467 338.279,52.575548 338.6462,61.091814 C 339.01341,69.608081 339.7473,76.843824 340.27708,77.171244 C 340.80686,77.498664 344.56124,77.689554 348.62015,77.595444 C 352.67907,77.501334 356,77.83248 356,78.331325 C 356,79.44436 350.13808,80.474218 343.71862,80.488994 C 340.30714,80.496847 338.76492,80.949023 338.33583,82.067217 C 337.47703,84.30523 339.00818,85.434974 344.07171,86.299385 C 348.14665,86.995029 348.5,87.292527 348.5,90.02768 L 348.5,93 L 337.58173,93.28554 C 327.58005,93.54711 326.47963,93.76944 324.47363,95.93395 C 322.59947,97.95621 321.002,98.38683 313.3919,98.92121 C 308.50135,99.26462 302.475,100.19864 300,100.99682 C 294.63639,102.72656 283.88343,104.413 279,104.29035 C 277.075,104.24201 272.61557,103.65814 269.09016,102.99287 z M 182.5,95.00852 C 181.95,94.82505 180.2625,94.40201 178.75,94.06842 C 173.15785,92.83505 176.14667,91.5 184.5,91.5 C 189.175,91.5 193,91.90598 193,92.40217 C 193,94.14743 185.49973,96.00918 182.5,95.00852 z M 236.6339,90.98835 C 236.31486,90.15695 236.26806,84.644449 236.52989,78.738354 C 236.79172,72.832259 236.64969,67.452301 236.21428,66.782892 C 235.65406,65.921603 229.87932,65.450203 216.46131,65.17043 C 200.54781,64.838625 196.53557,65.055954 191.5,66.522496 C 175.30176,71.240015 165.00452,71.721815 150.06496,68.46121 C 138.59357,65.957543 137.3368,65.309947 136.4929,61.467677 C 135.60293,57.415669 137.97684,53.883661 142.21612,52.952439 C 150.80176,51.06647 168.83388,49.991537 176.5,50.908704 C 185.2055,51.950221 186.26318,51.955598 215,51.104431 C 225.725,50.786763 234.8375,50.520811 235.25,50.513426 C 235.6625,50.506042 236,49.444744 236,48.154988 C 236,45.324699 238.87581,42.5 241.75731,42.5 C 244.16718,42.5 247,44.970115 247,47.071429 C 247,48.918106 249.3216,48.873163 257.68795,46.864524 C 267.93656,44.403979 283.72704,44.815962 299.5,47.955424 C 316.36845,51.312934 316.17752,51.244089 315.8083,53.83589 C 315.52843,55.8004 314.57768,56.103434 305.5,57.12145 C 300,57.738248 289.53658,59.019116 282.24794,59.967825 C 269.76494,61.592648 262.9755,61.601783 256.87047,60.00197 C 254.79635,59.458448 253.60146,59.91351 251.21333,62.156453 C 248.28681,64.905055 248.15479,65.413748 247.25962,77.391477 C 246.49386,87.637592 246.01186,90.01816 244.47563,91.14148 C 241.9892,92.9596 237.35562,92.86912 236.6339,90.98835 z M 258.24379,65.25 C 258.72642,63.780181 263.21869,63.087088 266.66173,63.951235 C 270.60327,64.940499 268.27568,66.5 262.85765,66.5 C 259.28596,66.5 257.952,66.138602 258.24379,65.25 z M 289.22891,65.277457 C 292.35816,64.624922 295.23348,64.62995 297.72891,65.292321 C 301.05713,66.175744 300.50178,66.29155 293,66.278431 C 284.86602,66.264207 284.70363,66.221104 289.22891,65.277457 z M 312,65.5 C 312,64.95 313.575,64.5 315.5,64.5 C 317.425,64.5 319,64.95 319,65.5 C 319,66.05 317.425,66.5 315.5,66.5 C 313.575,66.5 312,66.05 312,65.5 z M 121,46.666199 C 112.02458,44.67222 111,44.093064 111,41.013563 C 111,38.211173 106.71972,34.5 103.48759,34.5 C 100.57271,34.5 98.662936,32.137354 99.484769,29.547988 C 99.928216,28.150812 100.99196,27.5 102.8322,27.5 C 104.31578,27.5 107.30432,26.548816 109.4734,25.386258 C 114.8578,22.500395 123.80288,21.783942 129.24359,23.802772 C 131.58461,24.671435 137.325,25.521173 142,25.69108 C 149.17308,25.951775 150.43327,25.765837 150.07256,24.5 C 149.83746,23.675 149.45215,21.056068 149.21631,18.680151 C 148.65175,12.992737 146.74869,12.138134 137.19041,13.279712 C 128.55105,14.311539 120.13127,13.342496 113.66951,10.572659 C 109.54422,8.804353 109,8.209631 109,5.469796 C 109,1.220558 110.64916,-1.5 113.22499,-1.5 C 114.41003,-1.5 117.97355,-0.96423 121.14392,-0.3094 C 125.84759,0.662127 130.52467,0.55966 146.56253,-0.8662801 C 165.11544,-2.5158362 166.32281,-2.5178318 168.10841,-0.9018926 C 169.24569,0.127333 170,2.143868 170,4.154988 L 170,7.5 L 175.58587,7.5 C 181.46753,7.5 191.92556,9.707733 198.2715,12.28903 C 204.52408,14.832352 204.66975,23.15849 198.48786,24.655793 C 189.96739,26.719519 168.2164,28.413717 162,27.497857 C 158.425,26.971153 155.15535,26.531166 154.73412,26.520107 C 154.31288,26.509048 154.06351,27.750378 154.17995,29.278618 C 154.47169,33.107355 153.75074,33.94156 148.80013,35.503523 C 140.73406,38.048444 140.09614,40.5 147.5,40.5 C 155.80799,40.5 154.2642,44.219598 144.84609,46.89431 C 137.82025,48.889626 130.70171,48.82153 121,46.666199 z M 226.25,34.212674 C 221.7125,33.669143 218,32.903852 218,32.512029 C 218,31.549116 238.67481,30.512567 243.90053,31.213484 C 248.62226,31.846801 248.89677,33.661854 244.4175,34.631685 C 240.46797,35.486821 236.03288,35.38453 226.25,34.212674 z "
         id="path3599" />
    </g>
  </g>
  <g
     inkscape:groupmode="layer"
     id="layer2"
     inkscape:label="map1"
     style="display:inline">
    <image
       y="-0.94611698"
       x="-46.639931"
       id="image2167"
       height="226.89223"
       width="393.27985"
       sodipodi:absref="/home/yekcim/Dev/wormux/trunk/data/map/random/sky.jpg"
       xlink:href="/home/yekcim/Dev/wormux/trunk/data/map/random/sky.jpg"
       style="fill:#ececec" />
  </g>
  <g
     inkscape:label="outils"
     inkscape:groupmode="layer"
     id="layer1">
    <g
       id="g2207"
       transform="translate(0,6.0002637)">
      <g
         id="g2193">
        <g
           id="g3465"
           transform="matrix(-5.0637294,0,0,5.0637294,1565.6368,-2734.5188)"
           style="opacity:0.82072556;fill:#000000;fill-opacity:1;stroke:none;stroke-width:0.03949658;stroke-miterlimit:4;stroke-dasharray:none;stroke-opacity:1;filter:url(#filter3527)">
          <path
             sodipodi:nodetypes="cccccccccc"
             id="path3467"
             d="M 296.12027,554.30431 L 291.55838,557.70087 L 288.42308,553.48989 L 267.96969,568.71846 L 265.8795,565.91113 L 286.33288,550.68256 L 283.17893,546.44651 L 285.99119,544.35263 C 287.80842,546.6958 290.71395,549.8122 293.30224,550.51944 L 296.12027,554.30431 z "
             style="font-size:35.46655655px;font-style:normal;font-variant:normal;font-weight:normal;font-stretch:normal;text-indent:0;text-align:start;text-decoration:none;line-height:125%;letter-spacing:normal;word-spacing:normal;text-transform:none;direction:ltr;block-progression:tb;writing-mode:lr-tb;text-anchor:start;color:#000000;fill:#000000;fill-opacity:1;fill-rule:nonzero;stroke:none;stroke-width:0.03949658;stroke-linecap:round;stroke-linejoin:round;marker:none;marker-start:none;marker-mid:none;marker-end:none;stroke-miterlimit:4;stroke-dasharray:none;stroke-dashoffset:0;stroke-opacity:1;visibility:visible;display:inline;overflow:visible;enable-background:accumulate;font-family:Webdings" />
          <path
             id="path3469"
             d="M 263.16999,547.31268 C 262.9238,548.15837 262.94851,549.06877 263.30926,549.94607 C 264.1344,551.9527 266.3907,552.92333 268.41061,552.18424 L 286.02782,565.77453 C 285.69806,566.68452 285.67317,567.72392 286.06954,568.68786 C 286.43029,569.56519 287.06708,570.2154 287.83692,570.64328 L 286.80759,568.19158 L 289.0465,565.34046 L 292.62789,565.8141 L 293.63247,568.24671 C 293.87864,567.40103 293.85395,566.49062 293.49321,565.61332 C 292.69187,563.66458 290.55762,562.70723 288.58626,563.32779 L 270.84533,549.64205 C 271.1125,548.77604 271.11128,547.82178 270.73857,546.91535 C 270.3778,546.03803 269.73539,545.34399 268.96553,544.91611 L 269.99485,547.3678 L 269.21227,548.38227 L 267.78071,550.23803 L 264.15546,549.77003 L 263.16999,547.31268 z "
             style="font-size:35.46655655px;font-style:normal;font-variant:normal;font-weight:normal;font-stretch:normal;text-indent:0;text-align:start;text-decoration:none;line-height:125%;letter-spacing:normal;word-spacing:normal;text-transform:none;direction:ltr;block-progression:tb;writing-mode:lr-tb;text-anchor:start;color:#000000;fill:#000000;fill-opacity:1;fill-rule:nonzero;stroke:none;stroke-width:0.03949658;stroke-linecap:round;stroke-linejoin:round;marker:none;marker-start:none;marker-mid:none;marker-end:none;stroke-miterlimit:4;stroke-dasharray:none;stroke-dashoffset:0;stroke-opacity:1;visibility:visible;display:inline;overflow:visible;enable-background:accumulate;font-family:Webdings" />
        </g>
        <g
           id="g3654"
           transform="matrix(-5.0637294,0,0,5.0637294,1565.6368,-2748.5188)"
           style="stroke:#000000;stroke-width:0.03949658;stroke-miterlimit:4;stroke-dasharray:none;stroke-opacity:1">
          <path
             sodipodi:nodetypes="cccccccccc"
             id="rect3513"
             d="M 296.12027,554.30431 L 291.55838,557.70087 L 288.42308,553.48989 L 267.96969,568.71846 L 265.8795,565.91113 L 286.33288,550.68256 L 283.17893,546.44651 L 285.99119,544.35263 C 287.80842,546.6958 290.71395,549.8122 293.30224,550.51944 L 296.12027,554.30431 z "
             style="font-size:35.46655655px;font-style:normal;font-variant:normal;font-weight:normal;font-stretch:normal;text-indent:0;text-align:start;text-decoration:none;line-height:125%;letter-spacing:normal;word-spacing:normal;text-transform:none;direction:ltr;block-progression:tb;writing-mode:lr-tb;text-anchor:start;color:#000000;fill:#ffffff;fill-opacity:0.78431373;fill-rule:nonzero;stroke:none;stroke-width:0.03949658;stroke-linecap:round;stroke-linejoin:round;marker:none;marker-start:none;marker-mid:none;marker-end:none;stroke-miterlimit:4;stroke-dasharray:none;stroke-dashoffset:0;stroke-opacity:1;visibility:visible;display:inline;overflow:visible;enable-background:accumulate;font-family:Webdings" />
          <path
             id="rect3523"
             d="M 263.16999,547.31268 C 262.9238,548.15837 262.94851,549.06877 263.30926,549.94607 C 264.1344,551.9527 266.3907,552.92333 268.41061,552.18424 L 286.02782,565.77453 C 285.69806,566.68452 285.67317,567.72392 286.06954,568.68786 C 286.43029,569.56519 287.06708,570.2154 287.83692,570.64328 L 286.80759,568.19158 L 289.0465,565.34046 L 292.62789,565.8141 L 293.63247,568.24671 C 293.87864,567.40103 293.85395,566.49062 293.49321,565.61332 C 292.69187,563.66458 290.55762,562.70723 288.58626,563.32779 L 270.84533,549.64205 C 271.1125,548.77604 271.11128,547.82178 270.73857,546.91535 C 270.3778,546.03803 269.73539,545.34399 268.96553,544.91611 L 269.99485,547.3678 L 269.21227,548.38227 L 267.78071,550.23803 L 264.15546,549.77003 L 263.16999,547.31268 z "
             style="font-size:35.46655655px;font-style:normal;font-variant:normal;font-weight:normal;font-stretch:normal;text-indent:0;text-align:start;text-decoration:none;line-height:125%;letter-spacing:normal;word-spacing:normal;text-transform:none;direction:ltr;block-progression:tb;writing-mode:lr-tb;text-anchor:start;color:#000000;fill:#ffffff;fill-opacity:0.78431373;fill-rule:nonzero;stroke:none;stroke-width:0.03949658;stroke-linecap:round;stroke-linejoin:round;marker:none;marker-start:none;marker-mid:none;marker-end:none;stroke-miterlimit:4;stroke-dasharray:none;stroke-dashoffset:0;stroke-opacity:1;visibility:visible;display:inline;overflow:visible;enable-background:accumulate;font-family:Webdings" />
        </g>
      </g>
      <g
         id="g2201">
        <text
           xml:space="preserve"
           style="font-size:21.71110535px;font-style:normal;font-weight:bold;text-align:center;text-anchor:middle;opacity:0.82072556;color:#000000;fill:#000000;fill-opacity:1;fill-rule:nonzero;stroke:none;stroke-width:0.19999999;stroke-linecap:round;stroke-linejoin:round;marker:none;marker-start:none;marker-mid:none;marker-end:none;stroke-miterlimit:4;stroke-dasharray:none;stroke-dashoffset:0;stroke-opacity:1;visibility:visible;display:inline;overflow:visible;filter:url(#filter3527);enable-background:accumulate;font-family:Bitstream Vera Sans"
           x="149.20493"
           y="200.37816"
           id="text2189"><tspan
             sodipodi:role="line"
             id="tspan2191"
             x="149.20492"
             y="200.37816">Experimental use only</tspan></text>
        <text
           xml:space="preserve"
           style="font-size:21.71110535px;font-style:normal;font-weight:bold;text-align:center;text-anchor:middle;opacity:1;color:#000000;fill:#ffffff;fill-opacity:0.78431373;fill-rule:nonzero;stroke:none;stroke-width:0.19999999;stroke-linecap:round;stroke-linejoin:round;marker:none;marker-start:none;marker-mid:none;marker-end:none;stroke-miterlimit:4;stroke-dasharray:none;stroke-dashoffset:0;stroke-opacity:1;visibility:visible;display:inline;overflow:visible;enable-background:accumulate;font-family:Bitstream Vera Sans"
           x="149.20493"
           y="194.37816"
           id="text2183"><tspan
             sodipodi:role="line"
             id="tspan2185"
             x="149.20492"
             y="194.37816">Experimental use only</tspan></text>
      </g>
    </g>
  </g>
</svg>
