<?xml version="1.0" encoding="UTF-8" standalone="no"?>
<!-- Created with Inkscape (http://www.inkscape.org/) -->
<svg
   xmlns:dc="http://purl.org/dc/elements/1.1/"
   xmlns:cc="http://web.resource.org/cc/"
   xmlns:rdf="http://www.w3.org/1999/02/22-rdf-syntax-ns#"
   xmlns:svg="http://www.w3.org/2000/svg"
   xmlns="http://www.w3.org/2000/svg"
   xmlns:xlink="http://www.w3.org/1999/xlink"
   xmlns:sodipodi="http://inkscape.sourceforge.net/DTD/sodipodi-0.dtd"
   xmlns:inkscape="http://www.inkscape.org/namespaces/inkscape"
   id="svg2"
   sodipodi:version="0.32"
   inkscape:version="0.43"
   width="2500"
   height="1700"
   version="1.0"
   sodipodi:docbase="C:\Documents and Settings\csc\Bureaublad\Antonio"
   sodipodi:docname="wormux_digdug.svg"
   inkscape:export-filename="C:\Program Files\Wormux\data\map\Antonio\antonio.png"
   inkscape:export-xdpi="90"
   inkscape:export-ydpi="90">
  <metadata
     id="metadata7">
    <rdf:RDF>
      <cc:Work
         rdf:about="">
        <dc:format>image/svg+xml</dc:format>
        <dc:type
           rdf:resource="http://purl.org/dc/dcmitype/StillImage" />
      </cc:Work>
    </rdf:RDF>
  </metadata>
  <defs
     id="defs5">
    <linearGradient
       id="linearGradient3548">
      <stop
         id="stop3560"
         offset="0"
         style="stop-color:#0a8cff;stop-opacity:0.49803922;" />
      <stop
         style="stop-color:#0a8cff;stop-opacity:0;"
         offset="1"
         id="stop3552" />
    </linearGradient>
    <linearGradient
       inkscape:collect="always"
       xlink:href="#linearGradient3548"
       id="linearGradient4952"
       x1="-59.530796"
       y1="848.45074"
       x2="2520.9998"
       y2="848.45074"
       gradientUnits="userSpaceOnUse"
       gradientTransform="matrix(0.667001,-7.423943e-33,0,1.465671,24.96136,-2500.168)" />
  </defs>
  <sodipodi:namedview
     inkscape:window-height="975"
     inkscape:window-width="1280"
     inkscape:pageshadow="2"
     inkscape:pageopacity="0.0"
     borderopacity="1.0"
     bordercolor="#666666"
     pagecolor="#ffffff"
     id="base"
     showgrid="false"
     inkscape:zoom="0.38635465"
     inkscape:cx="1161.2979"
     inkscape:cy="749.58459"
     inkscape:window-x="-4"
     inkscape:window-y="-4"
     inkscape:current-layer="svg2"
     showguides="true"
     inkscape:guide-bbox="true" />
  <rect
     style="opacity:0.97989951;fill:url(#linearGradient4952);fill-opacity:1.0;stroke:none;stroke-width:5;stroke-linecap:round;stroke-linejoin:round;stroke-miterlimit:4;stroke-dasharray:none;stroke-opacity:1"
     id="rect4944"
     width="1721.2163"
     height="2541.7061"
     x="-14.745725"
     y="-2527.4705"
     transform="matrix(1.360369e-16,1,-1,2.81732e-17,0,0)" />
  <path
     style="fill:#5dff00;fill-opacity:1;fill-rule:evenodd;stroke:#000000;stroke-width:5;stroke-linecap:butt;stroke-linejoin:miter;stroke-miterlimit:4;stroke-dasharray:none;stroke-opacity:1"
     d="M 306.60396,837.03457 L 306.60396,-73.707503 L 318.69575,-73.707503 L 316.96835,837.03457 L 306.60396,837.03457 z "
     id="path4035"
     sodipodi:nodetypes="ccccc" />
  <path
     style="fill:#5dff00;fill-opacity:1;fill-rule:evenodd;stroke:#000000;stroke-width:4.98230028;stroke-linecap:butt;stroke-linejoin:miter;stroke-miterlimit:4;stroke-dasharray:none;stroke-opacity:1"
     d="M 964.38761,1332.8923 C 956.73521,1332.9981 948.95671,1333.4539 941.04381,1334.2048 C 662.44888,1360.6441 591.01422,1595.2856 573.66881,1753.736 L 1188.4188,1753.736 C 1188.4978,1752.3676 1188.5577,1751.0082 1188.6376,1749.6423 C 1206.5204,1447.5545 1109.9983,1331.0899 964.76261,1332.8923 C 964.64111,1332.8938 964.50901,1332.8906 964.38761,1332.8923 z "
     id="path4002" />
  <path
     style="fill:#3e8a00;fill-opacity:1;fill-rule:evenodd;stroke:none;stroke-width:4.98230028;stroke-linecap:butt;stroke-linejoin:miter;stroke-miterlimit:4;stroke-dasharray:none;stroke-opacity:1"
     d="M 1131.1391,1417.7527 C 948.68421,1539.4873 735.17504,1523.3292 648.82664,1509.9715 C 627.38944,1545.2572 611.54424,1583.0852 599.85784,1620.784 C 1000.2204,1617.8167 1017.7368,1583.3827 1168.6703,1501.7527 C 1159.0653,1468.516 1146.4271,1440.6437 1131.1391,1417.7527 z "
     id="path4004"
     sodipodi:nodetypes="ccccc" />
  <path
     style="fill:#000000;fill-opacity:0.25414363;fill-rule:evenodd;stroke:none;stroke-width:4.98230028;stroke-linecap:butt;stroke-linejoin:miter;stroke-miterlimit:4;stroke-dasharray:none;stroke-opacity:1"
     d="M 969.32511,1331.4548 C 968.33471,1331.4581 967.31791,1331.4737 966.32511,1331.486 C 958.55541,1331.5824 950.64481,1332.0357 942.60631,1332.7985 C 780.13167,1348.2178 679.89481,1450.961 655.48131,1502.0798 C 816.86576,1386.9748 900.87642,1570.495 945.85631,1759.736 L 1189.5438,1759.736 C 1189.7613,1755.8879 1189.9763,1752.0334 1190.2001,1748.2048 C 1207.9431,1448.4771 1113.0734,1331.5036 969.73131,1331.4548 C 969.59021,1331.4547 969.46651,1331.4543 969.32511,1331.4548 z "
     id="path4010" />
  <path
     style="fill:none;fill-opacity:1;fill-rule:evenodd;stroke:#000000;stroke-width:4.98230028;stroke-linecap:butt;stroke-linejoin:miter;stroke-miterlimit:4;stroke-dasharray:none;stroke-opacity:1"
     d="M 965.79381,1332.861 C 965.22801,1332.8644 964.64241,1332.8852 964.07511,1332.8923 C 956.30531,1332.9886 948.42611,1333.442 940.38761,1334.2048 C 660.02923,1360.8114 589.44112,1598.2647 572.66881,1756.736 L 1187.5438,1756.736 C 1187.68,1754.3561 1187.8427,1751.9833 1187.9813,1749.611 C 1205.7942,1448.7033 1110.0822,1331.9868 965.79381,1332.861 z "
     id="path4012" />
  <path
     style="fill:#5dff00;fill-opacity:1;fill-rule:evenodd;stroke:#000000;stroke-width:4.98230028;stroke-linecap:butt;stroke-linejoin:miter;stroke-miterlimit:4;stroke-dasharray:none;stroke-opacity:1"
     d="M 1344.846,999.8737 C 1337.0763,999.9701 1329.1744,1000.4247 1321.1359,1001.1875 C 931.53701,1038.1613 947.06901,1482.2828 949.10591,1555.8375 C 947.66291,1638.6243 946.58911,1696.3856 945.78281,1740.0731 L 1556.6546,1740.0731 C 1558.8815,1631.704 1562.6643,1520.472 1568.7339,1416.6003 C 1586.6167,1114.5126 1490.0817,998.0713 1344.846,999.8737 z "
     id="path2613" />
  <path
     style="fill:#3e8a00;fill-opacity:1;fill-rule:evenodd;stroke:none;stroke-width:4.98230028;stroke-linecap:butt;stroke-linejoin:miter;stroke-miterlimit:4;stroke-dasharray:none;stroke-opacity:1"
     d="M 1511.231,1084.7253 C 1328.7761,1206.4599 1115.2669,1190.3018 1028.9185,1176.9441 C 1007.4813,1212.2298 991.63611,1250.0578 979.94971,1287.7566 C 1380.3123,1284.7893 1397.8287,1250.3553 1548.7622,1168.7253 C 1539.1572,1135.4886 1526.519,1107.6163 1511.231,1084.7253 z "
     id="path2227"
     sodipodi:nodetypes="ccccc" />
  <path
     style="fill:#3e8a00;fill-opacity:1;fill-rule:evenodd;stroke:none;stroke-width:4.98230028;stroke-linecap:butt;stroke-linejoin:miter;stroke-miterlimit:4;stroke-dasharray:none;stroke-opacity:1"
     d="M 1566.9793,1268.1896 C 1345.4848,1431.8313 997.22671,1407.6381 955.91681,1398.4708 C 955.77171,1398.4225 955.62441,1398.3848 955.47931,1398.3458 C 949.28251,1444.6354 947.86451,1485.7805 947.82301,1515.4083 C 1294.5263,1507.2351 1374.7142,1495.2571 1569.7605,1374.6271 C 1570.8248,1335.8297 1569.8623,1300.4197 1566.9793,1268.1896 z "
     id="path2234"
     sodipodi:nodetypes="cccccc" />
  <path
     style="fill:#3e8a00;fill-opacity:1;fill-rule:evenodd;stroke:none;stroke-width:4.98230028;stroke-linecap:butt;stroke-linejoin:miter;stroke-miterlimit:4;stroke-dasharray:none;stroke-opacity:1"
     d="M 1565.4274,1490.6958 C 1344.0021,1655.4548 994.38531,1631.1632 952.98991,1621.977 C 951.51741,1621.4865 950.05891,1621.4929 948.58371,1621.9145 C 947.72901,1669.6508 947.05111,1706.9133 946.48991,1737.3208 L 1005.4899,1737.3208 C 1293.2296,1726.1579 1482.4407,1673.5549 1560.9274,1603.5395 C 1562.1875,1565.6249 1563.6877,1527.8606 1565.4274,1490.6958 z "
     id="path2237" />
  <path
     style="fill:#000000;fill-opacity:0.25414363;fill-rule:evenodd;stroke:none;stroke-width:4.98230028;stroke-linecap:butt;stroke-linejoin:miter;stroke-miterlimit:4;stroke-dasharray:none;stroke-opacity:1"
     d="M 1349.8347,998.4422 C 1348.706,998.4419 1347.5631,998.4594 1346.4284,998.4735 C 1338.6588,998.5699 1330.7482,999.0232 1322.7097,999.786 C 1160.235,1015.2052 1059.9717,1117.9401 1035.5582,1169.0589 C 1318.0804,967.55445 1363.4877,1681.2175 1377.4597,1738.661 L 1558.2409,1738.661 C 1560.4678,1630.2919 1564.2338,1519.0639 1570.3034,1415.1922 C 1588.0465,1115.4646 1493.1768,998.4911 1349.8347,998.4422 z "
     id="path2652"
     sodipodi:nodetypes="cscccccc" />
  <path
     style="fill:none;fill-opacity:1;fill-rule:evenodd;stroke:#000000;stroke-width:4.98230028;stroke-linecap:butt;stroke-linejoin:miter;stroke-miterlimit:4;stroke-dasharray:none;stroke-opacity:1"
     d="M 1344.1756,999.86482 C 1336.4059,999.96122 1328.504,1000.4158 1320.4655,1001.1786 C 930.86661,1038.1524 946.39861,1482.2739 948.43551,1555.8286 C 946.99251,1638.6154 945.91871,1696.3767 945.11241,1740.0642 L 1555.9842,1740.0642 C 1558.2111,1631.6951 1561.9939,1520.4631 1568.0635,1416.5914 C 1585.9463,1114.5037 1489.4113,998.06242 1344.1756,999.86482 z "
     id="path2240" />
  <path
     style="fill:#5dff00;fill-opacity:1;fill-rule:evenodd;stroke:#000000;stroke-width:5.79489994;stroke-linecap:butt;stroke-linejoin:miter;stroke-miterlimit:4;stroke-dasharray:none;stroke-opacity:1"
     d="M 1933.3908,357.50481 C 1922.8271,357.49436 1912.0371,357.99984 1901.0471,359.00481 C 1439.4174,401.21821 1457.8209,908.27663 1460.2346,992.25483 C 1452.4012,1425.2869 1453.8366,1259.0062 1452.1721,1692.1298 C 1452.0367,1727.3611 1456.7976,1758.7722 1465.6096,1786.6923 L 2178.8908,1786.6923 C 2175.5451,1584.4602 2173.7533,1174.1409 2194.4221,833.31733 C 2215.4365,491.25916 2103.1146,357.67276 1933.3908,357.50481 z "
     id="path2609" />
  <path
     style="fill:#ffffff;fill-opacity:1;fill-rule:evenodd;stroke:#000000;stroke-width:5;stroke-linecap:butt;stroke-linejoin:miter;stroke-miterlimit:4;stroke-dasharray:none;stroke-opacity:1"
     d="M 825.17564,535.37319 C 804.58469,534.58502 762.51213,486.62537 768.03932,443.97133 C 778.78601,361.03767 869.37042,372.09926 862.91452,351.63471 C 855.55511,337.3365 845.88217,258.56559 963.44431,257.91964 C 1052.2249,257.43184 1072.909,346.56427 1068.9438,365.35526 C 1079.1001,386.99086 1132.0246,355.4074 1164.9886,430.41888 C 1172.8102,448.21716 1170.795,537.35125 1090.293,535.50542 C 1007.2578,533.60151 908.73535,538.57165 825.17564,535.37319 z "
     id="path3543"
     sodipodi:nodetypes="cscscsss" />
  <path
     style="fill:#000000;fill-opacity:0.22099448;fill-rule:evenodd;stroke:none;stroke-width:5;stroke-linecap:butt;stroke-linejoin:miter;stroke-miterlimit:4;stroke-dasharray:none;stroke-opacity:1"
     d="M 961.65283,259.80749 C 929.36487,260.15486 906.81098,266.46335 891.21533,275.68249 C 891.19503,275.69449 891.17311,275.70173 891.15283,275.71374 C 879.51241,290.15462 860.28233,286.60755 862.37158,319.61999 C 912.31761,261.3018 986.92609,343.19786 970.30908,397.18249 C 1004.9046,389.22758 1104.112,399.17061 1117.5903,445.24499 C 1125.9669,473.87949 1116.3081,496.98542 1072.7778,537.08874 C 1078.5467,537.15933 1084.2359,537.27202 1089.8716,537.40124 C 1170.3736,539.24707 1172.4119,450.10577 1164.5903,432.30749 C 1131.6263,357.29601 1078.6842,388.88058 1068.5278,367.24499 C 1072.4931,348.45399 1051.8084,259.31969 963.02783,259.80749 C 962.5686,259.81001 962.10818,259.80259 961.65283,259.80749 z "
     id="path5354"
     sodipodi:nodetypes="cscccscsscsc" />
  <path
     sodipodi:type="star"
     style="opacity:0.97989951;fill:#faff00;fill-opacity:1;stroke:#f9c71e;stroke-width:6.25;stroke-linecap:round;stroke-linejoin:round;stroke-miterlimit:4;stroke-dasharray:none;stroke-opacity:1"
     id="path5360"
     sodipodi:sides="5"
     sodipodi:cx="781.65796"
     sodipodi:cy="253.80553"
     sodipodi:r1="63.856293"
     sodipodi:r2="31.928144"
     sodipodi:arg1="-1.9809237"
     sodipodi:arg2="-1.3526051"
     inkscape:flatsided="false"
     inkscape:rounded="0"
     inkscape:randomized="0"
     d="M 756.19679,195.24483 L 788.56926,222.63438 L 829.48455,211.49426 L 813.43919,250.74615 L 836.67759,286.21642 L 794.38854,283.08587 L 767.83537,316.14782 L 757.74466,274.96116 L 718.09549,259.92429 L 754.14814,237.60008 L 756.19679,195.24483 z "
     inkscape:export-filename="C:\Documents and Settings\csc\Bureaublad\wormux_Antinio\star.png"
     inkscape:export-xdpi="90"
     inkscape:export-ydpi="90"
     transform="translate(57.79083,-387.0252)" />
  <path
     style="fill:#3e8a00;fill-opacity:1;fill-rule:evenodd;stroke:none;stroke-width:4.98230028;stroke-linecap:butt;stroke-linejoin:miter;stroke-miterlimit:4;stroke-dasharray:none;stroke-opacity:1"
     d="M 2137.0372,470.46545 C 1917.8305,592.20005 1654.8902,581.66311 1551.1489,568.30541 C 1525.3935,603.59111 1512.7809,641.41911 1498.7405,679.11791 C 1979.7477,676.15061 1994.3682,641.71661 2175.7041,560.08661 C 2164.1644,526.84991 2155.4046,493.35645 2137.0372,470.46545 z "
     id="path2242"
     sodipodi:nodetypes="ccccc" />
  <path
     style="fill:#3e8a00;fill-opacity:1;fill-rule:evenodd;stroke:none;stroke-width:4.98230028;stroke-linecap:butt;stroke-linejoin:miter;stroke-miterlimit:4;stroke-dasharray:none;stroke-opacity:1"
     d="M 2191.9351,650.39584 C 1972.7284,772.13044 1579.1889,786.5777 1475.4476,773.22 C 1467.8625,816.45522 1465.4707,861.09709 1459.3798,898.79589 C 1940.387,895.82859 2017.468,861.39459 2198.8039,779.76459 C 2191.8068,746.52789 2200.0817,684.64329 2191.9351,650.39584 z "
     id="path2244"
     sodipodi:nodetypes="ccccc" />
  <path
     style="fill:#3e8a00;fill-opacity:1;fill-rule:evenodd;stroke:none;stroke-width:4.98230028;stroke-linecap:butt;stroke-linejoin:miter;stroke-miterlimit:4;stroke-dasharray:none;stroke-opacity:1"
     d="M 2190.869,892.99055 C 1971.6623,1014.7251 1562.2238,1029.1723 1458.4825,1015.8147 C 1455.44,1059.0498 1460.9977,1103.6917 1454.9068,1141.3905 C 1935.914,1138.4232 2005.0455,1091.4971 2186.3814,1009.8671 C 2187.3338,975.49485 2191.0661,929.50929 2190.869,892.99055 z "
     id="path2246"
     sodipodi:nodetypes="ccccc" />
  <path
     style="fill:#3e8a00;fill-opacity:1;fill-rule:evenodd;stroke:none;stroke-width:4.98230028;stroke-linecap:butt;stroke-linejoin:miter;stroke-miterlimit:4;stroke-dasharray:none;stroke-opacity:1"
     d="M 2182.3754,1131.4762 C 1963.1687,1253.2107 1557.1371,1273.3361 1453.3958,1259.9785 C 1450.3533,1303.2136 1455.911,1347.8555 1449.8201,1385.5543 C 1930.8273,1382.587 1997.6875,1334.5253 2179.0234,1252.8953 C 2179.9758,1218.5231 2182.5725,1167.9949 2182.3754,1131.4762 z "
     id="path2248"
     sodipodi:nodetypes="ccccc" />
  <path
     style="fill:#3e8a00;fill-opacity:1;fill-rule:evenodd;stroke:none;stroke-width:4.98230028;stroke-linecap:butt;stroke-linejoin:miter;stroke-miterlimit:4;stroke-dasharray:none;stroke-opacity:1"
     d="M 2177.7616,1353.3603 C 1958.5549,1475.0948 1558.2015,1494.0846 1454.4602,1480.727 C 1451.4177,1523.9621 1456.9754,1568.604 1450.8845,1606.3028 C 1931.8917,1603.3355 1994.2093,1556.4094 2175.5452,1474.7794 C 2176.4976,1440.4072 2177.9587,1389.879 2177.7616,1353.3603 z "
     id="path2250"
     sodipodi:nodetypes="ccccc" />
  <path
     style="fill:#000000;fill-opacity:0.25490196;fill-rule:evenodd;stroke:none;stroke-width:5;stroke-linecap:butt;stroke-linejoin:miter;stroke-miterlimit:4;stroke-dasharray:none;stroke-opacity:1"
     d="M 1929.0471,357.47356 C 1928.3766,357.47748 1927.7193,357.49677 1927.0471,357.50481 C 1917.8407,357.61487 1908.4779,358.10254 1898.9533,358.97356 C 1541.4748,391.66279 1480.8179,703.10875 1474.696,776.46215 C 1889.5617,381.51934 1976.7665,1465.7442 2022.4859,1786.6782 L 2176.8283,1790.3173 C 2173.4443,1589.4167 2171.5333,1176.1602 2192.3283,833.25483 C 2213.4344,489.70529 2100.0121,356.47515 1929.0471,357.47356 z "
     id="path2611"
     sodipodi:nodetypes="cscccccc" />
  <path
     style="fill:none;fill-opacity:1;fill-rule:evenodd;stroke:#000000;stroke-width:5.79489994;stroke-linecap:butt;stroke-linejoin:miter;stroke-miterlimit:4;stroke-dasharray:none;stroke-opacity:1"
     d="M 1932.8153,356.97347 C 1922.2516,356.96302 1911.4616,357.4685 1900.4716,358.47347 C 1438.8419,400.68687 1457.2454,907.74529 1459.6591,991.72349 C 1451.8257,1424.7556 1453.2611,1258.4749 1451.5966,1691.5985 C 1451.4612,1726.8298 1456.2221,1758.2409 1465.0341,1786.161 L 2178.3153,1786.161 C 2174.9696,1583.9289 2173.1778,1173.6096 2193.8466,832.78599 C 2214.861,490.72779 2102.5391,357.14142 1932.8153,356.97347 z "
     id="path2254" />
  <path
     style="fill:#5dff00;fill-opacity:1;fill-rule:evenodd;stroke:#000000;stroke-width:5;stroke-linecap:butt;stroke-linejoin:miter;stroke-miterlimit:4;stroke-dasharray:none;stroke-opacity:1"
     d="M 245.14509,79.38249 C 240.68716,83.18913 236.48145,89.23397 225.61034,95.08677 C 222.49969,96.76148 213.22462,102.51571 209.83878,103.28543 C 230.11572,119.79121 292.48522,156.77602 304.9373,99.2622 C 310.10242,63.762422 268.91049,53.704852 245.14509,79.38249 z "
     id="path4912"
     sodipodi:nodetypes="csccc" />
  <path
     style="fill:#5dff00;fill-opacity:1;fill-rule:evenodd;stroke:#000000;stroke-width:5;stroke-linecap:butt;stroke-linejoin:miter;stroke-miterlimit:4;stroke-dasharray:none;stroke-opacity:1"
     d="M 379.19311,177.22866 C 383.65104,181.0353 387.85675,187.08014 398.72786,192.93294 C 401.83851,194.60765 411.11358,200.36188 414.49942,201.1316 C 394.22248,217.63738 331.85298,254.62219 319.4009,197.10837 C 314.23578,161.6086 355.42771,151.55103 379.19311,177.22866 z "
     id="path4915"
     sodipodi:nodetypes="csccc" />
  <path
     style="fill:#5dff00;fill-opacity:1;fill-rule:evenodd;stroke:#000000;stroke-width:5;stroke-linecap:butt;stroke-linejoin:miter;stroke-miterlimit:4;stroke-dasharray:none;stroke-opacity:1"
     d="M 377.97699,419.84234 C 382.43492,423.64898 386.64063,429.69382 397.51174,435.54662 C 400.62239,437.22133 409.89746,442.97556 413.2833,443.74528 C 393.00636,460.25106 330.63686,497.23587 318.18478,439.72205 C 313.01966,404.22228 354.21159,394.16471 377.97699,419.84234 z "
     id="path4917"
     sodipodi:nodetypes="csccc" />
  <path
     style="fill:#5dff00;fill-opacity:1;fill-rule:evenodd;stroke:#000000;stroke-width:5;stroke-linecap:butt;stroke-linejoin:miter;stroke-miterlimit:4;stroke-dasharray:none;stroke-opacity:1"
     d="M 378.14852,675.05446 C 382.60645,678.8611 386.81216,684.90594 397.68327,690.75874 C 400.79392,692.43345 410.06899,698.18768 413.45483,698.9574 C 393.17789,715.46318 330.80839,752.44799 318.35631,694.93417 C 313.19119,659.4344 354.38312,649.37683 378.14852,675.05446 z "
     id="path4919"
     sodipodi:nodetypes="csccc" />
  <path
     style="fill:#5dff00;fill-opacity:1;fill-rule:evenodd;stroke:#000000;stroke-width:5;stroke-linecap:butt;stroke-linejoin:miter;stroke-miterlimit:4;stroke-dasharray:none;stroke-opacity:1"
     d="M 245.58635,318.55578 C 241.12842,322.36242 236.92271,328.40726 226.0516,334.26006 C 222.94095,335.93477 213.66588,341.689 210.28004,342.45872 C 230.55698,358.9645 292.92648,395.94931 305.37856,338.43549 C 310.54368,302.93571 269.35175,292.87814 245.58635,318.55578 z "
     id="path4921"
     sodipodi:nodetypes="csccc" />
  <path
     style="fill:#5dff00;fill-opacity:1;fill-rule:evenodd;stroke:#000000;stroke-width:5;stroke-linecap:butt;stroke-linejoin:miter;stroke-miterlimit:4;stroke-dasharray:none;stroke-opacity:1"
     d="M 244.01175,568.76282 C 239.55382,572.56946 235.34811,578.6143 224.477,584.4671 C 221.36635,586.14181 212.09128,591.89604 208.70544,592.66576 C 228.98238,609.17154 291.35188,646.15635 303.80396,588.64253 C 308.96908,553.14276 267.77715,543.08519 244.01175,568.76282 z "
     id="path4923"
     sodipodi:nodetypes="csccc" />
  <path
     style="fill:#5dff00;fill-opacity:1;fill-rule:evenodd;stroke:#000000;stroke-width:5;stroke-linecap:butt;stroke-linejoin:miter;stroke-miterlimit:4;stroke-dasharray:none;stroke-opacity:1"
     d="M 246.08547,783.59136 C 241.62754,787.398 237.42183,793.44284 226.55072,799.29564 C 223.44007,800.97035 214.165,806.72458 210.77916,807.4943 C 231.0561,824.00008 293.4256,860.98489 305.87768,803.47107 C 311.0428,767.97129 269.85087,757.91372 246.08547,783.59136 z "
     id="path4925"
     sodipodi:nodetypes="csccc" />
  <path
     style="fill:#ffffff;fill-opacity:1;fill-rule:evenodd;stroke:#000000;stroke-width:5;stroke-linecap:butt;stroke-linejoin:miter;stroke-miterlimit:4;stroke-dasharray:none;stroke-opacity:1"
     d="M 182.88599,1094.6525 C 162.29504,1093.8644 120.22248,1045.9047 125.74967,1003.2507 C 136.49636,920.31701 227.08077,931.3786 220.62487,910.91405 C 213.26546,896.61584 203.59252,817.84493 321.15466,817.19898 C 409.93521,816.71118 430.61938,905.84361 426.65412,924.6346 C 436.81048,946.27021 489.73491,914.68674 522.69898,989.69821 C 530.52049,1007.4965 528.50535,1096.6306 448.00339,1094.7848 C 364.96814,1092.8808 266.4457,1097.851 182.88599,1094.6525 z "
     id="path4025"
     sodipodi:nodetypes="cscscsss" />
  <path
     style="fill:#000000;fill-opacity:0.22099448;fill-rule:evenodd;stroke:none;stroke-width:5;stroke-linecap:butt;stroke-linejoin:miter;stroke-miterlimit:4;stroke-dasharray:none;stroke-opacity:1"
     d="M 319.36318,819.08683 C 287.07522,819.4342 264.52133,825.74269 248.92568,834.96183 C 248.90538,834.97383 248.88346,834.98107 248.86318,834.99308 C 237.22276,849.43396 217.99268,845.88689 220.08193,878.89933 C 270.02796,820.58114 344.63644,902.4772 328.01943,956.46181 C 362.61495,948.50691 461.82232,958.44991 475.30068,1004.5243 C 483.67727,1033.1588 474.0184,1056.2648 430.48818,1096.3681 C 436.25704,1096.4387 441.94624,1096.5514 447.58193,1096.6806 C 528.08389,1098.5264 530.12219,1009.3851 522.30068,991.58681 C 489.33661,916.57535 436.39454,948.15991 426.23818,926.52433 C 430.20344,907.73333 409.51873,818.59903 320.73818,819.08683 C 320.27895,819.08935 319.81853,819.08193 319.36318,819.08683 z "
     id="path4027"
     sodipodi:nodetypes="cscccscsscsc" />
  <path
     style="fill:#000000;fill-opacity:0.25414363;fill-rule:evenodd;stroke:none;stroke-width:1px;stroke-linecap:butt;stroke-linejoin:miter;stroke-opacity:1"
     d="M 299.25659,115.26731 C 301.11834,101.90726 256.79442,85.219858 224.57674,95.988907 C 258.58049,65.316295 272.22642,65.263276 278.26252,64.999238 C 313.4619,63.321926 303.16455,116.59372 299.25659,115.26731 z "
     id="path4927"
     sodipodi:nodetypes="cccc" />
  <path
     style="fill:#000000;fill-opacity:0.25414363;fill-rule:evenodd;stroke:none;stroke-width:1px;stroke-linecap:butt;stroke-linejoin:miter;stroke-opacity:1"
     d="M 300.65335,352.86847 C 302.5151,339.50842 258.19118,322.82101 225.9735,333.59006 C 259.97725,302.91745 273.62318,302.86443 279.65928,302.60039 C 314.85866,300.92308 304.56131,354.19488 300.65335,352.86847 z "
     id="path4930"
     sodipodi:nodetypes="cccc" />
  <path
     style="fill:#000000;fill-opacity:0.25414363;fill-rule:evenodd;stroke:none;stroke-width:1px;stroke-linecap:butt;stroke-linejoin:miter;stroke-opacity:1"
     d="M 298.16394,604.75191 C 300.02569,591.39186 255.70177,574.70445 223.48409,585.4735 C 257.48784,554.80089 271.13377,554.74787 277.16987,554.48383 C 312.36925,552.80652 302.0719,606.07832 298.16394,604.75191 z "
     id="path4934"
     sodipodi:nodetypes="cccc" />
  <path
     style="fill:#000000;fill-opacity:0.25414363;fill-rule:evenodd;stroke:none;stroke-width:1px;stroke-linecap:butt;stroke-linejoin:miter;stroke-opacity:1"
     d="M 300.56526,818.46977 C 302.42701,805.10972 258.10309,788.42232 225.88541,799.19137 C 259.88916,768.51876 273.53509,768.46574 279.57119,768.2017 C 314.77057,766.52439 304.47322,819.79618 300.56526,818.46977 z "
     id="path4936"
     sodipodi:nodetypes="cccc" />
  <path
     style="fill:#000000;fill-opacity:0.25414363;fill-rule:evenodd;stroke:none;stroke-width:1px;stroke-linecap:butt;stroke-linejoin:miter;stroke-opacity:1"
     d="M 324.17047,212.30689 C 322.30872,198.94684 366.63264,182.25944 398.85032,193.02849 C 364.84657,162.35588 351.20064,162.30286 345.16454,162.03882 C 309.96516,160.36151 320.26251,213.6333 324.17047,212.30689 z "
     id="path4938"
     sodipodi:nodetypes="cccc" />
  <path
     style="fill:#000000;fill-opacity:0.25414363;fill-rule:evenodd;stroke:none;stroke-width:1px;stroke-linecap:butt;stroke-linejoin:miter;stroke-opacity:1"
     d="M 324.34199,456.38436 C 322.48024,443.02431 366.80416,426.33691 399.02184,437.10596 C 365.01809,406.43334 351.37216,406.38033 345.33606,406.11629 C 310.13668,404.43898 320.43403,457.71077 324.34199,456.38436 z "
     id="path4940"
     sodipodi:nodetypes="cccc" />
  <path
     style="fill:#000000;fill-opacity:0.25414363;fill-rule:evenodd;stroke:none;stroke-width:1px;stroke-linecap:butt;stroke-linejoin:miter;stroke-opacity:1"
     d="M 323.82743,711.78237 C 321.96568,698.42232 366.2896,681.73492 398.50728,692.50397 C 364.50353,661.83135 350.8576,661.77834 344.8215,661.5143 C 309.62212,659.83699 319.91947,713.10878 323.82743,711.78237 z "
     id="path4942"
     sodipodi:nodetypes="cccc" />
</svg>
