<?xml version="1.0" encoding="UTF-8" standalone="no"?>
<!-- Created with Inkscape (http://www.inkscape.org/) -->

<svg
   xmlns:dc="http://purl.org/dc/elements/1.1/"
   xmlns:cc="http://creativecommons.org/ns#"
   xmlns:rdf="http://www.w3.org/1999/02/22-rdf-syntax-ns#"
   xmlns:svg="http://www.w3.org/2000/svg"
   xmlns="http://www.w3.org/2000/svg"
   xmlns:sodipodi="http://sodipodi.sourceforge.net/DTD/sodipodi-0.dtd"
   xmlns:inkscape="http://www.inkscape.org/namespaces/inkscape"
   width="57.480724"
   height="128.58791"
   id="svg2"
   version="1.1"
   inkscape:version="0.47 r22583"
   sodipodi:docname="New document 1">
  <defs
     id="defs4">
    <inkscape:perspective
       sodipodi:type="inkscape:persp3d"
       inkscape:vp_x="0 : 526.18109 : 1"
       inkscape:vp_y="0 : 1000 : 0"
       inkscape:vp_z="744.09448 : 526.18109 : 1"
       inkscape:persp3d-origin="372.04724 : 350.78739 : 1"
       id="perspective10" />
  </defs>
  <sodipodi:namedview
     id="base"
     pagecolor="#ffffff"
     bordercolor="#666666"
     borderopacity="1.0"
     inkscape:pageopacity="0.0"
     inkscape:pageshadow="2"
     inkscape:zoom="1.31"
     inkscape:cx="22.645586"
     inkscape:cy="67.091423"
     inkscape:document-units="px"
     inkscape:current-layer="layer1"
     showgrid="false"
     inkscape:window-width="582"
     inkscape:window-height="708"
     inkscape:window-x="69"
     inkscape:window-y="92"
     inkscape:window-maximized="0" />
  <metadata
     id="metadata7">
    <rdf:RDF>
      <cc:Work
         rdf:about="">
        <dc:format>image/svg+xml</dc:format>
        <dc:type
           rdf:resource="http://purl.org/dc/dcmitype/StillImage" />
        <dc:title></dc:title>
      </cc:Work>
    </rdf:RDF>
  </metadata>
  <g
     inkscape:label="Layer 1"
     inkscape:groupmode="layer"
     id="layer1"
     transform="translate(-241.76992,-291.32047)">
    <rect
       style="fill:#000000;fill-opacity:1;stroke:#ffffff;stroke-width:6;stroke-miterlimit:4;stroke-opacity:0;stroke-dasharray:none"
       id="rect2822"
       width="3.23577"
       height="71.186943"
       x="263.5632"
       y="293.50696"
       rx="0.30000001"
       ry="2"
       transform="matrix(0.9998704,0.01609916,-0.01609916,0.9998704,0,0)" />
    <path
       style="fill:#000000;fill-opacity:1;stroke:#ffffff;stroke-width:7.47981024;stroke-miterlimit:4;stroke-opacity:0"
       d="m 295.49261,376.95715 c -0.13463,-1.07366 -0.026,-2.21746 -0.60961,-3.19851 -0.39298,-0.80247 -1.36598,-1.22871 -2.27195,-1.4045 -1.05696,-0.0366 -2.00675,0.44162 -2.86837,0.94789 -1.34771,0.74264 -2.63337,1.57905 -4.07816,2.1676 -1.51907,0.64843 -3.19851,0.95148 -4.85891,1.13164 -0.98345,0.10409 -1.8381,-0.36085 -2.56148,-0.91167 -0.95509,-0.66105 -1.72183,-1.51779 -2.6546,-2.20689 -1.12189,-0.96102 -2.43413,-1.71466 -3.70806,-2.49712 -1.20181,-0.77586 -2.58928,-1.25012 -4.01555,-1.55578 -1.0094,-0.28245 -2.09849,-0.31469 -3.0821,-0.66239 -0.99633,-0.39728 -1.41526,-1.43834 -1.34925,-2.36456 -0.0583,-0.87108 -0.17582,-1.86898 -0.98923,-2.44967 -0.89933,-0.73289 -2.17275,-0.86133 -3.33047,-0.95569 -0.90789,-0.008 -1.80246,-0.19705 -2.71001,-0.20531 -1.06087,0.029 -2.12704,0.6489 -2.25463,1.66189 -0.20556,1.0162 0.36588,2.14894 -0.27942,3.09093 -0.99679,1.52914 -2.88675,2.23002 -4.44544,3.18532 -1.07756,0.61297 -2.1223,1.3835 -2.58069,2.49794 -0.58742,0.97983 -0.93488,2.06402 -1.12241,3.16219 -0.24202,1.39621 -0.29606,2.82334 -0.0636,4.22678 0.21624,1.68693 0.63749,3.34851 0.88822,5.03258 0.37204,1.61866 0.73897,3.24247 1.35929,4.80163 0.56949,1.62763 1.20967,3.23419 1.72127,4.8785 0.35109,1.18958 0.76607,2.42217 0.49674,3.66165 -0.18748,1.10013 -0.52618,2.19279 -1.02818,3.2092 -0.69602,1.39611 -1.68288,2.65409 -2.33782,4.07 -0.89075,1.66156 -1.20196,3.5649 -0.90399,5.39182 0.26329,0.84408 0.41955,1.81404 1.17628,2.42995 0.67215,0.63484 1.92293,0.78715 2.63231,0.1249 0.84422,-0.63545 1.20626,-1.62772 1.6723,-2.49861 1.06756,-2.42325 1.72386,-4.99013 3.03185,-7.32638 0.69678,-1.34735 1.27656,-2.74498 2.04006,-4.06333 0.46455,-0.70472 1.17743,-1.42046 2.18693,-1.26731 0.97691,0.13958 1.41559,1.08586 1.85677,1.7789 0.73701,1.56634 1.08028,3.25569 1.57157,4.89294 0.68746,2.85901 1.24945,5.74137 1.88059,8.61081 0.38543,0.84618 1.22937,1.50051 2.18488,1.77418 1.49346,0.2677 3.01195,-0.57538 3.67652,-1.77043 0.72153,-1.0956 0.65459,-2.42567 0.73819,-3.65678 -0.33991,-3.85913 -0.6674,-7.72044 -0.90035,-11.58536 0.11103,-0.84181 1.16384,-1.54933 2.06312,-1.19488 1.21347,0.44283 2.0295,1.41921 2.79077,2.33912 2.24451,2.40322 3.92077,5.18172 6.03516,7.67081 0.70157,0.78748 1.6758,1.4974 2.83867,1.50497 1.85486,0.12413 3.57341,-0.84481 4.73581,-2.08441 0.55715,-0.71331 0.72724,-1.64466 0.35655,-2.46351 -0.44212,-1.17258 -1.40252,-2.09863 -2.15749,-3.11326 -1.59374,-1.95023 -3.43245,-3.71822 -5.10465,-5.61162 -1.28157,-1.40713 -2.53678,-2.83339 -3.76186,-4.28125 -0.72833,-1.20597 -0.90928,-2.77535 -0.0666,-3.96976 0.75608,-1.35384 2.31743,-2.16387 3.89895,-2.51566 1.87712,-0.57634 3.8688,-0.66235 5.83239,-0.74253 1.3294,-0.11152 2.68548,-0.19602 3.91471,-0.71175 1.00206,-0.3664 2.04216,-0.80203 2.66532,-1.64185 0.63182,-0.75285 1.24156,-1.54674 1.48255,-2.48245 0.24501,-0.92758 0.44716,-1.89397 0.36768,-2.85088 z"
       id="path2824" />
    <path
       style="fill:#000000;fill-opacity:1;stroke:#ffffff;stroke-width:6;stroke-miterlimit:4;stroke-opacity:0"
       d="m 265.36595,295.41713 c -0.30686,-0.97826 -1.52877,-1.18675 -2.42269,-1.06559 -2.06213,0.0985 -4.1253,0.13194 -6.18953,0.10007 -1.09703,0.15741 -1.60069,1.68243 -0.84774,2.48827 1.20509,1.68874 3.4815,2.35148 5.47164,2.04626 1.62536,-0.2587 3.33223,-1.14254 3.94559,-2.75703 0.0335,-0.27068 0.10103,-0.53933 0.0427,-0.81198 z"
       id="path2827" />
  </g>
</svg>
