<?xml version="1.0" encoding="UTF-8" standalone="no"?>
<!-- Created with Inkscape (http://www.inkscape.org/) -->
<svg
   xmlns:dc="http://purl.org/dc/elements/1.1/"
   xmlns:cc="http://web.resource.org/cc/"
   xmlns:rdf="http://www.w3.org/1999/02/22-rdf-syntax-ns#"
   xmlns:svg="http://www.w3.org/2000/svg"
   xmlns="http://www.w3.org/2000/svg"
   xmlns:xlink="http://www.w3.org/1999/xlink"
   xmlns:sodipodi="http://inkscape.sourceforge.net/DTD/sodipodi-0.dtd"
   xmlns:inkscape="http://www.inkscape.org/namespaces/inkscape"
   id="svg2"
   sodipodi:version="0.32"
   inkscape:version="0.43"
   width="48"
   height="48"
   sodipodi:docbase="/home/yekcim/Desktop/SVG/Weapons"
   sodipodi:docname="airhammer_ico.svg"
   version="1.0"
   inkscape:export-filename="D:\Documents and Settings\lea\Bureau\marteau.png"
   inkscape:export-xdpi="90"
   inkscape:export-ydpi="90"
   inkscape:output_extension="org.inkscape.output.svg.inkscape">
  <metadata
     id="metadata7">
    <rdf:RDF>
      <cc:Work
         rdf:about="">
        <dc:format>image/svg+xml</dc:format>
        <dc:type
           rdf:resource="http://purl.org/dc/dcmitype/StillImage" />
      </cc:Work>
    </rdf:RDF>
  </metadata>
  <defs
     id="defs5">
    <linearGradient
       id="linearGradient2257">
      <stop
         id="stop2259"
         offset="0"
         style="stop-color:#e7e7e7;stop-opacity:1;" />
      <stop
         id="stop2261"
         offset="1"
         style="stop-color:#575757;stop-opacity:1;" />
    </linearGradient>
    <linearGradient
       id="linearGradient7741">
      <stop
         style="stop-color:#ffffff;stop-opacity:1;"
         offset="0"
         id="stop7743" />
      <stop
         style="stop-color:#ffffff;stop-opacity:0;"
         offset="1"
         id="stop7745" />
    </linearGradient>
    <linearGradient
       id="linearGradient4911">
      <stop
         style="stop-color:#7a6b00;stop-opacity:1;"
         offset="0"
         id="stop4913" />
      <stop
         style="stop-color:#e1d263;stop-opacity:1;"
         offset="1"
         id="stop4915" />
    </linearGradient>
    <linearGradient
       id="linearGradient3942">
      <stop
         style="stop-color:#757575;stop-opacity:1;"
         offset="0"
         id="stop3944" />
      <stop
         style="stop-color:#252525;stop-opacity:1;"
         offset="1"
         id="stop3946" />
    </linearGradient>
    <linearGradient
       inkscape:collect="always"
       xlink:href="#linearGradient4911"
       id="linearGradient7805"
       gradientUnits="userSpaceOnUse"
       x1="-72.422485"
       y1="373.32715"
       x2="-41.2244"
       y2="375.49548" />
    <linearGradient
       inkscape:collect="always"
       xlink:href="#linearGradient3942"
       id="linearGradient7814"
       gradientUnits="userSpaceOnUse"
       x1="25.184456"
       y1="27.934601"
       x2="24.044046"
       y2="27.927233"
       gradientTransform="matrix(1.021492,-7.398833e-19,1.252254e-17,1.02149,-1.568688,-0.659926)" />
    <linearGradient
       inkscape:collect="always"
       xlink:href="#linearGradient3942"
       id="linearGradient7825"
       gradientUnits="userSpaceOnUse"
       gradientTransform="matrix(0.361986,-3.745854e-3,3.251882e-2,0.262218,42.00058,-73.48873)"
       x1="-74.168907"
       y1="367.79813"
       x2="-82.807465"
       y2="367.90427" />
    <linearGradient
       inkscape:collect="always"
       xlink:href="#linearGradient4911"
       id="linearGradient7830"
       gradientUnits="userSpaceOnUse"
       gradientTransform="matrix(0.360607,2.746095e-2,-3.216993e-2,0.261964,86.24513,-68.21692)"
       x1="-151.38226"
       y1="331.06723"
       x2="-133.71432"
       y2="327.60571" />
    <linearGradient
       inkscape:collect="always"
       xlink:href="#linearGradient2257"
       id="linearGradient7835"
       gradientUnits="userSpaceOnUse"
       gradientTransform="matrix(0.362019,1.26897e-3,3.297715e-2,0.262646,41.40649,-73.20069)"
       x1="-70.297569"
       y1="369.16583"
       x2="-95.24192"
       y2="369.28635" />
    <linearGradient
       inkscape:collect="always"
       xlink:href="#linearGradient3942"
       id="linearGradient7838"
       gradientUnits="userSpaceOnUse"
       gradientTransform="matrix(0.361986,-3.745854e-3,3.251882e-2,0.262218,42.00058,-73.48873)"
       x1="-74.168907"
       y1="367.79813"
       x2="-82.807465"
       y2="367.90427" />
    <radialGradient
       inkscape:collect="always"
       xlink:href="#linearGradient7741"
       id="radialGradient3123"
       cx="28.528252"
       cy="7.0724592"
       fx="28.528252"
       fy="7.0724592"
       r="7.0369005"
       gradientTransform="matrix(0.309417,2.137792e-19,-1.829379e-16,0.199292,18.36375,11.70008)"
       gradientUnits="userSpaceOnUse" />
  </defs>
  <sodipodi:namedview
     inkscape:window-height="725"
     inkscape:window-width="954"
     inkscape:pageshadow="2"
     inkscape:pageopacity="0.0"
     borderopacity="1.0"
     bordercolor="#666666"
     pagecolor="#ffffff"
     id="base"
     inkscape:zoom="8"
     inkscape:cx="6.7984709"
     inkscape:cy="22.219089"
     inkscape:window-x="31"
     inkscape:window-y="106"
     inkscape:current-layer="svg2" />
  <path
     style="color:#000000;fill:none;fill-opacity:1;fill-rule:nonzero;stroke:#000000;stroke-width:1.53223646;stroke-linecap:round;stroke-linejoin:round;marker:none;marker-start:none;marker-mid:none;marker-end:none;stroke-miterlimit:4;stroke-dasharray:none;stroke-dashoffset:0;stroke-opacity:1;visibility:visible;display:inline;overflow:visible"
     d="M 35.206482,0.98488028 L 26.076906,1.0806451 C 26.070481,1.0762827 26.051668,1.0524169 26.044984,1.0487235 C 26.041511,1.0472227 26.016601,1.050047 26.013063,1.0487235 L 19.628744,1.0806451 L 19.596822,1.0806451 C 19.59405,1.0801068 19.567697,1.0809799 19.564901,1.0806451 C 19.562095,1.0807236 19.535773,1.0803616 19.532979,1.0806451 C 19.530228,1.0815289 19.503792,1.0795661 19.501058,1.0806451 C 19.495659,1.083569 19.474456,1.1088964 19.469136,1.1125667 C 19.463901,1.1169636 19.442357,1.1393843 19.437214,1.1444882 L 10.275717,1.240253 C 10.271091,1.2403455 10.248372,1.2399678 10.243795,1.240253 C 10.239271,1.2407286 10.216346,1.2395895 10.211874,1.240253 C 10.207511,1.2412856 10.184259,1.2709611 10.179952,1.2721746 C 10.175703,1.2735667 10.152222,1.2706063 10.148031,1.2721746 C 10.135819,1.2779156 10.095832,1.2968543 10.084187,1.3040962 C 10.076555,1.3092483 10.059631,1.3302318 10.052266,1.3360178 C 9.8892421,1.4832458 9.7876579,1.7813398 9.8288147,2.1340577 C 9.8771292,2.5481177 10.096708,2.9018471 10.33956,2.9959407 C 10.353113,3.0006487 10.389696,3.0247538 10.403403,3.0278623 C 10.407998,3.0285315 10.430719,3.02738 10.435325,3.0278623 C 10.439939,3.0281552 10.462625,3.0277608 10.467247,3.0278623 C 10.471873,3.0277698 10.494592,3.0281475 10.499168,3.0278623 L 19.405293,2.9320975 C 19.410287,2.9369625 19.432098,2.9279497 19.437214,2.9320975 C 19.44489,2.9383192 19.461202,2.959468 19.469136,2.9640191 C 19.471859,2.9649564 19.498309,2.96328 19.501058,2.9640191 C 19.503876,2.964148 19.530173,2.9640976 19.532979,2.9640191 C 19.53576,2.9635331 19.562135,2.9647052 19.564901,2.9640191 L 19.596822,2.9640191 L 20.394862,2.9640191 L 20.746,5.8688841 C 20.743889,5.8727642 20.747575,5.8969065 20.746,5.9008057 C 20.744967,5.9047228 20.746478,5.9288396 20.746,5.9327273 C 20.746612,5.9365527 20.744852,5.9608563 20.746,5.9646489 C 20.750401,5.9720962 20.771466,5.9892701 20.777921,5.9965705 C 20.785386,6.0037941 20.800399,6.0214289 20.809843,6.0284921 C 20.815051,6.0319819 20.836078,6.0569668 20.841765,6.0604137 C 20.854083,6.0672195 20.891437,6.0857123 20.905608,6.0923353 C 20.928227,6.1021276 20.974783,6.1149113 21.001373,6.1242569 C 21.215083,6.1947133 21.558613,6.247976 21.95902,6.2838648 L 22.533609,10.752888 C 21.704661,11.059743 21.149056,11.689465 21.065216,12.412811 C 18.799993,13.331065 17.392729,15.151941 17.617684,17.169128 C 17.615679,17.17188 17.619598,17.198298 17.617684,17.20105 C 17.619003,17.212025 17.616266,17.221985 17.617684,17.232971 C 17.611482,17.243986 17.590489,17.253877 17.585762,17.264893 C 17.58377,17.2704 17.587379,17.291309 17.585762,17.296815 C 17.584521,17.30232 17.554703,17.323234 17.55384,17.328736 C 17.553359,17.334236 17.553937,17.355161 17.55384,17.360658 C 17.554128,17.36615 17.553168,17.387124 17.55384,17.392579 C 17.554895,17.397998 17.584329,17.419119 17.585762,17.424501 C 17.587572,17.429846 17.583577,17.451116 17.585762,17.456423 C 17.593433,17.472229 17.606704,17.504807 17.617684,17.520266 C 17.621706,17.525379 17.645222,17.547113 17.649605,17.552187 C 17.654347,17.557222 17.67643,17.579115 17.681527,17.584109 C 17.686979,17.589063 17.707646,17.611117 17.713448,17.616031 C 17.7196,17.620903 17.738872,17.643122 17.74537,17.647952 C 17.806951,17.691058 17.912224,17.736022 18.000743,17.775639 C 18.233739,17.875601 18.571244,17.956365 18.958391,18.031011 L 19.086077,19.052502 C 18.779357,18.975759 18.504336,18.899087 18.479567,18.892894 C 18.47205,18.890704 18.45534,18.894459 18.447645,18.892894 C 18.439782,18.891971 18.423747,18.893161 18.415723,18.892894 C 18.399676,18.892362 18.367753,18.890801 18.35188,18.892894 C 18.304627,18.902969 18.235922,18.925864 18.192272,18.956738 C 18.178001,18.968074 18.142074,19.007248 18.128429,19.020581 C 18.002089,19.156276 17.896238,19.376522 17.873056,19.627091 C 17.855976,19.81172 17.882752,20.003466 17.9369,20.137837 C 17.97859,20.230024 18.061164,20.316031 18.128429,20.361288 C 18.142302,20.369221 18.177608,20.387613 18.192272,20.393209 C 18.207308,20.397589 18.240389,20.423283 18.256116,20.425131 L 19.245685,20.393209 L 19.277606,20.61666 L 18.479567,20.584739 C 18.455433,20.585538 18.406864,20.61009 18.383802,20.61666 C 18.368704,20.622257 18.334446,20.640649 18.319959,20.648582 C 18.305805,20.657633 18.269545,20.669313 18.256116,20.680504 C 18.210481,20.723243 18.162611,20.807503 18.128429,20.872033 C 18.063871,21.006404 17.997967,21.198149 18.000743,21.382779 C 18.003914,21.593784 18.073861,21.789863 18.160351,21.925446 C 18.171642,21.941537 18.212001,21.975005 18.224194,21.989289 C 18.249419,22.015954 18.291774,22.066625 18.319959,22.085054 C 18.334371,22.09316 18.36881,22.11118 18.383802,22.116975 C 18.406679,22.123864 18.455702,22.115781 18.479567,22.116975 C 18.495656,22.116443 18.527778,22.120105 18.54341,22.116975 C 18.546009,22.116338 18.599185,22.087032 18.607253,22.085054 C 18.614655,22.081663 18.63193,22.08902 18.639175,22.085054 C 18.753831,22.056932 19.06663,21.984542 19.437214,21.893524 L 20.809843,32.683023 C 20.820177,32.683732 20.831397,32.682324 20.841765,32.683023 C 20.843244,32.687391 20.839979,32.710607 20.841765,32.714944 C 20.843855,32.71925 20.871294,32.742592 20.873686,32.746866 C 20.882659,32.759499 20.893983,32.798367 20.905608,32.810709 C 20.926436,32.831116 20.973415,32.854983 21.001373,32.874552 C 21.007243,32.878432 21.027146,32.902629 21.033294,32.906474 C 21.610158,33.248652 23.306704,33.443653 25.406552,33.41722 L 26.811103,44.557856 C 27.211655,45.862009 27.7287,46.638602 28.183731,46.888132 C 28.228178,46.910605 28.29987,46.939436 28.343339,46.951975 C 28.377934,46.96042 28.437239,46.981785 28.471025,46.983897 C 28.504591,46.984427 28.56612,46.957756 28.598712,46.951975 C 28.719941,46.924393 28.847191,46.876118 28.949849,46.760446 C 28.977225,46.7296 28.987952,46.669827 29.013693,46.632759 C 29.026562,46.614225 29.065099,46.620923 29.077536,46.600838 C 29.108627,46.550623 29.113179,46.469199 29.141379,46.409308 C 29.147019,46.39733 29.167782,46.389751 29.173301,46.377387 C 29.256073,46.191921 29.313202,45.978892 29.36483,45.707033 C 29.368272,45.688909 29.393465,45.661695 29.396752,45.64319 C 29.406612,45.587673 29.388323,45.542529 29.396752,45.483582 C 29.436085,45.208493 29.487818,44.875269 29.492516,44.525934 L 28.087966,33.289533 C 30.063831,33.093708 31.635077,32.715001 32.17393,32.331885 C 32.17992,32.327424 32.20014,32.304431 32.205852,32.299964 C 32.211284,32.295492 32.232622,32.272519 32.237774,32.268042 C 32.257245,32.250117 32.286754,32.222176 32.301617,32.204199 C 32.308463,32.195206 32.327874,32.181277 32.333538,32.172277 C 32.341139,32.158776 32.360577,32.121935 32.36546,32.108434 C 32.366474,32.103936 32.364755,32.081009 32.36546,32.076513 C 32.365853,32.072018 32.36538,32.049082 32.36546,32.044591 C 32.370267,32.042763 32.36081,32.014498 32.36546,32.012669 L 30.418243,17.424501 C 30.806741,17.303981 31.128094,17.171426 31.343969,17.041442 C 31.369968,17.025164 31.416731,16.993953 31.439734,16.977599 C 31.476384,16.950303 31.53938,16.909277 31.56742,16.881834 C 31.572677,16.876341 31.594439,16.855409 31.599342,16.849912 C 31.612983,16.833412 31.620867,16.802588 31.631263,16.786069 C 31.634364,16.780561 31.660451,16.759655 31.663185,16.754148 C 31.665549,16.74864 31.661193,16.727733 31.663185,16.722226 C 31.668037,16.705707 31.693663,16.674882 31.695106,16.658383 C 31.695204,16.652886 31.695395,16.631954 31.695106,16.626461 C 31.694434,16.621005 31.664239,16.599959 31.663185,16.59454 C 31.661752,16.589157 31.664995,16.567962 31.663185,16.562618 C 31.661,16.557311 31.665742,16.535965 31.663185,16.530696 C 31.661068,16.515344 31.633563,16.514085 31.631263,16.498775 C 31.627603,16.493621 31.635286,16.471967 31.631263,16.466853 C 31.313944,14.449068 29.43503,12.795146 26.938789,12.125517 C 26.608416,11.542846 25.98106,11.054394 25.215023,10.78481 L 24.640434,6.2200217 C 25.073866,6.1608539 25.436952,6.0883772 25.630004,5.9965705 C 25.637086,5.9929513 25.655309,5.9682999 25.661925,5.9646489 C 25.674212,5.9572859 25.715416,5.9402047 25.725768,5.9327273 C 25.72995,5.9289365 25.754016,5.9046208 25.75769,5.9008057 C 25.760329,5.896946 25.787501,5.8727642 25.789612,5.8688841 L 25.821533,5.8688841 L 25.438474,2.9320975 L 26.044984,2.9320975 C 26.047731,2.9308212 26.074194,2.9335518 26.076906,2.9320975 C 26.092968,2.9223207 26.094063,2.8839759 26.108828,2.8682543 L 35.429933,2.7724895 C 35.435936,2.770541 35.455947,2.7745858 35.461855,2.7724895 C 36.100986,2.5259158 36.156487,1.3987681 35.525698,1.0806451 C 35.514002,1.075128 35.474005,1.0536916 35.461855,1.0487235 C 35.443288,1.0416944 35.417606,1.0225166 35.398011,1.0168019 C 35.38472,1.0132942 35.347918,1.0196902 35.334168,1.0168019 C 35.320188,1.0142307 35.284766,0.98680201 35.270325,0.98488028 C 35.255653,0.98329084 35.221615,0.98579012 35.206482,0.98488028 z "
     id="path6813" />
  <path
     sodipodi:type="arc"
     style="color:#000000;fill:#665d22;fill-opacity:1;fill-rule:nonzero;stroke:none;stroke-width:10.19999695;stroke-linecap:butt;stroke-linejoin:miter;marker:none;marker-start:none;marker-mid:none;marker-end:none;stroke-miterlimit:4;stroke-dasharray:none;stroke-dashoffset:0;stroke-opacity:1;visibility:visible;display:inline;overflow:visible"
     id="path5809"
     sodipodi:cx="290.58322"
     sodipodi:cy="83.465714"
     sodipodi:rx="0.93515301"
     sodipodi:ry="3.631511"
     d="M 291.51837 83.465714 A 0.93515301 3.631511 0 1 1  289.64807,83.465714 A 0.93515301 3.631511 0 1 1  291.51837 83.465714 z"
     transform="matrix(0.349398,1.59875e-2,-6.810677e-3,0.26174,-81.42031,-24.46379)" />
  <path
     style="color:#000000;fill:#464646;fill-opacity:1;fill-rule:nonzero;stroke:none;stroke-width:10.19999695;stroke-linecap:butt;stroke-linejoin:miter;marker:none;marker-start:none;marker-mid:none;marker-end:none;stroke-miterlimit:4;stroke-dashoffset:0;stroke-opacity:1;visibility:visible;display:inline;overflow:visible"
     d="M 10.281904,1.249202 L 35.211876,0.99121894 C 36.180444,1.0494492 36.20081,2.5200781 35.432406,2.7694799 L 10.502434,3.0274603 L 10.281904,1.249202 z "
     id="rect3976"
     sodipodi:nodetypes="ccccc" />
  <path
     sodipodi:type="arc"
     style="color:#000000;fill:#554b0c;fill-opacity:1;fill-rule:nonzero;stroke:none;stroke-width:10.19999695;stroke-linecap:butt;stroke-linejoin:miter;marker:none;marker-start:none;marker-mid:none;marker-end:none;stroke-miterlimit:4;stroke-dasharray:none;stroke-dashoffset:0;stroke-opacity:1;visibility:visible;display:inline;overflow:visible"
     id="path4014"
     sodipodi:cx="-8.552206"
     sodipodi:cy="344.99774"
     sodipodi:rx="23.716942"
     sodipodi:ry="4.8491888"
     d="M 15.164736 344.99774 A 23.716942 4.8491888 0 1 1  -32.269148,344.99774 A 23.716942 4.8491888 0 1 1  15.164736 344.99774 z"
     transform="matrix(0.297609,-1.559623e-2,1.377993e-2,0.262656,22.41467,-73.75027)" />
  <path
     style="color:#000000;fill:#bdad40;fill-opacity:1;fill-rule:nonzero;stroke:none;stroke-width:10.19999695;stroke-linecap:butt;stroke-linejoin:miter;marker:none;marker-start:none;marker-mid:none;marker-end:none;stroke-miterlimit:4;stroke-dasharray:none;stroke-dashoffset:0;stroke-opacity:1;visibility:visible;display:inline;overflow:visible"
     d="M 26.03125 1.03125 L 19.5625 1.0625 C 19.565029 1.0634049 19.560013 1.0926572 19.5625 1.09375 C 19.564946 1.0950277 19.591345 1.0922903 19.59375 1.09375 C 19.598313 1.0977259 19.620602 1.1203494 19.625 1.125 C 19.629233 1.1303016 19.652182 1.150321 19.65625 1.15625 C 19.664057 1.1693155 19.680354 1.2034116 19.6875 1.21875 C 19.844271 1.59604 19.820025 2.5469719 19.625 2.875 C 19.611779 2.8946552 19.577228 2.9234844 19.5625 2.9375 C 19.559961 2.939499 19.56508 2.966924 19.5625 2.96875 L 20.375 2.96875 L 20.75 5.90625 L 25.8125 5.875 L 25.4375 2.9375 L 26.03125 2.9375 C 26.034032 2.9364046 26.059753 2.9387763 26.0625 2.9375 C 26.070636 2.9331371 26.085932 2.9121636 26.09375 2.90625 C 26.098818 2.9016471 26.120079 2.8802405 26.125 2.875 C 26.158413 2.8340137 26.192983 2.754113 26.21875 2.6875 C 26.38229 2.2249437 26.386522 1.2805049 26.09375 1.0625 C 26.090538 1.0603188 26.065777 1.0645154 26.0625 1.0625 C 26.059093 1.0608248 26.034723 1.0327508 26.03125 1.03125 z "
     id="rect3982" />
  <path
     sodipodi:type="arc"
     style="color:#000000;fill:#665d22;fill-opacity:1;fill-rule:nonzero;stroke:none;stroke-width:30.88329332;stroke-linecap:butt;stroke-linejoin:miter;marker:none;marker-start:none;marker-mid:none;marker-end:none;stroke-miterlimit:4;stroke-dasharray:none;stroke-dashoffset:0;stroke-opacity:1;visibility:visible;display:inline;overflow:visible;opacity:1"
     id="path4026"
     sodipodi:cx="-8.552206"
     sodipodi:cy="344.99774"
     sodipodi:rx="23.716942"
     sodipodi:ry="4.8491888"
     d="M 15.164736 344.99774 A 23.716942 4.8491888 0 1 1  -32.269148,344.99774 A 23.716942 4.8491888 0 1 1  15.164736 344.99774 z"
     transform="matrix(0.106943,4.048678e-4,-2.616528e-2,9.329254e-2,33.22442,-26.28165)" />
  <path
     style="color:#000000;fill:url(#linearGradient7838);fill-opacity:1;fill-rule:nonzero;stroke:none;stroke-width:10.19999695;stroke-linecap:butt;stroke-linejoin:miter;marker:none;marker-start:none;marker-mid:none;marker-end:none;stroke-miterlimit:4;stroke-dashoffset:0;stroke-opacity:1;visibility:visible;display:inline;overflow:visible"
     d="M 21.937709,6.0412686 C 21.884697,5.5289376 24.593025,5.4760308 24.595217,6.0137668 L 29.476822,44.535462 C 29.43386,47.729382 27.824621,47.83613 26.819312,44.562961 L 21.937709,6.0412686 z "
     id="rect3978"
     sodipodi:nodetypes="ccccc" />
  <path
     style="color:#000000;fill:url(#linearGradient7835);fill-opacity:1.0;fill-rule:nonzero;stroke:none;stroke-width:10.19999695;stroke-linecap:butt;stroke-linejoin:miter;marker:none;marker-start:none;marker-mid:none;marker-end:none;stroke-miterlimit:4;stroke-dashoffset:0;stroke-opacity:1;visibility:visible;display:inline;overflow:visible"
     d="M 30.086627,14.991689 L 32.353493,32.024293 C 31.163261,32.492464 24.774007,32.951185 20.805435,32.679156 L 18.613355,15.384354 C 21.719525,14.236542 30.027244,14.518733 30.086627,14.991689 z "
     id="rect3980"
     sodipodi:nodetypes="ccccc" />
  <path
     sodipodi:type="arc"
     style="color:#000000;fill:url(#linearGradient7805);fill-opacity:1;fill-rule:nonzero;stroke:none;stroke-width:25.57076263;stroke-linecap:butt;stroke-linejoin:miter;marker:none;marker-start:none;marker-mid:none;marker-end:none;stroke-miterlimit:4;stroke-dasharray:none;stroke-dashoffset:0;stroke-opacity:1;visibility:visible;display:inline;overflow:visible"
     id="path3986"
     sodipodi:cx="-57.308598"
     sodipodi:cy="359.19266"
     sodipodi:rx="21.336432"
     sodipodi:ry="21.336432"
     d="M -35.972166,359.19266 A 21.336432,21.336432 0 1 1 -78.645029,359.19266"
     sodipodi:start="0"
     sodipodi:end="3.1415927"
     sodipodi:open="true"
     transform="matrix(0.143149,5.018436e-4,-1.33132e-2,-0.106032,37.1138,50.92258)" />
  <path
     style="color:#000000;fill:url(#linearGradient7830);fill-opacity:1;fill-rule:nonzero;stroke:none;stroke-width:10.19999695;stroke-linecap:butt;stroke-linejoin:miter;marker:none;marker-start:none;marker-mid:none;marker-end:none;stroke-miterlimit:4;stroke-dashoffset:0;stroke-opacity:1;visibility:visible;display:inline;overflow:visible"
     d="M 17.597486,17.428617 C 18.698483,16.253134 29.783983,15.365692 31.664515,16.560962 C 31.301453,13.748435 27.861243,11.618802 23.985475,11.807313 C 20.109707,11.995826 17.258816,14.431451 17.621881,17.243976 C 17.621881,17.243976 17.597486,17.428617 17.597486,17.428617 z "
     id="path3984"
     sodipodi:nodetypes="ccscc" />
  <path
     sodipodi:type="arc"
     style="fill:#373737;fill-opacity:1;fill-rule:nonzero;stroke:none;stroke-width:10.19999981;stroke-linecap:butt;stroke-linejoin:miter;stroke-miterlimit:4;stroke-dasharray:none;stroke-opacity:1"
     id="path3998"
     sodipodi:cx="-318.6799"
     sodipodi:cy="327.45251"
     sodipodi:rx="1.1020885"
     sodipodi:ry="3.0858476"
     d="M -317.57781 327.45251 A 1.1020885 3.0858476 0 1 1  -319.78199,327.45251 A 1.1020885 3.0858476 0 1 1  -317.57781 327.45251 z"
     transform="matrix(0.486745,-9.724767e-3,3.361643e-2,0.288095,154.4777,-95.30106)" />
  <path
     sodipodi:type="arc"
     style="color:#000000;fill:#6c6c6c;fill-opacity:1;fill-rule:nonzero;stroke:none;stroke-width:10.19999695;stroke-linecap:butt;stroke-linejoin:miter;marker:none;marker-start:none;marker-mid:none;marker-end:none;stroke-miterlimit:4;stroke-dasharray:none;stroke-dashoffset:0;stroke-opacity:1;visibility:visible;display:inline;overflow:visible"
     id="path4018"
     sodipodi:cx="-8.552206"
     sodipodi:cy="344.99774"
     sodipodi:rx="23.716942"
     sodipodi:ry="4.8491888"
     d="M 15.164736 344.99774 A 23.716942 4.8491888 0 1 1  -32.269148,344.99774 A 23.716942 4.8491888 0 1 1  15.164736 344.99774 z"
     transform="matrix(0.2432,-1.274474e-2,1.126095e-2,0.214636,24.79678,-41.81542)" />
  <path
     style="color:#000000;fill:url(#linearGradient7825);fill-opacity:1;fill-rule:nonzero;stroke:none;stroke-width:10.19999695;stroke-linecap:butt;stroke-linejoin:miter;marker:none;marker-start:none;marker-mid:none;marker-end:none;stroke-miterlimit:4;stroke-dashoffset:0;stroke-opacity:1;visibility:visible;display:inline;overflow:visible"
     d="M 25.3262,32.492305 C 25.293248,31.881221 27.818212,31.687747 27.958443,32.31462 L 29.476822,44.535462 C 29.43386,47.729382 27.824621,47.83613 26.819312,44.562961 L 25.3262,32.492305 z "
     id="path4024"
     sodipodi:nodetypes="ccccc" />
  <g
     transform="matrix(0.311749,-1.670059e-2,-3.602428e-2,-0.226309,-67.66366,59.10478)"
     id="g6807">
    <path
       style="color:#000000;fill:#caba4d;fill-opacity:1;fill-rule:nonzero;stroke:none;stroke-width:10.19999695;stroke-linecap:butt;stroke-linejoin:miter;marker:none;marker-start:none;marker-mid:none;marker-end:none;stroke-miterlimit:4;stroke-dashoffset:0;stroke-opacity:1;visibility:visible;display:inline;overflow:visible"
       d="M 292.86546,149.35697 L 294.20477,156.01322 C 294.20477,156.01322 298.79396,154.01462 298.86,153.98197 C 300.00613,153.41533 299.08073,149.42226 298.00489,149.22921 L 292.86546,149.35697 z "
       id="path6809"
       sodipodi:nodetypes="ccscc" />
    <path
       sodipodi:type="arc"
       style="opacity:1;fill:#7a6a00;fill-opacity:1;fill-rule:nonzero;stroke:none;stroke-width:10.19999981;stroke-linecap:butt;stroke-linejoin:miter;stroke-miterlimit:4;stroke-dasharray:none;stroke-opacity:1"
       id="path6811"
       sodipodi:cx="-318.6799"
       sodipodi:cy="327.45251"
       sodipodi:rx="1.1020885"
       sodipodi:ry="3.0858476"
       d="M -317.57781 327.45251 A 1.1020885 3.0858476 0 1 1  -319.78199,327.45251 A 1.1020885 3.0858476 0 1 1  -317.57781 327.45251 z"
       transform="matrix(1.33534,-0.160421,0.198332,1.080092,654.1324,-252.1153)" />
  </g>
  <g
     id="g6701"
     transform="matrix(0.310454,1.670059e-2,-5.355897e-2,0.226309,-64.46908,-18.09669)">
    <path
       sodipodi:nodetypes="ccscc"
       id="path6703"
       d="M 292.86546,149.35697 L 294.20477,156.01322 C 294.20477,156.01322 298.79396,154.01462 298.86,153.98197 C 300.00613,153.41533 299.08073,149.42226 298.00489,149.22921 L 292.86546,149.35697 z "
       style="color:#000000;fill:#caba4d;fill-opacity:1;fill-rule:nonzero;stroke:none;stroke-width:10.19999695;stroke-linecap:butt;stroke-linejoin:miter;marker:none;marker-start:none;marker-mid:none;marker-end:none;stroke-miterlimit:4;stroke-dashoffset:0;stroke-opacity:1;visibility:visible;display:inline;overflow:visible" />
    <path
       transform="matrix(1.33534,-0.160421,0.198332,1.080092,654.1324,-252.1153)"
       d="M -317.57781 327.45251 A 1.1020885 3.0858476 0 1 1  -319.78199,327.45251 A 1.1020885 3.0858476 0 1 1  -317.57781 327.45251 z"
       sodipodi:ry="3.0858476"
       sodipodi:rx="1.1020885"
       sodipodi:cy="327.45251"
       sodipodi:cx="-318.6799"
       id="path6705"
       style="opacity:1;fill:#7a6a00;fill-opacity:1;fill-rule:nonzero;stroke:none;stroke-width:10.19999981;stroke-linecap:butt;stroke-linejoin:miter;stroke-miterlimit:4;stroke-dasharray:none;stroke-opacity:1"
       sodipodi:type="arc" />
  </g>
  <rect
     style="color:#000000;fill:#b8a83c;fill-opacity:1;fill-rule:nonzero;stroke:none;stroke-width:10.19999695;stroke-linecap:butt;stroke-linejoin:miter;marker:none;marker-start:none;marker-mid:none;marker-end:none;stroke-miterlimit:4;stroke-dasharray:none;stroke-dashoffset:0;stroke-opacity:1;visibility:visible;display:inline;overflow:visible"
     id="rect6709"
     width="3.1655436"
     height="4.4805355"
     x="21.709963"
     y="25.629135"
     transform="matrix(0.99998,-6.395129e-3,0.1429,0.989737,0,0)" />
  <rect
     style="color:#000000;fill:url(#linearGradient7814);fill-opacity:1.0;fill-rule:nonzero;stroke:none;stroke-width:10.19999695;stroke-linecap:butt;stroke-linejoin:miter;marker:none;marker-start:none;marker-mid:none;marker-end:none;stroke-miterlimit:4;stroke-dasharray:none;stroke-dashoffset:0;stroke-opacity:1;visibility:visible;display:inline;overflow:visible"
     id="rect6707"
     width="2.14657"
     height="3.0382724"
     x="22.219442"
     y="26.350269"
     transform="matrix(0.99998,-6.395129e-3,0.1429,0.989737,0,0)" />
  <path
     style="color:#000000;fill:url(#radialGradient3123);fill-opacity:1.0;fill-rule:nonzero;stroke:none;stroke-width:10.19999695;stroke-linecap:butt;stroke-linejoin:miter;marker:none;marker-start:none;marker-mid:none;marker-end:none;stroke-miterlimit:4;stroke-dashoffset:0;stroke-opacity:1;visibility:visible;display:inline;overflow:visible;opacity:0.25095057"
     d="M 17.597486,17.428617 C 18.698483,16.253134 29.783983,15.365692 31.664515,16.560962 C 31.301453,13.748435 27.861243,11.618802 23.985475,11.807313 C 20.109707,11.995826 17.258816,14.431451 17.621881,17.243976 C 17.621881,17.243976 17.597486,17.428617 17.597486,17.428617 z "
     id="path2248"
     sodipodi:nodetypes="ccscc" />
</svg>
