<?xml version="1.0" encoding="UTF-8" standalone="no"?>
<!-- Created with Inkscape (http://www.inkscape.org/) -->
<svg
   xmlns:dc="http://purl.org/dc/elements/1.1/"
   xmlns:cc="http://creativecommons.org/ns#"
   xmlns:rdf="http://www.w3.org/1999/02/22-rdf-syntax-ns#"
   xmlns:svg="http://www.w3.org/2000/svg"
   xmlns="http://www.w3.org/2000/svg"
   xmlns:xlink="http://www.w3.org/1999/xlink"
   xmlns:sodipodi="http://sodipodi.sourceforge.net/DTD/sodipodi-0.dtd"
   xmlns:inkscape="http://www.inkscape.org/namespaces/inkscape"
   width="48"
   height="48"
   id="svg2"
   sodipodi:version="0.32"
   inkscape:version="0.46"
   version="1.0"
   sodipodi:docbase="/home/yekcim/Desktop"
   sodipodi:docname="anvil.svg"
   inkscape:export-filename="/home/yekcim/Bureau/anvil_ico.png"
   inkscape:export-xdpi="90"
   inkscape:export-ydpi="90"
   inkscape:output_extension="org.inkscape.output.svg.inkscape">
  <defs
     id="defs4">
    <inkscape:perspective
       sodipodi:type="inkscape:persp3d"
       inkscape:vp_x="0 : 24 : 1"
       inkscape:vp_y="0 : 1000 : 0"
       inkscape:vp_z="48 : 24 : 1"
       inkscape:persp3d-origin="24 : 16 : 1"
       id="perspective41" />
    <linearGradient
       id="linearGradient6477">
      <stop
         style="stop-color:#828282;stop-opacity:1;"
         offset="0"
         id="stop6479" />
      <stop
         style="stop-color:#050505;stop-opacity:1;"
         offset="1"
         id="stop6481" />
    </linearGradient>
    <linearGradient
       id="linearGradient5547">
      <stop
         style="stop-color:black;stop-opacity:1;"
         offset="0"
         id="stop5549" />
      <stop
         style="stop-color:#d3d3d3;stop-opacity:0;"
         offset="1"
         id="stop5551" />
    </linearGradient>
    <linearGradient
       id="linearGradient5529">
      <stop
         style="stop-color:#010101;stop-opacity:1;"
         offset="0"
         id="stop5531" />
      <stop
         style="stop-color:#363636;stop-opacity:1;"
         offset="1"
         id="stop5533" />
    </linearGradient>
    <linearGradient
       inkscape:collect="always"
       xlink:href="#linearGradient5529"
       id="linearGradient5535"
       x1="53.616436"
       y1="25.140825"
       x2="55.366436"
       y2="3.6736279"
       gradientUnits="userSpaceOnUse" />
    <linearGradient
       inkscape:collect="always"
       xlink:href="#linearGradient5529"
       id="linearGradient5543"
       x1="52.586926"
       y1="42.964138"
       x2="52.586926"
       y2="23.705156"
       gradientUnits="userSpaceOnUse" />
    <linearGradient
       inkscape:collect="always"
       xlink:href="#linearGradient5547"
       id="linearGradient5553"
       x1="86.267029"
       y1="6.7382398"
       x2="86.870583"
       y2="12.480448"
       gradientUnits="userSpaceOnUse" />
    <linearGradient
       inkscape:collect="always"
       xlink:href="#linearGradient5547"
       id="linearGradient6450"
       x1="279.95456"
       y1="494.67978"
       x2="278.95599"
       y2="504.06168"
       gradientUnits="userSpaceOnUse" />
    <linearGradient
       inkscape:collect="always"
       xlink:href="#linearGradient5547"
       id="linearGradient6460"
       x1="52.620438"
       y1="6.4023228"
       x2="54.429306"
       y2="33.652321"
       gradientUnits="userSpaceOnUse" />
    <linearGradient
       inkscape:collect="always"
       xlink:href="#linearGradient6477"
       id="linearGradient6483"
       x1="51.370438"
       y1="31.824347"
       x2="56.679306"
       y2="-9.4256535"
       gradientUnits="userSpaceOnUse" />
    <linearGradient
       inkscape:collect="always"
       xlink:href="#linearGradient6477"
       id="linearGradient2778"
       gradientUnits="userSpaceOnUse"
       x1="49.870438"
       y1="50.574348"
       x2="54.557987"
       y2="-1.6474788" />
    <linearGradient
       inkscape:collect="always"
       xlink:href="#linearGradient6477"
       id="linearGradient2782"
       gradientUnits="userSpaceOnUse"
       x1="268.62045"
       y1="528.57434"
       x2="275.17932"
       y2="478.82434" />
    <linearGradient
       inkscape:collect="always"
       xlink:href="#linearGradient5529"
       id="linearGradient2795"
       gradientUnits="userSpaceOnUse"
       x1="52.586926"
       y1="42.964138"
       x2="52.586926"
       y2="30.652021"
       gradientTransform="matrix(0.985196,0,0,0.984851,261.0796,488.7372)" />
    <linearGradient
       inkscape:collect="always"
       xlink:href="#linearGradient6477"
       id="linearGradient2797"
       gradientUnits="userSpaceOnUse"
       x1="51.370438"
       y1="31.824347"
       x2="56.679306"
       y2="-9.4256535"
       gradientTransform="matrix(0.985196,0,0,0.984851,261.0796,488.7372)" />
    <linearGradient
       inkscape:collect="always"
       xlink:href="#linearGradient5529"
       id="linearGradient2799"
       gradientUnits="userSpaceOnUse"
       x1="55.207428"
       y1="15.037271"
       x2="57.841309"
       y2="-3.39744"
       gradientTransform="matrix(0.985196,0,0,0.984851,261.0796,488.7372)" />
    <linearGradient
       inkscape:collect="always"
       xlink:href="#linearGradient6477"
       id="linearGradient2801"
       gradientUnits="userSpaceOnUse"
       x1="268.62045"
       y1="528.57434"
       x2="275.17932"
       y2="478.82434"
       gradientTransform="matrix(0.985196,0,0,0.984851,4.647072,7.772929)" />
    <linearGradient
       inkscape:collect="always"
       xlink:href="#linearGradient6477"
       id="linearGradient2803"
       gradientUnits="userSpaceOnUse"
       x1="51.284653"
       y1="44.740719"
       x2="52.589848"
       y2="9.4014606"
       gradientTransform="matrix(0.985196,0,0,0.984851,261.0796,488.7372)" />
    <linearGradient
       gradientTransform="matrix(0.985196,0,0,0.984851,261.0796,488.7372)"
       y2="9.4014606"
       x2="52.589848"
       y1="44.740719"
       x1="51.284653"
       gradientUnits="userSpaceOnUse"
       id="linearGradient2516"
       xlink:href="#linearGradient6477"
       inkscape:collect="always" />
    <linearGradient
       gradientTransform="matrix(0.985196,0,0,0.984851,4.647072,7.772929)"
       y2="478.82434"
       x2="275.17932"
       y1="528.57434"
       x1="268.62045"
       gradientUnits="userSpaceOnUse"
       id="linearGradient2514"
       xlink:href="#linearGradient6477"
       inkscape:collect="always" />
    <linearGradient
       gradientTransform="matrix(0.985196,0,0,0.984851,261.0796,488.7372)"
       y2="-3.39744"
       x2="57.841309"
       y1="15.037271"
       x1="55.207428"
       gradientUnits="userSpaceOnUse"
       id="linearGradient2512"
       xlink:href="#linearGradient5529"
       inkscape:collect="always" />
    <linearGradient
       gradientTransform="matrix(0.985196,0,0,0.984851,261.0796,488.7372)"
       y2="-9.4256535"
       x2="56.679306"
       y1="31.824347"
       x1="51.370438"
       gradientUnits="userSpaceOnUse"
       id="linearGradient2510"
       xlink:href="#linearGradient6477"
       inkscape:collect="always" />
    <linearGradient
       gradientTransform="matrix(0.985196,0,0,0.984851,261.0796,488.7372)"
       y2="30.652021"
       x2="52.586926"
       y1="42.964138"
       x1="52.586926"
       gradientUnits="userSpaceOnUse"
       id="linearGradient2508"
       xlink:href="#linearGradient5529"
       inkscape:collect="always" />
    <linearGradient
       y2="478.82434"
       x2="275.17932"
       y1="528.57434"
       x1="268.62045"
       gradientUnits="userSpaceOnUse"
       id="linearGradient2506"
       xlink:href="#linearGradient6477"
       inkscape:collect="always" />
    <linearGradient
       y2="-1.6474788"
       x2="54.557987"
       y1="50.574348"
       x1="49.870438"
       gradientUnits="userSpaceOnUse"
       id="linearGradient2504"
       xlink:href="#linearGradient6477"
       inkscape:collect="always" />
    <linearGradient
       gradientUnits="userSpaceOnUse"
       y2="-9.4256535"
       x2="56.679306"
       y1="31.824347"
       x1="51.370438"
       id="linearGradient2502"
       xlink:href="#linearGradient6477"
       inkscape:collect="always" />
    <linearGradient
       gradientUnits="userSpaceOnUse"
       y2="33.652321"
       x2="54.429306"
       y1="6.4023228"
       x1="52.620438"
       id="linearGradient2500"
       xlink:href="#linearGradient5547"
       inkscape:collect="always" />
    <linearGradient
       gradientUnits="userSpaceOnUse"
       y2="504.06168"
       x2="278.95599"
       y1="494.67978"
       x1="279.95456"
       id="linearGradient2498"
       xlink:href="#linearGradient5547"
       inkscape:collect="always" />
    <linearGradient
       gradientUnits="userSpaceOnUse"
       y2="12.480448"
       x2="86.870583"
       y1="6.7382398"
       x1="86.267029"
       id="linearGradient2496"
       xlink:href="#linearGradient5547"
       inkscape:collect="always" />
    <linearGradient
       gradientUnits="userSpaceOnUse"
       y2="23.705156"
       x2="52.586926"
       y1="42.964138"
       x1="52.586926"
       id="linearGradient2494"
       xlink:href="#linearGradient5529"
       inkscape:collect="always" />
    <linearGradient
       gradientUnits="userSpaceOnUse"
       y2="3.6736279"
       x2="55.366436"
       y1="25.140825"
       x1="53.616436"
       id="linearGradient2492"
       xlink:href="#linearGradient5529"
       inkscape:collect="always" />
    <linearGradient
       id="linearGradient2486">
      <stop
         id="stop2488"
         offset="0"
         style="stop-color:#010101;stop-opacity:1;" />
      <stop
         id="stop2490"
         offset="1"
         style="stop-color:#363636;stop-opacity:1;" />
    </linearGradient>
    <linearGradient
       id="linearGradient2480">
      <stop
         id="stop2482"
         offset="0"
         style="stop-color:black;stop-opacity:1;" />
      <stop
         id="stop2484"
         offset="1"
         style="stop-color:#d3d3d3;stop-opacity:0;" />
    </linearGradient>
    <linearGradient
       id="linearGradient2474">
      <stop
         id="stop2476"
         offset="0"
         style="stop-color:#828282;stop-opacity:1;" />
      <stop
         id="stop2478"
         offset="1"
         style="stop-color:#050505;stop-opacity:1;" />
    </linearGradient>
    <inkscape:perspective
       inkscape:persp3d-origin="300 : 400 : 1"
       inkscape:vp_z="700 : 600 : 1"
       inkscape:vp_y="0 : 1000 : 0"
       inkscape:vp_x="-50 : 600 : 1"
       id="perspective2472"
       sodipodi:type="inkscape:persp3d" />
    <inkscape:perspective
       inkscape:persp3d-origin="300 : 400 : 1"
       inkscape:vp_z="700 : 600 : 1"
       inkscape:vp_y="0 : 1000 : 0"
       inkscape:vp_x="-50 : 600 : 1"
       id="perspective39"
       sodipodi:type="inkscape:persp3d" />
    <inkscape:perspective
       inkscape:persp3d-origin="300 : 400 : 1"
       inkscape:vp_z="700 : 600 : 1"
       inkscape:vp_y="0 : 1000 : 0"
       inkscape:vp_x="-50 : 600 : 1"
       id="perspective48"
       sodipodi:type="inkscape:persp3d" />
    <inkscape:perspective
       inkscape:persp3d-origin="300 : 400 : 1"
       inkscape:vp_z="700 : 600 : 1"
       inkscape:vp_y="0 : 1000 : 0"
       inkscape:vp_x="-50 : 600 : 1"
       id="perspective50"
       sodipodi:type="inkscape:persp3d" />
    <linearGradient
       inkscape:collect="always"
       xlink:href="#linearGradient5529"
       id="linearGradient2592"
       gradientUnits="userSpaceOnUse"
       gradientTransform="matrix(0.8348791,0,0,0.4680839,273.25627,475.79741)"
       x1="55.207428"
       y1="16.743629"
       x2="56.99435"
       y2="1.7499427" />
    <linearGradient
       inkscape:collect="always"
       xlink:href="#linearGradient6477"
       id="linearGradient2517"
       gradientUnits="userSpaceOnUse"
       gradientTransform="matrix(0.8348791,0,0,1.3136317,332.61149,482.43009)"
       x1="53.240986"
       y1="69.130089"
       x2="53.240986"
       y2="1.2833192" />
    <linearGradient
       inkscape:collect="always"
       xlink:href="#linearGradient6477"
       id="linearGradient2520"
       gradientUnits="userSpaceOnUse"
       gradientTransform="matrix(0.8348791,0,0,1.3136317,115.12815,-153.67515)"
       x1="261.70465"
       y1="534.66663"
       x2="276.30057"
       y2="476.45044" />
    <linearGradient
       inkscape:collect="always"
       xlink:href="#linearGradient5529"
       id="linearGradient2523"
       gradientUnits="userSpaceOnUse"
       gradientTransform="matrix(0.8348791,0,0,0.4680839,332.61149,493.28654)"
       x1="55.207428"
       y1="16.743629"
       x2="56.99435"
       y2="1.7499427" />
    <linearGradient
       inkscape:collect="always"
       xlink:href="#linearGradient6477"
       id="linearGradient2526"
       gradientUnits="userSpaceOnUse"
       gradientTransform="matrix(0.8348791,0,0,1.3136317,332.69957,487.55855)"
       x1="71.063805"
       y1="60.723186"
       x2="57.312332"
       y2="-10.861621" />
    <linearGradient
       inkscape:collect="always"
       xlink:href="#linearGradient6477"
       id="linearGradient2529"
       gradientUnits="userSpaceOnUse"
       gradientTransform="matrix(0.8348791,0,0,1.3136317,604.33284,1137.0025)"
       x1="-219.3421"
       y1="-465.98392"
       x2="-219.3421"
       y2="-436.95584" />
    <linearGradient
       inkscape:collect="always"
       xlink:href="#linearGradient6477"
       id="linearGradient2533"
       gradientUnits="userSpaceOnUse"
       gradientTransform="matrix(0.8348791,0,0,1.3136317,332.61149,482.43009)"
       x1="52.589848"
       y1="50.820656"
       x2="52.589848"
       y2="-10.88406" />
    <linearGradient
       inkscape:collect="always"
       xlink:href="#linearGradient6477"
       id="linearGradient2536"
       gradientUnits="userSpaceOnUse"
       gradientTransform="matrix(0.8348791,0,0,1.3136317,115.12815,-153.67515)"
       x1="268.62045"
       y1="528.57434"
       x2="275.17932"
       y2="478.82434" />
    <linearGradient
       inkscape:collect="always"
       xlink:href="#linearGradient5529"
       id="linearGradient2539"
       gradientUnits="userSpaceOnUse"
       gradientTransform="matrix(0.8348791,0,0,0.4680839,332.61149,493.28654)"
       x1="55.207428"
       y1="15.037271"
       x2="57.841309"
       y2="-3.39744" />
    <linearGradient
       inkscape:collect="always"
       xlink:href="#linearGradient6477"
       id="linearGradient2542"
       gradientUnits="userSpaceOnUse"
       gradientTransform="matrix(0.8348791,0,0,1.3136317,332.69957,487.55855)"
       x1="51.370438"
       y1="31.824347"
       x2="56.679306"
       y2="-9.4256535" />
    <linearGradient
       inkscape:collect="always"
       xlink:href="#linearGradient6477"
       id="linearGradient3408"
       gradientUnits="userSpaceOnUse"
       gradientTransform="matrix(0.8348791,0,0,1.3136317,332.69957,487.55855)"
       x1="51.370438"
       y1="31.824347"
       x2="56.679306"
       y2="-9.4256535" />
    <linearGradient
       inkscape:collect="always"
       xlink:href="#linearGradient5529"
       id="linearGradient3410"
       gradientUnits="userSpaceOnUse"
       gradientTransform="matrix(0.8348791,0,0,0.4680839,332.61149,493.28654)"
       x1="55.207428"
       y1="15.037271"
       x2="57.841309"
       y2="-3.39744" />
    <linearGradient
       inkscape:collect="always"
       xlink:href="#linearGradient6477"
       id="linearGradient3412"
       gradientUnits="userSpaceOnUse"
       gradientTransform="matrix(0.8348791,0,0,1.3136317,115.12815,-153.67515)"
       x1="268.62045"
       y1="528.57434"
       x2="275.17932"
       y2="478.82434" />
    <linearGradient
       inkscape:collect="always"
       xlink:href="#linearGradient6477"
       id="linearGradient3414"
       gradientUnits="userSpaceOnUse"
       gradientTransform="matrix(0.8348791,0,0,1.3136317,332.61149,482.43009)"
       x1="52.589848"
       y1="50.820656"
       x2="52.589848"
       y2="-10.88406" />
    <linearGradient
       inkscape:collect="always"
       xlink:href="#linearGradient6477"
       id="linearGradient3416"
       gradientUnits="userSpaceOnUse"
       gradientTransform="matrix(0.8348791,0,0,1.3136317,604.33284,1137.0025)"
       x1="-219.3421"
       y1="-465.98392"
       x2="-219.3421"
       y2="-436.95584" />
    <linearGradient
       inkscape:collect="always"
       xlink:href="#linearGradient6477"
       id="linearGradient3418"
       gradientUnits="userSpaceOnUse"
       gradientTransform="matrix(0.8348791,0,0,1.3136317,332.69957,487.55855)"
       x1="71.063805"
       y1="60.723186"
       x2="57.312332"
       y2="-10.861621" />
    <linearGradient
       inkscape:collect="always"
       xlink:href="#linearGradient5529"
       id="linearGradient3420"
       gradientUnits="userSpaceOnUse"
       gradientTransform="matrix(0.8348791,0,0,0.4680839,332.61149,493.28654)"
       x1="55.207428"
       y1="16.743629"
       x2="56.99435"
       y2="1.7499427" />
    <linearGradient
       inkscape:collect="always"
       xlink:href="#linearGradient6477"
       id="linearGradient3422"
       gradientUnits="userSpaceOnUse"
       gradientTransform="matrix(0.8348791,0,0,1.3136317,115.12815,-153.67515)"
       x1="261.70465"
       y1="534.66663"
       x2="276.30057"
       y2="476.45044" />
    <linearGradient
       inkscape:collect="always"
       xlink:href="#linearGradient6477"
       id="linearGradient3424"
       gradientUnits="userSpaceOnUse"
       gradientTransform="matrix(0.8348791,0,0,1.3136317,332.61149,482.43009)"
       x1="53.240986"
       y1="69.130089"
       x2="53.240986"
       y2="1.2833192" />
  </defs>
  <sodipodi:namedview
     id="base"
     pagecolor="#ffffff"
     bordercolor="#666666"
     borderopacity="1.0"
     inkscape:pageopacity="0.0"
     inkscape:pageshadow="2"
     inkscape:zoom="2"
     inkscape:cx="100.52946"
     inkscape:cy="-19.158423"
     inkscape:document-units="px"
     inkscape:current-layer="layer1"
     inkscape:window-width="1270"
     inkscape:window-height="945"
     inkscape:window-x="0"
     inkscape:window-y="25"
     width="48px"
     height="48px"
     showgrid="false" />
  <metadata
     id="metadata7">
    <rdf:RDF>
      <cc:Work
         rdf:about="">
        <dc:format>image/svg+xml</dc:format>
        <dc:type
           rdf:resource="http://purl.org/dc/dcmitype/StillImage" />
      </cc:Work>
    </rdf:RDF>
  </metadata>
  <g
     inkscape:label="Calque 1"
     inkscape:groupmode="layer"
     id="layer1"
     transform="translate(-260.5689,-488.7748)">
    <g
       id="g3356"
       inkscape:export-filename="/home/yekcim/Bureau/anvil.png"
       inkscape:export-xdpi="90"
       inkscape:export-ydpi="90">
      <g
         id="g3344">
        <path
           style="fill:url(#linearGradient2542);fill-opacity:1;fill-rule:evenodd;stroke:none;stroke-width:1px;stroke-linecap:butt;stroke-linejoin:miter;marker:none;marker-start:none;marker-mid:none;marker-end:none;stroke-miterlimit:4;stroke-dasharray:none;stroke-dashoffset:0;stroke-opacity:1;visibility:visible;display:inline;overflow:visible"
           d="M 394.37366,520.45161 L 421.04354,496.41006 L 393.26242,496.84717 L 394.37366,520.45161 z"
           id="path2530" />
        <path
           style="fill:url(#linearGradient2539);fill-opacity:1;fill-rule:evenodd;stroke:none;stroke-width:1.00000036px;stroke-linecap:butt;stroke-linejoin:miter;stroke-opacity:1"
           d="M 398.28452,494.10566 L 355.93591,494.10566 L 355.56171,494.75474 C 350.84349,494.78577 344.30201,495.30096 335.69009,495.68545 C 325.42614,496.14369 357.5535,500.70272 357.5535,500.70272 C 358.47747,500.21284 396.08114,501.51517 397.43428,501.00187 L 399.25343,498.31383 C 400.23014,495.98746 413.60621,497.21349 421.0826,496.44608 C 413.15068,495.62875 404.12615,496.87625 398.28452,494.10566 z"
           id="path2532"
           sodipodi:nodetypes="cccsscccc" />
        <path
           style="fill:url(#linearGradient2536);fill-opacity:1;fill-rule:evenodd;stroke:none;stroke-width:1px;stroke-linecap:butt;stroke-linejoin:miter;marker:none;marker-start:none;marker-mid:none;marker-end:none;stroke-miterlimit:4;stroke-dasharray:none;stroke-dashoffset:0;stroke-opacity:1;visibility:visible;display:inline;overflow:visible"
           d="M 353.34545,516.20321 C 346.43365,511.50447 337.47984,503.85074 333.6199,496.15218 C 342.06683,498.43382 352.47646,498.29697 353.16918,498.28898 C 355.15468,505.6014 353.3022,510.2426 353.34545,516.20321 z"
           id="path2534"
           sodipodi:nodetypes="cccc" />
        <path
           style="fill:url(#linearGradient2533);fill-opacity:1;fill-rule:evenodd;stroke:none;stroke-width:1px;stroke-linecap:butt;stroke-linejoin:miter;stroke-opacity:1"
           d="M 353.11743,498.26338 C 354.44617,523.06984 349.64419,541.30703 332.91722,552.94267 L 421.20533,552.94267 C 402.77642,542.46576 398.34696,524.22294 399.27847,498.26338 L 353.11743,498.26338 z"
           id="path2536"
           sodipodi:nodetypes="ccccc" />
        <path
           style="fill:#000000;fill-opacity:1;fill-rule:evenodd;stroke:#282828;stroke-width:4;stroke-linecap:butt;stroke-linejoin:round;marker:none;marker-start:none;marker-mid:none;marker-end:none;stroke-miterlimit:4;stroke-dasharray:none;stroke-dashoffset:0;stroke-opacity:1;visibility:visible;display:inline;overflow:visible"
           d="M 355.93482,494.10959 L 355.56111,494.73482 C 350.84289,494.76586 344.30436,495.30903 335.69244,495.69352 C 334.40945,495.7508 333.77201,495.85846 333.6682,496.02698 C 333.64225,496.06911 333.66297,496.10426 333.69935,496.15202 C 333.66973,496.1441 333.63549,496.16001 333.60592,496.15202 C 337.37695,503.67325 346.01095,511.14582 352.85175,515.86782 C 352.24433,521.90988 351.02444,527.45808 349.08355,532.45743 C 345.8667,537.66147 342.04629,542.06165 337.84125,545.04553 L 332.92079,552.92351 L 421.2087,552.92351 L 413.82801,545.04553 C 411.21366,543.52058 408.81507,541.50353 406.66533,539.12662 C 402.68289,532.60793 400.54066,524.7822 399.65835,515.65941 L 420.9907,496.4438 C 421.00091,496.44483 421.01164,496.44276 421.02184,496.4438 L 421.05299,496.40212 L 420.58585,496.40212 C 416.76279,496.04991 412.72126,496.15796 408.90756,496.02698 C 407.9131,495.99282 406.93365,495.9368 405.9802,495.86025 C 403.11986,495.63059 400.47871,495.14855 398.2881,494.10959 L 355.93482,494.10959 z"
           id="path2416" />
        <path
           style="fill:url(#linearGradient2529);fill-opacity:1;fill-rule:evenodd;stroke:none;stroke-width:1px;stroke-linecap:butt;stroke-linejoin:miter;marker:none;marker-start:none;marker-mid:none;marker-end:none;stroke-miterlimit:4;stroke-dasharray:none;stroke-dashoffset:0;stroke-opacity:1;visibility:visible;display:inline;overflow:visible;enable-background:accumulate"
           d="M 337.82568,545.03427 L 332.92079,552.92351 L 421.2087,552.92351 L 413.82801,545.03427 C 400.22021,537.09687 392.70192,516.23943 393.39879,496.81894 L 358.55076,496.81894 C 359.5456,515.39181 350.21093,536.24577 337.82568,545.03427 z"
           id="path2404"
           sodipodi:nodetypes="ccccccc" />
        <path
           style="fill:url(#linearGradient2526);fill-opacity:1;fill-rule:evenodd;stroke:none;stroke-width:1px;stroke-linecap:butt;stroke-linejoin:miter;marker:none;marker-start:none;marker-mid:none;marker-end:none;stroke-miterlimit:4;stroke-dasharray:none;stroke-dashoffset:0;stroke-opacity:1;visibility:visible;display:inline;overflow:visible"
           d="M 394.37366,520.45161 L 421.04354,496.41006 L 393.26242,496.84717 L 394.37366,520.45161 z"
           id="path2406" />
        <path
           style="fill:url(#linearGradient2523);fill-opacity:1;fill-rule:evenodd;stroke:none;stroke-width:1.00000036px;stroke-linecap:butt;stroke-linejoin:miter;stroke-opacity:1"
           d="M 398.28452,494.10566 L 355.93591,494.10566 L 355.56171,494.75474 C 350.84349,494.78577 344.30201,495.30096 335.69009,495.68545 C 325.42614,496.14369 357.5535,500.70272 357.5535,500.70272 C 358.47747,500.21284 396.08114,501.51517 397.43428,501.00187 L 399.25343,498.31383 C 400.23014,495.98746 413.60621,497.21349 421.0826,496.44608 C 413.15068,495.62875 404.12615,496.87625 398.28452,494.10566 z"
           id="path2408"
           sodipodi:nodetypes="cccsscccc" />
        <path
           style="fill:url(#linearGradient2520);fill-opacity:1;fill-rule:evenodd;stroke:none;stroke-width:1px;stroke-linecap:butt;stroke-linejoin:miter;marker:none;marker-start:none;marker-mid:none;marker-end:none;stroke-miterlimit:4;stroke-dasharray:none;stroke-dashoffset:0;stroke-opacity:1;visibility:visible;display:inline;overflow:visible"
           d="M 353.34545,516.20321 C 346.43365,511.50447 337.47984,503.85074 333.6199,496.15218 C 342.06683,498.43382 352.47646,498.29697 353.16918,498.28898 C 355.15468,505.6014 353.3022,510.2426 353.34545,516.20321 z"
           id="path2410"
           sodipodi:nodetypes="cccc" />
        <path
           style="fill:url(#linearGradient2517);fill-opacity:1;fill-rule:evenodd;stroke:none;stroke-width:1px;stroke-linecap:butt;stroke-linejoin:miter;stroke-opacity:1"
           d="M 353.11743,498.26338 C 354.44617,523.06984 349.64419,541.30703 332.91722,552.94267 L 421.20533,552.94267 C 402.77642,542.46576 398.34696,524.22294 399.27847,498.26338 L 353.11743,498.26338 z"
           id="path2412"
           sodipodi:nodetypes="ccccc" />
      </g>
      <g
         transform="translate(0.1762524,0)"
         id="g3338">
        <text
           xml:space="preserve"
           style="font-size:21.19001961px;font-style:normal;font-variant:normal;font-weight:bold;font-stretch:normal;text-align:center;line-height:75%;writing-mode:lr-tb;text-anchor:middle;fill:#4f4f4f;fill-opacity:0.59813083;stroke:#282828;stroke-width:1px;stroke-linecap:butt;stroke-linejoin:miter;stroke-opacity:1;font-family:Arial Black;-inkscape-font-specification:Arial Black Bold"
           x="376.98679"
           y="523.61725"
           id="text2564"
           sodipodi:linespacing="75%"><tspan
             sodipodi:role="line"
             id="tspan2552"
             x="376.98679"
             y="523.61725">500</tspan><tspan
             sodipodi:role="line"
             x="376.98679"
             y="539.50977"
             id="tspan2554">kg</tspan></text>
        <path
           style="font-size:23.38863564px;font-style:normal;font-variant:normal;font-weight:bold;font-stretch:normal;text-align:center;line-height:75%;writing-mode:lr-tb;text-anchor:middle;fill:#ffffff;fill-opacity:0.57632398;stroke:none;stroke-width:1px;stroke-linecap:butt;stroke-linejoin:miter;stroke-opacity:1;font-family:Arial Black;-inkscape-font-specification:Arial Black Bold"
           d="M 367.3685,508.45181 L 367.3685,510.37705 L 360.60183,510.37705 L 360.23377,512.64204 C 360.66417,512.43951 361.08904,512.29867 361.50783,512.18905 L 361.56446,511.82098 L 368.33112,511.82098 L 368.33112,508.45181 L 367.3685,508.45181 z M 375.97546,509.55599 C 375.27878,509.556 374.7853,509.9214 374.4749,510.63186 C 374.1645,511.33544 373.99358,512.62829 373.99359,514.53897 C 373.99359,516.47037 374.16522,517.79224 374.50322,518.50271 C 374.70367,518.91163 374.96468,519.18083 375.26765,519.35208 C 375.06581,518.58866 374.95622,517.47542 374.95622,515.98291 C 374.95621,514.07222 375.12712,512.75106 375.43753,512.04748 C 375.74792,511.33702 376.2414,510.99993 376.93808,510.99993 C 377.23341,510.99993 377.50001,511.0678 377.73083,511.19811 C 377.66793,510.95633 377.58709,510.76908 377.50433,510.60355 C 377.16633,509.90689 376.65834,509.556 375.97546,509.55599 z M 390.13166,509.55599 C 389.43498,509.556 388.94149,509.9214 388.6311,510.63186 C 388.32069,511.33544 388.14978,512.62829 388.14979,514.53897 C 388.14978,516.47037 388.32141,517.79224 388.65941,518.50271 C 388.86142,518.9148 389.11772,519.18135 389.42385,519.35208 C 389.22201,518.58866 389.11241,517.47542 389.11241,515.98291 C 389.1124,514.07222 389.255,512.75106 389.56541,512.04748 C 389.8758,511.33702 390.3976,510.99993 391.09428,510.99993 C 391.39669,510.99993 391.65224,511.06148 391.88702,511.19811 C 391.82412,510.95633 391.74329,510.76908 391.66052,510.60355 C 391.32252,509.90689 390.81453,509.556 390.13166,509.55599 z M 381.38313,509.78249 C 381.53782,510.13138 381.67503,510.5155 381.7795,510.9433 C 382.06229,512.07455 382.20418,513.25455 382.20419,514.48235 C 382.20417,517.23458 381.74807,519.2368 380.81688,520.51289 C 379.88566,521.78897 378.28004,522.43813 376.00377,522.43813 C 374.72768,522.43813 373.70406,522.22223 372.91772,521.81526 C 372.41128,521.55315 371.97618,521.21547 371.58704,520.79601 C 371.69646,521.0444 371.79755,521.27798 371.92679,521.47551 C 372.43032,522.26186 373.09399,522.85222 373.88034,523.25919 C 374.66669,523.66616 375.6903,523.88206 376.96639,523.88206 C 379.24266,523.88206 380.84828,523.23291 381.7795,521.95682 C 382.71069,520.68073 383.16679,518.67851 383.16681,515.92628 C 383.1668,514.69848 383.02491,513.51848 382.74212,512.38723 C 382.59725,511.79403 382.41729,511.27152 382.17587,510.83005 C 381.98326,510.46184 381.69669,510.11816 381.38313,509.78249 z M 395.53932,509.78249 C 395.69401,510.13138 395.83122,510.5155 395.93569,510.9433 C 396.21848,512.07455 396.36037,513.25455 396.36038,514.48235 C 396.36037,517.23458 395.90427,519.2368 394.97307,520.51289 C 394.04185,521.78897 392.43623,522.43813 390.15997,522.43813 C 388.88386,522.43813 387.86026,522.22223 387.07392,521.81526 C 386.56748,521.55315 386.13237,521.21547 385.74324,520.79601 C 385.85265,521.0444 385.95373,521.27798 386.08298,521.47551 C 386.58652,522.26186 387.25019,522.85222 388.03654,523.25919 C 388.82288,523.66616 389.84648,523.88206 391.12259,523.88206 C 393.39885,523.88206 395.00448,523.23291 395.93569,521.95682 C 396.86689,520.68073 397.32299,518.67851 397.323,515.92628 C 397.32299,514.69848 397.1811,513.51848 396.89832,512.38723 C 396.75345,511.79403 396.57348,511.27152 396.33207,510.83005 C 396.13945,510.46184 395.85289,510.11816 395.53932,509.78249 z M 361.73433,514.5956 C 361.32736,514.59561 360.92459,514.6787 360.54521,514.87872 C 360.26239,515.02358 359.9772,515.2921 359.63921,515.67147 L 357.20435,515.33172 L 357.00616,516.60578 L 360.57352,517.1154 C 360.91151,516.73603 361.22501,516.46751 361.50783,516.32265 C 361.88721,516.12263 362.28998,516.03954 362.69695,516.03953 C 363.11076,516.03953 363.46521,516.11925 363.77282,516.29434 C 363.6817,515.84919 363.5305,515.4788 363.29151,515.21847 C 362.90523,514.79771 362.37582,514.59561 361.73433,514.5956 z M 367.73656,514.90703 C 367.9728,515.48473 368.10461,516.1356 368.10462,516.83228 C 368.1046,517.81177 367.85822,518.75991 367.3685,519.66352 C 366.88564,520.56713 366.19839,521.25437 365.30169,521.73032 C 364.41187,522.20627 363.26924,522.43813 361.87589,522.43813 C 360.87571,522.43813 360.01683,522.34124 359.29946,522.15501 C 358.58899,521.96187 357.99101,521.67812 357.48747,521.30563 C 357.26113,521.13273 357.05226,520.96066 356.8646,520.7677 C 356.97928,521.01675 357.09872,521.27013 357.23266,521.47551 C 357.54306,521.95146 357.92514,522.37019 358.42178,522.74957 C 358.92532,523.12205 359.55161,523.4058 360.26209,523.59894 C 360.97945,523.78517 361.83833,523.88206 362.83851,523.88206 C 362.9482,523.88206 363.04339,523.8567 363.14995,523.85375 L 363.14995,522.89113 L 366.71731,522.89113 C 367.39049,522.4379 367.93559,521.8193 368.33112,521.07914 C 368.82084,520.17553 369.06722,519.2557 369.06724,518.27621 C 369.06723,516.93391 368.61357,515.80763 367.73656,514.90703 z M 360.71508,519.21052 L 360.40365,519.23883 C 360.43347,519.27113 360.45683,519.32206 360.48858,519.35208 C 360.59291,519.44882 360.68474,519.53675 360.80002,519.60689 C 360.76723,519.48057 360.73628,519.35045 360.71508,519.21052 z M 367.45343,524.33506 L 367.45343,530.73366 L 368.41605,529.60116 L 368.41605,524.33506 L 367.45343,524.33506 z M 374.30503,528.52529 L 371.84185,530.93185 L 376.00377,538.06657 L 371.5021,538.06657 L 372.20991,539.5105 L 376.96639,539.5105 L 372.80447,532.37578 L 376.7399,528.52529 L 374.30503,528.52529 z M 388.88591,528.52529 L 388.88591,537.47201 L 388.88591,537.95332 C 388.8859,538.6431 388.75782,539.28607 388.46122,539.90687 C 388.1715,540.53458 387.76183,541.04946 387.2721,541.43574 C 386.78925,541.82201 386.18365,542.08435 385.4318,542.2568 C 384.68683,542.42924 383.82105,542.53993 382.85537,542.53993 C 380.64807,542.53992 379.15313,542.18286 378.32539,541.52068 C 378.29299,541.49454 378.27157,541.46258 378.24045,541.43574 C 378.43189,542.0303 378.74295,542.54774 379.2597,542.96461 C 380.08743,543.6268 381.6107,543.95554 383.81799,543.95555 C 384.78368,543.95555 385.64946,543.87317 386.39442,543.70073 C 387.14627,543.52829 387.75187,543.26595 388.23473,542.87967 C 388.72445,542.49339 389.13412,541.97851 389.42385,541.35081 C 389.72044,540.73 389.84852,540.08703 389.84853,539.39725 L 389.84853,538.88763 L 389.84853,528.52529 L 388.88591,528.52529 z M 382.74212,529.88429 C 382.20409,529.8843 381.79226,530.08568 381.46806,530.47885 C 381.15076,530.86514 380.98674,531.50049 380.98675,532.40409 C 380.98674,533.19735 381.15838,533.8015 381.49638,534.18777 C 381.65096,534.36128 381.80669,534.48999 382.006,534.58414 C 381.96737,534.36247 381.94938,534.11622 381.94938,533.84802 C 381.94937,532.94442 382.11338,532.30907 382.43069,531.92278 C 382.75488,531.52961 383.16671,531.32823 383.70474,531.32822 C 384.02519,531.32823 384.3207,531.43133 384.58243,531.58303 C 384.49724,531.15299 384.37001,530.80725 384.12943,530.53547 C 383.75694,530.10782 383.28014,529.8843 382.74212,529.88429 z M 369.03893,533.64984 L 367.45343,535.20702 L 367.45343,538.06657 L 364.11257,538.06657 L 364.11257,539.5105 L 368.41605,539.5105 L 368.41605,536.65095 L 369.83167,535.26364 L 369.03893,533.64984 z M 384.63905,536.02808 C 384.22517,536.51782 383.80717,536.88322 383.39331,537.10395 C 382.7449,537.44883 382.05004,537.61357 381.29819,537.61357 C 380.10117,537.61357 379.09034,537.19113 378.26876,536.33951 C 378.39443,536.62488 378.52193,536.8888 378.69345,537.13226 C 379.20738,537.86196 379.83686,538.37476 380.53376,538.68944 L 381.18494,538.77438 C 381.20377,538.84341 381.2474,538.88299 381.26988,538.94425 C 381.5857,539.01601 381.91336,539.0575 382.26081,539.0575 C 383.01266,539.0575 383.70752,538.89276 384.35593,538.54788 C 384.43356,538.50648 384.50479,538.42888 384.58243,538.378 C 384.61151,538.17445 384.63905,537.94834 384.63905,537.69851 L 384.63905,536.02808 z"
           id="text2550" />
      </g>
    </g>
    <g
       id="g3374"
       transform="matrix(0.4392613,0.1219345,-0.1219345,0.4392613,182.94765,236.38557)">
      <g
         id="g3376">
        <path
           style="fill:url(#linearGradient3408);fill-opacity:1;fill-rule:evenodd;stroke:none;stroke-width:1px;stroke-linecap:butt;stroke-linejoin:miter;marker:none;marker-start:none;marker-mid:none;marker-end:none;stroke-miterlimit:4;stroke-dasharray:none;stroke-dashoffset:0;stroke-opacity:1;visibility:visible;display:inline;overflow:visible"
           d="M 394.37366,520.45161 L 421.04354,496.41006 L 393.26242,496.84717 L 394.37366,520.45161 z"
           id="path3378" />
        <path
           style="fill:url(#linearGradient3410);fill-opacity:1;fill-rule:evenodd;stroke:none;stroke-width:1.00000036px;stroke-linecap:butt;stroke-linejoin:miter;stroke-opacity:1"
           d="M 398.28452,494.10566 L 355.93591,494.10566 L 355.56171,494.75474 C 350.84349,494.78577 344.30201,495.30096 335.69009,495.68545 C 325.42614,496.14369 357.5535,500.70272 357.5535,500.70272 C 358.47747,500.21284 396.08114,501.51517 397.43428,501.00187 L 399.25343,498.31383 C 400.23014,495.98746 413.60621,497.21349 421.0826,496.44608 C 413.15068,495.62875 404.12615,496.87625 398.28452,494.10566 z"
           id="path3380"
           sodipodi:nodetypes="cccsscccc" />
        <path
           style="fill:url(#linearGradient3412);fill-opacity:1;fill-rule:evenodd;stroke:none;stroke-width:1px;stroke-linecap:butt;stroke-linejoin:miter;marker:none;marker-start:none;marker-mid:none;marker-end:none;stroke-miterlimit:4;stroke-dasharray:none;stroke-dashoffset:0;stroke-opacity:1;visibility:visible;display:inline;overflow:visible"
           d="M 353.34545,516.20321 C 346.43365,511.50447 337.47984,503.85074 333.6199,496.15218 C 342.06683,498.43382 352.47646,498.29697 353.16918,498.28898 C 355.15468,505.6014 353.3022,510.2426 353.34545,516.20321 z"
           id="path3382"
           sodipodi:nodetypes="cccc" />
        <path
           style="fill:url(#linearGradient3414);fill-opacity:1;fill-rule:evenodd;stroke:none;stroke-width:1px;stroke-linecap:butt;stroke-linejoin:miter;stroke-opacity:1"
           d="M 353.11743,498.26338 C 354.44617,523.06984 349.64419,541.30703 332.91722,552.94267 L 421.20533,552.94267 C 402.77642,542.46576 398.34696,524.22294 399.27847,498.26338 L 353.11743,498.26338 z"
           id="path3384"
           sodipodi:nodetypes="ccccc" />
        <path
           style="fill:#000000;fill-opacity:1;fill-rule:evenodd;stroke:#282828;stroke-width:4;stroke-linecap:butt;stroke-linejoin:round;marker:none;marker-start:none;marker-mid:none;marker-end:none;stroke-miterlimit:4;stroke-dasharray:none;stroke-dashoffset:0;stroke-opacity:1;visibility:visible;display:inline;overflow:visible"
           d="M 355.93482,494.10959 L 355.56111,494.73482 C 350.84289,494.76586 344.30436,495.30903 335.69244,495.69352 C 334.40945,495.7508 333.77201,495.85846 333.6682,496.02698 C 333.64225,496.06911 333.66297,496.10426 333.69935,496.15202 C 333.66973,496.1441 333.63549,496.16001 333.60592,496.15202 C 337.37695,503.67325 346.01095,511.14582 352.85175,515.86782 C 352.24433,521.90988 351.02444,527.45808 349.08355,532.45743 C 345.8667,537.66147 342.04629,542.06165 337.84125,545.04553 L 332.92079,552.92351 L 421.2087,552.92351 L 413.82801,545.04553 C 411.21366,543.52058 408.81507,541.50353 406.66533,539.12662 C 402.68289,532.60793 400.54066,524.7822 399.65835,515.65941 L 420.9907,496.4438 C 421.00091,496.44483 421.01164,496.44276 421.02184,496.4438 L 421.05299,496.40212 L 420.58585,496.40212 C 416.76279,496.04991 412.72126,496.15796 408.90756,496.02698 C 407.9131,495.99282 406.93365,495.9368 405.9802,495.86025 C 403.11986,495.63059 400.47871,495.14855 398.2881,494.10959 L 355.93482,494.10959 z"
           id="path3386" />
        <path
           style="fill:url(#linearGradient3416);fill-opacity:1;fill-rule:evenodd;stroke:none;stroke-width:1px;stroke-linecap:butt;stroke-linejoin:miter;marker:none;marker-start:none;marker-mid:none;marker-end:none;stroke-miterlimit:4;stroke-dasharray:none;stroke-dashoffset:0;stroke-opacity:1;visibility:visible;display:inline;overflow:visible;enable-background:accumulate"
           d="M 337.82568,545.03427 L 332.92079,552.92351 L 421.2087,552.92351 L 413.82801,545.03427 C 400.22021,537.09687 392.70192,516.23943 393.39879,496.81894 L 358.55076,496.81894 C 359.5456,515.39181 350.21093,536.24577 337.82568,545.03427 z"
           id="path3388"
           sodipodi:nodetypes="ccccccc" />
        <path
           style="fill:url(#linearGradient3418);fill-opacity:1;fill-rule:evenodd;stroke:none;stroke-width:1px;stroke-linecap:butt;stroke-linejoin:miter;marker:none;marker-start:none;marker-mid:none;marker-end:none;stroke-miterlimit:4;stroke-dasharray:none;stroke-dashoffset:0;stroke-opacity:1;visibility:visible;display:inline;overflow:visible"
           d="M 394.37366,520.45161 L 421.04354,496.41006 L 393.26242,496.84717 L 394.37366,520.45161 z"
           id="path3390" />
        <path
           style="fill:url(#linearGradient3420);fill-opacity:1;fill-rule:evenodd;stroke:none;stroke-width:1.00000036px;stroke-linecap:butt;stroke-linejoin:miter;stroke-opacity:1"
           d="M 398.28452,494.10566 L 355.93591,494.10566 L 355.56171,494.75474 C 350.84349,494.78577 344.30201,495.30096 335.69009,495.68545 C 325.42614,496.14369 357.5535,500.70272 357.5535,500.70272 C 358.47747,500.21284 396.08114,501.51517 397.43428,501.00187 L 399.25343,498.31383 C 400.23014,495.98746 413.60621,497.21349 421.0826,496.44608 C 413.15068,495.62875 404.12615,496.87625 398.28452,494.10566 z"
           id="path3392"
           sodipodi:nodetypes="cccsscccc" />
        <path
           style="fill:url(#linearGradient3422);fill-opacity:1;fill-rule:evenodd;stroke:none;stroke-width:1px;stroke-linecap:butt;stroke-linejoin:miter;marker:none;marker-start:none;marker-mid:none;marker-end:none;stroke-miterlimit:4;stroke-dasharray:none;stroke-dashoffset:0;stroke-opacity:1;visibility:visible;display:inline;overflow:visible"
           d="M 353.34545,516.20321 C 346.43365,511.50447 337.47984,503.85074 333.6199,496.15218 C 342.06683,498.43382 352.47646,498.29697 353.16918,498.28898 C 355.15468,505.6014 353.3022,510.2426 353.34545,516.20321 z"
           id="path3394"
           sodipodi:nodetypes="cccc" />
        <path
           style="fill:url(#linearGradient3424);fill-opacity:1;fill-rule:evenodd;stroke:none;stroke-width:1px;stroke-linecap:butt;stroke-linejoin:miter;stroke-opacity:1"
           d="M 353.11743,498.26338 C 354.44617,523.06984 349.64419,541.30703 332.91722,552.94267 L 421.20533,552.94267 C 402.77642,542.46576 398.34696,524.22294 399.27847,498.26338 L 353.11743,498.26338 z"
           id="path3396"
           sodipodi:nodetypes="ccccc" />
      </g>
      <g
         transform="translate(0.1762524,0)"
         id="g3398">
        <text
           xml:space="preserve"
           style="font-size:21.19001961px;font-style:normal;font-variant:normal;font-weight:bold;font-stretch:normal;text-align:center;line-height:75%;writing-mode:lr-tb;text-anchor:middle;fill:#4f4f4f;fill-opacity:0.59813083;stroke:#282828;stroke-width:1px;stroke-linecap:butt;stroke-linejoin:miter;stroke-opacity:1;font-family:Arial Black;-inkscape-font-specification:Arial Black Bold"
           x="376.98679"
           y="523.61725"
           id="text3400"
           sodipodi:linespacing="75%"><tspan
             sodipodi:role="line"
             id="tspan3402"
             x="376.98679"
             y="523.61725">500</tspan><tspan
             sodipodi:role="line"
             x="376.98679"
             y="539.50977"
             id="tspan3404">kg</tspan></text>
        <path
           style="font-size:23.38863564px;font-style:normal;font-variant:normal;font-weight:bold;font-stretch:normal;text-align:center;line-height:75%;writing-mode:lr-tb;text-anchor:middle;fill:#ffffff;fill-opacity:0.57632398;stroke:none;stroke-width:1px;stroke-linecap:butt;stroke-linejoin:miter;stroke-opacity:1;font-family:Arial Black;-inkscape-font-specification:Arial Black Bold"
           d="M 367.3685,508.45181 L 367.3685,510.37705 L 360.60183,510.37705 L 360.23377,512.64204 C 360.66417,512.43951 361.08904,512.29867 361.50783,512.18905 L 361.56446,511.82098 L 368.33112,511.82098 L 368.33112,508.45181 L 367.3685,508.45181 z M 375.97546,509.55599 C 375.27878,509.556 374.7853,509.9214 374.4749,510.63186 C 374.1645,511.33544 373.99358,512.62829 373.99359,514.53897 C 373.99359,516.47037 374.16522,517.79224 374.50322,518.50271 C 374.70367,518.91163 374.96468,519.18083 375.26765,519.35208 C 375.06581,518.58866 374.95622,517.47542 374.95622,515.98291 C 374.95621,514.07222 375.12712,512.75106 375.43753,512.04748 C 375.74792,511.33702 376.2414,510.99993 376.93808,510.99993 C 377.23341,510.99993 377.50001,511.0678 377.73083,511.19811 C 377.66793,510.95633 377.58709,510.76908 377.50433,510.60355 C 377.16633,509.90689 376.65834,509.556 375.97546,509.55599 z M 390.13166,509.55599 C 389.43498,509.556 388.94149,509.9214 388.6311,510.63186 C 388.32069,511.33544 388.14978,512.62829 388.14979,514.53897 C 388.14978,516.47037 388.32141,517.79224 388.65941,518.50271 C 388.86142,518.9148 389.11772,519.18135 389.42385,519.35208 C 389.22201,518.58866 389.11241,517.47542 389.11241,515.98291 C 389.1124,514.07222 389.255,512.75106 389.56541,512.04748 C 389.8758,511.33702 390.3976,510.99993 391.09428,510.99993 C 391.39669,510.99993 391.65224,511.06148 391.88702,511.19811 C 391.82412,510.95633 391.74329,510.76908 391.66052,510.60355 C 391.32252,509.90689 390.81453,509.556 390.13166,509.55599 z M 381.38313,509.78249 C 381.53782,510.13138 381.67503,510.5155 381.7795,510.9433 C 382.06229,512.07455 382.20418,513.25455 382.20419,514.48235 C 382.20417,517.23458 381.74807,519.2368 380.81688,520.51289 C 379.88566,521.78897 378.28004,522.43813 376.00377,522.43813 C 374.72768,522.43813 373.70406,522.22223 372.91772,521.81526 C 372.41128,521.55315 371.97618,521.21547 371.58704,520.79601 C 371.69646,521.0444 371.79755,521.27798 371.92679,521.47551 C 372.43032,522.26186 373.09399,522.85222 373.88034,523.25919 C 374.66669,523.66616 375.6903,523.88206 376.96639,523.88206 C 379.24266,523.88206 380.84828,523.23291 381.7795,521.95682 C 382.71069,520.68073 383.16679,518.67851 383.16681,515.92628 C 383.1668,514.69848 383.02491,513.51848 382.74212,512.38723 C 382.59725,511.79403 382.41729,511.27152 382.17587,510.83005 C 381.98326,510.46184 381.69669,510.11816 381.38313,509.78249 z M 395.53932,509.78249 C 395.69401,510.13138 395.83122,510.5155 395.93569,510.9433 C 396.21848,512.07455 396.36037,513.25455 396.36038,514.48235 C 396.36037,517.23458 395.90427,519.2368 394.97307,520.51289 C 394.04185,521.78897 392.43623,522.43813 390.15997,522.43813 C 388.88386,522.43813 387.86026,522.22223 387.07392,521.81526 C 386.56748,521.55315 386.13237,521.21547 385.74324,520.79601 C 385.85265,521.0444 385.95373,521.27798 386.08298,521.47551 C 386.58652,522.26186 387.25019,522.85222 388.03654,523.25919 C 388.82288,523.66616 389.84648,523.88206 391.12259,523.88206 C 393.39885,523.88206 395.00448,523.23291 395.93569,521.95682 C 396.86689,520.68073 397.32299,518.67851 397.323,515.92628 C 397.32299,514.69848 397.1811,513.51848 396.89832,512.38723 C 396.75345,511.79403 396.57348,511.27152 396.33207,510.83005 C 396.13945,510.46184 395.85289,510.11816 395.53932,509.78249 z M 361.73433,514.5956 C 361.32736,514.59561 360.92459,514.6787 360.54521,514.87872 C 360.26239,515.02358 359.9772,515.2921 359.63921,515.67147 L 357.20435,515.33172 L 357.00616,516.60578 L 360.57352,517.1154 C 360.91151,516.73603 361.22501,516.46751 361.50783,516.32265 C 361.88721,516.12263 362.28998,516.03954 362.69695,516.03953 C 363.11076,516.03953 363.46521,516.11925 363.77282,516.29434 C 363.6817,515.84919 363.5305,515.4788 363.29151,515.21847 C 362.90523,514.79771 362.37582,514.59561 361.73433,514.5956 z M 367.73656,514.90703 C 367.9728,515.48473 368.10461,516.1356 368.10462,516.83228 C 368.1046,517.81177 367.85822,518.75991 367.3685,519.66352 C 366.88564,520.56713 366.19839,521.25437 365.30169,521.73032 C 364.41187,522.20627 363.26924,522.43813 361.87589,522.43813 C 360.87571,522.43813 360.01683,522.34124 359.29946,522.15501 C 358.58899,521.96187 357.99101,521.67812 357.48747,521.30563 C 357.26113,521.13273 357.05226,520.96066 356.8646,520.7677 C 356.97928,521.01675 357.09872,521.27013 357.23266,521.47551 C 357.54306,521.95146 357.92514,522.37019 358.42178,522.74957 C 358.92532,523.12205 359.55161,523.4058 360.26209,523.59894 C 360.97945,523.78517 361.83833,523.88206 362.83851,523.88206 C 362.9482,523.88206 363.04339,523.8567 363.14995,523.85375 L 363.14995,522.89113 L 366.71731,522.89113 C 367.39049,522.4379 367.93559,521.8193 368.33112,521.07914 C 368.82084,520.17553 369.06722,519.2557 369.06724,518.27621 C 369.06723,516.93391 368.61357,515.80763 367.73656,514.90703 z M 360.71508,519.21052 L 360.40365,519.23883 C 360.43347,519.27113 360.45683,519.32206 360.48858,519.35208 C 360.59291,519.44882 360.68474,519.53675 360.80002,519.60689 C 360.76723,519.48057 360.73628,519.35045 360.71508,519.21052 z M 367.45343,524.33506 L 367.45343,530.73366 L 368.41605,529.60116 L 368.41605,524.33506 L 367.45343,524.33506 z M 374.30503,528.52529 L 371.84185,530.93185 L 376.00377,538.06657 L 371.5021,538.06657 L 372.20991,539.5105 L 376.96639,539.5105 L 372.80447,532.37578 L 376.7399,528.52529 L 374.30503,528.52529 z M 388.88591,528.52529 L 388.88591,537.47201 L 388.88591,537.95332 C 388.8859,538.6431 388.75782,539.28607 388.46122,539.90687 C 388.1715,540.53458 387.76183,541.04946 387.2721,541.43574 C 386.78925,541.82201 386.18365,542.08435 385.4318,542.2568 C 384.68683,542.42924 383.82105,542.53993 382.85537,542.53993 C 380.64807,542.53992 379.15313,542.18286 378.32539,541.52068 C 378.29299,541.49454 378.27157,541.46258 378.24045,541.43574 C 378.43189,542.0303 378.74295,542.54774 379.2597,542.96461 C 380.08743,543.6268 381.6107,543.95554 383.81799,543.95555 C 384.78368,543.95555 385.64946,543.87317 386.39442,543.70073 C 387.14627,543.52829 387.75187,543.26595 388.23473,542.87967 C 388.72445,542.49339 389.13412,541.97851 389.42385,541.35081 C 389.72044,540.73 389.84852,540.08703 389.84853,539.39725 L 389.84853,538.88763 L 389.84853,528.52529 L 388.88591,528.52529 z M 382.74212,529.88429 C 382.20409,529.8843 381.79226,530.08568 381.46806,530.47885 C 381.15076,530.86514 380.98674,531.50049 380.98675,532.40409 C 380.98674,533.19735 381.15838,533.8015 381.49638,534.18777 C 381.65096,534.36128 381.80669,534.48999 382.006,534.58414 C 381.96737,534.36247 381.94938,534.11622 381.94938,533.84802 C 381.94937,532.94442 382.11338,532.30907 382.43069,531.92278 C 382.75488,531.52961 383.16671,531.32823 383.70474,531.32822 C 384.02519,531.32823 384.3207,531.43133 384.58243,531.58303 C 384.49724,531.15299 384.37001,530.80725 384.12943,530.53547 C 383.75694,530.10782 383.28014,529.8843 382.74212,529.88429 z M 369.03893,533.64984 L 367.45343,535.20702 L 367.45343,538.06657 L 364.11257,538.06657 L 364.11257,539.5105 L 368.41605,539.5105 L 368.41605,536.65095 L 369.83167,535.26364 L 369.03893,533.64984 z M 384.63905,536.02808 C 384.22517,536.51782 383.80717,536.88322 383.39331,537.10395 C 382.7449,537.44883 382.05004,537.61357 381.29819,537.61357 C 380.10117,537.61357 379.09034,537.19113 378.26876,536.33951 C 378.39443,536.62488 378.52193,536.8888 378.69345,537.13226 C 379.20738,537.86196 379.83686,538.37476 380.53376,538.68944 L 381.18494,538.77438 C 381.20377,538.84341 381.2474,538.88299 381.26988,538.94425 C 381.5857,539.01601 381.91336,539.0575 382.26081,539.0575 C 383.01266,539.0575 383.70752,538.89276 384.35593,538.54788 C 384.43356,538.50648 384.50479,538.42888 384.58243,538.378 C 384.61151,538.17445 384.63905,537.94834 384.63905,537.69851 L 384.63905,536.02808 z"
           id="path3406" />
      </g>
    </g>
  </g>
</svg>
