<?xml version="1.0" encoding="UTF-8" standalone="no"?>
<!-- Created with Inkscape (http://www.inkscape.org/) -->
<svg
   xmlns:dc="http://purl.org/dc/elements/1.1/"
   xmlns:cc="http://creativecommons.org/ns#"
   xmlns:rdf="http://www.w3.org/1999/02/22-rdf-syntax-ns#"
   xmlns:svg="http://www.w3.org/2000/svg"
   xmlns="http://www.w3.org/2000/svg"
   xmlns:xlink="http://www.w3.org/1999/xlink"
   xmlns:sodipodi="http://sodipodi.sourceforge.net/DTD/sodipodi-0.dtd"
   xmlns:inkscape="http://www.inkscape.org/namespaces/inkscape"
   width="48"
   height="48"
   id="svg2"
   sodipodi:version="0.32"
   inkscape:version="0.46"
   version="1.0"
   sodipodi:docbase="/home/yekcim/Desktop/SVG/Weapons"
   sodipodi:docname="baseball_ico.svg"
   inkscape:output_extension="org.inkscape.output.svg.inkscape"
   inkscape:export-filename="/home/yekcim/Bureau/baseball_ico.png"
   inkscape:export-xdpi="90"
   inkscape:export-ydpi="90">
  <defs
     id="defs4">
    <inkscape:perspective
       sodipodi:type="inkscape:persp3d"
       inkscape:vp_x="0 : 24 : 1"
       inkscape:vp_y="0 : 1000 : 0"
       inkscape:vp_z="48 : 24 : 1"
       inkscape:persp3d-origin="24 : 16 : 1"
       id="perspective21" />
    <linearGradient
       id="linearGradient5443">
      <stop
         id="stop5445"
         offset="0"
         style="stop-color:#d6c176;stop-opacity:1;" />
      <stop
         id="stop5447"
         offset="1"
         style="stop-color:#855d29;stop-opacity:1;" />
    </linearGradient>
    <linearGradient
       inkscape:collect="always"
       xlink:href="#linearGradient5443"
       id="linearGradient1845"
       gradientUnits="userSpaceOnUse"
       gradientTransform="translate(-1.362784e-2,0.683271)"
       x1="232.41025"
       y1="289.14371"
       x2="357.2894"
       y2="289.14371" />
    <linearGradient
       inkscape:collect="always"
       xlink:href="#linearGradient5443"
       id="linearGradient1847"
       gradientUnits="userSpaceOnUse"
       x1="232.41025"
       y1="289.14371"
       x2="357.2894"
       y2="289.14371" />
    <linearGradient
       y2="289.14371"
       x2="357.2894"
       y1="289.14371"
       x1="232.41025"
       gradientUnits="userSpaceOnUse"
       id="linearGradient2420"
       xlink:href="#linearGradient5443"
       inkscape:collect="always" />
    <linearGradient
       y2="289.14371"
       x2="357.2894"
       y1="289.14371"
       x1="232.41025"
       gradientTransform="translate(-1.362784e-2,0.683271)"
       gradientUnits="userSpaceOnUse"
       id="linearGradient2418"
       xlink:href="#linearGradient5443"
       inkscape:collect="always" />
    <linearGradient
       id="linearGradient2412">
      <stop
         style="stop-color:#d6c176;stop-opacity:1;"
         offset="0"
         id="stop2414" />
      <stop
         style="stop-color:#855d29;stop-opacity:1;"
         offset="1"
         id="stop2416" />
    </linearGradient>
    <inkscape:perspective
       id="perspective2409"
       inkscape:persp3d-origin="14.5 : 2 : 1"
       inkscape:vp_z="29 : 3 : 1"
       inkscape:vp_y="0 : 1000 : 0"
       inkscape:vp_x="0 : 3 : 1"
       sodipodi:type="inkscape:persp3d" />
    <linearGradient
       inkscape:collect="always"
       xlink:href="#linearGradient5443"
       id="linearGradient2434"
       gradientUnits="userSpaceOnUse"
       gradientTransform="translate(-1.362784e-2,0.683271)"
       x1="232.41025"
       y1="289.14371"
       x2="357.2894"
       y2="289.14371" />
    <linearGradient
       inkscape:collect="always"
       xlink:href="#linearGradient5443"
       id="linearGradient2436"
       gradientUnits="userSpaceOnUse"
       x1="232.41025"
       y1="289.14371"
       x2="357.2894"
       y2="289.14371" />
    <inkscape:perspective
       id="perspective3215"
       inkscape:persp3d-origin="372.04724 : 350.78739 : 1"
       inkscape:vp_z="744.09448 : 526.18109 : 1"
       inkscape:vp_y="0 : 1000 : 0"
       inkscape:vp_x="0 : 526.18109 : 1"
       sodipodi:type="inkscape:persp3d" />
  </defs>
  <sodipodi:namedview
     id="base"
     pagecolor="#ffffff"
     bordercolor="#666666"
     borderopacity="1.0"
     inkscape:pageopacity="0.0"
     inkscape:pageshadow="2"
     inkscape:zoom="3.959798"
     inkscape:cx="62.80598"
     inkscape:cy="35.329445"
     inkscape:document-units="px"
     inkscape:current-layer="layer1"
     inkscape:window-width="1279"
     inkscape:window-height="949"
     inkscape:window-x="0"
     inkscape:window-y="25"
     showgrid="false" />
  <metadata
     id="metadata7">
    <rdf:RDF>
      <cc:Work
         rdf:about="">
        <dc:format>image/svg+xml</dc:format>
        <dc:type
           rdf:resource="http://purl.org/dc/dcmitype/StillImage" />
      </cc:Work>
    </rdf:RDF>
  </metadata>
  <g
     inkscape:label="Calque 1"
     inkscape:groupmode="layer"
     id="layer1">
    <g
       id="g5473"
       transform="matrix(-4.911946e-2,4.14915e-2,4.412798e-2,5.224065e-2,28.46751,-3.252182)">
      <path
         sodipodi:nodetypes="cccsccc"
         id="path5469"
         d="M 294.8352,-119.41224 C 329.42616,-119.41224 357.55008,-83.865499 357.27376,-49.275629 C 357.27376,35.101326 309.38054,381.9599 317.27376,656.62753 C 313.39345,686.01327 329.42616,699.0661 294.8352,699.0661 C 260.24423,699.0661 276.27694,680.1265 272.39663,656.62753 C 284.21436,381.9599 232.39663,31.176816 232.39663,-49.275629 C 232.39663,-83.866599 260.24423,-119.41224 294.8352,-119.41224 z "
         style="color:#000000;fill:url(#linearGradient1845);fill-opacity:1;fill-rule:nonzero;stroke:#775729;stroke-width:45.24228930999999676;stroke-linecap:butt;stroke-linejoin:miter;marker:none;marker-start:none;marker-mid:none;marker-end:none;stroke-miterlimit:13.89999961999999911;stroke-dasharray:none;stroke-dashoffset:0;stroke-opacity:1;visibility:visible;display:inline;overflow:visible" />
      <path
         sodipodi:nodetypes="cccsccc"
         id="rect5440"
         d="M 294.84882,-120.09547 C 329.43978,-120.09547 357.5637,-84.548721 357.28738,-49.958858 C 357.28738,34.418109 309.39416,381.27668 317.28738,655.9443 C 313.40707,685.33004 329.43978,698.38287 294.84882,698.38287 C 260.25785,698.38287 276.29056,679.44327 272.41025,655.9443 C 284.22798,381.27668 232.41025,30.493599 232.41025,-49.958858 C 232.41025,-84.549825 260.25785,-120.09547 294.84882,-120.09547 z "
         style="color:#000000;fill:url(#linearGradient1847);fill-opacity:1;fill-rule:nonzero;stroke:none;stroke-width:10.55000019;stroke-linecap:butt;stroke-linejoin:miter;marker:none;marker-start:none;marker-mid:none;marker-end:none;stroke-miterlimit:13.89999962;stroke-dashoffset:0;stroke-opacity:1;visibility:visible;display:inline;overflow:visible" />
      <path
         id="path5451"
         d="M 234.41089,-3.3413004 C 236.49905,22.470521 239.69113,55.150535 243.37964,92.81495 L 346.12964,92.81495 C 349.5747,55.272608 352.53399,22.61882 354.44214,-3.3413004 L 234.41089,-3.3413004 z "
         style="color:#000000;fill:#970606;fill-opacity:0.46920818;fill-rule:nonzero;stroke:none;stroke-width:10.55000019;stroke-linecap:butt;stroke-linejoin:miter;marker:none;marker-start:none;marker-mid:none;marker-end:none;stroke-miterlimit:13.89999962;stroke-dashoffset:0;stroke-opacity:1;visibility:visible;display:inline;overflow:visible" />
      <path
         id="path5460"
         d="M 245.72829,119.875 C 247.49008,137.94839 249.34286,156.96327 251.19704,176.78125 L 338.85329,176.78125 C 340.61622,156.98248 342.35087,137.94838 344.00954,119.875 L 245.72829,119.875 z "
         style="color:#000000;fill:#ffffff;fill-opacity:0.44868032;fill-rule:nonzero;stroke:none;stroke-width:10.55000019;stroke-linecap:butt;stroke-linejoin:miter;marker:none;marker-start:none;marker-mid:none;marker-end:none;stroke-miterlimit:13.89999962;stroke-dashoffset:0;stroke-opacity:1;visibility:visible;display:inline;overflow:visible" />
    </g>
    <path
       sodipodi:type="arc"
       style="opacity:1;color:#000000;fill:#ebebc2;fill-opacity:1;fill-rule:evenodd;stroke:#c4c475;stroke-width:1.38422742000000021;stroke-linecap:round;stroke-linejoin:round;marker:none;marker-start:none;marker-mid:none;marker-end:none;stroke-miterlimit:4;stroke-dasharray:none;stroke-dashoffset:0;stroke-opacity:1;visibility:visible;display:inline;overflow:visible"
       id="path1849"
       sodipodi:cx="-25.625"
       sodipodi:cy="29.696428"
       sodipodi:rx="9.5535717"
       sodipodi:ry="9.5535717"
       d="M -16.071428 29.696428 A 9.5535717 9.5535717 0 1 1  -35.178572,29.696428 A 9.5535717 9.5535717 0 1 1  -16.071428 29.696428 z"
       transform="matrix(0.603947,0,0,0.603947,31.03353,19.90802)" />
    <path
       sodipodi:type="arc"
       style="opacity:1;color:#000000;fill:none;fill-opacity:1;fill-rule:evenodd;stroke:#6d0505;stroke-width:0.83600003;stroke-linecap:round;stroke-linejoin:round;marker:none;marker-start:none;marker-mid:none;marker-end:none;stroke-miterlimit:4;stroke-dasharray:none;stroke-dashoffset:0;stroke-opacity:1;visibility:visible;display:inline;overflow:visible"
       id="path2724"
       sodipodi:cx="13.51079"
       sodipodi:cy="42.31789"
       sodipodi:rx="3.4092648"
       sodipodi:ry="4.5456862"
       d="M 10.591772,39.969397 A 3.4092648,4.5456862 0 0 1 16.594913,44.255252"
       transform="translate(-0.505076,-1.010153)"
       sodipodi:start="3.6845171"
       sodipodi:end="6.7234709"
       sodipodi:open="true" />
    <path
       sodipodi:type="arc"
       style="opacity:1;color:#000000;fill:none;fill-opacity:1;fill-rule:evenodd;stroke:#6d0505;stroke-width:0.83600003;stroke-linecap:round;stroke-linejoin:round;marker:none;marker-start:none;marker-mid:none;marker-end:none;stroke-miterlimit:4;stroke-dasharray:none;stroke-dashoffset:0;stroke-opacity:1;visibility:visible;display:inline;overflow:visible"
       id="path2734"
       sodipodi:cx="13.51079"
       sodipodi:cy="42.31789"
       sodipodi:rx="3.4092648"
       sodipodi:ry="4.0992575"
       d="M 12.912503,38.282247 A 3.4092648,4.0992575 0 0 1 16.767111,41.103862"
       transform="matrix(-0.998177,-6.03562e-2,6.03562e-2,-0.998177,31.20563,74.36446)"
       sodipodi:start="4.5359871"
       sodipodi:end="5.9825175"
       sodipodi:open="true" />
    <path
       sodipodi:type="arc"
       style="opacity:1;fill:none;fill-opacity:1;fill-rule:evenodd;stroke:#c4c475;stroke-width:2.48366165;stroke-linecap:round;stroke-linejoin:round;marker:none;marker-start:none;marker-mid:none;marker-end:none;stroke-miterlimit:4;stroke-dasharray:none;stroke-dashoffset:0;stroke-opacity:1;visibility:visible;display:inline;overflow:visible"
       id="path2736"
       sodipodi:cx="-25.625"
       sodipodi:cy="29.696428"
       sodipodi:rx="9.5535717"
       sodipodi:ry="9.5535717"
       d="M -16.071428,29.696428 A 9.5535717,9.5535717 0 1 1 -35.178572,29.696428 A 9.5535717,9.5535717 0 1 1 -16.071428,29.696428 z"
       transform="matrix(0.6741264,0,0,0.6741264,32.831876,17.823944)" />
    <g
       id="g2422"
       inkscape:label="Calque 1"
       transform="translate(60.163044,3.1594591)"
       inkscape:export-filename="/home/yekcim/Bureau/baseball.png"
       inkscape:export-xdpi="90"
       inkscape:export-ydpi="90">
      <g
         transform="matrix(0,-3.181794e-2,-3.383974e-2,0,24.38232,12.31914)"
         id="g2424">
        <path
           style="fill:url(#linearGradient2434);fill-opacity:1;fill-rule:nonzero;stroke:#775729;stroke-width:60.95094681;stroke-linecap:butt;stroke-linejoin:miter;marker:none;marker-start:none;marker-mid:none;marker-end:none;stroke-miterlimit:13.89999962;stroke-dasharray:none;stroke-dashoffset:0;stroke-opacity:1;visibility:visible;display:inline;overflow:visible"
           d="M 294.8352,-119.41224 C 329.42616,-119.41224 357.55008,-83.865499 357.27376,-49.275629 C 357.27376,35.101326 309.38054,381.9599 317.27376,656.62753 C 313.39345,686.01327 329.42616,699.0661 294.8352,699.0661 C 260.24423,699.0661 276.27694,680.1265 272.39663,656.62753 C 284.21436,381.9599 232.39663,31.176816 232.39663,-49.275629 C 232.39663,-83.866599 260.24423,-119.41224 294.8352,-119.41224 z"
           id="path2426"
           sodipodi:nodetypes="cccsccc" />
        <path
           style="fill:url(#linearGradient2436);fill-opacity:1;fill-rule:nonzero;stroke:none;stroke-width:10.55000019;stroke-linecap:butt;stroke-linejoin:miter;marker:none;marker-start:none;marker-mid:none;marker-end:none;stroke-miterlimit:13.89999962;stroke-dashoffset:0;stroke-opacity:1;visibility:visible;display:inline;overflow:visible"
           d="M 294.84882,-120.09547 C 329.43978,-120.09547 357.5637,-84.548721 357.28738,-49.958858 C 357.28738,34.418109 309.39416,381.27668 317.28738,655.9443 C 313.40707,685.33004 329.43978,698.38287 294.84882,698.38287 C 260.25785,698.38287 276.29056,679.44327 272.41025,655.9443 C 284.22798,381.27668 232.41025,30.493599 232.41025,-49.958858 C 232.41025,-84.549825 260.25785,-120.09547 294.84882,-120.09547 z"
           id="path2428"
           sodipodi:nodetypes="cccsccc" />
        <path
           style="fill:#970606;fill-opacity:0.46920818;fill-rule:nonzero;stroke:none;stroke-width:10.55000019;stroke-linecap:butt;stroke-linejoin:miter;marker:none;marker-start:none;marker-mid:none;marker-end:none;stroke-miterlimit:13.89999962;stroke-dashoffset:0;stroke-opacity:1;visibility:visible;display:inline;overflow:visible"
           d="M 234.41089,-3.3413004 C 236.49905,22.470521 239.69113,55.150535 243.37964,92.81495 L 346.12964,92.81495 C 349.5747,55.272608 352.53399,22.61882 354.44214,-3.3413004 L 234.41089,-3.3413004 z"
           id="path2430" />
        <path
           style="fill:#ffffff;fill-opacity:0.44868032;fill-rule:nonzero;stroke:none;stroke-width:10.55000019;stroke-linecap:butt;stroke-linejoin:miter;marker:none;marker-start:none;marker-mid:none;marker-end:none;stroke-miterlimit:13.89999962;stroke-dashoffset:0;stroke-opacity:1;visibility:visible;display:inline;overflow:visible"
           d="M 245.72829,119.875 C 247.49008,137.94839 249.34286,156.96327 251.19704,176.78125 L 338.85329,176.78125 C 340.61622,156.98248 342.35087,137.94838 344.00954,119.875 L 245.72829,119.875 z"
           id="path2432" />
      </g>
    </g>
    <g
       id="g3239"
       inkscape:export-filename="/home/yekcim/Bureau/baseball_hit.png"
       inkscape:export-xdpi="90"
       inkscape:export-ydpi="90"
       transform="translate(-11.111678,-20.455589)">
      <rect
         y="40.423855"
         x="65.028572"
         height="32.577419"
         width="46.088211"
         id="rect3237"
         style="opacity:1;fill:none;fill-opacity:1;fill-rule:evenodd;stroke:none;stroke-width:3.70000005;stroke-linecap:round;stroke-linejoin:round;marker:none;marker-start:none;marker-mid:none;marker-end:none;stroke-miterlimit:4;stroke-dasharray:none;stroke-dashoffset:0;stroke-opacity:1;visibility:visible;display:inline;overflow:visible;enable-background:accumulate" />
      <g
         inkscape:export-ydpi="90"
         inkscape:export-xdpi="90"
         inkscape:export-filename="/home/yekcim/Bureau/baseball_hit.png"
         transform="translate(8.1619641,-33.698148)"
         id="g3233">
        <path
           style="fill:none;fill-rule:evenodd;stroke:#d40000;stroke-width:3.70000005;stroke-linecap:butt;stroke-linejoin:miter;stroke-miterlimit:4;stroke-dasharray:none;stroke-opacity:1"
           d="M 73.303571,81.214285 C 78.476393,82.00737 83.698155,83.143042 87.946428,77.464285 C 90.560764,80.632936 93.008899,83.99153 97.232142,85.321428 C 96.656761,87.856142 97.123839,89.869627 98.928569,91.214285 C 95.781523,93.305393 97.75076,94.319388 98.92857,95.5 C 95.488492,95.572528 93.559727,97.035586 93.214286,102.10714 C 88.868908,99.849269 83.241196,98.796962 78.660714,103.35714 C 75.132016,99.754723 71.476939,95.906644 63.303571,96.839285 C 62.580484,96.184523 61.881966,95.619047 60.982143,94.874999 C 61.515156,92.672618 61.780076,90.202381 60.892857,88 C 65.346988,87.225489 69.801481,84.844919 73.303571,81.214285 z"
           id="path3229"
           sodipodi:nodetypes="ccccccccccc" />
        <path
           style="fill:#ff8a00;fill-opacity:1;fill-rule:evenodd;stroke:none;stroke-width:1px;stroke-linecap:butt;stroke-linejoin:miter;stroke-opacity:1"
           d="M 66.25,91.571428 C 69.470669,90.722695 72.542509,89.539097 74.821428,86.571428 C 79.56587,88.005414 83.531989,86.585549 87.589285,85.5 C 88.459555,87.937065 90.112171,89.461395 92.410714,90.232142 C 91.004428,91.546303 89.390989,92.782781 89.821428,94.785714 C 84.778976,93.969452 81.89897,95.315637 79.196428,96.839285 C 75.853754,94.326709 71.731854,92.420198 66.25,91.571428 z"
           id="path3231"
           sodipodi:nodetypes="ccccccc" />
      </g>
    </g>
  </g>
</svg>
