<?xml version="1.0" encoding="UTF-8" standalone="no"?>
<!-- Created with Inkscape (http://www.inkscape.org/) -->
<svg
   xmlns:dc="http://purl.org/dc/elements/1.1/"
   xmlns:cc="http://web.resource.org/cc/"
   xmlns:rdf="http://www.w3.org/1999/02/22-rdf-syntax-ns#"
   xmlns:svg="http://www.w3.org/2000/svg"
   xmlns="http://www.w3.org/2000/svg"
   xmlns:xlink="http://www.w3.org/1999/xlink"
   xmlns:sodipodi="http://inkscape.sourceforge.net/DTD/sodipodi-0.dtd"
   xmlns:inkscape="http://www.inkscape.org/namespaces/inkscape"
   width="48"
   height="48"
   id="svg2"
   sodipodi:version="0.32"
   inkscape:version="0.43"
   sodipodi:docbase="/home/yekcim/Desktop/SVG/Weapons"
   sodipodi:docname="bazooka_auto_ico.svg"
   version="1.0"
   inkscape:output_extension="org.inkscape.output.svg.inkscape">
  <defs
     id="defs4">
    <linearGradient
       id="linearGradient3182">
      <stop
         id="stop3184"
         offset="0"
         style="stop-color:#3e3e3e;stop-opacity:1;" />
      <stop
         style="stop-color:#7d7d7d;stop-opacity:1;"
         offset="0.38967136"
         id="stop3186" />
      <stop
         id="stop3188"
         offset="0.51574862"
         style="stop-color:#505050;stop-opacity:1;" />
      <stop
         id="stop3190"
         offset="1"
         style="stop-color:#242424;stop-opacity:1;" />
    </linearGradient>
    <linearGradient
       id="linearGradient3093">
      <stop
         id="stop3095"
         offset="0"
         style="stop-color:#262626;stop-opacity:1;" />
      <stop
         style="stop-color:#bfbfbf;stop-opacity:1;"
         offset="0.19014084"
         id="stop3101" />
      <stop
         id="stop3103"
         offset="0.25857964"
         style="stop-color:#787676;stop-opacity:1;" />
      <stop
         style="stop-color:#b6b6b6;stop-opacity:1;"
         offset="0.35604334"
         id="stop3105" />
      <stop
         id="stop3107"
         offset="0.67802167"
         style="stop-color:#494949;stop-opacity:1;" />
      <stop
         id="stop3097"
         offset="1"
         style="stop-color:#242424;stop-opacity:1;" />
    </linearGradient>
    <linearGradient
       id="linearGradient3137">
      <stop
         id="stop3139"
         offset="0"
         style="stop-color:#ffffff;stop-opacity:1;" />
      <stop
         id="stop3141"
         offset="1"
         style="stop-color:#d0d0d0;stop-opacity:1;" />
    </linearGradient>
    <linearGradient
       id="linearGradient3169">
      <stop
         style="stop-color:#575425;stop-opacity:1;"
         offset="0"
         id="stop3171" />
      <stop
         id="stop3173"
         offset="0.38967136"
         style="stop-color:#9f9c5b;stop-opacity:1;" />
      <stop
         style="stop-color:#6e6e33;stop-opacity:1;"
         offset="0.51574862"
         id="stop3175" />
      <stop
         style="stop-color:#2f3514;stop-opacity:1;"
         offset="1"
         id="stop3177" />
    </linearGradient>
    <linearGradient
       id="linearGradient3125">
      <stop
         id="stop3127"
         offset="0"
         style="stop-color:#572f25;stop-opacity:1;" />
      <stop
         style="stop-color:#9f7f5b;stop-opacity:1;"
         offset="0.38967136"
         id="stop3133" />
      <stop
         id="stop3135"
         offset="0.51001787"
         style="stop-color:#765336;stop-opacity:1;" />
      <stop
         id="stop3129"
         offset="1"
         style="stop-color:#4e2812;stop-opacity:1;" />
    </linearGradient>
    <linearGradient
       id="linearGradient3179"
       inkscape:collect="always">
      <stop
         id="stop3181"
         offset="0"
         style="stop-color:#bb1616;stop-opacity:1;" />
      <stop
         id="stop3183"
         offset="1"
         style="stop-color:#bb1616;stop-opacity:0;" />
    </linearGradient>
    <linearGradient
       id="linearGradient3203">
      <stop
         id="stop3205"
         offset="0"
         style="stop-color:#fffdfd;stop-opacity:1;" />
      <stop
         id="stop3207"
         offset="1"
         style="stop-color:#ffffff;stop-opacity:0;" />
    </linearGradient>
    <linearGradient
       inkscape:collect="always"
       xlink:href="#linearGradient3093"
       id="linearGradient3015"
       gradientUnits="userSpaceOnUse"
       gradientTransform="matrix(3.314713,4.87771e-16,4.231242e-16,3.403954,-505.0234,-142.3299)"
       x1="237.61609"
       y1="97.556404"
       x2="237.61609"
       y2="132.45361" />
    <radialGradient
       inkscape:collect="always"
       xlink:href="#linearGradient3137"
       id="radialGradient3017"
       gradientUnits="userSpaceOnUse"
       gradientTransform="matrix(4.622168,0.812143,-0.373077,2.123308,-778.2384,-170.5167)"
       cx="246.7504"
       cy="130.04575"
       fx="246.7504"
       fy="130.04575"
       r="21.09375" />
    <linearGradient
       inkscape:collect="always"
       xlink:href="#linearGradient3125"
       id="linearGradient3019"
       gradientUnits="userSpaceOnUse"
       gradientTransform="matrix(3.403954,5.009032e-16,4.002463e-16,3.219902,-526.1609,-111.4107)"
       x1="252.86461"
       y1="128.27216"
       x2="255.00316"
       y2="174.64114" />
    <linearGradient
       inkscape:collect="always"
       xlink:href="#linearGradient3125"
       id="linearGradient3021"
       gradientUnits="userSpaceOnUse"
       gradientTransform="matrix(2.427655,3.572374e-16,4.548945e-16,3.659541,-253.5484,-176.2681)"
       x1="351.93063"
       y1="97.584084"
       x2="351.85315"
       y2="128.73721" />
    <linearGradient
       inkscape:collect="always"
       xlink:href="#linearGradient3093"
       id="linearGradient3023"
       gradientUnits="userSpaceOnUse"
       gradientTransform="matrix(6.836043,1.005947e-15,5.761896e-16,4.635334,-2111.438,-305.4306)"
       x1="426.34293"
       y1="94.70826"
       x2="426.34293"
       y2="137.12685" />
    <linearGradient
       inkscape:collect="always"
       xlink:href="#linearGradient3203"
       id="linearGradient3025"
       gradientUnits="userSpaceOnUse"
       gradientTransform="matrix(3.403954,5.009032e-16,7.001347e-16,5.632447,-526.1609,-421.2928)"
       x1="214.71347"
       y1="165.45297"
       x2="214.71347"
       y2="78.572083" />
    <linearGradient
       inkscape:collect="always"
       xlink:href="#linearGradient3203"
       id="linearGradient3027"
       gradientUnits="userSpaceOnUse"
       gradientTransform="matrix(3.403954,5.009032e-16,6.471317e-16,5.206048,-312.8286,-349.4324)"
       x1="214.71347"
       y1="165.45297"
       x2="214.71347"
       y2="78.572083" />
    <linearGradient
       inkscape:collect="always"
       xlink:href="#linearGradient3203"
       id="linearGradient3029"
       gradientUnits="userSpaceOnUse"
       gradientTransform="matrix(3.403954,5.009032e-16,9.320738e-16,7.498333,58.97605,-630.261)"
       x1="214.71347"
       y1="165.45297"
       x2="214.71347"
       y2="78.572083" />
    <linearGradient
       inkscape:collect="always"
       xlink:href="#linearGradient3203"
       id="linearGradient3031"
       gradientUnits="userSpaceOnUse"
       gradientTransform="matrix(4.916824,7.235273e-16,3.8579e-16,3.103606,-896.4331,-199.425)"
       x1="214.71347"
       y1="165.45297"
       x2="214.71347"
       y2="78.572083" />
    <linearGradient
       inkscape:collect="always"
       xlink:href="#linearGradient3203"
       id="linearGradient3033"
       gradientUnits="userSpaceOnUse"
       gradientTransform="matrix(2.265122,-1.921023e-16,-4.066698e-16,3.096635,-296.8393,-481.4194)"
       x1="214.71347"
       y1="165.45297"
       x2="214.71347"
       y2="78.572083" />
    <linearGradient
       inkscape:collect="always"
       xlink:href="#linearGradient3203"
       id="linearGradient3035"
       gradientUnits="userSpaceOnUse"
       gradientTransform="matrix(1.891087,2.782797e-16,6.097969e-16,4.9057,-97.35699,-171.6669)"
       x1="214.71347"
       y1="165.45297"
       x2="214.71347"
       y2="78.572083" />
    <linearGradient
       inkscape:collect="always"
       xlink:href="#linearGradient3203"
       id="linearGradient3037"
       gradientUnits="userSpaceOnUse"
       gradientTransform="matrix(1.891088,7.352656e-16,-1.591894e-15,4.905702,-83.2825,-143.7794)"
       x1="214.71347"
       y1="165.45297"
       x2="214.71347"
       y2="78.572083" />
    <linearGradient
       inkscape:collect="always"
       xlink:href="#linearGradient3203"
       id="linearGradient3039"
       gradientUnits="userSpaceOnUse"
       gradientTransform="matrix(3.025672,-2.316138e-16,-4.749436e-15,21.28659,-456.6842,-3104.963)"
       x1="214.71347"
       y1="165.45297"
       x2="214.71347"
       y2="78.572083" />
    <linearGradient
       inkscape:collect="always"
       xlink:href="#linearGradient3169"
       id="linearGradient3323"
       gradientUnits="userSpaceOnUse"
       gradientTransform="matrix(2.349066,-9.095743e-16,4.377278e-16,3.75587,-716.4869,-316.1956)"
       x1="149.71832"
       y1="94.545212"
       x2="149.58385"
       y2="141.27757" />
    <linearGradient
       inkscape:collect="always"
       xlink:href="#linearGradient3203"
       id="linearGradient3327"
       gradientUnits="userSpaceOnUse"
       gradientTransform="matrix(5.703451,-6.647088e-16,1.220591e-15,3.1523,-1118.923,60.43678)"
       x1="214.71347"
       y1="165.45297"
       x2="214.71347"
       y2="78.572083" />
    <linearGradient
       inkscape:collect="always"
       xlink:href="#linearGradient3203"
       id="linearGradient3329"
       gradientUnits="userSpaceOnUse"
       gradientTransform="matrix(5.703451,-6.647088e-16,1.220591e-15,3.1523,-1118.923,-48.41572)"
       x1="214.71347"
       y1="165.45297"
       x2="214.71347"
       y2="78.572083" />
    <linearGradient
       inkscape:collect="always"
       xlink:href="#linearGradient3179"
       id="linearGradient3391"
       gradientUnits="userSpaceOnUse"
       gradientTransform="matrix(2.349066,-9.095743e-16,4.377278e-16,3.75587,-716.4869,-316.1956)"
       x1="129.41269"
       y1="116.09729"
       x2="168.95546"
       y2="116.09729" />
    <linearGradient
       inkscape:collect="always"
       xlink:href="#linearGradient3182"
       id="linearGradient3393"
       gradientUnits="userSpaceOnUse"
       gradientTransform="matrix(2.563454,-9.925872e-16,4.377278e-16,3.75587,-759.4102,-316.1956)"
       x1="149.71832"
       y1="94.545212"
       x2="149.58385"
       y2="141.27757" />
  </defs>
  <sodipodi:namedview
     id="base"
     pagecolor="#ffffff"
     bordercolor="#666666"
     borderopacity="1.0"
     inkscape:pageopacity="0.0"
     inkscape:pageshadow="2"
     inkscape:zoom="5.6446243"
     inkscape:cx="33.293745"
     inkscape:cy="29.671307"
     inkscape:document-units="px"
     inkscape:current-layer="layer1"
     inkscape:window-width="1430"
     inkscape:window-height="821"
     inkscape:window-x="0"
     inkscape:window-y="25" />
  <metadata
     id="metadata7">
    <rdf:RDF>
      <cc:Work
         rdf:about="">
        <dc:format>image/svg+xml</dc:format>
        <dc:type
           rdf:resource="http://purl.org/dc/dcmitype/StillImage" />
      </cc:Work>
    </rdf:RDF>
  </metadata>
  <g
     inkscape:label="Calque 1"
     inkscape:groupmode="layer"
     id="layer1">
    <g
       id="g3438"
       transform="matrix(0.893458,0,0,0.893458,4.023548,0.920893)"
       style="stroke:#000000;stroke-opacity:1;stroke-width:1.28013852;stroke-miterlimit:4;stroke-dasharray:none">
      <path
         transform="matrix(0.659631,0.152122,-4.840219e-2,0.670611,60.37471,15.86849)"
         d="M -23.425647 3.8420315 A 14.21824 14.21824 0 1 1  -51.862126,3.8420315 A 14.21824 14.21824 0 1 1  -23.425647 3.8420315 z"
         sodipodi:ry="14.21824"
         sodipodi:rx="14.21824"
         sodipodi:cy="3.8420315"
         sodipodi:cx="-37.643887"
         id="path3440"
         style="opacity:1;color:#000000;fill:none;fill-opacity:1;fill-rule:evenodd;stroke:#000000;stroke-width:1.90891426;stroke-linecap:round;stroke-linejoin:round;marker:none;marker-start:none;marker-mid:none;marker-end:none;stroke-miterlimit:4;stroke-dasharray:none;stroke-dashoffset:0;stroke-opacity:1;visibility:visible;display:inline;overflow:visible"
         sodipodi:type="arc" />
      <path
         transform="matrix(0.149364,3.444551e-2,-1.095993e-2,0.15185,41.02239,13.43181)"
         d="M -23.425647 3.8420315 A 14.21824 14.21824 0 1 1  -51.862126,3.8420315 A 14.21824 14.21824 0 1 1  -23.425647 3.8420315 z"
         sodipodi:ry="14.21824"
         sodipodi:rx="14.21824"
         sodipodi:cy="3.8420315"
         sodipodi:cx="-37.643887"
         id="path3442"
         style="opacity:1;color:#000000;fill:none;fill-opacity:1;fill-rule:evenodd;stroke:#000000;stroke-width:8.4302794;stroke-linecap:round;stroke-linejoin:round;marker:none;marker-start:none;marker-mid:none;marker-end:none;stroke-miterlimit:4;stroke-dasharray:none;stroke-dashoffset:0;stroke-opacity:1;visibility:visible;display:inline;overflow:visible"
         sodipodi:type="arc" />
      <path
         transform="matrix(0.406796,9.381333e-2,-2.984969e-2,0.413566,50.78572,14.66113)"
         d="M -23.425647 3.8420315 A 14.21824 14.21824 0 1 1  -51.862126,3.8420315 A 14.21824 14.21824 0 1 1  -23.425647 3.8420315 z"
         sodipodi:ry="14.21824"
         sodipodi:rx="14.21824"
         sodipodi:cy="3.8420315"
         sodipodi:cx="-37.643887"
         id="path3444"
         style="opacity:1;color:#000000;fill:none;fill-opacity:1;fill-rule:evenodd;stroke:#000000;stroke-width:3.09536279;stroke-linecap:round;stroke-linejoin:round;marker:none;marker-start:none;marker-mid:none;marker-end:none;stroke-miterlimit:4;stroke-dasharray:none;stroke-dashoffset:0;stroke-opacity:1;visibility:visible;display:inline;overflow:visible"
         sodipodi:type="arc" />
      <path
         id="path3446"
         d="M 24.225129,10.186202 C 46.552906,15.335327 46.552906,15.335327 46.552906,15.335327"
         style="fill:none;fill-opacity:0.75;fill-rule:evenodd;stroke:#000000;stroke-width:1.28013852;stroke-linecap:round;stroke-linejoin:round;stroke-miterlimit:4;stroke-dasharray:none;stroke-opacity:1" />
      <path
         id="path3448"
         d="M 36.208196,1.4110544 C 34.569839,24.110474 34.569839,24.110474 34.569839,24.110474"
         style="fill:none;fill-opacity:0.75;fill-rule:evenodd;stroke:#000000;stroke-width:1.28013852;stroke-linecap:round;stroke-linejoin:round;stroke-miterlimit:4;stroke-dasharray:none;stroke-opacity:1" />
    </g>
    <g
       id="g3431"
       transform="matrix(0.893458,0,0,0.893458,3.01623,1.256665)"
       style="stroke-width:1.28013852;stroke-miterlimit:4;stroke-dasharray:none">
      <path
         transform="matrix(0.659631,0.152122,-4.840219e-2,0.670611,60.37471,15.86849)"
         d="M -23.425647 3.8420315 A 14.21824 14.21824 0 1 1  -51.862126,3.8420315 A 14.21824 14.21824 0 1 1  -23.425647 3.8420315 z"
         sodipodi:ry="14.21824"
         sodipodi:rx="14.21824"
         sodipodi:cy="3.8420315"
         sodipodi:cx="-37.643887"
         id="path3417"
         style="opacity:1;color:#000000;fill:none;fill-opacity:1;fill-rule:evenodd;stroke:#611717;stroke-width:1.90891426;stroke-linecap:round;stroke-linejoin:round;marker:none;marker-start:none;marker-mid:none;marker-end:none;stroke-miterlimit:4;stroke-dasharray:none;stroke-dashoffset:0;stroke-opacity:1;visibility:visible;display:inline;overflow:visible"
         sodipodi:type="arc" />
      <path
         transform="matrix(0.149364,3.444551e-2,-1.095993e-2,0.15185,41.02239,13.43181)"
         d="M -23.425647 3.8420315 A 14.21824 14.21824 0 1 1  -51.862126,3.8420315 A 14.21824 14.21824 0 1 1  -23.425647 3.8420315 z"
         sodipodi:ry="14.21824"
         sodipodi:rx="14.21824"
         sodipodi:cy="3.8420315"
         sodipodi:cx="-37.643887"
         id="path3421"
         style="opacity:1;color:#000000;fill:none;fill-opacity:1;fill-rule:evenodd;stroke:#611717;stroke-width:8.4302794;stroke-linecap:round;stroke-linejoin:round;marker:none;marker-start:none;marker-mid:none;marker-end:none;stroke-miterlimit:4;stroke-dasharray:none;stroke-dashoffset:0;stroke-opacity:1;visibility:visible;display:inline;overflow:visible"
         sodipodi:type="arc" />
      <path
         transform="matrix(0.406796,9.381333e-2,-2.984969e-2,0.413566,50.78572,14.66113)"
         d="M -23.425647 3.8420315 A 14.21824 14.21824 0 1 1  -51.862126,3.8420315 A 14.21824 14.21824 0 1 1  -23.425647 3.8420315 z"
         sodipodi:ry="14.21824"
         sodipodi:rx="14.21824"
         sodipodi:cy="3.8420315"
         sodipodi:cx="-37.643887"
         id="path3425"
         style="opacity:1;color:#000000;fill:none;fill-opacity:1;fill-rule:evenodd;stroke:#611717;stroke-width:3.09536279;stroke-linecap:round;stroke-linejoin:round;marker:none;marker-start:none;marker-mid:none;marker-end:none;stroke-miterlimit:4;stroke-dasharray:none;stroke-dashoffset:0;stroke-opacity:1;visibility:visible;display:inline;overflow:visible"
         sodipodi:type="arc" />
      <path
         id="path3427"
         d="M 24.225129,10.186202 C 46.552906,15.335327 46.552906,15.335327 46.552906,15.335327"
         style="fill:none;fill-opacity:0.75;fill-rule:evenodd;stroke:#611717;stroke-width:1.28013852;stroke-linecap:round;stroke-linejoin:round;stroke-miterlimit:4;stroke-dasharray:none;stroke-opacity:1" />
      <path
         id="path3429"
         d="M 36.208196,1.4110544 C 34.569839,24.110474 34.569839,24.110474 34.569839,24.110474"
         style="fill:none;fill-opacity:0.75;fill-rule:evenodd;stroke:#611717;stroke-width:1.28013852;stroke-linecap:round;stroke-linejoin:round;stroke-miterlimit:4;stroke-dasharray:none;stroke-opacity:1" />
    </g>
    <g
       id="g3307"
       transform="matrix(6.749894e-2,-3.162482e-2,2.168561e-2,7.287201e-2,41.52892,19.93352)">
      <g
         id="g3309">
        <path
           style="fill:none;fill-opacity:1;fill-rule:evenodd;stroke:#000000;stroke-width:11.93705654;stroke-linecap:round;stroke-linejoin:round;stroke-miterlimit:4;stroke-dasharray:none;stroke-opacity:1"
           d="M -412.38362,64.57409 L -412.38362,72.657741 L -533.95598,107.63857 C -539.02266,111.68902 -533.95598,126.56084 -533.95598,126.56084 L -413.19265,168.42908 L -413.19265,175.24399 L -370.31434,174.519 L -352.82191,174.519 C -352.39999,174.519 -351.99593,174.40837 -351.61931,174.19276 L -329.57885,173.83026 L -329.57885,167.05159 L -306.8387,145.44686 L -289.9585,144.14187 L -289.9585,143.99687 L -78.475075,143.99687 C -65.022768,139.32938 -62.178608,99.23707 -78.475075,92.776247 L -289.9585,92.776247 L -289.9585,92.739997 L -307.64772,90.166278 L -332.15898,73.962725 L -332.15898,65.879074 L -351.55371,65.552828 C -351.947,65.31499 -352.37778,65.154082 -352.82191,65.154082 L -376.72094,65.154082 L -412.38362,64.57409 z "
           id="path3311"
           sodipodi:nodetypes="ccccccccccccccccccccccccc" />
        <path
           style="fill:url(#linearGradient3323);fill-opacity:1;fill-rule:evenodd;stroke:none;stroke-width:1pt;stroke-linecap:butt;stroke-linejoin:miter;stroke-opacity:1"
           d="M -412.39402,64.573243 L -412.39402,72.671847 L -533.95826,107.6484 C -539.02492,111.69885 -533.95826,126.54512 -533.95826,126.54512 L -413.2015,168.44653 L -413.2015,175.25405 L -329.58935,173.84561 L -329.58935,167.03809 L -306.83276,145.44183 L -289.94882,144.15075 C -285.07458,126.61751 -284.48453,109.43328 -289.94882,92.742271 L -307.64024,90.160119 L -332.15865,73.962899 L -332.15865,65.86433 L -412.39402,64.573243 z "
           id="path3313"
           sodipodi:nodetypes="ccccccccccccccc" />
        <path
           style="opacity:0.54867255;fill:url(#linearGradient3391);fill-opacity:1;fill-rule:nonzero;stroke:none;stroke-width:10;stroke-linecap:round;stroke-linejoin:round;stroke-miterlimit:4;stroke-dashoffset:0;stroke-opacity:1"
           d="M -392.90084,65.169479 L -355.23018,65.169479 C -351.86423,65.169479 -349.15446,67.87925 -349.15446,71.245197 C -338.43029,103.35049 -338.40218,136.9587 -349.15446,168.45667 C -349.15446,171.82262 -351.86423,174.53239 -355.23018,174.53239 L -392.90084,174.53239 C -396.26679,174.53239 -398.97656,171.82262 -398.97656,168.45667 C -390.52475,136.52748 -384.37346,104.26665 -398.97656,71.245197 C -398.97656,67.87925 -396.26679,65.169479 -392.90084,65.169479 z "
           id="rect3315"
           sodipodi:nodetypes="ccccccccc" />
        <rect
           style="opacity:0.53982299;fill:url(#linearGradient3327);fill-opacity:1;fill-rule:nonzero;stroke:none;stroke-width:3;stroke-linecap:round;stroke-linejoin:round;stroke-miterlimit:4;stroke-dasharray:none;stroke-dashoffset:0;stroke-opacity:1"
           id="rect3317"
           width="23.22752"
           height="48.498611"
           x="94.06916"
           y="406.54309"
           ry="6.4189343"
           transform="matrix(0,1,-1,0,0,0)" />
        <rect
           style="opacity:0.53982299;fill:url(#linearGradient3329);fill-opacity:1;fill-rule:nonzero;stroke:none;stroke-width:3;stroke-linecap:round;stroke-linejoin:round;stroke-miterlimit:4;stroke-dasharray:none;stroke-dashoffset:0;stroke-opacity:1"
           id="rect3319"
           width="24.322805"
           height="40.214989"
           x="94.069092"
           y="297.69064"
           ry="6.4189343"
           transform="matrix(0,1,-1,0,0,0)" />
        <path
           style="color:#000000;fill:url(#linearGradient3393);fill-opacity:1;fill-rule:evenodd;stroke:none;stroke-width:1pt;stroke-linecap:butt;stroke-linejoin:miter;marker:none;marker-start:none;marker-mid:none;marker-end:none;stroke-miterlimit:4;stroke-dashoffset:0;stroke-opacity:1;visibility:visible;display:inline;overflow:visible"
           d="M -293.65411,92.204895 L -78.480209,92.760239 C -64.600683,97.319118 -61.932411,139.7144 -78.480209,143.99062 L -293.61601,144.57664 C -284.47145,126.18003 -284.69307,110.04579 -293.65411,92.204895 z "
           id="rect3321"
           sodipodi:nodetypes="ccccc" />
      </g>
    </g>
    <g
       id="g2991"
       transform="matrix(5.040273e-2,4.965784e-2,-5.379396e-2,5.330985e-2,16.13526,-9.407876)">
      <path
         sodipodi:nodetypes="cccccccccccccccccccccsccccccccccccccccccccccccccccsssssssssccccccssc"
         id="path2161"
         d="M 446.62533,94.576307 L 438.11544,181.48352 L 403.86316,182.65362 L 397.69349,191.26988 L 168.88396,189.9934 L 168.88396,183.93011 L 159.09759,181.48352 L 161.54418,172.86726 L 167.60747,172.86726 L 167.60747,139.89145 L 150.48133,137.44486 L 137.07826,177.76044 L 126.01541,177.76044 L 126.01541,189.9934 L 20.308624,191.26988 L 20.308624,196.16307 L 19.032142,275.50545 L 20.308624,281.56875 L 203.13624,284.01534 L 212.92261,292.6316 L 241.11161,293.80171 C 241.11161,293.80171 243.50465,318.37039 244.72831,330.60696 C 245.95196,342.84349 259.40789,347.7331 259.40786,347.7331 L 302.2764,358.68958 L 304.723,443.15019 L 312.06277,451.66007 L 358.54802,449.21348 L 365.8878,438.257 L 357.27154,358.68958 L 363.4412,347.7331 L 380.56735,346.45662 L 380.56735,336.67025 L 370.78098,328.16037 L 379.29086,319.54411 L 398.96997,321.9907 L 398.96997,313.48082 L 385.46053,303.69445 L 389.18361,297.52478 L 414.81963,306.14104 L 417.26623,295.07819 L 758.16384,297.52478 L 769.12032,308.58763 L 801.22231,308.74759 L 801.16001,189.32836 L 460.13477,182.65362 L 458.85829,95.852797 L 446.62533,94.576307 z M 253.34457,302.41796 L 274.08741,306.14104 L 275.25752,306.24741 C 277.89453,313.93269 281.4569,326.47977 278.98059,330.60696 C 278.52174,331.37173 278.31961,332.00306 278.23598,332.52168 C 278.21624,332.67939 278.22546,332.91685 278.23598,333.05355 C 278.24571,333.13314 278.21634,333.30017 278.23598,333.37267 C 278.28159,333.51305 278.36792,333.6841 278.44873,333.79817 C 278.46309,333.81648 278.53985,333.88691 278.5551,333.90454 C 278.5712,333.92149 278.64452,333.99461 278.66147,334.01091 C 278.67921,334.02657 278.7493,334.10228 278.76785,334.11729 C 278.84508,334.17478 278.99836,334.28221 279.08697,334.33003 C 280.98021,335.27463 285.15026,334.22366 285.15026,334.22366 L 289.72432,308.05576 L 293.66015,308.58763 L 292.49004,341.56344 L 266.74763,337.94673 C 266.7476,337.94673 260.54907,337.84976 257.38676,335.39377 C 256.93884,335.03353 256.50919,334.58455 256.21665,334.11729 C 256.02525,333.79231 255.88674,333.43595 255.79116,333.05355 C 254.5675,328.15897 253.34457,302.41796 253.34457,302.41796 z "
         style="fill:#404040;fill-opacity:1;fill-rule:evenodd;stroke:#000000;stroke-width:23.82767868;stroke-linecap:butt;stroke-linejoin:round;stroke-miterlimit:4;stroke-dasharray:none;stroke-opacity:1" />
      <path
         sodipodi:nodetypes="cccccccccccccccccccccsccccccccccccccccccccccccccccccssc"
         id="path3187"
         d="M 447.01634,96.84437 L 438.50646,183.75157 L 404.25417,184.92168 L 398.0845,193.53793 L 169.27497,192.26145 L 169.27497,186.19816 L 159.4886,183.75157 L 161.93519,175.13531 L 167.99849,175.13531 L 167.99849,142.1595 L 150.87234,139.71291 L 137.46927,180.02849 L 126.40642,180.02849 L 126.40642,192.26145 L 20.699637,193.53793 L 20.699637,198.43112 L 19.423154,274.91637 L 20.699637,280.97966 L 203.52726,283.42625 L 213.31362,292.04251 L 241.50262,293.21262 C 241.50262,293.21262 243.89567,317.7813 245.11932,330.01787 C 246.34297,342.2544 259.79891,347.14401 259.79887,347.14401 L 302.66742,358.10049 L 305.11401,442.5611 L 312.45378,451.07098 L 358.93903,448.62439 L 366.27881,437.66792 L 357.66255,358.10049 L 363.83222,347.14401 L 380.95836,345.86753 L 380.95836,336.08116 L 371.17199,327.57128 L 379.68188,318.95502 L 399.36099,321.40161 L 399.36099,312.89173 L 385.85154,303.10536 L 389.57462,296.93569 L 415.21065,305.55195 L 417.65724,294.4891 L 759.05993,296.93569 L 770.01641,307.99854 L 801.10825,307.65342 L 801.99047,191.09134 L 460.52578,184.92168 L 459.2493,98.12085 L 447.01634,96.84437 z M 253.73558,301.82888 L 274.47842,305.55195 L 294.05116,307.99854 L 292.88105,340.97435 L 267.13865,337.35765 C 267.13861,337.35765 258.94795,337.26625 256.60766,333.5282 C 256.41626,333.20322 256.27775,332.84686 256.18217,332.46446 C 254.95852,327.56988 253.73558,301.82888 253.73558,301.82888 z "
         style="fill:#333333;fill-opacity:1;fill-rule:evenodd;stroke:#333333;stroke-width:10.21186161;stroke-linecap:butt;stroke-linejoin:round;stroke-miterlimit:4;stroke-dasharray:none;stroke-opacity:1" />
      <path
         id="path3251"
         d="M 268.43286,297.29318 C 268.43286,297.29318 278.22209,321.76621 274.55113,327.88448 C 270.88017,334.00274 280.66936,331.55544 280.66936,331.55544 L 286.78763,297.29318 L 268.43286,297.29318 z "
         style="fill:#d0d0d0;fill-opacity:1;fill-rule:evenodd;stroke:#464646;stroke-width:4.25494242;stroke-linecap:butt;stroke-linejoin:miter;stroke-miterlimit:4;stroke-dasharray:none;stroke-opacity:1" />
      <path
         sodipodi:nodetypes="cccccccccccccccscccccccccccccccccccccsssssc"
         id="path2187"
         d="M 415.89654,181.25354 L 403.36281,181.67903 L 397.35486,190.29529 L 392.07206,190.29529 L 391.96848,190.29529 L 49.086606,189.12518 L 19.875676,190.29529 L 19.875676,195.18847 L 17.493252,194.97573 L 17.493252,277.49438 L 18.632692,277.38801 L 19.875676,283.4513 L 207.89821,285.8979 L 217.42802,294.51415 L 244.87801,295.68426 C 244.87798,295.68426 247.20833,320.25295 248.39988,332.48952 C 249.59143,344.72605 262.69465,349.61566 262.69461,349.61566 L 295.11666,358.12554 L 359.33923,358.12554 L 364.00057,349.61566 L 380.67774,348.33918 L 380.67774,338.55281 L 371.14793,330.04292 L 379.43468,321.42667 L 398.59792,323.87326 L 398.59792,315.36337 L 385.44263,305.577 L 389.06811,299.40734 L 414.03203,308.0236 L 416.41449,296.96075 L 416.41449,194.55023 C 416.56191,188.87516 416.39638,184.49601 415.89654,181.25354 z M 256.79025,304.30052 L 276.98928,308.0236 L 296.0489,310.47019 L 294.90947,343.44599 L 269.84193,339.82929 C 269.84186,339.82929 263.37619,339.68306 260.41574,336.95721 C 260.36529,336.90901 260.25677,336.79429 260.20854,336.74446 C 260.04382,336.56711 259.82481,336.30446 259.69063,336.10622 C 259.67214,336.07745 259.60485,336.02905 259.58704,335.99984 C 259.40061,335.67487 259.26578,335.31851 259.17268,334.93611 C 257.98109,330.04153 256.79025,304.30052 256.79025,304.30052 z "
         style="fill:url(#linearGradient3015);fill-opacity:1;fill-rule:evenodd;stroke:none;stroke-width:1pt;stroke-linecap:butt;stroke-linejoin:miter;stroke-opacity:1" />
      <path
         id="path2172"
         d="M 265.89801,272.44928 L 269.62108,296.9152 L 244.09143,296.06421 C 244.48554,300.10774 246.49874,320.24369 247.60176,331.27386 C 248.82537,343.51043 262.28134,348.40001 262.28131,348.40001 L 300.68216,358.18637 L 360.25136,359.14373 L 366.31465,348.40001 L 383.44079,347.12352 L 383.44079,342.23034 L 379.71772,338.50726 L 368.76124,331.16749 L 368.76124,312.87124 L 362.59158,312.87124 L 362.59158,294.46861 L 368.76124,294.46861 L 368.76124,272.44928 L 265.89801,272.44928 z M 256.21801,303.08487 L 276.96086,306.80794 L 296.53359,309.25453 L 295.36348,342.23034 L 269.62108,338.61364 C 269.62101,338.61367 261.43039,338.52224 259.0901,334.78419 C 258.89866,334.45925 258.76019,334.10285 258.66461,333.72045 C 257.44092,328.82591 256.21801,303.08487 256.21801,303.08487 z "
         style="fill:url(#radialGradient3017);fill-opacity:1;fill-rule:evenodd;stroke:#60605a;stroke-width:3.40395393pt;stroke-linecap:butt;stroke-linejoin:miter;stroke-opacity:1" />
      <path
         id="path2194"
         d="M 302.82611,365.2876 L 305.16633,442.86712 L 312.5061,450.91689 L 358.99135,448.60257 L 366.33113,438.23852 L 357.92761,365.2876 L 302.82611,365.2876 z "
         style="fill:url(#linearGradient3019);fill-opacity:1;fill-rule:evenodd;stroke:none;stroke-width:1pt;stroke-linecap:butt;stroke-linejoin:miter;stroke-opacity:1" />
      <path
         id="path2201"
         d="M 446.99299,96.180479 L 438.48311,183.0877 L 416.7829,183.83231 C 417.78448,184.88304 419.14579,185.53429 420.71872,185.53429 L 469.65056,185.53429 C 470.84218,185.53429 471.94258,185.10907 472.84177,184.47055 L 460.50243,184.2578 L 459.22595,97.456969 L 446.99299,96.180479 z "
         style="fill:#6a6969;fill-opacity:1;fill-rule:evenodd;stroke:#a4a4a3;stroke-width:3.40395393pt;stroke-linecap:butt;stroke-linejoin:miter;stroke-opacity:1" />
      <path
         sodipodi:nodetypes="ccccccccccc"
         id="path2208"
         d="M 435.32065,166.48372 L 434.41032,181.00752 L 421.28578,181.69368 L 421.28578,294.68438 L 758.7911,297.31467 L 766.60513,309.20819 L 771.24762,309.66563 L 771.24762,188.78404 L 450.11419,182.26549 L 449.96246,166.48372 L 435.32065,166.48372 z "
         style="fill:url(#linearGradient3021);fill-opacity:1;fill-rule:evenodd;stroke:none;stroke-width:1pt;stroke-linecap:butt;stroke-linejoin:miter;stroke-opacity:1" />
      <rect
         ry="0"
         y="190.22823"
         x="776.02826"
         height="118.30789"
         width="27.031605"
         id="rect3109"
         style="fill:url(#linearGradient3023);fill-opacity:1;fill-rule:nonzero;stroke:none;stroke-width:10;stroke-linecap:round;stroke-linejoin:round;stroke-miterlimit:4;stroke-dasharray:none;stroke-dashoffset:0;stroke-opacity:1" />
      <path
         transform="matrix(2.005998,0,0,2.17143,-217.7837,-59.9952)"
         d="M 289.74066 158.87538 A 1.9771384 1.6176587 0 1 1  285.78638,158.87538 A 1.9771384 1.6176587 0 1 1  289.74066 158.87538 z"
         sodipodi:ry="1.6176587"
         sodipodi:rx="1.9771384"
         sodipodi:cy="158.87538"
         sodipodi:cx="287.76352"
         id="path3191"
         style="opacity:0.53982299;fill:#333333;fill-opacity:1;fill-rule:nonzero;stroke:none;stroke-width:3;stroke-linecap:round;stroke-linejoin:round;stroke-miterlimit:4;stroke-dasharray:none;stroke-dashoffset:0;stroke-opacity:1"
         sodipodi:type="arc" />
      <path
         transform="matrix(2.005994,0,0,2.409485,-285.2435,-83.99283)"
         d="M 289.74066 158.87538 A 1.9771384 1.6176587 0 1 1  285.78638,158.87538 A 1.9771384 1.6176587 0 1 1  289.74066 158.87538 z"
         sodipodi:ry="1.6176587"
         sodipodi:rx="1.9771384"
         sodipodi:cy="158.87538"
         sodipodi:cx="287.76352"
         id="path3193"
         style="opacity:0.53982299;fill:#333333;fill-opacity:1;fill-rule:nonzero;stroke:none;stroke-width:3;stroke-linecap:round;stroke-linejoin:round;stroke-miterlimit:4;stroke-dasharray:none;stroke-dashoffset:0;stroke-opacity:1"
         sodipodi:type="arc" />
      <path
         transform="matrix(2.200762,0,0,-2.451773,-322.6498,713.8472)"
         d="M 289.74066 158.87538 A 1.9771384 1.6176587 0 1 1  285.78638,158.87538 A 1.9771384 1.6176587 0 1 1  289.74066 158.87538 z"
         sodipodi:ry="1.6176587"
         sodipodi:rx="1.9771384"
         sodipodi:cy="158.87538"
         sodipodi:cx="287.76352"
         id="path3195"
         style="opacity:0.53982299;fill:#333333;fill-opacity:1;fill-rule:nonzero;stroke:none;stroke-width:3;stroke-linecap:round;stroke-linejoin:round;stroke-miterlimit:4;stroke-dasharray:none;stroke-dashoffset:0;stroke-opacity:1"
         sodipodi:type="arc" />
      <path
         transform="matrix(2.200762,0,0,-2.451773,-329.2354,727.9845)"
         d="M 289.74066 158.87538 A 1.9771384 1.6176587 0 1 1  285.78638,158.87538 A 1.9771384 1.6176587 0 1 1  289.74066 158.87538 z"
         sodipodi:ry="1.6176587"
         sodipodi:rx="1.9771384"
         sodipodi:cy="158.87538"
         sodipodi:cx="287.76352"
         id="path3197"
         style="opacity:0.53982299;fill:#333333;fill-opacity:1;fill-rule:nonzero;stroke:none;stroke-width:3;stroke-linecap:round;stroke-linejoin:round;stroke-miterlimit:4;stroke-dasharray:none;stroke-dashoffset:0;stroke-opacity:1"
         sodipodi:type="arc" />
      <path
         transform="matrix(2.200762,0,0,-2.451773,-274.5545,731.0651)"
         d="M 289.74066 158.87538 A 1.9771384 1.6176587 0 1 1  285.78638,158.87538 A 1.9771384 1.6176587 0 1 1  289.74066 158.87538 z"
         sodipodi:ry="1.6176587"
         sodipodi:rx="1.9771384"
         sodipodi:cy="158.87538"
         sodipodi:cx="287.76352"
         id="path3199"
         style="opacity:0.53982299;fill:#333333;fill-opacity:1;fill-rule:nonzero;stroke:none;stroke-width:3;stroke-linecap:round;stroke-linejoin:round;stroke-miterlimit:4;stroke-dasharray:none;stroke-dashoffset:0;stroke-opacity:1"
         sodipodi:type="arc" />
      <rect
         ry="11.469189"
         y="197.12117"
         x="197.7825"
         height="86.65609"
         width="13.862746"
         id="rect3201"
         style="opacity:0.53982299;fill:url(#linearGradient3025);fill-opacity:1;fill-rule:nonzero;stroke:none;stroke-width:3;stroke-linecap:round;stroke-linejoin:round;stroke-miterlimit:4;stroke-dasharray:none;stroke-dashoffset:0;stroke-opacity:1" />
      <rect
         ry="10.600924"
         y="222.16508"
         x="411.11475"
         height="80.095863"
         width="13.862746"
         id="rect3211"
         style="opacity:0.53982299;fill:url(#linearGradient3027);fill-opacity:1;fill-rule:nonzero;stroke:none;stroke-width:3;stroke-linecap:round;stroke-linejoin:round;stroke-miterlimit:4;stroke-dasharray:none;stroke-dashoffset:0;stroke-opacity:1" />
      <rect
         ry="15.268641"
         y="193.01784"
         x="782.91949"
         height="115.36304"
         width="13.862746"
         id="rect3215"
         style="opacity:0.53982299;fill:url(#linearGradient3029);fill-opacity:1;fill-rule:nonzero;stroke:none;stroke-width:3;stroke-linecap:round;stroke-linejoin:round;stroke-miterlimit:4;stroke-dasharray:none;stroke-dashoffset:0;stroke-opacity:1" />
      <rect
         ry="6.3197813"
         y="141.33501"
         x="149.26292"
         height="47.749454"
         width="20.023966"
         id="rect3219"
         style="opacity:0.53982299;fill:url(#linearGradient3031);fill-opacity:1;fill-rule:nonzero;stroke:none;stroke-width:3;stroke-linecap:round;stroke-linejoin:round;stroke-miterlimit:4;stroke-dasharray:none;stroke-dashoffset:0;stroke-opacity:1" />
      <rect
         transform="matrix(0.163359,0.986567,-0.999409,3.437884e-2,0,0)"
         ry="6.3055878"
         y="-141.42485"
         x="184.89987"
         height="47.64222"
         width="9.2247944"
         id="rect3223"
         style="opacity:0.53982299;fill:url(#linearGradient3033);fill-opacity:1;fill-rule:nonzero;stroke:none;stroke-width:3;stroke-linecap:round;stroke-linejoin:round;stroke-miterlimit:4;stroke-dasharray:none;stroke-dashoffset:0;stroke-opacity:1" />
      <rect
         ry="9.9893322"
         y="366.9538"
         x="304.83374"
         height="75.474953"
         width="7.7015257"
         id="rect3227"
         style="opacity:0.53982299;fill:url(#linearGradient3035);fill-opacity:1;fill-rule:nonzero;stroke:none;stroke-width:3;stroke-linecap:round;stroke-linejoin:round;stroke-miterlimit:4;stroke-dasharray:none;stroke-dashoffset:0;stroke-opacity:1" />
      <rect
         transform="matrix(0.996462,-8.404753e-2,8.404753e-2,0.996462,0,0)"
         ry="9.9893379"
         y="394.84164"
         x="318.90878"
         height="75.474991"
         width="7.7015295"
         id="rect3231"
         style="opacity:0.53982299;fill:url(#linearGradient3037);fill-opacity:1;fill-rule:nonzero;stroke:none;stroke-width:3;stroke-linecap:round;stroke-linejoin:round;stroke-miterlimit:4;stroke-dasharray:none;stroke-dashoffset:0;stroke-opacity:1" />
      <rect
         rx="9.173667"
         transform="matrix(-7.073636e-3,0.999975,-0.999913,-1.315962e-2,0,0)"
         ry="6.7259865"
         y="-767.80518"
         x="186.80603"
         height="327.49744"
         width="12.32216"
         id="rect3243"
         style="opacity:0.53982299;fill:url(#linearGradient3039);fill-opacity:1;fill-rule:nonzero;stroke:none;stroke-width:3;stroke-linecap:round;stroke-linejoin:round;stroke-miterlimit:4;stroke-dasharray:none;stroke-dashoffset:0;stroke-opacity:1" />
    </g>
  </g>
</svg>
