<?xml version="1.0" encoding="UTF-8" standalone="no"?>
<!-- Created with Inkscape (http://www.inkscape.org/) -->
<svg
   xmlns:dc="http://purl.org/dc/elements/1.1/"
   xmlns:cc="http://web.resource.org/cc/"
   xmlns:rdf="http://www.w3.org/1999/02/22-rdf-syntax-ns#"
   xmlns:svg="http://www.w3.org/2000/svg"
   xmlns="http://www.w3.org/2000/svg"
   xmlns:xlink="http://www.w3.org/1999/xlink"
   xmlns:sodipodi="http://inkscape.sourceforge.net/DTD/sodipodi-0.dtd"
   xmlns:inkscape="http://www.inkscape.org/namespaces/inkscape"
   width="13"
   height="15"
   id="svg2"
   sodipodi:version="0.32"
   inkscape:version="0.43"
   version="1.0"
   sodipodi:docbase="/home/yekcim/Desktop/SVG/Weapons"
   sodipodi:docname="clusterbomb.svg"
   inkscape:output_extension="org.inkscape.output.svg.inkscape">
  <defs
     id="defs4">
    <linearGradient
       id="linearGradient2515">
      <stop
         id="stop2517"
         offset="0"
         style="stop-color:#777777;stop-opacity:1;" />
      <stop
         style="stop-color:#ebebeb;stop-opacity:1;"
         offset="0.5"
         id="stop2523" />
      <stop
         id="stop2519"
         offset="1"
         style="stop-color:#cbcbcb;stop-opacity:1;" />
    </linearGradient>
    <linearGradient
       id="linearGradient2692">
      <stop
         id="stop2694"
         offset="0"
         style="stop-color:#9dbd87;stop-opacity:1;" />
      <stop
         style="stop-color:#4d7531;stop-opacity:1;"
         offset="0.27336448"
         id="stop2700" />
      <stop
         id="stop2702"
         offset="0.75"
         style="stop-color:#4a6c32;stop-opacity:1;" />
      <stop
         id="stop2696"
         offset="1"
         style="stop-color:#27381b;stop-opacity:1;" />
    </linearGradient>
    <linearGradient
       inkscape:collect="always"
       xlink:href="#linearGradient2515"
       id="linearGradient2239"
       gradientUnits="userSpaceOnUse"
       gradientTransform="matrix(0.176168,3.309662e-16,-3.206781e-16,0.170692,-178.605,-104.545)"
       x1="959.53882"
       y1="630.16101"
       x2="985.23077"
       y2="630.16101" />
    <linearGradient
       inkscape:collect="always"
       xlink:href="#linearGradient2515"
       id="linearGradient2243"
       gradientUnits="userSpaceOnUse"
       gradientTransform="matrix(-0.176168,2.838309e-4,3.02364e-4,0.187628,179.0094,-115.4259)"
       x1="985.78931"
       y1="621.25568"
       x2="1011.4193"
       y2="660.35217" />
    <radialGradient
       inkscape:collect="always"
       xlink:href="#linearGradient2692"
       id="radialGradient2245"
       gradientUnits="userSpaceOnUse"
       gradientTransform="matrix(1.041124,-7.731054e-3,1.226509e-2,1.45609,-48.23281,-291.8134)"
       cx="977.37177"
       cy="653.18262"
       fx="977.37177"
       fy="653.18262"
       r="26.809002" />
  </defs>
  <sodipodi:namedview
     id="base"
     pagecolor="#ffffff"
     bordercolor="#666666"
     borderopacity="1.0"
     inkscape:pageopacity="0.0"
     inkscape:pageshadow="2"
     inkscape:zoom="23.747002"
     inkscape:cx="1.9712637"
     inkscape:cy="7.7346044"
     inkscape:document-units="px"
     inkscape:current-layer="layer1"
     inkscape:window-width="880"
     inkscape:window-height="588"
     inkscape:window-x="33"
     inkscape:window-y="175" />
  <metadata
     id="metadata7">
    <rdf:RDF>
      <cc:Work
         rdf:about="">
        <dc:format>image/svg+xml</dc:format>
        <dc:type
           rdf:resource="http://purl.org/dc/dcmitype/StillImage" />
      </cc:Work>
    </rdf:RDF>
  </metadata>
  <g
     inkscape:label="Calque 1"
     inkscape:groupmode="layer"
     id="layer1">
    <path
       style="fill:#232323;fill-opacity:1;fill-rule:evenodd;stroke:#000000;stroke-width:0.69624871;stroke-linecap:butt;stroke-linejoin:miter;stroke-miterlimit:4;stroke-dasharray:none;stroke-opacity:1;display:inline"
       d="M 4.4693739,0.58843531 C 4.5157331,0.55823947 4.5706259,0.53966133 4.6273184,0.53957042 L 10.070446,0.53210611 C 10.251864,0.5318135 10.399444,0.70703633 10.399796,0.92432532 L 10.400988,2.2606096 C 10.390519,2.4660541 10.249913,2.6291897 10.075584,2.6294689 L 9.6207814,2.6295053 L 9.6195685,2.8169197 C 9.6195916,2.8314466 9.6186028,2.8462845 9.6165177,2.8602051 L 9.6168504,3.4512289 C 11.083797,4.445535 12.081994,6.3791091 12.085577,8.5998728 C 12.090802,11.839281 9.9802496,14.471653 7.3732229,14.475859 C 4.7661961,14.480062 2.6460741,11.853835 2.6408475,8.6144279 C 2.6373253,6.4309203 3.5942227,4.522177 5.0176631,3.5091896 L 5.0151938,2.637816 L 4.7737311,2.6372928 C 3.9702412,3.0649802 2.7368137,3.9085594 2.2885006,5.233486 C 1.5521247,7.4097813 2.4259131,9.0909683 2.1734524,9.6611762 C 2.171269,9.6661065 2.1665647,9.6730548 2.1635752,9.6778811 C 2.0062026,9.9181549 0.8685767,10.033884 0.8685767,10.033884 C 0.86857473,10.033886 0.88786252,6.1000779 1.08312,5.1566087 C 1.2684793,4.2610536 2.3338336,1.6883982 4.3002086,1.0007092 L 4.2986325,0.93369762 C 4.2983916,0.78431244 4.3673838,0.65486444 4.4693739,0.58843531 z "
       id="path6939"
       sodipodi:nodetypes="ccccccccccssscccssscsccc" />
    <path
       style="fill:url(#linearGradient2243);fill-opacity:1;fill-rule:evenodd;stroke:none;stroke-width:1pt;stroke-linecap:butt;stroke-linejoin:miter;stroke-opacity:1;display:inline"
       d="M 5.4626491,2.2811443 C 5.4626491,2.2811443 2.9305247,3.1841417 2.242852,5.2164543 C 1.5064713,7.3927506 2.3785009,9.0750421 2.1260393,9.64525 C 2.0142963,9.8976288 0.8219325,10.014547 0.8219325,10.014547 C 0.8219325,10.014547 0.84195285,6.0834766 1.0372122,5.1400074 C 1.2324908,4.196541 2.4048026,1.3899503 4.5779639,0.88887812 C 5.6530808,0.64098782 6.1223963,0.62646939 6.1223963,0.62646939 L 5.4626491,2.2811443 z "
       id="path2506"
       sodipodi:nodetypes="csscsscc" />
    <path
       sodipodi:type="arc"
       style="color:#000000;fill:url(#radialGradient2245);fill-opacity:1;fill-rule:evenodd;stroke:none;stroke-width:6;stroke-linecap:butt;stroke-linejoin:miter;marker:none;marker-start:none;marker-mid:none;marker-end:none;stroke-miterlimit:4;stroke-dasharray:none;stroke-dashoffset:10.99997587;stroke-opacity:1;visibility:visible;display:inline;overflow:visible"
       id="path1627"
       sodipodi:cx="972.38483"
       sodipodi:cy="659.48334"
       sodipodi:rx="26.809002"
       sodipodi:ry="31.277168"
       d="M 999.19383 659.48334 A 26.809002 31.277168 0 1 1  945.57582,659.48334 A 26.809002 31.277168 0 1 1  999.19383 659.48334 z"
       transform="matrix(-0.176168,2.838309e-4,3.02364e-4,0.187628,178.4189,-115.425)" />
    <rect
       style="color:#000000;fill:url(#linearGradient2239);fill-opacity:1;fill-rule:evenodd;stroke:none;stroke-width:6;stroke-linecap:butt;stroke-linejoin:miter;marker:none;marker-start:none;marker-mid:none;marker-end:none;stroke-miterlimit:4;stroke-dasharray:none;stroke-dashoffset:10.99997587;stroke-opacity:1;visibility:visible;display:inline;overflow:visible"
       id="rect2502"
       width="4.6004753"
       height="1.5966753"
       x="-9.5651836"
       y="2.2082217"
       rx="0.27878556"
       ry="0.27967933"
       transform="matrix(-0.999999,1.611404e-3,1.611404e-3,0.999999,0,0)" />
    <rect
       style="opacity:0.30973451;color:#000000;fill:#000000;fill-opacity:1;fill-rule:evenodd;stroke:none;stroke-width:6;stroke-linecap:butt;stroke-linejoin:miter;marker:none;marker-start:none;marker-mid:none;marker-end:none;stroke-miterlimit:4;stroke-dasharray:none;stroke-dashoffset:10.99997587;stroke-opacity:1;visibility:visible;display:inline;overflow:visible"
       id="rect2541"
       width="4.6004753"
       height="1.5966753"
       x="-9.5675058"
       y="1.4989789"
       rx="0.27878556"
       ry="0.27967933"
       transform="matrix(-0.999999,1.611404e-3,1.611404e-3,0.999999,0,0)" />
    <rect
       style="color:#000000;fill:#000000;fill-opacity:1;fill-rule:evenodd;stroke:none;stroke-width:6;stroke-linecap:butt;stroke-linejoin:miter;marker:none;marker-start:none;marker-mid:none;marker-end:none;stroke-miterlimit:4;stroke-dasharray:none;stroke-dashoffset:10.99997587;stroke-opacity:1;visibility:visible;display:inline;overflow:visible"
       id="rect2504"
       width="6.1003947"
       height="2.0958946"
       x="-10.352324"
       y="0.53150529"
       rx="0.32746953"
       ry="0.39221954"
       transform="matrix(-0.999999,1.611404e-3,1.611404e-3,0.999999,0,0)" />
    <path
       sodipodi:nodetypes="csssssssscccccccccccssssssssssccccsssssssssssssccccssssssssssccccsssssssssssscccccccccccsssssssssssssscccccccccccssssssssssssccccssssssssssccccsssssssssccccsssssssssscccccccccccssssssccccccccccccccccccccccccccccccccccccccccccccccccccccccccccccc"
       style="opacity:0.18879053;color:#000000;fill:#ffffff;fill-opacity:1;fill-rule:evenodd;stroke:none;stroke-width:6;stroke-linecap:butt;stroke-linejoin:miter;marker:none;marker-start:none;marker-mid:none;marker-end:none;stroke-miterlimit:4;stroke-dasharray:none;stroke-dashoffset:10.99997587;stroke-opacity:1;visibility:visible;display:inline;overflow:visible"
       d="M 7.4127918,3.8812441 C 7.4103671,3.8815014 7.4074504,3.8886749 7.4050707,3.8889905 C 7.3934163,3.8908536 7.3766352,3.8936087 7.3664178,3.8967858 C 7.3604861,3.8988371 7.3485059,3.9021011 7.3432302,3.9045571 C 7.3398733,3.9062786 7.3307995,3.9104377 7.3277765,3.912315 C 7.3263522,3.9132905 7.3213873,3.9190497 7.3200554,3.9200595 C 7.3175799,3.9221511 7.3144147,3.9255901 7.3123343,3.927807 C 7.3113986,3.928945 7.3054437,3.9343876 7.3046143,3.9355525 C 7.302453,3.9391245 7.2980253,3.9472534 7.2969048,3.9510311 C 7.2966541,3.9523116 7.2970445,3.9574682 7.2969175,3.9587641 L 7.2989482,5.2192842 L 6.4869569,5.2205935 C 6.6445646,4.7835835 6.8293653,4.3423082 7.0493542,3.8972965 L 6.8405567,3.8976331 C 6.6057961,4.3287759 6.3951911,4.7688997 6.2162929,5.2210286 L 5.3269704,5.2224602 C 5.5575316,4.7951458 5.8264875,4.35375 6.1445627,3.8987539 L 5.7501668,3.89939 C 5.4660087,4.3452385 5.2133864,4.7850066 4.9944401,5.2229968 L 4.1283158,5.224393 C 3.8693738,5.2248101 3.6474867,5.2596356 3.5639264,5.3103681 C 3.5623637,5.3113953 3.5576547,5.3170779 3.5562039,5.3181137 C 3.5508521,5.3223053 3.5442524,5.3292571 3.5407635,5.3336056 C 3.540009,5.3346996 3.5336722,5.3402465 3.5330429,5.3413511 C 3.5326613,5.3424739 3.5333117,5.3479557 3.5330554,5.349086 C 3.5329273,5.3502212 3.5330668,5.3556753 3.5330678,5.3568181 C 3.5331969,5.3579543 3.5328201,5.3634237 3.5330802,5.3645512 C 3.5346123,5.3678841 3.53821,5.3767533 3.5408382,5.3800059 C 3.5418308,5.381079 3.5474714,5.3866603 3.5485836,5.3877266 C 3.5571755,5.3951058 3.5733311,5.4040572 3.5872872,5.4108636 C 3.683741,5.4549773 3.890514,5.4877074 4.1287394,5.4873239 L 4.8633978,5.48614 C 4.5099806,6.2389431 4.2613721,6.9821427 4.1323525,7.7299662 L 3.4131603,7.7311262 C 3.1749301,7.7315097 2.968269,7.7649065 2.8719568,7.80933 C 2.862006,7.8142246 2.8483042,7.8196605 2.8410493,7.8248469 C 2.8397124,7.8258949 2.8345519,7.8315346 2.8333287,7.8325923 C 2.8322184,7.8336605 2.8265979,7.839261 2.8256081,7.8403378 C 2.8238618,7.8425136 2.8191479,7.8458742 2.8178865,7.8480824 C 2.8173787,7.8491955 2.8182814,7.8546956 2.817899,7.8558164 C 2.8176446,7.8569449 2.8180395,7.8624133 2.8179114,7.8635494 C 2.8179133,7.8646933 2.8177937,7.8701473 2.8179247,7.8712826 C 2.8183093,7.8724045 2.8174265,7.8779065 2.8179363,7.8790166 C 2.8185703,7.8801186 2.8249263,7.8856449 2.8256827,7.8867377 C 2.8274356,7.8889071 2.8312056,7.8923287 2.8334282,7.8944588 C 2.8346543,7.8955135 2.8398328,7.9011345 2.8411727,7.9021799 C 2.8426283,7.9032115 2.8473537,7.9088787 2.8489192,7.9098999 C 2.932645,7.9603643 3.154643,7.9944728 3.413584,7.9940558 L 4.0941099,7.9929595 C 3.9945853,8.7322602 4.0189024,9.4713888 4.1750432,10.227745 L 3.4945182,10.228842 C 3.2303966,10.229268 3.0020637,10.275257 2.9224302,10.338028 C 2.9209813,10.339272 2.9160484,10.344517 2.9147114,10.345774 C 2.9134873,10.347043 2.9080993,10.35224 2.9069899,10.353521 C 2.9040175,10.3574 2.9011705,10.365023 2.8992817,10.368999 C 2.8977601,10.373007 2.8919551,10.38039 2.8915735,10.384478 C 2.8915754,10.385849 2.8914549,10.390849 2.8915859,10.392212 C 2.891844,10.393564 2.898946,10.398588 2.8993314,10.399933 C 2.8998431,10.401264 2.8987098,10.406343 2.8993429,10.407664 C 2.9001013,10.408978 2.9062134,10.414082 2.9070902,10.415387 C 2.9140554,10.424417 2.9255937,10.437888 2.9380732,10.44627 C 3.0287498,10.503025 3.2464423,10.546306 3.4950289,10.545906 L 4.2451543,10.544698 C 4.4259718,11.25377 4.7265113,11.97363 5.1611791,12.716269 L 4.7590492,12.716917 C 4.5208257,12.7173 4.3141685,12.75731 4.2178705,12.810588 C 4.2079206,12.816457 4.1942286,12.827618 4.1869765,12.833839 C 4.1856395,12.835096 4.1804781,12.840315 4.1792549,12.841583 C 4.1781456,12.842865 4.172525,12.848036 4.1715342,12.849328 C 4.1706641,12.850635 4.1723003,12.855748 4.1715458,12.857063 C 4.1709174,12.858388 4.1643349,12.863473 4.163827,12.864809 C 4.1634436,12.866154 4.1640938,12.871187 4.1638386,12.872542 C 4.1637114,12.873906 4.1638491,12.878903 4.1638509,12.880275 C 4.163981,12.881638 4.1636032,12.886654 4.1638643,12.888009 C 4.1650206,12.89204 4.1693538,12.899524 4.1716203,12.903463 C 4.1733743,12.906066 4.1771557,12.916362 4.1793793,12.918917 C 4.1842911,12.92398 4.1959051,12.929499 4.2026043,12.934345 C 4.2899575,12.993011 4.5057957,13.034389 4.7595599,13.03398 L 5.3550212,13.033021 C 5.6544895,13.50713 5.9826694,13.782061 6.394142,14.275712 L 6.7885387,14.275076 C 6.3842178,13.795714 6.0327498,13.524951 5.7030177,13.03246 L 6.2443437,13.031589 C 6.4175697,13.529087 6.5949911,13.825979 6.8350624,14.352333 L 7.043859,14.351998 C 6.83038,13.843759 6.657793,13.54552 6.4918084,13.03119 L 7.3115337,13.029868 L 7.2912745,14.320666 C 7.291405,14.321963 7.2910319,14.32712 7.2912849,14.3284 C 7.2924193,14.332173 7.2968713,14.340286 7.2990453,14.343854 C 7.2998781,14.345015 7.3058503,14.35044 7.3067906,14.351574 C 7.3079354,14.352649 7.3132954,14.358253 7.314536,14.359295 C 7.3158725,14.360303 7.3208547,14.366045 7.3222825,14.367016 C 7.3253114,14.368884 7.3343979,14.373015 7.3377605,14.374724 C 7.3430443,14.377163 7.3550349,14.380388 7.3609735,14.38242 C 7.3712002,14.385565 7.3879905,14.388266 7.3996519,14.39009 C 7.4115558,14.391624 7.4254559,14.397782 7.4383302,14.397763 C 7.4743828,14.397704 7.5131489,14.385251 7.5388247,14.374401 C 7.5423399,14.372765 7.5510844,14.368441 7.5542796,14.366642 C 7.561839,14.361948 7.5722551,14.356678 7.5774533,14.351138 C 7.580265,14.347726 7.5833389,14.339306 7.5851618,14.335658 C 7.585655,14.334421 7.5847759,14.329185 7.585149,14.327925 C 7.5856515,14.325368 7.5928759,14.322808 7.5928725,14.320181 L 7.6131306,13.029384 L 8.4019219,13.028112 C 8.2239737,13.542997 7.9924363,13.841888 7.7630522,14.350839 L 7.9873178,14.350477 C 8.2454239,13.823322 8.486742,13.525756 8.6725857,13.027675 L 9.2448453,13.026753 C 8.8903166,13.518869 8.4683911,13.79374 8.0335925,14.27307 L 8.4666537,14.272372 C 8.9107583,13.776955 9.3165023,13.501588 9.6392409,13.026117 L 10.08777,13.025395 C 10.320817,13.025027 10.46009,12.916242 10.46009,12.916242 C 10.466369,12.91277 10.477928,12.904348 10.483264,12.900739 C 10.489947,12.895872 10.501545,12.890314 10.506439,12.885237 C 10.508656,12.882673 10.512401,12.872366 10.514148,12.869755 C 10.516403,12.86581 10.520711,12.858313 10.521857,12.854277 C 10.522111,12.852923 10.521716,12.847906 10.521842,12.846544 C 10.521841,12.845172 10.521962,12.840174 10.521832,12.838812 C 10.521571,12.837458 10.522205,12.83242 10.521819,12.831077 C 10.521307,12.829745 10.514707,12.824679 10.514074,12.823356 C 10.511804,12.819417 10.509651,12.811736 10.506315,12.807902 C 10.505088,12.806637 10.49991,12.801434 10.498569,12.800182 C 10.489844,12.792744 10.472447,12.783953 10.459864,12.777044 C 10.360917,12.725951 10.320305,12.707956 10.08726,12.708331 L 9.8397957,12.708731 C 10.307825,11.964638 10.632797,11.243769 10.826151,10.534092 L 11.344278,10.533258 C 11.603219,10.532845 11.682261,10.46435 11.765806,10.403494 C 11.773613,10.397341 11.784014,10.386721 11.788968,10.380258 C 11.789841,10.378952 11.795936,10.373828 11.796687,10.372513 C 11.797318,10.371188 11.796167,10.366112 11.796676,10.364779 C 11.79782,10.360744 11.804391,10.353414 11.804385,10.349301 C 11.804255,10.347937 11.7969,10.342934 11.796639,10.34158 C 11.796254,10.340236 11.797138,10.335179 11.796626,10.333845 C 11.794726,10.329875 11.791855,10.322262 11.788868,10.318392 C 11.787754,10.317115 11.782349,10.311936 11.781123,10.31067 C 11.774413,10.304409 11.759597,10.293433 11.750153,10.287522 C 11.65644,10.232665 11.587174,10.215802 11.343769,10.216195 L 10.902973,10.216905 C 11.069416,9.4602149 11.094562,8.7206404 10.984438,7.9818561 L 11.363367,7.9812462 C 11.648203,7.9807876 11.889969,7.9385179 11.950931,7.8797686 C 11.951924,7.8786897 11.957782,7.8731103 11.958653,7.8720217 C 11.959406,7.8709277 11.958011,7.8653933 11.958641,7.8642887 C 11.959148,7.8631764 11.965979,7.857665 11.966362,7.8565433 C 11.966488,7.855407 11.966351,7.8499529 11.966349,7.8488092 C 11.966219,7.847674 11.966596,7.8422046 11.966338,7.8410771 C 11.965951,7.8399572 11.959103,7.8344668 11.95859,7.8333554 C 11.954056,7.826793 11.944077,7.8163889 11.935353,7.8101936 C 11.924401,7.8030478 11.905008,7.7935904 11.888917,7.787069 C 11.785829,7.7476079 11.585634,7.7179582 11.362942,7.7183168 L 10.937615,7.7190016 C 10.795448,6.9716151 10.52257,6.2292554 10.137475,5.4776427 L 10.593737,5.4769073 C 10.873394,5.4764559 11.10747,5.4325833 11.17357,5.3754403 C 11.174679,5.374372 11.1803,5.3687726 11.18129,5.3676948 C 11.18391,5.3644337 11.187477,5.3555539 11.188998,5.3522153 C 11.189254,5.3510877 11.188859,5.3456184 11.188987,5.3444821 C 11.188985,5.3433384 11.189105,5.3378852 11.188974,5.3367501 C 11.188715,5.3356225 11.189347,5.3301359 11.188961,5.3290151 C 11.18833,5.3279125 11.181972,5.3223885 11.181215,5.3212955 C 11.177712,5.3169594 11.171089,5.3100268 11.165724,5.3058542 C 11.16427,5.3048214 11.159544,5.299154 11.157978,5.2981326 C 11.15463,5.2961147 11.146277,5.2923925 11.1425,5.2904243 C 11.048802,5.2447375 10.83672,5.2135843 10.593314,5.2139765 L 9.997852,5.2149357 C 9.7593767,4.7776818 9.4850879,4.3387621 9.1759976,3.8938699 L 8.7429351,3.8945689 C 9.0891189,4.3489453 9.3909514,4.788567 9.6421231,5.2155095 L 8.6754679,5.2170664 C 8.4802985,4.7655409 8.2483811,4.3261305 7.9928094,3.8957769 L 7.7685473,3.8961383 C 8.0081743,4.3404108 8.2095318,4.7810616 8.3816037,5.2175398 L 7.6005462,5.2187974 L 7.5985154,3.9582792 C 7.5985108,3.9556511 7.5912783,3.9531168 7.5907689,3.9505586 C 7.5903912,3.9492991 7.5912529,3.9440602 7.5907562,3.9428246 C 7.588923,3.9391848 7.5858202,3.9307746 7.5829981,3.92737 C 7.5819539,3.9262663 7.5763975,3.9207242 7.5752528,3.9196493 C 7.5615976,3.908196 7.5365363,3.8951906 7.513336,3.8888165 C 7.4938115,3.8840634 7.4669031,3.8811571 7.4437248,3.8811954 C 7.433423,3.8812126 7.4224917,3.8802218 7.4127918,3.8812441 z M 5.188195,5.4856168 L 6.1239179,5.4841097 C 5.8622896,6.1989217 5.6748522,6.9472272 5.57847,7.7276375 L 4.4030174,7.7295301 C 4.5348917,7.0222922 4.78942,6.2746151 5.188195,5.4856168 z M 6.3945818,5.4836726 L 7.299371,5.482216 L 7.3029855,7.7248583 L 5.8878012,7.7271382 C 5.9738509,6.9890351 6.140459,6.2433396 6.3945818,5.4836726 z M 7.600969,5.4817292 L 8.4825603,5.4803091 C 8.7601448,6.23899 8.9395981,6.9843786 9.0352341,7.7220676 L 7.6045835,7.7243715 L 7.600969,5.4817292 z M 8.7764245,5.4798348 L 9.7894779,5.4782032 C 10.223793,6.2658597 10.498628,7.0126857 10.643752,7.7194759 L 9.3754976,7.7215187 C 9.2685446,6.9414374 9.0620292,6.1937679 8.7764245,5.4798348 z M 4.3570408,7.9925356 L 5.5479624,7.9906157 C 5.4791146,8.7045352 5.4819788,9.4447172 5.5747623,10.225489 L 4.437974,10.227322 C 4.2803547,9.5176542 4.2423446,8.7803935 4.3570408,7.9925356 z M 5.8572916,7.990119 L 7.3034095,7.9877879 L 7.3070101,10.222699 L 5.8840924,10.224992 C 5.8056601,9.4906049 5.7881809,8.7434341 5.8572916,7.990119 z M 7.6050074,7.9873016 L 9.066591,7.9849473 C 9.1439903,8.73814 9.1371518,9.4851283 9.0547251,10.219883 L 7.6086081,10.222213 L 7.6050074,7.9873016 z M 9.4068534,7.9843986 L 10.690573,7.9823309 C 10.817372,8.7698007 10.785083,9.5071734 10.616841,10.217366 L 9.3795222,10.219359 C 9.47742,9.4380358 9.4837941,8.6982869 9.4068534,7.9843986 z M 4.5158173,10.544261 L 5.6216723,10.542479 C 5.7236711,11.236362 5.8906339,11.960106 6.1355681,12.714699 L 5.5014406,12.715721 C 5.0653947,12.017448 4.723515,11.299539 4.5158173,10.544261 z M 5.9232694,10.541992 L 7.3075219,10.539762 L 7.311022,12.712804 L 6.390766,12.714288 C 6.1752166,11.997586 6.0210029,11.273809 5.9232694,10.541992 z M 7.6091187,10.539276 L 9.0165689,10.537009 C 8.9132304,11.269151 8.7405983,11.993453 8.5096766,12.710873 L 7.6126188,12.71232 L 7.6091187,10.539276 z M 9.341366,10.536485 L 10.532288,10.534567 C 10.309992,11.290538 9.9382698,12.009599 9.4685991,12.709328 L 8.7880743,12.710426 C 9.050719,11.954892 9.233289,11.230812 9.341366,10.536485 z "
       id="path6487" />
    <path
       sodipodi:nodetypes="csssssssscccccccccccssssssssssccccsssssssssssssccccssssssssssccccsssssssssssscccccccccccsssssssssssssscccccccccccssssssssssssccccssssssssssccccsssssssssccccsssssssssscccccccccccssssssccccccccccccccccccccccccccccccccccccccccccccccccccccccccccccc"
       style="opacity:0.94100294;color:#000000;fill:#2f4025;fill-opacity:1;fill-rule:evenodd;stroke:none;stroke-width:6;stroke-linecap:butt;stroke-linejoin:miter;marker:none;marker-start:none;marker-mid:none;marker-end:none;stroke-miterlimit:4;stroke-dasharray:none;stroke-dashoffset:10.99997587;stroke-opacity:1;visibility:visible;display:inline;overflow:visible"
       d="M 7.3394771,3.775571 C 7.3370524,3.7758293 7.3341356,3.7830019 7.3317549,3.7833184 C 7.3201004,3.7851813 7.3033182,3.7879347 7.293102,3.7911126 C 7.2871702,3.793165 7.2751891,3.796429 7.2699148,3.7988831 C 7.266557,3.8006054 7.2574832,3.8047637 7.2544592,3.8066429 C 7.2530371,3.8076174 7.2480718,3.8133756 7.2467395,3.8143874 C 7.2442635,3.8164781 7.241098,3.819918 7.2390189,3.8221338 C 7.2380817,3.8232701 7.2321283,3.8287155 7.2312973,3.8298804 C 7.2291369,3.8334513 7.2247109,3.8415794 7.2235891,3.8453579 C 7.2233386,3.8466385 7.2237288,3.8517952 7.2236015,3.853092 L 7.2256328,5.1136111 L 6.413641,5.1149194 C 6.5712478,4.6779113 6.7560495,4.236636 6.9760383,3.7916233 L 6.7672417,3.791961 C 6.5324792,4.2231018 6.3218732,4.6632265 6.1429779,5.1153555 L 5.2536545,5.1167891 C 5.4842176,4.6894717 5.7531716,4.2480769 6.0712478,3.7930808 L 5.6768519,3.7937168 C 5.3926948,4.2395644 5.1400705,4.6793325 4.9211242,5.1173246 L 4.0549999,5.1187199 C 3.796058,5.1191369 3.5741708,5.1539624 3.4906105,5.204696 C 3.489046,5.2057212 3.4843397,5.2114049 3.482888,5.2124406 C 3.4775352,5.2166322 3.4709365,5.223584 3.4674477,5.2279325 C 3.466694,5.2290265 3.4603563,5.2345744 3.4597261,5.2356779 C 3.4593455,5.2368008 3.4599948,5.2422844 3.4597386,5.2434111 C 3.4596123,5.2445482 3.4597491,5.2500013 3.4597509,5.2511431 C 3.459881,5.2522803 3.4595051,5.2577506 3.4597634,5.2588781 C 3.4612964,5.262213 3.4648942,5.2710793 3.4675223,5.2743319 C 3.468516,5.2754077 3.4741556,5.280988 3.4752678,5.2820535 C 3.4838587,5.2894336 3.5000162,5.298385 3.5139723,5.3051904 C 3.6104252,5.3493041 3.8171972,5.3820343 4.0554235,5.3816508 L 4.7900829,5.3804668 C 4.4366657,6.1332701 4.1880543,6.8764696 4.0590366,7.6242931 L 3.3398435,7.6254521 C 3.1016152,7.6258347 2.8949532,7.6592325 2.7986409,7.7036578 C 2.78869,7.7085505 2.7749893,7.7139874 2.7677335,7.7191737 C 2.7663965,7.7202229 2.7612351,7.7258605 2.7600128,7.7269192 C 2.7589025,7.7279875 2.753283,7.7335869 2.7522913,7.7346647 C 2.7505459,7.7368404 2.7458321,7.740201 2.7445706,7.7424102 C 2.7440637,7.7435225 2.7449656,7.7490224 2.744584,7.7501424 C 2.7443277,7.7512727 2.7447237,7.7567422 2.7445965,7.7578763 C 2.7445974,7.7590192 2.7444779,7.7644752 2.7446079,7.7656104 C 2.7449933,7.7667312 2.7441097,7.7722341 2.7446223,7.7733424 C 2.7452545,7.7744452 2.7516103,7.779971 2.7523668,7.781065 C 2.7541198,7.783234 2.7578898,7.7866549 2.7601123,7.7887857 C 2.7613393,7.7898395 2.766518,7.7954619 2.7678578,7.7965053 C 2.7693125,7.7975372 2.7740378,7.8032045 2.7756033,7.8042269 C 2.8593282,7.8546898 3.0813271,7.8887997 3.3402671,7.8883838 L 4.020795,7.8872876 C 3.9212693,8.6265871 3.9455856,9.3657157 4.1017273,10.122072 L 3.4212033,10.123169 C 3.1570807,10.123594 2.9287478,10.169583 2.8491153,10.232357 C 2.8476645,10.2336 2.8427307,10.238844 2.8413956,10.240102 C 2.8401724,10.241371 2.8347834,10.246567 2.833674,10.247848 C 2.8307007,10.251728 2.8278546,10.259351 2.8259658,10.263326 C 2.8244461,10.267333 2.8186401,10.274717 2.8182566,10.278805 C 2.8182586,10.280177 2.8181381,10.285177 2.8182709,10.286539 C 2.8185282,10.287892 2.8256301,10.292916 2.8260146,10.294259 C 2.8265262,10.295593 2.8253948,10.30067 2.826028,10.301994 C 2.8267854,10.303305 2.8328974,10.308409 2.8337744,10.309713 C 2.8407405,10.318741 2.8522779,10.332215 2.8647573,10.340597 C 2.9554329,10.397352 3.1731264,10.440633 3.421713,10.440232 L 4.1718375,10.439024 C 4.3526559,11.148098 4.6531954,11.867958 5.0878622,12.610597 L 4.6857333,12.611245 C 4.4475108,12.611627 4.2408516,12.651637 4.1445557,12.704916 C 4.1346038,12.710784 4.1209127,12.721945 4.1136606,12.728166 C 4.1123246,12.729422 4.1071622,12.73464 4.1059399,12.735911 C 4.1048306,12.737192 4.0992092,12.742363 4.0982184,12.743655 C 4.0973462,12.744962 4.0989845,12.750074 4.0982309,12.75139 C 4.0976026,12.752715 4.0910189,12.7578 4.0905102,12.759137 C 4.0901287,12.760479 4.090778,12.765514 4.0905236,12.766869 C 4.0903955,12.768232 4.0905322,12.773231 4.090535,12.774602 C 4.0906662,12.775965 4.0902883,12.780982 4.0905484,12.782336 C 4.0917046,12.786366 4.0960379,12.793852 4.0983055,12.79779 C 4.1000584,12.800392 4.1038399,12.810688 4.1060633,12.813242 C 4.1109752,12.818305 4.1225892,12.823826 4.1292884,12.828673 C 4.2166416,12.887339 4.4324798,12.928717 4.686245,12.928307 L 5.2817054,12.927349 C 5.5811746,13.401457 5.9698696,13.806708 6.381343,14.300358 L 6.7757389,14.299722 C 6.371419,13.82036 5.9594339,13.419278 5.6297027,12.926788 L 6.1710287,12.925916 C 6.3442548,13.423414 6.5821904,13.850627 6.8222644,14.376979 L 7.031061,14.376643 C 6.8175803,13.868407 6.5844771,13.439846 6.4184926,12.925517 L 7.2382165,12.924196 L 7.2784751,14.345314 C 7.2786062,14.346609 7.2782332,14.351766 7.2784866,14.353046 C 7.2796198,14.356819 7.2840717,14.364935 7.2862455,14.368499 C 7.2870789,14.369662 7.2930511,14.375086 7.2939914,14.37622 C 7.2951362,14.377294 7.3004962,14.382899 7.301738,14.383942 C 7.3030733,14.38495 7.3080555,14.390693 7.3094822,14.391664 C 7.3125122,14.39353 7.3215975,14.39766 7.3249613,14.399371 C 7.3302439,14.40181 7.3422368,14.405033 7.3481743,14.407066 C 7.358401,14.410212 7.3751924,14.412913 7.3868527,14.414737 C 7.3987566,14.416274 7.4126555,14.422428 7.425531,14.422409 C 7.4615848,14.42235 7.5003474,14.409897 7.5260255,14.399047 C 7.529543,14.39741 7.5382864,14.393089 7.5414804,14.391289 C 7.5490398,14.386595 7.5594548,14.381328 7.5646553,14.375785 C 7.5674658,14.372371 7.5705409,14.363951 7.5723637,14.360305 C 7.5728558,14.359067 7.5719767,14.353833 7.5723498,14.352572 C 7.5728523,14.350014 7.5800756,14.347454 7.5800709,14.344826 L 7.5398135,12.923709 L 8.328606,12.922439 C 8.1506578,13.437325 7.9796371,13.866535 7.7502518,14.375487 L 7.9745174,14.375124 C 8.2326247,13.847968 8.4134261,13.420082 8.5992699,12.922003 L 9.1715306,12.921082 C 8.8170007,13.413196 8.4555919,13.818389 8.0207921,14.297716 L 8.4538545,14.29702 C 8.8979591,13.801602 9.2431865,13.395914 9.5659251,12.920446 L 10.014455,12.919722 C 10.247502,12.919352 10.449127,12.885209 10.547912,12.833797 C 10.554191,12.830322 10.56575,12.821901 10.571087,12.818293 C 10.577771,12.813425 10.589367,12.807867 10.594262,12.802789 C 10.596477,12.800227 10.600225,12.789918 10.601971,12.787311 C 10.604227,12.783365 10.608534,12.775868 10.609679,12.771832 C 10.609934,12.770478 10.609539,12.765461 10.609667,12.764099 C 10.609665,12.762728 10.609784,12.757729 10.609654,12.756364 C 10.609393,12.755012 10.610027,12.749975 10.609642,12.748632 C 10.60913,12.747299 10.602528,12.742234 10.601895,12.740911 C 10.599626,12.736971 10.597475,12.729291 10.594136,12.725457 C 10.592911,12.724191 10.587733,12.718989 10.586392,12.717737 C 10.577668,12.710298 10.56027,12.701508 10.547687,12.694599 C 10.448738,12.643506 10.246991,12.602284 10.013945,12.602658 L 9.7664798,12.603058 C 10.234508,11.858966 10.559481,11.138096 10.752837,10.428419 L 11.270963,10.427585 C 11.529904,10.427173 11.704164,10.372403 11.787708,10.311548 C 11.795515,10.305392 11.805917,10.294774 11.810871,10.288311 C 11.811742,10.287004 11.817839,10.28188 11.818591,10.280565 C 11.81922,10.279239 11.81807,10.274166 11.818579,10.272831 C 11.819722,10.268795 11.826293,10.261467 11.826287,10.257352 C 11.826155,10.255989 11.818801,10.250985 11.818541,10.249631 C 11.818157,10.248287 11.819041,10.24323 11.818528,10.241899 C 11.816627,10.237927 11.813757,10.230316 11.81077,10.226444 C 11.809656,10.225167 11.804251,10.219989 11.803026,10.218724 C 11.796316,10.212461 11.781499,10.201485 11.772055,10.195574 C 11.678343,10.140718 11.513858,10.110129 11.270452,10.110521 L 10.829657,10.111231 C 10.9961,9.3545406 11.021246,8.6149685 10.911122,7.8761853 L 11.290053,7.8755742 C 11.574887,7.8751145 11.816653,7.8328447 11.877617,7.7740951 C 11.878606,7.7730154 11.884466,7.7674379 11.885337,7.7663486 C 11.88609,7.7652536 11.884696,7.7597202 11.885325,7.7586156 C 11.885833,7.7575034 11.892663,7.751991 11.893046,7.7508701 C 11.893172,7.7497349 11.893035,7.7442789 11.893034,7.743137 C 11.892902,7.7420018 11.893281,7.7365325 11.893021,7.7354031 C 11.892635,7.7342822 11.885786,7.7287946 11.885273,7.7276824 C 11.88074,7.72112 11.870761,7.7107167 11.862038,7.7045205 C 11.851084,7.6973737 11.83169,7.6879183 11.8156,7.6813959 C 11.712514,7.6419349 11.512319,7.6122851 11.289629,7.6126437 L 10.864299,7.6133276 C 10.722131,6.865944 10.449253,6.1235822 10.06416,5.3719697 L 10.520423,5.3712342 C 10.800079,5.3707838 11.034153,5.3269092 11.100254,5.2697671 C 11.101363,5.2686999 11.106984,5.2630994 11.107975,5.2620217 C 11.110593,5.2587605 11.114162,5.2498817 11.115684,5.2465421 C 11.115938,5.2454137 11.115544,5.2399452 11.115671,5.2388091 C 11.115669,5.2376672 11.115788,5.2322112 11.115658,5.231076 C 11.1154,5.2299495 11.116033,5.2244628 11.115647,5.223343 C 11.115014,5.2222403 11.108656,5.2167155 11.1079,5.2156224 C 11.104397,5.2112853 11.097774,5.2043546 11.092409,5.2001811 C 11.090954,5.1991492 11.086228,5.1934818 11.084663,5.1924604 C 11.081314,5.1904406 11.072961,5.1867204 11.069184,5.1847513 C 10.975487,5.1390644 10.763404,5.1079113 10.519999,5.1083033 L 9.9245372,5.1092626 C 9.6860608,4.6720088 9.4117732,4.2330899 9.1026829,3.7881986 L 8.6696193,3.7888959 C 9.0158042,4.2432722 9.3176378,4.6828949 9.5688072,5.1098364 L 8.602152,5.1113943 C 8.4069826,4.6598679 8.1750641,4.2204575 7.9194959,3.7901046 L 7.6952291,3.7904653 C 7.9348584,4.2347378 8.1362148,4.6753904 8.308289,5.1118667 L 7.5272303,5.1131252 L 7.5251973,3.8526061 C 7.5251938,3.8499781 7.5179613,3.8474428 7.517453,3.8448855 C 7.5170753,3.843626 7.5179382,3.8383871 7.5174403,3.8371525 C 7.5156048,3.8335125 7.5125043,3.8251005 7.5096823,3.8216968 C 7.508638,3.8205941 7.5030828,3.8150521 7.5019369,3.8139771 C 7.4882806,3.8025239 7.4632205,3.7895184 7.4400213,3.7831443 C 7.4204956,3.7783913 7.3935873,3.775484 7.3704089,3.7755213 C 7.3601072,3.7755385 7.3491747,3.7745506 7.3394771,3.775571 z M 5.1148783,5.3799438 L 6.0506029,5.3784365 C 5.7889727,6.0932496 5.6015372,6.8415541 5.5051551,7.6219644 L 4.3297016,7.623857 C 4.4615768,6.9166191 4.7161042,6.1689411 5.1148783,5.3799438 z M 6.321266,5.3780005 L 7.2260564,5.376543 L 7.2296695,7.6191842 L 5.8144843,7.6214642 C 5.900535,6.8833611 6.0671431,6.1376655 6.321266,5.3780005 z M 7.5276531,5.3760571 L 8.4092444,5.3746359 C 8.6868277,6.1333169 8.8662823,6.8787055 8.961917,7.6163936 L 7.5312665,7.6186984 L 7.5276531,5.3760571 z M 8.7031086,5.3741625 L 9.7161632,5.3725301 C 10.150477,6.1601856 10.425311,6.9070125 10.570435,7.6138019 L 9.3021818,7.6158456 C 9.1952299,6.8357653 8.9887133,6.0880959 8.7031086,5.3741625 z M 4.283724,7.8868636 L 5.4746465,7.8849437 C 5.4057996,8.5988632 5.4086629,9.3390441 5.5014454,10.119816 L 4.3646582,10.121647 C 4.2070389,9.4119811 4.1690287,8.6747204 4.283724,7.8868636 z M 5.7839767,7.8844459 L 7.2300933,7.8821159 L 7.233693,10.117024 L 5.8107766,10.119318 C 5.7323443,9.3849318 5.7148649,8.637761 5.7839767,7.8844459 z M 7.5316893,7.8816307 L 8.9932762,7.8792742 C 9.0706756,8.6324669 9.0638359,9.3794563 8.9814093,10.114209 L 7.5352899,10.116539 L 7.5316893,7.8816307 z M 9.3335364,7.8787267 L 10.617258,7.8766578 C 10.744057,8.6641264 10.711767,9.4014991 10.543525,10.111692 L 9.3062064,10.113686 C 9.4041041,9.3323626 9.4104783,8.5926138 9.3335364,7.8787267 z M 4.4425015,10.438587 L 5.5483555,10.436804 C 5.6503561,11.130689 5.8173171,11.854434 6.0622523,12.609027 L 5.4281257,12.610048 C 4.9920788,11.911777 4.6502001,11.193866 4.4425015,10.438587 z M 5.8499536,10.436318 L 7.2342055,10.434088 L 7.2377077,12.607132 L 6.3174501,12.608614 C 6.1019017,11.891913 5.9476889,11.168136 5.8499536,10.436318 z M 7.5358016,10.433602 L 8.9432542,10.431336 C 8.8399157,11.163478 8.6672824,11.88778 8.4363607,12.605202 L 7.5393018,12.606647 L 7.5358016,10.433602 z M 9.268049,10.43081 L 10.458971,10.428893 C 10.236676,11.184865 9.8649528,11.903927 9.3952833,12.603656 L 8.7147561,12.604753 C 8.9774043,11.849218 9.1599732,11.125138 9.268049,10.43081 z "
       id="rect2545" />
  </g>
</svg>
