<?xml version="1.0" encoding="UTF-8" standalone="no"?>
<!-- Created with Inkscape (http://www.inkscape.org/) -->
<svg
   xmlns:dc="http://purl.org/dc/elements/1.1/"
   xmlns:cc="http://web.resource.org/cc/"
   xmlns:rdf="http://www.w3.org/1999/02/22-rdf-syntax-ns#"
   xmlns:svg="http://www.w3.org/2000/svg"
   xmlns="http://www.w3.org/2000/svg"
   xmlns:xlink="http://www.w3.org/1999/xlink"
   xmlns:sodipodi="http://inkscape.sourceforge.net/DTD/sodipodi-0.dtd"
   xmlns:inkscape="http://www.inkscape.org/namespaces/inkscape"
   width="48"
   height="48"
   id="svg2"
   sodipodi:version="0.32"
   inkscape:version="0.43"
   version="1.0"
   sodipodi:docbase="/home/yekcim/Desktop/SVG/Weapons"
   sodipodi:docname="clusterbomb_ico.svg"
   inkscape:output_extension="org.inkscape.output.svg.inkscape">
  <defs
     id="defs4">
    <linearGradient
       id="linearGradient2515">
      <stop
         id="stop2517"
         offset="0"
         style="stop-color:#777777;stop-opacity:1;" />
      <stop
         style="stop-color:#ebebeb;stop-opacity:1;"
         offset="0.5"
         id="stop2523" />
      <stop
         id="stop2519"
         offset="1"
         style="stop-color:#cbcbcb;stop-opacity:1;" />
    </linearGradient>
    <linearGradient
       id="linearGradient2692">
      <stop
         id="stop2694"
         offset="0"
         style="stop-color:#9dbd87;stop-opacity:1;" />
      <stop
         style="stop-color:#4d7531;stop-opacity:1;"
         offset="0.27336448"
         id="stop2700" />
      <stop
         id="stop2702"
         offset="0.75"
         style="stop-color:#4a6c32;stop-opacity:1;" />
      <stop
         id="stop2696"
         offset="1"
         style="stop-color:#27381b;stop-opacity:1;" />
    </linearGradient>
    <linearGradient
       inkscape:collect="always"
       xlink:href="#linearGradient2515"
       id="linearGradient1863"
       gradientUnits="userSpaceOnUse"
       gradientTransform="matrix(1.211894,-0.930205,0.990722,1.290738,-1236.537,400.5879)"
       x1="985.78931"
       y1="621.25568"
       x2="1011.4193"
       y2="660.35217" />
    <radialGradient
       inkscape:collect="always"
       xlink:href="#linearGradient2692"
       id="radialGradient1865"
       gradientUnits="userSpaceOnUse"
       gradientTransform="matrix(1.041124,-7.731054e-3,1.226509e-2,1.45609,-48.23281,-291.8134)"
       cx="977.37177"
       cy="653.18262"
       fx="977.37177"
       fy="653.18262"
       r="26.809002" />
    <linearGradient
       inkscape:collect="always"
       xlink:href="#linearGradient2515"
       id="linearGradient1867"
       gradientUnits="userSpaceOnUse"
       gradientTransform="matrix(1.527733,2.635166e-15,-2.553252e-15,1.480246,-1219.688,-343.271)"
       x1="959.53882"
       y1="630.16101"
       x2="985.23077"
       y2="630.16101" />
    <linearGradient
       inkscape:collect="always"
       xlink:href="#linearGradient2515"
       id="linearGradient1869"
       gradientUnits="userSpaceOnUse"
       gradientTransform="matrix(1.211894,-0.930205,0.990722,1.290738,-1236.537,400.5879)"
       x1="937.27484"
       y1="632.90613"
       x2="966.67078"
       y2="647.76099" />
    <linearGradient
       inkscape:collect="always"
       xlink:href="#linearGradient2515"
       id="linearGradient1871"
       gradientUnits="userSpaceOnUse"
       gradientTransform="matrix(1.564244,-4.891537e-16,-1.053964e-15,1.592055,-748.0842,-1103.226)"
       x1="381.65939"
       y1="1072.2004"
       x2="395.62241"
       y2="1072.2004" />
  </defs>
  <sodipodi:namedview
     id="base"
     pagecolor="#ffffff"
     bordercolor="#666666"
     borderopacity="1.0"
     inkscape:pageopacity="0.0"
     inkscape:pageshadow="2"
     inkscape:zoom="11.873501"
     inkscape:cx="33.517911"
     inkscape:cy="22.29505"
     inkscape:document-units="px"
     inkscape:current-layer="layer1"
     inkscape:window-width="1430"
     inkscape:window-height="821"
     inkscape:window-x="0"
     inkscape:window-y="25" />
  <metadata
     id="metadata7">
    <rdf:RDF>
      <cc:Work
         rdf:about="">
        <dc:format>image/svg+xml</dc:format>
        <dc:type
           rdf:resource="http://purl.org/dc/dcmitype/StillImage" />
      </cc:Work>
    </rdf:RDF>
  </metadata>
  <g
     inkscape:label="Calque 1"
     inkscape:groupmode="layer"
     id="layer1">
    <path
       style="fill:#232323;fill-opacity:1;fill-rule:evenodd;stroke:#000000;stroke-width:1.581;stroke-linecap:butt;stroke-linejoin:miter;stroke-miterlimit:4;stroke-dasharray:none;stroke-opacity:1;display:inline"
       d="M 13.963111,6.7354688 C 14.081408,6.6316169 14.228454,6.5570143 14.388071,6.533744 L 29.713664,4.3032194 C 30.224444,4.2287544 30.711178,4.6622991 30.80037,5.2740727 L 31.088374,7.1987064 L 32.272706,7.8926666 C 33.510153,6.6832669 36.646924,7.1418267 39.699294,9.0646683 C 39.830292,9.1471923 39.960368,9.2276525 40.087059,9.3130048 C 43.203663,11.412876 44.992328,14.323154 44.102687,15.949055 C 43.176879,17.641062 39.694857,17.307687 36.341178,15.195035 C 33.550823,13.437236 31.726539,11.005868 31.726373,9.2634464 L 31.346162,9.0367559 C 31.40007,9.6195668 31.070328,10.136055 30.579506,10.207606 L 29.298732,10.392326 L 29.371393,10.920604 C 29.377356,10.961503 29.380593,11.00369 29.38037,11.04374 L 29.62122,12.708011 C 34.155962,14.91265 37.751917,19.952676 38.66347,26.205209 C 39.993144,35.32572 35.118077,43.595582 27.778024,44.665684 C 20.437972,45.735783 13.401352,39.200563 12.071676,30.080054 C 11.175417,23.932416 13.095367,18.168694 16.692781,14.738166 L 16.332115,12.285254 L 15.651908,12.381797 C 13.562776,13.912383 10.431699,16.788703 9.7070071,20.701868 C 8.5166816,27.129539 11.659831,31.509304 11.180327,33.217576 C 11.176181,33.232345 11.165751,33.253821 11.159291,33.268626 C 10.813641,34.009153 7.6569018,34.796856 7.6569018,34.796856 C 7.6568972,34.796861 6.1143805,23.710868 6.281277,20.974663 C 6.4397455,18.377411 8.3956276,10.699993 13.65407,7.9651599 L 13.622431,7.7770867 C 13.561112,7.3564925 13.702857,6.9639429 13.963111,6.7354688 z M 33.880543,8.7982091 C 33.871146,8.8046912 33.868299,8.8135966 33.8591,8.8202616 L 34.297711,9.075136 C 34.743276,9.3357412 34.960057,9.8390384 34.777515,10.19951 C 34.594966,10.559984 34.087285,10.642812 33.641725,10.382197 L 33.305415,10.183894 C 33.444558,11.470671 34.784592,13.172736 36.765359,14.42052 C 39.280619,16.005018 41.901377,16.267594 42.59573,14.998594 C 43.246698,13.808903 41.982797,11.694462 39.750479,10.129795 C 39.60166,10.025486 39.432319,9.9382074 39.275113,9.839183 C 37.123399,8.4837042 34.909511,8.0886064 33.880543,8.7982091 z "
       id="path6939" />
    <g
       id="g6819"
       transform="matrix(-0.228723,0.235227,0.235227,0.228723,81.34569,-191.5851)">
      <path
         sodipodi:nodetypes="csscsscc"
         id="path2506"
         d="M 578.67278,291.02863 C 578.67278,291.02863 600.84826,283.83461 616.32663,294.15932 C 632.90151,305.21557 635.81157,321.38824 640.56331,323.97012 C 642.66647,325.11287 651.47749,319.60703 651.47749,319.60703 C 651.47749,319.60703 630.53945,292.70378 624.2057,287.25467 C 617.87184,281.80568 594.96672,268.72552 577.38428,276.78166 C 568.68582,280.76725 565.38447,283.15079 565.38447,283.15079 L 578.67278,291.02863 z "
         style="fill:url(#linearGradient1863);fill-opacity:1;fill-rule:evenodd;stroke:none;stroke-width:1pt;stroke-linecap:butt;stroke-linejoin:miter;stroke-opacity:1;display:inline" />
      <path
         transform="matrix(1.211894,-0.930205,0.990722,1.290738,-1232.475,397.4705)"
         d="M 999.19383 659.48334 A 26.809002 31.277168 0 1 1  945.57582,659.48334 A 26.809002 31.277168 0 1 1  999.19383 659.48334 z"
         sodipodi:ry="31.277168"
         sodipodi:rx="26.809002"
         sodipodi:cy="659.48334"
         sodipodi:cx="972.38483"
         id="path1627"
         style="color:#000000;fill:url(#radialGradient1865);fill-opacity:1;fill-rule:evenodd;stroke:none;stroke-width:6;stroke-linecap:butt;stroke-linejoin:miter;marker:none;marker-start:none;marker-mid:none;marker-end:none;stroke-miterlimit:4;stroke-dasharray:none;stroke-dashoffset:10.99997587;stroke-opacity:1;visibility:visible;display:inline;overflow:visible"
         sodipodi:type="arc" />
      <rect
         transform="matrix(0.793263,-0.608879,0.608879,0.793263,0,0)"
         ry="2.425386"
         rx="2.417635"
         y="582.49536"
         x="246.22949"
         height="13.846409"
         width="39.895435"
         id="rect2502"
         style="color:#000000;fill:url(#linearGradient1867);fill-opacity:1;fill-rule:evenodd;stroke:none;stroke-width:6;stroke-linecap:butt;stroke-linejoin:miter;marker:none;marker-start:none;marker-mid:none;marker-end:none;stroke-miterlimit:4;stroke-dasharray:none;stroke-dashoffset:10.99997587;stroke-opacity:1;visibility:visible;display:inline;overflow:visible" />
      <rect
         transform="matrix(0.793263,-0.608879,0.608879,0.793263,0,0)"
         ry="2.425386"
         rx="2.417635"
         y="576.34479"
         x="246.20935"
         height="13.846409"
         width="39.895435"
         id="rect2541"
         style="opacity:0.30973451;color:#000000;fill:#000000;fill-opacity:1;fill-rule:evenodd;stroke:none;stroke-width:6;stroke-linecap:butt;stroke-linejoin:miter;marker:none;marker-start:none;marker-mid:none;marker-end:none;stroke-miterlimit:4;stroke-dasharray:none;stroke-dashoffset:10.99997587;stroke-opacity:1;visibility:visible;display:inline;overflow:visible" />
      <rect
         transform="matrix(0.793263,-0.608879,0.608879,0.793263,0,0)"
         ry="3.4013376"
         rx="2.8398237"
         y="567.95483"
         x="239.40338"
         height="18.175648"
         width="52.902775"
         id="rect2504"
         style="color:#000000;fill:#000000;fill-opacity:1;fill-rule:evenodd;stroke:none;stroke-width:6;stroke-linecap:butt;stroke-linejoin:miter;marker:none;marker-start:none;marker-mid:none;marker-end:none;stroke-miterlimit:4;stroke-dasharray:none;stroke-dashoffset:10.99997587;stroke-opacity:1;visibility:visible;display:inline;overflow:visible" />
      <path
         id="path6487"
         d="M 573.74056,312.34122 C 573.75858,312.33016 573.81658,312.36401 573.8346,312.35359 C 573.92453,312.30472 574.05441,312.23485 574.14142,312.20262 C 574.19303,312.18533 574.29261,312.14436 574.34185,312.13332 C 574.37403,312.12738 574.45838,312.10795 574.48908,312.10485 C 574.50403,312.10402 574.56861,312.11732 574.58311,312.11721 C 574.61119,312.11848 574.65113,312.12536 574.67715,312.12959 C 574.6896,312.13245 574.75932,312.13834 574.77118,312.14195 C 574.80493,312.15506 574.87836,312.18748 574.90605,312.20751 C 574.91454,312.21498 574.93915,312.25248 574.94688,312.26071 L 581.60272,320.9321 L 587.18859,316.6446 C 583.79336,314.47599 580.18873,312.42196 576.32257,310.52845 L 577.75893,309.42595 C 581.65321,311.14601 585.42904,313.05559 589.05054,315.21543 L 595.16838,310.51959 C 591.32321,308.80361 587.13974,307.19404 582.54682,305.75094 L 585.25996,303.66844 C 589.57144,305.22816 593.63408,306.91297 597.45593,308.76376 L 603.41419,304.19042 C 605.19551,302.82315 606.9043,301.88835 607.74686,301.79478 C 607.76303,301.79357 607.82545,301.80769 607.8409,301.80713 C 607.89985,301.80761 607.98198,301.82046 608.02896,301.83187 C 608.03993,301.8354 608.11282,301.83998 608.12299,301.84424 C 608.13155,301.84993 608.15609,301.89104 608.16383,301.89745 C 608.17072,301.90457 608.19862,301.94278 608.20466,301.95064 C 608.20978,301.95913 608.24131,301.99471 608.24549,302.00384 C 608.2526,302.03484 608.27481,302.11482 608.27396,302.15107 C 608.27282,302.1637 608.2636,302.23189 608.2616,302.2451 C 608.24161,302.34126 608.17798,302.48825 608.1181,302.60886 C 607.68882,303.42232 606.44133,304.74129 604.80253,305.99918 L 599.74865,309.87835 C 606.16018,313.18059 611.80079,316.97142 616.6442,321.42681 L 621.59169,317.62931 C 623.23052,316.3714 624.82714,315.50735 625.72393,315.30296 C 625.8182,315.28393 625.9411,315.24878 626.01839,315.24602 C 626.03312,315.24615 626.09842,315.25759 626.11242,315.25839 C 626.1257,315.25986 626.19395,315.26859 626.20645,315.27075 C 626.22996,315.27646 626.28013,315.27461 626.30048,315.28311 C 626.30986,315.28807 626.33276,315.33063 626.34132,315.33631 C 626.34904,315.34272 626.37526,315.38238 626.38215,315.38951 C 626.38819,315.39738 626.41787,315.43422 626.42298,315.44271 C 626.42627,315.45245 626.46145,315.48558 626.46382,315.49591 C 626.4653,315.50684 626.45087,315.57844 626.45145,315.58994 C 626.45089,315.61413 626.44309,315.65759 626.43909,315.68398 C 626.43625,315.69772 626.43041,315.76374 626.42673,315.77801 C 626.42219,315.7928 626.41971,315.85674 626.41436,315.87204 C 626.10613,316.66178 624.76133,318.07079 622.98002,319.43806 L 618.29853,323.0314 C 622.8942,327.58429 626.63807,332.79128 629.56739,338.81416 L 634.24887,335.22083 C 636.06582,333.82621 637.87797,332.93401 638.75725,332.94393 C 638.77379,332.94481 638.83543,332.95474 638.85127,332.95631 C 638.86639,332.95855 638.93091,332.96574 638.94531,332.96868 C 638.98626,332.9796 639.04615,333.01691 639.08017,333.03423 C 639.11183,333.05372 639.19078,333.07373 639.21504,333.0998 C 639.22228,333.10923 639.24956,333.14294 639.25587,333.153 C 639.26125,333.16366 639.23904,333.23576 639.24351,333.24703 C 639.24704,333.25889 639.2817,333.28779 639.28434,333.30022 C 639.28608,333.31325 639.2711,333.38067 639.27197,333.39426 C 639.27189,333.49316 639.2639,333.64678 639.22251,333.7704 C 638.89981,334.64014 637.63312,336.08939 635.92304,337.40198 L 630.76277,341.36282 C 633.27234,347.1914 635.01642,353.72758 635.95948,361.12998 L 638.72582,359.00664 C 640.36461,357.74877 641.9962,356.93018 642.93974,356.78669 C 643.03916,356.77437 643.19228,356.7786 643.27503,356.78297 C 643.29086,356.78453 643.35394,356.79308 643.36906,356.79532 C 643.38346,356.79826 643.44944,356.80405 643.46309,356.80769 C 643.47598,356.81206 643.49179,356.85585 643.50393,356.86089 C 643.51526,356.86667 643.5874,356.86678 643.59795,356.87326 C 643.6077,356.88048 643.62987,356.9185 643.63879,356.92646 C 643.64688,356.93515 643.67238,356.97022 643.67963,356.97966 C 643.68594,356.98971 643.71508,357.02218 643.72045,357.03286 C 643.73384,357.06668 643.74367,357.14103 643.74893,357.18008 C 643.75066,357.20725 643.77916,357.298 643.7774,357.32732 C 643.77044,357.38809 643.71985,357.48747 643.69946,357.55621 C 643.40971,358.4215 642.14569,359.84786 640.39999,361.18779 L 636.30369,364.33197 C 636.75478,369.174 635.95471,372.79947 635.73966,378.36842 L 633.02652,380.45092 C 633.26803,375.01799 634.25017,371.29793 633.90974,366.16947 L 630.18584,369.0278 C 631.62808,373.36255 631.98002,376.3412 633.11566,381.2279 L 631.6793,382.3304 C 630.45681,377.70887 630.06453,374.74655 628.48348,370.33447 L 622.84441,374.6628 L 629.81361,383.42428 C 629.81957,383.43388 629.84942,383.46734 629.85445,383.47748 C 629.86663,383.5094 629.87897,383.58871 629.88291,383.62472 C 629.88333,383.6371 629.871,383.70598 629.87054,383.71874 C 629.86836,383.73218 629.86119,383.79905 629.85817,383.81277 C 629.85433,383.82677 629.85048,383.89259 629.84581,383.90681 C 629.83488,383.93567 629.79431,384.01213 629.78025,384.04167 C 629.75685,384.08638 629.69153,384.17199 629.66148,384.21737 C 629.60786,384.2931 629.50679,384.4005 629.43632,384.47473 C 629.36266,384.54826 629.29973,384.66412 629.21117,384.73211 C 628.96315,384.92247 628.63092,385.04203 628.39709,385.10334 C 628.36427,385.1107 628.28132,385.12726 628.24985,385.13181 C 628.17307,385.13956 628.07363,385.15847 628.00859,385.14791 C 627.97122,385.13934 627.90554,385.09775 627.87372,385.08234 C 627.86379,385.07644 627.84213,385.03582 627.83289,385.02914 C 627.81591,385.01422 627.75273,385.03486 627.73885,385.01679 L 620.76966,376.25531 L 615.34339,380.42031 C 619.29043,383.01635 622.46278,383.8448 626.73182,386.12791 L 625.18905,387.31208 C 620.62634,385.05588 617.3938,384.28828 613.48143,381.84948 L 609.54474,384.87114 C 614.58452,386.3764 618.93787,386.03242 624.46152,387.02509 L 621.4824,389.31176 C 615.80969,388.25779 611.5649,388.51274 606.8316,386.95364 L 603.74607,389.32198 C 602.14293,390.55257 600.61043,390.54208 600.61043,390.54208 C 600.5489,390.55144 600.42493,390.55474 600.36916,390.55818 C 600.29749,390.5601 600.1884,390.58328 600.1279,390.57429 C 600.09912,390.56841 600.01884,390.51741 599.99303,390.50872 C 599.95666,390.49355 599.88739,390.46483 599.85816,390.44316 C 599.84925,390.4352 599.82542,390.39865 599.81734,390.38996 C 599.8101,390.38052 599.78281,390.34682 599.7765,390.33677 C 599.77113,390.32609 599.74012,390.29484 599.73566,390.28356 C 599.73213,390.2717 599.75068,390.20197 599.74803,390.18953 C 599.74278,390.15046 599.71692,390.08629 599.71956,390.04229 C 599.7213,390.02711 599.72934,389.96397 599.73193,389.94827 C 599.75252,389.851 599.82554,389.69855 599.87543,389.5845 C 600.28492,388.70989 600.46873,388.37137 602.0719,387.14084 L 603.77426,385.83417 C 596.62136,383.19822 590.57424,379.96487 585.49065,376.112 L 581.92635,378.84784 C 580.14506,380.21513 579.23956,380.16276 578.34354,380.1867 C 578.25734,380.18572 578.12969,380.1678 578.06145,380.1496 C 578.04855,380.14524 577.97955,380.1423 577.96743,380.13724 C 577.95609,380.13147 577.93714,380.09051 577.92659,380.08404 C 577.89738,380.06237 577.81345,380.04678 577.79172,380.01848 C 577.78541,380.00842 577.80946,379.93513 577.80409,379.92445 C 577.79962,379.91318 577.76679,379.88311 577.76325,379.87124 C 577.7553,379.8339 577.73474,379.76641 577.73479,379.72401 C 577.73568,379.70934 577.74541,379.64516 577.74714,379.62998 C 577.76011,379.55145 577.80383,379.39764 577.83745,379.30706 C 578.19105,378.4343 578.57773,377.95193 580.25217,376.66669 L 583.2845,374.33919 C 578.13704,370.0209 574.05097,365.07258 570.89846,359.41392 L 568.29173,361.41476 C 566.33229,362.91875 564.44752,363.90759 563.7178,363.82651 C 563.70528,363.82435 563.63551,363.81701 563.62377,363.81414 C 563.6128,363.81061 563.5931,363.76521 563.58293,363.76095 C 563.57356,363.75599 563.49746,363.75427 563.4889,363.74858 C 563.48202,363.74145 563.4541,363.70325 563.44806,363.69538 C 563.44295,363.68689 563.41142,363.65131 563.40723,363.64219 C 563.40396,363.63245 563.42196,363.55849 563.4196,363.54815 C 563.41603,363.47907 563.42954,363.35478 563.4567,363.26605 C 563.49414,363.159 563.57734,362.99141 563.65339,362.86146 C 564.15287,362.04487 565.37147,360.78186 566.90341,359.606 L 569.82932,357.36017 C 566.85146,351.47286 564.79827,344.92845 563.46713,337.7267 L 560.3284,340.13587 C 558.40458,341.61252 556.56417,342.54965 555.80766,342.50679 C 555.79439,342.50532 555.72614,342.49659 555.71363,342.49442 C 555.67838,342.48588 555.60688,342.44375 555.57876,342.42886 C 555.57104,342.42246 555.54482,342.38279 555.53793,342.37566 C 555.53189,342.36779 555.50221,342.33096 555.4971,342.32247 C 555.49291,342.31335 555.45954,342.279 555.45626,342.26926 C 555.45477,342.25834 555.46922,342.18674 555.46863,342.17523 C 555.46976,342.1269 555.47858,342.04423 555.49336,341.98717 C 555.49789,341.97238 555.50037,341.90844 555.50573,341.89313 C 555.51806,341.86155 555.55575,341.79178 555.57129,341.75827 C 555.97331,340.94859 557.26562,339.61235 558.94006,338.32712 L 563.03637,335.18294 C 562.36122,330.91686 561.92332,326.44983 561.69292,321.75762 L 564.67206,319.47096 C 564.69779,324.4246 564.95015,329.0422 565.48351,333.30461 L 572.13334,328.20044 C 571.08513,324.06545 570.35351,319.81925 569.83233,315.51012 L 571.37508,314.32596 C 572.07946,318.64636 573.02761,322.73938 574.1549,326.64877 L 579.52796,322.5246 L 572.87213,313.85322 C 572.85825,313.83514 572.89454,313.77945 572.8845,313.75919 C 572.88043,313.74853 572.84679,313.7171 572.84366,313.70598 C 572.837,313.67127 572.81382,313.59707 572.81519,313.55875 C 572.81653,313.54564 572.82538,313.47816 572.82755,313.46472 C 572.86078,313.31377 572.96415,313.09181 573.08982,312.92525 C 573.19882,312.78929 573.36832,312.62694 573.52777,312.50456 C 573.59864,312.45017 573.66851,312.38552 573.74056,312.34122 z M 597.5143,311.59335 L 591.07726,316.53419 C 596.65712,320.06109 601.90445,324.21068 606.69605,329.06265 L 614.78224,322.85598 C 610.13396,318.69455 604.42899,314.90428 597.5143,311.59335 z M 589.2153,317.96335 L 582.99106,322.74086 L 594.83273,338.16849 L 604.56809,330.69599 C 600.07134,326.08002 594.98093,321.83815 589.2153,317.96335 z M 580.9163,324.33336 L 574.85164,328.98837 C 576.95886,335.66981 579.66997,341.74069 582.91622,347.31516 L 592.75797,339.76099 L 580.9163,324.33336 z M 572.83009,330.54003 L 565.86107,335.8892 C 567.04477,343.59903 569.10814,350.18448 571.85088,355.80851 L 580.57547,349.11183 C 577.18266,343.18621 574.64542,336.95647 572.83009,330.54003 z M 616.48977,324.41973 L 608.29716,330.70807 C 612.54775,335.24889 616.4446,340.34961 619.93841,346.205 L 627.75863,340.2025 C 625.08652,334.49258 621.44661,329.22597 616.48977,324.41973 z M 606.16922,332.34141 L 596.22106,339.97724 L 608.02191,355.35167 L 617.81047,347.83834 C 614.46349,342.37759 610.63008,337.15152 606.16922,332.34141 z M 594.1463,341.56974 L 584.09175,349.28725 C 587.54533,354.87175 591.54486,359.96789 595.99899,364.58002 L 605.94715,356.94418 L 594.1463,341.56974 z M 581.75101,351.08391 L 572.92002,357.86226 C 576.21557,363.94364 580.33908,368.83905 585.25286,372.82835 L 593.76464,366.29502 C 588.9578,361.44479 584.99977,356.39594 581.75101,351.08391 z M 628.90081,342.79198 L 621.2934,348.63115 C 624.26414,353.93832 626.94654,359.79439 629.25645,366.27499 L 633.61875,362.92665 C 632.91992,355.82178 631.47019,349.08026 628.90081,342.79198 z M 619.21864,350.22365 L 609.69607,357.53282 L 621.17024,372.48165 L 627.50089,367.62249 C 625.18958,361.55772 622.4194,355.76887 619.21864,350.22365 z M 607.62131,359.12532 L 597.93916,366.55699 C 602.52315,371.04052 607.54176,375.10353 612.92444,378.81082 L 619.0955,374.07416 L 607.62131,359.12532 z M 595.70481,368.27199 L 587.51221,374.56034 C 593.0396,378.57815 599.39836,381.5517 606.3278,383.87416 L 611.00929,380.28084 C 605.20697,376.47953 600.12127,372.47063 595.70481,368.27199 z "
         style="opacity:0.18879053;color:#000000;fill:#ffffff;fill-opacity:1;fill-rule:evenodd;stroke:none;stroke-width:6;stroke-linecap:butt;stroke-linejoin:miter;marker:none;marker-start:none;marker-mid:none;marker-end:none;stroke-miterlimit:4;stroke-dasharray:none;stroke-dashoffset:10.99997587;stroke-opacity:1;visibility:visible;display:inline;overflow:visible"
         sodipodi:nodetypes="csssssssscccccccccccssssssssssccccsssssssssssssccccssssssssssccccsssssssssssscccccccccccsssssssssssssscccccccccccssssssssssssccccssssssssssccccsssssssssccccsssssssssscccccccccccssssssccccccccccccccccccccccccccccccccccccccccccccccccccccccccccccc" />
      <path
         id="path2508"
         d="M 526.88506,336.34976 C 524.85161,347.62187 527.42851,357.70831 532.8717,359.21894 C 538.53619,360.791 545.19702,352.47419 547.70627,340.65686 C 550.2155,328.83953 547.62114,318.00489 541.95664,316.43286 C 536.29216,314.86081 529.68936,323.14297 527.18011,334.96029 C 527.0821,335.42189 526.96774,335.89156 526.88506,336.34976 z M 529.40775,337.35429 C 529.49604,336.80746 529.64619,336.23128 529.76383,335.67735 C 531.64576,326.81438 536.57902,320.57214 540.82738,321.75117 C 545.07572,322.93019 547.0045,331.07683 545.12256,339.93983 C 543.24063,348.80285 538.24933,355.07966 534.00098,353.90062 C 530.01811,352.79528 528.08368,345.55689 529.40775,337.35429 z "
         style="opacity:1;color:#000000;fill:url(#linearGradient1869);fill-opacity:1;fill-rule:evenodd;stroke:none;stroke-width:1pt;stroke-linecap:butt;stroke-linejoin:miter;marker:none;marker-start:none;marker-mid:none;marker-end:none;stroke-miterlimit:4;stroke-dasharray:none;stroke-dashoffset:0;stroke-opacity:1;visibility:visible;display:inline;overflow:visible" />
      <rect
         transform="matrix(0.239785,-0.970826,0.95456,0.29802,0,0)"
         ry="2.7925971"
         rx="2.8398314"
         y="601.55389"
         x="-151.07568"
         height="4.4459801"
         width="21.841585"
         id="rect2513"
         style="color:#000000;fill:url(#linearGradient1871);fill-opacity:1;fill-rule:evenodd;stroke:none;stroke-width:6;stroke-linecap:butt;stroke-linejoin:miter;marker:none;marker-start:none;marker-mid:none;marker-end:none;stroke-miterlimit:4;stroke-dasharray:none;stroke-dashoffset:10.99997587;stroke-opacity:1;visibility:visible;display:inline;overflow:visible" />
      <path
         id="rect2545"
         d="M 573.68514,311.22724 C 573.70316,311.21618 573.76115,311.25003 573.77918,311.23961 C 573.86912,311.19074 573.99899,311.12086 574.086,311.08864 C 574.13761,311.07135 574.2372,311.03038 574.28643,311.01933 C 574.31861,311.0134 574.40296,310.99396 574.43368,310.99087 C 574.44861,310.99004 574.51319,311.00333 574.5277,311.00323 C 574.55577,311.00449 574.59572,311.01138 574.62173,311.0156 C 574.63418,311.01845 574.7039,311.02436 574.71577,311.02797 C 574.74951,311.04107 574.82293,311.0735 574.85063,311.09353 C 574.85913,311.101 574.88373,311.13849 574.89147,311.14673 L 581.5473,319.81812 L 587.13317,315.53061 C 583.73796,313.36201 580.13332,311.30798 576.26715,309.41447 L 577.70351,308.31198 C 581.59779,310.03202 585.37363,311.9416 588.99512,314.10145 L 595.11297,309.40562 C 591.26778,307.68963 587.08432,306.08006 582.4914,304.63696 L 585.20454,302.55446 C 589.51601,304.11418 593.57866,305.79898 597.40052,307.64978 L 603.35877,303.07644 C 605.14009,301.70917 606.84888,300.77437 607.69145,300.6808 C 607.70762,300.67957 607.77003,300.69371 607.78548,300.69315 C 607.84444,300.69363 607.92656,300.70647 607.97354,300.71789 C 607.98451,300.72142 608.05741,300.726 608.06758,300.73025 C 608.07613,300.73595 608.10069,300.77706 608.10841,300.78345 C 608.11529,300.79059 608.14321,300.82878 608.14924,300.83664 C 608.15436,300.84514 608.18589,300.88073 608.19008,300.88985 C 608.19719,300.92087 608.21939,301.00083 608.21854,301.03708 C 608.21741,301.04973 608.20819,301.11791 608.20618,301.13112 C 608.18621,301.22728 608.12256,301.37428 608.06268,301.49488 C 607.6334,302.30833 606.38592,303.62731 604.74711,304.8852 L 599.69323,308.76437 C 606.10476,312.06661 611.74538,315.85743 616.58878,320.31282 L 621.53627,316.51532 C 623.17509,315.25741 624.77172,314.39336 625.66852,314.18898 C 625.76278,314.16994 625.88568,314.1348 625.96297,314.13204 C 625.97771,314.13217 626.043,314.1436 626.057,314.14441 C 626.07028,314.14587 626.13852,314.15461 626.15104,314.15677 C 626.17454,314.16248 626.22471,314.16063 626.24507,314.16913 C 626.25444,314.17409 626.27734,314.21665 626.28589,314.22233 C 626.29363,314.22874 626.31985,314.26841 626.32673,314.27553 C 626.33277,314.28339 626.36246,314.32024 626.36757,314.32873 C 626.37085,314.33847 626.40604,314.3716 626.40839,314.38193 C 626.40988,314.39285 626.39545,314.46445 626.39604,314.47597 C 626.39547,314.50015 626.38767,314.5436 626.38367,314.57 C 626.38082,314.58373 626.37499,314.64976 626.3713,314.66402 C 626.36677,314.67881 626.36429,314.74275 626.35894,314.75806 C 626.05071,315.54779 624.70591,316.95681 622.92461,318.32408 L 618.24311,321.91742 C 622.83878,326.4703 626.58266,331.67729 629.51197,337.70018 L 634.19344,334.10685 C 636.0104,332.71222 637.82255,331.82002 638.70183,331.82996 C 638.71838,331.83083 638.78003,331.84076 638.79586,331.84233 C 638.81097,331.84457 638.87549,331.85176 638.88989,331.85469 C 638.93085,331.86562 638.99074,331.90293 639.02475,331.92025 C 639.0564,331.93974 639.13536,331.95975 639.15962,331.98581 C 639.16687,331.99525 639.19415,332.02896 639.20045,332.03902 C 639.20584,332.04968 639.18363,332.12178 639.18809,332.13304 C 639.19163,332.14491 639.22627,332.1738 639.22893,332.18625 C 639.23066,332.19927 639.21568,332.26669 639.21655,332.28028 C 639.21646,332.37917 639.20848,332.53279 639.16709,332.65641 C 638.8444,333.52616 637.5777,334.9754 635.86762,336.28799 L 630.70735,340.24883 C 633.21693,346.07743 634.96101,352.6136 635.90408,360.016 L 638.67041,357.89267 C 640.30919,356.63479 641.94078,355.81619 642.88432,355.67272 C 642.98374,355.66038 643.13687,355.66462 643.21961,355.66899 C 643.23544,355.67055 643.29852,355.67909 643.31364,355.68135 C 643.32804,355.68428 643.39402,355.69006 643.40767,355.69371 C 643.42057,355.69806 643.43637,355.74186 643.44851,355.74691 C 643.45984,355.75269 643.53198,355.75279 643.54254,355.75928 C 643.55227,355.76649 643.57445,355.80452 643.58337,355.81248 C 643.59146,355.82117 643.61697,355.85624 643.62421,355.86568 C 643.63052,355.87573 643.65966,355.9082 643.66504,355.91888 C 643.67842,355.95269 643.68825,356.02705 643.69351,356.0661 C 643.69524,356.09326 643.72374,356.18401 643.72198,356.21333 C 643.71502,356.2741 643.66443,356.37348 643.64405,356.44223 C 643.35429,357.30752 642.09028,358.73388 640.34457,360.07382 L 636.24827,363.21799 C 636.69936,368.06002 636.17306,372.90108 635.95801,378.47003 L 633.24487,380.55253 C 633.48638,375.1196 634.19475,370.18395 633.85432,365.05549 L 630.13042,367.91382 C 631.57265,372.24857 632.19838,376.44281 633.334,381.32952 L 631.89764,382.43202 C 630.67517,377.81049 630.00911,373.63257 628.42806,369.22049 L 622.789,373.54882 L 630.03196,383.5259 C 630.03792,383.5355 630.06777,383.56896 630.0728,383.57909 C 630.08498,383.61101 630.09733,383.69033 630.10126,383.72632 C 630.10168,383.73872 630.08935,383.80758 630.08889,383.82035 C 630.08671,383.8338 630.07954,383.90066 630.07653,383.9144 C 630.07268,383.92838 630.06884,383.99421 630.06417,384.00842 C 630.05323,384.03729 630.01266,384.11374 629.9986,384.14328 C 629.97521,384.188 629.90987,384.27361 629.87984,384.31899 C 629.82621,384.39471 629.72514,384.50211 629.65467,384.57635 C 629.58102,384.64989 629.51809,384.76572 629.42952,384.83372 C 629.18149,385.02409 628.84927,385.14363 628.61544,385.20495 C 628.58262,385.21232 628.49967,385.22889 628.4682,385.23343 C 628.39143,385.24117 628.292,385.26009 628.22694,385.24953 C 628.18957,385.24095 628.12389,385.19937 628.09207,385.18396 C 628.08214,385.17806 628.06048,385.13744 628.05124,385.13075 C 628.03426,385.11583 627.97109,385.13647 627.95721,385.11839 L 620.71425,375.14132 L 615.28797,379.30633 C 619.23502,381.90237 622.68113,383.94642 626.95018,386.22952 L 625.4074,387.41369 C 620.84469,385.15749 617.33838,383.17429 613.42602,380.7355 L 609.48932,383.75717 C 614.5291,385.26241 619.15623,386.13404 624.67988,387.1267 L 621.70075,389.41338 C 616.02805,388.35941 611.50948,387.39876 606.77619,385.83967 L 603.69065,388.208 C 602.0875,389.43858 600.52153,390.27085 599.57078,390.44031 C 599.50925,390.44967 599.38528,390.45297 599.32951,390.45642 C 599.25783,390.45834 599.14875,390.48151 599.08825,390.47252 C 599.05947,390.46664 598.97918,390.41564 598.95339,390.40697 C 598.91701,390.39179 598.84774,390.36307 598.81852,390.3414 C 598.80961,390.33344 598.78578,390.29689 598.77769,390.2882 C 598.77045,390.27877 598.74317,390.24506 598.73685,390.235 C 598.73148,390.22432 598.70048,390.19307 598.69602,390.1818 C 598.69248,390.16993 598.71104,390.10021 598.70839,390.08777 C 598.70313,390.0487 598.67727,389.98453 598.67992,389.94053 C 598.68165,389.92535 598.6897,389.86221 598.69229,389.84651 C 598.71287,389.74924 598.78589,389.59679 598.83578,389.48274 C 599.24529,388.60813 600.41331,387.2574 602.01648,386.02686 L 603.71885,384.72019 C 596.56595,382.08424 590.51883,378.85089 585.43523,374.99802 L 581.87092,377.73385 C 580.08964,379.10115 578.60255,379.64691 577.70654,379.67085 C 577.62033,379.66987 577.49268,379.65195 577.42444,379.63375 C 577.41154,379.62939 577.34254,379.62644 577.33042,379.62139 C 577.31908,379.61561 577.30013,379.57467 577.28958,379.56819 C 577.26037,379.54651 577.17644,379.53093 577.15471,379.50262 C 577.1484,379.49256 577.17246,379.41926 577.16708,379.40859 C 577.16261,379.39732 577.12978,379.36726 577.12625,379.35539 C 577.1183,379.31804 577.09774,379.25056 577.09778,379.20816 C 577.09867,379.19349 577.10841,379.12931 577.11014,379.11413 C 577.1231,379.0356 577.16682,378.88179 577.20044,378.7912 C 577.55404,377.91844 578.52231,376.83795 580.19675,375.5527 L 583.22908,373.2252 C 578.08162,368.90691 573.99556,363.9586 570.84306,358.29994 L 568.23631,360.30078 C 566.27687,361.80477 564.3921,362.79361 563.66238,362.71253 C 563.64987,362.71035 563.5801,362.70303 563.56835,362.70016 C 563.55738,362.69662 563.53768,362.65122 563.52751,362.64696 C 563.51814,362.64201 563.44204,362.64028 563.43348,362.6346 C 563.42661,362.62747 563.39868,362.58926 563.39265,362.5814 C 563.38754,362.57291 563.356,362.53733 563.35181,362.5282 C 563.34853,362.51846 563.36655,362.44451 563.36419,362.43416 C 563.36061,362.36508 563.37413,362.2408 563.40128,362.15207 C 563.43872,362.04501 563.52194,361.87743 563.59798,361.74747 C 564.09745,360.93089 565.31605,359.66788 566.84798,358.49202 L 569.7739,356.24618 C 566.79606,350.35888 564.74286,343.81446 563.41171,336.61272 L 560.27298,339.02189 C 558.34916,340.49854 556.50875,341.43566 555.75224,341.39281 C 555.73897,341.39134 555.67072,341.38261 555.65821,341.38044 C 555.62297,341.37189 555.55146,341.32977 555.52334,341.31488 C 555.51562,341.30847 555.48939,341.26881 555.48251,341.26168 C 555.47648,341.25382 555.44679,341.21697 555.44168,341.20848 C 555.43749,341.19937 555.40412,341.16502 555.40084,341.15529 C 555.39935,341.14436 555.4138,341.07276 555.41321,341.06125 C 555.41434,341.01291 555.42316,340.93026 555.43794,340.87319 C 555.44248,340.8584 555.44496,340.79446 555.45031,340.77916 C 555.46263,340.74756 555.50034,340.6778 555.51587,340.64429 C 555.91788,339.83461 557.21021,338.49837 558.88464,337.21313 L 562.98095,334.06896 C 562.3058,329.80287 561.8679,325.33585 561.63751,320.64365 L 564.61664,318.35698 C 564.64236,323.31062 564.89473,327.92823 565.42809,332.19063 L 572.07793,327.08646 C 571.02971,322.95147 570.2981,318.70526 569.77691,314.39615 L 571.31968,313.21197 C 572.02404,317.53238 572.97221,321.6254 574.09948,325.53479 L 579.47255,321.41062 L 572.81672,312.73923 C 572.80284,312.72115 572.83912,312.66546 572.82908,312.6452 C 572.82501,312.63455 572.79137,312.60312 572.78825,312.592 C 572.7816,312.55728 572.7584,312.48308 572.75977,312.44477 C 572.76111,312.43166 572.76996,312.36419 572.77214,312.35074 C 572.80537,312.19979 572.90873,311.97783 573.0344,311.81128 C 573.14341,311.67531 573.3129,311.51295 573.47235,311.39057 C 573.54322,311.33618 573.61311,311.27154 573.68514,311.22724 z M 597.45889,310.47937 L 591.02184,315.42021 C 596.60171,318.94711 601.84903,323.0967 606.64063,327.94867 L 614.72682,321.742 C 610.07854,317.58057 604.37357,313.79029 597.45889,310.47937 z M 589.15989,316.84937 L 582.93564,321.62688 L 594.77731,337.0545 L 604.51268,329.58199 C 600.01592,324.96603 594.92551,320.72416 589.15989,316.84937 z M 580.86089,323.21938 L 574.79623,327.87438 C 576.90345,334.55583 579.61455,340.62671 582.8608,346.20117 L 592.70256,338.647 L 580.86089,323.21938 z M 572.77468,329.42605 L 565.80565,334.77522 C 566.98934,342.48504 569.05273,349.07049 571.79546,354.69452 L 580.52005,347.99785 C 577.12724,342.07224 574.59001,335.84249 572.77468,329.42605 z M 616.43436,323.30575 L 608.24175,329.59409 C 612.49233,334.13492 616.38918,339.23563 619.883,345.09101 L 627.70321,339.08851 C 625.0311,333.37859 621.39119,328.11199 616.43436,323.30575 z M 606.1138,331.22743 L 596.16565,338.86326 L 607.96649,354.23768 L 617.75505,346.72435 C 614.40807,341.2636 610.57466,336.03753 606.1138,331.22743 z M 594.0909,340.45576 L 584.03633,348.17327 C 587.48991,353.75777 591.48944,358.85391 595.94357,363.46603 L 605.89174,355.83018 L 594.0909,340.45576 z M 581.6956,349.96993 L 572.86461,356.74827 C 576.16014,362.82966 580.28366,367.72506 585.19744,371.71436 L 593.70922,365.18103 C 588.90238,360.3308 584.94435,355.28196 581.6956,349.96993 z M 628.84539,341.67799 L 621.23798,347.51716 C 624.20872,352.82434 626.89113,358.68041 629.20104,365.16101 L 633.56333,361.81267 C 632.86451,354.70781 631.41477,347.96628 628.84539,341.67799 z M 619.16322,349.10966 L 609.64065,356.41883 L 621.11482,371.36768 L 627.44547,366.50851 C 625.13415,360.44374 622.36398,354.6549 619.16322,349.10966 z M 607.5659,358.01133 L 597.88374,365.44301 C 602.46773,369.92654 607.48634,373.98954 612.86903,377.69685 L 619.04009,372.96017 L 607.5659,358.01133 z M 595.64939,367.158 L 587.45679,373.44635 C 592.98418,377.46417 599.34296,380.43772 606.27239,382.76018 L 610.95388,379.16684 C 605.15155,375.36555 600.06585,371.35665 595.64939,367.158 z "
         style="opacity:0.94100294;color:#000000;fill:#2f4025;fill-opacity:1;fill-rule:evenodd;stroke:none;stroke-width:6;stroke-linecap:butt;stroke-linejoin:miter;marker:none;marker-start:none;marker-mid:none;marker-end:none;stroke-miterlimit:4;stroke-dasharray:none;stroke-dashoffset:10.99997587;stroke-opacity:1;visibility:visible;display:inline;overflow:visible"
         sodipodi:nodetypes="csssssssscccccccccccssssssssssccccsssssssssssssccccssssssssssccccsssssssssssscccccccccccsssssssssssssscccccccccccssssssssssssccccssssssssssccccsssssssssccccsssssssssscccccccccccssssssccccccccccccccccccccccccccccccccccccccccccccccccccccccccccccc" />
    </g>
  </g>
</svg>
