<?xml version="1.0" encoding="UTF-8" standalone="no"?>
<!-- Created with Inkscape (http://www.inkscape.org/) -->
<svg
   xmlns:dc="http://purl.org/dc/elements/1.1/"
   xmlns:cc="http://web.resource.org/cc/"
   xmlns:rdf="http://www.w3.org/1999/02/22-rdf-syntax-ns#"
   xmlns:svg="http://www.w3.org/2000/svg"
   xmlns="http://www.w3.org/2000/svg"
   xmlns:xlink="http://www.w3.org/1999/xlink"
   xmlns:sodipodi="http://inkscape.sourceforge.net/DTD/sodipodi-0.dtd"
   xmlns:inkscape="http://www.inkscape.org/namespaces/inkscape"
   id="svg2"
   sodipodi:version="0.32"
   inkscape:version="0.43"
   width="48"
   height="48"
   sodipodi:docbase="/home/yekcim/Desktop"
   sodipodi:docname="construct_icon.svg"
   version="1.0"
   inkscape:export-filename="/home/yekcim/Desktop/casque.png"
   inkscape:export-xdpi="90"
   inkscape:export-ydpi="90">
  <metadata
     id="metadata7">
    <rdf:RDF>
      <cc:Work
         rdf:about="">
        <dc:format>image/svg+xml</dc:format>
        <dc:type
           rdf:resource="http://purl.org/dc/dcmitype/StillImage" />
      </cc:Work>
    </rdf:RDF>
  </metadata>
  <defs
     id="defs5">
    <linearGradient
       id="linearGradient4104">
      <stop
         style="stop-color:#756a21;stop-opacity:1;"
         offset="0"
         id="stop4106" />
      <stop
         style="stop-color:#141205;stop-opacity:1;"
         offset="1"
         id="stop4108" />
    </linearGradient>
    <linearGradient
       id="linearGradient2243">
      <stop
         style="stop-color:#332d06;stop-opacity:1;"
         offset="0"
         id="stop2245" />
      <stop
         style="stop-color:#928536;stop-opacity:1;"
         offset="1"
         id="stop2247" />
    </linearGradient>
    <linearGradient
       id="linearGradient2251">
      <stop
         id="stop2253"
         offset="0"
         style="stop-color:#897a00;stop-opacity:1;" />
      <stop
         id="stop2255"
         offset="1"
         style="stop-color:#ead001;stop-opacity:1;" />
    </linearGradient>
    <linearGradient
       id="linearGradient2257">
      <stop
         id="stop2259"
         offset="0"
         style="stop-color:#e7e7e7;stop-opacity:1;" />
      <stop
         id="stop2261"
         offset="1"
         style="stop-color:#575757;stop-opacity:1;" />
    </linearGradient>
    <linearGradient
       id="linearGradient7769">
      <stop
         style="stop-color:#182c13;stop-opacity:1;"
         offset="0"
         id="stop7771" />
      <stop
         style="stop-color:#407133;stop-opacity:1;"
         offset="1"
         id="stop7773" />
    </linearGradient>
    <linearGradient
       id="linearGradient7741">
      <stop
         style="stop-color:#ffffff;stop-opacity:1;"
         offset="0"
         id="stop7743" />
      <stop
         style="stop-color:#ffffff;stop-opacity:0;"
         offset="1"
         id="stop7745" />
    </linearGradient>
    <linearGradient
       id="linearGradient4911">
      <stop
         style="stop-color:#7a6b00;stop-opacity:1;"
         offset="0"
         id="stop4913" />
      <stop
         style="stop-color:#e1d263;stop-opacity:1;"
         offset="1"
         id="stop4915" />
    </linearGradient>
    <linearGradient
       id="linearGradient4001">
      <stop
         style="stop-color:#ffee7a;stop-opacity:1;"
         offset="0"
         id="stop4003" />
      <stop
         style="stop-color:#e7ac1e;stop-opacity:1;"
         offset="1"
         id="stop4005" />
    </linearGradient>
    <linearGradient
       id="linearGradient3942">
      <stop
         style="stop-color:#757575;stop-opacity:1;"
         offset="0"
         id="stop3944" />
      <stop
         style="stop-color:#252525;stop-opacity:1;"
         offset="1"
         id="stop3946" />
    </linearGradient>
    <linearGradient
       inkscape:collect="always"
       xlink:href="#linearGradient4001"
       id="linearGradient4007"
       x1="-61.714073"
       y1="368.57843"
       x2="-92.953484"
       y2="369.9863"
       gradientUnits="userSpaceOnUse"
       gradientTransform="matrix(0.995041,-9.946305e-2,0.179215,0.98381,325.9972,-207.429)" />
    <linearGradient
       inkscape:collect="always"
       xlink:href="#linearGradient3942"
       id="linearGradient4028"
       gradientUnits="userSpaceOnUse"
       x1="-74.168907"
       y1="367.79813"
       x2="-82.807465"
       y2="367.90427"
       gradientTransform="matrix(0.994352,-0.106129,0.185804,0.982587,324.1863,-207.4793)" />
    <linearGradient
       inkscape:collect="always"
       xlink:href="#linearGradient3942"
       id="linearGradient4030"
       gradientUnits="userSpaceOnUse"
       x1="-74.168907"
       y1="367.79813"
       x2="-82.807465"
       y2="367.90427"
       gradientTransform="matrix(0.994352,-0.106129,0.185804,0.982587,324.1863,-207.4793)" />
    <linearGradient
       inkscape:collect="always"
       xlink:href="#linearGradient4911"
       id="linearGradient4917"
       x1="-149.79926"
       y1="329.86734"
       x2="-132.63724"
       y2="327.75131"
       gradientUnits="userSpaceOnUse"
       gradientTransform="translate(450.8684,-201.4943)" />
    <linearGradient
       inkscape:collect="always"
       xlink:href="#linearGradient4911"
       id="linearGradient4919"
       gradientUnits="userSpaceOnUse"
       x1="-86.642746"
       y1="366.23483"
       x2="-44.639034"
       y2="367.60278" />
    <linearGradient
       inkscape:collect="always"
       xlink:href="#linearGradient3942"
       id="linearGradient6731"
       gradientUnits="userSpaceOnUse"
       gradientTransform="matrix(0.994352,-0.106129,0.185804,0.982587,324.1863,-207.4793)"
       x1="-74.168907"
       y1="367.79813"
       x2="-82.807465"
       y2="367.90427" />
    <linearGradient
       inkscape:collect="always"
       xlink:href="#linearGradient4001"
       id="linearGradient6733"
       gradientUnits="userSpaceOnUse"
       gradientTransform="matrix(0.995041,-9.946305e-2,0.179215,0.98381,325.9972,-207.429)"
       x1="-61.714073"
       y1="368.57843"
       x2="-92.953484"
       y2="369.9863" />
    <linearGradient
       inkscape:collect="always"
       xlink:href="#linearGradient4911"
       id="linearGradient6735"
       gradientUnits="userSpaceOnUse"
       x1="-86.642746"
       y1="366.23483"
       x2="-44.639034"
       y2="367.60278" />
    <linearGradient
       inkscape:collect="always"
       xlink:href="#linearGradient4911"
       id="linearGradient6737"
       gradientUnits="userSpaceOnUse"
       gradientTransform="translate(450.8684,-201.4943)"
       x1="-149.79926"
       y1="329.86734"
       x2="-132.63724"
       y2="327.75131" />
    <linearGradient
       inkscape:collect="always"
       xlink:href="#linearGradient3942"
       id="linearGradient6739"
       gradientUnits="userSpaceOnUse"
       gradientTransform="matrix(0.994352,-0.106129,0.185804,0.982587,324.1863,-207.4793)"
       x1="-74.168907"
       y1="367.79813"
       x2="-82.807465"
       y2="367.90427" />
    <linearGradient
       inkscape:collect="always"
       xlink:href="#linearGradient3942"
       id="linearGradient6748"
       gradientUnits="userSpaceOnUse"
       gradientTransform="matrix(0.35437,-3.667046e-3,3.183466e-2,0.256701,42.74491,-71.31302)"
       x1="-74.168907"
       y1="367.79813"
       x2="-82.807465"
       y2="367.90427" />
    <linearGradient
       inkscape:collect="always"
       xlink:href="#linearGradient4911"
       id="linearGradient6753"
       gradientUnits="userSpaceOnUse"
       gradientTransform="matrix(0.25734,0,0,0.25734,60.66324,-69.68666)"
       x1="-149.79926"
       y1="329.86734"
       x2="-132.63724"
       y2="327.75131" />
    <linearGradient
       inkscape:collect="always"
       xlink:href="#linearGradient4001"
       id="linearGradient6758"
       gradientUnits="userSpaceOnUse"
       gradientTransform="matrix(0.256064,-2.559582e-2,4.611919e-2,0.253174,28.52889,-71.2139)"
       x1="-61.714073"
       y1="368.57843"
       x2="-92.953484"
       y2="369.9863" />
    <linearGradient
       inkscape:collect="always"
       xlink:href="#linearGradient3942"
       id="linearGradient6761"
       gradientUnits="userSpaceOnUse"
       gradientTransform="matrix(0.35437,-3.667046e-3,3.183466e-2,0.256701,42.74491,-71.31302)"
       x1="-74.168907"
       y1="367.79813"
       x2="-82.807465"
       y2="367.90427" />
    <linearGradient
       inkscape:collect="always"
       xlink:href="#linearGradient4911"
       id="linearGradient6789"
       gradientUnits="userSpaceOnUse"
       gradientTransform="matrix(0.35302,2.68832e-2,-3.149311e-2,0.256453,86.0586,-66.15212)"
       x1="-149.79926"
       y1="329.86734"
       x2="-132.63724"
       y2="327.75131" />
    <linearGradient
       inkscape:collect="always"
       xlink:href="#linearGradient4911"
       id="linearGradient6791"
       gradientUnits="userSpaceOnUse"
       x1="-86.642746"
       y1="366.23483"
       x2="-44.639034"
       y2="367.60278" />
    <linearGradient
       inkscape:collect="always"
       xlink:href="#linearGradient4001"
       id="linearGradient6793"
       gradientUnits="userSpaceOnUse"
       gradientTransform="matrix(0.354403,1.242272e-3,3.228335e-2,0.25712,42.16332,-71.03104)"
       x1="-61.714073"
       y1="368.57843"
       x2="-92.953484"
       y2="369.9863" />
    <linearGradient
       inkscape:collect="always"
       xlink:href="#linearGradient4001"
       id="linearGradient7735"
       gradientUnits="userSpaceOnUse"
       gradientTransform="matrix(0.354403,1.242272e-3,3.228335e-2,0.25712,42.16332,-71.03104)"
       x1="-65.116035"
       y1="369.14111"
       x2="-81.59716"
       y2="369.22076" />
    <linearGradient
       inkscape:collect="always"
       xlink:href="#linearGradient7741"
       id="linearGradient7747"
       x1="28.306221"
       y1="38.868778"
       x2="28.868795"
       y2="38.787422"
       gradientUnits="userSpaceOnUse" />
    <linearGradient
       inkscape:collect="always"
       xlink:href="#linearGradient4911"
       id="linearGradient7765"
       gradientUnits="userSpaceOnUse"
       x1="-72.422485"
       y1="373.32715"
       x2="-41.2244"
       y2="375.49548" />
    <linearGradient
       inkscape:collect="always"
       xlink:href="#linearGradient4911"
       id="linearGradient7767"
       gradientUnits="userSpaceOnUse"
       gradientTransform="matrix(0.35302,2.68832e-2,-3.149311e-2,0.256453,86.0586,-66.15212)"
       x1="-151.38226"
       y1="331.06723"
       x2="-133.71432"
       y2="327.60571" />
    <linearGradient
       inkscape:collect="always"
       xlink:href="#linearGradient7769"
       id="linearGradient7775"
       x1="22.601725"
       y1="27.917902"
       x2="24.701193"
       y2="27.931467"
       gradientUnits="userSpaceOnUse" />
    <linearGradient
       inkscape:collect="always"
       xlink:href="#linearGradient3942"
       id="linearGradient7801"
       gradientUnits="userSpaceOnUse"
       gradientTransform="matrix(0.35437,-3.667046e-3,3.183466e-2,0.256701,42.74491,-71.31302)"
       x1="-74.168907"
       y1="367.79813"
       x2="-82.807465"
       y2="367.90427" />
    <linearGradient
       inkscape:collect="always"
       xlink:href="#linearGradient4001"
       id="linearGradient7803"
       gradientUnits="userSpaceOnUse"
       gradientTransform="matrix(0.354403,1.242272e-3,3.228335e-2,0.25712,42.16332,-71.03104)"
       x1="-65.116035"
       y1="369.14111"
       x2="-81.59716"
       y2="369.22076" />
    <linearGradient
       inkscape:collect="always"
       xlink:href="#linearGradient4911"
       id="linearGradient7807"
       gradientUnits="userSpaceOnUse"
       gradientTransform="matrix(0.35302,2.68832e-2,-3.149311e-2,0.256453,86.0586,-66.15212)"
       x1="-151.38226"
       y1="331.06723"
       x2="-133.71432"
       y2="327.60571" />
    <linearGradient
       inkscape:collect="always"
       xlink:href="#linearGradient3942"
       id="linearGradient7809"
       gradientUnits="userSpaceOnUse"
       gradientTransform="matrix(0.35437,-3.667046e-3,3.183466e-2,0.256701,42.74491,-71.31302)"
       x1="-74.168907"
       y1="367.79813"
       x2="-82.807465"
       y2="367.90427" />
    <linearGradient
       inkscape:collect="always"
       xlink:href="#linearGradient7769"
       id="linearGradient7811"
       gradientUnits="userSpaceOnUse"
       x1="22.601725"
       y1="27.917902"
       x2="24.701193"
       y2="27.931467" />
    <linearGradient
       inkscape:collect="always"
       xlink:href="#linearGradient2251"
       id="linearGradient7830"
       gradientUnits="userSpaceOnUse"
       gradientTransform="matrix(0.904098,0.15603,-0.141292,0.918217,196.9724,-262.3031)"
       x1="-131.72858"
       y1="327.80072"
       x2="-151.81061"
       y2="333.2421" />
    <linearGradient
       inkscape:collect="always"
       xlink:href="#linearGradient2251"
       id="linearGradient2244"
       gradientUnits="userSpaceOnUse"
       gradientTransform="matrix(1.281427,-8.249812e-3,-0.203011,0.131209,277.4272,-14.90605)"
       x1="-131.72858"
       y1="327.80072"
       x2="-151.81061"
       y2="333.2421" />
    <linearGradient
       inkscape:collect="always"
       xlink:href="#linearGradient2251"
       id="linearGradient1365"
       gradientUnits="userSpaceOnUse"
       gradientTransform="matrix(0.918631,2.224738e-2,1.960984e-2,1.057999,144.4223,-330.3504)"
       x1="-59.827682"
       y1="331.60544"
       x2="-83.343872"
       y2="332.18799" />
    <linearGradient
       inkscape:collect="always"
       xlink:href="#linearGradient2251"
       id="linearGradient1370"
       gradientUnits="userSpaceOnUse"
       gradientTransform="matrix(0.900808,-0.181741,0.28023,1.132435,58.31502,-370.9032)"
       x1="-59.827682"
       y1="331.60544"
       x2="-83.343872"
       y2="332.18799" />
    <linearGradient
       inkscape:collect="always"
       xlink:href="#linearGradient2251"
       id="linearGradient2340"
       gradientUnits="userSpaceOnUse"
       gradientTransform="matrix(0.991341,2.314081e-2,2.116197e-2,1.100487,153.5415,-344.3057)"
       x1="-131.72858"
       y1="327.80072"
       x2="-151.81061"
       y2="333.2421" />
    <linearGradient
       inkscape:collect="always"
       xlink:href="#linearGradient4104"
       id="linearGradient4110"
       x1="83.391647"
       y1="20.678062"
       x2="83.532043"
       y2="13.562074"
       gradientUnits="userSpaceOnUse" />
    <linearGradient
       inkscape:collect="always"
       xlink:href="#linearGradient2251"
       id="linearGradient4122"
       gradientUnits="userSpaceOnUse"
       gradientTransform="matrix(0.991341,2.314081e-2,2.116197e-2,1.100487,153.5415,-344.3057)"
       x1="-131.72858"
       y1="327.80072"
       x2="-151.81061"
       y2="333.2421" />
    <linearGradient
       inkscape:collect="always"
       xlink:href="#linearGradient4104"
       id="linearGradient4124"
       gradientUnits="userSpaceOnUse"
       x1="83.391647"
       y1="20.678062"
       x2="83.532043"
       y2="13.562074" />
    <linearGradient
       inkscape:collect="always"
       xlink:href="#linearGradient2251"
       id="linearGradient4140"
       gradientUnits="userSpaceOnUse"
       gradientTransform="matrix(0.991341,2.314081e-2,2.116197e-2,1.100487,153.5415,-344.3057)"
       x1="-131.72858"
       y1="327.80072"
       x2="-151.81061"
       y2="333.2421" />
    <linearGradient
       inkscape:collect="always"
       xlink:href="#linearGradient4104"
       id="linearGradient4142"
       gradientUnits="userSpaceOnUse"
       x1="83.391647"
       y1="20.678062"
       x2="83.532043"
       y2="13.562074" />
    <linearGradient
       inkscape:collect="always"
       xlink:href="#linearGradient2251"
       id="linearGradient4150"
       gradientUnits="userSpaceOnUse"
       gradientTransform="matrix(0.991341,2.314081e-2,2.116197e-2,1.100487,154.1585,-342.9484)"
       x1="-131.72858"
       y1="327.80072"
       x2="-151.81061"
       y2="333.2421" />
    <linearGradient
       inkscape:collect="always"
       xlink:href="#linearGradient2251"
       id="linearGradient1382"
       gradientUnits="userSpaceOnUse"
       gradientTransform="matrix(0.842382,1.966367e-2,1.798217e-2,0.935128,134.2209,-287.5726)"
       x1="-131.72858"
       y1="327.80072"
       x2="-151.81061"
       y2="333.2421" />
    <linearGradient
       inkscape:collect="always"
       xlink:href="#linearGradient4104"
       id="linearGradient1384"
       gradientUnits="userSpaceOnUse"
       x1="83.391647"
       y1="20.678062"
       x2="83.532043"
       y2="13.562074" />
  </defs>
  <sodipodi:namedview
     inkscape:window-height="945"
     inkscape:window-width="1270"
     inkscape:pageshadow="2"
     inkscape:pageopacity="0.0"
     borderopacity="1.0"
     bordercolor="#666666"
     pagecolor="#ffffff"
     id="base"
     inkscape:zoom="8.1041664"
     inkscape:cx="52.996101"
     inkscape:cy="41.210794"
     inkscape:window-x="0"
     inkscape:window-y="25"
     inkscape:current-layer="svg2" />
  <path
     style="color:#000000;fill:none;fill-opacity:1;fill-rule:nonzero;stroke:#000000;stroke-width:0.99999982;stroke-linecap:round;stroke-linejoin:round;marker:none;marker-start:none;marker-mid:none;marker-end:none;stroke-miterlimit:4;stroke-dasharray:none;stroke-dashoffset:0;stroke-opacity:1;visibility:visible;display:inline;overflow:visible"
     d="M 20.416729,9.1894182 C 19.828521,9.2075013 19.221561,9.2681598 18.631643,9.3679267 C 9.7481714,10.870305 4.4083514,19.192527 5.8555329,29.998413 C 5.9600091,30.778522 6.0348574,31.204955 6.0595426,31.40098 C 6.0607137,31.413359 6.0581399,31.439636 6.0595426,31.451982 C 6.0678088,31.517968 6.0595426,31.553987 6.0595426,31.553987 C 6.0643054,31.549188 6.0801068,31.558808 6.0850439,31.553987 C 6.1711652,32.056008 6.459548,32.526362 6.9520853,32.956554 C 6.9569922,32.961629 6.9726183,32.951491 6.9775865,32.956554 C 6.9836556,32.961788 6.9714547,32.976834 6.9775865,32.982055 C 6.9836072,32.98812 6.9969787,33.001509 7.0030877,33.007557 C 7.0216714,33.023181 7.0349412,33.043052 7.0540902,33.058559 C 7.0583202,33.06256 7.075322,33.054565 7.0795914,33.058559 C 7.1001781,33.075067 7.1093618,33.093189 7.1305938,33.109562 C 7.1417611,33.119449 7.1701815,33.125225 7.1815963,33.135063 C 7.1984206,33.147804 7.1898778,33.173407 7.2070975,33.186065 C 7.2187601,33.195854 7.2206877,33.201828 7.2325987,33.211566 C 7.2381698,33.215604 7.2524883,33.207538 7.2580999,33.211566 C 7.2653062,33.217398 7.2763053,33.231254 7.2836011,33.237068 C 7.2892738,33.241083 7.3033891,33.23306 7.3091024,33.237068 C 7.3152445,33.241899 7.3028979,33.25775 7.3091024,33.262569 C 7.3163075,33.267565 7.3273349,33.257587 7.3346036,33.262569 C 7.3421088,33.26834 7.3525097,33.282318 7.3601048,33.28807 C 7.3659808,33.292043 7.3796892,33.284107 7.385606,33.28807 C 7.3919977,33.292851 7.3791517,33.308803 7.385606,33.313571 C 7.3967397,33.320987 7.4253562,33.331705 7.4366084,33.339073 C 7.4497675,33.348557 7.4486997,33.355142 7.4621097,33.364574 C 7.4832905,33.378257 7.4915214,33.376557 7.5131121,33.390075 C 7.5301101,33.401816 7.521222,33.429419 7.5386133,33.441077 C 9.0133958,34.429723 11.684714,34.949698 14.959468,35.047654 C 14.994825,35.048963 15.02598,35.046448 15.061473,35.047654 C 15.460956,35.058431 15.869106,35.0753 16.285531,35.073155 C 16.351191,35.073257 16.423507,35.073379 16.489541,35.073155 C 16.733699,35.070738 16.979821,35.054445 17.229076,35.047654 C 17.29671,35.046202 17.365113,35.049434 17.433086,35.047654 C 17.449772,35.047125 17.467382,35.048203 17.484088,35.047654 C 17.671244,35.042535 17.855518,35.029741 18.045115,35.022153 C 18.053586,35.021767 18.062141,35.022544 18.070616,35.022153 C 18.407847,35.008486 18.746454,34.992606 19.090665,34.971151 C 19.099321,34.970572 19.107506,34.971734 19.116166,34.971151 C 19.249214,34.962793 19.390194,34.955168 19.524186,34.945649 C 19.594007,34.940365 19.658118,34.925741 19.728196,34.920148 C 19.870576,34.90942 20.01837,34.906674 20.161716,34.894647 C 20.3106,34.881549 20.44533,34.85811 20.595237,34.843644 C 20.803694,34.824388 21.022585,34.814605 21.232768,34.792642 C 21.606261,34.752285 21.976448,34.713808 22.354821,34.665136 C 22.631967,34.630308 22.891724,34.57703 23.17086,34.53763 C 23.259501,34.524912 23.362549,34.525294 23.451374,34.512129 C 23.599963,34.490402 23.761374,34.45864 23.910396,34.435625 C 23.975296,34.425468 24.049426,34.420518 24.114405,34.410124 C 24.935084,34.280004 25.761385,34.120019 26.588024,33.951102 C 26.634858,33.941539 26.668691,33.935284 26.71553,33.925601 C 27.459954,33.771712 28.218859,33.600744 28.959637,33.415576 C 29.073031,33.387421 29.177935,33.367933 29.291153,33.339073 C 29.624622,33.2534 29.954337,33.150562 30.2857,33.058559 C 30.359101,33.0384 30.416427,33.028015 30.48971,33.007557 C 30.612588,32.972929 30.749726,32.94105 30.872228,32.905552 C 30.897157,32.898402 30.923818,32.887234 30.948732,32.880051 C 31.068104,32.845237 31.186775,32.813687 31.305749,32.778046 C 31.33034,32.770764 31.357729,32.759846 31.382253,32.752544 C 31.503919,32.71589 31.619242,32.687696 31.73927,32.65054 C 31.81237,32.628172 31.896299,32.596575 31.968781,32.574036 C 31.987776,32.568059 32.000831,32.554524 32.019783,32.548535 C 32.141808,32.51045 32.256555,32.485089 32.3768,32.44653 C 32.393261,32.441181 32.411375,32.426387 32.427803,32.421029 C 32.486374,32.402171 32.548168,32.388994 32.606311,32.370026 C 32.686786,32.343452 32.75616,32.320316 32.835822,32.293523 C 33.013227,32.234614 33.198077,32.174906 33.371348,32.115014 C 33.727078,31.990358 34.078684,31.861221 34.416898,31.732496 C 34.569926,31.675086 34.701125,31.612106 34.850418,31.553987 C 34.883992,31.540742 34.919035,31.541769 34.952423,31.528486 C 34.961612,31.524878 34.968751,31.506595 34.977924,31.502985 C 35.102635,31.453239 35.212852,31.425729 35.334942,31.375479 C 35.462297,31.323926 35.59305,31.274501 35.71746,31.222471 C 35.777181,31.197107 35.836914,31.171447 35.895968,31.145968 C 35.930733,31.131174 35.963447,31.109794 35.997973,31.094965 C 36.005053,31.091882 36.016404,31.09805 36.023474,31.094965 C 36.04021,31.087763 36.057798,31.076675 36.074477,31.069464 C 36.121184,31.048991 36.155707,31.039004 36.201983,31.018462 C 36.21327,31.013528 36.216223,30.997897 36.227484,30.99296 C 36.378419,30.925747 36.540221,30.856866 36.686506,30.788951 C 36.849827,30.71415 37.013794,30.634955 37.171029,30.55944 C 37.536252,30.3817 37.883705,30.205253 38.216579,30.023914 C 38.399818,29.925195 38.579435,29.817331 38.752105,29.717899 C 38.850423,29.660782 38.937577,29.622245 39.032618,29.564892 C 39.55179,29.254214 40.023527,28.934543 40.435185,28.621347 C 40.502201,28.570656 40.574826,28.519065 40.639195,28.46834 C 40.732025,28.394412 40.807631,28.312669 40.894207,28.238829 C 40.963944,28.180409 41.032058,28.14422 41.098217,28.085821 C 41.189382,28.003595 41.270019,27.912771 41.353229,27.830809 C 41.392872,27.793072 41.442621,27.766505 41.480735,27.728804 C 41.485786,27.723626 41.475717,27.70848 41.480735,27.703303 C 41.489021,27.695078 41.498024,27.686024 41.506237,27.677802 C 41.523632,27.65969 41.540241,27.644893 41.557239,27.6268 C 41.56394,27.619951 41.576089,27.608145 41.58274,27.601298 C 41.59476,27.58838 41.596424,27.588705 41.608241,27.575797 C 41.621441,27.562108 41.620747,27.563978 41.633743,27.550296 C 41.651315,27.530942 41.667631,27.518623 41.684745,27.499293 C 41.697536,27.485618 41.69766,27.461959 41.710246,27.448291 C 41.721451,27.435416 41.750249,27.435653 41.761249,27.42279 C 41.773629,27.40913 41.774575,27.385438 41.78675,27.371787 C 41.797544,27.358936 41.801662,27.359125 41.812251,27.346286 C 41.829122,27.327183 41.846788,27.314369 41.863254,27.295284 C 41.865313,27.29272 41.861202,27.272346 41.863254,27.269782 C 41.865589,27.267057 41.886427,27.272508 41.888755,27.269782 C 41.915212,27.236468 41.940204,27.200998 41.965258,27.167778 C 41.970828,27.160977 41.959741,27.149075 41.965258,27.142276 C 41.974812,27.129505 41.981414,27.129531 41.99076,27.116775 C 43.195558,25.611825 43.144466,24.184965 41.506237,23.087583 C 40.483804,22.402697 38.93948,21.918983 37.069024,21.634013 C 34.12465,14.38577 27.406016,8.9745482 20.416729,9.1894182 z "
     id="path2278" />
  <path
     style="color:#000000;fill:url(#linearGradient1382);fill-opacity:1;fill-rule:nonzero;stroke:none;stroke-width:10.19999695;stroke-linecap:butt;stroke-linejoin:miter;marker:none;marker-start:none;marker-mid:none;marker-end:none;stroke-miterlimit:4;stroke-dashoffset:0;stroke-opacity:1;visibility:visible;display:inline;overflow:visible"
     d="M 6.0588213,31.550565 C 8.4973578,29.093241 33.817434,23.851817 38.276775,25.77499 C 36.447773,15.887682 27.52118,7.8747051 18.637705,9.3770777 C 9.7542317,10.879456 4.4106943,19.204668 5.857876,30.010555 C 6.010619,31.151064 6.0588213,31.550565 6.0588213,31.550565 z "
     id="path2266"
     sodipodi:nodetypes="ccssc" />
  <path
     style="fill:none;fill-opacity:1;fill-rule:evenodd;stroke:#000000;stroke-width:0.3;stroke-linecap:round;stroke-linejoin:round;stroke-miterlimit:4;stroke-dasharray:none;stroke-opacity:1"
     d="M 32.750665,25.905865 C 28.23608,11.183909 32.923107,10.809157 38.819652,25.488736"
     id="path2270"
     sodipodi:nodetypes="cc" />
  <path
     style="fill:none;fill-opacity:1;fill-rule:evenodd;stroke:#000000;stroke-width:0.30000001;stroke-linecap:round;stroke-linejoin:round;stroke-miterlimit:4;stroke-dasharray:none;stroke-opacity:1"
     d="M 30.005312,26.078044 C 25.916586,9.2987603 29.70157,9.7208395 36.297935,19.364694"
     id="path2274"
     sodipodi:nodetypes="cc" />
  <path
     sodipodi:type="arc"
     style="color:#000000;fill:#cab21b;fill-opacity:1;fill-rule:nonzero;stroke:none;stroke-width:10.19999695;stroke-linecap:butt;stroke-linejoin:miter;marker:none;marker-start:none;marker-mid:none;marker-end:none;stroke-miterlimit:4;stroke-dasharray:none;stroke-dashoffset:0;stroke-opacity:1;visibility:visible;display:inline;overflow:visible"
     id="path1374"
     sodipodi:cx="84.5625"
     sodipodi:cy="16.375"
     sodipodi:rx="17.4375"
     sodipodi:ry="2.875"
     d="M 102 16.375 A 17.4375 2.875 0 1 1  67.125,16.375 A 17.4375 2.875 0 1 1  102 16.375 z"
     transform="matrix(0.978032,-0.292992,2.38613,1.598369,-97.33509,26.79313)" />
  <path
     sodipodi:type="arc"
     style="color:#000000;fill:#796d19;fill-opacity:1;fill-rule:nonzero;stroke:none;stroke-width:10.19999695;stroke-linecap:butt;stroke-linejoin:miter;marker:none;marker-start:none;marker-mid:none;marker-end:none;stroke-miterlimit:4;stroke-dasharray:none;stroke-dashoffset:0;stroke-opacity:1;visibility:visible;display:inline;overflow:visible"
     id="path1372"
     sodipodi:cx="84.5625"
     sodipodi:cy="16.375"
     sodipodi:rx="17.4375"
     sodipodi:ry="2.875"
     d="M 102 16.375 A 17.4375 2.875 0 1 1  67.125,16.375 A 17.4375 2.875 0 1 1  102 16.375 z"
     transform="matrix(0.97105,-0.280002,2.244322,1.504519,-94.38116,27.59154)" />
  <path
     sodipodi:type="arc"
     style="color:#000000;fill:url(#linearGradient1384);fill-opacity:1;fill-rule:nonzero;stroke:none;stroke-width:10.19999695;stroke-linecap:butt;stroke-linejoin:miter;marker:none;marker-start:none;marker-mid:none;marker-end:none;stroke-miterlimit:4;stroke-dasharray:none;stroke-dashoffset:0;stroke-opacity:1;visibility:visible;display:inline;overflow:visible"
     id="path3229"
     sodipodi:cx="84.5625"
     sodipodi:cy="16.375"
     sodipodi:rx="17.4375"
     sodipodi:ry="2.875"
     d="M 102 16.375 A 17.4375 2.875 0 1 1  67.125,16.375 A 17.4375 2.875 0 1 1  102 16.375 z"
     transform="matrix(0.838599,-0.242654,1.980658,1.248033,-80.1934,29.37902)" />
</svg>
