<?xml version="1.0" encoding="UTF-8" standalone="no"?>
<!-- Created with Inkscape (http://www.inkscape.org/) -->
<svg
   xmlns:dc="http://purl.org/dc/elements/1.1/"
   xmlns:cc="http://web.resource.org/cc/"
   xmlns:rdf="http://www.w3.org/1999/02/22-rdf-syntax-ns#"
   xmlns:svg="http://www.w3.org/2000/svg"
   xmlns="http://www.w3.org/2000/svg"
   xmlns:xlink="http://www.w3.org/1999/xlink"
   xmlns:sodipodi="http://inkscape.sourceforge.net/DTD/sodipodi-0.dtd"
   xmlns:inkscape="http://www.inkscape.org/namespaces/inkscape"
   width="48"
   height="48"
   id="svg2"
   sodipodi:version="0.32"
   inkscape:version="0.43"
   version="1.0"
   sodipodi:docbase="/home/yekcim/Desktop/SVG/Weapons"
   sodipodi:docname="dynamite_ico.svg"
   inkscape:output_extension="org.inkscape.output.svg.inkscape">
  <defs
     id="defs4">
    <linearGradient
       id="linearGradient5933">
      <stop
         style="stop-color:#dc1b1b;stop-opacity:1;"
         offset="0"
         id="stop5935" />
      <stop
         style="stop-color:#2b0505;stop-opacity:1;"
         offset="1"
         id="stop5937" />
    </linearGradient>
    <linearGradient
       inkscape:collect="always"
       xlink:href="#linearGradient5933"
       id="linearGradient6014"
       gradientUnits="userSpaceOnUse"
       x1="23.27099"
       y1="26.271776"
       x2="10.907344"
       y2="25.630783" />
    <linearGradient
       inkscape:collect="always"
       xlink:href="#linearGradient5933"
       id="linearGradient6016"
       gradientUnits="userSpaceOnUse"
       x1="22.518194"
       y1="-2.2274399"
       x2="3.4623973"
       y2="0.97229314" />
  </defs>
  <sodipodi:namedview
     id="base"
     pagecolor="#ffffff"
     bordercolor="#666666"
     borderopacity="1.0"
     inkscape:pageopacity="0.0"
     inkscape:pageshadow="2"
     inkscape:zoom="11.873501"
     inkscape:cx="28.550307"
     inkscape:cy="23.018692"
     inkscape:document-units="px"
     inkscape:current-layer="layer1"
     inkscape:window-width="1430"
     inkscape:window-height="821"
     inkscape:window-x="0"
     inkscape:window-y="25" />
  <metadata
     id="metadata7">
    <rdf:RDF>
      <cc:Work
         rdf:about="">
        <dc:format>image/svg+xml</dc:format>
        <dc:type
           rdf:resource="http://purl.org/dc/dcmitype/StillImage" />
      </cc:Work>
    </rdf:RDF>
  </metadata>
  <g
     inkscape:label="Calque 1"
     inkscape:groupmode="layer"
     id="layer1">
    <g
       id="g6006"
       transform="matrix(-1.034143,0,0,1.034143,47.72815,-1.6119)">
      <path
         sodipodi:nodetypes="ccccccccssssssscsssssssssscssssssccsssscsssssssssssssscccccccccccc"
         id="path5965"
         d="M 37.667775,2.808309 L 37.631274,7.8134009 L 34.02035,4.807004 L 36.914481,8.6279376 L 32.316129,8.8309584 L 36.816737,9.7682893 L 33.104531,13.590308 L 35.35057,12.048993 C 34.823594,12.626894 34.227602,13.199657 33.623752,13.678067 C 32.606742,14.483809 31.597999,14.953374 30.854327,14.818418 C 30.48249,14.750941 30.141194,14.548641 29.779138,14.101626 C 29.417082,13.65461 29.059334,12.937191 28.769112,11.886085 C 28.150448,9.6454503 27.486436,7.8867677 26.716479,6.6078863 C 25.946522,5.3290048 25.006771,4.4581473 23.881891,4.3271829 C 22.75701,4.1962185 21.669534,4.8321406 20.591161,5.9888382 C 19.771149,6.8684104 18.909461,8.0902423 18.017225,9.6705449 C 16.913381,9.4101381 15.856173,9.2781064 14.921985,9.2795671 C 13.600581,9.2816336 12.516407,9.5618948 11.95707,10.028941 C 11.91036,10.069749 11.841368,10.141175 11.794163,10.191848 C 11.787083,10.199918 11.767644,10.216923 11.761581,10.22443 C 11.741665,10.250512 11.712623,10.293099 11.696418,10.322174 C 11.688729,10.336984 11.670761,10.37211 11.663837,10.387337 C 11.637552,10.448832 11.616607,10.522574 11.598674,10.582826 C 11.59273,10.593758 11.571703,10.637007 11.566092,10.647989 C 11.551712,10.721554 11.537935,10.823898 11.533511,10.908641 C 11.533139,10.923876 11.532884,10.959096 11.533511,10.973804 C 11.534107,10.980982 11.532609,10.999413 11.533511,11.006385 C 11.533511,11.006385 2.2198542,42.068829 2.2152089,42.089114 C 2.2072775,42.126496 2.1896933,42.178138 2.1826274,42.21944 C 2.1818199,42.226113 2.1829659,42.245652 2.1826274,42.252022 C 2.1815219,42.300782 2.1768266,42.365252 2.1826274,42.414929 C 2.3573559,43.631131 4.5621722,45.106693 7.4934081,45.835984 C 10.157739,46.498871 12.639879,46.361561 13.683888,45.607914 C 13.830678,45.497652 13.958537,45.352735 14.042285,45.216936 L 23.295424,13.938718 C 23.374803,13.845601 23.447675,13.719699 23.490913,13.612904 C 23.490849,13.610173 23.491229,13.583125 23.490913,13.580322 C 23.490557,13.577506 23.491056,13.550498 23.490913,13.547741 C 23.517813,13.457363 23.522874,13.348607 23.523494,13.254507 C 23.497686,12.158073 21.760647,10.838657 19.255321,10.028941 C 20.061857,8.6095012 20.788287,7.5355269 21.470861,6.8033751 C 22.194322,6.0273673 22.819379,5.6577444 23.328006,5.565279 C 23.33444,5.5642346 23.35397,5.5660985 23.360587,5.565279 C 23.367359,5.5646649 23.386272,5.5657072 23.393168,5.565279 C 23.477089,5.5621369 23.5828,5.562744 23.65382,5.565279 C 23.667902,5.5660647 23.701497,5.5658747 23.718983,5.565279 C 23.723108,5.5652925 23.747732,5.5651005 23.751565,5.565279 C 23.843014,5.575926 23.949756,5.5989785 24.044798,5.630442 C 24.235541,5.6977276 24.462192,5.8269175 24.663846,5.9888382 C 24.987183,6.256079 25.337551,6.6683126 25.673872,7.2269343 C 26.346514,8.3441778 26.994211,10.031734 27.596179,12.2119 C 27.916273,13.371195 28.324126,14.253721 28.834275,14.883581 C 29.344424,15.513441 29.960621,15.870557 30.626256,15.991351 C 31.957526,16.23294 33.233864,15.525528 34.373126,14.622929 C 35.512388,13.720331 36.547667,12.564571 37.305459,11.625433 L 36.80775,15.608733 L 38.445811,10.973804 L 40.831705,15.17165 L 39.390674,10.485082 L 43.705322,11.969222 L 39.814233,9.4424745 L 44.013249,7.5342301 L 39.520999,8.367286 L 41.621886,3.9362106 L 38.673881,7.7156565 L 37.667775,2.808309 z "
         style="fill:#000000;fill-opacity:1;fill-rule:evenodd;stroke:#000000;stroke-width:1.89624202;stroke-linecap:round;stroke-linejoin:round;stroke-miterlimit:4;stroke-dasharray:none;stroke-opacity:1" />
      <g
         transform="matrix(1.042607,0,0,1.042607,-4.398576,-0.397131)"
         id="g5987">
        <path
           style="opacity:1;color:#000000;fill:url(#linearGradient6014);fill-opacity:1;fill-rule:evenodd;stroke:#000000;stroke-width:0.84709173;stroke-linecap:round;stroke-linejoin:miter;marker:none;marker-start:none;marker-mid:none;marker-end:none;stroke-miterlimit:4;stroke-dasharray:none;stroke-dashoffset:0;stroke-opacity:1;visibility:visible;display:inline;overflow:visible"
           d="M 15.272479,10.944146 C 15.272479,10.944146 6.3341819,40.727233 6.3297264,40.746689 C 6.0700641,41.970489 8.3151603,43.56752 11.409944,44.337502 C 14.356769,45.070673 17.046114,44.797621 17.688712,43.755631 L 26.574365,13.756055 L 15.272479,10.944146 z "
           id="rect2418"
           sodipodi:nodetypes="cssscc" />
        <path
           sodipodi:type="arc"
           style="opacity:1;color:#000000;fill:url(#linearGradient6016);fill-opacity:1;fill-rule:evenodd;stroke:#000000;stroke-width:0;stroke-linecap:round;stroke-linejoin:miter;marker:none;marker-start:none;marker-mid:none;marker-end:none;stroke-miterlimit:4;stroke-dasharray:none;stroke-dashoffset:0;stroke-opacity:1;visibility:visible;display:inline;overflow:visible"
           id="path1543"
           sodipodi:cx="14.486039"
           sodipodi:cy="0.33082396"
           sodipodi:rx="13.475386"
           sodipodi:ry="6.7376928"
           d="M 27.961425 0.33082396 A 13.475386 6.7376928 0 1 1  1.0106535,0.33082396 A 13.475386 6.7376928 0 1 1  27.961425 0.33082396 z"
           transform="matrix(0.424342,0.105577,-9.866123e-2,0.331479,14.93198,10.3051)" />
        <path
           style="fill:#80834a;fill-opacity:1;fill-rule:evenodd;stroke:#000000;stroke-width:0;stroke-linecap:round;stroke-linejoin:round;stroke-miterlimit:4;stroke-dasharray:none;stroke-opacity:1"
           d="M 27.125,4.53125 C 26.046089,4.4056376 25.003054,5.0155721 23.96875,6.125 C 22.934446,7.2344279 21.84392,8.8999562 20.6875,11.1875 C 20.540799,11.480901 20.659724,11.837674 20.953125,11.984375 C 21.246526,12.131076 21.603299,12.012151 21.75,11.71875 C 22.878272,9.4868864 23.906187,7.8783909 24.8125,6.90625 C 25.718813,5.9341091 26.438642,5.6533938 27,5.71875 C 27.561358,5.7841062 28.198596,6.2409139 28.84375,7.3125 C 29.488904,8.3840861 30.110132,10.002679 30.6875,12.09375 C 30.994513,13.205669 31.385699,14.05213 31.875,14.65625 C 32.364301,15.26037 32.955317,15.602892 33.59375,15.71875 C 34.870616,15.950466 36.094795,15.271963 37.1875,14.40625 C 39.37291,12.674824 41.1875,9.9375 41.1875,9.9375 C 41.360089,9.6613576 41.276142,9.297589 41,9.125 C 40.723858,8.952411 40.360089,9.0363576 40.1875,9.3125 C 40.1875,9.3125 38.419649,11.954369 36.46875,13.5 C 35.493301,14.272815 34.525781,14.723191 33.8125,14.59375 C 33.455859,14.52903 33.12851,14.334998 32.78125,13.90625 C 32.43399,13.477502 32.090862,12.789401 31.8125,11.78125 C 31.219118,9.6321811 30.582242,7.9453686 29.84375,6.71875 C 29.105258,5.4921314 28.203911,4.6568624 27.125,4.53125 z "
           id="path2426" />
        <path
           sodipodi:type="star"
           style="opacity:1;color:#000000;fill:#f2f800;fill-opacity:1;fill-rule:evenodd;stroke:#000000;stroke-width:0;stroke-linecap:round;stroke-linejoin:round;marker:none;marker-start:none;marker-mid:none;marker-end:none;stroke-miterlimit:4;stroke-dasharray:none;stroke-dashoffset:0;stroke-opacity:1;visibility:visible;display:inline;overflow:visible"
           id="path3301"
           sodipodi:sides="9"
           sodipodi:cx="78.831001"
           sodipodi:cy="-11.965465"
           sodipodi:r1="21.897501"
           sodipodi:r2="4.6254067"
           sodipodi:arg1="0.5325041"
           sodipodi:arg2="0.88156995"
           inkscape:flatsided="false"
           inkscape:rounded="0"
           inkscape:randomized="0"
           d="M 97.696541,-0.84827175 L 81.772484,-8.3958614 L 86.136849,8.6773341 L 78.789811,-7.3402413 L 71.15867,8.5439451 L 75.826412,-8.4488145 L 59.77046,-1.1860247 L 74.268893,-11.202867 L 57.300889,-15.959814 L 74.846035,-14.313748 L 64.905497,-28.864603 L 77.287788,-16.325841 L 79.026003,-33.862097 L 80.451627,-16.297665 L 93.055266,-28.613914 L 82.857157,-14.242404 L 100.42884,-15.575736 L 83.378804,-11.121739 L 97.696541,-0.84827175 z "
           transform="matrix(0.25951,-3.108736e-2,2.847851e-2,0.283282,20.809,15.14313)" />
      </g>
    </g>
    <path
       sodipodi:type="star"
       style="opacity:1;color:#000000;fill:#f89600;fill-opacity:1;fill-rule:evenodd;stroke:#000000;stroke-width:0;stroke-linecap:round;stroke-linejoin:round;marker:none;marker-start:none;marker-mid:none;marker-end:none;stroke-miterlimit:4;stroke-dasharray:none;stroke-dashoffset:0;stroke-opacity:1;visibility:visible;display:inline;overflow:visible"
       id="path6018"
       sodipodi:sides="9"
       sodipodi:cx="78.831001"
       sodipodi:cy="-11.965465"
       sodipodi:r1="18.876371"
       sodipodi:r2="4.6254067"
       sodipodi:arg1="0.5325041"
       sodipodi:arg2="0.88156995"
       inkscape:flatsided="false"
       inkscape:rounded="0"
       inkscape:randomized="0"
       d="M 95.093721,-2.382076 L 81.772484,-8.3958614 L 85.128884,5.8293119 L 78.789811,-7.3402413 L 72.217198,5.7143261 L 75.826412,-8.4488145 L 62.400183,-2.6732303 L 74.268893,-11.202867 L 60.271331,-15.408726 L 74.846035,-14.313748 L 66.826755,-26.533082 L 77.287788,-16.325841 L 78.999099,-30.841087 L 80.451627,-16.297665 L 91.092788,-26.316979 L 82.857157,-14.242404 L 97.449051,-15.077638 L 83.378804,-11.121739 L 95.093721,-2.382076 z "
       transform="matrix(-0.134535,-1.611628e-2,-1.476381e-2,0.146858,18.63522,10.99058)" />
  </g>
</svg>
