<?xml version="1.0" encoding="UTF-8" standalone="no"?>
<!-- Created with Inkscape (http://www.inkscape.org/) -->
<svg
   xmlns:dc="http://purl.org/dc/elements/1.1/"
   xmlns:cc="http://web.resource.org/cc/"
   xmlns:rdf="http://www.w3.org/1999/02/22-rdf-syntax-ns#"
   xmlns:svg="http://www.w3.org/2000/svg"
   xmlns="http://www.w3.org/2000/svg"
   xmlns:xlink="http://www.w3.org/1999/xlink"
   xmlns:sodipodi="http://inkscape.sourceforge.net/DTD/sodipodi-0.dtd"
   xmlns:inkscape="http://www.inkscape.org/namespaces/inkscape"
   width="154"
   height="15"
   id="svg2"
   sodipodi:version="0.32"
   inkscape:version="0.43"
   version="1.0"
   sodipodi:docbase="/home/yekcim/Desktop/SVG/Weapons"
   sodipodi:docname="dynamite_ani.svg"
   inkscape:output_extension="org.inkscape.output.svg.inkscape">
  <defs
     id="defs4">
    <linearGradient
       id="linearGradient5933">
      <stop
         style="stop-color:#dc1b1b;stop-opacity:1;"
         offset="0"
         id="stop5935" />
      <stop
         style="stop-color:#2b0505;stop-opacity:1;"
         offset="1"
         id="stop5937" />
    </linearGradient>
    <linearGradient
       inkscape:collect="always"
       xlink:href="#linearGradient5933"
       id="linearGradient3614"
       gradientUnits="userSpaceOnUse"
       x1="23.27099"
       y1="26.271776"
       x2="10.907344"
       y2="25.630783" />
    <linearGradient
       inkscape:collect="always"
       xlink:href="#linearGradient5933"
       id="linearGradient3616"
       gradientUnits="userSpaceOnUse"
       x1="22.518194"
       y1="-2.2274399"
       x2="3.4623973"
       y2="0.97229314" />
    <linearGradient
       inkscape:collect="always"
       xlink:href="#linearGradient5933"
       id="linearGradient3636"
       gradientUnits="userSpaceOnUse"
       x1="23.27099"
       y1="26.271776"
       x2="10.907344"
       y2="25.630783" />
    <linearGradient
       inkscape:collect="always"
       xlink:href="#linearGradient5933"
       id="linearGradient3638"
       gradientUnits="userSpaceOnUse"
       x1="22.518194"
       y1="-2.2274399"
       x2="3.4623973"
       y2="0.97229314" />
    <linearGradient
       inkscape:collect="always"
       xlink:href="#linearGradient5933"
       id="linearGradient3640"
       gradientUnits="userSpaceOnUse"
       x1="23.27099"
       y1="26.271776"
       x2="10.907344"
       y2="25.630783" />
    <linearGradient
       inkscape:collect="always"
       xlink:href="#linearGradient5933"
       id="linearGradient3642"
       gradientUnits="userSpaceOnUse"
       x1="22.518194"
       y1="-2.2274399"
       x2="3.4623973"
       y2="0.97229314" />
    <linearGradient
       inkscape:collect="always"
       xlink:href="#linearGradient5933"
       id="linearGradient3644"
       gradientUnits="userSpaceOnUse"
       x1="23.27099"
       y1="26.271776"
       x2="10.907344"
       y2="25.630783" />
    <linearGradient
       inkscape:collect="always"
       xlink:href="#linearGradient5933"
       id="linearGradient3646"
       gradientUnits="userSpaceOnUse"
       x1="22.518194"
       y1="-2.2274399"
       x2="3.4623973"
       y2="0.97229314" />
    <linearGradient
       inkscape:collect="always"
       xlink:href="#linearGradient5933"
       id="linearGradient3648"
       gradientUnits="userSpaceOnUse"
       x1="23.27099"
       y1="26.271776"
       x2="10.907344"
       y2="25.630783" />
    <linearGradient
       inkscape:collect="always"
       xlink:href="#linearGradient5933"
       id="linearGradient3650"
       gradientUnits="userSpaceOnUse"
       x1="22.518194"
       y1="-2.2274399"
       x2="3.4623973"
       y2="0.97229314" />
    <linearGradient
       inkscape:collect="always"
       xlink:href="#linearGradient5933"
       id="linearGradient3652"
       gradientUnits="userSpaceOnUse"
       x1="23.27099"
       y1="26.271776"
       x2="10.907344"
       y2="25.630783" />
    <linearGradient
       inkscape:collect="always"
       xlink:href="#linearGradient5933"
       id="linearGradient3654"
       gradientUnits="userSpaceOnUse"
       x1="22.518194"
       y1="-2.2274399"
       x2="3.4623973"
       y2="0.97229314" />
    <linearGradient
       inkscape:collect="always"
       xlink:href="#linearGradient5933"
       id="linearGradient1882"
       gradientUnits="userSpaceOnUse"
       x1="23.27099"
       y1="26.271776"
       x2="10.907344"
       y2="25.630783" />
    <linearGradient
       inkscape:collect="always"
       xlink:href="#linearGradient5933"
       id="linearGradient1884"
       gradientUnits="userSpaceOnUse"
       x1="22.518194"
       y1="-2.2274399"
       x2="3.4623973"
       y2="0.97229314" />
    <linearGradient
       inkscape:collect="always"
       xlink:href="#linearGradient5933"
       id="linearGradient1914"
       gradientUnits="userSpaceOnUse"
       x1="23.27099"
       y1="26.271776"
       x2="10.907344"
       y2="25.630783" />
    <linearGradient
       inkscape:collect="always"
       xlink:href="#linearGradient5933"
       id="linearGradient1916"
       gradientUnits="userSpaceOnUse"
       x1="22.518194"
       y1="-2.2274399"
       x2="3.4623973"
       y2="0.97229314" />
    <linearGradient
       inkscape:collect="always"
       xlink:href="#linearGradient5933"
       id="linearGradient1942"
       gradientUnits="userSpaceOnUse"
       x1="23.27099"
       y1="26.271776"
       x2="10.907344"
       y2="25.630783" />
    <linearGradient
       inkscape:collect="always"
       xlink:href="#linearGradient5933"
       id="linearGradient1944"
       gradientUnits="userSpaceOnUse"
       x1="22.518194"
       y1="-2.2274399"
       x2="3.4623973"
       y2="0.97229314" />
    <linearGradient
       inkscape:collect="always"
       xlink:href="#linearGradient5933"
       id="linearGradient1974"
       gradientUnits="userSpaceOnUse"
       x1="23.27099"
       y1="26.271776"
       x2="10.907344"
       y2="25.630783" />
    <linearGradient
       inkscape:collect="always"
       xlink:href="#linearGradient5933"
       id="linearGradient1976"
       gradientUnits="userSpaceOnUse"
       x1="22.518194"
       y1="-2.2274399"
       x2="3.4623973"
       y2="0.97229314" />
    <linearGradient
       inkscape:collect="always"
       xlink:href="#linearGradient5933"
       id="linearGradient1994"
       gradientUnits="userSpaceOnUse"
       x1="23.27099"
       y1="26.271776"
       x2="10.907344"
       y2="25.630783" />
    <linearGradient
       inkscape:collect="always"
       xlink:href="#linearGradient5933"
       id="linearGradient1996"
       gradientUnits="userSpaceOnUse"
       x1="22.518194"
       y1="-2.2274399"
       x2="3.4623973"
       y2="0.97229314" />
  </defs>
  <sodipodi:namedview
     id="base"
     pagecolor="#ffffff"
     bordercolor="#666666"
     borderopacity="1.0"
     inkscape:pageopacity="0.0"
     inkscape:pageshadow="2"
     inkscape:zoom="15.999999"
     inkscape:cx="127.05695"
     inkscape:cy="7.0617767"
     inkscape:document-units="px"
     inkscape:current-layer="layer1"
     inkscape:window-width="1430"
     inkscape:window-height="821"
     inkscape:window-x="0"
     inkscape:window-y="25" />
  <metadata
     id="metadata7">
    <rdf:RDF>
      <cc:Work
         rdf:about="">
        <dc:format>image/svg+xml</dc:format>
        <dc:type
           rdf:resource="http://purl.org/dc/dcmitype/StillImage" />
      </cc:Work>
    </rdf:RDF>
  </metadata>
  <g
     inkscape:label="Calque 1"
     inkscape:groupmode="layer"
     id="layer1">
    <g
       id="g3336"
       transform="translate(0,0.707107)">
      <path
         transform="matrix(-7.830198e-2,-9.380007e-3,-8.592836e-3,8.547512e-2,8.076115,3.958354)"
         d="M 97.696541,-0.84827175 L 81.772484,-8.3958614 L 86.136849,8.6773341 L 78.789811,-7.3402413 L 71.15867,8.5439451 L 75.826412,-8.4488145 L 59.77046,-1.1860247 L 74.268893,-11.202867 L 57.300889,-15.959814 L 74.846035,-14.313748 L 64.905497,-28.864603 L 77.287788,-16.325841 L 79.026003,-33.862097 L 80.451627,-16.297665 L 93.055266,-28.613914 L 82.857157,-14.242404 L 100.42884,-15.575736 L 83.378804,-11.121739 L 97.696541,-0.84827175 z "
         inkscape:randomized="0"
         inkscape:rounded="0"
         inkscape:flatsided="false"
         sodipodi:arg2="0.88156995"
         sodipodi:arg1="0.5325041"
         sodipodi:r2="4.6254067"
         sodipodi:r1="21.897501"
         sodipodi:cy="-11.965465"
         sodipodi:cx="78.831001"
         sodipodi:sides="9"
         id="path2461"
         style="color:#000000;fill:#030300;fill-opacity:1;fill-rule:evenodd;stroke:#000000;stroke-width:5.6196084;stroke-linecap:round;stroke-linejoin:round;marker:none;marker-start:none;marker-mid:none;marker-end:none;stroke-miterlimit:4;stroke-dasharray:none;stroke-dashoffset:0;stroke-opacity:1;visibility:visible;display:inline;overflow:visible"
         sodipodi:type="star" />
      <g
         transform="matrix(-0.294798,0,0,0.294798,13.41456,-0.35618)"
         id="g6006">
        <path
           style="fill:#000000;fill-opacity:1;fill-rule:evenodd;stroke:#000000;stroke-width:1.89624202;stroke-linecap:round;stroke-linejoin:round;stroke-miterlimit:4;stroke-dasharray:none;stroke-opacity:1"
           d="M 37.722763,9.1880255 L 35.35057,12.048993 C 34.823594,12.626894 34.227602,13.199657 33.623752,13.678067 C 32.606742,14.483809 31.597999,14.953374 30.854327,14.818418 C 30.48249,14.750941 30.141194,14.548641 29.779138,14.101626 C 29.417082,13.65461 29.059334,12.937191 28.769112,11.886085 C 28.150448,9.6454503 27.486436,7.8867677 26.716479,6.6078863 C 25.946522,5.3290048 25.006771,4.4581473 23.881891,4.3271829 C 22.75701,4.1962185 21.669534,4.8321406 20.591161,5.9888382 C 19.771149,6.8684104 18.909461,8.0902423 18.017225,9.6705449 C 16.913381,9.4101381 15.856173,9.2781064 14.921985,9.2795671 C 13.600581,9.2816336 12.516407,9.5618948 11.95707,10.028941 C 11.91036,10.069749 11.841368,10.141175 11.794163,10.191848 C 11.787083,10.199918 11.767644,10.216923 11.761581,10.22443 C 11.741665,10.250512 11.712623,10.293099 11.696418,10.322174 C 11.688729,10.336984 11.670761,10.37211 11.663837,10.387337 C 11.637552,10.448832 11.616607,10.522574 11.598674,10.582826 C 11.59273,10.593758 11.571703,10.637007 11.566092,10.647989 C 11.551712,10.721554 11.537935,10.823898 11.533511,10.908641 C 11.533139,10.923876 11.532884,10.959096 11.533511,10.973804 C 11.534107,10.980982 11.532609,10.999413 11.533511,11.006385 C 11.533511,11.006385 2.2198542,42.068829 2.2152089,42.089114 C 2.2072775,42.126496 2.1896933,42.178138 2.1826274,42.21944 C 2.1818199,42.226113 2.1829659,42.245652 2.1826274,42.252022 C 2.1815219,42.300782 2.1768266,42.365252 2.1826274,42.414929 C 2.3573559,43.631131 4.5621722,45.106693 7.4934081,45.835984 C 10.157739,46.498871 12.639879,46.361561 13.683888,45.607914 C 13.830678,45.497652 13.958537,45.352735 14.042285,45.216936 L 23.295424,13.938718 C 23.374803,13.845601 23.447675,13.719699 23.490913,13.612904 C 23.490849,13.610173 23.491229,13.583125 23.490913,13.580322 C 23.490557,13.577506 23.491056,13.550498 23.490913,13.547741 C 23.517813,13.457363 23.522874,13.348607 23.523494,13.254507 C 23.497686,12.158073 21.760647,10.838657 19.255321,10.028941 C 20.061857,8.6095012 20.788287,7.5355269 21.470861,6.8033751 C 22.194322,6.0273673 22.819379,5.6577444 23.328006,5.565279 C 23.33444,5.5642346 23.35397,5.5660985 23.360587,5.565279 C 23.367359,5.5646649 23.386272,5.5657072 23.393168,5.565279 C 23.477089,5.5621369 23.5828,5.562744 23.65382,5.565279 C 23.667902,5.5660647 23.701497,5.5658747 23.718983,5.565279 C 23.723108,5.5652925 23.747732,5.5651005 23.751565,5.565279 C 23.843014,5.575926 23.949756,5.5989785 24.044798,5.630442 C 24.235541,5.6977276 24.462192,5.8269175 24.663846,5.9888382 C 24.987183,6.256079 25.337551,6.6683126 25.673872,7.2269343 C 26.346514,8.3441778 26.994211,10.031734 27.596179,12.2119 C 27.916273,13.371195 28.324126,14.253721 28.834275,14.883581 C 29.344424,15.513441 29.960621,15.870557 30.626256,15.991351 C 31.957526,16.23294 33.233864,15.525528 34.373126,14.622929 C 35.512388,13.720331 36.547667,12.564571 37.305459,11.625433 L 38.547612,9.7725561 C 38.744224,9.2582598 38.200385,8.8940815 37.722763,9.1880255 z "
           id="path5965"
           sodipodi:nodetypes="ccssssssscsssssssssscssssssccsssscssssssssssssssccc" />
        <g
           id="g5987"
           transform="matrix(1.042607,0,0,1.042607,-4.398576,-0.397131)">
          <path
             sodipodi:nodetypes="cssscc"
             id="rect2418"
             d="M 15.272479,10.944146 C 15.272479,10.944146 6.3341819,40.727233 6.3297264,40.746689 C 6.0700641,41.970489 8.3151603,43.56752 11.409944,44.337502 C 14.356769,45.070673 17.046114,44.797621 17.688712,43.755631 L 26.574365,13.756055 L 15.272479,10.944146 z "
             style="opacity:1;color:#000000;fill:url(#linearGradient3636);fill-opacity:1;fill-rule:evenodd;stroke:#000000;stroke-width:0.84709173;stroke-linecap:round;stroke-linejoin:miter;marker:none;marker-start:none;marker-mid:none;marker-end:none;stroke-miterlimit:4;stroke-dasharray:none;stroke-dashoffset:0;stroke-opacity:1;visibility:visible;display:inline;overflow:visible" />
          <path
             transform="matrix(0.424342,0.105577,-9.866123e-2,0.331479,14.93198,10.3051)"
             d="M 27.961425 0.33082396 A 13.475386 6.7376928 0 1 1  1.0106535,0.33082396 A 13.475386 6.7376928 0 1 1  27.961425 0.33082396 z"
             sodipodi:ry="6.7376928"
             sodipodi:rx="13.475386"
             sodipodi:cy="0.33082396"
             sodipodi:cx="14.486039"
             id="path1543"
             style="opacity:1;color:#000000;fill:url(#linearGradient3638);fill-opacity:1;fill-rule:evenodd;stroke:#000000;stroke-width:0;stroke-linecap:round;stroke-linejoin:miter;marker:none;marker-start:none;marker-mid:none;marker-end:none;stroke-miterlimit:4;stroke-dasharray:none;stroke-dashoffset:0;stroke-opacity:1;visibility:visible;display:inline;overflow:visible"
             sodipodi:type="arc" />
          <path
             id="path2426"
             d="M 27.125,4.53125 C 26.046089,4.4056376 25.003054,5.0155721 23.96875,6.125 C 22.934446,7.2344279 21.84392,8.8999562 20.6875,11.1875 C 20.540799,11.480901 20.659724,11.837674 20.953125,11.984375 C 21.246526,12.131076 21.603299,12.012151 21.75,11.71875 C 22.878272,9.4868864 23.906187,7.8783909 24.8125,6.90625 C 25.718813,5.9341091 26.438642,5.6533938 27,5.71875 C 27.561358,5.7841062 28.198596,6.2409139 28.84375,7.3125 C 29.488904,8.3840861 30.110132,10.002679 30.6875,12.09375 C 30.994513,13.205669 31.385699,14.05213 31.875,14.65625 C 32.364301,15.26037 32.955317,15.602892 33.59375,15.71875 C 34.870616,15.950466 36.094795,15.271963 37.1875,14.40625 C 39.37291,12.674824 41.1875,9.9375 41.1875,9.9375 C 41.360089,9.6613576 41.276142,9.297589 41,9.125 C 40.723858,8.952411 40.360089,9.0363576 40.1875,9.3125 C 40.1875,9.3125 38.419649,11.954369 36.46875,13.5 C 35.493301,14.272815 34.525781,14.723191 33.8125,14.59375 C 33.455859,14.52903 33.12851,14.334998 32.78125,13.90625 C 32.43399,13.477502 32.090862,12.789401 31.8125,11.78125 C 31.219118,9.6321811 30.582242,7.9453686 29.84375,6.71875 C 29.105258,5.4921314 28.203911,4.6568624 27.125,4.53125 z "
             style="fill:#80834a;fill-opacity:1;fill-rule:evenodd;stroke:#000000;stroke-width:0;stroke-linecap:round;stroke-linejoin:round;stroke-miterlimit:4;stroke-dasharray:none;stroke-opacity:1" />
        </g>
      </g>
      <path
         transform="matrix(-7.830198e-2,-9.380007e-3,-8.592836e-3,8.547512e-2,8.076115,3.958354)"
         d="M 97.696541,-0.84827175 L 81.772484,-8.3958614 L 86.136849,8.6773341 L 78.789811,-7.3402413 L 71.15867,8.5439451 L 75.826412,-8.4488145 L 59.77046,-1.1860247 L 74.268893,-11.202867 L 57.300889,-15.959814 L 74.846035,-14.313748 L 64.905497,-28.864603 L 77.287788,-16.325841 L 79.026003,-33.862097 L 80.451627,-16.297665 L 93.055266,-28.613914 L 82.857157,-14.242404 L 100.42884,-15.575736 L 83.378804,-11.121739 L 97.696541,-0.84827175 z "
         inkscape:randomized="0"
         inkscape:rounded="0"
         inkscape:flatsided="false"
         sodipodi:arg2="0.88156995"
         sodipodi:arg1="0.5325041"
         sodipodi:r2="4.6254067"
         sodipodi:r1="21.897501"
         sodipodi:cy="-11.965465"
         sodipodi:cx="78.831001"
         sodipodi:sides="9"
         id="path3301"
         style="color:#000000;fill:#f2f800;fill-opacity:1;fill-rule:evenodd;stroke:#000000;stroke-width:0;stroke-linecap:round;stroke-linejoin:round;marker:none;marker-start:none;marker-mid:none;marker-end:none;stroke-miterlimit:4;stroke-dasharray:none;stroke-dashoffset:0;stroke-opacity:1;visibility:visible;display:inline;overflow:visible"
         sodipodi:type="star" />
      <path
         transform="matrix(-3.764899e-2,-4.510065e-3,-4.131584e-3,4.109752e-2,4.940356,3.030882)"
         d="M 95.093721,-2.382076 L 81.772484,-8.3958614 L 85.128884,5.8293119 L 78.789811,-7.3402413 L 72.217198,5.7143261 L 75.826412,-8.4488145 L 62.400183,-2.6732303 L 74.268893,-11.202867 L 60.271331,-15.408726 L 74.846035,-14.313748 L 66.826755,-26.533082 L 77.287788,-16.325841 L 78.999099,-30.841087 L 80.451627,-16.297665 L 91.092788,-26.316979 L 82.857157,-14.242404 L 97.449051,-15.077638 L 83.378804,-11.121739 L 95.093721,-2.382076 z "
         inkscape:randomized="0"
         inkscape:rounded="0"
         inkscape:flatsided="false"
         sodipodi:arg2="0.88156995"
         sodipodi:arg1="0.5325041"
         sodipodi:r2="4.6254067"
         sodipodi:r1="18.876371"
         sodipodi:cy="-11.965465"
         sodipodi:cx="78.831001"
         sodipodi:sides="9"
         id="path6018"
         style="color:#000000;fill:#f89600;fill-opacity:1;fill-rule:evenodd;stroke:#000000;stroke-width:0;stroke-linecap:round;stroke-linejoin:round;marker:none;marker-start:none;marker-mid:none;marker-end:none;stroke-miterlimit:4;stroke-dasharray:none;stroke-dashoffset:0;stroke-opacity:1;visibility:visible;display:inline;overflow:visible"
         sodipodi:type="star" />
    </g>
    <path
       sodipodi:type="star"
       style="color:#000000;fill:#030300;fill-opacity:1;fill-rule:evenodd;stroke:#000000;stroke-width:5.6196084;stroke-linecap:round;stroke-linejoin:round;marker:none;marker-start:none;marker-mid:none;marker-end:none;stroke-miterlimit:4;stroke-dasharray:none;stroke-dashoffset:0;stroke-opacity:1;visibility:visible;display:inline;overflow:visible"
       id="path3349"
       sodipodi:sides="9"
       sodipodi:cx="78.831001"
       sodipodi:cy="-11.965465"
       sodipodi:r1="21.897501"
       sodipodi:r2="4.6254067"
       sodipodi:arg1="0.5325041"
       sodipodi:arg2="0.88156995"
       inkscape:flatsided="false"
       inkscape:rounded="0"
       inkscape:randomized="0"
       d="M 97.696541,-0.84827175 L 81.772484,-8.3958614 L 86.136849,8.6773341 L 78.789811,-7.3402413 L 71.15867,8.5439451 L 75.826412,-8.4488145 L 59.77046,-1.1860247 L 74.268893,-11.202867 L 57.300889,-15.959814 L 74.846035,-14.313748 L 64.905497,-28.864603 L 77.287788,-16.325841 L 79.026003,-33.862097 L 80.451627,-16.297665 L 93.055266,-28.613914 L 82.857157,-14.242404 L 100.42884,-15.575736 L 83.378804,-11.121739 L 97.696541,-0.84827175 z "
       transform="matrix(-4.898141e-2,-5.867616e-3,-5.375205e-3,5.346853e-2,35.37308,5.849398)" />
    <g
       id="g3351"
       transform="matrix(-0.294798,0,0,0.294798,41.41507,0.350927)">
      <path
         sodipodi:nodetypes="csssssscsssssssssscssssssccsssscssssssssssssss"
         id="path3353"
         d="M 33.623752,13.678067 C 32.606742,14.483809 31.597999,14.953374 30.854327,14.818418 C 30.48249,14.750941 30.141194,14.548641 29.779138,14.101626 C 29.417082,13.65461 29.059334,12.937191 28.769112,11.886085 C 28.150448,9.6454503 27.486436,7.8867677 26.716479,6.6078863 C 25.946522,5.3290048 25.006771,4.4581473 23.881891,4.3271829 C 22.75701,4.1962185 21.669534,4.8321406 20.591161,5.9888382 C 19.771149,6.8684104 18.909461,8.0902423 18.017225,9.6705449 C 16.913381,9.4101381 15.856173,9.2781064 14.921985,9.2795671 C 13.600581,9.2816336 12.516407,9.5618948 11.95707,10.028941 C 11.91036,10.069749 11.841368,10.141175 11.794163,10.191848 C 11.787083,10.199918 11.767644,10.216923 11.761581,10.22443 C 11.741665,10.250512 11.712623,10.293099 11.696418,10.322174 C 11.688729,10.336984 11.670761,10.37211 11.663837,10.387337 C 11.637552,10.448832 11.616607,10.522574 11.598674,10.582826 C 11.59273,10.593758 11.571703,10.637007 11.566092,10.647989 C 11.551712,10.721554 11.537935,10.823898 11.533511,10.908641 C 11.533139,10.923876 11.532884,10.959096 11.533511,10.973804 C 11.534107,10.980982 11.532609,10.999413 11.533511,11.006385 C 11.533511,11.006385 2.2198542,42.068829 2.2152089,42.089114 C 2.2072775,42.126496 2.1896933,42.178138 2.1826274,42.21944 C 2.1818199,42.226113 2.1829659,42.245652 2.1826274,42.252022 C 2.1815219,42.300782 2.1768266,42.365252 2.1826274,42.414929 C 2.3573559,43.631131 4.5621722,45.106693 7.4934081,45.835984 C 10.157739,46.498871 12.639879,46.361561 13.683888,45.607914 C 13.830678,45.497652 13.958537,45.352735 14.042285,45.216936 L 23.295424,13.938718 C 23.374803,13.845601 23.447675,13.719699 23.490913,13.612904 C 23.490849,13.610173 23.491229,13.583125 23.490913,13.580322 C 23.490557,13.577506 23.491056,13.550498 23.490913,13.547741 C 23.517813,13.457363 23.522874,13.348607 23.523494,13.254507 C 23.497686,12.158073 21.760647,10.838657 19.255321,10.028941 C 20.061857,8.6095012 20.788287,7.5355269 21.470861,6.8033751 C 22.194322,6.0273673 22.819379,5.6577444 23.328006,5.565279 C 23.33444,5.5642346 23.35397,5.5660985 23.360587,5.565279 C 23.367359,5.5646649 23.386272,5.5657072 23.393168,5.565279 C 23.477089,5.5621369 23.5828,5.562744 23.65382,5.565279 C 23.667902,5.5660647 23.701497,5.5658747 23.718983,5.565279 C 23.723108,5.5652925 23.747732,5.5651005 23.751565,5.565279 C 23.843014,5.575926 23.949756,5.5989785 24.044798,5.630442 C 24.235541,5.6977276 24.462192,5.8269175 24.663846,5.9888382 C 24.987183,6.256079 25.337551,6.6683126 25.673872,7.2269343 C 26.346514,8.3441778 26.994211,10.031734 27.596179,12.2119 C 27.916273,13.371195 28.324126,14.253721 28.834275,14.883581 C 29.344424,15.513441 29.960621,15.870557 30.626256,15.991351 C 31.957526,16.23294 34.227602,13.199657 33.623752,13.678067 z "
         style="fill:#000000;fill-opacity:1;fill-rule:evenodd;stroke:#000000;stroke-width:1.89624202;stroke-linecap:round;stroke-linejoin:round;stroke-miterlimit:4;stroke-dasharray:none;stroke-opacity:1" />
      <g
         transform="matrix(1.042607,0,0,1.042607,-4.398576,-0.397131)"
         id="g3355">
        <path
           style="opacity:1;color:#000000;fill:url(#linearGradient3640);fill-opacity:1;fill-rule:evenodd;stroke:#000000;stroke-width:0.84709173;stroke-linecap:round;stroke-linejoin:miter;marker:none;marker-start:none;marker-mid:none;marker-end:none;stroke-miterlimit:4;stroke-dasharray:none;stroke-dashoffset:0;stroke-opacity:1;visibility:visible;display:inline;overflow:visible"
           d="M 15.272479,10.944146 C 15.272479,10.944146 6.3341819,40.727233 6.3297264,40.746689 C 6.0700641,41.970489 8.3151603,43.56752 11.409944,44.337502 C 14.356769,45.070673 17.046114,44.797621 17.688712,43.755631 L 26.574365,13.756055 L 15.272479,10.944146 z "
           id="path3357"
           sodipodi:nodetypes="cssscc" />
        <path
           sodipodi:type="arc"
           style="opacity:1;color:#000000;fill:url(#linearGradient3642);fill-opacity:1;fill-rule:evenodd;stroke:#000000;stroke-width:0;stroke-linecap:round;stroke-linejoin:miter;marker:none;marker-start:none;marker-mid:none;marker-end:none;stroke-miterlimit:4;stroke-dasharray:none;stroke-dashoffset:0;stroke-opacity:1;visibility:visible;display:inline;overflow:visible"
           id="path3359"
           sodipodi:cx="14.486039"
           sodipodi:cy="0.33082396"
           sodipodi:rx="13.475386"
           sodipodi:ry="6.7376928"
           d="M 27.961425 0.33082396 A 13.475386 6.7376928 0 1 1  1.0106535,0.33082396 A 13.475386 6.7376928 0 1 1  27.961425 0.33082396 z"
           transform="matrix(0.424342,0.105577,-9.866123e-2,0.331479,14.93198,10.3051)" />
        <path
           style="fill:#80834a;fill-opacity:1;fill-rule:evenodd;stroke:#000000;stroke-width:0;stroke-linecap:round;stroke-linejoin:round;stroke-miterlimit:4;stroke-dasharray:none;stroke-opacity:1"
           d="M 27.125,4.53125 C 26.046089,4.4056376 25.003054,5.0155721 23.96875,6.125 C 22.934446,7.2344279 21.84392,8.8999562 20.6875,11.1875 C 20.540799,11.480901 20.659724,11.837674 20.953125,11.984375 C 21.246526,12.131076 21.603299,12.012151 21.75,11.71875 C 22.878272,9.4868864 23.906187,7.8783909 24.8125,6.90625 C 25.718813,5.9341091 26.438642,5.6533938 27,5.71875 C 27.561358,5.7841062 28.198596,6.2409139 28.84375,7.3125 C 29.488904,8.3840861 30.110132,10.002679 30.6875,12.09375 C 30.994513,13.205669 31.385699,14.05213 31.875,14.65625 C 32.364301,15.26037 32.955317,15.602892 33.59375,15.71875 C 34.870616,15.950466 38.140324,15.423889 37.1875,14.40625 C 37.009521,14.216164 35.919252,14.69453 36.46875,13.5 C 35.493301,14.272815 34.525781,14.723191 33.8125,14.59375 C 33.455859,14.52903 33.12851,14.334998 32.78125,13.90625 C 32.43399,13.477502 32.090862,12.789401 31.8125,11.78125 C 31.219118,9.6321811 30.582242,7.9453686 29.84375,6.71875 C 29.105258,5.4921314 28.203911,4.6568624 27.125,4.53125 z "
           id="path3361"
           sodipodi:nodetypes="cssssssssssscssssc" />
      </g>
    </g>
    <path
       sodipodi:type="star"
       style="color:#000000;fill:#f2f800;fill-opacity:1;fill-rule:evenodd;stroke:#000000;stroke-width:0;stroke-linecap:round;stroke-linejoin:round;marker:none;marker-start:none;marker-mid:none;marker-end:none;stroke-miterlimit:4;stroke-dasharray:none;stroke-dashoffset:0;stroke-opacity:1;visibility:visible;display:inline;overflow:visible"
       id="path3363"
       sodipodi:sides="9"
       sodipodi:cx="78.831001"
       sodipodi:cy="-11.965465"
       sodipodi:r1="21.897501"
       sodipodi:r2="4.6254067"
       sodipodi:arg1="0.5325041"
       sodipodi:arg2="0.88156995"
       inkscape:flatsided="false"
       inkscape:rounded="0"
       inkscape:randomized="0"
       d="M 97.696541,-0.84827175 L 81.772484,-8.3958614 L 86.136849,8.6773341 L 78.789811,-7.3402413 L 71.15867,8.5439451 L 75.826412,-8.4488145 L 59.77046,-1.1860247 L 74.268893,-11.202867 L 57.300889,-15.959814 L 74.846035,-14.313748 L 64.905497,-28.864603 L 77.287788,-16.325841 L 79.026003,-33.862097 L 80.451627,-16.297665 L 93.055266,-28.613914 L 82.857157,-14.242404 L 100.42884,-15.575736 L 83.378804,-11.121739 L 97.696541,-0.84827175 z "
       transform="matrix(-4.898141e-2,-5.867616e-3,-5.375205e-3,5.346853e-2,35.37308,5.849398)" />
    <path
       sodipodi:type="star"
       style="color:#000000;fill:#f89600;fill-opacity:1;fill-rule:evenodd;stroke:#000000;stroke-width:0;stroke-linecap:round;stroke-linejoin:round;marker:none;marker-start:none;marker-mid:none;marker-end:none;stroke-miterlimit:4;stroke-dasharray:none;stroke-dashoffset:0;stroke-opacity:1;visibility:visible;display:inline;overflow:visible"
       id="path3365"
       sodipodi:sides="9"
       sodipodi:cx="78.831001"
       sodipodi:cy="-11.965465"
       sodipodi:r1="18.876371"
       sodipodi:r2="4.6254067"
       sodipodi:arg1="0.5325041"
       sodipodi:arg2="0.88156995"
       inkscape:flatsided="false"
       inkscape:rounded="0"
       inkscape:randomized="0"
       d="M 95.093721,-2.382076 L 81.772484,-8.3958614 L 85.128884,5.8293119 L 78.789811,-7.3402413 L 72.217198,5.7143261 L 75.826412,-8.4488145 L 62.400183,-2.6732303 L 74.268893,-11.202867 L 60.271331,-15.408726 L 74.846035,-14.313748 L 66.826755,-26.533082 L 77.287788,-16.325841 L 78.999099,-30.841087 L 80.451627,-16.297665 L 91.092788,-26.316979 L 82.857157,-14.242404 L 97.449051,-15.077638 L 83.378804,-11.121739 L 95.093721,-2.382076 z "
       transform="matrix(-2.355114e-2,-2.821248e-3,-2.584492e-3,2.570835e-2,33.41153,5.269223)" />
    <path
       sodipodi:type="star"
       style="color:#000000;fill:#030300;fill-opacity:1;fill-rule:evenodd;stroke:#000000;stroke-width:5.6196084;stroke-linecap:round;stroke-linejoin:round;marker:none;marker-start:none;marker-mid:none;marker-end:none;stroke-miterlimit:4;stroke-dasharray:none;stroke-dashoffset:0;stroke-opacity:1;visibility:visible;display:inline;overflow:visible"
       id="path3373"
       sodipodi:sides="9"
       sodipodi:cx="78.831001"
       sodipodi:cy="-11.965465"
       sodipodi:r1="21.897501"
       sodipodi:r2="4.6254067"
       sodipodi:arg1="0.5325041"
       sodipodi:arg2="0.88156995"
       inkscape:flatsided="false"
       inkscape:rounded="0"
       inkscape:randomized="0"
       d="M 97.696541,-0.84827175 L 81.772484,-8.3958614 L 86.136849,8.6773341 L 78.789811,-7.3402413 L 71.15867,8.5439451 L 75.826412,-8.4488145 L 59.77046,-1.1860247 L 74.268893,-11.202867 L 57.300889,-15.959814 L 74.846035,-14.313748 L 64.905497,-28.864603 L 77.287788,-16.325841 L 79.026003,-33.862097 L 80.451627,-16.297665 L 93.055266,-28.613914 L 82.857157,-14.242404 L 100.42884,-15.575736 L 83.378804,-11.121739 L 97.696541,-0.84827175 z "
       transform="matrix(-7.830198e-2,-9.380007e-3,-8.592836e-3,8.547512e-2,66.98219,5.844557)" />
    <g
       id="g3375"
       transform="matrix(-0.294798,0,0,0.294798,69.415,0.350927)">
      <path
         sodipodi:nodetypes="cssscsssssssssscssssssccsssscssssssssssss"
         id="path3377"
         d="M 28.769112,11.886085 C 28.150448,9.6454503 27.486436,7.8867677 26.716479,6.6078863 C 25.946522,5.3290048 25.006771,4.4581473 23.881891,4.3271829 C 22.75701,4.1962185 21.669534,4.8321406 20.591161,5.9888382 C 19.771149,6.8684104 18.909461,8.0902423 18.017225,9.6705449 C 16.913381,9.4101381 15.856173,9.2781064 14.921985,9.2795671 C 13.600581,9.2816336 12.516407,9.5618948 11.95707,10.028941 C 11.91036,10.069749 11.841368,10.141175 11.794163,10.191848 C 11.787083,10.199918 11.767644,10.216923 11.761581,10.22443 C 11.741665,10.250512 11.712623,10.293099 11.696418,10.322174 C 11.688729,10.336984 11.670761,10.37211 11.663837,10.387337 C 11.637552,10.448832 11.616607,10.522574 11.598674,10.582826 C 11.59273,10.593758 11.571703,10.637007 11.566092,10.647989 C 11.551712,10.721554 11.537935,10.823898 11.533511,10.908641 C 11.533139,10.923876 11.532884,10.959096 11.533511,10.973804 C 11.534107,10.980982 11.532609,10.999413 11.533511,11.006385 C 11.533511,11.006385 2.2198542,42.068829 2.2152089,42.089114 C 2.2072775,42.126496 2.1896933,42.178138 2.1826274,42.21944 C 2.1818199,42.226113 2.1829659,42.245652 2.1826274,42.252022 C 2.1815219,42.300782 2.1768266,42.365252 2.1826274,42.414929 C 2.3573559,43.631131 4.5621722,45.106693 7.4934081,45.835984 C 10.157739,46.498871 12.639879,46.361561 13.683888,45.607914 C 13.830678,45.497652 13.958537,45.352735 14.042285,45.216936 L 23.295424,13.938718 C 23.374803,13.845601 23.447675,13.719699 23.490913,13.612904 C 23.490849,13.610173 23.491229,13.583125 23.490913,13.580322 C 23.490557,13.577506 23.491056,13.550498 23.490913,13.547741 C 23.517813,13.457363 23.522874,13.348607 23.523494,13.254507 C 23.497686,12.158073 21.760647,10.838657 19.255321,10.028941 C 20.061857,8.6095012 20.788287,7.5355269 21.470861,6.8033751 C 22.194322,6.0273673 22.819379,5.6577444 23.328006,5.565279 C 23.33444,5.5642346 23.35397,5.5660985 23.360587,5.565279 C 23.367359,5.5646649 23.386272,5.5657072 23.393168,5.565279 C 23.477089,5.5621369 23.5828,5.562744 23.65382,5.565279 C 23.667902,5.5660647 23.701497,5.5658747 23.718983,5.565279 C 23.723108,5.5652925 23.747732,5.5651005 23.751565,5.565279 C 23.843014,5.575926 23.949756,5.5989785 24.044798,5.630442 C 24.235541,5.6977276 24.462192,5.8269175 24.663846,5.9888382 C 24.987183,6.256079 25.337551,6.6683126 25.673872,7.2269343 C 26.346514,8.3441778 26.994211,10.031734 27.596179,12.2119 C 27.916273,13.371195 29.059334,12.937191 28.769112,11.886085 z "
         style="fill:#000000;fill-opacity:1;fill-rule:evenodd;stroke:#000000;stroke-width:1.89624202;stroke-linecap:round;stroke-linejoin:round;stroke-miterlimit:4;stroke-dasharray:none;stroke-opacity:1" />
      <g
         transform="matrix(1.042607,0,0,1.042607,-4.398576,-0.397131)"
         id="g3379">
        <path
           style="opacity:1;color:#000000;fill:url(#linearGradient3644);fill-opacity:1;fill-rule:evenodd;stroke:#000000;stroke-width:0.84709173;stroke-linecap:round;stroke-linejoin:miter;marker:none;marker-start:none;marker-mid:none;marker-end:none;stroke-miterlimit:4;stroke-dasharray:none;stroke-dashoffset:0;stroke-opacity:1;visibility:visible;display:inline;overflow:visible"
           d="M 15.272479,10.944146 C 15.272479,10.944146 6.3341819,40.727233 6.3297264,40.746689 C 6.0700641,41.970489 8.3151603,43.56752 11.409944,44.337502 C 14.356769,45.070673 17.046114,44.797621 17.688712,43.755631 L 26.574365,13.756055 L 15.272479,10.944146 z "
           id="path3381"
           sodipodi:nodetypes="cssscc" />
        <path
           sodipodi:type="arc"
           style="opacity:1;color:#000000;fill:url(#linearGradient3646);fill-opacity:1;fill-rule:evenodd;stroke:#000000;stroke-width:0;stroke-linecap:round;stroke-linejoin:miter;marker:none;marker-start:none;marker-mid:none;marker-end:none;stroke-miterlimit:4;stroke-dasharray:none;stroke-dashoffset:0;stroke-opacity:1;visibility:visible;display:inline;overflow:visible"
           id="path3383"
           sodipodi:cx="14.486039"
           sodipodi:cy="0.33082396"
           sodipodi:rx="13.475386"
           sodipodi:ry="6.7376928"
           d="M 27.961425 0.33082396 A 13.475386 6.7376928 0 1 1  1.0106535,0.33082396 A 13.475386 6.7376928 0 1 1  27.961425 0.33082396 z"
           transform="matrix(0.424342,0.105577,-9.866123e-2,0.331479,14.93198,10.3051)" />
        <path
           style="fill:#80834a;fill-opacity:1;fill-rule:evenodd;stroke:#000000;stroke-width:0;stroke-linecap:round;stroke-linejoin:round;stroke-miterlimit:4;stroke-dasharray:none;stroke-opacity:1"
           d="M 27.125,4.53125 C 26.046089,4.4056376 25.003054,5.0155721 23.96875,6.125 C 22.934446,7.2344279 21.84392,8.8999562 20.6875,11.1875 C 20.540799,11.480901 20.659724,11.837674 20.953125,11.984375 C 21.246526,12.131076 21.603299,12.012151 21.75,11.71875 C 22.878272,9.4868864 23.906187,7.8783909 24.8125,6.90625 C 25.718813,5.9341091 26.438642,5.6533938 27,5.71875 C 27.561358,5.7841062 28.198596,6.2409139 28.84375,7.3125 C 29.488904,8.3840861 30.110132,10.002679 30.6875,12.09375 C 30.994513,13.205669 32.090862,12.789401 31.8125,11.78125 C 31.219118,9.6321811 30.582242,7.9453686 29.84375,6.71875 C 29.105258,5.4921314 28.203911,4.6568624 27.125,4.53125 z "
           id="path3385"
           sodipodi:nodetypes="cssssssssssc" />
      </g>
    </g>
    <path
       sodipodi:type="star"
       style="color:#000000;fill:#f2f800;fill-opacity:1;fill-rule:evenodd;stroke:#000000;stroke-width:0;stroke-linecap:round;stroke-linejoin:round;marker:none;marker-start:none;marker-mid:none;marker-end:none;stroke-miterlimit:4;stroke-dasharray:none;stroke-dashoffset:0;stroke-opacity:1;visibility:visible;display:inline;overflow:visible"
       id="path3387"
       sodipodi:sides="9"
       sodipodi:cx="78.831001"
       sodipodi:cy="-11.965465"
       sodipodi:r1="21.897501"
       sodipodi:r2="4.6254067"
       sodipodi:arg1="0.5325041"
       sodipodi:arg2="0.88156995"
       inkscape:flatsided="false"
       inkscape:rounded="0"
       inkscape:randomized="0"
       d="M 97.696541,-0.84827175 L 81.772484,-8.3958614 L 86.136849,8.6773341 L 78.789811,-7.3402413 L 71.15867,8.5439451 L 75.826412,-8.4488145 L 59.77046,-1.1860247 L 74.268893,-11.202867 L 57.300889,-15.959814 L 74.846035,-14.313748 L 64.905497,-28.864603 L 77.287788,-16.325841 L 79.026003,-33.862097 L 80.451627,-16.297665 L 93.055266,-28.613914 L 82.857157,-14.242404 L 100.42884,-15.575736 L 83.378804,-11.121739 L 97.696541,-0.84827175 z "
       transform="matrix(-7.830198e-2,-9.380007e-3,-8.592836e-3,8.547512e-2,66.98219,5.844557)" />
    <path
       sodipodi:type="star"
       style="color:#000000;fill:#f89600;fill-opacity:1;fill-rule:evenodd;stroke:#000000;stroke-width:0;stroke-linecap:round;stroke-linejoin:round;marker:none;marker-start:none;marker-mid:none;marker-end:none;stroke-miterlimit:4;stroke-dasharray:none;stroke-dashoffset:0;stroke-opacity:1;visibility:visible;display:inline;overflow:visible"
       id="path3389"
       sodipodi:sides="9"
       sodipodi:cx="78.831001"
       sodipodi:cy="-11.965465"
       sodipodi:r1="18.876371"
       sodipodi:r2="4.6254067"
       sodipodi:arg1="0.5325041"
       sodipodi:arg2="0.88156995"
       inkscape:flatsided="false"
       inkscape:rounded="0"
       inkscape:randomized="0"
       d="M 95.093721,-2.382076 L 81.772484,-8.3958614 L 85.128884,5.8293119 L 78.789811,-7.3402413 L 72.217198,5.7143261 L 75.826412,-8.4488145 L 62.400183,-2.6732303 L 74.268893,-11.202867 L 60.271331,-15.408726 L 74.846035,-14.313748 L 66.826755,-26.533082 L 77.287788,-16.325841 L 78.999099,-30.841087 L 80.451627,-16.297665 L 91.092788,-26.316979 L 82.857157,-14.242404 L 97.449051,-15.077638 L 83.378804,-11.121739 L 95.093721,-2.382076 z "
       transform="matrix(-3.764899e-2,-4.510065e-3,-4.131584e-3,4.109752e-2,63.84643,4.917085)" />
    <path
       sodipodi:type="star"
       style="color:#000000;fill:#030300;fill-opacity:1;fill-rule:evenodd;stroke:#000000;stroke-width:5.6196084;stroke-linecap:round;stroke-linejoin:round;marker:none;marker-start:none;marker-mid:none;marker-end:none;stroke-miterlimit:4;stroke-dasharray:none;stroke-dashoffset:0;stroke-opacity:1;visibility:visible;display:inline;overflow:visible"
       id="path3393"
       sodipodi:sides="9"
       sodipodi:cx="78.831001"
       sodipodi:cy="-11.965465"
       sodipodi:r1="21.897501"
       sodipodi:r2="4.6254067"
       sodipodi:arg1="0.5325041"
       sodipodi:arg2="0.88156995"
       inkscape:flatsided="false"
       inkscape:rounded="0"
       inkscape:randomized="0"
       d="M 97.696541,-0.84827175 L 81.772484,-8.3958614 L 86.136849,8.6773341 L 78.789811,-7.3402413 L 71.15867,8.5439451 L 75.826412,-8.4488145 L 59.77046,-1.1860247 L 74.268893,-11.202867 L 57.300889,-15.959814 L 74.846035,-14.313748 L 64.905497,-28.864603 L 77.287788,-16.325841 L 79.026003,-33.862097 L 80.451627,-16.297665 L 93.055266,-28.613914 L 82.857157,-14.242404 L 100.42884,-15.575736 L 83.378804,-11.121739 L 97.696541,-0.84827175 z "
       transform="matrix(-4.65539e-2,-5.576818e-3,-5.108811e-3,5.081864e-2,94.04927,2.762056)" />
    <g
       id="g3395"
       transform="matrix(-0.294798,0,0,0.294798,97.41497,0.350927)">
      <path
         sodipodi:nodetypes="cscsssssssssscssssssccsssscssssssss"
         id="path3397"
         d="M 23.881891,4.3271829 C 22.75701,4.1962185 21.669534,4.8321406 20.591161,5.9888382 C 19.771149,6.8684104 18.909461,8.0902423 18.017225,9.6705449 C 16.913381,9.4101381 15.856173,9.2781064 14.921985,9.2795671 C 13.600581,9.2816336 12.516407,9.5618948 11.95707,10.028941 C 11.91036,10.069749 11.841368,10.141175 11.794163,10.191848 C 11.787083,10.199918 11.767644,10.216923 11.761581,10.22443 C 11.741665,10.250512 11.712623,10.293099 11.696418,10.322174 C 11.688729,10.336984 11.670761,10.37211 11.663837,10.387337 C 11.637552,10.448832 11.616607,10.522574 11.598674,10.582826 C 11.59273,10.593758 11.571703,10.637007 11.566092,10.647989 C 11.551712,10.721554 11.537935,10.823898 11.533511,10.908641 C 11.533139,10.923876 11.532884,10.959096 11.533511,10.973804 C 11.534107,10.980982 11.532609,10.999413 11.533511,11.006385 C 11.533511,11.006385 2.2198542,42.068829 2.2152089,42.089114 C 2.2072775,42.126496 2.1896933,42.178138 2.1826274,42.21944 C 2.1818199,42.226113 2.1829659,42.245652 2.1826274,42.252022 C 2.1815219,42.300782 2.1768266,42.365252 2.1826274,42.414929 C 2.3573559,43.631131 4.5621722,45.106693 7.4934081,45.835984 C 10.157739,46.498871 12.639879,46.361561 13.683888,45.607914 C 13.830678,45.497652 13.958537,45.352735 14.042285,45.216936 L 23.295424,13.938718 C 23.374803,13.845601 23.447675,13.719699 23.490913,13.612904 C 23.490849,13.610173 23.491229,13.583125 23.490913,13.580322 C 23.490557,13.577506 23.491056,13.550498 23.490913,13.547741 C 23.517813,13.457363 23.522874,13.348607 23.523494,13.254507 C 23.497686,12.158073 21.760647,10.838657 19.255321,10.028941 C 20.061857,8.6095012 20.788287,7.5355269 21.470861,6.8033751 C 22.194322,6.0273673 22.819379,5.6577444 23.328006,5.565279 C 23.33444,5.5642346 23.35397,5.5660985 23.360587,5.565279 C 23.367359,5.5646649 23.386272,5.5657072 23.393168,5.565279 C 23.477089,5.5621369 23.5828,5.562744 23.65382,5.565279 C 23.667902,5.5660647 23.701497,5.5658747 23.718983,5.565279 C 23.723108,5.5652925 23.747732,5.5651005 23.751565,5.565279 C 23.843014,5.575926 25.006771,4.4581473 23.881891,4.3271829 z "
         style="fill:#000000;fill-opacity:1;fill-rule:evenodd;stroke:#000000;stroke-width:1.89624202;stroke-linecap:round;stroke-linejoin:round;stroke-miterlimit:4;stroke-dasharray:none;stroke-opacity:1" />
      <g
         transform="matrix(1.042607,0,0,1.042607,-4.398576,-0.397131)"
         id="g3399">
        <path
           style="opacity:1;color:#000000;fill:url(#linearGradient3648);fill-opacity:1;fill-rule:evenodd;stroke:#000000;stroke-width:0.84709173;stroke-linecap:round;stroke-linejoin:miter;marker:none;marker-start:none;marker-mid:none;marker-end:none;stroke-miterlimit:4;stroke-dasharray:none;stroke-dashoffset:0;stroke-opacity:1;visibility:visible;display:inline;overflow:visible"
           d="M 15.272479,10.944146 C 15.272479,10.944146 6.3341819,40.727233 6.3297264,40.746689 C 6.0700641,41.970489 8.3151603,43.56752 11.409944,44.337502 C 14.356769,45.070673 17.046114,44.797621 17.688712,43.755631 L 26.574365,13.756055 L 15.272479,10.944146 z "
           id="path3401"
           sodipodi:nodetypes="cssscc" />
        <path
           sodipodi:type="arc"
           style="opacity:1;color:#000000;fill:url(#linearGradient3650);fill-opacity:1;fill-rule:evenodd;stroke:#000000;stroke-width:0;stroke-linecap:round;stroke-linejoin:miter;marker:none;marker-start:none;marker-mid:none;marker-end:none;stroke-miterlimit:4;stroke-dasharray:none;stroke-dashoffset:0;stroke-opacity:1;visibility:visible;display:inline;overflow:visible"
           id="path3403"
           sodipodi:cx="14.486039"
           sodipodi:cy="0.33082396"
           sodipodi:rx="13.475386"
           sodipodi:ry="6.7376928"
           d="M 27.961425 0.33082396 A 13.475386 6.7376928 0 1 1  1.0106535,0.33082396 A 13.475386 6.7376928 0 1 1  27.961425 0.33082396 z"
           transform="matrix(0.424342,0.105577,-9.866123e-2,0.331479,14.93198,10.3051)" />
        <path
           style="fill:#80834a;fill-opacity:1;fill-rule:evenodd;stroke:#000000;stroke-width:0;stroke-linecap:round;stroke-linejoin:round;stroke-miterlimit:4;stroke-dasharray:none;stroke-opacity:1"
           d="M 27.125,4.53125 C 26.046089,4.4056376 25.003054,5.0155721 23.96875,6.125 C 22.934446,7.2344279 21.84392,8.8999562 20.6875,11.1875 C 20.540799,11.480901 20.659724,11.837674 20.953125,11.984375 C 21.246526,12.131076 21.603299,12.012151 21.75,11.71875 C 22.878272,9.4868864 23.906187,7.8783909 24.8125,6.90625 C 25.718813,5.9341091 26.438642,5.6533938 27,5.71875 C 26.931642,5.6872269 27.138239,4.6568624 27.125,4.53125 z "
           id="path3405"
           sodipodi:nodetypes="cssssscc" />
      </g>
    </g>
    <path
       sodipodi:type="star"
       style="color:#000000;fill:#f2f800;fill-opacity:1;fill-rule:evenodd;stroke:#000000;stroke-width:0;stroke-linecap:round;stroke-linejoin:round;marker:none;marker-start:none;marker-mid:none;marker-end:none;stroke-miterlimit:4;stroke-dasharray:none;stroke-dashoffset:0;stroke-opacity:1;visibility:visible;display:inline;overflow:visible"
       id="path3407"
       sodipodi:sides="9"
       sodipodi:cx="78.831001"
       sodipodi:cy="-11.965465"
       sodipodi:r1="21.897501"
       sodipodi:r2="4.6254067"
       sodipodi:arg1="0.5325041"
       sodipodi:arg2="0.88156995"
       inkscape:flatsided="false"
       inkscape:rounded="0"
       inkscape:randomized="0"
       d="M 97.696541,-0.84827175 L 81.772484,-8.3958614 L 86.136849,8.6773341 L 78.789811,-7.3402413 L 71.15867,8.5439451 L 75.826412,-8.4488145 L 59.77046,-1.1860247 L 74.268893,-11.202867 L 57.300889,-15.959814 L 74.846035,-14.313748 L 64.905497,-28.864603 L 77.287788,-16.325841 L 79.026003,-33.862097 L 80.451627,-16.297665 L 93.055266,-28.613914 L 82.857157,-14.242404 L 100.42884,-15.575736 L 83.378804,-11.121739 L 97.696541,-0.84827175 z "
       transform="matrix(-4.65539e-2,-5.576818e-3,-5.108811e-3,5.081864e-2,94.04927,2.762056)" />
    <path
       sodipodi:type="star"
       style="color:#000000;fill:#f89600;fill-opacity:1;fill-rule:evenodd;stroke:#000000;stroke-width:0;stroke-linecap:round;stroke-linejoin:round;marker:none;marker-start:none;marker-mid:none;marker-end:none;stroke-miterlimit:4;stroke-dasharray:none;stroke-dashoffset:0;stroke-opacity:1;visibility:visible;display:inline;overflow:visible"
       id="path3409"
       sodipodi:sides="9"
       sodipodi:cx="78.831001"
       sodipodi:cy="-11.965465"
       sodipodi:r1="18.876371"
       sodipodi:r2="4.6254067"
       sodipodi:arg1="0.5325041"
       sodipodi:arg2="0.88156995"
       inkscape:flatsided="false"
       inkscape:rounded="0"
       inkscape:randomized="0"
       d="M 95.093721,-2.382076 L 81.772484,-8.3958614 L 85.128884,5.8293119 L 78.789811,-7.3402413 L 72.217198,5.7143261 L 75.826412,-8.4488145 L 62.400183,-2.6732303 L 74.268893,-11.202867 L 60.271331,-15.408726 L 74.846035,-14.313748 L 66.826755,-26.533082 L 77.287788,-16.325841 L 78.999099,-30.841087 L 80.451627,-16.297665 L 91.092788,-26.316979 L 82.857157,-14.242404 L 97.449051,-15.077638 L 83.378804,-11.121739 L 95.093721,-2.382076 z "
       transform="matrix(-2.238395e-2,-2.681428e-3,-2.456405e-3,2.443425e-2,92.18492,2.210634)" />
    <path
       sodipodi:type="star"
       style="color:#000000;fill:#030300;fill-opacity:1;fill-rule:evenodd;stroke:#000000;stroke-width:5.6196084;stroke-linecap:round;stroke-linejoin:round;marker:none;marker-start:none;marker-mid:none;marker-end:none;stroke-miterlimit:4;stroke-dasharray:none;stroke-dashoffset:0;stroke-opacity:1;visibility:visible;display:inline;overflow:visible"
       id="path3538"
       sodipodi:sides="9"
       sodipodi:cx="78.831001"
       sodipodi:cy="-11.965465"
       sodipodi:r1="21.897501"
       sodipodi:r2="4.6254067"
       sodipodi:arg1="0.5325041"
       sodipodi:arg2="0.88156995"
       inkscape:flatsided="false"
       inkscape:rounded="0"
       inkscape:randomized="0"
       d="M 97.696541,-0.84827175 L 81.772484,-8.3958614 L 86.136849,8.6773341 L 78.789811,-7.3402413 L 71.15867,8.5439451 L 75.826412,-8.4488145 L 59.77046,-1.1860247 L 74.268893,-11.202867 L 57.300889,-15.959814 L 74.846035,-14.313748 L 64.905497,-28.864603 L 77.287788,-16.325841 L 79.026003,-33.862097 L 80.451627,-16.297665 L 93.055266,-28.613914 L 82.857157,-14.242404 L 100.42884,-15.575736 L 83.378804,-11.121739 L 97.696541,-0.84827175 z "
       transform="matrix(-7.830198e-2,-9.380007e-3,-8.592836e-3,8.547512e-2,126.2249,5.486617)" />
    <g
       id="g3540"
       transform="matrix(-0.294798,0,0,0.294798,125.4152,0.350927)">
      <path
         sodipodi:nodetypes="csssssssssscssssssccsssscc"
         id="path3542"
         d="M 18.017225,9.6705449 C 16.913381,9.4101381 15.856173,9.2781064 14.921985,9.2795671 C 13.600581,9.2816336 12.516407,9.5618948 11.95707,10.028941 C 11.91036,10.069749 11.841368,10.141175 11.794163,10.191848 C 11.787083,10.199918 11.767644,10.216923 11.761581,10.22443 C 11.741665,10.250512 11.712623,10.293099 11.696418,10.322174 C 11.688729,10.336984 11.670761,10.37211 11.663837,10.387337 C 11.637552,10.448832 11.616607,10.522574 11.598674,10.582826 C 11.59273,10.593758 11.571703,10.637007 11.566092,10.647989 C 11.551712,10.721554 11.537935,10.823898 11.533511,10.908641 C 11.533139,10.923876 11.532884,10.959096 11.533511,10.973804 C 11.534107,10.980982 11.532609,10.999413 11.533511,11.006385 C 11.533511,11.006385 2.2198542,42.068829 2.2152089,42.089114 C 2.2072775,42.126496 2.1896933,42.178138 2.1826274,42.21944 C 2.1818199,42.226113 2.1829659,42.245652 2.1826274,42.252022 C 2.1815219,42.300782 2.1768266,42.365252 2.1826274,42.414929 C 2.3573559,43.631131 4.5621722,45.106693 7.4934081,45.835984 C 10.157739,46.498871 12.639879,46.361561 13.683888,45.607914 C 13.830678,45.497652 13.958537,45.352735 14.042285,45.216936 L 23.295424,13.938718 C 23.374803,13.845601 23.447675,13.719699 23.490913,13.612904 C 23.490849,13.610173 23.491229,13.583125 23.490913,13.580322 C 23.490557,13.577506 23.491056,13.550498 23.490913,13.547741 C 23.517813,13.457363 23.522874,13.348607 23.523494,13.254507 C 23.497686,12.158073 21.760647,10.838657 19.255321,10.028941 C 19.490475,9.2880175 18.391646,9.3401408 18.017225,9.6705449 z "
         style="fill:#000000;fill-opacity:1;fill-rule:evenodd;stroke:#000000;stroke-width:1.89624202;stroke-linecap:round;stroke-linejoin:round;stroke-miterlimit:4;stroke-dasharray:none;stroke-opacity:1" />
      <g
         transform="matrix(1.042607,0,0,1.042607,-4.398576,-0.397131)"
         id="g3544">
        <path
           style="opacity:1;color:#000000;fill:url(#linearGradient3652);fill-opacity:1;fill-rule:evenodd;stroke:#000000;stroke-width:0.84709173;stroke-linecap:round;stroke-linejoin:miter;marker:none;marker-start:none;marker-mid:none;marker-end:none;stroke-miterlimit:4;stroke-dasharray:none;stroke-dashoffset:0;stroke-opacity:1;visibility:visible;display:inline;overflow:visible"
           d="M 15.272479,10.944146 C 15.272479,10.944146 6.3341819,40.727233 6.3297264,40.746689 C 6.0700641,41.970489 8.3151603,43.56752 11.409944,44.337502 C 14.356769,45.070673 17.046114,44.797621 17.688712,43.755631 L 26.574365,13.756055 L 15.272479,10.944146 z "
           id="path3546"
           sodipodi:nodetypes="cssscc" />
        <path
           sodipodi:type="arc"
           style="opacity:1;color:#000000;fill:url(#linearGradient3654);fill-opacity:1;fill-rule:evenodd;stroke:#000000;stroke-width:0;stroke-linecap:round;stroke-linejoin:miter;marker:none;marker-start:none;marker-mid:none;marker-end:none;stroke-miterlimit:4;stroke-dasharray:none;stroke-dashoffset:0;stroke-opacity:1;visibility:visible;display:inline;overflow:visible"
           id="path3548"
           sodipodi:cx="14.486039"
           sodipodi:cy="0.33082396"
           sodipodi:rx="13.475386"
           sodipodi:ry="6.7376928"
           d="M 27.961425 0.33082396 A 13.475386 6.7376928 0 1 1  1.0106535,0.33082396 A 13.475386 6.7376928 0 1 1  27.961425 0.33082396 z"
           transform="matrix(0.424342,0.105577,-9.866123e-2,0.331479,14.93198,10.3051)" />
      </g>
    </g>
    <path
       sodipodi:type="star"
       style="color:#000000;fill:#f2f800;fill-opacity:1;fill-rule:evenodd;stroke:#000000;stroke-width:0;stroke-linecap:round;stroke-linejoin:round;marker:none;marker-start:none;marker-mid:none;marker-end:none;stroke-miterlimit:4;stroke-dasharray:none;stroke-dashoffset:0;stroke-opacity:1;visibility:visible;display:inline;overflow:visible"
       id="path3552"
       sodipodi:sides="9"
       sodipodi:cx="78.831001"
       sodipodi:cy="-11.965465"
       sodipodi:r1="21.897501"
       sodipodi:r2="4.6254067"
       sodipodi:arg1="0.5325041"
       sodipodi:arg2="0.88156995"
       inkscape:flatsided="false"
       inkscape:rounded="0"
       inkscape:randomized="0"
       d="M 97.696541,-0.84827175 L 81.772484,-8.3958614 L 86.136849,8.6773341 L 78.789811,-7.3402413 L 71.15867,8.5439451 L 75.826412,-8.4488145 L 59.77046,-1.1860247 L 74.268893,-11.202867 L 57.300889,-15.959814 L 74.846035,-14.313748 L 64.905497,-28.864603 L 77.287788,-16.325841 L 79.026003,-33.862097 L 80.451627,-16.297665 L 93.055266,-28.613914 L 82.857157,-14.242404 L 100.42884,-15.575736 L 83.378804,-11.121739 L 97.696541,-0.84827175 z "
       transform="matrix(-7.830198e-2,-9.380007e-3,-8.592836e-3,8.547512e-2,126.2249,5.486617)" />
    <path
       sodipodi:type="star"
       style="color:#000000;fill:#f89600;fill-opacity:1;fill-rule:evenodd;stroke:#000000;stroke-width:0;stroke-linecap:round;stroke-linejoin:round;marker:none;marker-start:none;marker-mid:none;marker-end:none;stroke-miterlimit:4;stroke-dasharray:none;stroke-dashoffset:0;stroke-opacity:1;visibility:visible;display:inline;overflow:visible"
       id="path3554"
       sodipodi:sides="9"
       sodipodi:cx="78.831001"
       sodipodi:cy="-11.965465"
       sodipodi:r1="18.876371"
       sodipodi:r2="4.6254067"
       sodipodi:arg1="0.5325041"
       sodipodi:arg2="0.88156995"
       inkscape:flatsided="false"
       inkscape:rounded="0"
       inkscape:randomized="0"
       d="M 95.093721,-2.382076 L 81.772484,-8.3958614 L 85.128884,5.8293119 L 78.789811,-7.3402413 L 72.217198,5.7143261 L 75.826412,-8.4488145 L 62.400183,-2.6732303 L 74.268893,-11.202867 L 60.271331,-15.408726 L 74.846035,-14.313748 L 66.826755,-26.533082 L 77.287788,-16.325841 L 78.999099,-30.841087 L 80.451627,-16.297665 L 91.092788,-26.316979 L 82.857157,-14.242404 L 97.449051,-15.077638 L 83.378804,-11.121739 L 95.093721,-2.382076 z "
       transform="matrix(-3.764899e-2,-4.510065e-3,-4.131584e-3,4.109752e-2,123.0891,4.559145)" />
    <g
       id="g3558"
       transform="matrix(-0.294798,0,0,0.294798,153.4152,0.350927)">
      <path
         sodipodi:nodetypes="csssssssssscssssssccsssscc"
         id="path3560"
         d="M 18.017225,9.6705449 C 16.913381,9.4101381 15.856173,9.2781064 14.921985,9.2795671 C 13.600581,9.2816336 12.516407,9.5618948 11.95707,10.028941 C 11.91036,10.069749 11.841368,10.141175 11.794163,10.191848 C 11.787083,10.199918 11.767644,10.216923 11.761581,10.22443 C 11.741665,10.250512 11.712623,10.293099 11.696418,10.322174 C 11.688729,10.336984 11.670761,10.37211 11.663837,10.387337 C 11.637552,10.448832 11.616607,10.522574 11.598674,10.582826 C 11.59273,10.593758 11.571703,10.637007 11.566092,10.647989 C 11.551712,10.721554 11.537935,10.823898 11.533511,10.908641 C 11.533139,10.923876 11.532884,10.959096 11.533511,10.973804 C 11.534107,10.980982 11.532609,10.999413 11.533511,11.006385 C 11.533511,11.006385 2.2198542,42.068829 2.2152089,42.089114 C 2.2072775,42.126496 2.1896933,42.178138 2.1826274,42.21944 C 2.1818199,42.226113 2.1829659,42.245652 2.1826274,42.252022 C 2.1815219,42.300782 2.1768266,42.365252 2.1826274,42.414929 C 2.3573559,43.631131 4.5621722,45.106693 7.4934081,45.835984 C 10.157739,46.498871 12.639879,46.361561 13.683888,45.607914 C 13.830678,45.497652 13.958537,45.352735 14.042285,45.216936 L 23.295424,13.938718 C 23.374803,13.845601 23.447675,13.719699 23.490913,13.612904 C 23.490849,13.610173 23.491229,13.583125 23.490913,13.580322 C 23.490557,13.577506 23.491056,13.550498 23.490913,13.547741 C 23.517813,13.457363 23.522874,13.348607 23.523494,13.254507 C 23.497686,12.158073 21.760647,10.838657 19.255321,10.028941 C 19.280072,10.040566 18.034921,9.6803141 18.017225,9.6705449 z "
         style="fill:#000000;fill-opacity:1;fill-rule:evenodd;stroke:#000000;stroke-width:1.89624202;stroke-linecap:round;stroke-linejoin:round;stroke-miterlimit:4;stroke-dasharray:none;stroke-opacity:1" />
      <g
         transform="matrix(1.042607,0,0,1.042607,-4.398576,-0.397131)"
         id="g3562">
        <path
           style="opacity:1;color:#000000;fill:url(#linearGradient3614);fill-opacity:1;fill-rule:evenodd;stroke:#000000;stroke-width:0.84709173;stroke-linecap:round;stroke-linejoin:miter;marker:none;marker-start:none;marker-mid:none;marker-end:none;stroke-miterlimit:4;stroke-dasharray:none;stroke-dashoffset:0;stroke-opacity:1;visibility:visible;display:inline;overflow:visible"
           d="M 15.272479,10.944146 C 11.083764,11.606059 5.0323674,31.743441 6.3297264,40.746689 C 6.5081576,41.984943 8.3151603,43.56752 11.409944,44.337502 C 14.356769,45.070673 16.74829,44.539393 17.688712,43.755631 C 25.137013,37.548105 28.719724,18.181961 26.574365,13.756055 L 15.272479,10.944146 z "
           id="path3564"
           sodipodi:nodetypes="cssscc" />
        <path
           sodipodi:type="arc"
           style="opacity:1;color:#000000;fill:url(#linearGradient3616);fill-opacity:1;fill-rule:evenodd;stroke:#000000;stroke-width:0;stroke-linecap:round;stroke-linejoin:miter;marker:none;marker-start:none;marker-mid:none;marker-end:none;stroke-miterlimit:4;stroke-dasharray:none;stroke-dashoffset:0;stroke-opacity:1;visibility:visible;display:inline;overflow:visible"
           id="path3566"
           sodipodi:cx="14.486039"
           sodipodi:cy="0.33082396"
           sodipodi:rx="13.475386"
           sodipodi:ry="6.7376928"
           d="M 27.961425 0.33082396 A 13.475386 6.7376928 0 1 1  1.0106535,0.33082396 A 13.475386 6.7376928 0 1 1  27.961425 0.33082396 z"
           transform="matrix(0.424342,0.105577,-9.866123e-2,0.331479,14.93198,10.3051)" />
      </g>
    </g>
    <path
       sodipodi:type="star"
       style="color:#000000;fill:#030300;fill-opacity:1;fill-rule:evenodd;stroke:#000000;stroke-width:5.6196084;stroke-linecap:round;stroke-linejoin:round;marker:none;marker-start:none;marker-mid:none;marker-end:none;stroke-miterlimit:4;stroke-dasharray:none;stroke-dashoffset:0;stroke-opacity:1;visibility:visible;display:inline;overflow:visible"
       id="path1863"
       sodipodi:sides="9"
       sodipodi:cx="78.831001"
       sodipodi:cy="-11.965465"
       sodipodi:r1="21.897501"
       sodipodi:r2="4.6254067"
       sodipodi:arg1="0.5325041"
       sodipodi:arg2="0.88156995"
       inkscape:flatsided="false"
       inkscape:rounded="0"
       inkscape:randomized="0"
       d="M 97.696541,-0.84827175 L 81.772484,-8.3958614 L 86.136849,8.6773341 L 78.789811,-7.3402413 L 71.15867,8.5439451 L 75.826412,-8.4488145 L 59.77046,-1.1860247 L 74.268893,-11.202867 L 57.300889,-15.959814 L 74.846035,-14.313748 L 64.905497,-28.864603 L 77.287788,-16.325841 L 79.026003,-33.862097 L 80.451627,-16.297665 L 93.055266,-28.613914 L 82.857157,-14.242404 L 100.42884,-15.575736 L 83.378804,-11.121739 L 97.696541,-0.84827175 z "
       transform="matrix(-0.100005,-1.197986e-2,-1.097451e-2,0.109166,24.52872,6.271452)" />
    <g
       id="g1865"
       transform="matrix(-0.294798,0,0,0.294798,27.41463,0.350927)">
      <path
         sodipodi:nodetypes="ccssssssscsssssssssscssssssccsssscssssssssssssssccc"
         id="path1867"
         d="M 35.73641,11.961424 L 35.35057,12.048993 C 34.823594,12.626894 34.227602,13.199657 33.623752,13.678067 C 32.606742,14.483809 31.597999,14.953374 30.854327,14.818418 C 30.48249,14.750941 30.141194,14.548641 29.779138,14.101626 C 29.417082,13.65461 29.059334,12.937191 28.769112,11.886085 C 28.150448,9.6454503 27.486436,7.8867677 26.716479,6.6078863 C 25.946522,5.3290048 25.006771,4.4581473 23.881891,4.3271829 C 22.75701,4.1962185 21.669534,4.8321406 20.591161,5.9888382 C 19.771149,6.8684104 18.909461,8.0902423 18.017225,9.6705449 C 16.913381,9.4101381 15.856173,9.2781064 14.921985,9.2795671 C 13.600581,9.2816336 12.516407,9.5618948 11.95707,10.028941 C 11.91036,10.069749 11.841368,10.141175 11.794163,10.191848 C 11.787083,10.199918 11.767644,10.216923 11.761581,10.22443 C 11.741665,10.250512 11.712623,10.293099 11.696418,10.322174 C 11.688729,10.336984 11.670761,10.37211 11.663837,10.387337 C 11.637552,10.448832 11.616607,10.522574 11.598674,10.582826 C 11.59273,10.593758 11.571703,10.637007 11.566092,10.647989 C 11.551712,10.721554 11.537935,10.823898 11.533511,10.908641 C 11.533139,10.923876 11.532884,10.959096 11.533511,10.973804 C 11.534107,10.980982 11.532609,10.999413 11.533511,11.006385 C 11.533511,11.006385 2.2198542,42.068829 2.2152089,42.089114 C 2.2072775,42.126496 2.1896933,42.178138 2.1826274,42.21944 C 2.1818199,42.226113 2.1829659,42.245652 2.1826274,42.252022 C 2.1815219,42.300782 2.1768266,42.365252 2.1826274,42.414929 C 2.3573559,43.631131 4.5621722,45.106693 7.4934081,45.835984 C 10.157739,46.498871 12.639879,46.361561 13.683888,45.607914 C 13.830678,45.497652 13.958537,45.352735 14.042285,45.216936 L 23.295424,13.938718 C 23.374803,13.845601 23.447675,13.719699 23.490913,13.612904 C 23.490849,13.610173 23.491229,13.583125 23.490913,13.580322 C 23.490557,13.577506 23.491056,13.550498 23.490913,13.547741 C 23.517813,13.457363 23.522874,13.348607 23.523494,13.254507 C 23.497686,12.158073 21.760647,10.838657 19.255321,10.028941 C 20.061857,8.6095012 20.788287,7.5355269 21.470861,6.8033751 C 22.194322,6.0273673 22.819379,5.6577444 23.328006,5.565279 C 23.33444,5.5642346 23.35397,5.5660985 23.360587,5.565279 C 23.367359,5.5646649 23.386272,5.5657072 23.393168,5.565279 C 23.477089,5.5621369 23.5828,5.562744 23.65382,5.565279 C 23.667902,5.5660647 23.701497,5.5658747 23.718983,5.565279 C 23.723108,5.5652925 23.747732,5.5651005 23.751565,5.565279 C 23.843014,5.575926 23.949756,5.5989785 24.044798,5.630442 C 24.235541,5.6977276 24.462192,5.8269175 24.663846,5.9888382 C 24.987183,6.256079 25.337551,6.6683126 25.673872,7.2269343 C 26.346514,8.3441778 26.994211,10.031734 27.596179,12.2119 C 27.916273,13.371195 28.324126,14.253721 28.834275,14.883581 C 29.344424,15.513441 29.960621,15.870557 30.626256,15.991351 C 31.957526,16.23294 33.233864,15.525528 34.373126,14.622929 C 35.512388,13.720331 36.547667,12.564571 37.305459,11.625433 L 36.561259,12.545954 C 36.757871,12.031658 36.214032,11.66748 35.73641,11.961424 z "
         style="fill:#000000;fill-opacity:1;fill-rule:evenodd;stroke:#000000;stroke-width:1.89624202;stroke-linecap:round;stroke-linejoin:round;stroke-miterlimit:4;stroke-dasharray:none;stroke-opacity:1" />
      <g
         transform="matrix(1.042607,0,0,1.042607,-4.398576,-0.397131)"
         id="g1869">
        <path
           style="opacity:1;color:#000000;fill:url(#linearGradient1882);fill-opacity:1;fill-rule:evenodd;stroke:#000000;stroke-width:0.84709173;stroke-linecap:round;stroke-linejoin:miter;marker:none;marker-start:none;marker-mid:none;marker-end:none;stroke-miterlimit:4;stroke-dasharray:none;stroke-dashoffset:0;stroke-opacity:1;visibility:visible;display:inline;overflow:visible"
           d="M 15.272479,10.944146 C 15.272479,10.944146 6.3341819,40.727233 6.3297264,40.746689 C 6.0700641,41.970489 8.3151603,43.56752 11.409944,44.337502 C 14.356769,45.070673 17.046114,44.797621 17.688712,43.755631 L 26.574365,13.756055 L 15.272479,10.944146 z "
           id="path1871"
           sodipodi:nodetypes="cssscc" />
        <path
           sodipodi:type="arc"
           style="opacity:1;color:#000000;fill:url(#linearGradient1884);fill-opacity:1;fill-rule:evenodd;stroke:#000000;stroke-width:0;stroke-linecap:round;stroke-linejoin:miter;marker:none;marker-start:none;marker-mid:none;marker-end:none;stroke-miterlimit:4;stroke-dasharray:none;stroke-dashoffset:0;stroke-opacity:1;visibility:visible;display:inline;overflow:visible"
           id="path1873"
           sodipodi:cx="14.486039"
           sodipodi:cy="0.33082396"
           sodipodi:rx="13.475386"
           sodipodi:ry="6.7376928"
           d="M 27.961425 0.33082396 A 13.475386 6.7376928 0 1 1  1.0106535,0.33082396 A 13.475386 6.7376928 0 1 1  27.961425 0.33082396 z"
           transform="matrix(0.424342,0.105577,-9.866123e-2,0.331479,14.93198,10.3051)" />
        <path
           style="fill:#80834a;fill-opacity:1;fill-rule:evenodd;stroke:#000000;stroke-width:0;stroke-linecap:round;stroke-linejoin:round;stroke-miterlimit:4;stroke-dasharray:none;stroke-opacity:1"
           d="M 27.125,4.53125 C 26.046089,4.4056376 25.003054,5.0155721 23.96875,6.125 C 22.934446,7.2344279 21.84392,8.8999562 20.6875,11.1875 C 20.540799,11.480901 20.659724,11.837674 20.953125,11.984375 C 21.246526,12.131076 21.603299,12.012151 21.75,11.71875 C 22.878272,9.4868864 23.906187,7.8783909 24.8125,6.90625 C 25.718813,5.9341091 26.438642,5.6533938 27,5.71875 C 27.561358,5.7841062 28.198596,6.2409139 28.84375,7.3125 C 29.488904,8.3840861 30.110132,10.002679 30.6875,12.09375 C 30.994513,13.205669 31.385699,14.05213 31.875,14.65625 C 32.364301,15.26037 32.955317,15.602892 33.59375,15.71875 C 34.870616,15.950466 36.094795,15.271963 37.1875,14.40625 C 39.37291,12.674824 39.462055,12.417827 39.462055,12.417827 C 39.634644,12.141685 39.550697,11.777916 39.274555,11.605327 C 38.998413,11.432738 38.634644,11.516685 38.462055,11.792827 C 38.462055,11.792827 38.419649,11.954369 36.46875,13.5 C 35.493301,14.272815 34.525781,14.723191 33.8125,14.59375 C 33.455859,14.52903 33.12851,14.334998 32.78125,13.90625 C 32.43399,13.477502 32.090862,12.789401 31.8125,11.78125 C 31.219118,9.6321811 30.582242,7.9453686 29.84375,6.71875 C 29.105258,5.4921314 28.203911,4.6568624 27.125,4.53125 z "
           id="path1875"
           sodipodi:nodetypes="cssssssssssscscsssssc" />
      </g>
    </g>
    <path
       sodipodi:type="star"
       style="color:#000000;fill:#f2f800;fill-opacity:1;fill-rule:evenodd;stroke:#000000;stroke-width:0;stroke-linecap:round;stroke-linejoin:round;marker:none;marker-start:none;marker-mid:none;marker-end:none;stroke-miterlimit:4;stroke-dasharray:none;stroke-dashoffset:0;stroke-opacity:1;visibility:visible;display:inline;overflow:visible"
       id="path1877"
       sodipodi:sides="9"
       sodipodi:cx="78.831001"
       sodipodi:cy="-11.965465"
       sodipodi:r1="21.897501"
       sodipodi:r2="4.6254067"
       sodipodi:arg1="0.5325041"
       sodipodi:arg2="0.88156995"
       inkscape:flatsided="false"
       inkscape:rounded="0"
       inkscape:randomized="0"
       d="M 97.696541,-0.84827175 L 81.772484,-8.3958614 L 86.136849,8.6773341 L 78.789811,-7.3402413 L 71.15867,8.5439451 L 75.826412,-8.4488145 L 59.77046,-1.1860247 L 74.268893,-11.202867 L 57.300889,-15.959814 L 74.846035,-14.313748 L 64.905497,-28.864603 L 77.287788,-16.325841 L 79.026003,-33.862097 L 80.451627,-16.297665 L 93.055266,-28.613914 L 82.857157,-14.242404 L 100.42884,-15.575736 L 83.378804,-11.121739 L 97.696541,-0.84827175 z "
       transform="matrix(-0.100005,-1.197986e-2,-1.097451e-2,0.109166,24.52872,6.271452)" />
    <path
       sodipodi:type="star"
       style="color:#000000;fill:#f89600;fill-opacity:1;fill-rule:evenodd;stroke:#000000;stroke-width:0;stroke-linecap:round;stroke-linejoin:round;marker:none;marker-start:none;marker-mid:none;marker-end:none;stroke-miterlimit:4;stroke-dasharray:none;stroke-dashoffset:0;stroke-opacity:1;visibility:visible;display:inline;overflow:visible"
       id="path1879"
       sodipodi:sides="9"
       sodipodi:cx="78.831001"
       sodipodi:cy="-11.965465"
       sodipodi:r1="18.876371"
       sodipodi:r2="4.6254067"
       sodipodi:arg1="0.5325041"
       sodipodi:arg2="0.88156995"
       inkscape:flatsided="false"
       inkscape:rounded="0"
       inkscape:randomized="0"
       d="M 95.093721,-2.382076 L 81.772484,-8.3958614 L 85.128884,5.8293119 L 78.789811,-7.3402413 L 72.217198,5.7143261 L 75.826412,-8.4488145 L 62.400183,-2.6732303 L 74.268893,-11.202867 L 60.271331,-15.408726 L 74.846035,-14.313748 L 66.826755,-26.533082 L 77.287788,-16.325841 L 78.999099,-30.841087 L 80.451627,-16.297665 L 91.092788,-26.316979 L 82.857157,-14.242404 L 97.449051,-15.077638 L 83.378804,-11.121739 L 95.093721,-2.382076 z "
       transform="matrix(-4.808416e-2,-5.760119e-3,-5.276733e-3,5.248851e-2,20.52385,5.086913)" />
    <g
       id="g1897"
       transform="matrix(-0.294798,0,0,0.294798,55.41507,0.350927)">
      <path
         sodipodi:nodetypes="csssssscsssssssssscssssssccsssscssssssssssssss"
         id="path1899"
         d="M 32.237053,14.952331 C 31.220043,15.758073 31.597999,14.953374 30.854327,14.818418 C 30.48249,14.750941 30.141194,14.548641 29.779138,14.101626 C 29.417082,13.65461 29.059334,12.937191 28.769112,11.886085 C 28.150448,9.6454503 27.486436,7.8867677 26.716479,6.6078863 C 25.946522,5.3290048 25.006771,4.4581473 23.881891,4.3271829 C 22.75701,4.1962185 21.669534,4.8321406 20.591161,5.9888382 C 19.771149,6.8684104 18.909461,8.0902423 18.017225,9.6705449 C 16.913381,9.4101381 15.856173,9.2781064 14.921985,9.2795671 C 13.600581,9.2816336 12.516407,9.5618948 11.95707,10.028941 C 11.91036,10.069749 11.841368,10.141175 11.794163,10.191848 C 11.787083,10.199918 11.767644,10.216923 11.761581,10.22443 C 11.741665,10.250512 11.712623,10.293099 11.696418,10.322174 C 11.688729,10.336984 11.670761,10.37211 11.663837,10.387337 C 11.637552,10.448832 11.616607,10.522574 11.598674,10.582826 C 11.59273,10.593758 11.571703,10.637007 11.566092,10.647989 C 11.551712,10.721554 11.537935,10.823898 11.533511,10.908641 C 11.533139,10.923876 11.532884,10.959096 11.533511,10.973804 C 11.534107,10.980982 11.532609,10.999413 11.533511,11.006385 C 11.533511,11.006385 2.2198542,42.068829 2.2152089,42.089114 C 2.2072775,42.126496 2.1896933,42.178138 2.1826274,42.21944 C 2.1818199,42.226113 2.1829659,42.245652 2.1826274,42.252022 C 2.1815219,42.300782 2.1768266,42.365252 2.1826274,42.414929 C 2.3573559,43.631131 4.5621722,45.106693 7.4934081,45.835984 C 10.157739,46.498871 12.639879,46.361561 13.683888,45.607914 C 13.830678,45.497652 13.958537,45.352735 14.042285,45.216936 L 23.295424,13.938718 C 23.374803,13.845601 23.447675,13.719699 23.490913,13.612904 C 23.490849,13.610173 23.491229,13.583125 23.490913,13.580322 C 23.490557,13.577506 23.491056,13.550498 23.490913,13.547741 C 23.517813,13.457363 23.522874,13.348607 23.523494,13.254507 C 23.497686,12.158073 21.760647,10.838657 19.255321,10.028941 C 20.061857,8.6095012 20.788287,7.5355269 21.470861,6.8033751 C 22.194322,6.0273673 22.819379,5.6577444 23.328006,5.565279 C 23.33444,5.5642346 23.35397,5.5660985 23.360587,5.565279 C 23.367359,5.5646649 23.386272,5.5657072 23.393168,5.565279 C 23.477089,5.5621369 23.5828,5.562744 23.65382,5.565279 C 23.667902,5.5660647 23.701497,5.5658747 23.718983,5.565279 C 23.723108,5.5652925 23.747732,5.5651005 23.751565,5.565279 C 23.843014,5.575926 23.949756,5.5989785 24.044798,5.630442 C 24.235541,5.6977276 24.462192,5.8269175 24.663846,5.9888382 C 24.987183,6.256079 25.337551,6.6683126 25.673872,7.2269343 C 26.346514,8.3441778 26.994211,10.031734 27.596179,12.2119 C 27.916273,13.371195 28.324126,14.253721 28.834275,14.883581 C 29.344424,15.513441 29.960621,15.870557 30.626256,15.991351 C 31.957526,16.23294 32.840903,14.473921 32.237053,14.952331 z "
         style="fill:#000000;fill-opacity:1;fill-rule:evenodd;stroke:#000000;stroke-width:1.89624202;stroke-linecap:round;stroke-linejoin:round;stroke-miterlimit:4;stroke-dasharray:none;stroke-opacity:1" />
      <g
         transform="matrix(1.042607,0,0,1.042607,-4.398576,-0.397131)"
         id="g1901">
        <path
           style="opacity:1;color:#000000;fill:url(#linearGradient1914);fill-opacity:1;fill-rule:evenodd;stroke:#000000;stroke-width:0.84709173;stroke-linecap:round;stroke-linejoin:miter;marker:none;marker-start:none;marker-mid:none;marker-end:none;stroke-miterlimit:4;stroke-dasharray:none;stroke-dashoffset:0;stroke-opacity:1;visibility:visible;display:inline;overflow:visible"
           d="M 15.272479,10.944146 C 15.272479,10.944146 6.3341819,40.727233 6.3297264,40.746689 C 6.0700641,41.970489 8.3151603,43.56752 11.409944,44.337502 C 14.356769,45.070673 17.046114,44.797621 17.688712,43.755631 L 26.574365,13.756055 L 15.272479,10.944146 z "
           id="path1903"
           sodipodi:nodetypes="cssscc" />
        <path
           sodipodi:type="arc"
           style="opacity:1;color:#000000;fill:url(#linearGradient1916);fill-opacity:1;fill-rule:evenodd;stroke:#000000;stroke-width:0;stroke-linecap:round;stroke-linejoin:miter;marker:none;marker-start:none;marker-mid:none;marker-end:none;stroke-miterlimit:4;stroke-dasharray:none;stroke-dashoffset:0;stroke-opacity:1;visibility:visible;display:inline;overflow:visible"
           id="path1905"
           sodipodi:cx="14.486039"
           sodipodi:cy="0.33082396"
           sodipodi:rx="13.475386"
           sodipodi:ry="6.7376928"
           d="M 27.961425 0.33082396 A 13.475386 6.7376928 0 1 1  1.0106535,0.33082396 A 13.475386 6.7376928 0 1 1  27.961425 0.33082396 z"
           transform="matrix(0.424342,0.105577,-9.866123e-2,0.331479,14.93198,10.3051)" />
        <path
           style="fill:#80834a;fill-opacity:1;fill-rule:evenodd;stroke:#000000;stroke-width:0;stroke-linecap:round;stroke-linejoin:round;stroke-miterlimit:4;stroke-dasharray:none;stroke-opacity:1"
           d="M 27.125,4.53125 C 26.046089,4.4056376 25.003054,5.0155721 23.96875,6.125 C 22.934446,7.2344279 21.84392,8.8999562 20.6875,11.1875 C 20.540799,11.480901 20.659724,11.837674 20.953125,11.984375 C 21.246526,12.131076 21.603299,12.012151 21.75,11.71875 C 22.878272,9.4868864 23.906187,7.8783909 24.8125,6.90625 C 25.718813,5.9341091 26.438642,5.6533938 27,5.71875 C 27.561358,5.7841062 28.198596,6.2409139 28.84375,7.3125 C 29.488904,8.3840861 30.110132,10.002679 30.6875,12.09375 C 30.994513,13.205669 31.385699,14.05213 31.875,14.65625 C 32.364301,15.26037 32.955317,15.602892 33.59375,15.71875 C 34.870616,15.950466 38.140324,15.423889 37.1875,14.40625 C 37.009521,14.216164 35.919252,14.69453 36.46875,13.5 C 35.493301,14.272815 34.525781,14.723191 33.8125,14.59375 C 33.455859,14.52903 33.12851,14.334998 32.78125,13.90625 C 32.43399,13.477502 32.090862,12.789401 31.8125,11.78125 C 31.219118,9.6321811 30.582242,7.9453686 29.84375,6.71875 C 29.105258,5.4921314 28.203911,4.6568624 27.125,4.53125 z "
           id="path1907"
           sodipodi:nodetypes="cssssssssssscssssc" />
      </g>
    </g>
    <path
       sodipodi:type="star"
       style="color:#000000;fill:#030300;fill-opacity:1;fill-rule:evenodd;stroke:#000000;stroke-width:5.6196084;stroke-linecap:round;stroke-linejoin:round;marker:none;marker-start:none;marker-mid:none;marker-end:none;stroke-miterlimit:4;stroke-dasharray:none;stroke-dashoffset:0;stroke-opacity:1;visibility:visible;display:inline;overflow:visible"
       id="path1918"
       sodipodi:sides="9"
       sodipodi:cx="78.831001"
       sodipodi:cy="-11.965465"
       sodipodi:r1="21.897501"
       sodipodi:r2="4.6254067"
       sodipodi:arg1="0.5325041"
       sodipodi:arg2="0.88156995"
       inkscape:flatsided="false"
       inkscape:rounded="0"
       inkscape:randomized="0"
       d="M 97.696541,-0.84827175 L 81.772484,-8.3958614 L 86.136849,8.6773341 L 78.789811,-7.3402413 L 71.15867,8.5439451 L 75.826412,-8.4488145 L 59.77046,-1.1860247 L 74.268893,-11.202867 L 57.300889,-15.959814 L 74.846035,-14.313748 L 64.905497,-28.864603 L 77.287788,-16.325841 L 79.026003,-33.862097 L 80.451627,-16.297665 L 93.055266,-28.613914 L 82.857157,-14.242404 L 100.42884,-15.575736 L 83.378804,-11.121739 L 97.696541,-0.84827175 z "
       transform="matrix(-0.112133,-1.34327e-2,-1.230543e-2,0.122405,54.69965,7.481959)" />
    <path
       sodipodi:type="star"
       style="color:#000000;fill:#f2f800;fill-opacity:1;fill-rule:evenodd;stroke:#000000;stroke-width:0;stroke-linecap:round;stroke-linejoin:round;marker:none;marker-start:none;marker-mid:none;marker-end:none;stroke-miterlimit:4;stroke-dasharray:none;stroke-dashoffset:0;stroke-opacity:1;visibility:visible;display:inline;overflow:visible"
       id="path1920"
       sodipodi:sides="9"
       sodipodi:cx="78.831001"
       sodipodi:cy="-11.965465"
       sodipodi:r1="21.897501"
       sodipodi:r2="4.6254067"
       sodipodi:arg1="0.5325041"
       sodipodi:arg2="0.88156995"
       inkscape:flatsided="false"
       inkscape:rounded="0"
       inkscape:randomized="0"
       d="M 97.696541,-0.84827175 L 81.772484,-8.3958614 L 86.136849,8.6773341 L 78.789811,-7.3402413 L 71.15867,8.5439451 L 75.826412,-8.4488145 L 59.77046,-1.1860247 L 74.268893,-11.202867 L 57.300889,-15.959814 L 74.846035,-14.313748 L 64.905497,-28.864603 L 77.287788,-16.325841 L 79.026003,-33.862097 L 80.451627,-16.297665 L 93.055266,-28.613914 L 82.857157,-14.242404 L 100.42884,-15.575736 L 83.378804,-11.121739 L 97.696541,-0.84827175 z "
       transform="matrix(-0.112133,-1.34327e-2,-1.230543e-2,0.122405,54.69965,7.481959)" />
    <path
       sodipodi:type="star"
       style="color:#000000;fill:#f89600;fill-opacity:1;fill-rule:evenodd;stroke:#000000;stroke-width:0;stroke-linecap:round;stroke-linejoin:round;marker:none;marker-start:none;marker-mid:none;marker-end:none;stroke-miterlimit:4;stroke-dasharray:none;stroke-dashoffset:0;stroke-opacity:1;visibility:visible;display:inline;overflow:visible"
       id="path1922"
       sodipodi:sides="9"
       sodipodi:cx="78.831001"
       sodipodi:cy="-11.965465"
       sodipodi:r1="18.876371"
       sodipodi:r2="4.6254067"
       sodipodi:arg1="0.5325041"
       sodipodi:arg2="0.88156995"
       inkscape:flatsided="false"
       inkscape:rounded="0"
       inkscape:randomized="0"
       d="M 95.093721,-2.382076 L 81.772484,-8.3958614 L 85.128884,5.8293119 L 78.789811,-7.3402413 L 72.217198,5.7143261 L 75.826412,-8.4488145 L 62.400183,-2.6732303 L 74.268893,-11.202867 L 60.271331,-15.408726 L 74.846035,-14.313748 L 66.826755,-26.533082 L 77.287788,-16.325841 L 78.999099,-30.841087 L 80.451627,-16.297665 L 91.092788,-26.316979 L 82.857157,-14.242404 L 97.449051,-15.077638 L 83.378804,-11.121739 L 95.093721,-2.382076 z "
       transform="matrix(-5.391551e-2,-6.458671e-3,-5.916663e-3,5.885399e-2,50.2091,6.153767)" />
    <g
       id="g1926"
       transform="matrix(-0.294798,0,0,0.294798,83.415,0.350927)">
      <path
         sodipodi:nodetypes="csscsssssssssscssssssccsssscsssssssssss"
         id="path1928"
         d="M 26.716479,6.6078863 C 25.946522,5.3290048 25.006771,4.4581473 23.881891,4.3271829 C 22.75701,4.1962185 21.669534,4.8321406 20.591161,5.9888382 C 19.771149,6.8684104 18.909461,8.0902423 18.017225,9.6705449 C 16.913381,9.4101381 15.856173,9.2781064 14.921985,9.2795671 C 13.600581,9.2816336 12.516407,9.5618948 11.95707,10.028941 C 11.91036,10.069749 11.841368,10.141175 11.794163,10.191848 C 11.787083,10.199918 11.767644,10.216923 11.761581,10.22443 C 11.741665,10.250512 11.712623,10.293099 11.696418,10.322174 C 11.688729,10.336984 11.670761,10.37211 11.663837,10.387337 C 11.637552,10.448832 11.616607,10.522574 11.598674,10.582826 C 11.59273,10.593758 11.571703,10.637007 11.566092,10.647989 C 11.551712,10.721554 11.537935,10.823898 11.533511,10.908641 C 11.533139,10.923876 11.532884,10.959096 11.533511,10.973804 C 11.534107,10.980982 11.532609,10.999413 11.533511,11.006385 C 11.533511,11.006385 2.2198542,42.068829 2.2152089,42.089114 C 2.2072775,42.126496 2.1896933,42.178138 2.1826274,42.21944 C 2.1818199,42.226113 2.1829659,42.245652 2.1826274,42.252022 C 2.1815219,42.300782 2.1768266,42.365252 2.1826274,42.414929 C 2.3573559,43.631131 4.5621722,45.106693 7.4934081,45.835984 C 10.157739,46.498871 12.639879,46.361561 13.683888,45.607914 C 13.830678,45.497652 13.958537,45.352735 14.042285,45.216936 L 23.295424,13.938718 C 23.374803,13.845601 23.447675,13.719699 23.490913,13.612904 C 23.490849,13.610173 23.491229,13.583125 23.490913,13.580322 C 23.490557,13.577506 23.491056,13.550498 23.490913,13.547741 C 23.517813,13.457363 23.522874,13.348607 23.523494,13.254507 C 23.497686,12.158073 21.760647,10.838657 19.255321,10.028941 C 20.061857,8.6095012 20.788287,7.5355269 21.470861,6.8033751 C 22.194322,6.0273673 22.819379,5.6577444 23.328006,5.565279 C 23.33444,5.5642346 23.35397,5.5660985 23.360587,5.565279 C 23.367359,5.5646649 23.386272,5.5657072 23.393168,5.565279 C 23.477089,5.5621369 23.5828,5.562744 23.65382,5.565279 C 23.667902,5.5660647 23.701497,5.5658747 23.718983,5.565279 C 23.723108,5.5652925 23.747732,5.5651005 23.751565,5.565279 C 23.843014,5.575926 23.949756,5.5989785 24.044798,5.630442 C 24.235541,5.6977276 24.462192,5.8269175 24.663846,5.9888382 C 24.987183,6.256079 25.337551,6.6683126 25.673872,7.2269343 C 26.346514,8.3441778 27.486436,7.8867677 26.716479,6.6078863 z "
         style="fill:#000000;fill-opacity:1;fill-rule:evenodd;stroke:#000000;stroke-width:1.89624202;stroke-linecap:round;stroke-linejoin:round;stroke-miterlimit:4;stroke-dasharray:none;stroke-opacity:1" />
      <g
         transform="matrix(1.042607,0,0,1.042607,-4.398576,-0.397131)"
         id="g1930">
        <path
           style="opacity:1;color:#000000;fill:url(#linearGradient1942);fill-opacity:1;fill-rule:evenodd;stroke:#000000;stroke-width:0.84709173;stroke-linecap:round;stroke-linejoin:miter;marker:none;marker-start:none;marker-mid:none;marker-end:none;stroke-miterlimit:4;stroke-dasharray:none;stroke-dashoffset:0;stroke-opacity:1;visibility:visible;display:inline;overflow:visible"
           d="M 15.272479,10.944146 C 15.272479,10.944146 6.3341819,40.727233 6.3297264,40.746689 C 6.0700641,41.970489 8.3151603,43.56752 11.409944,44.337502 C 14.356769,45.070673 17.046114,44.797621 17.688712,43.755631 L 26.574365,13.756055 L 15.272479,10.944146 z "
           id="path1932"
           sodipodi:nodetypes="cssscc" />
        <path
           sodipodi:type="arc"
           style="opacity:1;color:#000000;fill:url(#linearGradient1944);fill-opacity:1;fill-rule:evenodd;stroke:#000000;stroke-width:0;stroke-linecap:round;stroke-linejoin:miter;marker:none;marker-start:none;marker-mid:none;marker-end:none;stroke-miterlimit:4;stroke-dasharray:none;stroke-dashoffset:0;stroke-opacity:1;visibility:visible;display:inline;overflow:visible"
           id="path1934"
           sodipodi:cx="14.486039"
           sodipodi:cy="0.33082396"
           sodipodi:rx="13.475386"
           sodipodi:ry="6.7376928"
           d="M 27.961425 0.33082396 A 13.475386 6.7376928 0 1 1  1.0106535,0.33082396 A 13.475386 6.7376928 0 1 1  27.961425 0.33082396 z"
           transform="matrix(0.424342,0.105577,-9.866123e-2,0.331479,14.93198,10.3051)" />
        <path
           style="fill:#80834a;fill-opacity:1;fill-rule:evenodd;stroke:#000000;stroke-width:0;stroke-linecap:round;stroke-linejoin:round;stroke-miterlimit:4;stroke-dasharray:none;stroke-opacity:1"
           d="M 27.125,4.53125 C 26.046089,4.4056376 25.003054,5.0155721 23.96875,6.125 C 22.934446,7.2344279 21.84392,8.8999562 20.6875,11.1875 C 20.540799,11.480901 20.659724,11.837674 20.953125,11.984375 C 21.246526,12.131076 21.603299,12.012151 21.75,11.71875 C 22.878272,9.4868864 23.906187,7.8783909 24.8125,6.90625 C 25.718813,5.9341091 26.438642,5.6533938 27,5.71875 C 27.561358,5.7841062 28.198596,6.2409139 28.84375,7.3125 C 29.488904,8.3840861 30.582242,7.9453686 29.84375,6.71875 C 29.105258,5.4921314 28.203911,4.6568624 27.125,4.53125 z "
           id="path1936"
           sodipodi:nodetypes="cssssssssc" />
      </g>
    </g>
    <path
       sodipodi:type="star"
       style="color:#000000;fill:#030300;fill-opacity:1;fill-rule:evenodd;stroke:#000000;stroke-width:5.6196084;stroke-linecap:round;stroke-linejoin:round;marker:none;marker-start:none;marker-mid:none;marker-end:none;stroke-miterlimit:4;stroke-dasharray:none;stroke-dashoffset:0;stroke-opacity:1;visibility:visible;display:inline;overflow:visible"
       id="path1946"
       sodipodi:sides="9"
       sodipodi:cx="78.831001"
       sodipodi:cy="-11.965465"
       sodipodi:r1="21.897501"
       sodipodi:r2="4.6254067"
       sodipodi:arg1="0.5325041"
       sodipodi:arg2="0.88156995"
       inkscape:flatsided="false"
       inkscape:rounded="0"
       inkscape:randomized="0"
       d="M 97.696541,-0.84827175 L 81.772484,-8.3958614 L 86.136849,8.6773341 L 78.789811,-7.3402413 L 71.15867,8.5439451 L 75.826412,-8.4488145 L 59.77046,-1.1860247 L 74.268893,-11.202867 L 57.300889,-15.959814 L 74.846035,-14.313748 L 64.905497,-28.864603 L 77.287788,-16.325841 L 79.026003,-33.862097 L 80.451627,-16.297665 L 93.055266,-28.613914 L 82.857157,-14.242404 L 100.42884,-15.575736 L 83.378804,-11.121739 L 97.696541,-0.84827175 z "
       transform="matrix(-9.647651e-2,-1.155718e-2,-1.05873e-2,0.105315,82.96951,4.870866)" />
    <path
       sodipodi:type="star"
       style="color:#000000;fill:#f2f800;fill-opacity:1;fill-rule:evenodd;stroke:#000000;stroke-width:0;stroke-linecap:round;stroke-linejoin:round;marker:none;marker-start:none;marker-mid:none;marker-end:none;stroke-miterlimit:4;stroke-dasharray:none;stroke-dashoffset:0;stroke-opacity:1;visibility:visible;display:inline;overflow:visible"
       id="path1948"
       sodipodi:sides="9"
       sodipodi:cx="78.831001"
       sodipodi:cy="-11.965465"
       sodipodi:r1="21.897501"
       sodipodi:r2="4.6254067"
       sodipodi:arg1="0.5325041"
       sodipodi:arg2="0.88156995"
       inkscape:flatsided="false"
       inkscape:rounded="0"
       inkscape:randomized="0"
       d="M 97.696541,-0.84827175 L 81.772484,-8.3958614 L 86.136849,8.6773341 L 78.789811,-7.3402413 L 71.15867,8.5439451 L 75.826412,-8.4488145 L 59.77046,-1.1860247 L 74.268893,-11.202867 L 57.300889,-15.959814 L 74.846035,-14.313748 L 64.905497,-28.864603 L 77.287788,-16.325841 L 79.026003,-33.862097 L 80.451627,-16.297665 L 93.055266,-28.613914 L 82.857157,-14.242404 L 100.42884,-15.575736 L 83.378804,-11.121739 L 97.696541,-0.84827175 z "
       transform="matrix(-9.647651e-2,-1.155718e-2,-1.05873e-2,0.105315,82.96951,4.870866)" />
    <path
       sodipodi:type="star"
       style="color:#000000;fill:#f89600;fill-opacity:1;fill-rule:evenodd;stroke:#000000;stroke-width:0;stroke-linecap:round;stroke-linejoin:round;marker:none;marker-start:none;marker-mid:none;marker-end:none;stroke-miterlimit:4;stroke-dasharray:none;stroke-dashoffset:0;stroke-opacity:1;visibility:visible;display:inline;overflow:visible"
       id="path1950"
       sodipodi:sides="9"
       sodipodi:cx="78.831001"
       sodipodi:cy="-11.965465"
       sodipodi:r1="18.876371"
       sodipodi:r2="4.6254067"
       sodipodi:arg1="0.5325041"
       sodipodi:arg2="0.88156995"
       inkscape:flatsided="false"
       inkscape:rounded="0"
       inkscape:randomized="0"
       d="M 95.093721,-2.382076 L 81.772484,-8.3958614 L 85.128884,5.8293119 L 78.789811,-7.3402413 L 72.217198,5.7143261 L 75.826412,-8.4488145 L 62.400183,-2.6732303 L 74.268893,-11.202867 L 60.271331,-15.408726 L 74.846035,-14.313748 L 66.826755,-26.533082 L 77.287788,-16.325841 L 78.999099,-30.841087 L 80.451627,-16.297665 L 91.092788,-26.316979 L 82.857157,-14.242404 L 97.449051,-15.077638 L 83.378804,-11.121739 L 95.093721,-2.382076 z "
       transform="matrix(-4.638763e-2,-5.556887e-3,-5.090557e-3,5.063658e-2,79.10594,3.728121)" />
    <g
       id="g1954"
       transform="matrix(-0.294798,0,0,0.294798,111.415,0.350927)">
      <path
         sodipodi:nodetypes="ccsssssssssscssssssccsssscss"
         id="path1956"
         d="M 20.591161,5.9888382 C 21.407547,5.1058995 18.909461,8.0902423 18.017225,9.6705449 C 16.913381,9.4101381 15.856173,9.2781064 14.921985,9.2795671 C 13.600581,9.2816336 12.516407,9.5618948 11.95707,10.028941 C 11.91036,10.069749 11.841368,10.141175 11.794163,10.191848 C 11.787083,10.199918 11.767644,10.216923 11.761581,10.22443 C 11.741665,10.250512 11.712623,10.293099 11.696418,10.322174 C 11.688729,10.336984 11.670761,10.37211 11.663837,10.387337 C 11.637552,10.448832 11.616607,10.522574 11.598674,10.582826 C 11.59273,10.593758 11.571703,10.637007 11.566092,10.647989 C 11.551712,10.721554 11.537935,10.823898 11.533511,10.908641 C 11.533139,10.923876 11.532884,10.959096 11.533511,10.973804 C 11.534107,10.980982 11.532609,10.999413 11.533511,11.006385 C 11.533511,11.006385 2.2198542,42.068829 2.2152089,42.089114 C 2.2072775,42.126496 2.1896933,42.178138 2.1826274,42.21944 C 2.1818199,42.226113 2.1829659,42.245652 2.1826274,42.252022 C 2.1815219,42.300782 2.1768266,42.365252 2.1826274,42.414929 C 2.3573559,43.631131 4.5621722,45.106693 7.4934081,45.835984 C 10.157739,46.498871 12.639879,46.361561 13.683888,45.607914 C 13.830678,45.497652 13.958537,45.352735 14.042285,45.216936 L 23.295424,13.938718 C 23.374803,13.845601 23.447675,13.719699 23.490913,13.612904 C 23.490849,13.610173 23.491229,13.583125 23.490913,13.580322 C 23.490557,13.577506 23.491056,13.550498 23.490913,13.547741 C 23.517813,13.457363 23.522874,13.348607 23.523494,13.254507 C 23.497686,12.158073 21.760647,10.838657 19.255321,10.028941 C 20.061857,8.6095012 20.788169,7.5354165 21.470861,6.8033751 C 22.115607,6.1120228 20.084975,6.5362887 20.591161,5.9888382 z "
         style="fill:#000000;fill-opacity:1;fill-rule:evenodd;stroke:#000000;stroke-width:1.89624202;stroke-linecap:round;stroke-linejoin:round;stroke-miterlimit:4;stroke-dasharray:none;stroke-opacity:1" />
      <g
         transform="matrix(1.042607,0,0,1.042607,-4.398576,-0.397131)"
         id="g1958">
        <path
           style="opacity:1;color:#000000;fill:url(#linearGradient1974);fill-opacity:1;fill-rule:evenodd;stroke:#000000;stroke-width:0.84709173;stroke-linecap:round;stroke-linejoin:miter;marker:none;marker-start:none;marker-mid:none;marker-end:none;stroke-miterlimit:4;stroke-dasharray:none;stroke-dashoffset:0;stroke-opacity:1;visibility:visible;display:inline;overflow:visible"
           d="M 15.272479,10.944146 C 15.272479,10.944146 6.3341819,40.727233 6.3297264,40.746689 C 6.0700641,41.970489 8.3151603,43.56752 11.409944,44.337502 C 14.356769,45.070673 17.046114,44.797621 17.688712,43.755631 L 26.574365,13.756055 L 15.272479,10.944146 z "
           id="path1960"
           sodipodi:nodetypes="cssscc" />
        <path
           sodipodi:type="arc"
           style="opacity:1;color:#000000;fill:url(#linearGradient1976);fill-opacity:1;fill-rule:evenodd;stroke:#000000;stroke-width:0;stroke-linecap:round;stroke-linejoin:miter;marker:none;marker-start:none;marker-mid:none;marker-end:none;stroke-miterlimit:4;stroke-dasharray:none;stroke-dashoffset:0;stroke-opacity:1;visibility:visible;display:inline;overflow:visible"
           id="path1962"
           sodipodi:cx="14.486039"
           sodipodi:cy="0.33082396"
           sodipodi:rx="13.475386"
           sodipodi:ry="6.7376928"
           d="M 27.961425 0.33082396 A 13.475386 6.7376928 0 1 1  1.0106535,0.33082396 A 13.475386 6.7376928 0 1 1  27.961425 0.33082396 z"
           transform="matrix(0.424342,0.105577,-9.866123e-2,0.331479,14.93198,10.3051)" />
        <path
           style="fill:#80834a;fill-opacity:1;fill-rule:evenodd;stroke:#000000;stroke-width:0;stroke-linecap:round;stroke-linejoin:round;stroke-miterlimit:4;stroke-dasharray:none;stroke-opacity:1"
           d="M 23.96875,6.125 C 22.934446,7.2344279 21.84392,8.8999562 20.6875,11.1875 C 20.540799,11.480901 20.659724,11.837674 20.953125,11.984375 C 21.246526,12.131076 21.603299,12.012151 21.75,11.71875 C 22.878272,9.4868864 23.397823,8.4121732 24.304136,7.4400323 C 25.210449,6.4678914 25.003054,5.0155721 23.96875,6.125 z "
           id="path1964"
           sodipodi:nodetypes="csssss" />
      </g>
    </g>
    <path
       sodipodi:type="star"
       style="color:#000000;fill:#030300;fill-opacity:1;fill-rule:evenodd;stroke:#000000;stroke-width:5.6196084;stroke-linecap:round;stroke-linejoin:round;marker:none;marker-start:none;marker-mid:none;marker-end:none;stroke-miterlimit:4;stroke-dasharray:none;stroke-dashoffset:0;stroke-opacity:1;visibility:visible;display:inline;overflow:visible"
       id="path1978"
       sodipodi:sides="9"
       sodipodi:cx="78.831001"
       sodipodi:cy="-11.965465"
       sodipodi:r1="21.897501"
       sodipodi:r2="4.6254067"
       sodipodi:arg1="0.5325041"
       sodipodi:arg2="0.88156995"
       inkscape:flatsided="false"
       inkscape:rounded="0"
       inkscape:randomized="0"
       d="M 97.696541,-0.84827175 L 81.772484,-8.3958614 L 86.136849,8.6773341 L 78.789811,-7.3402413 L 71.15867,8.5439451 L 75.826412,-8.4488145 L 59.77046,-1.1860247 L 74.268893,-11.202867 L 57.300889,-15.959814 L 74.846035,-14.313748 L 64.905497,-28.864603 L 77.287788,-16.325841 L 79.026003,-33.862097 L 80.451627,-16.297665 L 93.055266,-28.613914 L 82.857157,-14.242404 L 100.42884,-15.575736 L 83.378804,-11.121739 L 97.696541,-0.84827175 z "
       transform="matrix(-8.666259e-2,-1.038155e-2,-9.510325e-3,9.460162e-2,112.1098,4.403901)" />
    <path
       sodipodi:type="star"
       style="color:#000000;fill:#f2f800;fill-opacity:1;fill-rule:evenodd;stroke:#000000;stroke-width:0;stroke-linecap:round;stroke-linejoin:round;marker:none;marker-start:none;marker-mid:none;marker-end:none;stroke-miterlimit:4;stroke-dasharray:none;stroke-dashoffset:0;stroke-opacity:1;visibility:visible;display:inline;overflow:visible"
       id="path1980"
       sodipodi:sides="9"
       sodipodi:cx="78.831001"
       sodipodi:cy="-11.965465"
       sodipodi:r1="21.897501"
       sodipodi:r2="4.6254067"
       sodipodi:arg1="0.5325041"
       sodipodi:arg2="0.88156995"
       inkscape:flatsided="false"
       inkscape:rounded="0"
       inkscape:randomized="0"
       d="M 97.696541,-0.84827175 L 81.772484,-8.3958614 L 86.136849,8.6773341 L 78.789811,-7.3402413 L 71.15867,8.5439451 L 75.826412,-8.4488145 L 59.77046,-1.1860247 L 74.268893,-11.202867 L 57.300889,-15.959814 L 74.846035,-14.313748 L 64.905497,-28.864603 L 77.287788,-16.325841 L 79.026003,-33.862097 L 80.451627,-16.297665 L 93.055266,-28.613914 L 82.857157,-14.242404 L 100.42884,-15.575736 L 83.378804,-11.121739 L 97.696541,-0.84827175 z "
       transform="matrix(-8.666259e-2,-1.038155e-2,-9.510325e-3,9.460162e-2,112.1098,4.403901)" />
    <path
       sodipodi:type="star"
       style="color:#000000;fill:#f89600;fill-opacity:1;fill-rule:evenodd;stroke:#000000;stroke-width:0;stroke-linecap:round;stroke-linejoin:round;marker:none;marker-start:none;marker-mid:none;marker-end:none;stroke-miterlimit:4;stroke-dasharray:none;stroke-dashoffset:0;stroke-opacity:1;visibility:visible;display:inline;overflow:visible"
       id="path1982"
       sodipodi:sides="9"
       sodipodi:cx="78.831001"
       sodipodi:cy="-11.965465"
       sodipodi:r1="18.876371"
       sodipodi:r2="4.6254067"
       sodipodi:arg1="0.5325041"
       sodipodi:arg2="0.88156995"
       inkscape:flatsided="false"
       inkscape:rounded="0"
       inkscape:randomized="0"
       d="M 95.093721,-2.382076 L 81.772484,-8.3958614 L 85.128884,5.8293119 L 78.789811,-7.3402413 L 72.217198,5.7143261 L 75.826412,-8.4488145 L 62.400183,-2.6732303 L 74.268893,-11.202867 L 60.271331,-15.408726 L 74.846035,-14.313748 L 66.826755,-26.533082 L 77.287788,-16.325841 L 78.999099,-30.841087 L 80.451627,-16.297665 L 91.092788,-26.316979 L 82.857157,-14.242404 L 97.449051,-15.077638 L 83.378804,-11.121739 L 95.093721,-2.382076 z "
       transform="matrix(-4.166892e-2,-4.991622e-3,-4.572728e-3,4.548566e-2,108.6394,3.3774)" />
    <g
       id="g1984"
       transform="matrix(-0.294798,0,0,0.294798,139.4152,0.350927)">
      <path
         sodipodi:nodetypes="csssssssssscssssssccsssscc"
         id="path1986"
         d="M 18.017225,9.6705449 C 16.913381,9.4101381 15.856173,9.2781064 14.921985,9.2795671 C 13.600581,9.2816336 12.516407,9.5618948 11.95707,10.028941 C 11.91036,10.069749 11.841368,10.141175 11.794163,10.191848 C 11.787083,10.199918 11.767644,10.216923 11.761581,10.22443 C 11.741665,10.250512 11.712623,10.293099 11.696418,10.322174 C 11.688729,10.336984 11.670761,10.37211 11.663837,10.387337 C 11.637552,10.448832 11.616607,10.522574 11.598674,10.582826 C 11.59273,10.593758 11.571703,10.637007 11.566092,10.647989 C 11.551712,10.721554 11.537935,10.823898 11.533511,10.908641 C 11.533139,10.923876 11.532884,10.959096 11.533511,10.973804 C 11.534107,10.980982 11.532609,10.999413 11.533511,11.006385 C 11.533511,11.006385 2.2198542,42.068829 2.2152089,42.089114 C 2.2072775,42.126496 2.1896933,42.178138 2.1826274,42.21944 C 2.1818199,42.226113 2.1829659,42.245652 2.1826274,42.252022 C 2.1815219,42.300782 2.1768266,42.365252 2.1826274,42.414929 C 2.3573559,43.631131 4.5621722,45.106693 7.4934081,45.835984 C 10.157739,46.498871 12.639879,46.361561 13.683888,45.607914 C 13.830678,45.497652 13.958537,45.352735 14.042285,45.216936 L 23.295424,13.938718 C 23.374803,13.845601 23.447675,13.719699 23.490913,13.612904 C 23.490849,13.610173 23.491229,13.583125 23.490913,13.580322 C 23.490557,13.577506 23.491056,13.550498 23.490913,13.547741 C 23.517813,13.457363 23.522874,13.348607 23.523494,13.254507 C 23.497686,12.158073 21.760647,10.838657 19.255321,10.028941 C 19.280072,10.040566 18.034921,9.6803141 18.017225,9.6705449 z "
         style="fill:#000000;fill-opacity:1;fill-rule:evenodd;stroke:#000000;stroke-width:1.89624202;stroke-linecap:round;stroke-linejoin:round;stroke-miterlimit:4;stroke-dasharray:none;stroke-opacity:1" />
      <g
         transform="matrix(1.042607,0,0,1.042607,-4.398576,-0.397131)"
         id="g1988">
        <path
           style="opacity:1;color:#000000;fill:url(#linearGradient1994);fill-opacity:1;fill-rule:evenodd;stroke:#000000;stroke-width:0.84709173;stroke-linecap:round;stroke-linejoin:miter;marker:none;marker-start:none;marker-mid:none;marker-end:none;stroke-miterlimit:4;stroke-dasharray:none;stroke-dashoffset:0;stroke-opacity:1;visibility:visible;display:inline;overflow:visible"
           d="M 15.272479,10.944146 C 15.272479,10.944146 6.3341819,40.727233 6.3297264,40.746689 C 6.0700641,41.970489 8.3151603,43.56752 11.409944,44.337502 C 14.356769,45.070673 17.046114,44.797621 17.688712,43.755631 L 26.574365,13.756055 L 15.272479,10.944146 z "
           id="path1990"
           sodipodi:nodetypes="cssscc" />
        <path
           sodipodi:type="arc"
           style="opacity:1;color:#000000;fill:url(#linearGradient1996);fill-opacity:1;fill-rule:evenodd;stroke:#000000;stroke-width:0;stroke-linecap:round;stroke-linejoin:miter;marker:none;marker-start:none;marker-mid:none;marker-end:none;stroke-miterlimit:4;stroke-dasharray:none;stroke-dashoffset:0;stroke-opacity:1;visibility:visible;display:inline;overflow:visible"
           id="path1992"
           sodipodi:cx="14.486039"
           sodipodi:cy="0.33082396"
           sodipodi:rx="13.475386"
           sodipodi:ry="6.7376928"
           d="M 27.961425 0.33082396 A 13.475386 6.7376928 0 1 1  1.0106535,0.33082396 A 13.475386 6.7376928 0 1 1  27.961425 0.33082396 z"
           transform="matrix(0.424342,0.105577,-9.866123e-2,0.331479,14.93198,10.3051)" />
      </g>
    </g>
  </g>
</svg>
