<?xml version="1.0" encoding="UTF-8" standalone="no"?>
<!-- Created with Inkscape (http://www.inkscape.org/) -->
<svg
   xmlns:dc="http://purl.org/dc/elements/1.1/"
   xmlns:cc="http://web.resource.org/cc/"
   xmlns:rdf="http://www.w3.org/1999/02/22-rdf-syntax-ns#"
   xmlns:svg="http://www.w3.org/2000/svg"
   xmlns="http://www.w3.org/2000/svg"
   xmlns:xlink="http://www.w3.org/1999/xlink"
   xmlns:sodipodi="http://sodipodi.sourceforge.net/DTD/sodipodi-0.dtd"
   xmlns:inkscape="http://www.inkscape.org/namespaces/inkscape"
   width="106.68966"
   height="48.678192"
   id="svg2"
   sodipodi:version="0.32"
   inkscape:version="0.44"
   version="1.0"
   sodipodi:docbase="/home/yekcim/Desktop"
   sodipodi:docname="enclume.svg"
   inkscape:export-filename="/home/yekcim/Desktop/enclume.png"
   inkscape:export-xdpi="90"
   inkscape:export-ydpi="90">
  <defs
     id="defs4">
    <linearGradient
       id="linearGradient6477">
      <stop
         style="stop-color:#828282;stop-opacity:1;"
         offset="0"
         id="stop6479" />
      <stop
         style="stop-color:#050505;stop-opacity:1;"
         offset="1"
         id="stop6481" />
    </linearGradient>
    <linearGradient
       id="linearGradient5547">
      <stop
         style="stop-color:black;stop-opacity:1;"
         offset="0"
         id="stop5549" />
      <stop
         style="stop-color:#d3d3d3;stop-opacity:0;"
         offset="1"
         id="stop5551" />
    </linearGradient>
    <linearGradient
       id="linearGradient5529">
      <stop
         style="stop-color:#010101;stop-opacity:1;"
         offset="0"
         id="stop5531" />
      <stop
         style="stop-color:#363636;stop-opacity:1;"
         offset="1"
         id="stop5533" />
    </linearGradient>
    <linearGradient
       inkscape:collect="always"
       xlink:href="#linearGradient5529"
       id="linearGradient5535"
       x1="53.616436"
       y1="25.140825"
       x2="55.366436"
       y2="3.6736279"
       gradientUnits="userSpaceOnUse" />
    <linearGradient
       inkscape:collect="always"
       xlink:href="#linearGradient5529"
       id="linearGradient5543"
       x1="52.586926"
       y1="42.964138"
       x2="52.586926"
       y2="23.705156"
       gradientUnits="userSpaceOnUse" />
    <linearGradient
       inkscape:collect="always"
       xlink:href="#linearGradient5547"
       id="linearGradient5553"
       x1="86.267029"
       y1="6.7382398"
       x2="86.870583"
       y2="12.480448"
       gradientUnits="userSpaceOnUse" />
    <linearGradient
       inkscape:collect="always"
       xlink:href="#linearGradient5547"
       id="linearGradient6450"
       x1="279.95456"
       y1="494.67978"
       x2="278.95599"
       y2="504.06168"
       gradientUnits="userSpaceOnUse" />
    <linearGradient
       inkscape:collect="always"
       xlink:href="#linearGradient5547"
       id="linearGradient6460"
       x1="52.620438"
       y1="6.4023228"
       x2="54.429306"
       y2="33.652321"
       gradientUnits="userSpaceOnUse" />
    <linearGradient
       inkscape:collect="always"
       xlink:href="#linearGradient6477"
       id="linearGradient6483"
       x1="51.370438"
       y1="31.824347"
       x2="56.679306"
       y2="-9.4256535"
       gradientUnits="userSpaceOnUse" />
    <linearGradient
       inkscape:collect="always"
       xlink:href="#linearGradient6477"
       id="linearGradient2778"
       gradientUnits="userSpaceOnUse"
       x1="49.870438"
       y1="50.574348"
       x2="54.557987"
       y2="-1.6474788" />
    <linearGradient
       inkscape:collect="always"
       xlink:href="#linearGradient6477"
       id="linearGradient2782"
       gradientUnits="userSpaceOnUse"
       x1="268.62045"
       y1="528.57434"
       x2="275.17932"
       y2="478.82434" />
    <linearGradient
       inkscape:collect="always"
       xlink:href="#linearGradient5529"
       id="linearGradient2795"
       gradientUnits="userSpaceOnUse"
       x1="52.586926"
       y1="42.964138"
       x2="52.586926"
       y2="30.652021"
       gradientTransform="matrix(0.985196,0,0,0.984851,261.0796,488.7372)" />
    <linearGradient
       inkscape:collect="always"
       xlink:href="#linearGradient6477"
       id="linearGradient2797"
       gradientUnits="userSpaceOnUse"
       x1="51.370438"
       y1="31.824347"
       x2="56.679306"
       y2="-9.4256535"
       gradientTransform="matrix(0.985196,0,0,0.984851,261.0796,488.7372)" />
    <linearGradient
       inkscape:collect="always"
       xlink:href="#linearGradient5529"
       id="linearGradient2799"
       gradientUnits="userSpaceOnUse"
       x1="55.207428"
       y1="15.037271"
       x2="57.841309"
       y2="-3.39744"
       gradientTransform="matrix(0.985196,0,0,0.984851,261.0796,488.7372)" />
    <linearGradient
       inkscape:collect="always"
       xlink:href="#linearGradient6477"
       id="linearGradient2801"
       gradientUnits="userSpaceOnUse"
       x1="268.62045"
       y1="528.57434"
       x2="275.17932"
       y2="478.82434"
       gradientTransform="matrix(0.985196,0,0,0.984851,4.647072,7.772929)" />
    <linearGradient
       inkscape:collect="always"
       xlink:href="#linearGradient6477"
       id="linearGradient2803"
       gradientUnits="userSpaceOnUse"
       x1="51.284653"
       y1="44.740719"
       x2="52.589848"
       y2="9.4014606"
       gradientTransform="matrix(0.985196,0,0,0.984851,261.0796,488.7372)" />
    <linearGradient
       inkscape:collect="always"
       xlink:href="#linearGradient5529"
       id="linearGradient2791"
       gradientUnits="userSpaceOnUse"
       gradientTransform="matrix(0.985196,0,0,0.984851,261.0796,488.7372)"
       x1="52.586926"
       y1="42.964138"
       x2="52.586926"
       y2="30.652021" />
    <linearGradient
       inkscape:collect="always"
       xlink:href="#linearGradient6477"
       id="linearGradient2793"
       gradientUnits="userSpaceOnUse"
       gradientTransform="matrix(0.985196,0,0,0.984851,261.0796,488.7372)"
       x1="51.370438"
       y1="31.824347"
       x2="56.679306"
       y2="-9.4256535" />
    <linearGradient
       inkscape:collect="always"
       xlink:href="#linearGradient5529"
       id="linearGradient2796"
       gradientUnits="userSpaceOnUse"
       gradientTransform="matrix(0.985196,0,0,0.984851,261.0796,488.7372)"
       x1="55.207428"
       y1="15.037271"
       x2="57.841309"
       y2="-3.39744" />
    <linearGradient
       inkscape:collect="always"
       xlink:href="#linearGradient6477"
       id="linearGradient2798"
       gradientUnits="userSpaceOnUse"
       gradientTransform="matrix(0.985196,0,0,0.984851,4.647072,7.772929)"
       x1="268.62045"
       y1="528.57434"
       x2="275.17932"
       y2="478.82434" />
    <linearGradient
       inkscape:collect="always"
       xlink:href="#linearGradient6477"
       id="linearGradient2800"
       gradientUnits="userSpaceOnUse"
       gradientTransform="matrix(0.985196,0,0,0.984851,261.0796,488.7372)"
       x1="51.284653"
       y1="44.740719"
       x2="52.589848"
       y2="9.4014606" />
  </defs>
  <sodipodi:namedview
     id="base"
     pagecolor="#ffffff"
     bordercolor="#666666"
     borderopacity="1.0"
     inkscape:pageopacity="0.0"
     inkscape:pageshadow="2"
     inkscape:zoom="5.6568542"
     inkscape:cx="71.462885"
     inkscape:cy="7.6513654"
     inkscape:document-units="px"
     inkscape:current-layer="layer1"
     inkscape:window-width="1270"
     inkscape:window-height="945"
     inkscape:window-x="0"
     inkscape:window-y="25" />
  <metadata
     id="metadata7">
    <rdf:RDF>
      <cc:Work
         rdf:about="">
        <dc:format>image/svg+xml</dc:format>
        <dc:type
           rdf:resource="http://purl.org/dc/dcmitype/StillImage" />
      </cc:Work>
    </rdf:RDF>
  </metadata>
  <g
     inkscape:label="Calque 1"
     inkscape:groupmode="layer"
     id="layer1"
     transform="translate(-260.5689,-488.7748)">
    <g
       id="g2783"
       transform="translate(8.185671e-6,4.15298e-5)">
      <path
         id="path2784"
         d="M 337.46713,490.12832 L 288.60756,490.46686 L 288.17654,491.82103 C 282.60882,491.88635 274.87902,492.98177 264.71656,493.79074 C 262.64371,493.95574 262.05241,494.38115 262.46908,494.96025 C 262.49521,494.99335 262.53493,495.01948 262.56145,495.05258 C 262.58723,495.08102 262.59278,495.11577 262.62302,495.14491 C 267.23827,500.8343 277.59417,506.46009 285.65198,509.94845 C 285.6807,509.96088 285.71567,509.96684 285.74434,509.97922 C 286.68193,510.35055 292.03634,514.96566 292.05575,521.02802 C 290.10443,521.71142 285.69861,524.61513 285.5904,533.154 C 285.55736,533.34116 285.5735,533.5106 285.5904,533.6772 C 285.59142,533.80455 285.60193,533.90035 285.65198,533.98497 C 286.67319,537.29605 298.13075,536.06184 298.45952,534.69283 C 302.61874,525.28046 321.63729,524.24281 326.66076,534.04652 C 328.63961,537.05694 343.07439,534.99496 340.17642,530.63032 C 340.191,527.79764 338.50903,523.34853 333.1569,520.5356 C 333.50027,518.3398 334.7107,515.41649 337.12847,511.51805 L 365.20655,495.4219 C 365.29477,495.40685 365.39692,495.40699 365.48364,495.39112 C 365.43286,495.38179 365.38062,495.36944 365.3297,495.36034 L 365.29892,495.36034 C 355.96888,493.70283 344.31588,495.91988 337.46713,490.12832 z "
         style="fill:none;fill-opacity:1;fill-rule:evenodd;stroke:black;stroke-width:1.99999928;stroke-linecap:round;stroke-linejoin:round;stroke-miterlimit:4;stroke-dasharray:none;stroke-opacity:1" />
      <path
         sodipodi:nodetypes="cscssc"
         id="path1890"
         d="M 292.63452,521.10665 C 294.82894,520.25431 285.4852,520.8646 285.58731,533.6632 C 285.61982,537.73837 311.56543,519.29654 311.56543,519.29654 C 311.56543,519.29654 337.46423,534.21067 339.29151,533.17787 C 340.99975,532.21235 340.96455,524.42997 332.87439,520.36971 C 325.36474,516.6008 292.96235,521.43436 292.63452,521.10665 z "
         style="fill:url(#linearGradient2791);fill-opacity:1;fill-rule:evenodd;stroke:none;stroke-width:1px;stroke-linecap:butt;stroke-linejoin:miter;stroke-opacity:1" />
      <path
         id="path1886"
         d="M 333.85788,513.39766 L 365.32957,495.37332 L 332.54656,495.70103 L 333.85788,513.39766 z "
         style="opacity:1;color:black;fill:url(#linearGradient2793);fill-opacity:1;fill-rule:evenodd;stroke:none;stroke-width:1px;stroke-linecap:butt;stroke-linejoin:miter;marker:none;marker-start:none;marker-mid:none;marker-end:none;stroke-miterlimit:4;stroke-dasharray:none;stroke-dashoffset:0;stroke-opacity:1;visibility:visible;display:inline;overflow:visible" />
      <path
         sodipodi:nodetypes="cccsscccc"
         id="path1888"
         d="M 337.46309,490.1221 L 288.60351,490.46064 L 288.16193,491.82628 C 282.5942,491.8916 274.87496,492.97555 264.7125,493.78452 C 252.60055,494.74866 290.51233,504.34089 290.51233,504.34089 C 291.60266,503.31016 335.97674,506.05029 337.5735,504.9703 L 339.77215,500.61692 C 339.96325,494.29591 356.65713,496.99952 365.47962,495.3849 C 356.11958,493.6652 344.35649,495.95141 337.46309,490.1221 z "
         style="fill:url(#linearGradient2796);fill-opacity:1;fill-rule:evenodd;stroke:none;stroke-width:1.00000036px;stroke-linecap:butt;stroke-linejoin:miter;stroke-opacity:1" />
      <path
         sodipodi:nodetypes="ccccc"
         id="path1892"
         d="M 285.75452,509.9916 C 277.59828,506.46888 267.03237,500.73075 262.47746,494.95902 C 273.5886,498.30478 274.91706,498.36824 285.87726,499.29975 L 285.33869,501.36797 L 285.75452,509.9916 z "
         style="opacity:1;color:black;fill:url(#linearGradient2798);fill-opacity:1;fill-rule:evenodd;stroke:none;stroke-width:1px;stroke-linecap:butt;stroke-linejoin:miter;marker:none;marker-start:none;marker-mid:none;marker-end:none;stroke-miterlimit:4;stroke-dasharray:none;stroke-dashoffset:0;stroke-opacity:1;visibility:visible;display:inline;overflow:visible" />
      <path
         sodipodi:nodetypes="ccsccsscc"
         id="path1884"
         d="M 285.27756,501.29643 C 285.13559,504.19325 285.23919,506.31289 285.64393,509.95024 C 286.68521,510.17106 298.17345,519.9713 287.63383,530.11115 C 279.46583,537.96933 298.03262,536.44639 298.45222,534.69916 C 302.61144,525.28679 321.62214,524.24001 326.64562,534.04373 C 328.74776,537.24172 344.92984,534.71313 339.43099,529.78343 C 335.35159,526.12626 327.9116,525.16607 338.4475,509.46508 C 340.06739,507.05106 339.50895,502.14971 339.74973,500.60768 L 285.27756,501.29643 z "
         style="fill:url(#linearGradient2800);fill-opacity:1;fill-rule:evenodd;stroke:none;stroke-width:1px;stroke-linecap:butt;stroke-linejoin:miter;stroke-opacity:1" />
    </g>
  </g>
</svg>
