<?xml version="1.0" encoding="UTF-8" standalone="no"?>
<!-- Created with Inkscape (http://www.inkscape.org/) -->
<svg
   xmlns:dc="http://purl.org/dc/elements/1.1/"
   xmlns:cc="http://web.resource.org/cc/"
   xmlns:rdf="http://www.w3.org/1999/02/22-rdf-syntax-ns#"
   xmlns:svg="http://www.w3.org/2000/svg"
   xmlns="http://www.w3.org/2000/svg"
   xmlns:xlink="http://www.w3.org/1999/xlink"
   xmlns:sodipodi="http://inkscape.sourceforge.net/DTD/sodipodi-0.dtd"
   xmlns:inkscape="http://www.inkscape.org/namespaces/inkscape"
   width="48"
   height="48"
   id="svg1"
   sodipodi:version="0.32"
   inkscape:version="0.43"
   sodipodi:docbase="/home/yekcim/Desktop/SVG/Weapons"
   sodipodi:docname="gnu_ico.svg"
   inkscape:export-filename="/home/yekcim/Desktop/manchot_skin/manchot.png"
   inkscape:export-xdpi="72.000000"
   inkscape:export-ydpi="72.000000"
   version="1.0"
   inkscape:output_extension="org.inkscape.output.svg.inkscape">
  <defs
     id="defs3">
    <linearGradient
       id="linearGradient5581">
      <stop
         style="stop-color:#b7b7b7;stop-opacity:1;"
         offset="0"
         id="stop5583" />
      <stop
         style="stop-color:#6a6a6a;stop-opacity:1;"
         offset="1"
         id="stop5585" />
    </linearGradient>
    <linearGradient
       id="linearGradient4073">
      <stop
         style="stop-color:#544738;stop-opacity:1;"
         offset="0"
         id="stop4075" />
      <stop
         style="stop-color:#38332b;stop-opacity:1;"
         offset="1"
         id="stop4077" />
    </linearGradient>
    <defs
       id="defs1062">
      <linearGradient
         inkscape:collect="always"
         id="linearGradient10630">
        <stop
           style="stop-color:#616161;stop-opacity:1;"
           offset="0"
           id="stop10631" />
        <stop
           style="stop-color:#616161;stop-opacity:0;"
           offset="1"
           id="stop10632" />
      </linearGradient>
      <linearGradient
         inkscape:collect="always"
         id="linearGradient10560">
        <stop
           style="stop-color:#000000;stop-opacity:1;"
           offset="0"
           id="stop10561" />
        <stop
           style="stop-color:#000000;stop-opacity:0;"
           offset="1"
           id="stop10562" />
      </linearGradient>
      <linearGradient
         id="linearGradient13777">
        <stop
           offset="0.0000000"
           style="stop-color:#d17d00;stop-opacity:1.0000000;"
           id="stop13779" />
        <stop
           offset="1.0000000"
           style="stop-color:#a7b135;stop-opacity:0.0000000;"
           id="stop13778" />
      </linearGradient>
      <linearGradient
         id="linearGradient11847">
        <stop
           offset="0.0000000"
           style="stop-color:#000000;stop-opacity:1.0000000;"
           id="stop11849" />
        <stop
           offset="1.0000000"
           style="stop-color:#000000;stop-opacity:0.0000000;"
           id="stop11848" />
      </linearGradient>
      <linearGradient
         id="linearGradient6187">
        <stop
           style="stop-color:#2e1b0b;stop-opacity:1.0000000;"
           offset="0.0000000"
           id="stop6188" />
        <stop
           style="stop-color:#431e00;stop-opacity:0;"
           offset="1"
           id="stop6189" />
      </linearGradient>
      <linearGradient
         inkscape:collect="always"
         id="linearGradient4909">
        <stop
           style="stop-color:#000000;stop-opacity:1;"
           offset="0"
           id="stop4910" />
        <stop
           style="stop-color:#000000;stop-opacity:0;"
           offset="1"
           id="stop4911" />
      </linearGradient>
      <linearGradient
         id="linearGradient1780">
        <stop
           style="stop-color:#454545;stop-opacity:1.0000000;"
           offset="0.0000000"
           id="stop1781" />
        <stop
           style="stop-color:#ffffff;stop-opacity:0;"
           offset="1"
           id="stop1782" />
      </linearGradient>
      <linearGradient
         id="linearGradient3869">
        <stop
           offset="0.0000000"
           style="stop-color:#d2dd2e;stop-opacity:1.0000000;"
           id="stop3872" />
        <stop
           offset="0.76146787"
           style="stop-color:#b3b96d;stop-opacity:0.65555555;"
           id="stop3871" />
        <stop
           offset="1.0000000"
           style="stop-color:#b1b952;stop-opacity:0.0000000;"
           id="stop3870" />
      </linearGradient>
      <linearGradient
         inkscape:collect="always"
         xlink:href="#linearGradient9217"
         id="linearGradient3799"
         gradientUnits="userSpaceOnUse"
         gradientTransform="matrix(0.112563,0,0,0.115364,26.43402,157.1761)"
         x1="4373.3052"
         y1="319.33466"
         x2="96.982727"
         y2="2708.2139" />
      <linearGradient
         inkscape:collect="always"
         xlink:href="#linearGradient7337"
         id="linearGradient3800"
         gradientUnits="userSpaceOnUse"
         gradientTransform="matrix(0.230667,0,0,7.644947e-2,26.55186,129.5549)"
         x1="862.1651"
         y1="2479.5938"
         x2="1523.3719"
         y2="2479.5938" />
      <linearGradient
         inkscape:collect="always"
         xlink:href="#linearGradient5442"
         id="linearGradient3801"
         gradientUnits="userSpaceOnUse"
         gradientTransform="matrix(0.162855,0,0,7.648058e-2,75.52973,161.8049)"
         x1="580.22791"
         y1="2173.3171"
         x2="1782.0374"
         y2="1630.2036" />
      <radialGradient
         inkscape:collect="always"
         xlink:href="#linearGradient5442"
         id="radialGradient3802"
         gradientUnits="userSpaceOnUse"
         gradientTransform="matrix(0.159978,0,0,7.785591e-2,363.0923,173.8583)"
         cx="-606.79681"
         cy="1573.4399"
         fx="-606.79681"
         fy="1573.4399"
         r="739.70477" />
      <linearGradient
         inkscape:collect="always"
         xlink:href="#linearGradient21707"
         id="linearGradient3803"
         gradientUnits="userSpaceOnUse"
         gradientTransform="scale(0.659854,1.515487)"
         x1="4848.5972"
         y1="3945.1116"
         x2="5625.4653"
         y2="1720.9402" />
      <linearGradient
         inkscape:collect="always"
         xlink:href="#linearGradient7337"
         id="linearGradient3804"
         gradientUnits="userSpaceOnUse"
         gradientTransform="matrix(0.236634,0,0,0.208284,-2451.443,4783.687)"
         x1="-7797.7422"
         y1="5021.4731"
         x2="-352.84012"
         y2="1184.9034" />
      <linearGradient
         inkscape:collect="always"
         xlink:href="#linearGradient7337"
         id="linearGradient3805"
         gradientUnits="userSpaceOnUse"
         gradientTransform="matrix(0.236634,0,0,0.208284,-2451.443,4783.687)"
         x1="-7797.7422"
         y1="5021.4731"
         x2="-352.84012"
         y2="1184.9034" />
      <defs
         id="defs3745">
        <linearGradient
           id="linearGradient22333"
           x1="0"
           y1="0.5"
           x2="1"
           y2="0.5"
           gradientUnits="objectBoundingBox"
           spreadMethod="pad"
           xlink:href="#linearGradient13777" />
        <linearGradient
           id="linearGradient21707">
          <stop
             style="stop-color:#ffffff;stop-opacity:1.0000000;"
             offset="0.0000000"
             id="stop21708" />
          <stop
             style="stop-color:#a7b135;stop-opacity:0;"
             offset="1"
             id="stop21709" />
        </linearGradient>
        <linearGradient
           inkscape:collect="always"
           id="linearGradient9217"
           x1="0"
           y1="0.5"
           x2="1"
           y2="0.5"
           gradientUnits="objectBoundingBox"
           spreadMethod="pad"
           xlink:href="#linearGradient11847" />
        <linearGradient
           id="linearGradient8584">
          <stop
             style="stop-color:#000000;stop-opacity:1.0000000;"
             offset="0.0000000"
             id="stop8585" />
          <stop
             style="stop-color:#cece4c;stop-opacity:0;"
             offset="1"
             id="stop8586" />
        </linearGradient>
        <linearGradient
           id="linearGradient7337">
          <stop
             style="stop-color:#b1b12f;stop-opacity:1.0000000;"
             offset="0.0000000"
             id="stop7338" />
          <stop
             style="stop-color:#cece4c;stop-opacity:0;"
             offset="1"
             id="stop7339" />
        </linearGradient>
        <linearGradient
           id="linearGradient5442"
           x1="0"
           y1="0.5"
           x2="1"
           y2="0.5"
           gradientUnits="objectBoundingBox"
           spreadMethod="pad"
           xlink:href="#linearGradient3869" />
      </defs>
      <sodipodi:namedview
         id="namedview3772"
         pagecolor="#ffffff"
         bordercolor="#666666"
         borderopacity="1.0"
         inkscape:pageopacity="0.0"
         inkscape:pageshadow="2"
         inkscape:zoom="0.80057989"
         inkscape:cx="297.63780"
         inkscape:cy="420.94487"
         inkscape:current-layer="layer1"
         inkscape:window-width="1440"
         inkscape:window-height="851"
         inkscape:window-x="0"
         inkscape:window-y="27"
         showguides="true"
         inkscape:guide-bbox="true" />
      <metadata
         id="metadata3773">
        <rdf:RDF>
          <cc:Work
             rdf:about="">
            <dc:format>image/svg+xml</dc:format>
            <dc:type
               rdf:resource="http://purl.org/dc/dcmitype/StillImage" />
          </cc:Work>
        </rdf:RDF>
      </metadata>
      <linearGradient
         inkscape:collect="always"
         xlink:href="#linearGradient4909"
         id="linearGradient6167"
         gradientUnits="userSpaceOnUse"
         gradientTransform="scale(0.891889,1.121216)"
         x1="-148.77991"
         y1="106.3186"
         x2="-160.14931"
         y2="-66.932083" />
      <linearGradient
         inkscape:collect="always"
         xlink:href="#linearGradient10560"
         id="linearGradient10563"
         gradientTransform="matrix(0.915477,0.127968,-0.149762,1.071392,19.54851,-8.45341)"
         x1="698.5448"
         y1="69.852913"
         x2="758.31232"
         y2="359.09653"
         gradientUnits="userSpaceOnUse" />
      <linearGradient
         inkscape:collect="always"
         xlink:href="#linearGradient10560"
         id="linearGradient10578"
         gradientUnits="userSpaceOnUse"
         gradientTransform="matrix(0.915477,0.127968,-0.149762,1.071392,0,0)"
         x1="647.37115"
         y1="96.894905"
         x2="770.59186"
         y2="342.74301" />
      <linearGradient
         inkscape:collect="always"
         xlink:href="#linearGradient4909"
         id="linearGradient10604"
         gradientUnits="userSpaceOnUse"
         gradientTransform="scale(0.891889,1.121216)"
         x1="-148.77991"
         y1="106.3186"
         x2="-160.14931"
         y2="-66.932083" />
      <linearGradient
         inkscape:collect="always"
         xlink:href="#linearGradient10630"
         id="linearGradient10633"
         gradientTransform="scale(0.883732,1.131565)"
         x1="-164.59187"
         y1="105.15539"
         x2="-154.1456"
         y2="3.6783011"
         gradientUnits="userSpaceOnUse" />
      <linearGradient
         inkscape:collect="always"
         xlink:href="#linearGradient10630"
         id="linearGradient10647"
         gradientUnits="userSpaceOnUse"
         gradientTransform="scale(0.883732,1.131565)"
         x1="-164.59187"
         y1="105.15539"
         x2="-154.1456"
         y2="3.6783011" />
      <radialGradient
         inkscape:collect="always"
         xlink:href="#linearGradient1780"
         id="radialGradient5568"
         gradientUnits="userSpaceOnUse"
         gradientTransform="matrix(-0.663014,1.058409,1.330757,0.590372,-891.7907,666.4254)"
         cx="-446.72464"
         cy="218.60974"
         fx="-446.72464"
         fy="218.60974"
         r="308.80975" />
      <linearGradient
         inkscape:collect="always"
         xlink:href="#linearGradient10630"
         id="linearGradient4391"
         gradientUnits="userSpaceOnUse"
         gradientTransform="matrix(0.437171,-0.479724,0.614848,0.55753,723.0732,-61.92042)"
         x1="-164.59187"
         y1="105.15539"
         x2="-154.1456"
         y2="3.6783011" />
    </defs>
    <linearGradient
       inkscape:collect="always"
       xlink:href="#linearGradient4073"
       id="linearGradient2680"
       gradientUnits="userSpaceOnUse"
       gradientTransform="matrix(2.208693,-0.321454,0.297858,2.04657,-83.2022,22.49135)"
       x1="48.21463"
       y1="9.8979664"
       x2="48.537571"
       y2="12.450476" />
    <linearGradient
       inkscape:collect="always"
       xlink:href="#linearGradient5581"
       id="linearGradient2683"
       gradientUnits="userSpaceOnUse"
       x1="21.065207"
       y1="4.3316655"
       x2="10.799754"
       y2="4.279263"
       gradientTransform="matrix(2.208693,-0.321454,0.297858,2.04657,-1.944011,5.564826)" />
    <linearGradient
       inkscape:collect="always"
       xlink:href="#linearGradient5581"
       id="linearGradient2710"
       gradientUnits="userSpaceOnUse"
       x1="1.0525222"
       y1="5.1257071"
       x2="10.868521"
       y2="5.1257071"
       gradientTransform="matrix(2.208693,-0.321454,0.297858,2.04657,-1.944011,5.564826)" />
  </defs>
  <sodipodi:namedview
     id="base"
     pagecolor="#ffffff"
     bordercolor="#666666"
     borderopacity="1.0"
     inkscape:pageopacity="0.0"
     inkscape:pageshadow="2"
     inkscape:zoom="7.7857146"
     inkscape:cx="33.10991"
     inkscape:cy="17.165237"
     inkscape:current-layer="g1160"
     inkscape:window-width="1430"
     inkscape:window-height="821"
     inkscape:window-x="0"
     inkscape:window-y="25"
     inkscape:showpageshadow="false" />
  <metadata
     id="metadata4">
    <rdf:RDF>
      <cc:Work
         rdf:about="">
        <dc:format>image/svg+xml</dc:format>
        <dc:type
           rdf:resource="http://purl.org/dc/dcmitype/StillImage" />
      </cc:Work>
    </rdf:RDF>
  </metadata>
  <g
     id="g1160"
     inkscape:groupmode="layer"
     inkscape:label="Layer 1"
     style="display:inline">
    <path
       style="fill:none;fill-opacity:1;fill-rule:evenodd;stroke:#000000;stroke-width:2;stroke-linecap:round;stroke-linejoin:round;stroke-opacity:1;display:inline;stroke-miterlimit:4;stroke-dasharray:none"
       d="M 42.34375 1.625 C 42.339694 1.632825 42.320667 1.6707582 42.3125 1.6875 C 42.306819 1.6929609 42.286847 1.7131796 42.28125 1.71875 C 42.276706 1.7279801 42.258044 1.7645841 42.25 1.78125 C 42.250042 1.7881468 42.250001 1.8105504 42.25 1.8125 C 42.2502 1.8292551 42.250215 1.8664973 42.25 1.875 C 42.249985 1.8855151 42.249818 1.9266658 42.25 1.9375 C 42.214437 3.0609127 43.614725 6.6541091 40.625 10.375 C 37.157138 14.690967 33.946744 3.5968841 28.03125 6.625 C 24.677915 8.3415576 23.833363 11.237599 23.75 13.46875 C 23.479878 11.212095 22.41558 8.5242611 19.125 7.8125 C 13.272102 6.546504 10.578676 19.411439 7.46875 15.625 C 4.6106012 12.145109 5.2777227 9.6206019 5.0625 8.84375 C 5.055263 8.8204395 5.0409584 8.7738234 5.03125 8.75 C 5.0256002 8.7444255 5.0056958 8.7242539 5 8.71875 C 4.9999327 8.7117052 4.9997896 8.6891684 5 8.6875 C 4.9892718 8.6820098 4.9487131 8.6610926 4.9375 8.65625 C 4.9319611 8.650531 4.9118475 8.6306462 4.90625 8.625 C 4.899107 8.6251594 4.8763557 8.6252635 4.875 8.625 C 4.8721569 8.6249123 4.8466579 8.6248701 4.84375 8.625 C 4.8402348 8.6248899 4.8153358 8.6250143 4.8125 8.625 C 4.8026569 8.6292229 4.7664794 8.6475245 4.75 8.65625 C 4.7469487 8.6594998 4.7214778 8.6846911 4.71875 8.6875 C 4.711742 8.6936855 4.6946837 8.7119083 4.6875 8.71875 C 3.7607907 9.6624431 1.4817516 15.727057 2.40625 18.71875 C 3.5265492 22.344057 5.2716251 24.156478 17.09375 16.25 C 16.933651 16.779583 16.831979 17.37487 16.8125 17.96875 C 8.5516287 23.02311 4.3409788 26.879895 3.9375 27.25 C 3.937312 27.253309 3.9375295 27.278399 3.9375 27.28125 C 3.9409632 27.284376 3.9657785 27.309714 3.96875 27.3125 C 3.970164 27.312261 3.9928802 27.312428 4 27.3125 C 4.6874356 28.044188 10.036727 33.300785 15.375 26.625 C 16.459445 29.497855 18.442389 32.474816 21.75 35.15625 L 21.90625 37.8125 C 21.927803 37.823443 21.947238 37.832953 21.96875 37.84375 C 29.313607 41.530162 34.25215 36.711475 34.84375 36.09375 C 34.883355 36.052396 34.90625 36.03125 34.90625 36.03125 L 34.8125 36.03125 L 32.21875 31.1875 C 32.709088 28.466372 33.095184 26.076997 33.34375 24.1875 C 33.346394 24.190399 33.372385 24.184826 33.375 24.1875 C 33.380032 24.198296 33.40122 24.239235 33.40625 24.25 C 33.409333 24.24936 33.434776 24.250162 33.4375 24.25 C 39.56393 31.138635 44.665792 24.703779 45.1875 24 C 45.191025 23.997226 45.215838 23.971654 45.21875 23.96875 C 45.223095 23.963015 45.24584 23.942373 45.25 23.9375 C 44.924071 23.675847 41.043217 20.585171 32 16.375 L 31.96875 16.375 C 31.656391 15.338638 31.089867 14.448815 30.375 13.875 C 43.519817 17.843619 45.068878 15.547653 46.09375 11.71875 C 46.934687 8.5770238 43.589931 2.2811418 42.5625 1.65625 C 42.550042 1.6495803 42.51583 1.6324939 42.5 1.625 C 42.49718 1.6250209 42.472196 1.6248638 42.46875 1.625 C 42.467021 1.6247193 42.444459 1.6248863 42.4375 1.625 C 42.434318 1.6250832 42.409338 1.6246993 42.40625 1.625 C 42.4034 1.6249526 42.378562 1.6251341 42.375 1.625 C 42.367941 1.6250674 42.345371 1.6252043 42.34375 1.625 z "
       id="path1680" />
    <g
       inkscape:label="Layer 1"
       id="g29199"
       transform="matrix(-1.660398,0,0,1.667054,907.4043,-135.9459)" />
    <g
       id="g29315"
       inkscape:label="Layer 1"
       transform="matrix(-1.660398,0,0,1.667054,3308.863,557.6137)" />
    <g
       inkscape:label="Layer 1"
       id="g29317"
       transform="matrix(-1.660398,0,0,1.667054,4693.257,489.9386)" />
    <path
       style="fill:url(#linearGradient2710);fill-opacity:1;fill-rule:evenodd;stroke:none;stroke-width:0.8101846px;stroke-linecap:butt;stroke-linejoin:miter;stroke-opacity:1;display:inline"
       d="M 19.326318,19.003482 C 19.326318,19.003482 20.963045,19.535299 22.039996,19.009421 C 23.116952,18.483545 23.634134,16.899977 23.634134,16.899977 C 23.634134,16.899977 25.115398,9.1262521 19.111648,7.8276249 C 13.258751,6.5616288 10.568798,19.399095 7.4588724,15.612656 C 4.1924165,11.635637 5.5486907,8.9322572 4.9065808,8.6261995 C 4.2644709,8.3201415 1.3673201,15.382875 2.393558,18.703798 C 3.5543163,22.460032 5.3862347,24.290269 18.402195,15.35877 C 18.650932,15.188088 19.326318,19.003482 19.326318,19.003482 z "
       id="path3664"
       sodipodi:nodetypes="csczszssc" />
    <path
       style="fill:#544738;fill-opacity:1;fill-rule:evenodd;stroke:none;stroke-width:1px;stroke-linecap:round;stroke-linejoin:round;stroke-opacity:1"
       d="M 33.710037,20.6422 C 33.512444,22.792733 32.88443,28.088921 31.547704,34.646843 L 23.397345,36.36991 C 16.16913,31.372087 14.221595,25.10359 14.244037,20.254127 C 20.572169,16.956815 26.395227,14.538861 33.710037,20.6422 z "
       id="path2325"
       sodipodi:nodetypes="ccccc" />
    <path
       style="fill:#bdbb81;fill-opacity:1;fill-rule:nonzero;stroke:#000000;stroke-width:0.2;stroke-linecap:round;stroke-linejoin:round;stroke-opacity:1;display:inline;stroke-miterlimit:4;stroke-dasharray:none"
       id="path3606"
       d="M 23.801638,38.203212 C 25.090555,37.584949 24.841217,38.268226 26.394561,38.583529 C 27.537787,38.888101 30.194468,38.924829 29.787681,39.885054 C 28.346748,41.268058 25.925307,42.539635 24.158102,43.900555 C 23.7266,44.240429 23.937062,44.072986 23.526358,44.402834 L 22.660545,44.738006 C 23.080978,44.403691 22.865676,44.573381 23.306772,44.228975 C 25.070085,42.879943 27.436972,41.61577 28.90581,40.245926 C 29.350101,39.306453 26.682937,39.256932 25.591036,38.959027 C 24.543427,38.753637 22.625765,38.546573 24.669718,37.758121 L 23.801638,38.203212 z " />
    <path
       style="fill:#bdbb81;fill-opacity:1;fill-rule:nonzero;stroke:#000000;stroke-width:0.2;stroke-linecap:round;stroke-linejoin:round;stroke-opacity:1;display:inline;stroke-miterlimit:4;stroke-dasharray:none"
       id="path3608"
       d="M 29.298901,36.250612 C 29.612635,36.420737 30.076849,36.543494 30.446888,36.695099 C 31.114279,37.201855 30.351044,38.078169 30.610585,38.715954 C 31.212619,39.523001 32.789078,39.917684 33.726124,40.590987 L 32.85748,40.976619 C 31.951093,40.286297 30.421987,39.867128 29.779833,39.073251 C 29.492955,38.452509 30.194906,37.601564 29.564263,37.095775 C 29.176929,36.937047 28.718893,36.816041 28.346339,36.650401 L 29.298901,36.250612 z " />
    <path
       style="fill:#bdbb81;fill-opacity:1;fill-rule:nonzero;stroke:#000000;stroke-width:0.2;stroke-linecap:round;stroke-linejoin:round;stroke-opacity:1;display:inline;stroke-miterlimit:4;stroke-dasharray:none"
       id="path3610"
       d="M 33.176076,34.966784 C 34.673249,34.204182 33.483379,35.201253 33.75587,35.713919 C 34.410808,36.574184 35.832894,37.207001 35.168762,38.408278 C 34.38283,39.461566 33.029013,40.505677 32.088342,41.560102 C 32.040378,41.616024 31.992408,41.671954 31.944445,41.72788 L 31.049449,42.083839 C 31.098684,42.027134 31.147915,41.970432 31.197152,41.913726 C 32.147452,40.857698 33.504491,39.813032 34.308387,38.757725 C 34.984005,37.565028 33.617903,36.913968 32.906252,36.081621 C 32.56582,35.532717 32.609082,35.063762 34.044158,34.521694 L 33.176076,34.966784 z " />
    <path
       style="fill:#bdbb81;fill-opacity:1;fill-rule:nonzero;stroke:#000000;stroke-width:0.2;stroke-linecap:round;stroke-linejoin:round;stroke-opacity:1;display:inline;stroke-miterlimit:4;stroke-dasharray:none"
       id="path3612"
       d="M 27.270903,36.697682 C 27.396068,36.928619 27.757111,37.087978 28.019199,37.270578 C 28.786655,37.883466 27.047205,38.872077 26.072819,39.647367 C 24.404447,40.844211 25.456316,41.546097 26.585701,42.169818 L 25.789319,42.527881 C 24.67361,41.897551 23.499625,41.201428 25.188152,39.989708 C 26.132585,39.238272 27.872783,38.259328 27.140334,37.661617 C 26.869171,37.473325 26.511346,37.314566 26.318344,37.097476 L 27.270903,36.697682 z " />
    <path
       style="fill:#bdbb81;fill-opacity:1;fill-rule:nonzero;stroke:#000000;stroke-width:0.2;stroke-linecap:round;stroke-linejoin:round;stroke-opacity:1;display:inline;stroke-miterlimit:4;stroke-dasharray:none"
       id="path3614"
       d="M 27.401162,35.919583 C 27.073348,36.48886 26.873721,37.038106 26.994478,37.536394 C 27.467131,38.524364 29.118912,39.066272 30.184972,39.826754 C 30.838648,40.246066 30.782886,40.81409 30.448003,41.469182 L 29.557501,41.831781 C 29.902261,41.184712 29.972507,40.620902 29.342251,40.201692 C 28.301342,39.425262 26.678779,38.86885 26.156005,37.894217 C 26.010712,37.412689 26.1669,36.874052 26.449399,36.319036 L 27.401162,35.919583 z " />
    <path
       style="fill:#bdbb81;fill-opacity:1;fill-rule:nonzero;stroke:#000000;stroke-width:0.2;stroke-linecap:round;stroke-linejoin:round;stroke-opacity:1;display:inline;stroke-miterlimit:4;stroke-dasharray:none"
       id="path3616"
       d="M 31.328483,35.776947 C 31.177956,35.788318 31.071935,35.854464 30.943064,35.899081 C 32.229585,35.254262 31.460015,35.767449 31.472003,36.156958 C 31.64497,36.88735 32.489483,37.407773 32.824491,38.08877 C 33.097123,38.867021 31.657857,39.914289 30.529814,40.760259 C 30.132511,41.053805 29.713141,41.343639 29.294964,41.633541 L 28.372877,41.985748 C 28.797999,41.693489 29.223959,41.401283 29.631485,41.105838 C 30.759977,40.273293 32.199898,39.238161 31.951619,38.464981 C 31.628516,37.778272 30.804992,37.249337 30.594077,36.527813 C 30.537369,36.065997 30.937732,35.611235 32.195113,35.332604 L 31.328483,35.776947 z " />
    <path
       style="fill:#bdbb81;fill-opacity:1;fill-rule:nonzero;stroke:#000000;stroke-width:0.2;stroke-linecap:round;stroke-linejoin:round;stroke-opacity:1;display:inline;stroke-miterlimit:4;stroke-dasharray:none"
       id="path3618"
       d="M 22.832148,37.091298 C 22.689862,37.570648 22.66431,38.027777 22.805993,38.449089 C 23.083422,39.250676 24.140854,39.737129 25.320012,40.164583 C 26.314596,40.47042 26.901492,40.910783 26.951227,41.570168 C 26.94176,42.047122 26.65823,42.582041 26.903979,43.000617 C 26.986936,43.10476 27.163817,43.163894 27.338892,43.22502 L 26.454145,43.631731 C 26.274188,43.565374 26.091972,43.500845 26.004203,43.391994 C 25.751736,42.96912 26.033517,42.431486 26.059378,41.945517 C 26.026973,41.29037 25.447754,40.858343 24.479959,40.548663 C 23.304225,40.109747 22.235077,39.623971 21.948618,38.816392 C 21.797107,38.40231 21.80212,37.955034 21.879587,37.491093 L 22.832148,37.091298 z " />
    <path
       style="fill:#bdbb81;fill-opacity:1;fill-rule:nonzero;stroke:#000000;stroke-width:0.2;stroke-linecap:round;stroke-linejoin:round;stroke-opacity:1;display:inline;stroke-miterlimit:4;stroke-dasharray:none"
       id="path3620"
       d="M 24.760556,36.619652 C 24.172481,37.227735 23.853094,37.830144 23.880504,38.380406 C 24.16082,39.471975 26.205596,39.891877 27.590699,40.531383 C 28.60474,40.934209 28.384348,41.640788 27.98616,42.407834 C 27.815069,42.715749 27.573641,43.02778 27.308347,43.339736 L 26.369718,43.712409 C 26.644347,43.399578 26.894899,43.086551 27.077412,42.776914 C 27.496147,42.017123 27.738012,41.316776 26.758401,40.908182 C 25.390982,40.251874 23.364856,39.816253 23.042789,38.734166 C 22.994713,38.212227 23.246218,37.5932 23.807999,37.019444 L 24.760556,36.619652 z " />
    <path
       style="fill:#bdbb81;fill-opacity:1;fill-rule:nonzero;stroke:#000000;stroke-width:0.2;stroke-linecap:round;stroke-linejoin:round;stroke-opacity:1;display:inline;stroke-miterlimit:4;stroke-dasharray:none"
       id="path3622"
       d="M 29.504582,36.316768 C 31.178373,35.466437 29.903049,36.407197 29.704225,36.869566 C 29.527765,37.796516 30.213755,38.519081 30.632247,39.293431 C 31.117963,40.03974 30.608736,40.958365 29.930368,41.890986 C 29.539443,42.425906 29.073393,42.962609 28.592798,43.498858 L 27.677408,43.861913 C 28.170353,43.321779 28.653413,42.781066 29.056202,42.241813 C 29.741188,41.316653 30.239675,40.407782 29.773468,39.664427 C 29.361097,38.88231 28.711169,38.151142 28.819041,37.233217 C 29.013911,36.668024 29.217065,36.310304 30.372669,35.871675 L 29.504582,36.316768 z " />
    <path
       style="fill:#bdbb81;fill-opacity:1;fill-rule:nonzero;stroke:#000000;stroke-width:0.2;stroke-linecap:round;stroke-linejoin:round;stroke-opacity:1;display:inline;stroke-miterlimit:4;stroke-dasharray:none"
       id="path3624"
       d="M 32.359052,35.110725 C 32.289549,35.448535 32.350148,35.754845 32.467043,36.050833 C 32.87644,36.90776 33.60797,37.664069 34.038901,38.514623 C 34.334579,39.28013 33.036641,40.263227 32.079431,41.123163 C 31.390047,41.779292 30.529872,42.423874 29.874924,43.081361 C 29.34686,43.595355 29.486614,43.921378 30.147489,44.130646 L 29.273258,44.534049 C 28.600578,44.314954 28.418505,43.977395 28.954009,43.44504 C 29.605818,42.780866 30.48507,42.131926 31.190737,41.470333 C 32.144683,40.62293 33.429604,39.649149 33.173763,38.887577 C 32.773331,38.027142 32.068629,37.261215 31.617684,36.41633 C 31.475155,36.131007 31.37911,35.837345 31.406493,35.510517 L 32.359052,35.110725 z " />
    <path
       style="fill:#bdbb81;fill-opacity:1;fill-rule:nonzero;stroke:#000000;stroke-width:0.2;stroke-linecap:round;stroke-linejoin:round;stroke-opacity:1;display:inline;stroke-miterlimit:4;stroke-dasharray:none"
       id="path3626"
       d="M 26.429607,37.623801 C 26.72051,38.128393 27.325517,38.532111 27.717889,39.005864 C 28.530004,39.866825 28.260454,40.971938 27.842095,42.104109 C 27.619325,42.765856 27.13582,43.477641 27.293738,44.073255 C 27.352119,44.237043 27.51041,44.363545 27.691068,44.482947 L 26.801362,44.881945 C 26.617221,44.757735 26.458151,44.625823 26.398812,44.456638 C 26.234674,43.853191 26.725982,43.13394 26.977962,42.459254 C 27.422516,41.328677 27.704511,40.223935 26.886948,39.369307 C 26.481741,38.8955 25.881598,38.495473 25.47944,38.022589 L 26.429607,37.623801 z " />
    <path
       style="fill:#bdbb81;fill-opacity:1;fill-rule:nonzero;stroke:#000000;stroke-width:0.2;stroke-linecap:round;stroke-linejoin:round;stroke-opacity:1;display:inline;stroke-miterlimit:4;stroke-dasharray:none"
       id="path3628"
       d="M 28.568872,37.167813 C 27.943882,37.863285 27.493516,38.575535 26.989291,39.273432 C 26.23511,40.304082 25.645059,41.326581 25.16603,42.336512 C 24.671698,43.216032 25.386661,43.761021 26.391163,44.185311 C 26.782458,44.353386 27.271458,44.465317 27.777347,44.564476 L 26.931108,44.959798 C 26.427911,44.855285 25.938681,44.739649 25.545525,44.569747 C 24.538404,44.139861 23.789273,43.583808 24.281659,42.697736 C 24.766099,41.681681 25.393261,40.650318 26.139403,39.614872 C 26.634612,38.922625 27.111268,38.231056 27.584267,37.540609 L 28.568872,37.167813 z " />
    <path
       style="fill:#bdbb81;fill-opacity:1;fill-rule:nonzero;stroke:#000000;stroke-width:0.2;stroke-linecap:round;stroke-linejoin:round;stroke-opacity:1;display:inline;stroke-miterlimit:4;stroke-dasharray:none"
       id="path3630"
       d="M 30.91004,35.967285 C 31.156398,36.279953 31.01703,36.699176 30.950088,37.084312 C 30.7042,38.434454 31.218368,39.624845 31.499986,40.85804 C 31.574193,41.683917 31.927127,42.424664 32.505005,43.105539 C 32.928976,43.493234 32.519397,43.98941 32.007641,44.516474 L 31.077382,44.882489 C 31.595919,44.366384 32.026689,43.875373 31.630041,43.488099 C 31.075103,42.794374 30.720618,42.047789 30.669533,41.211444 C 30.416387,39.970167 29.944428,38.772026 30.095543,37.440639 C 30.141334,37.072905 30.250762,36.671257 29.98102,36.381098 L 30.91004,35.967285 z " />
    <path
       style="fill:#bdbb81;fill-opacity:1;fill-rule:nonzero;stroke:#000000;stroke-width:0.2;stroke-linecap:round;stroke-linejoin:round;stroke-opacity:1;display:inline;stroke-miterlimit:4;stroke-dasharray:none"
       id="path3632"
       d="M 26.020183,37.0187 C 27.637656,36.246503 26.540461,37.471054 26.881158,38.218694 C 27.434073,39.286523 28.55853,40.160771 29.412021,41.126702 C 29.926562,41.636151 29.962561,42.275291 29.775889,42.955779 C 29.6446,43.343611 29.34292,43.75543 29.388759,44.114433 C 29.726963,44.539876 29.019496,44.873253 28.12527,45.299914 C 27.878789,45.411497 27.645106,45.528951 27.411146,45.646453 L 26.458428,45.99998 C 26.696901,45.878704 26.934848,45.757475 27.189357,45.643703 C 28.047328,45.237682 28.809072,44.916511 28.47601,44.503291 C 28.411661,44.142619 28.712004,43.726757 28.867717,43.330565 C 29.075177,42.650184 29.058582,42.011314 28.56407,41.49785 C 27.742215,40.517603 26.66447,39.624081 26.081699,38.563287 C 25.757556,37.928631 25.170689,37.204266 26.971942,36.619242 L 26.020183,37.0187 z " />
    <path
       style="fill:#bdbb81;fill-opacity:1;fill-rule:nonzero;stroke:#000000;stroke-width:0.2;stroke-linecap:round;stroke-linejoin:round;stroke-opacity:1;display:inline;stroke-miterlimit:4;stroke-dasharray:none"
       id="path3634"
       d="M 24.911294,37.9202 C 24.984864,38.257178 25.148708,38.572355 25.243664,38.904918 C 25.408366,39.726837 24.976254,40.661689 24.602021,41.573286 C 23.951957,42.68908 25.50512,42.830097 27.240188,42.945137 C 28.491733,43.024645 29.907341,43.039467 30.422324,43.571153 C 30.621435,43.806464 30.513501,44.062816 30.201893,44.371615 C 29.965615,44.597853 29.637178,44.812263 29.305179,45.023778 L 28.342545,45.388203 C 28.675221,45.179516 29.007678,44.968196 29.250511,44.74461 C 29.563518,44.446202 29.705372,44.198648 29.520985,43.964966 C 29.050223,43.4321 27.656311,43.413224 26.444381,43.325938 C 24.698508,43.201319 23.042138,43.077997 23.7206,41.934753 C 24.1011,41.026234 24.561073,40.090338 24.375728,39.2757 C 24.276548,38.945267 24.107378,38.636059 23.95873,38.319991 L 24.911294,37.9202 z " />
    <path
       style="fill:#bdbb81;fill-opacity:1;fill-rule:nonzero;stroke:#000000;stroke-width:0.2;stroke-linecap:round;stroke-linejoin:round;stroke-opacity:1;display:inline;stroke-miterlimit:4;stroke-dasharray:none"
       id="path3636"
       d="M 32.444871,38.253893 C 31.656298,38.985162 31.213865,39.702547 30.864438,40.418087 C 30.422319,41.336224 30.132924,42.236467 29.901598,43.126882 C 29.859185,43.735765 29.283824,44.367647 28.622299,45.014072 C 28.58165,45.052888 28.541012,45.0917 28.500365,45.130515 L 27.577751,45.492458 C 27.61954,45.453416 27.661336,45.414375 27.703129,45.37533 C 28.371131,44.732314 28.958241,44.10306 29.013788,43.494366 C 29.264623,42.596029 29.561356,41.689684 30.013243,40.765446 C 30.357928,40.062073 30.768042,39.357566 31.472788,38.637979 L 32.444871,38.253893 z " />
    <path
       style="fill:#bdbb81;fill-opacity:1;fill-rule:nonzero;stroke:#000000;stroke-width:0.2;stroke-linecap:round;stroke-linejoin:round;stroke-opacity:1;display:inline;stroke-miterlimit:4;stroke-dasharray:none"
       id="path3638"
       d="M 32.813727,36.350916 C 32.77444,36.677032 32.764458,36.997676 32.726793,37.323484 C 32.523125,38.513282 32.622487,39.643297 32.639972,40.78909 C 32.62502,41.503098 32.61335,42.224912 32.255525,42.994967 C 31.967416,43.518197 31.412352,44.049121 30.814488,44.571163 L 29.87904,44.934943 C 30.490133,44.415044 31.052889,43.885354 31.355091,43.36204 C 31.727202,42.590256 31.754972,41.865098 31.789246,41.147031 C 31.794698,39.997195 31.744884,38.858397 31.859588,37.686592 C 31.872862,37.372062 31.872551,37.060155 31.861168,36.750707 L 32.813727,36.350916 z " />
    <path
       style="fill:#bdbb81;fill-opacity:1;fill-rule:nonzero;stroke:#000000;stroke-width:0.2;stroke-linecap:round;stroke-linejoin:round;stroke-opacity:1;display:inline;stroke-miterlimit:4;stroke-dasharray:none"
       id="path3640"
       d="M 34.442643,38.422305 C 34.726576,38.613896 34.691365,38.893076 34.574381,39.188898 C 33.925742,40.130312 32.915299,41.086972 32.573952,42.008401 C 32.436383,42.643044 32.624378,43.206257 32.044209,43.893192 C 31.592319,44.339649 31.077066,44.782432 30.611694,45.228206 L 29.686595,45.591819 C 30.155363,45.144744 30.67719,44.701101 31.135242,44.253437 C 31.725708,43.5686 31.560039,43.001319 31.698352,42.368457 C 32.043444,41.44824 33.036782,40.496264 33.672834,39.556623 C 33.786258,39.264503 33.821036,38.99709 33.490086,38.822097 L 34.442643,38.422305 z " />
    <path
       style="fill:#bdbb81;fill-opacity:1;fill-rule:nonzero;stroke:#000000;stroke-width:0.2;stroke-linecap:round;stroke-linejoin:round;stroke-opacity:1;display:inline;stroke-miterlimit:4;stroke-dasharray:none"
       id="path3642"
       d="M 29.73575,35.837389 C 30.031662,35.70419 30.325464,35.569739 30.62349,35.437789 C 31.206433,35.179708 29.786665,36.06293 29.452717,36.382253 C 28.722497,37.080499 28.297847,37.753904 28.019325,38.430799 C 27.464822,40.175988 28.433109,41.60158 29.008455,43.08751 C 29.360591,43.920363 29.52027,44.800487 28.968392,45.807605 C 28.89069,45.954776 28.782876,46.103967 28.684324,46.252502 L 27.779596,46.616285 C 27.88373,46.466835 27.997712,46.316755 28.079643,46.168578 C 28.655172,45.16055 28.519627,44.275083 28.19859,43.43479 C 27.665033,41.931094 26.726887,40.493422 27.239772,38.750872 C 27.646699,37.683432 28.441328,36.323943 30.57384,35.381452 L 29.73575,35.837389 z " />
    <path
       style="fill:#b4b16f;fill-opacity:1;fill-rule:evenodd;stroke:none;stroke-width:0.63700002;stroke-linecap:butt;stroke-linejoin:miter;stroke-miterlimit:4;stroke-dasharray:none;stroke-opacity:1;display:inline"
       d="M 45.25108,23.945381 C 45.199231,24.030881 37.559194,34.735514 29.524549,18.085873"
       id="path3646"
       sodipodi:nodetypes="cz" />
    <path
       style="fill:#62533e;fill-opacity:1;fill-rule:evenodd;stroke:none;stroke-width:0.43700001;stroke-linecap:butt;stroke-linejoin:miter;stroke-miterlimit:4;stroke-dasharray:none;stroke-opacity:1;display:inline"
       d="M 31.992435,16.359667 C 41.449394,20.76246 45.306594,23.931945 45.306594,23.931945 C 45.306594,23.931945 33.710834,31.336623 29.338009,17.690433"
       id="path3648"
       sodipodi:nodetypes="ccs" />
    <path
       style="fill:#b4b16f;fill-opacity:1;fill-rule:evenodd;stroke:none;stroke-width:0.63700002;stroke-linecap:butt;stroke-linejoin:miter;stroke-miterlimit:4;stroke-dasharray:none;stroke-opacity:1"
       d="M 3.9176381,27.249159 C 3.9769973,27.32734 12.559298,36.975872 19.157286,19.550404"
       id="path3652"
       sodipodi:nodetypes="cz" />
    <path
       style="fill:#62533e;fill-opacity:1;fill-rule:evenodd;stroke:none;stroke-width:0.43700001;stroke-linecap:butt;stroke-linejoin:miter;stroke-miterlimit:4;stroke-dasharray:none;stroke-opacity:1"
       d="M 17.400251,17.616088 C 8.3125571,23.114338 3.860871,27.242627 3.860871,27.242627 C 3.860871,27.242627 16.117582,33.150486 19.309696,19.137059"
       id="path3654"
       sodipodi:nodetypes="ccs" />
    <path
       style="fill:url(#linearGradient2683);fill-opacity:1;fill-rule:evenodd;stroke:none;stroke-width:0.8101846px;stroke-linecap:butt;stroke-linejoin:miter;stroke-opacity:1;display:inline"
       d="M 28.702297,17.286835 C 28.702297,17.286835 27.062415,18.302192 25.912713,18.139924 C 24.763009,17.977659 24.103488,16.63777 24.103488,16.63777 C 24.103488,16.63777 21.953254,9.7299914 28.021217,6.6238278 C 33.936711,3.595712 37.162329,14.681818 40.630191,10.365851 C 44.098061,6.0498814 41.631711,1.951971 42.386262,1.6213864 C 43.078016,1.3183145 46.992054,8.3354113 46.087517,11.714747 C 45.036274,15.642173 43.461382,17.945935 29.358339,13.542643 C 29.088828,13.458495 28.702297,17.286835 28.702297,17.286835 z "
       id="path3658"
       sodipodi:nodetypes="csczszssc" />
    <path
       style="fill:url(#linearGradient2680);fill-opacity:1;fill-rule:evenodd;stroke:none;stroke-width:0.80686522;stroke-linecap:butt;stroke-linejoin:miter;stroke-miterlimit:4;stroke-dasharray:none;stroke-opacity:1;display:inline"
       d="M 21.197502,24.420651 L 21.90235,37.83985 L 34.859069,36.104078 L 28.026412,23.361802"
       id="path3682"
       sodipodi:nodetypes="cccc" />
    <path
       style="fill:#221c14;fill-opacity:1;fill-rule:evenodd;stroke:none;stroke-width:0.2;stroke-linecap:butt;stroke-linejoin:miter;stroke-miterlimit:4;stroke-dasharray:none;stroke-opacity:1;display:inline"
       d="M 21.863868,37.799767 C 29.75264,41.824758 34.897083,36.044398 34.897083,36.044398"
       id="path3684"
       sodipodi:nodetypes="cc" />
    <path
       style="fill:#000000;fill-opacity:1;fill-rule:nonzero;stroke:#000000;stroke-width:0.2;stroke-linecap:round;stroke-linejoin:round;stroke-opacity:1;display:inline;stroke-miterlimit:4;stroke-dasharray:none"
       d="M 26.717888,39.837028 C 28.295379,40.133806 30.096841,40.770905 31.710555,40.672195 C 31.003725,41.573864 29.911902,42.945896 28.784414,42.787171 C 26.652084,42.409388 25.650018,41.885234 24.694996,41.126668 C 25.234381,40.777053 26.178503,40.186638 26.717888,39.837028 z "
       id="path3686"
       sodipodi:nodetypes="ccccc" />
    <path
       id="path1712"
       d="M 24.624857,18.439355 C 24.841904,21.14697 26.717619,23.170704 28.811713,22.956613 C 30.905814,22.742522 32.42923,20.371276 32.212176,17.663661 C 31.995136,14.956052 30.119429,12.932325 28.025328,13.146416 C 25.931233,13.360501 24.407817,15.731746 24.624857,18.439355 z "
       style="fill:#ffffff;fill-opacity:1;fill-rule:nonzero;stroke:#0f0f0f;stroke-width:0;stroke-miterlimit:4;stroke-opacity:1" />
    <path
       id="path1714"
       d="M 26.164115,18.875081 C 26.120654,19.997937 27.132599,20.923111 28.422931,20.940194 C 29.713256,20.957276 30.795741,20.059829 30.839202,18.936973 C 30.882661,17.814118 29.870715,16.888951 28.580392,16.871868 C 27.290057,16.854786 26.207571,17.752226 26.164115,18.875081 z "
       style="fill:#000000;fill-opacity:1;fill-rule:nonzero;stroke:#0f0f0f;stroke-width:0;stroke-miterlimit:4;stroke-opacity:1" />
    <path
       id="path1726"
       d="M 16.845128,18.742557 C 17.079617,21.692964 19.11126,23.898023 21.380034,23.664557 C 23.648819,23.431091 25.299853,20.847073 25.065357,17.896665 C 24.830876,14.946263 22.799243,12.741212 20.53046,12.974676 C 18.261684,13.208136 16.610647,15.792155 16.845128,18.742557 z "
       style="fill:#ffffff;fill-opacity:1;fill-rule:nonzero;stroke:#0f0f0f;stroke-width:0;stroke-miterlimit:4;stroke-opacity:1;display:inline" />
    <path
       id="path1728"
       d="M 18.433293,19.841827 C 18.385937,21.065381 19.482043,22.073438 20.879977,22.091943 C 22.2779,22.11045 23.450877,21.13243 23.498231,19.908877 C 23.545588,18.685324 22.44948,17.677275 21.051558,17.658769 C 19.653624,17.640264 18.48065,18.618274 18.433293,19.841827 z "
       style="fill:#000000;fill-opacity:1;fill-rule:nonzero;stroke:#0f0f0f;stroke-width:0;stroke-miterlimit:4;stroke-opacity:1;display:inline" />
  </g>
</svg>
