<?xml version="1.0" encoding="UTF-8" standalone="no"?>
<!-- Created with Inkscape (http://www.inkscape.org/) -->
<svg
   xmlns:dc="http://purl.org/dc/elements/1.1/"
   xmlns:cc="http://web.resource.org/cc/"
   xmlns:rdf="http://www.w3.org/1999/02/22-rdf-syntax-ns#"
   xmlns:svg="http://www.w3.org/2000/svg"
   xmlns="http://www.w3.org/2000/svg"
   xmlns:xlink="http://www.w3.org/1999/xlink"
   xmlns:sodipodi="http://inkscape.sourceforge.net/DTD/sodipodi-0.dtd"
   xmlns:inkscape="http://www.inkscape.org/namespaces/inkscape"
   width="47"
   height="38"
   id="svg2"
   sodipodi:version="0.32"
   inkscape:version="0.43"
   sodipodi:docbase="/home/yekcim/Desktop/SVG/Weapons"
   sodipodi:docname="gnulauncher.svg"
   version="1.0"
   inkscape:output_extension="org.inkscape.output.svg.inkscape">
  <defs
     id="defs4">
    <linearGradient
       id="linearGradient3060">
      <stop
         style="stop-color:#64513c;stop-opacity:1;"
         offset="0"
         id="stop3062" />
      <stop
         style="stop-color:#453f37;stop-opacity:1;"
         offset="1"
         id="stop3064" />
    </linearGradient>
    <defs
       id="defs1062">
      <linearGradient
         id="linearGradient10630"
         inkscape:collect="always">
        <stop
           id="stop10631"
           offset="0"
           style="stop-color:#616161;stop-opacity:1;" />
        <stop
           id="stop10632"
           offset="1"
           style="stop-color:#616161;stop-opacity:0;" />
      </linearGradient>
      <linearGradient
         id="linearGradient10560"
         inkscape:collect="always">
        <stop
           id="stop10561"
           offset="0"
           style="stop-color:#000000;stop-opacity:1;" />
        <stop
           id="stop10562"
           offset="1"
           style="stop-color:#000000;stop-opacity:0;" />
      </linearGradient>
      <linearGradient
         id="linearGradient13777">
        <stop
           id="stop13779"
           style="stop-color:#d17d00;stop-opacity:1.0000000;"
           offset="0.0000000" />
        <stop
           id="stop13778"
           style="stop-color:#a7b135;stop-opacity:0.0000000;"
           offset="1.0000000" />
      </linearGradient>
      <linearGradient
         id="linearGradient11847">
        <stop
           id="stop11849"
           style="stop-color:#000000;stop-opacity:1.0000000;"
           offset="0.0000000" />
        <stop
           id="stop11848"
           style="stop-color:#000000;stop-opacity:0.0000000;"
           offset="1.0000000" />
      </linearGradient>
      <linearGradient
         id="linearGradient6187">
        <stop
           id="stop6188"
           offset="0.0000000"
           style="stop-color:#2e1b0b;stop-opacity:1.0000000;" />
        <stop
           id="stop6189"
           offset="1"
           style="stop-color:#431e00;stop-opacity:0;" />
      </linearGradient>
      <linearGradient
         id="linearGradient4909"
         inkscape:collect="always">
        <stop
           id="stop4910"
           offset="0"
           style="stop-color:#000000;stop-opacity:1;" />
        <stop
           id="stop4911"
           offset="1"
           style="stop-color:#000000;stop-opacity:0;" />
      </linearGradient>
      <linearGradient
         id="linearGradient1780">
        <stop
           id="stop1781"
           offset="0.0000000"
           style="stop-color:#454545;stop-opacity:1.0000000;" />
        <stop
           id="stop1782"
           offset="1"
           style="stop-color:#ffffff;stop-opacity:0;" />
      </linearGradient>
      <linearGradient
         id="linearGradient3869">
        <stop
           id="stop3872"
           style="stop-color:#d2dd2e;stop-opacity:1.0000000;"
           offset="0.0000000" />
        <stop
           id="stop3871"
           style="stop-color:#b3b96d;stop-opacity:0.65555555;"
           offset="0.76146787" />
        <stop
           id="stop3870"
           style="stop-color:#b1b952;stop-opacity:0.0000000;"
           offset="1.0000000" />
      </linearGradient>
      <linearGradient
         y2="2708.2139"
         x2="96.982727"
         y1="319.33466"
         x1="4373.3052"
         gradientTransform="matrix(0.112563,0,0,0.115364,26.43402,157.1761)"
         gradientUnits="userSpaceOnUse"
         id="linearGradient3799"
         xlink:href="#linearGradient9217"
         inkscape:collect="always" />
      <linearGradient
         y2="2479.5938"
         x2="1523.3719"
         y1="2479.5938"
         x1="862.1651"
         gradientTransform="matrix(0.230667,0,0,7.644947e-2,26.55186,129.5549)"
         gradientUnits="userSpaceOnUse"
         id="linearGradient3800"
         xlink:href="#linearGradient7337"
         inkscape:collect="always" />
      <linearGradient
         y2="1630.2036"
         x2="1782.0374"
         y1="2173.3171"
         x1="580.22791"
         gradientTransform="matrix(0.162855,0,0,7.648058e-2,75.52973,161.8049)"
         gradientUnits="userSpaceOnUse"
         id="linearGradient3801"
         xlink:href="#linearGradient5442"
         inkscape:collect="always" />
      <radialGradient
         r="739.70477"
         fy="1573.4399"
         fx="-606.79681"
         cy="1573.4399"
         cx="-606.79681"
         gradientTransform="matrix(0.159978,0,0,7.785591e-2,363.0923,173.8583)"
         gradientUnits="userSpaceOnUse"
         id="radialGradient3802"
         xlink:href="#linearGradient5442"
         inkscape:collect="always" />
      <linearGradient
         y2="1720.9402"
         x2="5625.4653"
         y1="3945.1116"
         x1="4848.5972"
         gradientTransform="scale(0.659854,1.515487)"
         gradientUnits="userSpaceOnUse"
         id="linearGradient3803"
         xlink:href="#linearGradient21707"
         inkscape:collect="always" />
      <linearGradient
         y2="1184.9034"
         x2="-352.84012"
         y1="5021.4731"
         x1="-7797.7422"
         gradientTransform="matrix(0.236634,0,0,0.208284,-2451.443,4783.687)"
         gradientUnits="userSpaceOnUse"
         id="linearGradient3804"
         xlink:href="#linearGradient7337"
         inkscape:collect="always" />
      <linearGradient
         y2="1184.9034"
         x2="-352.84012"
         y1="5021.4731"
         x1="-7797.7422"
         gradientTransform="matrix(0.236634,0,0,0.208284,-2451.443,4783.687)"
         gradientUnits="userSpaceOnUse"
         id="linearGradient3805"
         xlink:href="#linearGradient7337"
         inkscape:collect="always" />
      <defs
         id="defs3745">
        <linearGradient
           xlink:href="#linearGradient13777"
           spreadMethod="pad"
           gradientUnits="objectBoundingBox"
           y2="0.5"
           x2="1"
           y1="0.5"
           x1="0"
           id="linearGradient22333" />
        <linearGradient
           id="linearGradient21707">
          <stop
             id="stop21708"
             offset="0.0000000"
             style="stop-color:#ffffff;stop-opacity:1.0000000;" />
          <stop
             id="stop21709"
             offset="1"
             style="stop-color:#a7b135;stop-opacity:0;" />
        </linearGradient>
        <linearGradient
           xlink:href="#linearGradient11847"
           spreadMethod="pad"
           gradientUnits="objectBoundingBox"
           y2="0.5"
           x2="1"
           y1="0.5"
           x1="0"
           id="linearGradient9217"
           inkscape:collect="always" />
        <linearGradient
           id="linearGradient8584">
          <stop
             id="stop8585"
             offset="0.0000000"
             style="stop-color:#000000;stop-opacity:1.0000000;" />
          <stop
             id="stop8586"
             offset="1"
             style="stop-color:#cece4c;stop-opacity:0;" />
        </linearGradient>
        <linearGradient
           id="linearGradient7337">
          <stop
             id="stop7338"
             offset="0.0000000"
             style="stop-color:#b1b12f;stop-opacity:1.0000000;" />
          <stop
             id="stop7339"
             offset="1"
             style="stop-color:#cece4c;stop-opacity:0;" />
        </linearGradient>
        <linearGradient
           xlink:href="#linearGradient3869"
           spreadMethod="pad"
           gradientUnits="objectBoundingBox"
           y2="0.5"
           x2="1"
           y1="0.5"
           x1="0"
           id="linearGradient5442" />
      </defs>
      <sodipodi:namedview
         inkscape:guide-bbox="true"
         showguides="true"
         inkscape:window-y="27"
         inkscape:window-x="0"
         inkscape:window-height="851"
         inkscape:window-width="1440"
         inkscape:current-layer="layer1"
         inkscape:cy="420.94487"
         inkscape:cx="297.63780"
         inkscape:zoom="0.80057989"
         inkscape:pageshadow="2"
         inkscape:pageopacity="0.0"
         borderopacity="1.0"
         bordercolor="#666666"
         pagecolor="#ffffff"
         id="namedview3772" />
      <metadata
         id="metadata3773">
        <rdf:RDF>
          <cc:Work
             rdf:about="">
            <dc:format>image/svg+xml</dc:format>
            <dc:type
               rdf:resource="http://purl.org/dc/dcmitype/StillImage" />
          </cc:Work>
        </rdf:RDF>
      </metadata>
      <linearGradient
         y2="-66.932083"
         x2="-160.14931"
         y1="106.3186"
         x1="-148.77991"
         gradientTransform="scale(0.891889,1.121216)"
         gradientUnits="userSpaceOnUse"
         id="linearGradient6167"
         xlink:href="#linearGradient4909"
         inkscape:collect="always" />
      <linearGradient
         gradientUnits="userSpaceOnUse"
         y2="359.09653"
         x2="758.31232"
         y1="69.852913"
         x1="698.5448"
         gradientTransform="matrix(0.915477,0.127968,-0.149762,1.071392,19.54851,-8.45341)"
         id="linearGradient10563"
         xlink:href="#linearGradient10560"
         inkscape:collect="always" />
      <linearGradient
         y2="342.74301"
         x2="770.59186"
         y1="96.894905"
         x1="647.37115"
         gradientTransform="matrix(0.915477,0.127968,-0.149762,1.071392,0,0)"
         gradientUnits="userSpaceOnUse"
         id="linearGradient10578"
         xlink:href="#linearGradient10560"
         inkscape:collect="always" />
      <linearGradient
         y2="-66.932083"
         x2="-160.14931"
         y1="106.3186"
         x1="-148.77991"
         gradientTransform="scale(0.891889,1.121216)"
         gradientUnits="userSpaceOnUse"
         id="linearGradient10604"
         xlink:href="#linearGradient4909"
         inkscape:collect="always" />
      <linearGradient
         gradientUnits="userSpaceOnUse"
         y2="3.6783011"
         x2="-154.1456"
         y1="105.15539"
         x1="-164.59187"
         gradientTransform="scale(0.883732,1.131565)"
         id="linearGradient10633"
         xlink:href="#linearGradient10630"
         inkscape:collect="always" />
      <linearGradient
         y2="3.6783011"
         x2="-154.1456"
         y1="105.15539"
         x1="-164.59187"
         gradientTransform="scale(0.883732,1.131565)"
         gradientUnits="userSpaceOnUse"
         id="linearGradient10647"
         xlink:href="#linearGradient10630"
         inkscape:collect="always" />
      <radialGradient
         r="308.80975"
         fy="218.60974"
         fx="-446.72464"
         cy="218.60974"
         cx="-446.72464"
         gradientTransform="matrix(-0.663014,1.058409,1.330757,0.590372,-891.7907,666.4254)"
         gradientUnits="userSpaceOnUse"
         id="radialGradient5568"
         xlink:href="#linearGradient1780"
         inkscape:collect="always" />
      <linearGradient
         y2="3.6783011"
         x2="-154.1456"
         y1="105.15539"
         x1="-164.59187"
         gradientTransform="matrix(0.437171,-0.479724,0.614848,0.55753,723.0732,-61.92042)"
         gradientUnits="userSpaceOnUse"
         id="linearGradient4391"
         xlink:href="#linearGradient10630"
         inkscape:collect="always" />
    </defs>
    <linearGradient
       id="linearGradient4073">
      <stop
         id="stop4075"
         offset="0"
         style="stop-color:#544738;stop-opacity:1;" />
      <stop
         id="stop4077"
         offset="1"
         style="stop-color:#38332b;stop-opacity:1;" />
    </linearGradient>
    <linearGradient
       id="linearGradient5581">
      <stop
         id="stop5583"
         offset="0"
         style="stop-color:#b7b7b7;stop-opacity:1;" />
      <stop
         id="stop5585"
         offset="1"
         style="stop-color:#6a6a6a;stop-opacity:1;" />
    </linearGradient>
    <linearGradient
       inkscape:collect="always"
       xlink:href="#linearGradient3060"
       id="linearGradient4265"
       gradientUnits="userSpaceOnUse"
       gradientTransform="matrix(0.373615,0,0,0.373615,18.53219,0.607322)"
       x1="-9.4566822"
       y1="30.059858"
       x2="-6.5421896"
       y2="49.720852" />
    <linearGradient
       inkscape:collect="always"
       xlink:href="#linearGradient5581"
       id="linearGradient4267"
       gradientUnits="userSpaceOnUse"
       gradientTransform="matrix(0.298624,-0.415919,-3.029733e-2,0.772148,24.812,8.155141)"
       x1="21.065207"
       y1="4.3316655"
       x2="10.799754"
       y2="4.279263" />
    <linearGradient
       inkscape:collect="always"
       xlink:href="#linearGradient5581"
       id="linearGradient4269"
       gradientUnits="userSpaceOnUse"
       gradientTransform="matrix(0.42147,-1.60661e-2,-0.162564,1.05021,24.72082,1.754756)"
       x1="1.0525222"
       y1="5.1257071"
       x2="10.868521"
       y2="5.1257071" />
    <linearGradient
       inkscape:collect="always"
       xlink:href="#linearGradient4073"
       id="linearGradient4271"
       gradientUnits="userSpaceOnUse"
       gradientTransform="matrix(0.63865,-0.282706,0.420016,0.675701,-6.353139,18.16262)"
       x1="49.343979"
       y1="9.2876663"
       x2="52.652996"
       y2="14.64128" />
  </defs>
  <sodipodi:namedview
     id="base"
     pagecolor="#ffffff"
     bordercolor="#666666"
     borderopacity="1.0"
     inkscape:pageopacity="0.0"
     inkscape:pageshadow="2"
     inkscape:zoom="8.2000115"
     inkscape:cx="53.448206"
     inkscape:cy="13.595473"
     inkscape:document-units="px"
     inkscape:current-layer="layer1"
     inkscape:window-width="1430"
     inkscape:window-height="821"
     inkscape:window-x="0"
     inkscape:window-y="25" />
  <metadata
     id="metadata7">
    <rdf:RDF>
      <cc:Work
         rdf:about="">
        <dc:format>image/svg+xml</dc:format>
        <dc:type
           rdf:resource="http://purl.org/dc/dcmitype/StillImage" />
      </cc:Work>
    </rdf:RDF>
  </metadata>
  <g
     inkscape:label="Calque 1"
     inkscape:groupmode="layer"
     id="layer1">
    <g
       id="g4194"
       transform="matrix(1.309608,0,0,1.458417,0.713573,-0.406226)">
      <path
         id="path3221"
         d="M 30.71875,0.78125 C 30.7171,0.78334025 30.720318,0.80921135 30.71875,0.8125 C 30.717309,0.81713109 30.720069,0.83859937 30.71875,0.84375 C 30.64646,1.1838635 30.747719,2.4717775 30.1875,4.5 C 30.117474,4.7535277 30.057094,4.9267975 30,5.03125 C 29.992481,5.0440362 29.976089,5.0831762 29.96875,5.09375 C 29.961497,5.1032521 29.944588,5.1175721 29.9375,5.125 C 29.93049,5.1314254 29.913112,5.1517605 29.90625,5.15625 C 29.902854,5.158028 29.878362,5.1549272 29.875,5.15625 C 29.871731,5.1562764 29.84699,5.1566327 29.84375,5.15625 C 29.840563,5.1550837 29.815662,5.1577909 29.8125,5.15625 C 29.809383,5.1539946 29.784346,5.1275954 29.78125,5.125 C 29.778191,5.1217593 29.753042,5.0972962 29.75,5.09375 C 29.611417,4.9041183 29.486653,4.4017526 29.3125,4.1875 C 29.308666,4.1831014 29.285133,4.1603779 29.28125,4.15625 C 29.273384,4.1485584 29.258075,4.1314939 29.25,4.125 C 29.245908,4.1220698 29.222897,4.127602 29.21875,4.125 C 29.214546,4.1227377 29.191763,4.095661 29.1875,4.09375 C 29.183117,4.0925761 29.160695,4.0945381 29.15625,4.09375 C 29.151741,4.0933593 29.129573,4.0937319 29.125,4.09375 C 29.12036,4.0941885 29.098457,4.0928796 29.09375,4.09375 C 29.079213,4.0990565 29.046442,4.1153915 29.03125,4.125 C 29.026111,4.1287039 29.005216,4.1520336 29,4.15625 C 28.994706,4.1609905 28.974123,4.1822239 28.96875,4.1875 C 28.963296,4.1933232 28.943036,4.2123682 28.9375,4.21875 C 28.915025,4.246558 28.867609,4.3063586 28.84375,4.34375 C 28.795314,4.423555 28.742061,4.5329501 28.6875,4.65625 C 28.624125,4.7994676 28.554286,4.947219 28.5,5.09375 C 28.455436,4.8218308 28.368154,4.5556066 28.25,4.375 C 28.230645,4.3474303 28.209006,4.3058651 28.1875,4.28125 C 28.180511,4.2732511 28.16335,4.257114 28.15625,4.25 C 28.149095,4.2433229 28.132263,4.2245647 28.125,4.21875 C 28.121342,4.2160555 28.097434,4.2212336 28.09375,4.21875 C 28.086329,4.2142009 28.070022,4.1912241 28.0625,4.1875 C 28.058689,4.1860429 28.035085,4.1887574 28.03125,4.1875 C 28.027391,4.1864405 28.003883,4.1883636 28,4.1875 C 27.99607,4.1870227 27.972702,4.156537 27.96875,4.15625 C 27.956758,4.1565141 27.918436,4.1855903 27.90625,4.1875 C 27.893939,4.1904786 27.856241,4.1829601 27.84375,4.1875 C 27.45715,4.3577812 26.988988,5.2397739 26.5625,6.09375 C 26.519911,6.0794768 26.450778,6.0723368 26.40625,6.0625 C 26.334427,6.0481524 26.232208,6.0348089 26.15625,6.03125 C 25.888806,6.0233647 25.573609,6.0808687 25.28125,6.1875 C 25.329143,4.8733207 25.62088,4.0739273 25.625,3.8125 C 25.624518,3.7970122 25.59666,3.7607847 25.59375,3.75 C 25.592174,3.7513871 25.564203,3.7482153 25.5625,3.75 C 25.415488,3.9434206 24.907697,5.2387353 24.53125,6.5625 C 23.448689,7.2759348 22.550942,8.5845508 22.9375,9.71875 C 21.767171,10.464841 21.21875,11 21.21875,11 C 21.222642,11.002581 21.244618,10.996473 21.25,11 C 21.258074,11.005291 21.269931,11.02397 21.28125,11.03125 C 21.398367,11.16956 21.798243,11.660916 22.375,12.0625 L 21.21875,12.5625 C 20.529014,12.186706 19.63257,11.877965 18.5625,11.6875 C 13.841488,10.847194 10.514095,11.119247 8.875,12.6875 C 8.6437404,12.40795 8.3352035,12.094237 7.96875,11.84375 C 7.7765118,11.712347 7.5276072,11.587234 7.28125,11.53125 C 7.1503728,11.501508 7.0125075,11.486829 6.875,11.5 C 6.8425939,11.5038 6.782567,11.524525 6.75,11.53125 C 6.725553,11.536865 6.6807421,11.555119 6.65625,11.5625 C 6.6235828,11.57315 6.5639167,11.579746 6.53125,11.59375 C 6.5067585,11.604905 6.4610787,11.643642 6.4375,11.65625 C 6.3909428,11.682433 6.324291,11.718044 6.28125,11.75 C 5.9061041,12.040739 5.6592274,12.557489 5.5,13.28125 C 5.1626846,14.814504 4.7747964,15.597366 4.5625,15.78125 C 4.5591619,15.783914 4.5345003,15.778886 4.53125,15.78125 C 4.5182487,15.790706 4.5117612,15.805067 4.5,15.8125 C 4.4942876,15.815713 4.4743886,15.841039 4.46875,15.84375 C 4.4630906,15.84596 4.4432748,15.84204 4.4375,15.84375 C 4.4255308,15.846175 4.3883757,15.84331 4.375,15.84375 C 4.3319126,15.842105 4.2602594,15.831767 4.1875,15.8125 C 3.9934749,15.76112 3.711581,15.620221 3.34375,15.375 C 3.3367981,15.370265 3.3196025,15.348078 3.3125,15.34375 C 3.2980222,15.335902 3.2649382,15.318748 3.25,15.3125 L 2.9375,14.03125 L 2.9375,14 C 2.9358986,13.992671 2.908512,13.97575 2.90625,13.96875 C 2.9048085,13.965428 2.9078392,13.940728 2.90625,13.9375 C 2.9043801,13.934471 2.8770028,13.909175 2.875,13.90625 C 2.8659851,13.895426 2.854534,13.883912 2.84375,13.875 C 2.8322006,13.867125 2.7940921,13.849387 2.78125,13.84375 C 2.7745653,13.841531 2.7569086,13.814092 2.75,13.8125 C 2.7464972,13.811866 2.7222964,13.812969 2.71875,13.8125 C 2.7151313,13.812372 2.6911474,13.812453 2.6875,13.8125 C 2.6838101,13.812908 2.6599537,13.811907 2.65625,13.8125 C 2.6487811,13.814125 2.6321351,13.841431 2.625,13.84375 C 2.6216146,13.845235 2.5970385,13.84211 2.59375,13.84375 C 2.5906667,13.845684 2.565475,13.872927 2.5625,13.875 C 2.5572461,13.879919 2.5360016,13.900869 2.53125,13.90625 C 2.5291407,13.90915 2.5019703,13.934503 2.5,13.9375 C 2.4984696,13.940757 2.5013761,13.965417 2.5,13.96875 C 2.498944,13.972219 2.4696402,13.996471 2.46875,14 C 2.4682029,14.003634 2.4691199,14.027572 2.46875,14.03125 C 2.4687462,14.035001 2.468565,14.05872 2.46875,14.0625 C 2.4691276,14.066303 2.468176,14.089929 2.46875,14.09375 L 2.5,14.125 L 2.5625,14.65625 C 2.5570129,14.652911 2.5369167,14.627826 2.53125,14.625 C 2.5254349,14.622684 2.5059324,14.62681 2.5,14.625 C 2.4759254,14.619769 2.4304597,14.622327 2.40625,14.625 C 2.4002669,14.626154 2.3808827,14.623364 2.375,14.625 C 2.3692489,14.627114 2.3493384,14.622411 2.34375,14.625 C 2.3383553,14.628061 2.3176698,14.652721 2.3125,14.65625 C 2.3075862,14.660244 2.2858767,14.651795 2.28125,14.65625 C 2.26737,14.669616 2.2597866,14.702924 2.25,14.71875 C 2.2444036,14.729724 2.2224626,14.769616 2.21875,14.78125 C 2.2173715,14.787185 2.219646,14.806477 2.21875,14.8125 C 2.2183411,14.81858 2.2186673,14.837645 2.21875,14.84375 C 2.219908,14.85595 2.2155793,14.894257 2.21875,14.90625 L 0.875,13.9375 C 0.86875577,13.933699 0.85020574,13.909382 0.84375,13.90625 C 0.83050336,13.901306 0.79490332,13.908605 0.78125,13.90625 C 0.76752516,13.905164 0.73235424,13.904849 0.71875,13.90625 C 0.70533787,13.908869 0.66901426,13.901248 0.65625,13.90625 C 0.65009575,13.909334 0.63088244,13.933841 0.625,13.9375 C 0.61943331,13.941725 0.59895699,13.963968 0.59375,13.96875 C 0.58894664,13.974081 0.56685579,13.994129 0.5625,14 C 0.56080631,14.003131 0.53278343,14.028065 0.53125,14.03125 C 0.52639161,14.044355 0.53358491,14.080182 0.53125,14.09375 C 0.53016324,14.107416 0.52986762,14.142655 0.53125,14.15625 C 0.53645672,14.183102 0.54770658,14.226283 0.5625,14.25 C 0.5667862,14.255622 0.58888048,14.27598 0.59375,14.28125 L 1.59375,15.03125 L 1.125,14.875 C 1.1181743,14.873703 1.1005502,14.875663 1.09375,14.875 C 1.0802681,14.874904 1.0442917,14.872753 1.03125,14.875 C 1.0121697,14.880042 0.98577479,14.896542 0.96875,14.90625 C 0.9633711,14.909966 0.94254906,14.933324 0.9375,14.9375 C 0.91407303,14.960588 0.88679911,14.998576 0.875,15.03125 C 0.87154072,15.04447 0.84477071,15.080448 0.84375,15.09375 C 0.84406497,15.120216 0.86580725,15.16304 0.875,15.1875 C 0.89191287,15.222892 0.93482024,15.258242 0.96875,15.28125 L 1.6875,15.5625 L 0.40625,15.65625 C 0.38097256,15.664384 0.33278318,15.671853 0.3125,15.6875 C 0.30779633,15.691811 0.28556454,15.714069 0.28125,15.71875 C 0.26953974,15.73382 0.25761424,15.76361 0.25,15.78125 C 0.24592205,15.793468 0.25194956,15.830786 0.25,15.84375 C 0.24959031,15.850376 0.2498226,15.868258 0.25,15.875 C 0.25017742,15.881742 0.24924239,15.899655 0.25,15.90625 C 0.25131434,15.912672 0.24815238,15.931279 0.25,15.9375 C 0.25707234,15.955479 0.2700114,15.984559 0.28125,16 C 0.28541221,16.004811 0.30794523,16.026802 0.3125,16.03125 C 0.31742387,16.035307 0.33848048,16.05886 0.34375,16.0625 C 0.36611686,16.07528 0.41091617,16.089168 0.4375,16.09375 L 2.15625,16.03125 L 1.875,16.25 L 1.84375,16.25 C 1.8373949,16.254512 1.8182572,16.276217 1.8125,16.28125 C 1.8099262,16.284 1.7836692,16.309643 1.78125,16.3125 C 1.7793035,16.315639 1.783036,16.34053 1.78125,16.34375 C 1.7780018,16.350338 1.7525915,16.368155 1.75,16.375 C 1.7490384,16.378524 1.7507923,16.402685 1.75,16.40625 C 1.7495507,16.409878 1.7502757,16.433851 1.75,16.4375 C 1.7500761,16.441172 1.7497458,16.465077 1.75,16.46875 C 1.7506148,16.472406 1.7492027,16.496362 1.75,16.5 C 1.7509812,16.503613 1.7488333,16.527668 1.75,16.53125 C 1.7515419,16.534749 1.7795183,16.559053 1.78125,16.5625 C 1.7857618,16.568855 1.8074673,16.587993 1.8125,16.59375 C 1.8151367,16.596477 1.8097496,16.622426 1.8125,16.625 C 1.8153575,16.627419 1.840792,16.622737 1.84375,16.625 C 1.8468892,16.626947 1.8717801,16.654464 1.875,16.65625 C 1.8784224,16.657546 1.9027733,16.655121 1.90625,16.65625 C 1.9098154,16.657042 1.9339001,16.655628 1.9375,16.65625 C 1.9411278,16.656699 1.9651009,16.687224 1.96875,16.6875 C 1.9724218,16.687424 1.9963267,16.687754 2,16.6875 C 2.0073363,16.686632 2.0239739,16.657845 2.03125,16.65625 C 2.0348316,16.655083 2.0589566,16.657604 2.0625,16.65625 C 2.0693947,16.652787 2.0871003,16.629232 2.09375,16.625 L 2.8125,16.1875 C 3.2063605,16.448497 3.5628475,16.650789 3.9375,16.75 C 4.3213806,16.851654 4.7860161,16.809033 5.125,16.5625 C 5.8029678,16.069433 6.076907,15.139059 6.4375,13.5 C 6.5388254,13.039431 6.6785341,12.762673 6.78125,12.625 C 6.7912618,12.612404 6.803084,12.57288 6.8125,12.5625 C 6.82612,12.548498 6.8631207,12.54093 6.875,12.53125 C 6.8824819,12.525673 6.8997196,12.503951 6.90625,12.5 C 6.9199433,12.493764 6.9518237,12.471727 6.96875,12.46875 C 6.97241,12.468455 6.9961992,12.468886 7,12.46875 C 7.0039439,12.468778 7.0271607,12.468552 7.03125,12.46875 C 7.1189902,12.479865 7.2488598,12.548667 7.40625,12.65625 C 7.7210303,12.871416 8.045438,13.238808 8.25,13.5 C 7.8007887,14.289558 7.6191629,15.307894 7.75,16.53125 C 7.4702777,17.656938 9.1038443,19.382956 9.09375,19.375 L 7.875,22.84375 L 7.9375,22.84375 L 7.875,24.9375 L 9.15625,25.03125 L 9.75,24.1875 L 9.8125,24.1875 L 10.28125,25.09375 L 11.65625,25.15625 L 11.75,24.3125 L 13.03125,24.375 L 13.25,22.28125 L 13.3125,22.28125 L 12.65625,19.4375 C 13.787887,19.72672 15.042746,19.896706 16.34375,19.84375 C 16.880971,19.821631 17.395626,19.766364 17.875,19.6875 C 18.052618,19.867215 18.190365,19.970594 18.1875,19.96875 L 17.3125,23.53125 L 17.375,23.53125 L 17.5,25.625 L 18.78125,25.59375 L 19.21875,24.875 L 19.46875,24.875 L 19.90625,25.5625 L 21.3125,25.5 L 21.3125,24.8125 L 22.625,24.75 L 22.65625,22.65625 L 22.75,22.65625 L 21.59375,19.15625 C 21.59375,19.15625 23.416779,17.350921 23.0625,16.21875 C 23.19654,15.792004 23.230581,15.362362 23.15625,14.9375 L 24.9375,13.15625 C 26.15532,14.297526 28.24668,15.235218 31.9375,16.1875 C 31.940413,16.191772 31.934514,16.21477 31.9375,16.21875 C 31.946944,16.221186 31.959285,16.216314 31.96875,16.21875 C 31.971807,16.22244 31.965622,16.246596 31.96875,16.25 C 31.975281,16.255678 31.9932,16.276679 32,16.28125 C 32.003466,16.283263 32.027719,16.279507 32.03125,16.28125 C 32.034908,16.282461 32.058779,16.280301 32.0625,16.28125 C 32.066282,16.281941 32.089908,16.312065 32.09375,16.3125 C 32.097711,16.312431 32.120982,16.312817 32.125,16.3125 C 32.13315,16.311376 32.147878,16.283337 32.15625,16.28125 C 32.16049,16.27997 32.183207,16.282764 32.1875,16.28125 C 32.904215,15.959553 34.303254,12.62775 34.40625,12.28125 L 34.46875,12.25 L 30.375,9.96875 C 30.391675,9.9630703 30.421181,9.9442958 30.4375,9.9375 C 30.873116,9.7392699 31.191527,9.1408316 31.15625,8.46875 C 31.141226,8.1824936 31.05199,7.9031634 30.9375,7.6875 C 30.911845,7.6414972 30.873018,7.5725831 30.84375,7.53125 C 30.735941,7.3860049 30.580381,7.2578252 30.4375,7.1875 C 30.365333,7.1547225 30.265027,7.134871 30.1875,7.125 C 30.144171,7.121019 30.075653,7.08995 30.03125,7.09375 C 29.942443,7.1013498 29.861919,7.1507909 29.78125,7.1875 C 29.637758,7.2584181 29.479961,7.3855478 29.375,7.53125 C 29.363623,7.5478244 29.354541,7.5764291 29.34375,7.59375 C 29.297882,7.4333377 29.223019,7.2924892 29.15625,7.15625 C 30.373147,6.8644337 30.637007,5.8077808 30.875,4.3125 C 31.081587,3.0145094 30.865801,1.0731446 30.75,0.8125 C 30.748019,0.80897499 30.751925,0.7837022 30.75,0.78125 C 30.748202,0.78101879 30.720476,0.78033304 30.71875,0.78125 z "
         style="fill:none;fill-opacity:1;fill-rule:evenodd;stroke:#000000;stroke-width:1.01884174;stroke-linecap:round;stroke-linejoin:round;stroke-miterlimit:4;stroke-dasharray:none;stroke-opacity:1" />
      <g
         id="g3202">
        <path
           style="fill:#2f2719;fill-opacity:1;fill-rule:evenodd;stroke:none;stroke-width:1.21121144;stroke-linecap:round;stroke-linejoin:round;stroke-miterlimit:4;stroke-dasharray:none;stroke-opacity:1"
           d="M 2.665228,13.823953 C 2.5432386,13.844153 2.4600524,13.958534 2.4784205,14.080813 L 2.4784205,14.104164 L 2.4900959,14.13919 L 2.5601488,14.641235 C 2.4723552,14.587815 2.3595874,14.600264 2.2855608,14.671549 C 2.2115342,14.742834 2.19484,14.855052 2.2449111,14.944798 L 0.86720578,13.929032 C 0.76729814,13.868213 0.63750429,13.893555 0.56781164,13.987489 C 0.49811937,14.081422 0.51149703,14.212988 0.59867,14.290971 L 1.5910848,15.038201 L 1.1240661,14.874745 C 1.0148543,14.85399 0.90674097,14.915637 0.86898382,15.020195 C 0.83122666,15.124753 0.87500948,15.241252 0.972285,15.295062 L 1.6844886,15.563597 L 0.4118625,15.645326 C 0.30663832,15.669218 0.23292184,15.764082 0.23576019,15.871948 C 0.23859892,15.979813 0.31720266,16.070668 0.42353797,16.088994 L 0.43521344,16.088994 L 0.44688891,16.088994 L 2.1515073,16.042292 L 1.8596206,16.25245 L 1.8479452,16.25245 C 1.7415501,16.320156 1.7101866,16.461293 1.7778923,16.567688 C 1.8455981,16.674083 1.9867349,16.705446 2.09313,16.637741 L 2.1048055,16.626065 L 3.0621939,16.030616 C 3.0699722,16.031018 3.0777666,16.031018 3.0855448,16.030616 C 3.1014829,16.028396 3.1171388,16.024482 3.1322467,16.018941 C 3.2444597,15.993609 3.31981,15.888119 3.3073788,15.773756 C 3.3077808,15.765978 3.3077808,15.758183 3.3073788,15.750405 C 3.3138744,15.719609 3.3138744,15.687797 3.3073788,15.657001 L 2.9220883,14.022436 L 2.9220883,13.999085 C 2.8964658,13.881823 2.783745,13.804968 2.665228,13.823953 L 2.665228,13.823953 z "
           id="path3077" />
        <path
           style="color:#000000;fill:#544738;fill-opacity:1;fill-rule:evenodd;stroke:none;stroke-width:2.5999999;stroke-linecap:round;stroke-linejoin:round;marker:none;marker-start:none;marker-mid:none;marker-end:none;stroke-miterlimit:4;stroke-dasharray:none;stroke-dashoffset:0;stroke-opacity:1;visibility:visible;display:inline;overflow:visible"
           d="M 7.2887136,11.535561 C 7.0423563,11.479576 6.7793758,11.486631 6.5181327,11.605614 C 5.9956466,11.843578 5.682966,12.412906 5.4906914,13.286881 C 5.1424946,14.869595 4.7529983,15.634144 4.5449784,15.785431 C 4.4409685,15.861075 4.3887394,15.871837 4.1947144,15.820458 C 4.0006894,15.769078 3.7102362,15.610335 3.3424052,15.365114 C 3.1199428,15.213582 2.8167602,15.271082 2.665228,15.493545 C 2.5136957,15.716007 2.5711958,16.01919 2.7936581,16.170722 C 3.1990524,16.440985 3.5656491,16.65284 3.9495295,16.754495 C 4.33341,16.85615 4.7780925,16.814221 5.1170764,16.567688 C 5.7950442,16.074621 6.0758114,15.124423 6.4364044,13.485364 C 6.5985249,12.748453 6.8274616,12.532863 6.9150986,12.492949 C 7.0027356,12.453035 7.1536439,12.472597 7.4054683,12.64473 C 7.909117,12.988996 8.4562605,13.777251 8.4562605,13.777251 C 8.6013445,14.002937 8.9019137,14.068278 9.1275999,13.923194 C 9.3532862,13.77811 9.4186273,13.477541 9.2735433,13.251855 C 9.2735433,13.251855 8.7231669,12.364735 7.9542153,11.839123 C 7.7619773,11.70772 7.5350708,11.591545 7.2887136,11.535561 z "
           id="path3058" />
        <g
           id="g3034"
           transform="matrix(0.295661,2.836053e-2,-2.836053e-2,0.295661,11.9363,4.833263)">
          <path
             style="fill:#494949;fill-opacity:1;fill-rule:evenodd;stroke:none;stroke-width:1.27283633px;stroke-linecap:butt;stroke-linejoin:miter;stroke-opacity:1"
             d="M 9.9841703,57.931815 L -3.3071012,58.507024 L -2.8789633,65.595252 L 1.4128676,65.441184 L 3.2550736,62.296828 L 5.222624,65.360644 L 9.8984879,65.129385 L 9.9841703,57.931815 z "
             id="path3036"
             sodipodi:nodetypes="cccccccc" />
          <path
             style="opacity:1;color:#000000;fill:#322b21;fill-opacity:1;fill-rule:evenodd;stroke:none;stroke-width:1px;stroke-linecap:round;stroke-linejoin:round;marker:none;marker-start:none;marker-mid:none;marker-end:none;stroke-miterlimit:4;stroke-dasharray:none;stroke-dashoffset:0;stroke-opacity:1;visibility:visible;display:inline;overflow:visible"
             d="M -0.61182911,46.514759 C -0.55571301,46.550876 -14.724983,34.176048 2.7338692,33.417105 C 20.006122,32.664863 6.3490175,46.302179 6.3490175,46.302179 L 10.261341,58.05779 L -3.5228082,58.52882 L -0.61182911,46.514759 z "
             id="path3038"
             sodipodi:nodetypes="czcccc" />
        </g>
        <g
           id="g3030"
           transform="matrix(0.297018,0,0,0.297018,19.69649,5.412837)">
          <path
             style="opacity:1;color:#000000;fill:#494949;fill-opacity:1;fill-rule:evenodd;stroke:none;stroke-width:1.2728368px;stroke-linecap:butt;stroke-linejoin:miter;marker:none;marker-start:none;marker-mid:none;marker-end:none;stroke-miterlimit:4;stroke-dasharray:none;stroke-dashoffset:0;stroke-opacity:1;visibility:visible;display:inline;overflow:visible"
             d="M 9.9841703,57.931815 L -3.3071012,58.507024 L -2.8789633,65.595252 L 1.4128676,65.441184 L 3.2550736,62.296828 L 5.222624,65.360644 L 9.8984879,65.129385 L 9.9841703,57.931815 z "
             id="path3014"
             sodipodi:nodetypes="cccccccc" />
          <path
             style="opacity:1;color:#000000;fill:#322b21;fill-opacity:1;fill-rule:evenodd;stroke:none;stroke-width:1.00000036px;stroke-linecap:round;stroke-linejoin:round;marker:none;marker-start:none;marker-mid:none;marker-end:none;stroke-miterlimit:4;stroke-dasharray:none;stroke-dashoffset:0;stroke-opacity:1;visibility:visible;display:inline;overflow:visible"
             d="M -0.61182911,46.514759 C -0.55571301,46.550876 -14.724983,34.176048 2.7338692,33.417105 C 20.006122,32.664863 6.3490175,46.302179 6.3490175,46.302179 L 10.261341,58.05779 L -3.5228082,58.52882 L -0.61182911,46.514759 z "
             id="path3016"
             sodipodi:nodetypes="czcccc" />
        </g>
        <path
           style="color:#000000;fill:url(#linearGradient4265);fill-opacity:1;fill-rule:evenodd;stroke:none;stroke-width:1px;stroke-linecap:round;stroke-linejoin:round;marker:none;marker-start:none;marker-mid:none;marker-end:none;stroke-miterlimit:4;stroke-dasharray:none;stroke-dashoffset:0;stroke-opacity:1;visibility:visible;display:inline;overflow:visible"
           d="M 25.817683,10.648225 L 21.205872,12.551327 C 20.516136,12.175533 19.637286,11.877807 18.567216,11.687342 C 11.197833,10.375644 7.2220865,11.802286 7.7674078,16.579363 C 7.880986,17.574324 11.848107,20.031693 16.348877,19.848494 C 21.026724,19.655896 23.555692,17.164487 23.167351,14.944798 L 25.187207,12.87824 L 25.817683,10.648225 z "
           id="path2208" />
        <g
           id="g3026"
           transform="matrix(0.297018,0,0,0.297018,19.85017,3.588686)">
          <path
             style="fill:#767676;fill-opacity:1;fill-rule:evenodd;stroke:none;stroke-width:1.27283633px;stroke-linecap:butt;stroke-linejoin:miter;stroke-opacity:1"
             d="M 4.9826902,66.555056 L -8.3085813,67.130265 L -7.8804434,74.218493 L -3.5886125,74.064425 L -1.7464065,70.920069 L 0.22114394,73.983885 L 4.8970078,73.752626 L 4.9826902,66.555056 z "
             id="path3010"
             sodipodi:nodetypes="cccccccc" />
          <path
             style="opacity:1;color:#000000;fill:#443a2d;fill-opacity:1;fill-rule:evenodd;stroke:none;stroke-width:1.00000036px;stroke-linecap:round;stroke-linejoin:round;marker:none;marker-start:none;marker-mid:none;marker-end:none;stroke-miterlimit:4;stroke-dasharray:none;stroke-dashoffset:0;stroke-opacity:1;visibility:visible;display:inline;overflow:visible"
             d="M -5.6133092,55.138 C -5.5571931,55.174117 -19.726464,42.799289 -2.2676109,42.040346 C 15.004641,41.288104 1.3475374,54.92542 1.3475374,54.92542 L 5.2598605,66.681031 L -8.5242883,67.152061 L -5.6133092,55.138 z "
             id="path3012"
             sodipodi:nodetypes="czcccc" />
        </g>
        <g
           id="g3040"
           transform="matrix(0.295661,2.836053e-2,-2.836053e-2,0.295661,12.30619,3.221307)">
          <path
             style="fill:#767676;fill-opacity:1;fill-rule:evenodd;stroke:none;stroke-width:1.27283633px;stroke-linecap:butt;stroke-linejoin:miter;stroke-opacity:1"
             d="M 4.9826902,66.555056 L -8.3085813,67.130265 L -7.8804434,74.218493 L -3.5886125,74.064425 L -1.7464065,70.920069 L 0.22114394,73.983885 L 4.8970078,73.752626 L 4.9826902,66.555056 z "
             id="path3042"
             sodipodi:nodetypes="cccccccc" />
          <path
             style="opacity:1;color:#000000;fill:#443a2d;fill-opacity:1;fill-rule:evenodd;stroke:none;stroke-width:1px;stroke-linecap:round;stroke-linejoin:round;marker:none;marker-start:none;marker-mid:none;marker-end:none;stroke-miterlimit:4;stroke-dasharray:none;stroke-dashoffset:0;stroke-opacity:1;visibility:visible;display:inline;overflow:visible"
             d="M -5.6133092,55.138 C -5.5571931,55.174117 -19.726464,42.799289 -2.2676109,42.040346 C 15.004641,41.288104 1.3475374,54.92542 1.3475374,54.92542 L 5.2598605,66.681031 L -8.5242883,67.152061 L -5.6133092,55.138 z "
             id="path3044"
             sodipodi:nodetypes="czcccc" />
        </g>
      </g>
      <g
         transform="matrix(-0.221304,0,0,0.222191,149.4916,-43.40711)"
         id="g29199"
         inkscape:label="Layer 1" />
      <g
         transform="matrix(-0.221304,0,0,0.222191,469.5662,49.03284)"
         inkscape:label="Layer 1"
         id="g29315" />
      <g
         transform="matrix(-0.221304,0,0,0.222191,654.083,40.01289)"
         id="g29317"
         inkscape:label="Layer 1" />
      <g
         transform="matrix(-0.221304,0,0,0.222191,151.4102,-41.11829)"
         id="g2244"
         inkscape:label="Layer 1" />
      <g
         transform="matrix(-0.221304,0,0,0.222191,471.4847,51.32166)"
         inkscape:label="Layer 1"
         id="g2246" />
      <g
         transform="matrix(-0.221304,0,0,0.222191,656.0014,42.30172)"
         id="g2248"
         inkscape:label="Layer 1" />
      <g
         transform="matrix(-1.218677,0,0,1.223562,773.4721,-99.75125)"
         id="g2001"
         inkscape:label="Layer 1" />
      <g
         transform="matrix(-1.218677,0,0,1.223562,2536.063,409.2985)"
         inkscape:label="Layer 1"
         id="g2003" />
      <g
         transform="matrix(-1.218677,0,0,1.223562,3552.162,359.6272)"
         id="g2005"
         inkscape:label="Layer 1" />
      <path
         sodipodi:nodetypes="ccccs"
         id="path2091"
         d="M 27.448207,7.5807772 C 27.518923,8.6006005 30.773773,10.296223 32.257898,13.621066 L 32.048488,16.228371 C 25.70673,14.60722 24.041101,12.995371 23.408765,10.449122 C 21.003935,7.9930603 27.180819,3.7246873 27.448207,7.5807772 z "
         style="fill:#544738;fill-opacity:1;fill-rule:evenodd;stroke:none;stroke-width:1px;stroke-linecap:round;stroke-linejoin:round;stroke-opacity:1" />
      <path
         sodipodi:nodetypes="cczszssc"
         id="path2139"
         d="M 28.409077,8.7971739 C 28.409077,8.7971739 27.831812,9.1407017 27.831812,9.1407017 C 27.831812,9.1407017 27.784906,6.6840347 28.680391,4.6603883 C 29.553362,2.6875898 29.599291,6.6596507 30.196849,4.496214 C 30.794417,2.3327766 30.611448,1.0309577 30.720921,0.80137706 C 30.82128,0.59090317 31.094298,2.8604854 30.862341,4.3178784 C 30.592756,6.0116477 30.309779,7.1303634 28.62098,7.2276487 C 28.588708,7.2295078 28.409077,8.7971739 28.409077,8.7971739 z "
         style="fill:url(#linearGradient4267);fill-opacity:1;fill-rule:evenodd;stroke:none;stroke-width:0.8101846px;stroke-linecap:butt;stroke-linejoin:miter;stroke-opacity:1;display:inline" />
      <g
         transform="matrix(0.263382,0,3.263748e-2,0.263382,-6.266995,-18.30252)"
         id="g1727">
        <path
           style="fill:#bdbb81;fill-opacity:1;fill-rule:nonzero;stroke:#000000;stroke-width:0.21605717;stroke-linecap:round;stroke-linejoin:round;stroke-miterlimit:4;stroke-dasharray:none;stroke-opacity:1;display:inline"
           id="path2254"
           d="M 129.63365,125.23888 C 130.67509,123.86825 130.37587,125.07619 131.44705,125.19799 C 132.22285,125.40892 134.14206,124.77672 133.68067,126.48898 C 132.3964,129.17839 130.42077,131.93744 128.90385,134.6751 C 128.53215,135.35625 128.71373,135.02124 128.35884,135.68015 L 127.67315,136.46684 C 128.03588,135.79788 127.85039,136.13792 128.22983,135.44671 C 129.74188,132.72992 131.67667,129.99752 132.97889,127.32283 C 133.46386,125.63546 131.53928,126.24901 130.79953,126.03585 C 130.07584,125.96584 128.72181,126.12019 130.34004,124.26778 L 129.63365,125.23888 z " />
        <path
           style="fill:#bdbb81;fill-opacity:1;fill-rule:nonzero;stroke:#000000;stroke-width:0.21605717;stroke-linecap:round;stroke-linejoin:round;stroke-miterlimit:4;stroke-dasharray:none;stroke-opacity:1;display:inline"
           id="path2258"
           d="M 130.48331,125.01443 C 131.70074,123.34801 130.66539,125.32635 130.77396,126.1127 C 131.09946,127.38056 132.02044,128.06771 131.33072,130.25036 C 130.57839,132.21729 129.41604,134.31711 128.55135,136.32633 C 128.50689,136.43239 128.46242,136.53846 128.41795,136.64453 L 127.70752,137.47359 C 127.75303,137.36588 127.79855,137.25819 127.84408,137.1505 C 128.71601,135.13607 129.8808,133.03446 130.64651,131.05949 C 131.34306,128.88818 130.46582,128.15592 130.09438,126.94954 C 129.94284,126.12034 130.05553,125.32468 131.18971,124.04333 L 130.48331,125.01443 z " />
        <path
           style="fill:#bdbb81;fill-opacity:1;fill-rule:nonzero;stroke:#000000;stroke-width:0.21605717;stroke-linecap:round;stroke-linejoin:round;stroke-miterlimit:4;stroke-dasharray:none;stroke-opacity:1;display:inline"
           id="path2260"
           d="M 132.40932,121.81493 C 132.45999,122.16852 132.69402,122.3408 132.85232,122.57778 C 133.30227,123.40252 131.87004,125.5102 131.02933,127.06137 C 129.61251,129.49879 130.25317,130.39813 130.96357,131.14647 L 130.32424,131.95329 C 129.6249,131.19031 128.89472,130.33252 130.32874,127.86495 C 131.1436,126.3615 132.57471,124.26978 132.14749,123.4613 C 131.98361,123.21716 131.7518,123.04506 131.64956,122.73234 L 132.40932,121.81493 z " />
        <path
           style="fill:#bdbb81;fill-opacity:1;fill-rule:nonzero;stroke:#000000;stroke-width:0.21605717;stroke-linecap:round;stroke-linejoin:round;stroke-miterlimit:4;stroke-dasharray:none;stroke-opacity:1;display:inline"
           id="path2262"
           d="M 132.63869,120.47948 C 132.30235,121.51724 132.0624,122.48803 132.0635,123.28992 C 132.23472,124.81899 133.33795,125.2941 133.97873,126.28774 C 134.3798,126.81841 134.24087,127.78303 133.88451,128.96617 L 133.17618,129.80515 C 133.53829,128.63286 133.68701,127.67149 133.30289,127.13489 C 132.68311,126.10803 131.60357,125.60101 131.3937,124.10735 C 131.37191,123.33987 131.57854,122.39818 131.87957,121.39611 L 132.63869,120.47948 z " />
        <path
           style="fill:#bdbb81;fill-opacity:1;fill-rule:nonzero;stroke:#000000;stroke-width:0.17678332;stroke-linecap:round;stroke-linejoin:round;stroke-miterlimit:4;stroke-dasharray:none;stroke-opacity:1;display:inline"
           id="path2264"
           d="M 134.54538,123.75237 C 134.44987,123.79701 134.37479,123.90367 134.28834,123.98703 C 135.17818,122.89689 134.62879,123.71394 134.58401,124.21558 C 134.594,125.12632 135.05149,125.63188 135.16928,126.44651 C 135.23509,127.39937 134.19588,129.04063 133.378,130.35958 C 133.09053,130.8184 132.78979,131.2768 132.48978,131.73507 L 131.86676,132.37413 C 132.17142,131.91143 132.47661,131.44864 132.77071,130.98533 C 133.58707,129.68367 134.62506,128.05799 134.57378,127.10684 C 134.46418,126.28245 134.02094,125.76172 133.98607,124.86999 C 134.01263,124.28367 134.32364,123.61563 135.14613,123.00511 L 134.54538,123.75237 z " />
        <path
           style="fill:#bdbb81;fill-opacity:1;fill-rule:nonzero;stroke:#000000;stroke-width:0.21605717;stroke-linecap:round;stroke-linejoin:round;stroke-miterlimit:4;stroke-dasharray:none;stroke-opacity:1;display:inline"
           id="path2266"
           d="M 130.46311,124.70365 C 130.27683,125.54257 130.17902,126.31382 130.20864,126.98151 C 130.2707,128.2498 130.95275,128.78736 131.73328,129.19443 C 132.40111,129.44629 132.75012,130.0296 132.67181,131.1195 C 132.58221,131.91971 132.28393,132.88844 132.38946,133.52439 C 132.43152,133.6769 132.54947,133.72963 132.66576,133.78616 L 131.95395,134.69743 C 131.83503,134.63343 131.71414,134.57309 131.66941,134.41392 C 131.55977,133.77254 131.85725,132.79974 131.96028,131.98017 C 132.05042,130.89283 131.70554,130.32145 131.05779,130.05616 C 130.28173,129.62902 129.59107,129.09565 129.52351,127.81971 C 129.48552,127.16669 129.56673,126.41726 129.70334,125.62105 L 130.46311,124.70365 z " />
        <path
           style="fill:#bdbb81;fill-opacity:1;fill-rule:nonzero;stroke:#000000;stroke-width:0.21605717;stroke-linecap:round;stroke-linejoin:round;stroke-miterlimit:4;stroke-dasharray:none;stroke-opacity:1;display:inline"
           id="path2268"
           d="M 130.69263,120.64343 C 130.16092,121.81406 129.82494,122.90502 129.74937,123.81823 C 129.76322,125.57077 131.17246,125.73922 132.06547,126.44721 C 132.73059,126.85622 132.44829,128.09557 132.02664,129.48248 C 131.84923,130.04218 131.62012,130.62712 131.37373,131.21815 L 130.62876,132.08655 C 130.88207,131.49161 131.11797,130.90262 131.30396,130.33707 C 131.73925,128.95693 132.03602,127.72239 131.39686,127.29476 C 130.51958,126.55404 129.12659,126.35443 129.08083,124.62864 C 129.13651,123.76821 129.42617,122.66716 129.93287,121.56082 L 130.69263,120.64343 z " />
        <path
           style="fill:#bdbb81;fill-opacity:1;fill-rule:nonzero;stroke:#000000;stroke-width:0.21605717;stroke-linecap:round;stroke-linejoin:round;stroke-miterlimit:4;stroke-dasharray:none;stroke-opacity:1;display:inline"
           id="path2270"
           d="M 134.09437,120.59462 C 135.45503,118.73537 134.3675,120.64183 134.14319,121.46711 C 133.85452,123.06358 134.2264,124.09302 134.39543,125.27892 C 134.61803,126.40038 134.08961,128.0698 133.43617,129.80683 C 133.06004,130.80361 132.62916,131.82297 132.18782,132.84538 L 131.46137,133.69161 C 131.91233,132.65949 132.35625,131.62898 132.74172,130.62185 C 133.39867,128.89559 133.9176,127.24527 133.70863,126.12368 C 133.5454,124.92319 133.20114,123.86993 133.43853,122.30647 C 133.67781,121.31023 133.88709,120.65888 134.80077,119.62352 L 134.09437,120.59462 z " />
        <path
           style="fill:#bdbb81;fill-opacity:1;fill-rule:nonzero;stroke:#000000;stroke-width:0.17678332;stroke-linecap:round;stroke-linejoin:round;stroke-miterlimit:4;stroke-dasharray:none;stroke-opacity:1;display:inline"
           id="path2272"
           d="M 135.27827,122.68541 C 135.18955,123.13637 135.18628,123.52069 135.21956,123.88045 C 135.3602,124.90793 135.71548,125.74119 135.87043,126.75615 C 135.95233,127.68795 135.00997,129.21809 134.29689,130.52113 C 133.7784,131.5072 133.1548,132.51228 132.65763,133.49327 C 132.25893,134.26335 132.30244,134.65745 132.68702,134.79687 L 132.08702,135.49267 C 131.6964,135.34286 131.628,134.94225 132.03381,134.14694 C 132.52992,133.15793 133.16601,132.14341 133.69541,131.14702 C 134.40476,129.86086 135.33774,128.34535 135.28019,127.41073 C 135.14561,126.37693 134.80837,125.5259 134.64017,124.52225 C 134.58945,124.18139 134.56889,123.82047 134.62984,123.39211 L 135.27827,122.68541 z " />
        <path
           style="fill:#bdbb81;fill-opacity:1;fill-rule:nonzero;stroke:#000000;stroke-width:0.21605717;stroke-linecap:round;stroke-linejoin:round;stroke-miterlimit:4;stroke-dasharray:none;stroke-opacity:1;display:inline"
           id="path2274"
           d="M 131.63891,123.58362 C 131.76224,124.35163 132.13074,124.86892 132.33296,125.55886 C 132.77226,126.78685 132.3852,128.70565 131.88561,130.70853 C 131.60936,131.87353 131.13547,133.19028 131.14662,134.14529 C 131.16053,134.40397 131.25332,134.57425 131.36355,134.72678 L 130.64948,135.62645 C 130.53756,135.46676 130.44514,135.28766 130.43148,135.02018 C 130.41717,134.05371 130.89802,132.72242 131.19768,131.52816 C 131.71599,129.52111 132.11199,127.59969 131.66765,126.38371 C 131.45613,125.69703 131.09053,125.18463 130.88106,124.49872 L 131.63891,123.58362 z " />
        <path
           style="fill:#bdbb81;fill-opacity:1;fill-rule:nonzero;stroke:#000000;stroke-width:0.21605717;stroke-linecap:round;stroke-linejoin:round;stroke-miterlimit:4;stroke-dasharray:none;stroke-opacity:1;display:inline"
           id="path2276"
           d="M 134.16142,121.72666 C 133.58779,123.05309 133.13783,124.36197 132.65132,125.66092 C 131.92592,127.58168 131.3209,129.44597 130.79853,131.26023 C 130.28769,132.86037 130.71138,133.58525 131.36585,134.03264 C 131.62032,134.21161 131.95534,134.27114 132.30481,134.30491 L 131.62288,135.18706 C 131.27629,135.14363 130.94175,135.07796 130.68625,134.89645 C 130.03084,134.44037 129.58432,133.70592 130.09489,132.09534 C 130.62224,130.26939 131.25569,128.38061 131.97609,126.45391 C 132.45509,125.16676 132.92052,123.88562 133.38311,122.60728 L 134.16142,121.72666 z " />
        <path
           style="fill:#bdbb81;fill-opacity:1;fill-rule:nonzero;stroke:#000000;stroke-width:0.21605717;stroke-linecap:round;stroke-linejoin:round;stroke-miterlimit:4;stroke-dasharray:none;stroke-opacity:1;display:inline"
           id="path2278"
           d="M 135.17367,119.64313 C 135.298,120.10177 135.12428,120.83935 135.00896,121.50099 C 134.59656,123.82341 134.76277,125.68021 134.753,127.66932 C 134.66353,129.0313 134.79087,130.1781 135.09162,131.16606 C 135.33168,131.7038 134.94876,132.64065 134.48642,133.65581 L 133.74868,134.5109 C 134.21403,133.51228 134.61142,132.57855 134.39109,132.03435 C 134.10919,131.01894 133.98175,129.86277 134.08978,128.47724 C 134.12159,126.4672 133.98732,124.58642 134.32777,122.3201 C 134.42474,121.69309 134.57372,120.99272 134.42854,120.57783 L 135.17367,119.64313 z " />
        <path
           style="fill:#bdbb81;fill-opacity:1;fill-rule:nonzero;stroke:#000000;stroke-width:0.21605717;stroke-linecap:round;stroke-linejoin:round;stroke-miterlimit:4;stroke-dasharray:none;stroke-opacity:1;display:inline"
           id="path2280"
           d="M 131.44711,122.67842 C 132.7534,120.96453 131.74576,123.29917 131.86302,124.46072 C 132.07857,126.10241 132.74195,127.27107 133.19303,128.66384 C 133.47761,129.38159 133.39285,130.4412 133.13952,131.62812 C 132.97709,132.31108 132.68701,133.07867 132.65797,133.66716 C 132.8293,134.29044 132.25871,135.03274 131.53657,135.97985 C 131.33856,136.23086 131.14882,136.48832 130.95886,136.74593 L 130.20701,137.58599 C 130.40089,137.32087 130.59438,137.05597 130.79858,136.79923 C 131.49087,135.89611 132.09869,135.16006 131.92895,134.55585 C 131.94487,133.9694 132.23468,133.19543 132.41628,132.49208 C 132.68465,131.29994 132.78343,130.23568 132.51405,129.50601 C 132.08839,128.08103 131.46221,126.86793 131.2238,125.24583 C 131.09894,124.26894 130.79921,123.2106 132.20624,121.76179 L 131.44711,122.67842 z " />
        <path
           style="fill:#bdbb81;fill-opacity:1;fill-rule:nonzero;stroke:#000000;stroke-width:0.21605717;stroke-linecap:round;stroke-linejoin:round;stroke-miterlimit:4;stroke-dasharray:none;stroke-opacity:1;display:inline"
           id="path2282"
           d="M 130.39773,124.38651 C 130.3926,124.93092 130.4567,125.41531 130.46784,125.94676 C 130.44467,127.27848 129.96932,128.95492 129.53996,130.57737 C 128.87527,132.61334 129.97654,132.44369 131.21419,132.18309 C 132.10752,131.98931 133.13099,131.6445 133.41204,132.39931 C 133.51554,132.7409 133.39285,133.19786 133.11343,133.79572 C 132.90293,134.2358 132.6277,134.68018 132.35038,135.12064 L 131.58944,135.9815 C 131.86676,135.54562 132.14439,135.10536 132.35917,134.66799 C 132.6378,134.08713 132.78355,133.63605 132.69043,133.29335 C 132.44165,132.52499 131.43461,132.85735 130.57133,133.02779 C 129.32753,133.2752 128.14837,133.50141 128.83841,131.41206 C 129.27177,129.79313 129.76749,128.10769 129.77444,126.79353 C 129.75988,126.26674 129.69089,125.79374 129.63797,125.30388 L 130.39773,124.38651 z " />
        <path
           style="fill:#bdbb81;fill-opacity:1;fill-rule:nonzero;stroke:#000000;stroke-width:0.21605717;stroke-linecap:round;stroke-linejoin:round;stroke-miterlimit:4;stroke-dasharray:none;stroke-opacity:1;display:inline"
           id="path2284"
           d="M 130.33369,122.81439 C 129.63529,124.24341 129.19018,125.55882 128.81282,126.84687 C 128.33312,128.49794 127.96722,130.07924 127.64512,131.62894 C 127.50876,132.65843 126.98215,133.86553 126.39056,135.11944 C 126.35436,135.19499 126.31817,135.27051 126.28197,135.34605 L 125.55049,136.19232 C 125.58755,136.11612 125.62461,136.03987 125.66167,135.96367 C 126.25737,134.71377 126.79206,133.50799 126.93789,132.4754 C 127.27551,130.90737 127.64779,129.31393 128.13562,127.65009 C 128.50745,126.38363 128.92689,125.09821 129.5625,123.71064 L 130.33369,122.81439 z " />
        <path
           style="fill:#bdbb81;fill-opacity:1;fill-rule:nonzero;stroke:#000000;stroke-width:0.21605717;stroke-linecap:round;stroke-linejoin:round;stroke-miterlimit:4;stroke-dasharray:none;stroke-opacity:1;display:inline"
           id="path2286"
           d="M 130.68337,120.76989 C 130.59833,121.32559 130.53548,121.86454 130.45166,122.41929 C 130.09768,124.46252 129.97371,126.32663 129.78765,128.23849 C 129.65298,129.43666 129.51933,130.64698 129.1264,132.0284 C 128.82684,132.97877 128.33243,134.01172 127.80856,135.04096 L 127.06744,135.89365 C 127.60054,134.86452 128.10031,133.83164 128.4101,132.87746 C 128.81367,131.48943 128.95957,130.26927 129.10896,129.0593 C 129.31234,127.13468 129.47375,125.24295 129.76014,123.25305 C 129.82431,122.7235 129.87819,122.20189 129.92361,121.68729 L 130.68337,120.76989 z " />
        <path
           style="fill:#bdbb81;fill-opacity:1;fill-rule:nonzero;stroke:#000000;stroke-width:0.21605717;stroke-linecap:round;stroke-linejoin:round;stroke-miterlimit:4;stroke-dasharray:none;stroke-opacity:1;display:inline"
           id="path2288"
           d="M 133.11977,124.79613 C 133.29234,125.04245 133.2184,125.51859 133.0823,126.04392 C 132.44888,127.78786 131.55058,129.65179 131.14335,131.28209 C 130.93356,132.3795 130.97214,133.27243 130.43249,134.57286 C 130.02752,135.43761 129.57726,136.31273 129.16263,137.17983 L 128.42905,138.02953 C 128.84637,137.15935 129.30153,136.28108 129.71118,135.41275 C 130.25793,134.11313 130.23625,133.20755 130.44626,132.11293 C 130.85599,130.48367 131.74109,128.63204 132.36507,126.89434 C 132.49795,126.37614 132.56954,125.91979 132.36002,125.7135 L 133.11977,124.79613 z " />
        <path
           style="fill:#bdbb81;fill-opacity:1;fill-rule:nonzero;stroke:#000000;stroke-width:0.21605717;stroke-linecap:round;stroke-linejoin:round;stroke-miterlimit:4;stroke-dasharray:none;stroke-opacity:1;display:inline"
           id="path2290"
           d="M 130.05193,121.24769 C 130.28951,120.94765 130.52578,120.64607 130.76468,120.34755 C 131.23196,119.76369 130.04971,121.61163 129.75228,122.23292 C 129.10191,123.59145 128.67732,124.82867 128.35804,126.03354 C 127.65344,129.09731 128.108,131.22893 128.26729,133.56405 C 128.37806,134.86513 128.34115,136.29554 127.76647,138.12412 C 127.68462,138.39057 127.58061,138.66825 127.4834,138.94241 L 126.76457,139.78709 C 126.86596,139.50993 126.97461,139.22914 127.05969,138.95993 C 127.65167,137.12364 127.70702,135.67799 127.62006,134.35635 C 127.49414,131.98061 127.06352,129.8209 127.7375,126.77244 C 128.21759,124.8808 129.02933,122.39946 130.73846,120.26628 L 130.05193,121.24769 z " />
      </g>
      <g
         transform="matrix(0.390407,-9.411175e-2,9.411175e-2,0.390407,-25.50476,-13.99629)"
         id="g2214">
        <path
           style="fill:#b4b16f;fill-opacity:1;fill-rule:evenodd;stroke:none;stroke-width:0.63700002;stroke-linecap:butt;stroke-linejoin:miter;stroke-miterlimit:4;stroke-dasharray:none;stroke-opacity:1"
           d="M 98.565114,87.773669 C 98.609671,87.881377 105.24359,101.71294 113.22393,86.212168"
           id="path2135"
           sodipodi:nodetypes="cz" />
        <path
           style="fill:#62533e;fill-opacity:1;fill-rule:evenodd;stroke:none;stroke-width:0.43700001;stroke-linecap:butt;stroke-linejoin:miter;stroke-miterlimit:4;stroke-dasharray:none;stroke-opacity:1"
           d="M 111.86102,83.423596 C 103.0145,85.309246 98.514589,87.742445 98.514589,87.742445 C 98.514589,87.742445 108.90136,99.21514 113.40953,85.842719"
           id="path2137"
           sodipodi:nodetypes="ccs" />
      </g>
      <path
         sodipodi:nodetypes="czszssc"
         id="path2089"
         d="M 28.020939,9.1510407 C 28.020939,9.1510407 29.097059,5.3343726 28.179465,4.2841268 C 27.284926,3.2602694 25.465032,9.5469915 25.316603,7.4350386 C 25.16071,5.2167881 25.682601,3.9450357 25.602009,3.7485326 C 25.521427,3.5520308 24.271391,6.9172138 24.102908,8.6572058 C 23.91234,10.625279 24.041783,11.667822 27.264301,8.0295942 C 27.325882,7.9600671 28.020939,9.1510407 28.020939,9.1510407 z "
         style="fill:url(#linearGradient4269);fill-opacity:1;fill-rule:evenodd;stroke:none;stroke-width:0.8101846px;stroke-linecap:butt;stroke-linejoin:miter;stroke-opacity:1;display:inline" />
      <path
         sodipodi:nodetypes="cccc"
         id="path2141"
         d="M 29.061349,9.892609 L 31.994545,13.170451 L 34.459477,12.257328 L 28.90381,9.184471"
         style="fill:url(#linearGradient4271);fill-opacity:1;fill-rule:evenodd;stroke:none;stroke-width:0.80686522;stroke-linecap:butt;stroke-linejoin:miter;stroke-miterlimit:4;stroke-dasharray:none;stroke-opacity:1;display:inline" />
      <path
         sodipodi:nodetypes="cc"
         id="path2304"
         d="M 31.953784,13.126885 C 30.998533,20.604183 34.360303,12.557154 34.420757,12.249121"
         style="fill:#221c14;fill-opacity:1;fill-rule:evenodd;stroke:none;stroke-width:0.2;stroke-linecap:butt;stroke-linejoin:miter;stroke-miterlimit:4;stroke-dasharray:none;stroke-opacity:1;display:inline" />
      <g
         transform="matrix(0.29546,0,0,0.30318,-6.21597,-15.65645)"
         id="g2470">
        <g
           id="g2218"
           transform="matrix(0.91644,2.240627e-2,-2.120105e-2,0.968537,-160.8703,7.594497)">
          <path
             style="fill:#ffffff;fill-opacity:1;fill-rule:nonzero;stroke:#0f0f0f;stroke-width:0;stroke-miterlimit:4;stroke-opacity:1"
             d="M 307.50236,67.788075 C 307.7194,70.49569 309.59512,72.519424 311.68921,72.305333 C 313.78331,72.091242 315.30673,69.719996 315.08968,67.012381 C 314.87264,64.304772 312.99693,62.281045 310.90283,62.495136 C 308.80873,62.709221 307.28532,65.080466 307.50236,67.788075 z "
             id="path2147" />
          <path
             style="fill:#000000;fill-opacity:1;fill-rule:nonzero;stroke:#0f0f0f;stroke-width:0;stroke-miterlimit:4;stroke-opacity:1"
             d="M 309.23309,68.302252 C 309.19045,69.581879 310.24555,70.638629 311.58824,70.66106 C 312.93093,70.68349 314.05524,69.663148 314.09788,68.383521 C 314.14053,67.103895 313.08543,66.047153 311.74275,66.024722 C 310.40006,66.002292 309.27574,67.022626 309.23309,68.302252 z "
             id="path2149" />
        </g>
        <g
           id="g2236"
           transform="matrix(1.223529,0,0,1.293083,-26.84835,-23.0494)">
          <path
             style="fill:#ffffff;fill-opacity:1;fill-rule:nonzero;stroke:#0f0f0f;stroke-width:0;stroke-miterlimit:4;stroke-opacity:1;display:inline"
             d="M 113.35233,79.82172 C 113.55858,82.839081 115.34551,85.09418 117.34102,84.855417 C 119.33654,84.616652 120.78871,81.973995 120.58247,78.956632 C 120.37623,75.939276 118.58929,73.684185 116.59378,73.922947 C 114.59826,74.161705 113.14609,76.804364 113.35233,79.82172 z "
             id="path2151" />
          <path
             style="fill:#000000;fill-opacity:1;fill-rule:nonzero;stroke:#0f0f0f;stroke-width:0;stroke-miterlimit:4;stroke-opacity:1;display:inline"
             d="M 116.41215,81.020368 C 116.37706,82.066038 117.1892,82.927541 118.22499,82.943355 C 119.26076,82.959171 120.12987,82.123339 120.16495,81.07767 C 120.20004,80.032001 119.38789,79.170505 118.35212,79.15469 C 117.31633,79.138875 116.44723,79.974699 116.41215,81.020368 z "
             id="path2153" />
        </g>
      </g>
      <path
         sodipodi:nodetypes="ccccc"
         id="path3686"
         d="M 31.817547,16.428255 C 32.233032,16.506422 32.707503,16.67422 33.132526,16.648221 C 32.946359,16.885704 32.658792,17.247076 32.361833,17.205267 C 31.800215,17.105768 31.536289,16.967715 31.284756,16.767923 C 31.426818,16.675839 31.675482,16.520336 31.817547,16.428255 z "
         style="fill:#000000;fill-opacity:1;fill-rule:nonzero;stroke:#000000;stroke-width:0.05267638;stroke-linecap:round;stroke-linejoin:round;stroke-miterlimit:4;stroke-dasharray:none;stroke-opacity:1;display:inline" />
    </g>
  </g>
</svg>
