<?xml version="1.0" encoding="UTF-8" standalone="no"?>
<!-- Created with Inkscape (http://www.inkscape.org/) -->
<svg
   xmlns:dc="http://purl.org/dc/elements/1.1/"
   xmlns:cc="http://web.resource.org/cc/"
   xmlns:rdf="http://www.w3.org/1999/02/22-rdf-syntax-ns#"
   xmlns:svg="http://www.w3.org/2000/svg"
   xmlns="http://www.w3.org/2000/svg"
   xmlns:xlink="http://www.w3.org/1999/xlink"
   xmlns:sodipodi="http://inkscape.sourceforge.net/DTD/sodipodi-0.dtd"
   xmlns:inkscape="http://www.inkscape.org/namespaces/inkscape"
   width="48"
   height="48"
   id="svg2"
   sodipodi:version="0.32"
   inkscape:version="0.43"
   version="1.0"
   sodipodi:docbase="/home/yekcim/Desktop/SVG/Weapons"
   sodipodi:docname="grenade_ico.svg"
   inkscape:output_extension="org.inkscape.output.svg.inkscape">
  <defs
     id="defs4">
    <linearGradient
       id="linearGradient2515">
      <stop
         id="stop2517"
         offset="0"
         style="stop-color:#777777;stop-opacity:1;" />
      <stop
         style="stop-color:#ebebeb;stop-opacity:1;"
         offset="0.5"
         id="stop2523" />
      <stop
         id="stop2519"
         offset="1"
         style="stop-color:#cbcbcb;stop-opacity:1;" />
    </linearGradient>
    <linearGradient
       id="linearGradient2692">
      <stop
         id="stop2694"
         offset="0"
         style="stop-color:#bd9f87;stop-opacity:1;" />
      <stop
         style="stop-color:#754f31;stop-opacity:1;"
         offset="0.27336448"
         id="stop2700" />
      <stop
         id="stop2702"
         offset="0.75"
         style="stop-color:#6c4c32;stop-opacity:1;" />
      <stop
         id="stop2696"
         offset="1"
         style="stop-color:#38281b;stop-opacity:1;" />
    </linearGradient>
    <radialGradient
       inkscape:collect="always"
       xlink:href="#linearGradient2692"
       id="radialGradient1865"
       gradientUnits="userSpaceOnUse"
       gradientTransform="matrix(1.041124,-7.731054e-3,1.226509e-2,1.45609,-48.23281,-291.8134)"
       cx="977.37177"
       cy="653.18262"
       fx="977.37177"
       fy="653.18262"
       r="26.809002" />
    <linearGradient
       inkscape:collect="always"
       xlink:href="#linearGradient2515"
       id="linearGradient1430"
       gradientUnits="userSpaceOnUse"
       gradientTransform="matrix(0.51322,-1.91961e-16,-3.735704e-16,0.522344,-231.4327,-568.7842)"
       x1="381.65939"
       y1="1072.2004"
       x2="395.62241"
       y2="1072.2004" />
    <linearGradient
       inkscape:collect="always"
       xlink:href="#linearGradient2515"
       id="linearGradient1433"
       gradientUnits="userSpaceOnUse"
       gradientTransform="matrix(-0.495997,7.231091e-2,7.701552e-2,0.528266,458.3992,-390.8283)"
       x1="937.27484"
       y1="632.90613"
       x2="966.67078"
       y2="647.76099" />
    <linearGradient
       inkscape:collect="always"
       xlink:href="#linearGradient2515"
       id="linearGradient1439"
       gradientUnits="userSpaceOnUse"
       gradientTransform="matrix(0.50124,8.652334e-16,-8.383374e-16,0.48566,-508.3061,-290.4709)"
       x1="959.53882"
       y1="630.16101"
       x2="985.23077"
       y2="630.16101" />
    <linearGradient
       inkscape:collect="always"
       xlink:href="#linearGradient2515"
       id="linearGradient1443"
       gradientUnits="userSpaceOnUse"
       gradientTransform="matrix(-0.495997,7.231091e-2,7.701552e-2,0.528266,458.3992,-390.8283)"
       x1="985.78931"
       y1="621.25568"
       x2="1011.4193"
       y2="660.35217" />
  </defs>
  <sodipodi:namedview
     id="base"
     pagecolor="#ffffff"
     bordercolor="#666666"
     borderopacity="1.0"
     inkscape:pageopacity="0.0"
     inkscape:pageshadow="2"
     inkscape:zoom="4.1979165"
     inkscape:cx="36.851704"
     inkscape:cy="16.315578"
     inkscape:document-units="px"
     inkscape:current-layer="layer1"
     inkscape:window-width="1430"
     inkscape:window-height="821"
     inkscape:window-x="0"
     inkscape:window-y="25" />
  <metadata
     id="metadata7">
    <rdf:RDF>
      <cc:Work
         rdf:about="">
        <dc:format>image/svg+xml</dc:format>
        <dc:type
           rdf:resource="http://purl.org/dc/dcmitype/StillImage" />
      </cc:Work>
    </rdf:RDF>
  </metadata>
  <g
     inkscape:label="Calque 1"
     inkscape:groupmode="layer"
     id="layer1">
    <path
       style="fill:#232323;fill-opacity:1;fill-rule:evenodd;stroke:#000000;stroke-width:1.581;stroke-linecap:butt;stroke-linejoin:miter;stroke-miterlimit:4;stroke-dasharray:none;stroke-opacity:1;display:inline"
       d="M 13.963111,6.7354688 C 14.081408,6.6316169 14.228454,6.5570143 14.388071,6.533744 L 29.713664,4.3032194 C 30.224444,4.2287544 30.711178,4.6622991 30.80037,5.2740727 L 31.088374,7.1987064 L 32.272706,7.8926666 C 33.510153,6.6832669 36.646924,7.1418267 39.699294,9.0646683 C 39.830292,9.1471923 39.960368,9.2276525 40.087059,9.3130048 C 43.203663,11.412876 44.992328,14.323154 44.102687,15.949055 C 43.176879,17.641062 39.694857,17.307687 36.341178,15.195035 C 33.550823,13.437236 31.726539,11.005868 31.726373,9.2634464 L 31.346162,9.0367559 C 31.40007,9.6195668 31.070328,10.136055 30.579506,10.207606 L 29.298732,10.392326 L 29.371393,10.920604 C 29.377356,10.961503 29.380593,11.00369 29.38037,11.04374 L 29.62122,12.708011 C 34.155962,14.91265 37.751917,19.952676 38.66347,26.205209 C 39.993144,35.32572 35.118077,43.595582 27.778024,44.665684 C 20.437972,45.735783 13.401352,39.200563 12.071676,30.080054 C 11.175417,23.932416 13.095367,18.168694 16.692781,14.738166 L 16.332115,12.285254 L 15.651908,12.381797 C 13.562776,13.912383 10.431699,16.788703 9.7070071,20.701868 C 8.5166816,27.129539 11.659831,31.509304 11.180327,33.217576 C 11.176181,33.232345 11.165751,33.253821 11.159291,33.268626 C 10.813641,34.009153 7.6569018,34.796856 7.6569018,34.796856 C 7.6568972,34.796861 6.1143805,23.710868 6.281277,20.974663 C 6.4397455,18.377411 8.3956276,10.699993 13.65407,7.9651599 L 13.622431,7.7770867 C 13.561112,7.3564925 13.702857,6.9639429 13.963111,6.7354688 z M 33.880543,8.7982091 C 33.871146,8.8046912 33.868299,8.8135966 33.8591,8.8202616 L 34.297711,9.075136 C 34.743276,9.3357412 34.960057,9.8390384 34.777515,10.19951 C 34.594966,10.559984 34.087285,10.642812 33.641725,10.382197 L 33.305415,10.183894 C 33.444558,11.470671 34.784592,13.172736 36.765359,14.42052 C 39.280619,16.005018 41.901377,16.267594 42.59573,14.998594 C 43.246698,13.808903 41.982797,11.694462 39.750479,10.129795 C 39.60166,10.025486 39.432319,9.9382074 39.275113,9.839183 C 37.123399,8.4837042 34.909511,8.0886064 33.880543,8.7982091 z "
       id="path6939" />
    <path
       style="fill:url(#linearGradient1443);fill-opacity:1;fill-rule:evenodd;stroke:none;stroke-width:1pt;stroke-linecap:butt;stroke-linejoin:miter;stroke-opacity:1;display:inline"
       d="M 17.447707,11.099303 C 17.447707,11.099303 10.683437,14.670137 9.5718286,20.672566 C 8.3815008,27.100244 11.520152,31.483831 11.040647,33.192103 C 10.828412,33.948197 7.5180069,34.761474 7.5180069,34.761474 C 7.5180069,34.761474 5.9786474,23.68289 6.1455439,20.946684 C 6.3124938,18.21048 8.4746148,9.8308438 14.391145,7.5376037 C 17.318201,6.4030871 18.633969,6.1716909 18.633969,6.1716909 L 17.447707,11.099303 z "
       id="path2506"
       sodipodi:nodetypes="csscsscc" />
    <path
       sodipodi:type="arc"
       style="color:#000000;fill:url(#radialGradient1865);fill-opacity:1;fill-rule:evenodd;stroke:none;stroke-width:6;stroke-linecap:butt;stroke-linejoin:miter;marker:none;marker-start:none;marker-mid:none;marker-end:none;stroke-miterlimit:4;stroke-dasharray:none;stroke-dashoffset:10.99997587;stroke-opacity:1;visibility:visible;display:inline;overflow:visible"
       id="path1627"
       sodipodi:cx="972.38483"
       sodipodi:cy="659.48334"
       sodipodi:rx="26.809002"
       sodipodi:ry="31.277168"
       d="M 999.19383 659.48334 A 26.809002 31.277168 0 1 1  945.57582,659.48334 A 26.809002 31.277168 0 1 1  999.19383 659.48334 z"
       transform="matrix(-0.495997,7.231091e-2,7.701552e-2,0.528266,456.7369,-390.5859)" />
    <rect
       style="color:#000000;fill:url(#linearGradient1439);fill-opacity:1;fill-rule:evenodd;stroke:none;stroke-width:6;stroke-linecap:butt;stroke-linejoin:miter;marker:none;marker-start:none;marker-mid:none;marker-end:none;stroke-miterlimit:4;stroke-dasharray:none;stroke-dashoffset:10.99997587;stroke-opacity:1;visibility:visible;display:inline;overflow:visible"
       id="rect2502"
       width="13.089458"
       height="4.5429254"
       x="-27.347172"
       y="13.267611"
       rx="0.79321182"
       ry="0.79575491"
       transform="matrix(-0.989539,0.144264,0.144264,0.989539,0,0)" />
    <rect
       style="opacity:0.30973451;color:#000000;fill:#000000;fill-opacity:1;fill-rule:evenodd;stroke:none;stroke-width:6;stroke-linecap:butt;stroke-linejoin:miter;marker:none;marker-start:none;marker-mid:none;marker-end:none;stroke-miterlimit:4;stroke-dasharray:none;stroke-dashoffset:10.99997587;stroke-opacity:1;visibility:visible;display:inline;overflow:visible"
       id="rect2541"
       width="13.089458"
       height="4.5429254"
       x="-27.353781"
       y="11.249643"
       rx="0.79321182"
       ry="0.79575491"
       transform="matrix(-0.989539,0.144264,0.144264,0.989539,0,0)" />
    <rect
       style="color:#000000;fill:#000000;fill-opacity:1;fill-rule:evenodd;stroke:none;stroke-width:6;stroke-linecap:butt;stroke-linejoin:miter;marker:none;marker-start:none;marker-mid:none;marker-end:none;stroke-miterlimit:4;stroke-dasharray:none;stroke-dashoffset:10.99997587;stroke-opacity:1;visibility:visible;display:inline;overflow:visible"
       id="rect2504"
       width="17.35709"
       height="5.9633231"
       x="-29.586779"
       y="8.4969492"
       rx="0.9317295"
       ry="1.1159589"
       transform="matrix(-0.989539,0.144264,0.144264,0.989539,0,0)" />
    <path
       style="color:#000000;fill:url(#linearGradient1433);fill-opacity:1;fill-rule:evenodd;stroke:none;stroke-width:1pt;stroke-linecap:butt;stroke-linejoin:miter;marker:none;marker-start:none;marker-mid:none;marker-end:none;stroke-miterlimit:4;stroke-dasharray:none;stroke-dashoffset:0;stroke-opacity:1;visibility:visible;display:inline;overflow:visible"
       d="M 39.953503,9.2834182 C 43.070105,11.383287 44.853312,14.296444 43.96367,15.922345 C 43.037862,17.614352 39.558038,17.278914 36.20436,15.166262 C 32.850686,13.053605 30.895476,9.9652104 31.821294,8.2732076 C 32.747102,6.581205 36.205502,6.9223686 39.559178,9.0350181 C 39.690176,9.1175421 39.826812,9.1980659 39.953503,9.2834182 z M 39.612799,10.106582 C 39.463976,10.002278 39.2941,9.9058114 39.136894,9.806787 C 36.621643,8.2223026 34.02495,7.9549947 33.330592,9.223995 C 32.636236,10.492988 34.111389,12.810013 36.626649,14.394502 C 39.141911,15.978998 41.760012,16.24056 42.454365,14.97156 C 43.105333,13.781865 41.845117,11.671248 39.612799,10.106582 z "
       id="path2508" />
    <rect
       style="color:#000000;fill:url(#linearGradient1430);fill-opacity:1;fill-rule:evenodd;stroke:none;stroke-width:6;stroke-linecap:butt;stroke-linejoin:miter;marker:none;marker-start:none;marker-mid:none;marker-end:none;stroke-miterlimit:4;stroke-dasharray:none;stroke-dashoffset:10.99997587;stroke-opacity:1;visibility:visible;display:inline;overflow:visible"
       id="rect2513"
       width="7.1661019"
       height="1.4586996"
       x="-35.557564"
       y="-9.4560871"
       rx="0.93173277"
       ry="0.91623449"
       transform="matrix(-0.863194,-0.504873,-0.451782,0.892128,0,0)" />
  </g>
</svg>
