<?xml version="1.0" encoding="UTF-8" standalone="no"?>
<!-- Created with Inkscape (http://www.inkscape.org/) -->
<svg
   xmlns:dc="http://purl.org/dc/elements/1.1/"
   xmlns:cc="http://web.resource.org/cc/"
   xmlns:rdf="http://www.w3.org/1999/02/22-rdf-syntax-ns#"
   xmlns:svg="http://www.w3.org/2000/svg"
   xmlns="http://www.w3.org/2000/svg"
   xmlns:xlink="http://www.w3.org/1999/xlink"
   xmlns:sodipodi="http://inkscape.sourceforge.net/DTD/sodipodi-0.dtd"
   xmlns:inkscape="http://www.inkscape.org/namespaces/inkscape"
   width="13"
   height="15"
   id="svg2"
   sodipodi:version="0.32"
   inkscape:version="0.43"
   version="1.0"
   sodipodi:docbase="/home/yekcim/Desktop/SVG/Weapons"
   sodipodi:docname="grenade.svg"
   inkscape:output_extension="org.inkscape.output.svg.inkscape">
  <defs
     id="defs4">
    <linearGradient
       id="linearGradient2515">
      <stop
         id="stop2517"
         offset="0"
         style="stop-color:#777777;stop-opacity:1;" />
      <stop
         style="stop-color:#ebebeb;stop-opacity:1;"
         offset="0.5"
         id="stop2523" />
      <stop
         id="stop2519"
         offset="1"
         style="stop-color:#cbcbcb;stop-opacity:1;" />
    </linearGradient>
    <linearGradient
       id="linearGradient2692">
      <stop
         id="stop2694"
         offset="0"
         style="stop-color:#bd9f87;stop-opacity:1;" />
      <stop
         style="stop-color:#754f31;stop-opacity:1;"
         offset="0.27336448"
         id="stop2700" />
      <stop
         id="stop2702"
         offset="0.75"
         style="stop-color:#6c4c32;stop-opacity:1;" />
      <stop
         id="stop2696"
         offset="1"
         style="stop-color:#38281b;stop-opacity:1;" />
    </linearGradient>
    <radialGradient
       inkscape:collect="always"
       xlink:href="#linearGradient2692"
       id="radialGradient1865"
       gradientUnits="userSpaceOnUse"
       gradientTransform="matrix(1.041124,-7.731054e-3,1.226509e-2,1.45609,-48.23281,-291.8134)"
       cx="977.37177"
       cy="653.18262"
       fx="977.37177"
       fy="653.18262"
       r="26.809002" />
    <linearGradient
       inkscape:collect="always"
       xlink:href="#linearGradient2515"
       id="linearGradient1439"
       gradientUnits="userSpaceOnUse"
       gradientTransform="matrix(0.178459,3.089099e-16,-2.993075e-16,0.172912,-180.7168,-105.9209)"
       x1="959.53882"
       y1="630.16101"
       x2="985.23077"
       y2="630.16101" />
    <linearGradient
       inkscape:collect="always"
       xlink:href="#linearGradient2515"
       id="linearGradient1443"
       gradientUnits="userSpaceOnUse"
       gradientTransform="matrix(-0.178454,1.531519e-3,1.631209e-3,0.190064,180.3075,-118.2031)"
       x1="985.78931"
       y1="621.25568"
       x2="1011.4193"
       y2="660.35217" />
  </defs>
  <sodipodi:namedview
     id="base"
     pagecolor="#ffffff"
     bordercolor="#666666"
     borderopacity="1.0"
     inkscape:pageopacity="0.0"
     inkscape:pageshadow="2"
     inkscape:zoom="23.747002"
     inkscape:cx="11.975079"
     inkscape:cy="8.787382"
     inkscape:document-units="px"
     inkscape:current-layer="layer1"
     inkscape:window-width="1430"
     inkscape:window-height="821"
     inkscape:window-x="0"
     inkscape:window-y="25" />
  <metadata
     id="metadata7">
    <rdf:RDF>
      <cc:Work
         rdf:about="">
        <dc:format>image/svg+xml</dc:format>
        <dc:type
           rdf:resource="http://purl.org/dc/dcmitype/StillImage" />
      </cc:Work>
    </rdf:RDF>
  </metadata>
  <g
     inkscape:label="Calque 1"
     inkscape:groupmode="layer"
     id="layer1">
    <path
       style="fill:#232323;fill-opacity:1;fill-rule:evenodd;stroke:#000000;stroke-width:0.56289452;stroke-linecap:butt;stroke-linejoin:miter;stroke-miterlimit:4;stroke-dasharray:none;stroke-opacity:1;display:inline"
       d="M 4.3195395,0.55052483 C 4.3662874,0.51961034 4.4217626,0.50040284 4.479191,0.49990997 L 9.9929651,0.45392112 C 10.176738,0.45234433 10.327471,0.62880076 10.329362,0.84890936 L 10.340005,2.2025421 C 10.330848,2.410729 10.189569,2.5769762 10.012977,2.5784897 L 9.552268,2.5817379 L 9.5523619,2.7715953 C 9.5524889,2.7863103 9.551591,2.8013479 9.5495767,2.8154644 L 9.5540869,3.4141619 C 11.047107,4.4110271 12.07192,6.3626688 12.091228,8.6122525 C 12.119391,11.893699 10.00001,14.575162 7.3591499,14.597828 C 4.7182905,14.620492 2.5520896,11.97512 2.5239252,8.693675 C 2.5049425,6.4818316 3.4607928,4.5415403 4.8955706,3.5053459 L 4.8869178,2.6226711 L 4.6423147,2.6238456 C 3.8314081,3.0627609 2.5879154,3.9260054 2.143133,5.2713068 C 1.412557,7.4810688 2.3095639,9.1779222 2.0578494,9.75732 C 2.0556729,9.7623294 2.0509557,9.7694005 2.0479615,9.7743104 C 1.8902411,10.018817 0.73865567,10.144081 0.73865567,10.144081 C 0.73865379,10.144082 0.73041966,6.1590427 0.92155322,5.2019401 C 1.1029972,4.2934445 2.1640264,1.6798521 4.1510873,0.96934812 L 4.149018,0.90147781 C 4.1477192,0.75015316 4.2166935,0.61853672 4.3195395,0.55052483 z "
       id="path6939"
       sodipodi:nodetypes="ccccccccccssscccssscsccc" />
    <path
       style="fill:url(#linearGradient1443);fill-opacity:1;fill-rule:evenodd;stroke:none;stroke-width:1pt;stroke-linecap:butt;stroke-linejoin:miter;stroke-opacity:1;display:inline"
       d="M 5.3377582,2.2582637 C 5.3377582,2.2582637 2.7791204,3.1908702 2.0968664,5.2544367 C 1.3662892,7.4641998 2.2615249,9.1621841 2.0098099,9.741583 C 1.8983979,9.9980284 0.69137208,10.124886 0.69137208,10.124886 C 0.69137208,10.124886 0.68389354,6.1426127 0.87502711,5.1855097 C 1.0661794,4.22841 2.2339011,1.3770862 4.4317509,0.85416054 C 5.5190824,0.59545836 5.994392,0.57743715 5.994392,0.57743715 L 5.3377582,2.2582637 z "
       id="path2506"
       sodipodi:nodetypes="csscsscc" />
    <path
       sodipodi:type="arc"
       style="color:#000000;fill:url(#radialGradient1865);fill-opacity:1;fill-rule:evenodd;stroke:none;stroke-width:6;stroke-linecap:butt;stroke-linejoin:miter;marker:none;marker-start:none;marker-mid:none;marker-end:none;stroke-miterlimit:4;stroke-dasharray:none;stroke-dashoffset:10.99997587;stroke-opacity:1;visibility:visible;display:inline;overflow:visible"
       id="path1627"
       sodipodi:cx="972.38483"
       sodipodi:cy="659.48334"
       sodipodi:rx="26.809002"
       sodipodi:ry="31.277168"
       d="M 999.19383 659.48334 A 26.809002 31.277168 0 1 1  945.57582,659.48334 A 26.809002 31.277168 0 1 1  999.19383 659.48334 z"
       transform="matrix(-0.178454,1.531519e-3,1.631209e-3,0.190064,179.7094,-118.1979)" />
    <rect
       style="color:#000000;fill:url(#linearGradient1439);fill-opacity:1;fill-rule:evenodd;stroke:none;stroke-width:6;stroke-linecap:butt;stroke-linejoin:miter;marker:none;marker-start:none;marker-mid:none;marker-end:none;stroke-miterlimit:4;stroke-dasharray:none;stroke-dashoffset:10.99997587;stroke-opacity:1;visibility:visible;display:inline;overflow:visible"
       id="rect2502"
       width="4.660326"
       height="1.6174479"
       x="-9.4778261"
       y="2.221148"
       rx="0.28241247"
       ry="0.28331783"
       transform="matrix(-0.999963,8.581952e-3,8.581952e-3,0.999963,0,0)" />
    <rect
       style="opacity:0.30973451;color:#000000;fill:#000000;fill-opacity:1;fill-rule:evenodd;stroke:none;stroke-width:6;stroke-linecap:butt;stroke-linejoin:miter;marker:none;marker-start:none;marker-mid:none;marker-end:none;stroke-miterlimit:4;stroke-dasharray:none;stroke-dashoffset:10.99997587;stroke-opacity:1;visibility:visible;display:inline;overflow:visible"
       id="rect2541"
       width="4.660326"
       height="1.6174479"
       x="-9.4801788"
       y="1.502678"
       rx="0.28241247"
       ry="0.28331783"
       transform="matrix(-0.999963,8.581952e-3,8.581952e-3,0.999963,0,0)" />
    <rect
       style="color:#000000;fill:#000000;fill-opacity:1;fill-rule:evenodd;stroke:none;stroke-width:6;stroke-linecap:butt;stroke-linejoin:miter;marker:none;marker-start:none;marker-mid:none;marker-end:none;stroke-miterlimit:4;stroke-dasharray:none;stroke-dashoffset:10.99997587;stroke-opacity:1;visibility:visible;display:inline;overflow:visible"
       id="rect2504"
       width="6.1797595"
       height="2.1231611"
       x="-10.275208"
       y="0.52261806"
       rx="0.3317298"
       ry="0.39732224"
       transform="matrix(-0.999963,8.581952e-3,8.581952e-3,0.999963,0,0)" />
  </g>
</svg>
