<?xml version="1.0" encoding="UTF-8" standalone="no"?>
<!-- Created with Inkscape (http://www.inkscape.org/) -->
<svg
   xmlns:dc="http://purl.org/dc/elements/1.1/"
   xmlns:cc="http://web.resource.org/cc/"
   xmlns:rdf="http://www.w3.org/1999/02/22-rdf-syntax-ns#"
   xmlns:svg="http://www.w3.org/2000/svg"
   xmlns="http://www.w3.org/2000/svg"
   xmlns:xlink="http://www.w3.org/1999/xlink"
   xmlns:sodipodi="http://inkscape.sourceforge.net/DTD/sodipodi-0.dtd"
   xmlns:inkscape="http://www.inkscape.org/namespaces/inkscape"
   width="48"
   height="48"
   id="svg2"
   sodipodi:version="0.32"
   inkscape:version="0.43"
   version="1.0"
   sodipodi:docbase="/home/yekcim/Desktop/SVG/Weapons"
   sodipodi:docname="gun_ico.svg"
   inkscape:output_extension="org.inkscape.output.svg.inkscape">
  <defs
     id="defs4">
    <linearGradient
       id="linearGradient2237">
      <stop
         id="stop2239"
         offset="0"
         style="stop-color:#878787;stop-opacity:1;" />
      <stop
         id="stop2241"
         offset="1"
         style="stop-color:#000000;stop-opacity:1;" />
    </linearGradient>
    <linearGradient
       id="linearGradient6840">
      <stop
         id="stop6842"
         offset="0"
         style="stop-color:#ffffff;stop-opacity:1;" />
      <stop
         id="stop6844"
         offset="1"
         style="stop-color:#ffffff;stop-opacity:0;" />
    </linearGradient>
    <linearGradient
       id="linearGradient2229">
      <stop
         style="stop-color:#000000;stop-opacity:1;"
         offset="0"
         id="stop2231" />
      <stop
         style="stop-color:#000000;stop-opacity:0;"
         offset="1"
         id="stop2233" />
    </linearGradient>
    <linearGradient
       inkscape:collect="always"
       xlink:href="#linearGradient2237"
       id="linearGradient2276"
       gradientUnits="userSpaceOnUse"
       gradientTransform="matrix(2.848407e-2,-3.880703e-19,4.215699e-20,3.626412e-2,-2.842843,-6.875553)"
       x1="338.57141"
       y1="267.7269"
       x2="323.81461"
       y2="489.26187" />
    <linearGradient
       inkscape:collect="always"
       xlink:href="#linearGradient2237"
       id="linearGradient2278"
       gradientUnits="userSpaceOnUse"
       gradientTransform="matrix(0.212085,8.499847e-2,-3.395016e-2,8.471114e-2,-38.65523,-39.37812)"
       x1="338.57141"
       y1="267.7269"
       x2="323.81461"
       y2="489.26187" />
    <linearGradient
       inkscape:collect="always"
       xlink:href="#linearGradient6840"
       id="linearGradient2280"
       gradientUnits="userSpaceOnUse"
       gradientTransform="matrix(0.200112,-2.726349e-18,2.410001e-19,0.207337,13.65678,-63.74385)"
       x1="133.82056"
       y1="328.81091"
       x2="133.82056"
       y2="328.12009" />
    <linearGradient
       inkscape:collect="always"
       xlink:href="#linearGradient2229"
       id="linearGradient2282"
       gradientUnits="userSpaceOnUse"
       gradientTransform="matrix(0.200112,-2.726349e-18,2.151826e-19,0.185108,13.63452,-56.9064)"
       x1="133.1973"
       y1="333.38351"
       x2="132.68144"
       y2="319.13574" />
    <linearGradient
       id="linearGradient2195">
      <stop
         id="stop2197"
         offset="0"
         style="stop-color:#b9c603;stop-opacity:1;" />
      <stop
         id="stop2199"
         offset="1"
         style="stop-color:#ffffff;stop-opacity:1;" />
    </linearGradient>
    <linearGradient
       inkscape:collect="always"
       xlink:href="#linearGradient2195"
       id="linearGradient2292"
       gradientUnits="userSpaceOnUse"
       gradientTransform="matrix(-3.737246e-3,-7.840076e-4,-9.162707e-4,4.367724e-3,16.67901,29.0429)"
       x1="-356.89258"
       y1="949.76782"
       x2="-356.89258"
       y2="-70.071808" />
    <linearGradient
       inkscape:collect="always"
       xlink:href="#linearGradient2195"
       id="linearGradient2300"
       gradientUnits="userSpaceOnUse"
       gradientTransform="matrix(-3.737246e-3,-7.840076e-4,-9.162707e-4,4.367724e-3,18.23177,36.71824)"
       x1="-356.89258"
       y1="949.76782"
       x2="-356.89258"
       y2="-70.071808" />
  </defs>
  <sodipodi:namedview
     id="base"
     pagecolor="#ffffff"
     bordercolor="#666666"
     borderopacity="1.0"
     inkscape:pageopacity="0.0"
     inkscape:pageshadow="2"
     inkscape:zoom="7.919596"
     inkscape:cx="45.48611"
     inkscape:cy="23.65397"
     inkscape:document-units="px"
     inkscape:current-layer="layer1"
     inkscape:window-width="1430"
     inkscape:window-height="821"
     inkscape:window-x="0"
     inkscape:window-y="25" />
  <metadata
     id="metadata7">
    <rdf:RDF>
      <cc:Work
         rdf:about="">
        <dc:format>image/svg+xml</dc:format>
        <dc:type
           rdf:resource="http://purl.org/dc/dcmitype/StillImage" />
      </cc:Work>
    </rdf:RDF>
  </metadata>
  <g
     inkscape:label="Calque 1"
     inkscape:groupmode="layer"
     id="layer1">
    <path
       sodipodi:nodetypes="cccccccccccccccccccccccsccccccccccsscccccccc"
       style="color:#000000;fill:#000000;fill-opacity:1;fill-rule:nonzero;stroke:#000000;stroke-width:2.40070772;stroke-linecap:butt;stroke-linejoin:miter;marker:none;marker-start:none;marker-mid:none;marker-end:none;stroke-miterlimit:4;stroke-dasharray:none;stroke-dashoffset:0;stroke-opacity:1;visibility:visible;display:inline;overflow:visible"
       d="M 8.7953059,2.7833723 C 8.1492223,2.5598055 7.4448552,2.8582014 7.1992183,3.471098 L 7.0671657,3.9536335 C 6.3751826,3.9377869 5.7437028,6.0717571 5.5534883,3.9650162 L 4.1951888,3.4206428 C 3.819674,3.270146 3.3375699,3.5937941 3.1157863,4.1471813 L 2.4592976,5.7852247 C 2.2375141,6.3386124 2.3626614,6.9056295 2.7381748,7.0561281 L 3.9397584,7.5376936 L 2.2268058,11.811787 C 1.7826069,12.920134 2.5810278,14.27203 4.015177,14.846796 L 22.700523,22.335426 L 21.590117,25.106071 C 21.190696,26.10269 22.249547,27.458048 23.963122,28.144807 L 32.78627,31.680909 L 32.768703,39.289268 C 32.766305,40.406571 33.916995,41.768613 35.351137,42.343386 L 43.141056,45.465394 C 44.5752,46.040164 45.734028,45.60372 45.736419,44.48641 L 45.771022,26.951204 C 45.772734,26.153818 45.190273,25.226742 44.332916,24.555127 L 45.551016,21.902426 C 45.913286,21.600929 46.889648,20.050648 46.248717,19.371453 C 45.993517,18.846847 45.284357,18.326 45.091493,18.745636 C 44.102063,20.898289 43.380829,22.528924 42.078573,22.934971 L 42.830485,21.058831 C 43.274663,19.950473 42.476254,18.598591 41.042106,18.02382 L 11.322018,6.1127373 L 10.850377,4.934393 C 11.103934,4.3017248 10.775761,3.5770926 10.112975,3.3114612 L 8.8591567,2.808962 C 8.8384447,2.8006615 8.8161472,2.7905843 8.7953059,2.7833723 z M 26.38071,23.810354 L 29.677778,25.131739 C 29.41836,26.062997 28.955896,27.14049 28.272744,27.410389 C 27.485072,27.72158 27.8308,28.155591 28.447655,28.402815 C 29.064514,28.650035 29.805936,28.24123 30.108753,27.485634 L 31.34373,25.799411 L 32.794903,26.381006 L 32.78666,30.503233 L 26.755569,28.086119 C 24.771435,27.290922 23.360306,26.186055 23.591549,25.609063 L 24.237134,23.998224 C 24.391853,23.612181 25.240736,23.562716 26.38071,23.810354 z "
       id="path6991" />
    <path
       style="color:#000000;fill:#6e6868;fill-opacity:1;fill-rule:nonzero;stroke:none;stroke-width:9.79868031;stroke-linecap:butt;stroke-linejoin:miter;marker:none;marker-start:none;marker-mid:none;marker-end:none;stroke-miterlimit:4;stroke-dashoffset:0;stroke-opacity:1;visibility:visible;display:inline;overflow:visible"
       d="M 46.050638,19.33853 C 46.691567,20.017726 45.715455,21.568458 45.35317,21.869948 L 43.618175,25.632341 C 43.255887,25.933832 41.158929,25.21656 40.518017,24.53737 C 39.87709,23.858175 39.544655,22.600327 40.015049,22.767177 C 42.657452,23.704446 43.510428,21.711526 44.889896,18.710249 C 45.082778,18.290623 45.795454,18.813931 46.050638,19.33853 z "
       id="path6993"
       sodipodi:nodetypes="cccsssc" />
    <rect
       style="color:#000000;fill:url(#linearGradient2276);fill-opacity:1;fill-rule:nonzero;stroke:none;stroke-width:9.79868031;stroke-linecap:butt;stroke-linejoin:miter;marker:none;marker-start:none;marker-mid:none;marker-end:none;stroke-miterlimit:4;stroke-dasharray:none;stroke-dashoffset:0;stroke-opacity:1;visibility:visible;display:inline;overflow:visible"
       id="rect6995"
       width="5.1271544"
       height="4.1287303"
       x="4.2376332"
       y="1.4472201"
       rx="0.73024505"
       ry="1.0761304"
       transform="matrix(0.928228,0.372011,-0.372011,0.928228,0,0)" />
    <rect
       style="color:#000000;fill:#9b9b9b;fill-opacity:1;fill-rule:nonzero;stroke:none;stroke-width:9.79868031;stroke-linecap:butt;stroke-linejoin:miter;marker:none;marker-start:none;marker-mid:none;marker-end:none;stroke-miterlimit:4;stroke-dasharray:none;stroke-dashoffset:0;stroke-opacity:1;visibility:visible;display:inline;overflow:visible"
       id="rect6997"
       width="1.4259181"
       height="3.3391256"
       x="4.6740503"
       y="1.7635154"
       rx="1.760744"
       ry="1.4036735"
       transform="matrix(0.928228,0.372011,-0.372011,0.928228,0,0)" />
    <rect
       style="color:#000000;fill:#eaeaea;fill-opacity:1;fill-rule:nonzero;stroke:none;stroke-width:9.79868031;stroke-linecap:butt;stroke-linejoin:miter;marker:none;marker-start:none;marker-mid:none;marker-end:none;stroke-miterlimit:4;stroke-dasharray:none;stroke-dashoffset:0;stroke-opacity:1;visibility:visible;display:inline;overflow:visible"
       id="rect6999"
       width="0.93767583"
       height="1.0220829"
       x="4.8370676"
       y="2.1654615"
       rx="1.0940781"
       ry="1.5212905"
       transform="matrix(0.928228,0.372011,-0.372011,0.928228,0,0)" />
    <path
       style="color:#000000;fill:#464646;fill-opacity:1;fill-rule:nonzero;stroke:none;stroke-width:9.79868031;stroke-linecap:butt;stroke-linejoin:miter;marker:none;marker-start:none;marker-mid:none;marker-end:none;stroke-miterlimit:4;stroke-dasharray:none;stroke-dashoffset:0;stroke-opacity:1;visibility:visible;display:inline;overflow:visible"
       d="M 26.220419,21.687185 C 24.541276,21.049628 22.896444,21.308118 22.504827,22.285268 L 21.388508,25.070661 C 20.989088,26.067282 22.049354,27.422714 23.762926,28.109471 L 34.649561,32.472568 C 36.363142,33.15933 38.066032,32.9113 38.465452,31.914683 L 39.581769,29.129289 C 39.981189,28.132673 38.920928,26.777238 37.207347,26.090477 L 26.320711,21.72738 C 26.287242,21.713966 26.253867,21.699887 26.220419,21.687185 z M 27.94298,24.319456 C 27.973884,24.331579 28.005352,24.344451 28.036352,24.356874 L 34.78344,27.060944 C 36.767579,27.856138 38.179687,28.962259 37.948443,29.539251 L 37.301999,31.152226 C 37.070757,31.729213 35.286553,31.551538 33.302414,30.756344 L 26.555324,28.052275 C 24.571192,27.257082 23.158126,26.153375 23.38937,25.576384 L 24.03581,23.963407 C 24.263441,23.395432 25.996343,23.555776 27.94298,24.319456 z "
       id="path7001" />
    <rect
       style="color:#000000;fill:#636363;fill-opacity:1;fill-rule:nonzero;stroke:none;stroke-width:9.79868031;stroke-linecap:butt;stroke-linejoin:miter;marker:none;marker-start:none;marker-mid:none;marker-end:none;stroke-miterlimit:4;stroke-dasharray:none;stroke-dashoffset:0;stroke-opacity:1;visibility:visible;display:inline;overflow:visible"
       id="rect7003"
       width="13.969258"
       height="21.573208"
       x="35.145733"
       y="6.6275067"
       rx="2.788877"
       ry="2.0167923"
       transform="matrix(0.928228,0.372011,-2.147009e-3,0.999998,0,0)" />
    <path
       style="color:#000000;fill:#767676;fill-opacity:1;fill-rule:nonzero;stroke:none;stroke-width:9.79868031;stroke-linecap:butt;stroke-linejoin:miter;marker:none;marker-start:none;marker-mid:none;marker-end:none;stroke-miterlimit:4;stroke-dashoffset:0;stroke-opacity:1;visibility:visible;display:inline;overflow:visible"
       d="M 31.248398,23.03801 C 31.865257,23.285232 32.118071,24.092553 31.815246,24.848145 L 29.909092,27.452625 C 29.606269,28.208218 28.865875,28.617484 28.249018,28.370261 C 27.632161,28.12304 27.283407,27.690703 28.071079,27.379511 C 28.931707,27.039493 29.450616,25.413487 29.641588,24.419338 C 29.793701,23.627467 30.631541,22.790787 31.248398,23.03801 z "
       id="path7005"
       sodipodi:nodetypes="cccsssc" />
    <path
       style="color:#000000;fill:#a8a8a8;fill-opacity:1;fill-rule:nonzero;stroke:none;stroke-width:9.79868031;stroke-linecap:butt;stroke-linejoin:miter;marker:none;marker-start:none;marker-mid:none;marker-end:none;stroke-miterlimit:4;stroke-dashoffset:0;stroke-opacity:1;visibility:visible;display:inline;overflow:visible"
       d="M 8.8250815,2.6594174 L 10.081093,3.1627959 C 10.743882,3.4284252 11.073336,4.151604 10.819778,4.784271 L 10.57618,8.4665898 C 10.322622,9.0992571 9.5849076,9.3947403 8.9221213,9.1291109 L 6.5516062,8.1790666 C 5.8888174,7.913437 5.5593594,7.1902574 5.812917,6.5575912 L 7.1710239,3.3219395 C 7.4245816,2.6892713 8.1622904,2.3937866 8.8250815,2.6594174 z "
       id="path7007"
       sodipodi:nodetypes="ccccccccc" />
    <path
       style="color:#000000;fill:url(#linearGradient2278);fill-opacity:1;fill-rule:nonzero;stroke:none;stroke-width:9.79868031;stroke-linecap:butt;stroke-linejoin:miter;marker:none;marker-start:none;marker-mid:none;marker-end:none;stroke-miterlimit:4;stroke-dasharray:none;stroke-dashoffset:0;stroke-opacity:1;visibility:visible;display:inline;overflow:visible"
       d="M 7.727205,4.5661075 C 6.3448983,4.0887087 4.9329659,4.5283938 4.5061181,5.5934473 L 2.0279461,11.77689 C 1.5837483,12.885237 2.3821674,14.237127 3.8163137,14.811897 L 33.977561,26.899787 L 33.933858,39.414656 C 33.930133,40.402051 35.080509,41.66276 36.514651,42.237528 L 41.901424,44.396414 C 43.335568,44.971184 44.494702,44.636073 44.498428,43.648676 L 44.55745,27.699928 C 44.561173,26.712532 43.408667,25.457196 41.974524,24.882425 L 41.208304,24.575343 L 42.683666,20.894073 C 43.127864,19.785727 42.329436,18.433836 40.895287,17.859062 L 7.8955374,4.6335715 C 7.83952,4.6111208 7.7833932,4.5855136 7.727205,4.5661075 z "
       id="path7009"
       sodipodi:nodetypes="cccccccccccccccc" />
    <rect
       style="color:#000000;fill:#9b9b9b;fill-opacity:1;fill-rule:nonzero;stroke:none;stroke-width:9.79868031;stroke-linecap:butt;stroke-linejoin:miter;marker:none;marker-start:none;marker-mid:none;marker-end:none;stroke-miterlimit:4;stroke-dasharray:none;stroke-dashoffset:0;stroke-opacity:1;visibility:visible;display:inline;overflow:visible"
       id="rect7011"
       width="39.587643"
       height="5.9228625"
       x="6.8568296"
       y="2.2384286"
       rx="1.760744"
       ry="1.0168951"
       transform="matrix(0.928228,0.372011,-0.372011,0.928228,0,0)" />
    <rect
       style="opacity:0.77876108;color:#000000;fill:#eaeaea;fill-opacity:1;fill-rule:nonzero;stroke:none;stroke-width:9.79868031;stroke-linecap:butt;stroke-linejoin:miter;marker:none;marker-start:none;marker-mid:none;marker-end:none;stroke-miterlimit:4;stroke-dasharray:none;stroke-dashoffset:0;stroke-opacity:1;visibility:visible;display:inline;overflow:visible"
       id="rect7013"
       width="18.747496"
       height="1.0220829"
       x="7.4106097"
       y="2.5535781"
       rx="1.0940781"
       ry="1.5212905"
       transform="matrix(0.928228,0.372011,-0.372011,0.928228,0,0)" />
    <rect
       style="color:#000000;fill:#ffffff;fill-opacity:1;fill-rule:nonzero;stroke:none;stroke-width:9.79868031;stroke-linecap:butt;stroke-linejoin:miter;marker:none;marker-start:none;marker-mid:none;marker-end:none;stroke-miterlimit:4;stroke-dasharray:none;stroke-dashoffset:0;stroke-opacity:1;visibility:visible;display:inline;overflow:visible"
       id="rect7015"
       width="1.9036651"
       height="0.9900791"
       x="8.2606182"
       y="-0.53371257"
       rx="2.7888768"
       ry="2.1553192"
       transform="matrix(0.928228,0.372011,-0.372011,0.928228,0,0)" />
    <rect
       style="opacity:0.37463128;color:#000000;fill:url(#linearGradient2280);fill-opacity:1;fill-rule:nonzero;stroke:none;stroke-width:9.79868031;stroke-linecap:butt;stroke-linejoin:miter;marker:none;marker-start:none;marker-mid:none;marker-end:none;stroke-miterlimit:4;stroke-dasharray:none;stroke-dashoffset:0;stroke-opacity:1;visibility:visible;display:inline;overflow:visible"
       id="rect7017"
       width="8.5876617"
       height="2.6720276"
       x="37.029621"
       y="2.7068667"
       rx="0.9274115"
       ry="0.90461141"
       transform="matrix(0.928228,0.372011,-0.372011,0.928228,0,0)" />
    <rect
       style="color:#000000;fill:url(#linearGradient2282);fill-opacity:1;fill-rule:nonzero;stroke:none;stroke-width:9.79868031;stroke-linecap:butt;stroke-linejoin:miter;marker:none;marker-start:none;marker-mid:none;marker-end:none;stroke-miterlimit:4;stroke-dasharray:none;stroke-dashoffset:0;stroke-opacity:1;visibility:visible;display:inline;overflow:visible"
       id="rect7019"
       width="8.5876617"
       height="2.3855608"
       x="37.007339"
       y="2.4201765"
       rx="0.9274115"
       ry="0.90461141"
       transform="matrix(0.928228,0.372011,-0.372011,0.928228,0,0)" />
    <rect
       style="color:#000000;fill:#757575;fill-opacity:1;fill-rule:nonzero;stroke:none;stroke-width:9.79868031;stroke-linecap:butt;stroke-linejoin:miter;marker:none;marker-start:none;marker-mid:none;marker-end:none;stroke-miterlimit:4;stroke-dasharray:none;stroke-dashoffset:0;stroke-opacity:1;visibility:visible;display:inline;overflow:visible"
       id="rect7021"
       width="35.992207"
       height="3.059773"
       x="6.8203883"
       y="8.6737165"
       rx="2.4265616"
       ry="1.0166414"
       transform="matrix(0.928228,0.372011,-0.372011,0.928228,0,0)" />
    <rect
       style="opacity:0.77876108;color:#000000;fill:#eaeaea;fill-opacity:1;fill-rule:nonzero;stroke:none;stroke-width:9.79868031;stroke-linecap:butt;stroke-linejoin:miter;marker:none;marker-start:none;marker-mid:none;marker-end:none;stroke-miterlimit:4;stroke-dasharray:none;stroke-dashoffset:0;stroke-opacity:1;visibility:visible;display:inline;overflow:visible"
       id="rect7023"
       width="33.929451"
       height="0.38624373"
       x="7.338068"
       y="8.7466297"
       rx="1.0940781"
       ry="1.5212905"
       transform="matrix(0.928228,0.372011,-0.372011,0.928228,0,0)" />
    <path
       style="color:#000000;fill:#3a2410;fill-opacity:1;fill-rule:evenodd;stroke:none;stroke-width:9.79899979;stroke-linecap:butt;stroke-linejoin:miter;marker:none;marker-start:none;marker-mid:none;marker-end:none;stroke-miterlimit:4;stroke-dashoffset:10.99997587;stroke-opacity:1;visibility:visible;display:inline;overflow:visible"
       d="M 41.33668,23.929738 L 43.319447,24.650011 C 44.095756,24.961137 44.804425,26.241726 44.79044,27.566397 L 44.625433,43.196272 C 44.611449,44.52094 43.975219,45.336897 43.198912,45.025773 L 34.937834,41.714935 C 34.161527,41.40381 33.547824,40.086911 33.561804,38.762241 L 33.776848,27.019815 C 34.763825,27.122097 37.039089,27.935682 37.353007,24.85708 C 39.08526,25.541076 40.403803,25.935802 41.33668,23.929738 z "
       id="path7025"
       sodipodi:nodetypes="cccccccccc" />
    <path
       style="color:#000000;fill:url(#linearGradient2300);fill-opacity:1;fill-rule:evenodd;stroke:#000000;stroke-width:1.02211726;stroke-linecap:round;stroke-linejoin:round;marker:none;marker-start:none;marker-mid:none;marker-end:none;stroke-miterlimit:4;stroke-dasharray:none;stroke-dashoffset:0;stroke-opacity:1;visibility:visible;display:inline;overflow:visible"
       d="M 21.980987,37.938994 C 22.101937,37.967883 22.168822,38.133152 22.131198,38.3125 L 21.206376,42.721 C 21.168306,42.902473 21.038082,43.02769 20.914406,43.001745 L 16.182307,42.009038 C 16.180885,42.00874 16.179489,42.008487 16.178083,42.008152 C 16.178053,42.008144 16.178017,42.008139 16.177986,42.008132 C 16.092344,41.997744 16.010059,41.946611 15.957346,41.861384 L 13.595461,39.296265 C 13.504248,39.148783 13.633573,38.497784 13.765829,38.406652 L 16.997468,36.980751 C 17.063353,36.935354 17.141058,36.923807 17.213733,36.941903 L 21.976668,37.938088 C 21.978117,37.938392 21.979557,37.938651 21.980987,37.938994 z "
       id="path2298"
       sodipodi:nodetypes="cccccscccccccc" />
    <path
       sodipodi:nodetypes="cccccscccccccc"
       id="path1408"
       d="M 20.428233,30.263641 C 20.549182,30.29253 20.616067,30.457799 20.578443,30.637147 L 19.653621,35.045646 C 19.615551,35.22712 19.485328,35.352337 19.361652,35.326392 L 14.629552,34.333685 C 14.62813,34.333386 14.626735,34.333133 14.625328,34.332799 C 14.625298,34.33279 14.625263,34.332786 14.625232,34.332778 C 14.53959,34.322391 14.457304,34.271258 14.404591,34.186031 L 12.042707,31.620911 C 11.951493,31.47343 12.080819,30.822431 12.213075,30.731299 L 15.444713,29.305398 C 15.510599,29.260001 15.588304,29.248454 15.660979,29.26655 L 20.423914,30.262735 C 20.425362,30.263039 20.426803,30.263298 20.428233,30.263641 z "
       style="color:#000000;fill:url(#linearGradient2292);fill-opacity:1;fill-rule:evenodd;stroke:#000000;stroke-width:1.02211726;stroke-linecap:round;stroke-linejoin:round;marker:none;marker-start:none;marker-mid:none;marker-end:none;stroke-miterlimit:4;stroke-dasharray:none;stroke-dashoffset:0;stroke-opacity:1;visibility:visible;display:inline;overflow:visible" />
  </g>
</svg>
