<?xml version="1.0" encoding="UTF-8" standalone="no"?>
<!-- Created with Inkscape (http://www.inkscape.org/) -->
<svg
   xmlns:dc="http://purl.org/dc/elements/1.1/"
   xmlns:cc="http://web.resource.org/cc/"
   xmlns:rdf="http://www.w3.org/1999/02/22-rdf-syntax-ns#"
   xmlns:svg="http://www.w3.org/2000/svg"
   xmlns="http://www.w3.org/2000/svg"
   xmlns:xlink="http://www.w3.org/1999/xlink"
   xmlns:sodipodi="http://inkscape.sourceforge.net/DTD/sodipodi-0.dtd"
   xmlns:inkscape="http://www.inkscape.org/namespaces/inkscape"
   width="15"
   height="15"
   id="svg2"
   sodipodi:version="0.32"
   inkscape:version="0.43"
   version="1.0"
   sodipodi:docbase="/home/yekcim/Desktop/SVG/Weapons"
   sodipodi:docname="holly_grenade.svg"
   inkscape:output_extension="org.inkscape.output.svg.inkscape">
  <defs
     id="defs4">
    <linearGradient
       id="linearGradient2309">
      <stop
         style="stop-color:#f1f59c;stop-opacity:1;"
         offset="0"
         id="stop2311" />
      <stop
         style="stop-color:#ffffff;stop-opacity:1;"
         offset="1"
         id="stop2313" />
    </linearGradient>
    <linearGradient
       id="linearGradient2299">
      <stop
         style="stop-color:#fafad5;stop-opacity:1;"
         offset="0"
         id="stop2301" />
      <stop
         id="stop2303"
         offset="0.27336448"
         style="stop-color:#f8f779;stop-opacity:1;" />
      <stop
         style="stop-color:#f4f33d;stop-opacity:1;"
         offset="0.75"
         id="stop2305" />
      <stop
         style="stop-color:#cdc706;stop-opacity:1;"
         offset="1"
         id="stop2307" />
    </linearGradient>
    <linearGradient
       id="linearGradient2515">
      <stop
         id="stop2517"
         offset="0"
         style="stop-color:#777777;stop-opacity:1;" />
      <stop
         style="stop-color:#ebebeb;stop-opacity:1;"
         offset="0.5"
         id="stop2523" />
      <stop
         id="stop2519"
         offset="1"
         style="stop-color:#cbcbcb;stop-opacity:1;" />
    </linearGradient>
    <radialGradient
       inkscape:collect="always"
       xlink:href="#linearGradient2299"
       id="radialGradient1865"
       gradientUnits="userSpaceOnUse"
       gradientTransform="matrix(1.041124,-7.731054e-3,1.226509e-2,1.45609,-48.23281,-291.8134)"
       cx="977.37177"
       cy="653.18262"
       fx="977.37177"
       fy="653.18262"
       r="26.809002" />
    <linearGradient
       inkscape:collect="always"
       xlink:href="#linearGradient2515"
       id="linearGradient1439"
       gradientUnits="userSpaceOnUse"
       gradientTransform="matrix(0.217728,3.118545e-16,-3.661569e-16,0.173459,-220.1717,-106.3372)"
       x1="959.53882"
       y1="630.16101"
       x2="985.23077"
       y2="630.16101" />
    <linearGradient
       inkscape:collect="always"
       xlink:href="#linearGradient2515"
       id="linearGradient1443"
       gradientUnits="userSpaceOnUse"
       gradientTransform="matrix(-0.217724,1.328306e-3,1.720676e-3,0.190665,219.842,-118.4452)"
       x1="985.78931"
       y1="621.25568"
       x2="1011.4193"
       y2="660.35217" />
    <linearGradient
       inkscape:collect="always"
       xlink:href="#linearGradient2309"
       id="linearGradient2315"
       x1="-24.522518"
       y1="7.956367"
       x2="-22.792437"
       y2="1.7101555"
       gradientUnits="userSpaceOnUse"
       gradientTransform="matrix(0.338504,1.090819e-18,8.395161e-19,0.338504,0.472972,-0.748703)" />
  </defs>
  <sodipodi:namedview
     id="base"
     pagecolor="#ffffff"
     bordercolor="#666666"
     borderopacity="1.0"
     inkscape:pageopacity="0.0"
     inkscape:pageshadow="2"
     inkscape:zoom="33.583332"
     inkscape:cx="13.715092"
     inkscape:cy="6.6088265"
     inkscape:document-units="px"
     inkscape:current-layer="layer1"
     inkscape:window-width="1430"
     inkscape:window-height="821"
     inkscape:window-x="0"
     inkscape:window-y="25" />
  <metadata
     id="metadata7">
    <rdf:RDF>
      <cc:Work
         rdf:about="">
        <dc:format>image/svg+xml</dc:format>
        <dc:type
           rdf:resource="http://purl.org/dc/dcmitype/StillImage" />
      </cc:Work>
    </rdf:RDF>
  </metadata>
  <g
     inkscape:label="Calque 1"
     inkscape:groupmode="layer"
     id="layer1">
    <path
       style="fill:#232323;fill-opacity:1;fill-rule:evenodd;stroke:#000000;stroke-width:0.62273085;stroke-linecap:butt;stroke-linejoin:miter;stroke-miterlimit:4;stroke-dasharray:none;stroke-opacity:1;display:inline"
       d="M 4.9590697,0.4780061 C 5.0161492,0.44704852 5.0838592,0.42784525 5.1539255,0.42741778 L 11.881088,0.38771164 C 12.105303,0.38634418 12.288955,0.56353284 12.290949,0.7843379 L 12.300407,1.4793503 L 12.302016,2.1422518 C 12.290548,2.3510847 12.117946,2.5176912 11.902492,2.5190039 L 11.340397,2.5217253 L 11.340243,2.7121814 C 11.340376,2.726943 11.33926,2.7420273 11.336782,2.7561854 L 11.341435,3.3567766 C 13.161585,4.3585262 14.409145,6.3175177 14.429513,8.574218 C 14.459221,11.866047 11.869662,14.553495 8.6476391,14.573155 C 5.4256187,14.59281 2.7864892,11.936571 2.7567802,8.6447445 C 2.7367559,6.4259033 3.9056951,4.4806071 5.6576689,3.4428175 L 5.6483633,2.5573487 L 5.3499335,2.5582425 C 4.359962,2.9975958 2.8416105,3.8621134 2.2970455,5.211139 C 1.4025707,7.4270172 2.4945613,9.1302682 2.1866343,9.7111993 C 2.1839718,9.7162223 2.1782067,9.7233101 2.1745467,9.728233 C 1.9817727,9.9733263 0.57659987,10.097642 0.57659987,10.097642 C 0.57659754,10.097644 0.5722016,6.1000273 0.80675175,5.1401288 C 1.0294111,4.2289801 2.3276287,1.6083822 4.7529555,0.89795393 L 4.7505274,0.82986696 C 4.7491572,0.67806357 4.8334959,0.54611252 4.9590697,0.4780061 z "
       id="path6939"
       sodipodi:nodetypes="cccccccccccssscccssscsccc" />
    <path
       style="fill:url(#linearGradient1443);fill-opacity:1;fill-rule:evenodd;stroke:none;stroke-width:1pt;stroke-linecap:butt;stroke-linejoin:miter;stroke-opacity:1;display:inline"
       d="M 6.1989303,2.1923175 C 6.1989303,2.1923175 3.0759333,3.1248822 2.2406222,5.1941613 C 1.3461457,7.4100428 2.4359732,9.1144252 2.1280459,9.6953576 C 1.991754,9.9524821 0.51893851,10.078332 0.51893851,10.078332 C 0.51893851,10.078332 0.51546049,6.0834913 0.75001075,5.1235923 C 0.98458373,4.1636975 2.4133092,1.3047427 5.0955438,0.78273011 C 6.4225116,0.52447979 7.0024404,0.5069557 7.0024404,0.5069557 L 6.1989303,2.1923175 z "
       id="path2506"
       sodipodi:nodetypes="csscsscc" />
    <path
       sodipodi:type="arc"
       style="color:#000000;fill:url(#radialGradient1865);fill-opacity:1;fill-rule:evenodd;stroke:none;stroke-width:6;stroke-linecap:butt;stroke-linejoin:miter;marker:none;marker-start:none;marker-mid:none;marker-end:none;stroke-miterlimit:4;stroke-dasharray:none;stroke-dashoffset:10.99997587;stroke-opacity:1;visibility:visible;display:inline;overflow:visible"
       id="path1627"
       sodipodi:cx="972.38483"
       sodipodi:cy="659.48334"
       sodipodi:rx="26.809002"
       sodipodi:ry="31.277168"
       d="M 999.19383 659.48334 A 26.809002 31.277168 0 1 1  945.57582,659.48334 A 26.809002 31.277168 0 1 1  999.19383 659.48334 z"
       transform="matrix(-0.217724,1.328306e-3,1.720676e-3,0.190665,219.1122,-118.4406)" />
    <rect
       style="color:#000000;fill:url(#linearGradient1439);fill-opacity:1;fill-rule:evenodd;stroke:none;stroke-width:6;stroke-linecap:butt;stroke-linejoin:miter;marker:none;marker-start:none;marker-mid:none;marker-end:none;stroke-miterlimit:4;stroke-dasharray:none;stroke-dashoffset:10.99997587;stroke-opacity:1;visibility:visible;display:inline;overflow:visible"
       id="rect2502"
       width="5.6857705"
       height="1.6225652"
       x="-11.253808"
       y="2.1469915"
       rx="0.34455362"
       ry="0.28421426"
       transform="matrix(-0.999981,6.100846e-3,9.024082e-3,0.999959,0,0)" />
    <rect
       style="opacity:0.30973451;color:#000000;fill:#000000;fill-opacity:1;fill-rule:evenodd;stroke:none;stroke-width:6;stroke-linecap:butt;stroke-linejoin:miter;marker:none;marker-start:none;marker-mid:none;marker-end:none;stroke-miterlimit:4;stroke-dasharray:none;stroke-dashoffset:10.99997587;stroke-opacity:1;visibility:visible;display:inline;overflow:visible"
       id="rect2541"
       width="5.6857705"
       height="1.6225652"
       x="-11.256677"
       y="1.4262483"
       rx="0.34455362"
       ry="0.28421426"
       transform="matrix(-0.999981,6.100846e-3,9.024082e-3,0.999959,0,0)" />
    <rect
       style="color:#000000;fill:url(#linearGradient2315);fill-opacity:1;fill-rule:evenodd;stroke:none;stroke-width:6;stroke-linecap:butt;stroke-linejoin:miter;marker:none;marker-start:none;marker-mid:none;marker-end:none;stroke-miterlimit:4;stroke-dasharray:none;stroke-dashoffset:10.99997587;stroke-opacity:1;visibility:visible;display:inline;overflow:visible"
       id="rect2504"
       width="7.539535"
       height="2.1298788"
       x="-12.226644"
       y="0.44308779"
       rx="0.40472251"
       ry="0.39857933"
       transform="matrix(-0.999981,6.100846e-3,9.024082e-3,0.999959,0,0)" />
    <path
       style="opacity:1;color:#000000;fill:none;fill-opacity:1;fill-rule:evenodd;stroke:#000000;stroke-width:0.08133499;stroke-linecap:round;stroke-linejoin:miter;marker:none;marker-start:none;marker-mid:none;marker-end:none;stroke-miterlimit:4;stroke-dasharray:none;stroke-dashoffset:0;stroke-opacity:1;visibility:visible;display:inline;overflow:visible"
       d="M 8.2436191,7.1921747 C 8.2281499,7.1948537 8.2161242,7.2076043 8.2071885,7.2212381 C 8.2045749,7.2256544 8.2015322,7.2327536 8.1999025,7.2378458 C 8.1987704,7.2420113 8.1966558,7.2499761 8.1962594,7.2544535 C 8.1962092,7.2555888 8.1962594,7.2574553 8.1962594,7.2586051 L 8.1962594,8.1429595 L 7.3219217,8.1429595 C 7.3139521,8.1434167 7.3032184,8.1475411 7.2964203,8.1512632 C 7.2947681,8.1522834 7.2906843,8.1542238 7.2891342,8.155415 C 7.2883864,8.1560514 7.2862102,8.1588914 7.285491,8.1595671 C 7.283423,8.1617085 7.2799838,8.165412 7.2782047,8.1678709 C 7.2709451,8.1789481 7.2636327,8.194439 7.2636327,8.2093899 L 7.2636327,8.6951618 C 7.2638335,8.6997037 7.2663204,8.7075183 7.2672757,8.7117692 C 7.2681248,8.7148934 7.269694,8.72132 7.2709187,8.7242247 C 7.2727093,8.727991 7.2758329,8.7334022 7.2782047,8.7366814 C 7.2825893,8.7421809 7.2906378,8.7497175 7.2964203,8.7532886 C 7.2989695,8.7546842 7.3046082,8.7564731 7.3073496,8.7574407 C 7.3110802,8.7585295 7.3179369,8.7613639 7.3219217,8.7615924 L 8.1962594,8.7615924 L 8.1962594,11.875516 C 8.1962594,11.876665 8.1962092,11.878532 8.1962594,11.879667 C 8.1972508,11.890861 8.2019611,11.90405 8.2071885,11.912884 C 8.2177994,11.929072 8.2353748,11.941946 8.2545484,11.941946 L 8.873871,11.941946 C 8.8778557,11.941718 8.8847126,11.938884 8.8884429,11.937794 C 8.891184,11.936826 8.8968231,11.935038 8.8993721,11.933643 C 8.9010243,11.932624 8.9051083,11.930682 8.9066585,11.929489 C 8.9074061,11.928855 8.9095819,11.926014 8.9103013,11.92534 C 8.9151275,11.920343 8.9217406,11.91117 8.9248739,11.90458 C 8.9260986,11.901675 8.9276679,11.895247 8.928517,11.892123 C 8.9297113,11.886809 8.9321598,11.881265 8.9321598,11.875516 L 8.9321598,8.7615924 L 9.77371,8.7615924 C 9.7777459,8.7615924 9.7844812,8.7583222 9.7882816,8.7574407 C 9.79108,8.7566236 9.7965951,8.754546 9.7992117,8.7532886 C 9.80091,8.7523581 9.8048952,8.7502436 9.8064983,8.7491369 C 9.8142478,8.7431795 9.82388,8.7336397 9.828356,8.7242247 C 9.8295806,8.72132 9.8311507,8.7148934 9.831998,8.7117692 C 9.8329553,8.7075183 9.8317979,8.6997037 9.831998,8.6951618 L 9.831998,8.2093899 C 9.831998,8.2070896 9.832197,8.2033249 9.831998,8.2010859 C 9.8314107,8.1966786 9.8296599,8.1885521 9.828356,8.1844785 C 9.8265172,8.1795077 9.8238616,8.1721314 9.8210693,8.1678709 C 9.820477,8.1670512 9.8180523,8.1645049 9.8174259,8.1637188 C 9.8167677,8.1629683 9.8144724,8.160281 9.8137837,8.1595671 C 9.8073114,8.1534845 9.7966757,8.1454091 9.7882816,8.1429595 C 9.7844812,8.1420776 9.7777459,8.1429595 9.77371,8.1429595 L 8.9321598,8.1429595 L 8.9321598,7.2586051 C 8.9321598,7.2517047 8.9302151,7.2440938 8.928517,7.2378458 C 8.927865,7.235809 8.9256905,7.2314788 8.9248739,7.2295418 C 8.9226358,7.224835 8.9170763,7.2168628 8.9139448,7.2129341 C 8.9132864,7.212184 8.910991,7.2094962 8.9103013,7.2087826 C 8.9095819,7.2081064 8.9074061,7.205267 8.9066585,7.2046308 C 8.9051083,7.2034392 8.9010243,7.2014989 8.8993721,7.2004785 C 8.8968231,7.199083 8.891184,7.1972942 8.8884429,7.1963269 C 8.8847126,7.1952378 8.8778557,7.1924035 8.873871,7.1921747 L 8.2545484,7.1921747 C 8.2515211,7.1921747 8.2465198,7.1916725 8.2436191,7.1921747 z "
       id="rect2317" />
  </g>
</svg>
