<?xml version="1.0" encoding="UTF-8" standalone="no"?>
<!-- Created with Inkscape (http://www.inkscape.org/) -->
<svg
   xmlns:dc="http://purl.org/dc/elements/1.1/"
   xmlns:cc="http://web.resource.org/cc/"
   xmlns:rdf="http://www.w3.org/1999/02/22-rdf-syntax-ns#"
   xmlns:svg="http://www.w3.org/2000/svg"
   xmlns="http://www.w3.org/2000/svg"
   xmlns:xlink="http://www.w3.org/1999/xlink"
   xmlns:sodipodi="http://inkscape.sourceforge.net/DTD/sodipodi-0.dtd"
   xmlns:inkscape="http://www.inkscape.org/namespaces/inkscape"
   width="48"
   height="48"
   id="svg2"
   sodipodi:version="0.32"
   inkscape:version="0.43"
   version="1.0"
   sodipodi:docbase="/home/yekcim/Desktop/SVG/Weapons"
   sodipodi:docname="holly_grenade_ico.svg"
   inkscape:output_extension="org.inkscape.output.svg.inkscape">
  <defs
     id="defs4">
    <linearGradient
       id="linearGradient2309">
      <stop
         style="stop-color:#f1f59c;stop-opacity:1;"
         offset="0"
         id="stop2311" />
      <stop
         style="stop-color:#ffffff;stop-opacity:1;"
         offset="1"
         id="stop2313" />
    </linearGradient>
    <linearGradient
       id="linearGradient2299">
      <stop
         style="stop-color:#fafad5;stop-opacity:1;"
         offset="0"
         id="stop2301" />
      <stop
         id="stop2303"
         offset="0.27336448"
         style="stop-color:#f8f779;stop-opacity:1;" />
      <stop
         style="stop-color:#f4f33d;stop-opacity:1;"
         offset="0.75"
         id="stop2305" />
      <stop
         style="stop-color:#cdc706;stop-opacity:1;"
         offset="1"
         id="stop2307" />
    </linearGradient>
    <linearGradient
       id="linearGradient2515">
      <stop
         id="stop2517"
         offset="0"
         style="stop-color:#777777;stop-opacity:1;" />
      <stop
         style="stop-color:#ebebeb;stop-opacity:1;"
         offset="0.5"
         id="stop2523" />
      <stop
         id="stop2519"
         offset="1"
         style="stop-color:#cbcbcb;stop-opacity:1;" />
    </linearGradient>
    <radialGradient
       inkscape:collect="always"
       xlink:href="#linearGradient2299"
       id="radialGradient1865"
       gradientUnits="userSpaceOnUse"
       gradientTransform="matrix(1.041124,-7.731054e-3,1.226509e-2,1.45609,-48.23281,-291.8134)"
       cx="977.37177"
       cy="653.18262"
       fx="977.37177"
       fy="653.18262"
       r="26.809002" />
    <linearGradient
       inkscape:collect="always"
       xlink:href="#linearGradient2515"
       id="linearGradient1439"
       gradientUnits="userSpaceOnUse"
       gradientTransform="matrix(0.602543,8.665124e-16,-9.846492e-16,0.480035,-608.6576,-287.4812)"
       x1="959.53882"
       y1="630.16101"
       x2="985.23077"
       y2="630.16101" />
    <linearGradient
       inkscape:collect="always"
       xlink:href="#linearGradient2515"
       id="linearGradient1443"
       gradientUnits="userSpaceOnUse"
       gradientTransform="matrix(-0.59629,8.658728e-2,7.735364e-2,0.521967,557.8302,-401.6)"
       x1="985.78931"
       y1="621.25568"
       x2="1011.4193"
       y2="660.35217" />
    <linearGradient
       inkscape:collect="always"
       xlink:href="#linearGradient2309"
       id="linearGradient2315"
       x1="-24.522518"
       y1="7.956367"
       x2="-22.792437"
       y2="1.7101555"
       gradientUnits="userSpaceOnUse"
       gradientTransform="matrix(0.936776,9.644516e-18,4.167896e-17,0.936776,1.95664,4.725298)" />
  </defs>
  <sodipodi:namedview
     id="base"
     pagecolor="#ffffff"
     bordercolor="#666666"
     borderopacity="1.0"
     inkscape:pageopacity="0.0"
     inkscape:pageshadow="2"
     inkscape:zoom="8.395833"
     inkscape:cx="40.421921"
     inkscape:cy="23.465854"
     inkscape:document-units="px"
     inkscape:current-layer="layer1"
     inkscape:window-width="1430"
     inkscape:window-height="821"
     inkscape:window-x="0"
     inkscape:window-y="25" />
  <metadata
     id="metadata7">
    <rdf:RDF>
      <cc:Work
         rdf:about="">
        <dc:format>image/svg+xml</dc:format>
        <dc:type
           rdf:resource="http://purl.org/dc/dcmitype/StillImage" />
      </cc:Work>
    </rdf:RDF>
  </metadata>
  <g
     inkscape:label="Calque 1"
     inkscape:groupmode="layer"
     id="layer1">
    <path
       style="fill:#232323;fill-opacity:1;fill-rule:evenodd;stroke:#000000;stroke-width:1.7233454;stroke-linecap:butt;stroke-linejoin:miter;stroke-miterlimit:4;stroke-dasharray:none;stroke-opacity:1;display:inline"
       d="M 14.130609,6.2378889 C 14.275273,6.1312873 14.453554,6.0528545 14.645446,6.02499 L 33.069824,3.353319 C 33.683886,3.2641521 34.25479,3.6798698 34.344378,4.2843478 L 34.63508,6.1858099 L 34.892029,8.002245 C 34.940155,8.5790356 34.530513,9.101469 33.940444,9.187149 L 32.40075,9.408748 L 32.472887,9.930857 C 32.478876,9.971268 32.481562,10.01304 32.480165,10.052792 L 32.721725,11.697271 C 38.092484,13.749701 42.258427,18.644117 43.173982,24.822092 C 44.509495,33.833845 38.435212,42.186825 29.610971,43.468196 C 20.786734,44.749563 12.5408,38.474097 11.205285,29.462346 C 10.30509,23.388015 12.768117,17.610529 17.175004,14.098447 L 16.812162,11.674877 L 15.994491,11.791018 C 13.448306,13.372456 9.61578,16.320588 8.6370349,20.225799 C 7.0294115,26.640403 10.671499,30.893089 10.048771,32.602763 C 10.043387,32.617546 10.030285,32.639171 10.022127,32.654056 C 9.587097,33.39931 5.7828049,34.275395 5.7828049,34.275395 C 5.7827993,34.275399 4.2477855,23.319399 4.525009,20.598911 C 4.7882113,18.016579 7.3483295,10.338804 13.725626,7.4675106 L 13.693032,7.281806 C 13.631443,6.8662272 13.812351,6.4724119 14.130609,6.2378889 z "
       id="path6939"
       sodipodi:nodetypes="cccccccccccssscccssscsccc" />
    <path
       style="fill:url(#linearGradient1443);fill-opacity:1;fill-rule:evenodd;stroke:none;stroke-width:1pt;stroke-linecap:butt;stroke-linejoin:miter;stroke-opacity:1;display:inline"
       d="M 18.182229,10.464558 C 18.182229,10.464558 9.977209,14.210529 8.4759071,20.200757 C 6.8682806,26.615371 10.50487,30.871982 9.882142,32.581659 C 9.606515,33.338373 5.617396,34.244432 5.617396,34.244432 C 5.617396,34.244432 4.0859554,23.295689 4.363179,20.5752 C 4.6404667,17.854713 7.4675072,9.473871 14.620782,7.0211611 C 18.159685,5.8077512 19.742623,5.5387824 19.742623,5.5387824 L 18.182229,10.464558 z "
       id="path2506"
       sodipodi:nodetypes="csscsscc" />
    <path
       sodipodi:type="arc"
       style="color:#000000;fill:url(#radialGradient1865);fill-opacity:1;fill-rule:evenodd;stroke:none;stroke-width:6;stroke-linecap:butt;stroke-linejoin:miter;marker:none;marker-start:none;marker-mid:none;marker-end:none;stroke-miterlimit:4;stroke-dasharray:none;stroke-dashoffset:10.99997587;stroke-opacity:1;visibility:visible;display:inline;overflow:visible"
       id="path1627"
       sodipodi:cx="972.38483"
       sodipodi:cy="659.48334"
       sodipodi:rx="26.809002"
       sodipodi:ry="31.277168"
       d="M 999.19383 659.48334 A 26.809002 31.277168 0 1 1  945.57582,659.48334 A 26.809002 31.277168 0 1 1  999.19383 659.48334 z"
       transform="matrix(-0.59629,8.658728e-2,7.735364e-2,0.521967,555.8319,-401.3097)" />
    <rect
       style="color:#000000;fill:url(#linearGradient1439);fill-opacity:1;fill-rule:evenodd;stroke:none;stroke-width:6;stroke-linecap:butt;stroke-linejoin:miter;marker:none;marker-start:none;marker-mid:none;marker-end:none;stroke-miterlimit:4;stroke-dasharray:none;stroke-dashoffset:10.99997587;stroke-opacity:1;visibility:visible;display:inline;overflow:visible"
       id="rect2502"
       width="15.734862"
       height="4.4903021"
       x="-30.496178"
       y="12.738864"
       rx="0.95352143"
       ry="0.78653723"
       transform="matrix(-0.989621,0.143703,0.146595,0.989197,0,0)" />
    <rect
       style="opacity:0.30973451;color:#000000;fill:#000000;fill-opacity:1;fill-rule:evenodd;stroke:none;stroke-width:6;stroke-linecap:butt;stroke-linejoin:miter;marker:none;marker-start:none;marker-mid:none;marker-end:none;stroke-miterlimit:4;stroke-dasharray:none;stroke-dashoffset:10.99997587;stroke-opacity:1;visibility:visible;display:inline;overflow:visible"
       id="rect2541"
       width="15.734862"
       height="4.4903021"
       x="-30.504118"
       y="10.744272"
       rx="0.95352143"
       ry="0.78653723"
       transform="matrix(-0.989621,0.143703,0.146595,0.989197,0,0)" />
    <rect
       style="color:#000000;fill:url(#linearGradient2315);fill-opacity:1;fill-rule:evenodd;stroke:none;stroke-width:6;stroke-linecap:butt;stroke-linejoin:miter;marker:none;marker-start:none;marker-mid:none;marker-end:none;stroke-miterlimit:4;stroke-dasharray:none;stroke-dashoffset:10.99997587;stroke-opacity:1;visibility:visible;display:inline;overflow:visible"
       id="rect2504"
       width="20.864988"
       height="5.8942456"
       x="-33.188412"
       y="8.0234652"
       rx="1.1200334"
       ry="1.1030321"
       transform="matrix(-0.989621,0.143703,0.146595,0.989197,0,0)" />
    <path
       style="opacity:1;color:#000000;fill:none;fill-opacity:1;fill-rule:evenodd;stroke:#000000;stroke-width:0.2250865;stroke-linecap:round;stroke-linejoin:miter;marker:none;marker-start:none;marker-mid:none;marker-end:none;stroke-miterlimit:4;stroke-dasharray:none;stroke-dashoffset:0;stroke-opacity:1;visibility:visible;display:inline;overflow:visible"
       d="M 25.691614,23.390467 C 25.650233,23.403703 25.622127,23.443235 25.602828,23.484009 C 25.597347,23.497111 25.59171,23.517729 25.589183,23.532308 C 25.587667,23.544157 25.584906,23.566794 25.585525,23.579218 C 25.58582,23.582349 25.586668,23.587446 25.587106,23.590598 L 25.924017,26.014659 L 23.527412,26.347754 C 23.505741,26.352044 23.47789,26.367438 23.460674,26.38023 C 23.456535,26.383656 23.44608,26.390531 23.442285,26.394387 C 23.440477,26.396416 23.435595,26.40503 23.433881,26.407155 C 23.429028,26.413813 23.421012,26.425275 23.417072,26.432693 C 23.401393,26.465822 23.387251,26.511069 23.392946,26.552049 L 23.57801,27.883576 C 23.58029,27.895948 23.590084,27.91642 23.594323,27.92771 C 23.59784,27.93595 23.60459,27.952968 23.609054,27.960465 C 23.615397,27.970104 23.62602,27.983747 23.63377,27.991831 C 23.647884,28.005236 23.672817,28.022828 23.690027,28.030414 C 23.697547,28.033269 23.713684,28.036022 23.721566,28.03763 C 23.732207,28.039193 23.752082,28.04435 23.763092,28.043459 L 26.159697,27.710364 L 27.346002,36.245791 C 27.34644,36.248943 27.347013,36.254078 27.347584,36.257172 C 27.354566,36.287475 27.372501,36.321833 27.390195,36.344053 C 27.425448,36.384387 27.478527,36.412978 27.531083,36.405674 L 29.228678,36.169732 C 29.239514,36.167587 29.257229,36.157205 29.267039,36.152801 C 29.274185,36.149103 29.28896,36.142053 29.295415,36.137256 C 29.299555,36.133829 29.310011,36.126956 29.313805,36.123099 C 29.315613,36.121069 29.320495,36.112457 29.322209,36.11033 C 29.333534,36.094795 29.348166,36.067133 29.354245,36.047876 C 29.356495,36.039446 29.358348,36.021233 29.359485,36.012347 C 29.360734,35.997325 29.365335,35.981198 29.363144,35.965436 L 28.176839,27.43001 L 30.48357,27.109406 C 30.494635,27.107868 30.511848,27.096339 30.521932,27.092473 C 30.52929,27.089169 30.543613,27.081373 30.550308,27.076929 C 30.554612,27.073731 30.564727,27.066419 30.568698,27.062773 C 30.587671,27.043492 30.610439,27.013673 30.619122,26.986162 C 30.621373,26.977732 30.623225,26.95952 30.624363,26.950632 C 30.625362,26.938615 30.619215,26.917635 30.618036,26.905111 L 30.432972,25.573584 C 30.432095,25.567279 30.431205,25.556884 30.429808,25.550823 C 30.426519,25.538966 30.418621,25.517358 30.413495,25.506689 C 30.406563,25.493764 30.396473,25.474556 30.387196,25.463943 C 30.38526,25.461921 30.377646,25.455865 30.375629,25.453949 C 30.373539,25.452143 30.366224,25.445651 30.364062,25.443956 C 30.344004,25.42975 30.311775,25.411667 30.287834,25.408149 C 30.277079,25.40718 30.258955,25.412163 30.24789,25.413701 L 27.941159,25.734305 L 27.604248,23.310244 C 27.60162,23.291329 27.593388,23.271208 27.586354,23.254729 C 27.583791,23.249395 27.576181,23.238354 27.573204,23.233355 C 27.565276,23.221306 27.547,23.201572 27.53692,23.191997 C 27.534829,23.190191 27.527514,23.183699 27.525352,23.182004 C 27.523123,23.180425 27.516077,23.173472 27.513785,23.172012 C 27.509082,23.169337 27.497149,23.165574 27.49223,23.163407 C 27.484712,23.160553 27.468573,23.157798 27.460691,23.15619 C 27.450051,23.154627 27.430177,23.14947 27.419167,23.150361 L 25.721572,23.386303 C 25.713274,23.387456 25.699373,23.387984 25.691614,23.390467 z "
       id="rect2317" />
  </g>
</svg>
