<?xml version="1.0" encoding="UTF-8" standalone="no"?>
<!-- Created with Inkscape (http://www.inkscape.org/) -->
<svg
   xmlns:dc="http://purl.org/dc/elements/1.1/"
   xmlns:cc="http://web.resource.org/cc/"
   xmlns:rdf="http://www.w3.org/1999/02/22-rdf-syntax-ns#"
   xmlns:svg="http://www.w3.org/2000/svg"
   xmlns="http://www.w3.org/2000/svg"
   xmlns:xlink="http://www.w3.org/1999/xlink"
   xmlns:sodipodi="http://inkscape.sourceforge.net/DTD/sodipodi-0.dtd"
   xmlns:inkscape="http://www.inkscape.org/namespaces/inkscape"
   width="16"
   height="8"
   id="svg2"
   sodipodi:version="0.32"
   inkscape:version="0.43"
   version="1.0"
   sodipodi:docbase="/home/yekcim/Desktop/SVG/Weapons"
   sodipodi:docname="mine.svg"
   inkscape:export-filename="H:\Nouveau dossier\mine.png"
   inkscape:export-xdpi="90"
   inkscape:export-ydpi="90"
   inkscape:output_extension="org.inkscape.output.svg.inkscape">
  <defs
     id="defs4">
    <linearGradient
       id="linearGradient6702">
      <stop
         style="stop-color:#171e17;stop-opacity:1;"
         offset="0"
         id="stop6704" />
      <stop
         style="stop-color:#5b795b;stop-opacity:1;"
         offset="1"
         id="stop6706" />
    </linearGradient>
    <linearGradient
       id="linearGradient3068">
      <stop
         style="stop-color:#e99b9b;stop-opacity:1;"
         offset="0"
         id="stop3070" />
      <stop
         id="stop2231"
         offset="0.5"
         style="stop-color:#d12e2e;stop-opacity:1;" />
      <stop
         id="stop2229"
         offset="1"
         style="stop-color:#701919;stop-opacity:1;" />
    </linearGradient>
    <linearGradient
       y2="6.5585165"
       x2="-2.8344789"
       y1="27.333847"
       x1="41.192932"
       gradientTransform="matrix(0.856254,0,0,1.241166,-0.324073,4.659196)"
       gradientUnits="userSpaceOnUse"
       id="linearGradient2265"
       xlink:href="#linearGradient6702"
       inkscape:collect="always" />
    <linearGradient
       y2="12.319957"
       x2="27.874987"
       y1="17.745342"
       x1="53.448353"
       gradientTransform="matrix(0.856254,0,0,1.241166,0.32353,5.214284)"
       gradientUnits="userSpaceOnUse"
       id="linearGradient2263"
       xlink:href="#linearGradient6702"
       inkscape:collect="always" />
    <radialGradient
       r="14.984542"
       fy="0.49001426"
       fx="22.96941"
       cy="0.49001426"
       cx="22.96941"
       gradientTransform="matrix(0.834938,0,0,0.283632,0.955599,14.75831)"
       gradientUnits="userSpaceOnUse"
       id="radialGradient2243"
       xlink:href="#linearGradient3068"
       inkscape:collect="always" />
  </defs>
  <sodipodi:namedview
     id="base"
     pagecolor="#ffffff"
     bordercolor="#666666"
     borderopacity="1.0"
     inkscape:pageopacity="0.0"
     inkscape:pageshadow="2"
     inkscape:zoom="30.572726"
     inkscape:cx="13.246297"
     inkscape:cy="1.7263485"
     inkscape:document-units="px"
     inkscape:current-layer="layer1"
     showgrid="false"
     showguides="true"
     inkscape:guide-bbox="true"
     inkscape:window-width="1280"
     inkscape:window-height="821"
     inkscape:window-x="0"
     inkscape:window-y="25" />
  <metadata
     id="metadata7">
    <rdf:RDF>
      <cc:Work
         rdf:about="">
        <dc:format>image/svg+xml</dc:format>
        <dc:type
           rdf:resource="http://purl.org/dc/dcmitype/StillImage" />
      </cc:Work>
    </rdf:RDF>
  </metadata>
  <g
     inkscape:label="Calque 1"
     inkscape:groupmode="layer"
     id="layer1">
    <g
       id="g1495"
       inkscape:label="Calque 1"
       transform="matrix(0.35092,0,0,0.35092,-0.433279,-4.243223)">
      <path
         id="path1355"
         d="M 23.84375,13.375 C 19.237528,13.400716 14.722554,15.087559 12.15625,17.9375 C 12.125639,17.933717 12.076665,17.941502 12.0625,17.9375 C 12.044142,17.954244 4.0924898,20.65781 3.28125,21.15625 C 3.2756435,21.15998 3.2546549,21.184065 3.25,21.1875 C 2.1304633,22.067529 2.0052754,27.653633 2.90625,28.84375 C 3.1644596,28.960275 3.4269902,29.075204 3.6875,29.1875 C 3.7167774,29.201471 3.7502977,29.204185 3.78125,29.21875 C 3.8028312,29.228002 3.8221534,29.240777 3.84375,29.25 C 3.8667135,29.260697 3.8824316,29.270267 3.90625,29.28125 C 4.0429586,29.339426 4.1751881,29.411738 4.3125,29.46875 C 4.338776,29.48024 4.3792283,29.488302 4.40625,29.5 C 4.4279771,29.508971 4.4470081,29.522308 4.46875,29.53125 C 4.5035243,29.546169 4.5265486,29.547273 4.5625,29.5625 C 4.5842628,29.5714 4.6032226,29.584879 4.625,29.59375 C 4.6666472,29.61126 4.7068297,29.638369 4.75,29.65625 C 4.7658065,29.662646 4.7966858,29.649869 4.8125,29.65625 C 4.8608164,29.676143 4.9185773,29.698437 4.96875,29.71875 C 5.0215482,29.739848 5.0721182,29.760323 5.125,29.78125 C 5.1391854,29.786887 5.1419274,29.806835 5.15625,29.8125 C 5.1963825,29.828344 5.2410699,29.828004 5.28125,29.84375 C 5.3521639,29.871445 5.425887,29.909222 5.5,29.9375 C 5.5311161,29.949525 5.562606,29.956784 5.59375,29.96875 C 5.6810074,30.001733 5.7522034,30.028848 5.84375,30.0625 C 5.8657867,30.070834 5.8841997,30.085445 5.90625,30.09375 C 5.9269422,30.101308 5.9478431,30.117412 5.96875,30.125 C 6.0533283,30.156721 6.1339743,30.187462 6.21875,30.21875 C 6.2707819,30.2372 6.3217308,30.231408 6.375,30.25 C 6.3857015,30.253918 6.3955454,30.277339 6.40625,30.28125 C 6.4375042,30.292115 6.4683247,30.301592 6.5,30.3125 C 6.520604,30.31998 6.5418847,30.305046 6.5625,30.3125 C 6.5905499,30.32211 6.6278745,30.33411 6.65625,30.34375 C 6.6784476,30.351728 6.6965394,30.367052 6.71875,30.375 C 6.74202,30.382852 6.757765,30.39838 6.78125,30.40625 C 6.8664402,30.436604 6.9458721,30.47008 7.03125,30.5 C 7.0409536,30.503171 7.052762,30.496827 7.0625,30.5 C 18.574545,34.5269 31.788152,34.598669 42.9375,29.90625 C 42.957269,29.89856 42.980464,29.88265 43,29.875 C 43.186858,29.795992 43.376818,29.737942 43.5625,29.65625 C 43.575401,29.650838 43.580981,29.630383 43.59375,29.625 C 43.757936,29.552574 43.899263,29.480783 44.0625,29.40625 C 44.171174,29.357523 44.279059,29.326263 44.375,29.28125 C 44.487983,29.228562 44.606242,29.178708 44.71875,29.125 C 44.800429,29.08451 44.86885,29.035635 44.9375,29 C 44.98841,28.975333 45.04294,28.962378 45.09375,28.9375 C 45.105403,28.931217 45.113866,28.912313 45.125,28.90625 C 45.214623,28.86226 45.316942,28.825897 45.40625,28.78125 C 45.412361,28.772286 45.400297,28.759484 45.40625,28.75 C 45.426246,28.737513 45.424713,28.727429 45.4375,28.71875 C 46.162082,27.469113 45.647839,22.265095 44.8125,21.15625 C 44.805435,21.160653 44.788333,21.151853 44.78125,21.15625 C 43.818566,20.340267 36.653527,18.031013 36,17.8125 C 35.994472,17.806452 35.974293,17.818535 35.96875,17.8125 C 33.136422,14.728734 28.441575,13.375 23.9375,13.375 C 23.901149,13.375 23.880091,13.374797 23.84375,13.375 z "
         style="color:#000000;fill:none;fill-opacity:1;fill-rule:evenodd;stroke:#000000;stroke-width:1.70979141;stroke-linecap:round;stroke-linejoin:round;marker:none;marker-start:none;marker-mid:none;marker-end:none;stroke-miterlimit:4;stroke-dasharray:none;stroke-dashoffset:0;stroke-opacity:1;visibility:visible;display:inline;overflow:visible" />
      <path
         sodipodi:nodetypes="cccssccc"
         id="path6714"
         d="M 35.938331,17.814326 C 35.336496,18.055495 12.623059,18.137854 12.07026,17.930685 C 12.05131,17.947969 3.5863011,20.832128 3.2401438,21.194284 C 3.2401438,21.194284 2.9446883,28.764206 2.9190487,28.771217 C 2.912483,28.773363 9.8687854,32.882578 23.977538,32.882578 C 38.24346,32.882578 45.123103,28.950985 45.464153,28.693645 L 44.821963,21.194284 C 44.02174,20.379872 35.958667,17.833686 35.938331,17.814326 z "
         style="color:#000000;fill:url(#linearGradient2263);fill-opacity:1;fill-rule:evenodd;stroke:none;stroke-width:1px;stroke-linecap:butt;stroke-linejoin:miter;marker:none;marker-start:none;marker-mid:none;marker-end:none;stroke-miterlimit:4;stroke-dasharray:none;stroke-dashoffset:0;stroke-opacity:1;visibility:visible;display:inline;overflow:visible" />
      <path
         sodipodi:nodetypes="ccccc"
         id="path6684"
         d="M 3.2803588,21.156355 C 2.1360759,21.967691 2.0113189,27.655446 2.9193878,28.854934 C 16.139718,34.820999 32.437713,35.258311 45.39328,28.78158 C 46.175468,27.634246 45.663359,22.185678 44.802464,21.118144 C 35.843104,26.74588 14.562034,26.963699 3.2803588,21.156355 z "
         style="fill:url(#linearGradient2265);fill-opacity:1;fill-rule:evenodd;stroke:none;stroke-width:1px;stroke-linecap:butt;stroke-linejoin:miter;stroke-opacity:1" />
      <path
         sodipodi:nodetypes="czc"
         id="path2248"
         d="M 2.4308506,24.899777 C 3.3973931,25.257199 10.735812,29.61763 23.984154,29.61763 C 37.312137,29.61763 44.530267,25.170991 45.582551,24.754908"
         style="opacity:1;color:#000000;fill:none;fill-opacity:1;fill-rule:evenodd;stroke:#000000;stroke-width:0.12457872;stroke-linecap:round;stroke-linejoin:round;marker:none;marker-start:none;marker-mid:none;marker-end:none;stroke-miterlimit:4;stroke-dasharray:none;stroke-dashoffset:0;stroke-opacity:1;visibility:visible;display:inline;overflow:visible" />
      <path
         style="opacity:1;color:#000000;fill:none;fill-opacity:1;fill-rule:evenodd;stroke:#000000;stroke-width:0.12457872;stroke-linecap:round;stroke-linejoin:round;marker:none;marker-start:none;marker-mid:none;marker-end:none;stroke-miterlimit:4;stroke-dasharray:none;stroke-dashoffset:0;stroke-opacity:1;visibility:visible;display:inline;overflow:visible"
         d="M 2.5729101,22.837356 C 3.5394526,23.194778 10.643297,27.397276 23.891639,27.397276 C 37.219622,27.397276 44.306917,23.081472 45.359201,22.665389"
         id="path1337"
         sodipodi:nodetypes="czc" />
      <path
         sodipodi:nodetypes="czc"
         id="path7623"
         d="M 2.4579476,26.912979 C 3.4244901,27.270402 10.643297,31.761668 23.891639,31.761668 C 37.219622,31.761668 44.699423,27.184193 45.751707,26.76811"
         style="opacity:1;color:#000000;fill:none;fill-opacity:1;fill-rule:evenodd;stroke:#000000;stroke-width:0.12457872;stroke-linecap:round;stroke-linejoin:round;marker:none;marker-start:none;marker-mid:none;marker-end:none;stroke-miterlimit:4;stroke-dasharray:none;stroke-dashoffset:0;stroke-opacity:1;visibility:visible;display:inline;overflow:visible" />
      <path
         sodipodi:nodetypes="czczc"
         id="path6661"
         d="M 12.1239,17.936281 C 12.676699,18.174364 16.349636,20.591636 23.939982,20.591636 C 31.698366,20.591636 35.39166,18.098889 35.993497,17.821733 C 33.162961,14.725054 28.452504,13.389699 23.939615,13.389699 C 19.286694,13.389699 14.707727,15.053471 12.1239,17.936281 z "
         style="color:#000000;fill:url(#radialGradient2243);fill-opacity:1;fill-rule:evenodd;stroke:none;stroke-width:1.22375;stroke-linecap:round;stroke-linejoin:round;marker:none;marker-start:none;marker-mid:none;marker-end:none;stroke-miterlimit:4;stroke-dasharray:none;stroke-dashoffset:0;stroke-opacity:1;visibility:visible;display:inline;overflow:visible" />
    </g>
    <path
       transform="matrix(0.35092,0,0,0.35092,-0.433279,-4.243223)"
       sodipodi:nodetypes="czczc"
       id="path1504"
       d="M 12.1239,17.936281 C 12.676699,18.174364 16.349636,20.591636 23.939982,20.591636 C 31.698366,20.591636 35.39166,18.098889 35.993497,17.821733 C 33.162961,14.725054 28.452504,13.389699 23.939615,13.389699 C 19.286694,13.389699 14.707727,15.053471 12.1239,17.936281 z "
       style="color:#000000;fill:#000000;fill-opacity:1;fill-rule:evenodd;stroke:none;stroke-width:1.22375;stroke-linecap:round;stroke-linejoin:round;marker:none;marker-start:none;marker-mid:none;marker-end:none;stroke-miterlimit:4;stroke-dasharray:none;stroke-dashoffset:0;stroke-opacity:1;visibility:visible;display:inline;overflow:visible;opacity:0.62686567" />
  </g>
</svg>
