<?xml version="1.0" encoding="UTF-8" standalone="no"?>
<!-- Created with Inkscape (http://www.inkscape.org/) -->
<svg
   xmlns:dc="http://purl.org/dc/elements/1.1/"
   xmlns:cc="http://web.resource.org/cc/"
   xmlns:rdf="http://www.w3.org/1999/02/22-rdf-syntax-ns#"
   xmlns:svg="http://www.w3.org/2000/svg"
   xmlns="http://www.w3.org/2000/svg"
   xmlns:xlink="http://www.w3.org/1999/xlink"
   xmlns:sodipodi="http://inkscape.sourceforge.net/DTD/sodipodi-0.dtd"
   xmlns:inkscape="http://www.inkscape.org/namespaces/inkscape"
   width="48"
   height="48"
   id="svg2"
   sodipodi:version="0.32"
   inkscape:version="0.43"
   version="1.0"
   sodipodi:docbase="/home/yekcim/Desktop/SVG/Weapons"
   sodipodi:docname="ninjarope_ico.svg"
   inkscape:output_extension="org.inkscape.output.svg.inkscape">
  <defs
     id="defs4">
    <linearGradient
       id="linearGradient2213">
      <stop
         style="stop-color:#4e4e4e;stop-opacity:1;"
         offset="0"
         id="stop2215" />
      <stop
         style="stop-color:#c2c2c2;stop-opacity:1;"
         offset="1"
         id="stop2217" />
    </linearGradient>
    <linearGradient
       id="linearGradient3178">
      <stop
         id="stop3180"
         offset="0"
         style="stop-color:#8b4a22;stop-opacity:1;" />
      <stop
         id="stop3182"
         offset="1"
         style="stop-color:#382920;stop-opacity:1;" />
    </linearGradient>
    <linearGradient
       inkscape:collect="always"
       xlink:href="#linearGradient2213"
       id="linearGradient5184"
       gradientUnits="userSpaceOnUse"
       gradientTransform="matrix(-1.116048e-2,1.311816e-2,1.426863e-2,1.222372e-2,17.05578,10.94193)"
       x1="361.05121"
       y1="-106.73854"
       x2="-242.73485"
       y2="-763.38727" />
    <linearGradient
       inkscape:collect="always"
       xlink:href="#linearGradient2213"
       id="linearGradient5186"
       gradientUnits="userSpaceOnUse"
       gradientTransform="matrix(-1.116048e-2,1.311816e-2,1.426863e-2,1.222372e-2,17.05578,10.94193)"
       x1="361.05121"
       y1="-106.73854"
       x2="-242.73485"
       y2="-763.38727" />
    <linearGradient
       inkscape:collect="always"
       xlink:href="#linearGradient3178"
       id="linearGradient5188"
       gradientUnits="userSpaceOnUse"
       gradientTransform="translate(-213.2525,50.67385)"
       x1="-190.97371"
       y1="-457.23273"
       x2="-95.078705"
       y2="-172.19228" />
  </defs>
  <sodipodi:namedview
     id="base"
     pagecolor="#ffffff"
     bordercolor="#666666"
     borderopacity="1.0"
     inkscape:pageopacity="0.0"
     inkscape:pageshadow="2"
     inkscape:zoom="5.9367504"
     inkscape:cx="25.104887"
     inkscape:cy="20.184673"
     inkscape:document-units="px"
     inkscape:current-layer="layer1"
     inkscape:window-width="1430"
     inkscape:window-height="821"
     inkscape:window-x="0"
     inkscape:window-y="25" />
  <metadata
     id="metadata7">
    <rdf:RDF>
      <cc:Work
         rdf:about="">
        <dc:format>image/svg+xml</dc:format>
        <dc:type
           rdf:resource="http://purl.org/dc/dcmitype/StillImage" />
      </cc:Work>
    </rdf:RDF>
  </metadata>
  <g
     inkscape:label="Calque 1"
     inkscape:groupmode="layer"
     id="layer1">
    <g
       id="g5173"
       transform="matrix(1.007124,-1.842773e-2,1.842773e-2,1.007124,-0.953645,0.6182)">
      <path
         sodipodi:nodetypes="ccccscccsssccsscscccscscccscccsccccssc"
         inkscape:export-ydpi="26.59079"
         inkscape:export-xdpi="26.59079"
         inkscape:export-filename="/home/olivier/inkscape/wormux/ninjaHook.png"
         id="path2213"
         d="M 3.9164654,6.5208916 C 3.9239322,6.5121883 3.931759,6.5034118 3.9392272,6.4948801 C 5.193658,5.1803609 6.3267015,5.930333 6.6303631,6.0259002 L 6.806355,5.7947238 C 6.8063568,5.7947269 7.2562406,0.39708261 11.345709,1.3613651 C 15.514055,2.3442463 14.609866,7.2622529 14.609866,7.2622529 C 14.609865,7.262254 13.760854,6.1206815 12.66951,5.6938818 C 12.952321,5.6326904 13.973885,5.3060042 13.973885,5.3060042 C 13.973885,5.3060039 13.336971,1.8682172 10.09742,2.1959419 C 7.924216,2.4157934 7.967668,5.6072165 8.0017525,6.189716 C 8.0303976,6.6792769 8.102118,6.9756434 8.9008589,7.6599138 C 10.050262,8.6445902 13.528047,11.670733 14.814682,12.790719 C 15.799654,12.085887 13.467418,14.735967 14.065824,13.637793 C 12.650652,12.430461 8.714259,9.0759677 8.1471217,8.6364588 C 7.4998472,8.1348482 7.2694972,8.1762695 6.8829501,8.0483215 C 6.1314284,7.7995688 5.0667536,8.3504621 4.3476823,8.9947551 C 4.6668135,9.5076635 5.2267928,9.9349077 5.5750572,10.17412 C 6.866878,11.061428 8.2334898,11.601836 8.2334918,11.601833 L 8.5724467,10.483099 C 8.5724467,10.483099 8.9643028,11.783566 9.9937315,12.688108 C 9.1932386,12.637111 6.0981217,11.676459 4.1900173,10.041819 C 4.0399278,9.9132387 3.9102562,9.7844483 3.8005757,9.6540363 C 3.5315596,10.030542 3.3348719,10.426287 3.2481947,10.788679 C 2.828189,12.544791 5.1113998,14.641499 6.7470989,14.702692 C 6.9707231,14.259495 6.8489605,14.084923 6.9770288,13.348266 C 7.342979,14.367078 7.9574317,15.172877 8.6756343,15.859982 C 7.3798932,15.998142 3.9894805,14.713938 2.9794653,12.934822 C 2.1264635,11.432279 2.083845,10.183732 3.1747411,8.7722398 C 2.9850318,7.9513869 3.4462331,7.0691968 3.9164654,6.5208916 z M 4.5303357,7.2046331 C 4.5031282,7.2357173 4.475928,7.2688008 4.4487232,7.3035082 C 4.3234203,7.4633843 4.2537294,7.6451603 4.2304632,7.8406711 C 4.747581,7.4386379 5.4277168,7.0579803 5.8107722,6.8463676 C 5.3004706,6.6853309 4.9128705,6.7676432 4.5303357,7.2046331 z M 15.301797,13.956361 C 15.299385,13.959057 15.297392,13.961643 15.294993,13.964358 C 15.287712,13.972597 15.280322,13.981603 15.273164,13.990016 C 14.662339,14.707987 15.916852,13.268956 15.301797,13.956361 z "
         style="fill:url(#linearGradient5184);fill-opacity:1;fill-rule:evenodd;stroke:#000000;stroke-width:1.30128825;stroke-linecap:butt;stroke-linejoin:miter;stroke-miterlimit:4;stroke-dasharray:none;stroke-opacity:1" />
      <path
         sodipodi:nodetypes="ccccccccsssccsscscccscscccscccsccccssc"
         inkscape:export-ydpi="26.59079"
         inkscape:export-xdpi="26.59079"
         inkscape:export-filename="/home/olivier/inkscape/wormux/ninjaHook.png"
         id="path3147"
         d="M 3.9164652,6.5208919 C 3.923932,6.5121886 3.931759,6.5034118 3.9392269,6.4948804 C 5.193658,5.1803609 6.3267015,5.930333 6.6303631,6.0259002 L 6.8063576,5.7947261 C 6.8063568,5.7947269 7.2562406,0.39708261 11.345712,1.3613674 C 15.514055,2.3442465 14.609866,7.2622531 14.609866,7.2622531 C 14.609865,7.2622542 13.760854,6.1206817 12.66951,5.693882 C 12.952321,5.6326907 13.973885,5.3060044 13.973885,5.3060044 C 13.973885,5.3060042 13.336971,1.8682172 10.097422,2.1959443 C 7.9242158,2.4157937 7.967668,5.6072165 8.0017525,6.189716 C 8.0303976,6.6792769 8.1021206,6.9756458 8.9008589,7.6599138 C 10.050262,8.6445904 13.528047,11.670733 14.814682,12.790719 C 15.799654,12.085887 13.467418,14.735967 14.065824,13.637793 C 12.650652,12.430462 8.7142593,9.0759679 8.1471217,8.6364588 C 7.4998472,8.1348482 7.2694975,8.1762692 6.8829501,8.0483215 C 6.1314286,7.7995686 5.0667536,8.3504621 4.3476823,8.9947551 C 4.6668133,9.5076637 5.2267928,9.9349077 5.5750572,10.17412 C 6.8668778,11.061428 8.23349,11.601836 8.233492,11.601834 L 8.5724468,10.4831 C 8.5724468,10.4831 8.964303,11.783567 9.9937315,12.688108 C 9.1932389,12.637111 6.098122,11.676459 4.1900173,10.041819 C 4.0399278,9.9132387 3.9102562,9.7844483 3.8005757,9.6540363 C 3.5315596,10.030542 3.3348719,10.426287 3.2481973,10.788681 C 2.828189,12.544791 5.1114001,14.641499 6.7470991,14.702693 C 6.9707231,14.259495 6.8489607,14.084923 6.977029,13.348266 C 7.3429793,14.367078 7.9574319,15.172878 8.6756343,15.859982 C 7.3798934,15.998142 3.9894803,14.713938 2.9794653,12.934822 C 2.1264635,11.432279 2.083845,10.183732 3.1747411,8.7722398 C 2.9850318,7.9513869 3.4462329,7.069197 3.9164652,6.5208919 z M 4.5303355,7.2046334 C 4.5031282,7.2357173 4.475928,7.2688008 4.4487232,7.3035082 C 4.3234201,7.4633846 4.2537294,7.6451603 4.2304632,7.8406711 C 4.747581,7.4386379 5.4277168,7.0579803 5.8107722,6.8463676 C 5.3004706,6.6853309 4.9128705,6.7676432 4.5303355,7.2046334 z M 15.301797,13.956361 C 15.299385,13.959057 15.297392,13.961643 15.294993,13.964358 C 15.287712,13.972598 15.280322,13.981603 15.273164,13.990016 C 14.662339,14.707987 15.916852,13.268956 15.301797,13.956361 z "
         style="fill:url(#linearGradient5186);fill-opacity:1;fill-rule:evenodd;stroke:#000000;stroke-width:0;stroke-linecap:butt;stroke-linejoin:miter;stroke-miterlimit:4;stroke-dasharray:none;stroke-opacity:1" />
      <g
         inkscape:export-ydpi="22.175474"
         inkscape:export-xdpi="22.175474"
         inkscape:export-filename="/home/olivier/inkscape/wormux/ninjagun.png"
         transform="matrix(-2.704569e-2,-2.174147e-2,-2.174147e-2,2.704569e-2,19.31844,30.87835)"
         id="g3207">
        <path
           style="opacity:1;color:#000000;fill:#404040;fill-opacity:1;fill-rule:evenodd;stroke:#000000;stroke-width:37.5;stroke-linecap:butt;stroke-linejoin:bevel;marker:none;marker-start:none;marker-mid:none;marker-end:none;stroke-miterlimit:4;stroke-dasharray:none;stroke-dashoffset:75;stroke-opacity:1;visibility:visible;display:inline;overflow:visible"
           d="M 387.45016,-441.55045 C 372.30277,-441.02711 360.26266,-429.69916 360.26266,-415.7067 L 360.26266,-372.92545 L -305.29984,-372.92545 L -305.29984,-396.7067 C -305.29984,-404.01667 -310.85098,-409.8942 -317.73734,-409.8942 C -324.62369,-409.8942 -330.17484,-404.01666 -330.17484,-396.7067 L -330.17484,-372.92545 L -338.73734,-372.92545 C -354.08127,-372.92545 -367.11169,-366.01587 -372.20609,-356.23795 L -372.64359,-356.23795 C -372.64359,-356.23795 -415.91698,-351.32831 -416.95609,-330.8942 C -418.43148,-301.88062 -419.08109,-265.42545 -419.08109,-265.42545 C -419.08109,-265.42544 -433.84743,-216.85888 -465.51859,-221.0817 C -497.18975,-225.30452 -744.23057,-273.88606 -767.45609,-282.3317 C -790.68159,-290.77735 -794.92484,-265.42545 -794.92484,-265.42545 C -794.92484,-265.42544 -801.26045,-134.5341 -809.70609,-102.86295 C -816.34683,-77.960115 -811.81205,-60.612955 -799.14359,-60.612955 C -786.47513,-60.612955 -410.62456,-126.07762 -397.95609,-130.30045 C -385.28763,-134.52327 -362.07426,-229.55045 -336.73734,-229.55045 C -333.80857,-229.55045 -325.84621,-229.49356 -314.33109,-229.4567 L -314.33109,-180.61295 C -314.33109,-173.30298 -308.77994,-167.42546 -301.89359,-167.42545 C -295.00724,-167.42545 -289.45609,-173.30297 -289.45609,-180.61295 L -289.45609,-229.3942 C -179.20037,-229.11179 82.20765,-228.99026 104.54391,-235.86295 C 109.48322,-237.38274 112.84367,-242.07789 115.04391,-248.7067 L 412.70016,-248.7067 C 432.51076,-248.7067 448.48144,-260.25339 448.48141,-274.5817 L 448.48141,-347.0817 C 448.48141,-360.41038 434.6664,-371.31157 416.79391,-372.7692 L 416.79391,-415.7067 C 416.79391,-430.035 404.20319,-441.55045 388.54391,-441.55045 C 388.1769,-441.55045 387.8137,-441.56301 387.45016,-441.55045 z "
           id="rect3194" />
        <rect
           style="opacity:1;color:#000000;fill:#404040;fill-opacity:1;fill-rule:evenodd;stroke:none;stroke-width:12.53625011;stroke-linecap:butt;stroke-linejoin:bevel;marker:none;marker-start:none;marker-mid:none;marker-end:none;stroke-miterlimit:4;stroke-dasharray:none;stroke-dashoffset:75;stroke-opacity:1;visibility:visible;display:inline;overflow:visible"
           id="rect3188"
           width="24.860487"
           height="111.54992"
           x="-315.41766"
           y="-280.7525"
           rx="35.759212"
           ry="13.1949" />
        <rect
           style="opacity:1;color:#000000;fill:#aeabab;fill-opacity:1;fill-rule:evenodd;stroke:none;stroke-width:12.53625011;stroke-linecap:butt;stroke-linejoin:bevel;marker:none;marker-start:none;marker-mid:none;marker-end:none;stroke-miterlimit:4;stroke-dasharray:none;stroke-dashoffset:75;stroke-opacity:1;visibility:visible;display:inline;overflow:visible"
           id="rect3190"
           width="24.860487"
           height="111.54992"
           x="-331.25323"
           y="-411.65994"
           rx="35.759212"
           ry="13.1949" />
        <rect
           style="opacity:1;color:#000000;fill:#c0c0c0;fill-opacity:1;fill-rule:evenodd;stroke:none;stroke-width:12.53625011;stroke-linecap:butt;stroke-linejoin:bevel;marker:none;marker-start:none;marker-mid:none;marker-end:none;stroke-miterlimit:4;stroke-dasharray:none;stroke-dashoffset:75;stroke-opacity:1;visibility:visible;display:inline;overflow:visible"
           id="rect3186"
           width="56.531647"
           height="115.77274"
           x="359.17801"
           y="-443.33109"
           rx="35.759212"
           ry="25.863363" />
        <rect
           style="opacity:1;color:#000000;fill:#838383;fill-opacity:1;fill-rule:evenodd;stroke:none;stroke-width:12.53625011;stroke-linecap:butt;stroke-linejoin:bevel;marker:none;marker-start:none;marker-mid:none;marker-end:none;stroke-miterlimit:4;stroke-dasharray:none;stroke-dashoffset:75;stroke-opacity:1;visibility:visible;display:inline;overflow:visible"
           id="rect3174"
           width="822.97369"
           height="124.21838"
           x="-375.5929"
           y="-374.71027"
           rx="35.759209"
           ry="25.863363" />
        <path
           style="fill:url(#linearGradient5188);fill-opacity:1;fill-rule:evenodd;stroke:none;stroke-width:1pt;stroke-linecap:butt;stroke-linejoin:miter;stroke-opacity:1"
           d="M -373.71968,-357.99641 C -373.71968,-357.99641 -417.02019,-353.09359 -418.0593,-332.65948 C -419.53469,-303.64589 -420.17071,-267.20575 -420.17071,-267.20575 C -420.17071,-267.20575 -434.95058,-218.64331 -466.62174,-222.86613 C -498.2929,-227.08895 -745.32794,-275.6514 -768.55346,-284.09704 C -791.77897,-292.54268 -796.0018,-267.20575 -796.0018,-267.20575 C -796.0018,-267.20575 -802.33603,-136.29829 -810.78167,-104.62714 C -817.42242,-79.724316 -812.89308,-62.398926 -800.22462,-62.398926 C -787.55615,-62.398926 -411.72507,-127.85265 -399.0566,-132.07548 C -386.38814,-136.2983 -363.16262,-231.31177 -337.8257,-231.31177 C -312.48877,-231.31177 76.010779,-229.20037 103.45912,-237.64601 C 130.90746,-246.09165 109.79335,-351.66218 109.79335,-351.66218 L -373.71968,-357.99641 z "
           id="path3176"
           sodipodi:nodetypes="czcsscssssscc" />
      </g>
    </g>
  </g>
</svg>
