<?xml version="1.0" encoding="UTF-8" standalone="no"?>
<!-- Created with Inkscape (http://www.inkscape.org/) -->
<svg
   xmlns:dc="http://purl.org/dc/elements/1.1/"
   xmlns:cc="http://web.resource.org/cc/"
   xmlns:rdf="http://www.w3.org/1999/02/22-rdf-syntax-ns#"
   xmlns:svg="http://www.w3.org/2000/svg"
   xmlns="http://www.w3.org/2000/svg"
   xmlns:xlink="http://www.w3.org/1999/xlink"
   xmlns:sodipodi="http://sodipodi.sourceforge.net/DTD/sodipodi-0.dtd"
   xmlns:inkscape="http://www.inkscape.org/namespaces/inkscape"
   width="48"
   height="48"
   id="svg2"
   sodipodi:version="0.32"
   inkscape:version="0.44"
   version="1.0"
   sodipodi:docbase="/home/yekcim/Desktop"
   sodipodi:docname="shotgun_ico.svg">
  <defs
     id="defs4">
    <linearGradient
       inkscape:collect="always"
       id="linearGradient3739">
      <stop
         style="stop-color:white;stop-opacity:1;"
         offset="0"
         id="stop3741" />
      <stop
         style="stop-color:white;stop-opacity:0;"
         offset="1"
         id="stop3743" />
    </linearGradient>
    <linearGradient
       inkscape:collect="always"
       id="linearGradient3720">
      <stop
         style="stop-color:#520;stop-opacity:1;"
         offset="0"
         id="stop3722" />
      <stop
         style="stop-color:#520;stop-opacity:0;"
         offset="1"
         id="stop3724" />
    </linearGradient>
    <linearGradient
       id="linearGradient3706">
      <stop
         style="stop-color:#ac9d93;stop-opacity:1;"
         offset="0"
         id="stop3708" />
      <stop
         id="stop3714"
         offset="0.5"
         style="stop-color:#d0c7c1;stop-opacity:1;" />
      <stop
         style="stop-color:#66584f;stop-opacity:1;"
         offset="1"
         id="stop3710" />
    </linearGradient>
    <radialGradient
       inkscape:collect="always"
       xlink:href="#linearGradient3739"
       id="radialGradient3745"
       cx="247.28052"
       cy="171.21825"
       fx="247.28052"
       fy="171.21825"
       r="47.542194"
       gradientTransform="matrix(0.391633,-5.978365e-2,7.9493e-3,5.207451e-2,163.682,255.3283)"
       gradientUnits="userSpaceOnUse" />
    <linearGradient
       inkscape:collect="always"
       xlink:href="#linearGradient3706"
       id="linearGradient3950"
       gradientUnits="userSpaceOnUse"
       x1="441.59201"
       y1="241.86978"
       x2="441.59698"
       y2="252.6711" />
    <linearGradient
       inkscape:collect="always"
       xlink:href="#linearGradient3720"
       id="linearGradient3952"
       gradientUnits="userSpaceOnUse"
       x1="200.03528"
       y1="247.24471"
       x2="90.433731"
       y2="318.86935" />
    <linearGradient
       inkscape:collect="always"
       xlink:href="#linearGradient3706"
       id="linearGradient3954"
       gradientUnits="userSpaceOnUse"
       x1="441.59201"
       y1="241.86978"
       x2="441.59698"
       y2="252.6711" />
    <linearGradient
       inkscape:collect="always"
       xlink:href="#linearGradient3706"
       id="linearGradient3956"
       gradientUnits="userSpaceOnUse"
       x1="441.59201"
       y1="257.36649"
       x2="441.59201"
       y2="268.63727" />
    <linearGradient
       inkscape:collect="always"
       xlink:href="#linearGradient3706"
       id="linearGradient3958"
       gradientUnits="userSpaceOnUse"
       x1="278.95743"
       y1="241.35983"
       x2="280.50882"
       y2="285.50104" />
  </defs>
  <sodipodi:namedview
     id="base"
     pagecolor="#ffffff"
     bordercolor="#666666"
     borderopacity="1.0"
     inkscape:pageopacity="0.0"
     inkscape:pageshadow="2"
     inkscape:zoom="2.8"
     inkscape:cx="50.882728"
     inkscape:cy="6.1849623"
     inkscape:document-units="px"
     inkscape:current-layer="layer1"
     showguides="true"
     inkscape:guide-bbox="true"
     width="48px"
     height="48px"
     inkscape:window-width="1270"
     inkscape:window-height="945"
     inkscape:window-x="0"
     inkscape:window-y="25" />
  <metadata
     id="metadata7">
    <rdf:RDF>
      <cc:Work
         rdf:about="">
        <dc:format>image/svg+xml</dc:format>
        <dc:type
           rdf:resource="http://purl.org/dc/dcmitype/StillImage" />
      </cc:Work>
    </rdf:RDF>
  </metadata>
  <g
     inkscape:label="Calque 1"
     inkscape:groupmode="layer"
     id="layer1"
     transform="translate(-3.869385,-3.446274)">
    <g
       id="g3912"
       transform="matrix(-9.766899e-2,-7.728278e-2,-8.658272e-2,0.109423,83.1567,21.53379)">
      <path
         id="path3819"
         d="M 560.53125,238.5625 L 560.53125,241.875 L 331.5,241.875 L 331.5,241.90625 C 310.40444,238.16075 268.1777,240.04442 240.40625,249.28125 C 225.43877,253.69954 207.84381,269.52388 196.46875,258.375 L 86.875,272.03125 C 88.676025,290.93055 92.527824,304.71607 91.9375,329.59375 L 183.34375,291.71875 C 187.18015,292.00746 198.85491,295.43157 209.09375,298.28125 C 214.85918,285.60489 217.52033,271.09627 243.875,270.53125 C 244.23932,270.54898 244.58794,270.57941 245,270.59375 C 250.87952,294.35539 264.18025,277.22386 280.8125,270.1875 C 299.61529,269.68085 318.85378,268.97562 329.28125,268.625 C 329.676,269.76818 330.20551,270.88299 330.84375,271.96875 C 330.8909,272.15244 330.96335,272.32768 331.125,272.5 C 331.16014,272.56071 331.21928,272.62669 331.34375,272.6875 C 338.25423,278.42901 408.66021,277.59249 415.625,271.875 C 415.73878,271.78518 415.8581,271.68772 415.9375,271.59375 C 415.9437,271.5862 415.93152,271.57007 415.9375,271.5625 C 416.10078,271.36421 416.1845,271.18593 416.1875,270.96875 C 416.36599,270.5397 416.51817,270.07762 416.65625,269.625 C 416.77075,269.25272 416.87656,268.85906 416.96875,268.46875 L 463.65625,268.46875 C 463.98327,269.11598 464.40999,269.51567 464.9375,269.5 L 475.71875,269.5 C 476.24626,269.51567 476.67298,269.11598 477,268.46875 L 564.15625,268.46875 C 567.92399,268.51486 568.09843,257.375 564.15625,257.375 L 561.65625,257.375 L 561.65625,252.65625 L 564,252.65625 C 567.88885,252.62723 567.50706,241.90401 564,241.875 L 562.625,241.875 L 562.625,238.5625 L 560.53125,238.5625 z M 416.53125,252.65625 L 511.65625,252.65625 L 511.65625,257.375 L 476.6875,257.375 C 476.43345,256.97626 476.14489,256.69901 475.8125,256.65625 L 475.71875,256.65625 L 464.84375,256.65625 C 464.50627,256.69437 464.22596,256.9713 463.96875,257.375 L 417.3125,257.375 C 417.11993,255.70033 416.85365,254.11021 416.53125,252.65625 z M 275.28125,270.34375 C 261.80002,276.74683 250.30556,288.23755 247.875,270.65625 C 248.02342,270.65852 248.16049,270.65425 248.3125,270.65625 C 249.06736,275.24401 250.35399,278.97969 254.0625,278.59375 C 250.44382,276.07211 250.43473,273.39357 251.8125,270.6875 C 258.08967,270.69544 266.34117,270.56291 275.28125,270.34375 z "
         style="color:black;fill:none;fill-opacity:1;fill-rule:evenodd;stroke:black;stroke-width:6;stroke-linecap:round;stroke-linejoin:round;marker:none;marker-start:none;marker-mid:none;marker-end:none;stroke-miterlimit:4;stroke-dasharray:none;stroke-dashoffset:0;stroke-opacity:1;visibility:visible;display:inline;overflow:visible" />
      <g
         id="g3791">
        <path
           style="color:black;fill:#28170b;fill-opacity:1;fill-rule:evenodd;stroke:none;stroke-width:2.31068087;stroke-linecap:round;stroke-linejoin:round;marker:none;marker-start:none;marker-mid:none;marker-end:none;stroke-miterlimit:4;stroke-dashoffset:0;stroke-opacity:1;visibility:visible;display:inline;overflow:visible"
           d="M 475.89974,256.64789 L 464.94182,256.64789 C 462.27348,256.64789 461.93696,269.59432 464.94182,269.50503 L 475.89974,269.50503 C 472.47464,269.55487 472.72192,256.74528 475.89974,256.64789 z "
           id="path3735"
           sodipodi:nodetypes="ccccc" />
        <rect
           style="opacity:1;color:black;fill:url(#linearGradient3950);fill-opacity:1;fill-rule:evenodd;stroke:none;stroke-width:2.31068087;stroke-linecap:round;stroke-linejoin:round;marker:none;marker-start:none;marker-mid:none;marker-end:none;stroke-miterlimit:4;stroke-dasharray:none;stroke-dashoffset:0;stroke-opacity:1;visibility:visible;display:inline;overflow:visible"
           id="rect1892"
           width="50.002552"
           height="21.718281"
           x="511.64227"
           y="243.73508" />
        <path
           style="opacity:1;fill:#483e37;fill-opacity:1;fill-rule:evenodd;stroke:none;stroke-width:1px;stroke-linecap:butt;stroke-linejoin:miter;stroke-opacity:1"
           d="M 254.69294,266.52731 C 251.3608,270.65935 248.58493,274.77085 254.04869,278.57822 C 250.00299,278.99925 248.84958,274.5499 248.11272,269.39913 L 254.69294,266.52731 z "
           id="path3696"
           sodipodi:nodetypes="cccc" />
        <path
           style="fill:#2b1100;fill-opacity:1;fill-rule:evenodd;stroke:none;stroke-width:1px;stroke-linecap:butt;stroke-linejoin:miter;stroke-opacity:1"
           d="M 86.873119,272.01934 C 88.674141,290.91865 92.514206,304.72036 91.923882,329.59804 L 183.34269,291.71732 C 187.1791,292.00603 198.86274,295.43363 209.10158,298.28331 C 214.98271,285.35257 217.60115,270.50261 245.46707,270.50411 C 306.11518,271.48348 344.22015,259.63398 344.45967,248.54177 C 344.69194,237.78503 278.76002,236.53773 240.41631,249.29091 C 225.44883,253.7092 207.84973,269.53116 196.47467,258.38228 L 86.873119,272.01934 z "
           id="path2805"
           sodipodi:nodetypes="cccccsccc" />
        <path
           style="fill:#28170b;fill-opacity:1;fill-rule:evenodd;stroke:none;stroke-width:1px;stroke-linecap:butt;stroke-linejoin:miter;stroke-opacity:1"
           d="M 330.82496,250.30106 C 328.70562,252.97657 325.80693,264.04007 331.09282,272.44039 C 331.28044,275.02674 416.08693,277.90284 416.18284,270.95318 C 419.0386,264.08846 416.53574,253.93152 414.63436,249.29091 L 330.82496,250.30106 z "
           id="path2800"
           sodipodi:nodetypes="ccccc" />
        <path
           style="fill:url(#linearGradient3952);fill-opacity:1;fill-rule:evenodd;stroke:none;stroke-width:1px;stroke-linecap:butt;stroke-linejoin:miter;stroke-opacity:1"
           d="M 90.433734,274.43579 C 91.860074,289.4033 93.007218,309.17255 92.539708,328.8747 L 182.87001,290.28836 C 185.9083,290.517 200.4646,294.49423 208.57335,296.75106 C 213.23098,286.51043 217.07245,270.7092 241.41401,269.70024 C 289.44492,270.47587 316.46583,263.11184 316.65552,254.32724 C 316.83947,245.80833 265.12906,244.06291 234.76235,254.16292 C 224.67645,259.17725 204.4252,269.18226 195.4166,260.35278 L 90.433734,274.43579 z "
           id="path1882"
           sodipodi:nodetypes="cccccsccc" />
        <path
           style="fill:#917c6f;fill-opacity:1;fill-rule:evenodd;stroke:none;stroke-width:1px;stroke-linecap:butt;stroke-linejoin:miter;stroke-opacity:1"
           d="M 286.4375,266.34375 C 286.97635,266.582 286.49466,266.85893 284.5625,267.1875 C 267.28235,270.12603 250.57202,292.54348 247.78125,270.1875 C 247.62015,269.66907 247.90239,269.20064 248.53125,268.78125 C 246.36515,269.48549 244.65757,269.42437 244.97914,270.45923 C 251.70029,297.92435 268.21947,271.3286 288.34375,267.90625 C 292.52195,267.1957 290.84352,266.64031 286.4375,266.34375 z "
           id="path1894"
           sodipodi:nodetypes="cscccsc" />
        <path
           style="color:black;fill:url(#linearGradient3954);fill-opacity:1;fill-rule:evenodd;stroke:none;stroke-width:2.31068087;stroke-linecap:round;stroke-linejoin:round;marker:none;marker-start:none;marker-mid:none;marker-end:none;stroke-miterlimit:4;stroke-dashoffset:0;stroke-opacity:1;visibility:visible;display:inline;overflow:visible"
           d="M 331.48538,241.86978 L 564.01486,241.86978 C 567.52189,241.89879 567.90371,252.64208 564.01486,252.6711 L 331.48538,252.6711 L 331.48538,241.86978 z "
           id="rect1888"
           sodipodi:nodetypes="ccccc" />
        <path
           style="color:black;fill:url(#linearGradient3956);fill-opacity:1;fill-rule:evenodd;stroke:none;stroke-width:2.31068087;stroke-linecap:round;stroke-linejoin:round;marker:none;marker-start:none;marker-mid:none;marker-end:none;stroke-miterlimit:4;stroke-dashoffset:0;stroke-opacity:1;visibility:visible;display:inline;overflow:visible"
           d="M 350.52295,257.37213 L 564.17021,257.37213 C 568.11241,257.37213 567.93795,268.52992 564.17021,268.48381 L 350.52295,268.48381 L 350.52295,257.37213 z "
           id="rect1890"
           sodipodi:nodetypes="ccccc" />
        <path
           style="opacity:1;color:black;fill:url(#linearGradient3958);fill-opacity:1;fill-rule:evenodd;stroke:none;stroke-width:2.31068087;stroke-linecap:round;stroke-linejoin:round;marker:none;marker-start:none;marker-mid:none;marker-end:none;stroke-miterlimit:4;stroke-dasharray:none;stroke-dashoffset:0;stroke-opacity:1;visibility:visible;display:inline;overflow:visible"
           d="M 240.16377,254.84674 C 237.4413,242.86493 326.65201,238.99592 331.33004,242.72492 C 338.77387,248.65863 333.10793,268.72622 333.35034,268.48381 C 317.01954,268.99642 255.91258,271.41619 242.61223,270.48244 L 240.16377,254.84674 z "
           id="path1884"
           sodipodi:nodetypes="csccc" />
        <path
           style="fill:#520;fill-opacity:1;fill-rule:evenodd;stroke:none;stroke-width:1px;stroke-linecap:butt;stroke-linejoin:miter;stroke-opacity:1"
           d="M 330.82496,249.05106 C 332.55135,253.44476 333.2435,264.80894 330.82496,271.45825 C 328.46794,278.86603 416.08693,277.90284 416.18284,270.95318 C 419.0386,264.08846 417.07408,252.68152 415.1727,248.04091 C 386.58431,247.241 360.26211,247.08203 330.82496,249.05106 z "
           id="path1886"
           sodipodi:nodetypes="ccccc" />
        <rect
           style="opacity:1;color:black;fill:#483737;fill-opacity:1;fill-rule:evenodd;stroke:none;stroke-width:2;stroke-linecap:round;stroke-linejoin:round;marker:none;marker-start:none;marker-mid:none;marker-end:none;stroke-miterlimit:4;stroke-dasharray:none;stroke-dashoffset:0;stroke-opacity:1;visibility:visible;display:inline;overflow:visible"
           id="rect2803"
           width="28.789347"
           height="6.5659914"
           x="295.72217"
           y="244.74522"
           ry="3.0304577"
           rx="5.8083773" />
        <path
           style="color:black;fill:#502d16;fill-opacity:1;fill-rule:evenodd;stroke:none;stroke-width:2.31068087;stroke-linecap:round;stroke-linejoin:round;marker:none;marker-start:none;marker-mid:none;marker-end:none;stroke-miterlimit:4;stroke-dashoffset:0;stroke-opacity:1;visibility:visible;display:inline;overflow:visible"
           d="M 464.748,256.64789 L 475.70592,256.64789 C 478.37426,256.64789 478.71078,269.59432 475.70592,269.50503 L 464.748,269.50503 C 468.1731,269.55487 467.92582,256.74528 464.748,256.64789 z "
           id="rect3730"
           sodipodi:nodetypes="ccccc" />
        <path
           sodipodi:nodetypes="cc"
           id="path3765"
           d="M 339.285,251.56375 C 340.96932,257.11959 341.16493,264.94827 339.285,270.1253"
           style="fill:none;fill-opacity:1;fill-rule:evenodd;stroke:#4b2106;stroke-width:2;stroke-linecap:round;stroke-linejoin:round;stroke-miterlimit:4;stroke-dasharray:none;stroke-opacity:1" />
        <path
           style="fill:none;fill-opacity:1;fill-rule:evenodd;stroke:#4b2106;stroke-width:2;stroke-linecap:round;stroke-linejoin:round;stroke-miterlimit:4;stroke-dasharray:none;stroke-opacity:1"
           d="M 390.42396,251.69002 C 392.10828,257.24586 392.30389,265.07454 390.42396,270.25157"
           id="path3759"
           sodipodi:nodetypes="cc" />
        <path
           style="fill:none;fill-opacity:1;fill-rule:evenodd;stroke:#4b2106;stroke-width:2;stroke-linecap:round;stroke-linejoin:round;stroke-miterlimit:4;stroke-dasharray:none;stroke-opacity:1"
           d="M 364.53881,251.56375 C 366.22313,257.11959 366.41874,264.94827 364.53881,270.1253"
           id="path3769"
           sodipodi:nodetypes="cc" />
        <path
           style="fill:none;fill-opacity:1;fill-rule:evenodd;stroke:#4b2106;stroke-width:2;stroke-linecap:round;stroke-linejoin:round;stroke-miterlimit:4;stroke-dasharray:none;stroke-opacity:1"
           d="M 382.09021,251.69002 C 383.77453,257.24586 383.97014,265.07454 382.09021,270.25157"
           id="path3755"
           sodipodi:nodetypes="cc" />
        <path
           sodipodi:nodetypes="cc"
           id="path3773"
           d="M 356.45759,251.56375 C 358.14191,257.11959 358.33752,264.94827 356.45759,270.1253"
           style="fill:none;fill-opacity:1;fill-rule:evenodd;stroke:#4b2106;stroke-width:2;stroke-linecap:round;stroke-linejoin:round;stroke-miterlimit:4;stroke-dasharray:none;stroke-opacity:1" />
        <path
           sodipodi:nodetypes="cc"
           id="path3751"
           d="M 407.34402,251.69002 C 409.02834,257.24586 409.22395,265.07454 407.34402,270.25157"
           style="fill:none;fill-opacity:1;fill-rule:evenodd;stroke:#4b2106;stroke-width:2;stroke-linecap:round;stroke-linejoin:round;stroke-miterlimit:4;stroke-dasharray:none;stroke-opacity:1" />
        <path
           style="fill:none;fill-opacity:1;fill-rule:evenodd;stroke:#4b2106;stroke-width:2;stroke-linecap:round;stroke-linejoin:round;stroke-miterlimit:4;stroke-dasharray:none;stroke-opacity:1"
           d="M 348.12383,251.56375 C 349.80815,257.11959 350.00376,264.94827 348.12383,270.1253"
           id="path3777"
           sodipodi:nodetypes="cc" />
        <path
           sodipodi:nodetypes="cc"
           id="path3763"
           d="M 399.26279,251.69002 C 400.94711,257.24586 401.14272,265.07454 399.26279,270.25157"
           style="fill:none;fill-opacity:1;fill-rule:evenodd;stroke:#4b2106;stroke-width:2;stroke-linecap:round;stroke-linejoin:round;stroke-miterlimit:4;stroke-dasharray:none;stroke-opacity:1" />
        <path
           sodipodi:nodetypes="cc"
           id="path3781"
           d="M 373.37764,251.56375 C 375.06196,257.11959 375.25757,264.94827 373.37764,270.1253"
           style="fill:none;fill-opacity:1;fill-rule:evenodd;stroke:#4b2106;stroke-width:2;stroke-linecap:round;stroke-linejoin:round;stroke-miterlimit:4;stroke-dasharray:none;stroke-opacity:1" />
        <path
           sodipodi:type="star"
           style="opacity:1;color:black;fill:#8d8d8d;fill-opacity:1;fill-rule:evenodd;stroke:none;stroke-width:2;stroke-linecap:round;stroke-linejoin:round;marker:none;marker-start:none;marker-mid:none;marker-end:none;stroke-miterlimit:4;stroke-dasharray:none;stroke-dashoffset:0;stroke-opacity:1;visibility:visible;display:inline;overflow:visible"
           id="path3783"
           sodipodi:sides="6"
           sodipodi:cx="243.61607"
           sodipodi:cy="268.32199"
           sodipodi:r1="1.3776138"
           sodipodi:r2="0.68880689"
           sodipodi:arg1="0.78539816"
           sodipodi:arg2="1.3089969"
           inkscape:flatsided="true"
           inkscape:rounded="0.11"
           inkscape:randomized="0"
           d="M 244.59019,269.29611 C 244.48304,269.40326 243.40589,269.69188 243.25952,269.65266 C 243.11315,269.61344 242.32462,268.82492 242.2854,268.67854 C 242.24618,268.53217 242.5348,267.45502 242.64195,267.34787 C 242.74911,267.24072 243.82625,266.9521 243.97263,266.99132 C 244.119,267.03054 244.90753,267.81906 244.94675,267.96544 C 244.98597,268.11181 244.69735,269.18896 244.59019,269.29611 z "
           transform="translate(0.691964,0.15625)" />
        <rect
           style="opacity:1;color:black;fill:#ad9e94;fill-opacity:1;fill-rule:evenodd;stroke:none;stroke-width:2;stroke-linecap:round;stroke-linejoin:round;marker:none;marker-start:none;marker-mid:none;marker-end:none;stroke-miterlimit:4;stroke-dasharray:none;stroke-dashoffset:0;stroke-opacity:1;visibility:visible;display:inline;overflow:visible"
           id="rect3785"
           width="2.0982141"
           height="3.4375"
           x="560.53571"
           y="238.56754" />
      </g>
    </g>
  </g>
</svg>
