<?xml version="1.0" encoding="UTF-8" standalone="no"?>
<!-- Created with Inkscape (http://www.inkscape.org/) -->
<svg
   xmlns:dc="http://purl.org/dc/elements/1.1/"
   xmlns:cc="http://web.resource.org/cc/"
   xmlns:rdf="http://www.w3.org/1999/02/22-rdf-syntax-ns#"
   xmlns:svg="http://www.w3.org/2000/svg"
   xmlns="http://www.w3.org/2000/svg"
   xmlns:xlink="http://www.w3.org/1999/xlink"
   xmlns:sodipodi="http://inkscape.sourceforge.net/DTD/sodipodi-0.dtd"
   xmlns:inkscape="http://www.inkscape.org/namespaces/inkscape"
   id="svg2"
   sodipodi:version="0.32"
   inkscape:version="0.43"
   width="48"
   height="48"
   version="1.0"
   sodipodi:docbase="/home/yekcim/Desktop/SVG/Weapons"
   sodipodi:docname="skipturn_ico.svg"
   inkscape:output_extension="org.inkscape.output.svg.inkscape">
  <metadata
     id="metadata7">
    <rdf:RDF>
      <cc:Work
         rdf:about="">
        <dc:format>image/svg+xml</dc:format>
        <dc:type
           rdf:resource="http://purl.org/dc/dcmitype/StillImage" />
      </cc:Work>
    </rdf:RDF>
  </metadata>
  <defs
     id="defs5">
    <linearGradient
       id="linearGradient5510">
      <stop
         style="stop-color:#ffffff;stop-opacity:1;"
         offset="0"
         id="stop5512" />
      <stop
         style="stop-color:#000000;stop-opacity:1;"
         offset="1"
         id="stop5514" />
    </linearGradient>
    <radialGradient
       inkscape:collect="always"
       xlink:href="#linearGradient5510"
       id="radialGradient5788"
       gradientUnits="userSpaceOnUse"
       gradientTransform="matrix(0.60928,6.932175e-17,-6.932175e-17,0.60928,-40.2544,31.44204)"
       cx="-131.56419"
       cy="44.250492"
       fx="-131.56419"
       fy="44.250492"
       r="21.944925" />
    <radialGradient
       inkscape:collect="always"
       xlink:href="#linearGradient5510"
       id="radialGradient5790"
       gradientUnits="userSpaceOnUse"
       gradientTransform="matrix(0.60928,-1.739374e-16,-1.844851e-17,0.60928,-40.2544,31.44204)"
       cx="-131.56419"
       cy="44.250492"
       fx="-131.56419"
       fy="44.250492"
       r="21.944925" />
    <radialGradient
       inkscape:collect="always"
       xlink:href="#linearGradient5510"
       id="radialGradient5792"
       gradientUnits="userSpaceOnUse"
       gradientTransform="matrix(0.60928,-9.123048e-16,-8.866833e-17,0.60928,-40.2544,31.44204)"
       cx="-131.56419"
       cy="44.250492"
       fx="-131.56419"
       fy="44.250492"
       r="21.944925" />
    <radialGradient
       inkscape:collect="always"
       xlink:href="#linearGradient5510"
       id="radialGradient5794"
       gradientUnits="userSpaceOnUse"
       gradientTransform="matrix(0.60928,-8.848906e-16,-9.112902e-17,0.60928,-40.2544,31.44204)"
       cx="-131.56419"
       cy="44.250492"
       fx="-131.56419"
       fy="44.250492"
       r="21.944925" />
    <radialGradient
       inkscape:collect="always"
       xlink:href="#linearGradient5510"
       id="radialGradient5796"
       gradientUnits="userSpaceOnUse"
       gradientTransform="matrix(0.60928,-8.848906e-16,-9.112902e-17,0.60928,-40.2544,31.44204)"
       cx="-131.56419"
       cy="44.250492"
       fx="-131.56419"
       fy="44.250492"
       r="21.944925" />
    <radialGradient
       inkscape:collect="always"
       xlink:href="#linearGradient5510"
       id="radialGradient5798"
       gradientUnits="userSpaceOnUse"
       gradientTransform="matrix(0.60928,1.042499e-16,-6.932175e-17,0.60928,-40.2544,31.44204)"
       cx="-131.56419"
       cy="44.250492"
       fx="-131.56419"
       fy="44.250492"
       r="21.944925" />
    <radialGradient
       inkscape:collect="always"
       xlink:href="#linearGradient5510"
       id="radialGradient5800"
       gradientUnits="userSpaceOnUse"
       gradientTransform="matrix(0.60928,1.697298e-16,-6.932175e-17,0.60928,-40.2544,31.44204)"
       cx="-131.56419"
       cy="44.250492"
       fx="-131.56419"
       fy="44.250492"
       r="21.944925" />
  </defs>
  <sodipodi:namedview
     inkscape:window-height="821"
     inkscape:window-width="1280"
     inkscape:pageshadow="2"
     inkscape:pageopacity="0.0"
     borderopacity="1.0"
     bordercolor="#666666"
     pagecolor="#ffffff"
     id="base"
     inkscape:zoom="8.0200777"
     inkscape:cx="28.332385"
     inkscape:cy="25.889263"
     inkscape:window-x="0"
     inkscape:window-y="25"
     inkscape:current-layer="svg2" />
  <path
     style="color:#000000;fill:none;fill-opacity:1;fill-rule:evenodd;stroke:#000000;stroke-width:2.51590919;stroke-linecap:round;stroke-linejoin:round;marker:none;marker-start:none;marker-mid:none;marker-end:none;stroke-miterlimit:4;stroke-dasharray:none;stroke-dashoffset:0;stroke-opacity:1;visibility:visible;display:inline;overflow:visible"
     d="M 23.75767,2.0926409 C 18.255968,2.1924594 12.783161,4.3513222 8.6023125,8.5321703 C 0.039936587,17.094547 0.039936487,31.059242 8.6023125,39.621618 C 17.164689,48.183994 31.129384,48.183994 39.691761,39.621618 C 48.254136,31.059243 48.254137,17.094546 39.691761,8.5321703 C 35.310233,4.1506416 29.523455,1.9880311 23.75767,2.0926409 z M 23.458157,7.7534364 C 27.851398,7.5672563 32.309901,9.1772603 35.678287,12.545644 C 41.367116,18.234473 41.979666,27.025166 37.535267,33.391748 L 14.802232,10.718616 C 17.40599,8.8907433 20.419187,7.8822239 23.458157,7.7534364 z M 10.788758,14.732089 L 33.521793,37.405222 C 27.149985,41.912486 18.329567,41.321924 12.615788,35.608145 C 6.914483,29.906841 6.3123429,21.0994 10.788758,14.732089 z "
     id="path5844" />
  <path
     style="color:#000000;fill:#770000;fill-opacity:1;fill-rule:evenodd;stroke:none;stroke-width:16.74999428;stroke-linecap:round;stroke-linejoin:round;marker:none;marker-start:none;marker-mid:none;marker-end:none;stroke-miterlimit:4;stroke-dasharray:none;stroke-dashoffset:0;stroke-opacity:1;visibility:visible;display:inline;overflow:visible"
     d="M 39.695435,8.5194281 C 31.133059,-0.042947913 17.157485,-0.035448313 8.5951085,8.5269282 C 0.032732087,17.089304 0.032732087,31.057378 8.5951085,39.619754 C 17.157485,48.182131 31.133059,48.18963 39.695435,39.627253 C 48.25781,31.064877 48.25781,17.081805 39.695435,8.5194281 z M 35.675715,12.539147 C 42.063173,18.926604 42.063173,29.220077 35.675715,35.607534 C 29.288258,41.994992 19.002284,41.987491 12.614827,35.600034 C 6.2273707,29.212578 6.2273705,18.934104 12.614827,12.546647 C 19.002284,6.15919 29.288258,6.1516906 35.675715,12.539147 z "
     id="path3090" />
  <path
     sodipodi:type="arc"
     style="opacity:1;color:#000000;fill:none;fill-opacity:1;fill-rule:evenodd;stroke:#770000;stroke-width:16.74999428;stroke-linecap:round;stroke-linejoin:round;marker:none;marker-start:none;marker-mid:none;marker-end:none;stroke-miterlimit:4;stroke-dasharray:none;stroke-dashoffset:0;stroke-opacity:1;visibility:visible;display:inline;overflow:visible"
     id="path5622"
     sodipodi:cx="33.856155"
     sodipodi:cy="60.705338"
     sodipodi:rx="56.426926"
     sodipodi:ry="56.426926"
     d="M 90.283081 60.705338 A 56.426926 56.426926 0 1 1  -22.57077,60.705338 A 56.426926 56.426926 0 1 1  90.283081 60.705338 z"
     transform="matrix(0.67772,0.67772,-0.67772,0.67772,290.5872,187.8246)" />
  <path
     style="opacity:1;color:#000000;fill:none;fill-opacity:1;fill-rule:evenodd;stroke:#770000;stroke-width:16.05389595;stroke-linecap:round;stroke-linejoin:round;marker:none;marker-start:none;marker-mid:none;marker-end:none;stroke-miterlimit:4;stroke-dasharray:none;stroke-dashoffset:0;stroke-opacity:1;visibility:visible;display:inline;overflow:visible"
     d="M 234.14918,213.66927 L 310.63256,289.91362"
     id="path5624" />
  <g
     id="g5776"
     transform="matrix(0.867914,0,0,0.867914,3.293729,4.033705)">
    <path
       sodipodi:nodetypes="czzzz"
       id="path5670"
       d="M 8.5766959,17.153841 C 7.4156869,18.037993 7.6373899,37.474916 8.5766959,38.236673 C 9.5705049,39.042626 28.453899,39.61986 29.659532,38.236673 C 30.904271,36.808624 30.865165,18.448252 29.659532,17.153841 C 28.497441,15.906183 9.6935539,16.303313 8.5766959,17.153841 z "
       style="color:#000000;fill:#d1d1d1;fill-opacity:1;fill-rule:evenodd;stroke:#000000;stroke-width:0.86270088;stroke-linecap:round;stroke-linejoin:round;marker:none;marker-start:none;marker-mid:none;marker-end:none;stroke-miterlimit:4;stroke-dasharray:none;stroke-dashoffset:0;stroke-opacity:1;visibility:visible;display:inline;overflow:visible" />
    <path
       sodipodi:nodetypes="czzzz"
       id="path5672"
       d="M 29.660183,17.153831 C 30.030503,15.732383 38.744776,7.6432759 39.339283,8.4017769 C 39.975928,9.2140449 39.993336,28.115506 39.339283,29.484615 C 38.702634,30.817288 30.336082,39.381761 29.660183,38.23667 C 29.023537,37.158072 29.268166,18.658566 29.660183,17.153831 z "
       style="color:#000000;fill:#d1d1d1;fill-opacity:1;fill-rule:evenodd;stroke:#000000;stroke-width:0.86270088;stroke-linecap:round;stroke-linejoin:round;marker:none;marker-start:none;marker-mid:none;marker-end:none;stroke-miterlimit:4;stroke-dasharray:none;stroke-dashoffset:0;stroke-opacity:1;visibility:visible;display:inline;overflow:visible" />
    <path
       sodipodi:nodetypes="czzzz"
       id="path5674"
       d="M 18.265748,8.4224099 C 19.843552,7.8546199 38.469153,7.6270099 39.348582,8.4224099 C 40.270818,9.2565289 30.907286,16.361376 29.658364,17.155703 C 28.346884,17.98982 9.4977639,17.812271 8.5755319,17.155703 C 7.5934849,16.456551 16.714234,8.9807369 18.265748,8.4224099 z "
       style="color:#000000;fill:#d1d1d1;fill-opacity:1;fill-rule:evenodd;stroke:#000000;stroke-width:0.86270088;stroke-linecap:round;stroke-linejoin:round;marker:none;marker-start:none;marker-mid:none;marker-end:none;stroke-miterlimit:4;stroke-dasharray:none;stroke-dashoffset:0;stroke-opacity:1;visibility:visible;display:inline;overflow:visible" />
    <path
       d="M -91.021551 67.855286 A 21.944925 21.944925 0 1 1  -134.9114,67.855286 A 21.944925 21.944925 0 1 1  -91.021551 67.855286 z"
       sodipodi:ry="21.944925"
       sodipodi:rx="21.944925"
       sodipodi:cy="67.855286"
       sodipodi:cx="-112.96648"
       id="path5676"
       style="color:#000000;fill:url(#radialGradient5788);fill-opacity:1;fill-rule:evenodd;stroke:none;stroke-width:0.1;stroke-linecap:round;stroke-linejoin:round;marker:none;marker-start:none;marker-mid:none;marker-end:none;stroke-miterlimit:4;stroke-dasharray:none;stroke-dashoffset:0;stroke-opacity:1;visibility:visible;display:inline;overflow:visible"
       sodipodi:type="arc"
       transform="matrix(0.125771,0,0,0.125771,33.26609,19.1648)" />
    <path
       sodipodi:type="arc"
       style="color:#000000;fill:url(#radialGradient5790);fill-opacity:1;fill-rule:evenodd;stroke:none;stroke-width:0.14528497;stroke-linecap:round;stroke-linejoin:round;marker:none;marker-start:none;marker-mid:none;marker-end:none;stroke-miterlimit:4;stroke-dasharray:none;stroke-dashoffset:0;stroke-opacity:1;visibility:visible;display:inline;overflow:visible"
       id="path5678"
       sodipodi:cx="-112.96648"
       sodipodi:cy="67.855286"
       sodipodi:rx="21.944925"
       sodipodi:ry="21.944925"
       d="M -91.021551 67.855286 A 21.944925 21.944925 0 1 1  -134.9114,67.855286 A 21.944925 21.944925 0 1 1  -91.021551 67.855286 z"
       transform="matrix(7.856235e-2,-5.564977e-2,1.581854e-2,8.990994e-2,39.84044,6.532319)" />
    <path
       sodipodi:type="arc"
       style="color:#000000;fill:url(#radialGradient5792);fill-opacity:1;fill-rule:evenodd;stroke:none;stroke-width:0.14528497;stroke-linecap:round;stroke-linejoin:round;marker:none;marker-start:none;marker-mid:none;marker-end:none;stroke-miterlimit:4;stroke-dasharray:none;stroke-dashoffset:0;stroke-opacity:1;visibility:visible;display:inline;overflow:visible"
       id="path5680"
       sodipodi:cx="-112.96648"
       sodipodi:cy="67.855286"
       sodipodi:rx="21.944925"
       sodipodi:ry="21.944925"
       d="M -91.021551 67.855286 A 21.944925 21.944925 0 1 1  -134.9114,67.855286 A 21.944925 21.944925 0 1 1  -91.021551 67.855286 z"
       transform="matrix(7.690621e-2,-5.447662e-2,1.548508e-2,8.801478e-2,44.64909,16.12475)" />
    <path
       sodipodi:type="arc"
       style="color:#000000;fill:url(#radialGradient5794);fill-opacity:1;fill-rule:evenodd;stroke:none;stroke-width:0.14528497;stroke-linecap:round;stroke-linejoin:round;marker:none;marker-start:none;marker-mid:none;marker-end:none;stroke-miterlimit:4;stroke-dasharray:none;stroke-dashoffset:0;stroke-opacity:1;visibility:visible;display:inline;overflow:visible"
       id="path5682"
       sodipodi:cx="-112.96648"
       sodipodi:cy="67.855286"
       sodipodi:rx="21.944925"
       sodipodi:ry="21.944925"
       d="M -91.021551 67.855286 A 21.944925 21.944925 0 1 1  -134.9114,67.855286 A 21.944925 21.944925 0 1 1  -91.021551 67.855286 z"
       transform="matrix(7.690621e-2,-5.447662e-2,1.548508e-2,8.801478e-2,44.57877,2.601379)" />
    <path
       d="M -91.021551 67.855286 A 21.944925 21.944925 0 1 1  -134.9114,67.855286 A 21.944925 21.944925 0 1 1  -91.021551 67.855286 z"
       sodipodi:ry="21.944925"
       sodipodi:rx="21.944925"
       sodipodi:cy="67.855286"
       sodipodi:cx="-112.96648"
       id="path5684"
       style="color:#000000;fill:url(#radialGradient5796);fill-opacity:1;fill-rule:evenodd;stroke:none;stroke-width:0.14528497;stroke-linecap:round;stroke-linejoin:round;marker:none;marker-start:none;marker-mid:none;marker-end:none;stroke-miterlimit:4;stroke-dasharray:none;stroke-dashoffset:0;stroke-opacity:1;visibility:visible;display:inline;overflow:visible"
       sodipodi:type="arc"
       transform="matrix(7.690621e-2,-5.447662e-2,1.548508e-2,8.801478e-2,39.84746,20.47696)" />
    <path
       sodipodi:type="arc"
       style="color:#000000;fill:url(#radialGradient5798);fill-opacity:1;fill-rule:evenodd;stroke:none;stroke-width:0.13394094;stroke-linecap:round;stroke-linejoin:round;marker:none;marker-start:none;marker-mid:none;marker-end:none;stroke-miterlimit:4;stroke-dasharray:none;stroke-dashoffset:0;stroke-opacity:1;visibility:visible;display:inline;overflow:visible"
       id="path5686"
       sodipodi:cx="-112.96648"
       sodipodi:cy="67.855286"
       sodipodi:rx="21.944925"
       sodipodi:ry="21.944925"
       d="M -91.021551 67.855286 A 21.944925 21.944925 0 1 1  -134.9114,67.855286 A 21.944925 21.944925 0 1 1  -91.021551 67.855286 z"
       transform="matrix(0.107847,-2.327835e-2,0,8.110092e-2,31.73411,2.405209)" />
    <path
       sodipodi:type="arc"
       style="color:#000000;fill:url(#radialGradient5800);fill-opacity:1;fill-rule:evenodd;stroke:none;stroke-width:0.13394094;stroke-linecap:round;stroke-linejoin:round;marker:none;marker-start:none;marker-mid:none;marker-end:none;stroke-miterlimit:4;stroke-dasharray:none;stroke-dashoffset:0;stroke-opacity:1;visibility:visible;display:inline;overflow:visible"
       id="path5688"
       sodipodi:cx="-112.96648"
       sodipodi:cy="67.855286"
       sodipodi:rx="21.944925"
       sodipodi:ry="21.944925"
       d="M -91.021551 67.855286 A 21.944925 21.944925 0 1 1  -134.9114,67.855286 A 21.944925 21.944925 0 1 1  -91.021551 67.855286 z"
       transform="matrix(0.118132,-2.549819e-2,0,8.883453e-2,40.82768,5.873849)" />
  </g>
  <path
     style="color:#000000;fill:#770000;fill-opacity:1;fill-rule:evenodd;stroke:none;stroke-width:5.9312253;stroke-linecap:round;stroke-linejoin:round;marker:none;marker-start:none;marker-mid:none;marker-end:none;stroke-miterlimit:4;stroke-dasharray:none;stroke-dashoffset:0;stroke-opacity:1;visibility:visible;display:inline;overflow:visible"
     d="M 8.6023125,12.545644 L 35.678287,39.531764 C 36.379928,40.319096 40.479093,36.219931 39.691761,35.518291 L 12.615788,8.5321703 C 12.012263,7.8984779 7.8011003,11.779113 8.6023125,12.545644 z "
     id="path3112"
     sodipodi:nodetypes="ccccc" />
  <path
     style="fill:none;fill-opacity:0.75;fill-rule:evenodd;stroke:#000000;stroke-width:1.19142461;stroke-linecap:butt;stroke-linejoin:miter;stroke-miterlimit:4;stroke-dasharray:none;stroke-opacity:1"
     d="M 16.52676,11.613509 L 36.849273,31.876289"
     id="path5840" />
  <path
     style="fill:none;fill-opacity:0.75;fill-rule:evenodd;stroke:#000000;stroke-width:1.19142461;stroke-linecap:butt;stroke-linejoin:miter;stroke-miterlimit:4;stroke-dasharray:none;stroke-opacity:1"
     d="M 11.585859,16.327774 L 31.908372,36.590554"
     id="path5842" />
</svg>
