<?xml version="1.0" encoding="UTF-8" standalone="no"?>
<!-- Created with Inkscape (http://www.inkscape.org/) -->
<svg
   xmlns:dc="http://purl.org/dc/elements/1.1/"
   xmlns:cc="http://web.resource.org/cc/"
   xmlns:rdf="http://www.w3.org/1999/02/22-rdf-syntax-ns#"
   xmlns:svg="http://www.w3.org/2000/svg"
   xmlns="http://www.w3.org/2000/svg"
   xmlns:xlink="http://www.w3.org/1999/xlink"
   xmlns:sodipodi="http://inkscape.sourceforge.net/DTD/sodipodi-0.dtd"
   xmlns:inkscape="http://www.inkscape.org/namespaces/inkscape"
   id="svg2"
   sodipodi:version="0.32"
   inkscape:version="0.43"
   width="32"
   height="32"
   version="1.0"
   sodipodi:docbase="/home/yekcim/Desktop/SVG/Weapons"
   sodipodi:docname="skipturn.svg"
   inkscape:output_extension="org.inkscape.output.svg.inkscape">
  <metadata
     id="metadata7">
    <rdf:RDF>
      <cc:Work
         rdf:about="">
        <dc:format>image/svg+xml</dc:format>
        <dc:type
           rdf:resource="http://purl.org/dc/dcmitype/StillImage" />
      </cc:Work>
    </rdf:RDF>
  </metadata>
  <defs
     id="defs5">
    <linearGradient
       id="linearGradient5510">
      <stop
         style="stop-color:#ffffff;stop-opacity:1;"
         offset="0"
         id="stop5512" />
      <stop
         style="stop-color:#000000;stop-opacity:1;"
         offset="1"
         id="stop5514" />
    </linearGradient>
    <radialGradient
       inkscape:collect="always"
       xlink:href="#linearGradient5510"
       id="radialGradient1426"
       gradientUnits="userSpaceOnUse"
       gradientTransform="matrix(0.60928,6.932175e-17,-6.932175e-17,0.60928,-40.2544,31.44204)"
       cx="-131.56419"
       cy="44.250492"
       fx="-131.56419"
       fy="44.250492"
       r="21.944925" />
    <radialGradient
       inkscape:collect="always"
       xlink:href="#linearGradient5510"
       id="radialGradient1428"
       gradientUnits="userSpaceOnUse"
       gradientTransform="matrix(0.60928,-1.812368e-16,-2.543417e-17,0.60928,-40.2544,31.44204)"
       cx="-131.56419"
       cy="44.250492"
       fx="-131.56419"
       fy="44.250492"
       r="21.944925" />
    <radialGradient
       inkscape:collect="always"
       xlink:href="#linearGradient5510"
       id="radialGradient1430"
       gradientUnits="userSpaceOnUse"
       gradientTransform="matrix(0.60928,-9.640284e-16,-7.803295e-17,0.60928,-40.2544,31.44204)"
       cx="-131.56419"
       cy="44.250492"
       fx="-131.56419"
       fy="44.250492"
       r="21.944925" />
    <radialGradient
       inkscape:collect="always"
       xlink:href="#linearGradient5510"
       id="radialGradient1432"
       gradientUnits="userSpaceOnUse"
       gradientTransform="matrix(0.60928,-9.366142e-16,-8.049364e-17,0.60928,-40.2544,31.44204)"
       cx="-131.56419"
       cy="44.250492"
       fx="-131.56419"
       fy="44.250492"
       r="21.944925" />
    <radialGradient
       inkscape:collect="always"
       xlink:href="#linearGradient5510"
       id="radialGradient1434"
       gradientUnits="userSpaceOnUse"
       gradientTransform="matrix(0.60928,-9.366142e-16,-8.049364e-17,0.60928,-40.2544,31.44204)"
       cx="-131.56419"
       cy="44.250492"
       fx="-131.56419"
       fy="44.250492"
       r="21.944925" />
    <radialGradient
       inkscape:collect="always"
       xlink:href="#linearGradient5510"
       id="radialGradient1436"
       gradientUnits="userSpaceOnUse"
       gradientTransform="matrix(0.60928,1.064133e-16,-6.932175e-17,0.60928,-40.2544,31.44204)"
       cx="-131.56419"
       cy="44.250492"
       fx="-131.56419"
       fy="44.250492"
       r="21.944925" />
    <radialGradient
       inkscape:collect="always"
       xlink:href="#linearGradient5510"
       id="radialGradient1438"
       gradientUnits="userSpaceOnUse"
       gradientTransform="matrix(0.60928,1.722565e-16,-6.932175e-17,0.60928,-40.2544,31.44204)"
       cx="-131.56419"
       cy="44.250492"
       fx="-131.56419"
       fy="44.250492"
       r="21.944925" />
  </defs>
  <sodipodi:namedview
     inkscape:window-height="821"
     inkscape:window-width="1280"
     inkscape:pageshadow="2"
     inkscape:pageopacity="0.0"
     borderopacity="1.0"
     bordercolor="#666666"
     pagecolor="#ffffff"
     id="base"
     inkscape:zoom="5.6710513"
     inkscape:cx="48.389952"
     inkscape:cy="-8.5062666"
     inkscape:window-x="0"
     inkscape:window-y="25"
     inkscape:current-layer="svg2" />
  <path
     style="color:#000000;fill:none;fill-opacity:1;fill-rule:evenodd;stroke:#000000;stroke-width:1.65630555;stroke-linecap:round;stroke-linejoin:round;marker:none;marker-start:none;marker-mid:none;marker-end:none;stroke-miterlimit:4;stroke-dasharray:none;stroke-dashoffset:0;stroke-opacity:1;visibility:visible;display:inline;overflow:visible"
     d="M 15.955667,1.661602 C 12.333716,1.7273158 8.730788,3.148566 5.9783983,5.9009554 C 0.34150551,11.537849 0.34150544,20.731265 5.9783983,26.368158 C 11.615292,32.005051 20.808708,32.005051 26.445602,26.368158 C 32.082494,20.731266 32.082495,11.537848 26.445602,5.9009554 C 23.561098,3.0164514 19.751473,1.592734 15.955667,1.661602 z M 15.758488,5.3882893 C 18.650703,5.2657209 21.585881,6.3256393 23.8034,8.5431567 C 27.548543,12.288299 27.951805,18.075501 25.025911,22.266831 L 10.060009,7.3403643 C 11.774148,6.1370157 13.757834,5.4730744 15.758488,5.3882893 z M 7.4178071,9.9825652 L 22.38371,24.909032 C 18.188939,27.876312 12.382169,27.487525 8.6206009,23.725957 C 4.8672448,19.972602 4.4708363,14.174375 7.4178071,9.9825652 z "
     id="path5844" />
  <path
     style="color:#000000;fill:#770000;fill-opacity:1;fill-rule:evenodd;stroke:none;stroke-width:16.74999428;stroke-linecap:round;stroke-linejoin:round;marker:none;marker-start:none;marker-mid:none;marker-end:none;stroke-miterlimit:4;stroke-dasharray:none;stroke-dashoffset:0;stroke-opacity:1;visibility:visible;display:inline;overflow:visible"
     d="M 26.44802,5.8925668 C 20.811128,0.25567387 11.610549,0.2606111 5.9736557,5.8975043 C 0.33676255,11.534397 0.33676255,20.730038 5.9736557,26.366931 C 11.610549,32.003825 20.811128,32.008762 26.44802,26.371868 C 32.084913,20.734975 32.084913,11.52946 26.44802,5.8925668 z M 23.801707,8.5388795 C 28.00678,12.743952 28.00678,19.520483 23.801707,23.725555 C 19.596635,27.930628 12.825041,27.92569 8.6199682,23.720618 C 4.4148963,19.515546 4.4148962,12.748889 8.6199682,8.543817 C 12.825041,4.3387446 19.596635,4.3338075 23.801707,8.5388795 z "
     id="path3090" />
  <g
     id="g5776"
     transform="matrix(0.571376,0,0,0.571376,2.483584,2.939468)">
    <path
       sodipodi:nodetypes="czzzz"
       id="path5670"
       d="M 8.5766959,17.153841 C 7.4156869,18.037993 7.6373899,37.474916 8.5766959,38.236673 C 9.5705049,39.042626 28.453899,39.61986 29.659532,38.236673 C 30.904271,36.808624 30.865165,18.448252 29.659532,17.153841 C 28.497441,15.906183 9.6935539,16.303313 8.5766959,17.153841 z "
       style="color:#000000;fill:#d1d1d1;fill-opacity:1;fill-rule:evenodd;stroke:#000000;stroke-width:0.86270088;stroke-linecap:round;stroke-linejoin:round;marker:none;marker-start:none;marker-mid:none;marker-end:none;stroke-miterlimit:4;stroke-dasharray:none;stroke-dashoffset:0;stroke-opacity:1;visibility:visible;display:inline;overflow:visible" />
    <path
       sodipodi:nodetypes="czzzz"
       id="path5672"
       d="M 29.660183,17.153831 C 30.030503,15.732383 38.744776,7.6432759 39.339283,8.4017769 C 39.975928,9.2140449 39.993336,28.115506 39.339283,29.484615 C 38.702634,30.817288 30.336082,39.381761 29.660183,38.23667 C 29.023537,37.158072 29.268166,18.658566 29.660183,17.153831 z "
       style="color:#000000;fill:#d1d1d1;fill-opacity:1;fill-rule:evenodd;stroke:#000000;stroke-width:0.86270088;stroke-linecap:round;stroke-linejoin:round;marker:none;marker-start:none;marker-mid:none;marker-end:none;stroke-miterlimit:4;stroke-dasharray:none;stroke-dashoffset:0;stroke-opacity:1;visibility:visible;display:inline;overflow:visible" />
    <path
       sodipodi:nodetypes="czzzz"
       id="path5674"
       d="M 18.265748,8.4224099 C 19.843552,7.8546199 38.469153,7.6270099 39.348582,8.4224099 C 40.270818,9.2565289 30.907286,16.361376 29.658364,17.155703 C 28.346884,17.98982 9.4977639,17.812271 8.5755319,17.155703 C 7.5934849,16.456551 16.714234,8.9807369 18.265748,8.4224099 z "
       style="color:#000000;fill:#d1d1d1;fill-opacity:1;fill-rule:evenodd;stroke:#000000;stroke-width:0.86270088;stroke-linecap:round;stroke-linejoin:round;marker:none;marker-start:none;marker-mid:none;marker-end:none;stroke-miterlimit:4;stroke-dasharray:none;stroke-dashoffset:0;stroke-opacity:1;visibility:visible;display:inline;overflow:visible" />
    <path
       d="M -91.021551 67.855286 A 21.944925 21.944925 0 1 1  -134.9114,67.855286 A 21.944925 21.944925 0 1 1  -91.021551 67.855286 z"
       sodipodi:ry="21.944925"
       sodipodi:rx="21.944925"
       sodipodi:cy="67.855286"
       sodipodi:cx="-112.96648"
       id="path5676"
       style="color:#000000;fill:url(#radialGradient1426);fill-opacity:1;fill-rule:evenodd;stroke:none;stroke-width:0.1;stroke-linecap:round;stroke-linejoin:round;marker:none;marker-start:none;marker-mid:none;marker-end:none;stroke-miterlimit:4;stroke-dasharray:none;stroke-dashoffset:0;stroke-opacity:1;visibility:visible;display:inline;overflow:visible"
       sodipodi:type="arc"
       transform="matrix(0.125771,0,0,0.125771,33.26609,19.1648)" />
    <path
       sodipodi:type="arc"
       style="color:#000000;fill:url(#radialGradient1428);fill-opacity:1;fill-rule:evenodd;stroke:none;stroke-width:0.14528497;stroke-linecap:round;stroke-linejoin:round;marker:none;marker-start:none;marker-mid:none;marker-end:none;stroke-miterlimit:4;stroke-dasharray:none;stroke-dashoffset:0;stroke-opacity:1;visibility:visible;display:inline;overflow:visible"
       id="path5678"
       sodipodi:cx="-112.96648"
       sodipodi:cy="67.855286"
       sodipodi:rx="21.944925"
       sodipodi:ry="21.944925"
       d="M -91.021551 67.855286 A 21.944925 21.944925 0 1 1  -134.9114,67.855286 A 21.944925 21.944925 0 1 1  -91.021551 67.855286 z"
       transform="matrix(7.856235e-2,-5.564977e-2,1.581854e-2,8.990994e-2,39.84044,6.532319)" />
    <path
       sodipodi:type="arc"
       style="color:#000000;fill:url(#radialGradient1430);fill-opacity:1;fill-rule:evenodd;stroke:none;stroke-width:0.14528497;stroke-linecap:round;stroke-linejoin:round;marker:none;marker-start:none;marker-mid:none;marker-end:none;stroke-miterlimit:4;stroke-dasharray:none;stroke-dashoffset:0;stroke-opacity:1;visibility:visible;display:inline;overflow:visible"
       id="path5680"
       sodipodi:cx="-112.96648"
       sodipodi:cy="67.855286"
       sodipodi:rx="21.944925"
       sodipodi:ry="21.944925"
       d="M -91.021551 67.855286 A 21.944925 21.944925 0 1 1  -134.9114,67.855286 A 21.944925 21.944925 0 1 1  -91.021551 67.855286 z"
       transform="matrix(7.690621e-2,-5.447662e-2,1.548508e-2,8.801478e-2,44.64909,16.12475)" />
    <path
       sodipodi:type="arc"
       style="color:#000000;fill:url(#radialGradient1432);fill-opacity:1;fill-rule:evenodd;stroke:none;stroke-width:0.14528497;stroke-linecap:round;stroke-linejoin:round;marker:none;marker-start:none;marker-mid:none;marker-end:none;stroke-miterlimit:4;stroke-dasharray:none;stroke-dashoffset:0;stroke-opacity:1;visibility:visible;display:inline;overflow:visible"
       id="path5682"
       sodipodi:cx="-112.96648"
       sodipodi:cy="67.855286"
       sodipodi:rx="21.944925"
       sodipodi:ry="21.944925"
       d="M -91.021551 67.855286 A 21.944925 21.944925 0 1 1  -134.9114,67.855286 A 21.944925 21.944925 0 1 1  -91.021551 67.855286 z"
       transform="matrix(7.690621e-2,-5.447662e-2,1.548508e-2,8.801478e-2,44.57877,2.601379)" />
    <path
       d="M -91.021551 67.855286 A 21.944925 21.944925 0 1 1  -134.9114,67.855286 A 21.944925 21.944925 0 1 1  -91.021551 67.855286 z"
       sodipodi:ry="21.944925"
       sodipodi:rx="21.944925"
       sodipodi:cy="67.855286"
       sodipodi:cx="-112.96648"
       id="path5684"
       style="color:#000000;fill:url(#radialGradient1434);fill-opacity:1;fill-rule:evenodd;stroke:none;stroke-width:0.14528497;stroke-linecap:round;stroke-linejoin:round;marker:none;marker-start:none;marker-mid:none;marker-end:none;stroke-miterlimit:4;stroke-dasharray:none;stroke-dashoffset:0;stroke-opacity:1;visibility:visible;display:inline;overflow:visible"
       sodipodi:type="arc"
       transform="matrix(7.690621e-2,-5.447662e-2,1.548508e-2,8.801478e-2,39.84746,20.47696)" />
    <path
       sodipodi:type="arc"
       style="color:#000000;fill:url(#radialGradient1436);fill-opacity:1;fill-rule:evenodd;stroke:none;stroke-width:0.13394094;stroke-linecap:round;stroke-linejoin:round;marker:none;marker-start:none;marker-mid:none;marker-end:none;stroke-miterlimit:4;stroke-dasharray:none;stroke-dashoffset:0;stroke-opacity:1;visibility:visible;display:inline;overflow:visible"
       id="path5686"
       sodipodi:cx="-112.96648"
       sodipodi:cy="67.855286"
       sodipodi:rx="21.944925"
       sodipodi:ry="21.944925"
       d="M -91.021551 67.855286 A 21.944925 21.944925 0 1 1  -134.9114,67.855286 A 21.944925 21.944925 0 1 1  -91.021551 67.855286 z"
       transform="matrix(0.107847,-2.327835e-2,0,8.110092e-2,31.73411,2.405209)" />
    <path
       sodipodi:type="arc"
       style="color:#000000;fill:url(#radialGradient1438);fill-opacity:1;fill-rule:evenodd;stroke:none;stroke-width:0.13394094;stroke-linecap:round;stroke-linejoin:round;marker:none;marker-start:none;marker-mid:none;marker-end:none;stroke-miterlimit:4;stroke-dasharray:none;stroke-dashoffset:0;stroke-opacity:1;visibility:visible;display:inline;overflow:visible"
       id="path5688"
       sodipodi:cx="-112.96648"
       sodipodi:cy="67.855286"
       sodipodi:rx="21.944925"
       sodipodi:ry="21.944925"
       d="M -91.021551 67.855286 A 21.944925 21.944925 0 1 1  -134.9114,67.855286 A 21.944925 21.944925 0 1 1  -91.021551 67.855286 z"
       transform="matrix(0.118132,-2.549819e-2,0,8.883453e-2,40.82768,5.873849)" />
  </g>
  <path
     style="color:#000000;fill:#770000;fill-opacity:1;fill-rule:evenodd;stroke:none;stroke-width:5.9312253;stroke-linecap:round;stroke-linejoin:round;marker:none;marker-start:none;marker-mid:none;marker-end:none;stroke-miterlimit:4;stroke-dasharray:none;stroke-dashoffset:0;stroke-opacity:1;visibility:visible;display:inline;overflow:visible"
     d="M 5.9783983,8.5431567 L 23.8034,26.309004 C 24.265314,26.827331 26.963928,24.128716 26.445602,23.666804 L 8.6206009,5.9009554 C 8.2232806,5.4837749 5.4509341,8.0385242 5.9783983,8.5431567 z "
     id="path3112"
     sodipodi:nodetypes="ccccc" />
  <path
     style="fill:none;fill-opacity:0.75;fill-rule:evenodd;stroke:#000000;stroke-width:0.78435391;stroke-linecap:butt;stroke-linejoin:miter;stroke-miterlimit:4;stroke-dasharray:none;stroke-opacity:1"
     d="M 11.195322,7.9295017 L 24.574299,21.269154"
     id="path5840" />
  <path
     style="fill:none;fill-opacity:0.75;fill-rule:evenodd;stroke:#000000;stroke-width:0.78435391;stroke-linecap:butt;stroke-linejoin:miter;stroke-miterlimit:4;stroke-dasharray:none;stroke-opacity:1"
     d="M 7.9425648,11.033057 L 21.321542,24.372709"
     id="path5842" />
</svg>
