<?xml version="1.0" encoding="UTF-8" standalone="no"?>
<!-- Created with Inkscape (http://www.inkscape.org/) -->
<svg
   xmlns:dc="http://purl.org/dc/elements/1.1/"
   xmlns:cc="http://web.resource.org/cc/"
   xmlns:rdf="http://www.w3.org/1999/02/22-rdf-syntax-ns#"
   xmlns:svg="http://www.w3.org/2000/svg"
   xmlns="http://www.w3.org/2000/svg"
   xmlns:xlink="http://www.w3.org/1999/xlink"
   xmlns:sodipodi="http://inkscape.sourceforge.net/DTD/sodipodi-0.dtd"
   xmlns:inkscape="http://www.inkscape.org/namespaces/inkscape"
   width="29"
   height="24"
   id="svg2"
   sodipodi:version="0.32"
   inkscape:version="0.43"
   version="1.0"
   sodipodi:docbase="/home/yekcim/Desktop/SVG/Weapons"
   sodipodi:docname="suicide.svg"
   inkscape:output_extension="org.inkscape.output.svg.inkscape">
  <defs
     id="defs4">
    <linearGradient
       id="linearGradient2237">
      <stop
         style="stop-color:#878787;stop-opacity:1;"
         offset="0"
         id="stop2239" />
      <stop
         style="stop-color:#000000;stop-opacity:1;"
         offset="1"
         id="stop2241" />
    </linearGradient>
    <radialGradient
       inkscape:collect="always"
       xlink:href="#linearGradient2237"
       id="radialGradient2813"
       gradientUnits="userSpaceOnUse"
       cx="-21.158312"
       cy="4.153831"
       fx="-21.158312"
       fy="4.153831"
       r="15.034976" />
  </defs>
  <sodipodi:namedview
     id="base"
     pagecolor="#ffffff"
     bordercolor="#666666"
     borderopacity="1.0"
     inkscape:pageopacity="0.0"
     inkscape:pageshadow="2"
     inkscape:zoom="9.145342"
     inkscape:cx="41.415622"
     inkscape:cy="3.1807465"
     inkscape:document-units="px"
     inkscape:current-layer="layer1"
     inkscape:window-width="1430"
     inkscape:window-height="821"
     inkscape:window-x="0"
     inkscape:window-y="25"
     showguides="false"
     inkscape:guide-bbox="true"
     borderlayer="top">
    <sodipodi:guide
       orientation="horizontal"
       position="47.982246"
       id="guide1331" />
    <sodipodi:guide
       orientation="horizontal"
       position="-0.35714286"
       id="guide1333" />
    <sodipodi:guide
       orientation="vertical"
       position="-0.35714286"
       id="guide1335" />
    <sodipodi:guide
       orientation="vertical"
       position="160"
       id="guide1337" />
  </sodipodi:namedview>
  <metadata
     id="metadata7">
    <rdf:RDF>
      <cc:Work
         rdf:about="">
        <dc:format>image/svg+xml</dc:format>
        <dc:type
           rdf:resource="http://purl.org/dc/dcmitype/StillImage" />
      </cc:Work>
    </rdf:RDF>
  </metadata>
  <g
     inkscape:label="Calque 1"
     inkscape:groupmode="layer"
     id="layer1">
    <g
       id="g2801"
       transform="matrix(0.597825,0,0,0.597825,29.78537,8.385847)">
      <path
         id="path2782"
         d="M -42.09375,-12.65625 L -43.03125,-7.34375 L -46.15625,-11.53125 L -43.75,-6.8125 L -48.625,-7.78125 L -44,-5.875 L -48.3125,-3.21875 L -43.625,-4.96875 L -45.375,0.09375 L -42.84375,-4.5625 L -41.1875,0.5625 L -41.8125,-3.6875 C -41.021898,-2.6963269 -39.885387,-1.4425543 -38.65625,-0.46875 C -37.47809,0.46466609 -36.157975,1.1873373 -34.78125,0.9375 C -34.092889,0.81258133 -33.465068,0.46386521 -32.9375,-0.1875 C -32.409934,-0.8388652 -31.987273,-1.7698734 -31.65625,-2.96875 C -31.033729,-5.2233532 -30.383109,-6.9696103 -29.6875,-8.125 C -29.057105,-9.1720717 -28.405584,-9.6750027 -27.84375,-9.8125 C -27.7955,-9.8232723 -27.734786,-9.8382447 -27.6875,-9.84375 C -27.082241,-9.9142173 -26.28969,-9.6106671 -25.3125,-8.5625 C -24.47437,-7.6634951 -23.547828,-6.2433906 -22.53125,-4.34375 C -28.559336,-2.3852826 -32.90625,3.2591518 -32.90625,9.9375 C -32.90625,9.9699192 -32.906455,9.9988789 -32.90625,10.03125 C -32.906426,10.051988 -32.906169,10.073012 -32.90625,10.09375 C -32.906096,10.109923 -32.906455,10.140089 -32.90625,10.15625 C -32.906224,10.188601 -32.906505,10.217651 -32.90625,10.25 C -32.905636,10.282273 -32.907067,10.311527 -32.90625,10.34375 C -32.902654,10.485533 -32.882502,10.609215 -32.875,10.75 C -32.873977,10.769198 -32.876095,10.793321 -32.875,10.8125 C -32.873458,10.844813 -32.876768,10.873948 -32.875,10.90625 C -32.872975,10.938161 -32.877224,10.968143 -32.875,11 C -32.873671,11.021526 -32.876428,11.04098 -32.875,11.0625 C -32.874215,11.073107 -32.875807,11.083149 -32.875,11.09375 C -32.871609,11.138273 -32.847529,11.174336 -32.84375,11.21875 C -32.842131,11.237785 -32.84544,11.262236 -32.84375,11.28125 C -32.841085,11.313493 -32.846638,11.342775 -32.84375,11.375 C -32.843009,11.382912 -32.844503,11.398341 -32.84375,11.40625 C -32.838626,11.460028 -32.81819,11.508888 -32.8125,11.5625 C -32.808149,11.603497 -32.81718,11.646602 -32.8125,11.6875 C -32.811316,11.698221 -32.813709,11.708032 -32.8125,11.71875 C -32.810057,11.73971 -32.81503,11.760316 -32.8125,11.78125 C -32.808635,11.814212 -32.785347,11.842064 -32.78125,11.875 C -32.777262,11.906341 -32.785431,11.937469 -32.78125,11.96875 C -32.772889,12.031312 -32.759129,12.093933 -32.75,12.15625 C -32.748449,12.166926 -32.751575,12.176828 -32.75,12.1875 C -32.746914,12.208259 -32.753171,12.229269 -32.75,12.25 C -32.74501,12.282817 -32.723969,12.310967 -32.71875,12.34375 C -32.713804,12.374784 -32.723886,12.40653 -32.71875,12.4375 C -32.715014,12.460015 -32.691343,12.477502 -32.6875,12.5 C -32.685919,12.509278 -32.689098,12.521978 -32.6875,12.53125 C -32.67898,12.5807 -32.665253,12.606966 -32.65625,12.65625 C -32.653999,12.668571 -32.658531,12.67519 -32.65625,12.6875 C -32.646557,12.739819 -32.635234,12.791622 -32.625,12.84375 C -32.617174,12.883613 -32.601891,12.929001 -32.59375,12.96875 C -32.59168,12.978918 -32.595842,12.989837 -32.59375,13 C -32.589534,13.020369 -32.598048,13.042161 -32.59375,13.0625 C -32.586914,13.094994 -32.56956,13.123803 -32.5625,13.15625 C -32.555867,13.18669 -32.569317,13.219629 -32.5625,13.25 C -32.557502,13.272276 -32.536354,13.290247 -32.53125,13.3125 C -32.522221,13.35192 -32.509339,13.398199 -32.5,13.4375 C -32.497588,13.447594 -32.502433,13.458661 -32.5,13.46875 C -32.49517,13.488889 -32.504911,13.511143 -32.5,13.53125 C -32.492075,13.563501 -32.476897,13.592803 -32.46875,13.625 C -32.461202,13.655089 -32.445229,13.688733 -32.4375,13.71875 C -32.43188,13.740364 -32.41197,13.759662 -32.40625,13.78125 C -32.39834,13.811194 -32.41434,13.845129 -32.40625,13.875 C -32.400259,13.897035 -32.381095,13.915493 -32.375,13.9375 C -32.36432,13.976265 -32.354732,14.02386 -32.34375,14.0625 C -32.340167,14.075026 -32.316117,14.081234 -32.3125,14.09375 C -32.307389,14.111566 -32.317675,14.138461 -32.3125,14.15625 C -32.303142,14.18812 -32.290826,14.218194 -32.28125,14.25 C -32.272447,14.279572 -32.25898,14.314255 -32.25,14.34375 C -32.243879,14.363587 -32.256206,14.386439 -32.25,14.40625 C -32.240844,14.435668 -32.228082,14.470659 -32.21875,14.5 C -32.211934,14.52127 -32.194414,14.541261 -32.1875,14.5625 C -32.175209,14.600572 -32.168836,14.649561 -32.15625,14.6875 C -32.152113,14.699855 -32.129171,14.706406 -32.125,14.71875 C -32.119149,14.736241 -32.130913,14.763787 -32.125,14.78125 C -32.115711,14.808275 -32.103198,14.81678 -32.09375,14.84375 C -32.083721,14.872774 -32.072701,14.908557 -32.0625,14.9375 C -32.054978,14.958531 -32.038868,14.979004 -32.03125,15 C -32.017832,15.037553 -32.013708,15.087586 -32,15.125 C -31.995453,15.13721 -31.97333,15.144053 -31.96875,15.15625 C -31.95177,15.202246 -31.954916,15.235467 -31.9375,15.28125 C -31.932818,15.293408 -31.910965,15.300354 -31.90625,15.3125 C -31.83396,15.501135 -31.767087,15.690101 -31.6875,15.875 C -31.682282,15.886936 -31.6615,15.894328 -31.65625,15.90625 C -31.612601,16.006977 -31.577026,16.119178 -31.53125,16.21875 C -31.518534,16.246409 -31.512878,16.284932 -31.5,16.3125 C -31.493032,16.327111 -31.475767,16.329163 -31.46875,16.34375 C -31.450584,16.382269 -31.455983,16.430411 -31.4375,16.46875 C -31.431755,16.480438 -31.412026,16.488328 -31.40625,16.5 C -31.384824,16.544181 -31.365595,16.581062 -31.34375,16.625 C -31.338022,16.636329 -31.318258,16.644937 -31.3125,16.65625 C -31.277174,16.726872 -31.25515,16.805016 -31.21875,16.875 C -31.19075,16.928834 -31.15363,16.977799 -31.125,17.03125 C -31.117226,17.045442 -31.101572,17.048335 -31.09375,17.0625 C -31.027613,17.185259 -30.975671,17.316816 -30.90625,17.4375 C -30.864748,17.509648 -30.823908,17.553611 -30.78125,17.625 C -30.777372,17.63149 -30.785138,17.649766 -30.78125,17.65625 C -30.754037,17.701635 -30.715176,17.736177 -30.6875,17.78125 C -30.683546,17.787689 -30.691463,17.806067 -30.6875,17.8125 C -28.040108,22.109471 -23.289001,24.96875 -17.875,24.96875 C -9.5756932,24.96875 -2.8437501,18.236807 -2.84375,9.9375 C -2.84375,8.964925 -2.9483228,8.0150549 -3.125,7.09375 C -3.1509127,6.9586253 -3.1892421,6.8525665 -3.21875,6.71875 C -3.2227823,6.6986187 -3.2146243,6.6763617 -3.21875,6.65625 C -3.2323837,6.5955072 -3.2356329,6.5292131 -3.25,6.46875 C -3.2550285,6.4475879 -3.2761321,6.4273774 -3.28125,6.40625 C -3.2835076,6.3962369 -3.2789694,6.3850078 -3.28125,6.375 C -3.2915624,6.332775 -3.3018315,6.2920847 -3.3125,6.25 C -3.3321069,6.1676391 -3.3538435,6.0819774 -3.375,6 C -3.3911791,5.9402576 -3.3893547,5.9031955 -3.40625,5.84375 C -3.4201925,5.7922269 -3.4229513,5.7388576 -3.4375,5.6875 C -3.4436126,5.6667785 -3.4625505,5.6456843 -3.46875,5.625 C -3.4748757,5.6037783 -3.4937713,5.5836923 -3.5,5.5625 C -3.5089802,5.5330046 -3.5220936,5.4981684 -3.53125,5.46875 C -3.537767,5.4471256 -3.5558761,5.4278426 -3.5625,5.40625 C -3.5718321,5.3769092 -3.5529929,5.3417626 -3.5625,5.3125 C -3.5718791,5.2826428 -3.5841673,5.2485441 -3.59375,5.21875 C -3.6005271,5.1983214 -3.6181377,5.1766397 -3.625,5.15625 C -3.6345719,5.1269724 -3.6152324,5.0917146 -3.625,5.0625 C -3.6329675,5.039255 -3.6481719,5.0231935 -3.65625,5 C -3.6614036,4.9848328 -3.6822938,4.9838997 -3.6875,4.96875 C -3.6977011,4.9398066 -3.7083769,4.9038621 -3.71875,4.875 C -3.729162,4.8454782 -3.7393889,4.8107028 -3.75,4.78125 C -3.7573811,4.7611039 -3.7737852,4.7388557 -3.78125,4.71875 C -3.7844121,4.710102 -3.7780707,4.6961419 -3.78125,4.6875 C -3.7983942,4.6415838 -3.8261708,4.6082028 -3.84375,4.5625 C -3.8473875,4.5528941 -3.8400914,4.5408481 -3.84375,4.53125 C -3.8658594,4.4741887 -3.8834663,4.4004725 -3.90625,4.34375 C -3.9375297,4.2649994 -3.9673039,4.2031888 -4,4.125 C -4.0484883,4.009637 -4.1049867,3.8951304 -4.15625,3.78125 C -4.1976514,3.6889785 -4.2378938,3.5913896 -4.28125,3.5 C -4.3023154,3.4556139 -4.3222638,3.4191461 -4.34375,3.375 C -4.3507572,3.3605753 -4.3679444,3.3581516 -4.375,3.34375 C -4.4017256,3.2891642 -4.4101347,3.2417125 -4.4375,3.1875 C -4.4651399,3.1328097 -4.5029141,3.0855886 -4.53125,3.03125 C -4.53545,3.0231749 -4.5270358,3.0080665 -4.53125,3 C -4.5424725,2.9785719 -4.5511699,2.9588722 -4.5625,2.9375 C -4.5695789,2.9240892 -4.5866318,2.9196368 -4.59375,2.90625 C -4.6085049,2.8785963 -4.6100655,2.8400583 -4.625,2.8125 C -4.6321334,2.7993369 -4.6490758,2.7943912 -4.65625,2.78125 C -4.6649329,2.7652728 -4.6787609,2.7659422 -4.6875,2.75 C -4.7050576,2.7180747 -4.7322022,2.6880433 -4.75,2.65625 C -4.7681501,2.6236887 -4.7628654,2.5636621 -4.78125,2.53125 C -4.7960958,2.5052429 -4.8287438,2.4946655 -4.84375,2.46875 C -4.8482775,2.4608793 -4.8392087,2.4453617 -4.84375,2.4375 C -4.8623981,2.4054255 -4.8873573,2.3756816 -4.90625,2.34375 C -4.922213,2.31677 -4.9213633,2.2768768 -4.9375,2.25 C -4.9700274,2.1954529 -5.0293044,2.1478483 -5.0625,2.09375 C -5.0666392,2.0870631 -5.05835,2.0691802 -5.0625,2.0625 C -5.0846937,2.0264775 -5.1025118,2.0045706 -5.125,1.96875 C -5.1329876,1.9560847 -5.1482236,1.9501406 -5.15625,1.9375 C -5.1724028,1.9119761 -5.2024481,1.8691698 -5.21875,1.84375 C -5.2332603,1.8212916 -5.2353671,1.8036283 -5.25,1.78125 C -5.2601234,1.7656715 -5.2710706,1.7342886 -5.28125,1.71875 C -5.2895128,1.7062635 -5.3041991,1.699961 -5.3125,1.6875 C -5.3407172,1.6446435 -5.3776077,1.6050496 -5.40625,1.5625 C -5.4177621,1.5456042 -5.4259176,1.5168472 -5.4375,1.5 C -5.4527689,1.4775508 -5.453363,1.4598622 -5.46875,1.4375 C -5.4772832,1.4251986 -5.4914293,1.418525 -5.5,1.40625 C -5.5171838,1.3814679 -5.5451713,1.3371736 -5.5625,1.3125 C -5.5798332,1.2880871 -5.6075184,1.2743051 -5.625,1.25 C -5.6424729,1.2254354 -5.6386335,1.2119549 -5.65625,1.1875 C -5.6788756,1.1563603 -5.6958815,1.1247084 -5.71875,1.09375 C -5.7595967,1.0377575 -5.8021524,0.99290365 -5.84375,0.9375 C -5.9136391,0.84560765 -5.9904789,0.74643801 -6.0625,0.65625 C -6.0950576,0.61482779 -6.1232685,0.60357049 -6.15625,0.5625 C -6.1616455,0.55586965 -6.1508431,0.5378707 -6.15625,0.53125 C -6.175131,0.50781001 -6.1997315,0.49207414 -6.21875,0.46875 C -6.2432614,0.43910956 -6.2565083,0.40444219 -6.28125,0.375 C -6.3004053,0.35179233 -6.3244585,0.33559059 -6.34375,0.3125 C -6.3740343,0.27690874 -6.4068801,0.22279254 -6.4375,0.1875 C -6.4423905,0.18178635 -6.4638511,0.19320623 -6.46875,0.1875 C -6.5290339,0.11820946 -6.5634371,0.036862227 -6.625,-0.03125 C -6.6349816,-0.042497971 -6.6462352,-0.051282186 -6.65625,-0.0625 C -6.6831842,-0.092115258 -6.7228263,-0.12686365 -6.75,-0.15625 C -6.7601138,-0.16737688 -6.7711034,-0.17640358 -6.78125,-0.1875 C -6.8539251,-0.26565871 -6.9256491,-0.32975617 -7,-0.40625 C -9.7397032,-3.2876445 -13.588189,-5.0937499 -17.875,-5.09375 C -19.032364,-5.09375 -20.167479,-4.9354531 -21.25,-4.6875 C -22.356212,-6.7787464 -23.405258,-8.3325534 -24.40625,-9.40625 C -25.521442,-10.602441 -26.649211,-11.260436 -27.8125,-11.125 C -28.975787,-10.989564 -29.953755,-10.072546 -30.75,-8.75 C -31.546246,-7.4274536 -32.235212,-5.5983869 -32.875,-3.28125 C -33.175131,-2.1942566 -33.531833,-1.4622783 -33.90625,-1 C -34.280667,-0.53772178 -34.646717,-0.31978143 -35.03125,-0.25 C -35.800313,-0.11043607 -36.854515,-0.60424694 -37.90625,-1.4375 C -38.662184,-2.036401 -39.374353,-2.7828622 -40,-3.5 L -37.6875,-2.03125 L -41.4375,-5.59375 L -36.5625,-6.46875 L -41.5,-6.5625 L -38.28125,-10.65625 L -42.125,-7.25 L -42.09375,-12.65625 z "
         style="opacity:1;color:#000000;fill:none;fill-opacity:1;fill-rule:evenodd;stroke:#000000;stroke-width:1.5;stroke-linecap:round;stroke-linejoin:round;marker:none;marker-start:none;marker-mid:none;marker-end:none;stroke-miterlimit:4;stroke-dasharray:none;stroke-dashoffset:0;stroke-opacity:1;visibility:visible;display:inline;overflow:visible" />
      <path
         transform="translate(-2.07756,-0.546726)"
         d="M -0.7654171 10.495857 A 15.034976 15.034976 0 1 1  -30.835369,10.495857 A 15.034976 15.034976 0 1 1  -0.7654171 10.495857 z"
         sodipodi:ry="15.034976"
         sodipodi:rx="15.034976"
         sodipodi:cy="10.495857"
         sodipodi:cx="-15.800393"
         id="path1867"
         style="opacity:1;color:#000000;fill:url(#radialGradient2813);fill-opacity:1;fill-rule:evenodd;stroke:none;stroke-width:1;stroke-linecap:round;stroke-linejoin:round;marker:none;marker-start:none;marker-mid:none;marker-end:none;stroke-miterlimit:4;stroke-dasharray:none;stroke-dashoffset:0;stroke-opacity:1;visibility:visible;display:inline;overflow:visible"
         sodipodi:type="arc" />
      <path
         sodipodi:nodetypes="ccccc"
         id="path2750"
         d="M -32.71875,9.4214887 C -33.275511,12.836145 -32.463458,15.006477 -30.59375,17.90625 C -27.95453,7.9854055 -10.705098,4.7177741 -2.96875,8.78125 C -2.7627862,5.2441176 -4.5114244,1.4948263 -7,-0.40625 C -14.152908,-5.0352569 -32.591908,0.47545154 -32.71875,9.4214887 z "
         style="opacity:1;color:#000000;fill:#ffffff;fill-opacity:1;fill-rule:evenodd;stroke:none;stroke-width:1;stroke-linecap:round;stroke-linejoin:round;marker:none;marker-start:none;marker-mid:none;marker-end:none;stroke-miterlimit:4;stroke-dasharray:none;stroke-dashoffset:0;stroke-opacity:1;visibility:visible;display:inline;overflow:visible" />
      <path
         transform="matrix(5.474993e-2,3.909007e-3,1.670491e-2,5.693518e-2,-4.501493,20.21503)"
         d="M 2.8571472 -305.49496 A 82.14286 73.571426 0 1 1  -161.42857,-305.49496 A 82.14286 73.571426 0 1 1  2.8571472 -305.49496 z"
         sodipodi:ry="73.571426"
         sodipodi:rx="82.14286"
         sodipodi:cy="-305.49496"
         sodipodi:cx="-79.285713"
         id="path1321"
         style="color:#000000;fill:#ac0000;fill-opacity:1;fill-rule:evenodd;stroke:none;stroke-width:2.4112401;stroke-linecap:square;stroke-linejoin:round;marker:none;marker-start:none;marker-mid:none;marker-end:none;stroke-miterlimit:4;stroke-dasharray:none;stroke-dashoffset:0;stroke-opacity:1;visibility:visible;display:inline;overflow:visible"
         sodipodi:type="arc" />
      <path
         id="path2202"
         d="M -22.999867,1.1652261 C -23.613232,1.1912873 -23.966435,1.8157627 -24.422762,2.1733546 C -24.607571,2.3541699 -24.387651,2.6304087 -24.425739,2.8502217 C -24.416384,3.1373248 -24.255347,3.4834173 -24.536378,3.661292 C -25.074226,4.2665197 -25.622086,4.8906338 -26.025843,5.6074842 C -26.093456,5.7845407 -26.067989,5.9825491 -26.057304,6.1687577 C -25.848532,5.9228421 -25.435495,5.9539899 -25.33227,5.599752 C -25.05155,5.0720749 -24.659804,4.6261328 -24.285479,4.1756939 C -24.261255,4.4130301 -24.232361,4.6464517 -24.202535,4.8823126 C -24.435294,5.0800455 -24.877259,5.0804389 -24.95903,5.44204 C -24.983851,5.8195882 -25.080745,6.1910461 -25.092023,6.572318 C -24.900962,6.2724143 -24.42312,6.3430971 -24.334099,5.955382 C -24.335767,5.8765006 -24.209414,6.0262568 -24.136753,5.9491969 C -24.154621,5.96259 -24.338546,6.0850265 -24.394162,6.1826739 C -24.672472,6.7134152 -24.922435,7.2709452 -25.166385,7.8278399 C -24.88773,7.5879544 -24.470322,7.5283585 -24.228276,7.2758436 C -24.119707,7.3678416 -23.964224,7.2746123 -23.843594,7.3438763 C -23.965438,7.6469417 -24.06828,7.9577459 -24.172505,8.2685087 C -23.895681,8.0074861 -23.427746,7.9864776 -23.244403,7.6407483 C -23.005658,7.7269524 -22.717169,7.8037242 -22.525092,7.5850859 C -22.402313,7.5133372 -22.074529,7.3375293 -22.267684,7.1583308 C -22.321027,7.1063457 -22.515824,7.1381578 -22.370647,7.0671046 C -22.237024,7.0125366 -22.012684,6.7583889 -22.236224,6.6697293 C -22.459196,6.6494695 -22.685375,6.6963676 -22.911204,6.6728213 C -22.74421,6.2852301 -22.667934,5.848911 -22.525308,5.470082 C -22.389566,5.4163541 -22.248234,5.089745 -22.097508,5.2302093 C -21.921573,5.635061 -21.950653,6.112101 -21.951645,6.5568559 C -21.989231,7.0056387 -22.058378,7.4805844 -22.286275,7.8587643 C -22.505044,7.9217912 -22.790765,7.6749488 -22.972696,7.9159741 C -23.10184,8.0051452 -23.414454,8.1588555 -23.262996,8.36592 C -22.87414,8.5741961 -22.373014,8.5603585 -22.005985,8.2886101 C -21.48576,7.9813016 -21.368757,7.2963441 -21.270944,6.7161149 C -21.204568,6.0833 -21.213143,5.4055981 -21.443979,4.8142774 C -21.589626,4.5374478 -21.927277,4.4731491 -22.171872,4.6349193 C -22.621009,4.8477533 -23.028306,5.2026023 -23.363099,5.5889289 C -23.476011,5.6934533 -23.521373,5.956604 -23.368817,5.9708442 C -23.452142,6.1998464 -23.480763,6.4833993 -23.607636,6.6728213 C -23.796913,6.7032354 -23.920122,6.9128503 -24.098141,6.9897947 C -24.115102,6.9310169 -23.945031,6.6673016 -23.884238,6.5428054 C -23.722063,6.2636892 -23.601864,5.9596994 -23.543285,5.6337696 C -23.689633,5.7105854 -23.869803,5.8242099 -24.002329,5.8780708 C -23.517968,5.6566805 -23.250617,5.1189591 -22.898189,4.7136861 C -22.615471,4.3667395 -22.377256,3.9648617 -22.013135,3.7195641 C -21.879832,3.5656188 -22.085225,3.4353771 -22.214773,3.430422 C -22.482269,3.3240219 -22.766068,3.2576413 -23.017028,3.1057176 C -23.18059,3.2932466 -23.462119,3.3549184 -23.571884,3.5912295 C -23.566169,3.8351385 -23.257537,3.7550558 -23.121708,3.8597436 C -22.863366,3.8904596 -23.096374,4.028223 -23.171472,4.1494098 C -23.284257,4.2939924 -23.390751,4.4520374 -23.504674,4.5916246 C -23.522922,4.2088899 -23.641404,3.7886326 -23.596728,3.4294511 C -23.114967,2.9252314 -22.615861,2.4138778 -22.036017,2.0450189 C -21.934435,2.0556134 -22.061253,2.2636144 -22.068909,2.3248829 C -22.16302,2.5197157 -22.261685,2.7206525 -22.352057,2.9232653 C -22.06208,2.6336894 -21.57156,2.6646891 -21.363895,2.2784957 C -21.221179,1.9744869 -21.277887,1.4721614 -21.644185,1.4048888 C -22.2629,1.4336646 -22.725036,1.9695538 -23.200519,2.3307716 C -23.360513,2.4379713 -23.602778,2.7940627 -23.708631,2.7596853 C -23.693984,2.5460754 -23.873282,2.2364628 -23.626227,2.1238766 C -23.362565,1.8885381 -23.076654,1.6545964 -22.911204,1.3399483 C -22.846351,1.2466456 -22.858032,1.123235 -22.999867,1.1652261 z M -24.178225,5.072495 C -24.176573,5.345956 -24.215907,4.8421943 -24.178225,5.072495 z "
         style="fill:#000000;fill-opacity:1;fill-rule:nonzero;stroke:none;stroke-width:0.148;stroke-linecap:butt;stroke-linejoin:miter;stroke-miterlimit:4;stroke-dasharray:none;stroke-opacity:1" />
      <path
         id="path2258"
         d="M -7.2040095,-0.18880553 C -7.8003585,0.012457966 -8.5540664,0.15797057 -8.8331917,0.85782284 C -9.04574,1.1412865 -8.5518176,0.97249124 -8.3893432,0.96091604 C -8.1523787,0.90913674 -7.925137,0.81087494 -7.7102681,0.69491987 C -7.5665495,1.0531766 -7.2428775,1.4441076 -7.4723862,1.8336498 C -7.5744313,2.2575246 -7.6628754,2.677658 -7.8444558,3.0713038 C -7.56483,3.0035752 -7.2818461,2.7087815 -7.0169581,2.6953907 C -6.8672708,3.0789423 -6.5903628,3.4526949 -6.2545218,3.6846341 C -6.5537331,4.1636564 -6.836461,4.6528931 -7.1104838,5.150914 C -6.6080916,4.8193799 -5.8428603,4.7565683 -5.6344071,4.0671419 C -5.3818528,3.8104228 -5.014414,3.1379005 -5.5510473,2.9723788 C -5.8670989,2.9504283 -5.9922249,2.6310121 -6.1528634,2.3832288 C -5.8791241,2.3430702 -5.4657888,1.9872457 -5.7441981,1.6907579 C -5.9151789,1.3855416 -6.2771858,1.2992669 -6.5391638,1.1521698 C -6.7059737,0.67496667 -6.9443808,0.22983257 -7.0657541,-0.26574613 C -7.1118388,-0.24009963 -7.1579248,-0.21445143 -7.2040095,-0.18880553 z "
         style="fill:#000000;fill-opacity:1;fill-rule:nonzero;stroke:none;stroke-width:0.148;stroke-linecap:butt;stroke-linejoin:miter;stroke-miterlimit:4;stroke-dasharray:none;stroke-opacity:1" />
      <path
         id="path2273"
         d="M -30.246549,8.2525615 C -30.412943,8.3379358 -30.669845,8.4800177 -30.585308,8.7601616 C -30.555172,8.8631145 -30.474078,8.9402729 -30.599866,8.9893396 C -30.738893,9.1505844 -30.785321,9.4034858 -30.934533,9.5663125 C -31.115269,9.9055425 -31.54343,10.137627 -31.487367,10.602007 C -31.438438,10.856073 -31.353819,11.126772 -31.215737,11.320569 C -31.048094,11.443161 -30.846763,11.279965 -30.756648,11.119019 C -30.831393,11.316744 -30.989985,11.551539 -30.916281,11.771867 C -30.797976,11.910894 -30.654391,11.721166 -30.526764,11.696085 C -30.442914,11.645084 -30.377585,11.469984 -30.367044,11.687386 C -30.348067,11.807588 -30.52774,11.787675 -30.574594,11.875116 C -30.748515,12.027643 -30.965597,12.170733 -31.068119,12.392051 C -31.10734,12.648982 -30.831576,12.664574 -30.705598,12.559154 C -30.548833,12.504123 -30.394453,12.322952 -30.255218,12.298354 C -30.225236,12.530449 -30.086166,12.797278 -30.134587,13.011429 C -30.472932,13.293113 -30.584449,13.818353 -30.722978,14.258321 C -30.690131,14.513205 -30.417135,14.390801 -30.302028,14.298239 C -30.068994,14.158551 -30.103941,13.763236 -29.931042,13.574425 C -29.742067,13.525409 -29.517572,13.321104 -29.523751,13.077775 C -29.581907,12.746909 -29.679811,12.429024 -29.733569,12.097133 C -29.434214,12.032359 -29.049614,11.763965 -29.13694,11.325598 C -29.186105,10.902473 -29.448911,10.553998 -29.717469,10.339665 C -29.718658,10.190289 -29.7809,10.029168 -29.900018,9.9705997 C -29.735263,9.9258436 -29.502593,9.7353197 -29.633373,9.5012305 C -29.858232,9.1034282 -30.000287,8.6368907 -30.1693,8.1981533 C -30.195051,8.2162897 -30.2208,8.2344273 -30.246549,8.2525615 z M -30.285734,9.4593393 C -30.011308,9.5589124 -30.405076,9.6611468 -30.409619,9.6347898 C -30.371063,9.5927958 -30.317916,9.4453769 -30.285734,9.4593393 z M -30.079625,9.9629912 C -30.094596,10.006095 -30.19895,10.061448 -30.14938,9.9296134 C -30.143823,9.7460722 -30.13902,9.8365003 -30.079625,9.9629912 z M -30.594267,10.741923 C -30.614709,10.867182 -30.713293,11.033603 -30.741292,11.085786 C -30.687546,10.993414 -30.676211,10.756466 -30.594267,10.741923 z M -29.684778,11.364357 C -29.642028,11.464098 -29.649237,11.642466 -29.773151,11.622368 C -29.879569,11.742684 -29.949964,11.401221 -29.820304,11.397563 C -29.786117,11.407595 -29.69786,11.298429 -29.684778,11.364357 z "
         style="fill:#000000;fill-opacity:1;fill-rule:nonzero;stroke:none;stroke-width:0.148;stroke-linecap:butt;stroke-linejoin:miter;stroke-miterlimit:4;stroke-dasharray:none;stroke-opacity:1" />
      <path
         id="path2426"
         d="M -27.820735,-11.112784 C -26.657447,-11.24822 -25.532842,-10.590585 -24.41765,-9.3943944 C -23.302458,-8.1982037 -22.126648,-6.4024227 -20.87979,-3.9359816 C -20.721616,-3.6196351 -20.849842,-3.2349607 -21.166188,-3.076787 C -21.482535,-2.9186132 -21.867209,-3.0468387 -22.025383,-3.3631852 C -23.241891,-5.7695916 -24.350194,-7.5038795 -25.327386,-8.5520467 C -26.304577,-9.6002139 -27.0807,-9.9028825 -27.685959,-9.8324152 C -28.291218,-9.7619478 -28.978291,-9.2694154 -29.673899,-8.1140259 C -30.369508,-6.9586364 -31.039319,-5.2134615 -31.66184,-2.9588583 C -31.992863,-1.7599817 -32.414642,-0.84732317 -32.942208,-0.19595797 C -33.469775,0.45540724 -34.107012,0.82471617 -34.795373,0.94963484 C -36.172097,1.1994722 -37.492012,0.46790687 -38.670172,-0.46550922 C -41.026492,-2.3323414 -42.982992,-5.2837378 -42.982992,-5.2837378 C -43.169079,-5.5814759 -43.078567,-5.9736931 -42.780829,-6.1597794 C -42.483091,-6.3458657 -42.090874,-6.2553541 -41.904787,-5.9576159 C -41.904787,-5.9576159 -39.998682,-3.1091396 -37.895213,-1.4426325 C -36.843479,-0.6093795 -35.800294,-0.12378185 -35.031231,-0.26334578 C -34.646698,-0.33312721 -34.293749,-0.54233348 -33.919332,-1.0046117 C -33.544914,-1.46689 -33.174952,-2.2088039 -32.874821,-3.2957973 C -32.235033,-5.6129342 -31.54835,-7.4316638 -30.752104,-8.7542102 C -29.955859,-10.076756 -28.984022,-10.977348 -27.820735,-11.112784 z "
         style="fill:#80834a;fill-opacity:1;fill-rule:evenodd;stroke:#000000;stroke-width:0;stroke-linecap:round;stroke-linejoin:round;stroke-miterlimit:4;stroke-dasharray:none;stroke-opacity:1" />
      <path
         transform="matrix(-0.279805,-3.351855e-2,-3.070567e-2,0.305436,-21.01079,0.328998)"
         d="M 97.696541,-0.84827175 L 81.772484,-8.3958614 L 86.136849,8.6773341 L 78.789811,-7.3402413 L 71.15867,8.5439451 L 75.826412,-8.4488145 L 59.77046,-1.1860247 L 74.268893,-11.202867 L 57.300889,-15.959814 L 74.846035,-14.313748 L 64.905497,-28.864603 L 77.287788,-16.325841 L 79.026003,-33.862097 L 80.451627,-16.297665 L 93.055266,-28.613914 L 82.857157,-14.242404 L 100.42884,-15.575736 L 83.378804,-11.121739 L 97.696541,-0.84827175 z "
         inkscape:randomized="0"
         inkscape:rounded="0"
         inkscape:flatsided="false"
         sodipodi:arg2="0.88156995"
         sodipodi:arg1="0.5325041"
         sodipodi:r2="4.6254067"
         sodipodi:r1="21.897501"
         sodipodi:cy="-11.965465"
         sodipodi:cx="78.831001"
         sodipodi:sides="9"
         id="path3301"
         style="color:#000000;fill:#f2f800;fill-opacity:1;fill-rule:evenodd;stroke:#000000;stroke-width:0;stroke-linecap:round;stroke-linejoin:round;marker:none;marker-start:none;marker-mid:none;marker-end:none;stroke-miterlimit:4;stroke-dasharray:none;stroke-dashoffset:0;stroke-opacity:1;visibility:visible;display:inline;overflow:visible"
         sodipodi:type="star" />
      <path
         transform="matrix(-0.134535,-1.611628e-2,-1.476381e-2,0.146858,-32.21611,-2.985228)"
         d="M 95.093721,-2.382076 L 81.772484,-8.3958614 L 85.128884,5.8293119 L 78.789811,-7.3402413 L 72.217198,5.7143261 L 75.826412,-8.4488145 L 62.400183,-2.6732303 L 74.268893,-11.202867 L 60.271331,-15.408726 L 74.846035,-14.313748 L 66.826755,-26.533082 L 77.287788,-16.325841 L 78.999099,-30.841087 L 80.451627,-16.297665 L 91.092788,-26.316979 L 82.857157,-14.242404 L 97.449051,-15.077638 L 83.378804,-11.121739 L 95.093721,-2.382076 z "
         inkscape:randomized="0"
         inkscape:rounded="0"
         inkscape:flatsided="false"
         sodipodi:arg2="0.88156995"
         sodipodi:arg1="0.5325041"
         sodipodi:r2="4.6254067"
         sodipodi:r1="18.876371"
         sodipodi:cy="-11.965465"
         sodipodi:cx="78.831001"
         sodipodi:sides="9"
         id="path6018"
         style="color:#000000;fill:#f89600;fill-opacity:1;fill-rule:evenodd;stroke:#000000;stroke-width:0;stroke-linecap:round;stroke-linejoin:round;marker:none;marker-start:none;marker-mid:none;marker-end:none;stroke-miterlimit:4;stroke-dasharray:none;stroke-dashoffset:0;stroke-opacity:1;visibility:visible;display:inline;overflow:visible"
         sodipodi:type="star" />
    </g>
  </g>
</svg>
