<?xml version="1.0" encoding="UTF-8" standalone="no"?>
<!-- Created with Inkscape (http://www.inkscape.org/) -->
<svg
   xmlns:dc="http://purl.org/dc/elements/1.1/"
   xmlns:cc="http://web.resource.org/cc/"
   xmlns:rdf="http://www.w3.org/1999/02/22-rdf-syntax-ns#"
   xmlns:svg="http://www.w3.org/2000/svg"
   xmlns="http://www.w3.org/2000/svg"
   xmlns:xlink="http://www.w3.org/1999/xlink"
   xmlns:sodipodi="http://inkscape.sourceforge.net/DTD/sodipodi-0.dtd"
   xmlns:inkscape="http://www.inkscape.org/namespaces/inkscape"
   width="48"
   height="48"
   id="svg2"
   sodipodi:version="0.32"
   inkscape:version="0.43"
   version="1.0"
   sodipodi:docbase="/home/yekcim/Desktop/SVG/Weapons"
   sodipodi:docname="suicide_ico.svg"
   inkscape:output_extension="org.inkscape.output.svg.inkscape">
  <defs
     id="defs4">
    <linearGradient
       id="linearGradient4887">
      <stop
         style="stop-color:#2e2e2e;stop-opacity:1;"
         offset="0"
         id="stop4889" />
      <stop
         style="stop-color:#7f7f7f;stop-opacity:1;"
         offset="1"
         id="stop4891" />
    </linearGradient>
    <linearGradient
       inkscape:collect="always"
       xlink:href="#linearGradient4887"
       id="linearGradient4893"
       x1="2.5763463"
       y1="26.663123"
       x2="46.71712"
       y2="26.663123"
       gradientUnits="userSpaceOnUse"
       gradientTransform="matrix(0.921211,0,0,0.938618,3.13008,1.539679)" />
  </defs>
  <sodipodi:namedview
     id="base"
     pagecolor="#ffffff"
     bordercolor="#666666"
     borderopacity="1.0"
     inkscape:pageopacity="0.0"
     inkscape:pageshadow="2"
     inkscape:zoom="9.145342"
     inkscape:cx="24.029722"
     inkscape:cy="17.723669"
     inkscape:document-units="px"
     inkscape:current-layer="layer1"
     inkscape:window-width="1430"
     inkscape:window-height="821"
     inkscape:window-x="0"
     inkscape:window-y="25"
     showguides="false"
     inkscape:guide-bbox="true"
     borderlayer="top">
    <sodipodi:guide
       orientation="horizontal"
       position="47.982246"
       id="guide1331" />
    <sodipodi:guide
       orientation="horizontal"
       position="-0.35714286"
       id="guide1333" />
    <sodipodi:guide
       orientation="vertical"
       position="-0.35714286"
       id="guide1335" />
    <sodipodi:guide
       orientation="vertical"
       position="160"
       id="guide1337" />
  </sodipodi:namedview>
  <metadata
     id="metadata7">
    <rdf:RDF>
      <cc:Work
         rdf:about="">
        <dc:format>image/svg+xml</dc:format>
        <dc:type
           rdf:resource="http://purl.org/dc/dcmitype/StillImage" />
      </cc:Work>
    </rdf:RDF>
  </metadata>
  <g
     inkscape:label="Calque 1"
     inkscape:groupmode="layer"
     id="layer1">
    <path
       style="fill:url(#linearGradient4893);fill-opacity:1;fill-rule:evenodd;stroke:#000000;stroke-width:1;stroke-linecap:round;stroke-linejoin:round;stroke-miterlimit:4;stroke-dasharray:none;stroke-opacity:1"
       d="M 5.1886591,27.827191 C 4.83159,28.601181 5.3924329,29.971106 5.9584266,33.340634 C 15.310298,47.101043 44.647952,37.298544 45.536294,25.926206 C 46.424636,14.663214 38.012812,18.855426 40.09432,15.024886 C 51.377199,23.53814 24.123238,43.983139 5.1886591,27.827191 z "
       id="path1362"
       sodipodi:nodetypes="cczcc" />
    <path
       style="fill:#ffffff;fill-opacity:1;fill-rule:evenodd;stroke:#000000;stroke-width:1;stroke-linecap:round;stroke-linejoin:round;stroke-miterlimit:4;stroke-dasharray:none;stroke-opacity:1"
       d="M 5.980175,33.404792 C -7.213295,9.7594584 27.989788,1.1379536 37.904192,9.5703974 C 43.228741,14.099056 44.817047,17.699181 45.567417,22.941937 C 44.063057,13.689499 0.27137953,16.646012 5.980175,33.404792 z "
       id="path1319"
       sodipodi:nodetypes="cscc" />
    <path
       sodipodi:type="arc"
       style="color:#000000;fill:#ac0000;fill-opacity:1;fill-rule:evenodd;stroke:none;stroke-width:2.4112401;stroke-linecap:square;stroke-linejoin:round;marker:none;marker-start:none;marker-mid:none;marker-end:none;stroke-miterlimit:4;stroke-dasharray:none;stroke-dashoffset:0;stroke-opacity:1;visibility:visible;display:inline;overflow:visible"
       id="path1321"
       sodipodi:cx="-79.285713"
       sodipodi:cy="-305.49496"
       sodipodi:rx="82.14286"
       sodipodi:ry="73.571426"
       d="M 2.8571472 -305.49496 A 82.14286 73.571426 0 1 1  -161.42857,-305.49496 A 82.14286 73.571426 0 1 1  2.8571472 -305.49496 z"
       transform="matrix(7.128002e-2,4.643249e-3,2.174845e-2,6.762949e-2,41.09844,33.0717)" />
    <path
       style="fill:#000000;fill-opacity:1;fill-rule:nonzero;stroke:none;stroke-width:0.148;stroke-linecap:butt;stroke-linejoin:miter;stroke-miterlimit:4;stroke-dasharray:none;stroke-opacity:1"
       d="M 16.266256,10.022403 C 15.385052,10.054418 14.877614,10.821564 14.222023,11.260853 C 13.956513,11.482978 14.272467,11.822328 14.217746,12.09236 C 14.231186,12.445056 14.462542,12.870219 14.058794,13.088731 C 13.286083,13.832231 12.498987,14.598933 11.918922,15.479559 C 11.821785,15.697066 11.858372,15.940313 11.873723,16.169063 C 12.173659,15.866965 12.767058,15.905228 12.915358,15.47006 C 13.31866,14.821827 13.881471,14.274003 14.419255,13.720656 C 14.454056,14.012215 14.495568,14.298964 14.538417,14.588711 C 14.204019,14.831619 13.569061,14.832103 13.451584,15.276316 C 13.415922,15.740121 13.276718,16.196444 13.260514,16.664822 C 13.535007,16.296401 14.22151,16.383233 14.349403,15.906938 C 14.347005,15.810035 14.528534,15.994006 14.632924,15.899341 C 14.607253,15.915793 14.343012,16.066203 14.263113,16.186158 C 13.863272,16.838156 13.504156,17.523061 13.15368,18.207186 C 13.554016,17.912495 14.153695,17.839284 14.501436,17.529078 C 14.657415,17.642095 14.880791,17.527566 15.054098,17.612655 C 14.879048,17.984959 14.731297,18.366772 14.581561,18.748533 C 14.979266,18.427875 15.651534,18.402067 15.914937,17.977351 C 16.257937,18.08325 16.672401,18.177561 16.948351,17.908971 C 17.124744,17.820831 17.595664,17.604857 17.318162,17.384718 C 17.241526,17.320856 16.961667,17.359936 17.170238,17.27265 C 17.362211,17.205616 17.684514,16.893404 17.363361,16.784489 C 17.043022,16.759601 16.718077,16.817213 16.393636,16.788287 C 16.633551,16.312145 16.743134,15.776143 16.948042,15.310765 C 17.143058,15.244762 17.346106,14.843534 17.562649,15.01609 C 17.81541,15.513436 17.773631,16.099462 17.772207,16.645828 C 17.718209,17.197142 17.618866,17.780595 17.291454,18.245176 C 16.977155,18.322603 16.566667,18.019365 16.305291,18.315456 C 16.119753,18.424999 15.670632,18.613828 15.888226,18.868199 C 16.446886,19.124059 17.166838,19.10706 17.694137,18.773226 C 18.441531,18.395709 18.609626,17.554263 18.750151,16.841472 C 18.84551,16.064081 18.833193,15.231549 18.501557,14.505133 C 18.292308,14.165057 17.807216,14.086069 17.455813,14.284798 C 16.810551,14.546256 16.225397,14.982175 15.74441,15.456764 C 15.582194,15.585168 15.517024,15.90844 15.736195,15.925933 C 15.616485,16.207254 15.575367,16.555589 15.393091,16.788287 C 15.121164,16.82565 14.944151,17.083155 14.688397,17.177678 C 14.664029,17.105472 14.908367,16.781506 14.995706,16.628567 C 15.228698,16.285683 15.401383,15.912242 15.485543,15.511849 C 15.275288,15.606215 15.016443,15.745798 14.826048,15.811964 C 15.521916,15.539995 15.906011,14.879423 16.412335,14.38156 C 16.818506,13.955348 17.160744,13.461655 17.683865,13.160316 C 17.875379,12.9712 17.580295,12.811203 17.394179,12.805115 C 17.009875,12.674406 16.602149,12.592861 16.241601,12.406228 C 16.006618,12.6366 15.602151,12.712362 15.444454,13.002661 C 15.452665,13.302295 15.896069,13.203916 16.091211,13.332522 C 16.462362,13.370256 16.127607,13.539492 16.019716,13.688366 C 15.857681,13.865981 15.704684,14.060134 15.541015,14.231612 C 15.514797,13.761435 15.344578,13.245164 15.408762,12.803923 C 16.100895,12.184506 16.817948,11.556327 17.650992,11.103197 C 17.796931,11.116212 17.614737,11.371734 17.603738,11.447 C 17.468531,11.686345 17.326781,11.933189 17.196945,12.182092 C 17.613548,11.826358 18.318264,11.86444 18.61661,11.390015 C 18.821647,11.016551 18.740177,10.399462 18.213927,10.31682 C 17.325036,10.35217 16.661096,11.010491 15.977985,11.454234 C 15.748125,11.585925 15.400071,12.023371 15.247996,11.981139 C 15.269037,11.718727 15.011447,11.338379 15.366383,11.200071 C 15.745178,10.910966 16.155938,10.623577 16.393636,10.237043 C 16.486808,10.122424 16.470025,9.9708184 16.266256,10.022403 z M 14.573343,14.822344 C 14.575717,15.158281 14.519205,14.539427 14.573343,14.822344 z "
       id="path2202" />
    <path
       style="fill:#000000;fill-opacity:1;fill-rule:nonzero;stroke:none;stroke-width:0.148;stroke-linecap:butt;stroke-linejoin:miter;stroke-miterlimit:4;stroke-dasharray:none;stroke-opacity:1"
       d="M 38.959718,11.045559 C 38.10296,11.292804 37.020129,11.471561 36.619118,12.331304 C 36.313757,12.67953 37.02336,12.47217 37.256782,12.457951 C 37.597223,12.394342 37.923696,12.273631 38.232392,12.131184 C 38.438866,12.57129 38.903878,13.051535 38.574148,13.530073 C 38.427544,14.050788 38.300478,14.566908 38.039607,15.050487 C 38.441338,14.967285 38.847893,14.605141 39.22845,14.588691 C 39.443502,15.05987 39.841327,15.519012 40.32382,15.803941 C 39.893953,16.392403 39.487765,16.993413 39.094084,17.605214 C 39.815856,17.197936 40.915243,17.120775 41.214722,16.273839 C 41.577559,15.958469 42.105448,15.132299 41.334483,14.928961 C 40.880421,14.901996 40.700655,14.509604 40.469871,14.205212 C 40.863144,14.155878 41.45697,13.718761 41.056989,13.354536 C 40.811344,12.979588 40.291259,12.873603 39.914883,12.692899 C 39.675232,12.106672 39.332719,11.559841 39.158346,10.95104 C 39.092137,10.982546 39.025927,11.014054 38.959718,11.045559 z "
       id="path2258" />
    <path
       style="fill:#000000;fill-opacity:1;fill-rule:nonzero;stroke:none;stroke-width:0.148;stroke-linecap:butt;stroke-linejoin:miter;stroke-miterlimit:4;stroke-dasharray:none;stroke-opacity:1"
       d="M 6.169338,18.057308 C 5.9302843,18.162187 5.561201,18.336729 5.6826534,18.680877 C 5.7259482,18.80735 5.8424539,18.902137 5.6617376,18.962413 C 5.4620014,19.160497 5.3952997,19.471178 5.1809318,19.671204 C 4.9212722,20.087937 4.3061455,20.373044 4.3866891,20.943517 C 4.4569842,21.255628 4.5785558,21.588172 4.7769332,21.826245 C 5.0177819,21.976845 5.307027,21.776363 5.4364942,21.578647 C 5.3291092,21.821545 5.1012638,22.109982 5.2071521,22.380648 C 5.377119,22.551437 5.5834031,22.318363 5.7667615,22.287553 C 5.8872254,22.224901 5.9810822,22.009795 5.9962271,22.276867 C 6.0234892,22.424531 5.7653582,22.400067 5.6980442,22.507486 C 5.4481775,22.69486 5.1363015,22.870641 4.9890105,23.142521 C 4.9326639,23.458154 5.3288469,23.477308 5.5098362,23.347804 C 5.7350541,23.2802 5.9568485,23.057637 6.1568822,23.027419 C 6.1999589,23.312539 6.3997553,23.64033 6.330191,23.903406 C 5.8441003,24.249445 5.6838869,24.894684 5.4848669,25.435169 C 5.5320559,25.748285 5.9242627,25.597917 6.089633,25.484206 C 6.4244267,25.312605 6.3742184,24.826974 6.6226189,24.595026 C 6.8941137,24.534812 7.2166391,24.283831 7.207761,23.98491 C 7.1242109,23.578453 6.9835548,23.187942 6.9063232,22.780227 C 7.3363969,22.700655 7.8889405,22.370941 7.763482,21.832423 C 7.6928489,21.312628 7.3152827,20.88454 6.9294516,20.62124 C 6.9277437,20.437737 6.8383226,20.239805 6.6671903,20.167855 C 6.9038874,20.112875 7.2381592,19.878824 7.0502724,19.591253 C 6.7272216,19.102567 6.5231362,18.529443 6.280319,17.990469 C 6.2433248,18.012749 6.2063322,18.03503 6.169338,18.057308 z M 6.1130415,19.539791 C 6.5073024,19.662114 5.9415878,19.787705 5.9350599,19.755326 C 5.9904513,19.703738 6.0668064,19.522639 6.1130415,19.539791 z M 6.4091519,20.15851 C 6.387646,20.21146 6.2377235,20.27946 6.3089377,20.117507 C 6.3169227,19.892032 6.3238226,20.00312 6.4091519,20.15851 z M 5.6697807,21.1154 C 5.6404126,21.269275 5.4987808,21.473716 5.4585545,21.537823 C 5.5357698,21.424348 5.5520551,21.133266 5.6697807,21.1154 z M 6.9764181,21.880038 C 7.0378358,22.002565 7.0274799,22.221685 6.8494559,22.196996 C 6.6965686,22.344799 6.5954339,21.925322 6.7817134,21.92083 C 6.8308276,21.933154 6.9576246,21.799048 6.9764181,21.880038 z "
       id="path2273" />
  </g>
</svg>
