<?xml version="1.0" encoding="UTF-8" standalone="no"?>
<!-- Created with Inkscape (http://www.inkscape.org/) -->
<svg
   xmlns:dc="http://purl.org/dc/elements/1.1/"
   xmlns:cc="http://web.resource.org/cc/"
   xmlns:rdf="http://www.w3.org/1999/02/22-rdf-syntax-ns#"
   xmlns:svg="http://www.w3.org/2000/svg"
   xmlns="http://www.w3.org/2000/svg"
   xmlns:xlink="http://www.w3.org/1999/xlink"
   xmlns:sodipodi="http://inkscape.sourceforge.net/DTD/sodipodi-0.dtd"
   xmlns:inkscape="http://www.inkscape.org/namespaces/inkscape"
   width="37"
   height="23"
   id="svg2"
   sodipodi:version="0.32"
   inkscape:version="0.43"
   version="1.0"
   sodipodi:docbase="/home/yekcim/Desktop/SVG/Weapons"
   sodipodi:docname="supertux.svg"
   inkscape:output_extension="org.inkscape.output.svg.inkscape">
  <defs
     id="defs4">
    <linearGradient
       id="linearGradient2836">
      <stop
         id="stop2838"
         offset="0"
         style="stop-color:#9f0000;stop-opacity:1;" />
      <stop
         id="stop2840"
         offset="1"
         style="stop-color:none" />
    </linearGradient>
    <linearGradient
       id="linearGradient2755">
      <stop
         style="stop-color:#ddcd00;stop-opacity:1;"
         offset="0"
         id="stop2757" />
      <stop
         style="stop-color:#fff24b;stop-opacity:1;"
         offset="1"
         id="stop2759" />
    </linearGradient>
    <linearGradient
       id="linearGradient2237">
      <stop
         style="stop-color:#ffffff;stop-opacity:1;"
         offset="0"
         id="stop2239" />
      <stop
         style="stop-color:#ffffff;stop-opacity:0;"
         offset="1"
         id="stop2241" />
    </linearGradient>
    <linearGradient
       id="linearGradient2207">
      <stop
         style="stop-color:#deb900;stop-opacity:1;"
         offset="0"
         id="stop2209" />
      <stop
         style="stop-color:#f1f38f;stop-opacity:1;"
         offset="1"
         id="stop2211" />
    </linearGradient>
    <linearGradient
       id="linearGradient2216">
      <stop
         id="stop2218"
         offset="0"
         style="stop-color:#9f0000;stop-opacity:1;" />
      <stop
         id="stop2220"
         offset="1"
         style="stop-color:#2d0000;stop-opacity:1;" />
    </linearGradient>
    <linearGradient
       id="linearGradient2261">
      <stop
         id="stop2263"
         offset="0"
         style="stop-color:#ded700;stop-opacity:1;" />
      <stop
         id="stop2265"
         offset="1"
         style="stop-color:#fffb6b;stop-opacity:1;" />
    </linearGradient>
    <defs
       id="defs1062">
      <linearGradient
         id="linearGradient10630"
         inkscape:collect="always">
        <stop
           id="stop10631"
           offset="0"
           style="stop-color:#616161;stop-opacity:1;" />
        <stop
           id="stop10632"
           offset="1"
           style="stop-color:#616161;stop-opacity:0;" />
      </linearGradient>
      <linearGradient
         id="linearGradient10560"
         inkscape:collect="always">
        <stop
           id="stop10561"
           offset="0"
           style="stop-color:#000000;stop-opacity:1;" />
        <stop
           id="stop10562"
           offset="1"
           style="stop-color:#000000;stop-opacity:0;" />
      </linearGradient>
      <linearGradient
         id="linearGradient13777">
        <stop
           id="stop13779"
           style="stop-color:#d17d00;stop-opacity:1.0000000;"
           offset="0.0000000" />
        <stop
           id="stop13778"
           style="stop-color:#a7b135;stop-opacity:0.0000000;"
           offset="1.0000000" />
      </linearGradient>
      <linearGradient
         id="linearGradient11847">
        <stop
           id="stop11849"
           style="stop-color:#000000;stop-opacity:1.0000000;"
           offset="0.0000000" />
        <stop
           id="stop11848"
           style="stop-color:#000000;stop-opacity:0.0000000;"
           offset="1.0000000" />
      </linearGradient>
      <linearGradient
         id="linearGradient6187">
        <stop
           id="stop6188"
           offset="0.0000000"
           style="stop-color:#2e1b0b;stop-opacity:1.0000000;" />
        <stop
           id="stop6189"
           offset="1"
           style="stop-color:#431e00;stop-opacity:0;" />
      </linearGradient>
      <linearGradient
         id="linearGradient4909"
         inkscape:collect="always">
        <stop
           id="stop4910"
           offset="0"
           style="stop-color:#000000;stop-opacity:1;" />
        <stop
           id="stop4911"
           offset="1"
           style="stop-color:#000000;stop-opacity:0;" />
      </linearGradient>
      <linearGradient
         id="linearGradient1780">
        <stop
           id="stop1781"
           offset="0.0000000"
           style="stop-color:#454545;stop-opacity:1.0000000;" />
        <stop
           id="stop1782"
           offset="1"
           style="stop-color:#ffffff;stop-opacity:0;" />
      </linearGradient>
      <linearGradient
         id="linearGradient3869">
        <stop
           id="stop3872"
           style="stop-color:#d2dd2e;stop-opacity:1.0000000;"
           offset="0.0000000" />
        <stop
           id="stop3871"
           style="stop-color:#b3b96d;stop-opacity:0.65555555;"
           offset="0.76146787" />
        <stop
           id="stop3870"
           style="stop-color:#b1b952;stop-opacity:0.0000000;"
           offset="1.0000000" />
      </linearGradient>
      <linearGradient
         y2="2708.2139"
         x2="96.982727"
         y1="319.33466"
         x1="4373.3052"
         gradientTransform="matrix(0.112563,0,0,0.115364,26.43402,157.1761)"
         gradientUnits="userSpaceOnUse"
         id="linearGradient3799"
         xlink:href="#linearGradient9217"
         inkscape:collect="always" />
      <linearGradient
         y2="2479.5938"
         x2="1523.3719"
         y1="2479.5938"
         x1="862.1651"
         gradientTransform="matrix(0.230667,0,0,7.644947e-2,26.55186,129.5549)"
         gradientUnits="userSpaceOnUse"
         id="linearGradient3800"
         xlink:href="#linearGradient7337"
         inkscape:collect="always" />
      <linearGradient
         y2="1630.2036"
         x2="1782.0374"
         y1="2173.3171"
         x1="580.22791"
         gradientTransform="matrix(0.162855,0,0,7.648058e-2,75.52973,161.8049)"
         gradientUnits="userSpaceOnUse"
         id="linearGradient3801"
         xlink:href="#linearGradient5442"
         inkscape:collect="always" />
      <radialGradient
         r="739.70477"
         fy="1573.4399"
         fx="-606.79681"
         cy="1573.4399"
         cx="-606.79681"
         gradientTransform="matrix(0.159978,0,0,7.785591e-2,363.0923,173.8583)"
         gradientUnits="userSpaceOnUse"
         id="radialGradient3802"
         xlink:href="#linearGradient5442"
         inkscape:collect="always" />
      <linearGradient
         y2="1720.9402"
         x2="5625.4653"
         y1="3945.1116"
         x1="4848.5972"
         gradientTransform="scale(0.659854,1.515487)"
         gradientUnits="userSpaceOnUse"
         id="linearGradient3803"
         xlink:href="#linearGradient21707"
         inkscape:collect="always" />
      <linearGradient
         y2="1184.9034"
         x2="-352.84012"
         y1="5021.4731"
         x1="-7797.7422"
         gradientTransform="matrix(0.236634,0,0,0.208284,-2451.443,4783.687)"
         gradientUnits="userSpaceOnUse"
         id="linearGradient3804"
         xlink:href="#linearGradient7337"
         inkscape:collect="always" />
      <linearGradient
         y2="1184.9034"
         x2="-352.84012"
         y1="5021.4731"
         x1="-7797.7422"
         gradientTransform="matrix(0.236634,0,0,0.208284,-2451.443,4783.687)"
         gradientUnits="userSpaceOnUse"
         id="linearGradient3805"
         xlink:href="#linearGradient7337"
         inkscape:collect="always" />
      <defs
         id="defs3745">
        <linearGradient
           xlink:href="#linearGradient13777"
           spreadMethod="pad"
           gradientUnits="objectBoundingBox"
           y2="0.5"
           x2="1"
           y1="0.5"
           x1="0"
           id="linearGradient22333" />
        <linearGradient
           id="linearGradient21707">
          <stop
             id="stop21708"
             offset="0.0000000"
             style="stop-color:#ffffff;stop-opacity:1.0000000;" />
          <stop
             id="stop21709"
             offset="1"
             style="stop-color:#a7b135;stop-opacity:0;" />
        </linearGradient>
        <linearGradient
           xlink:href="#linearGradient11847"
           spreadMethod="pad"
           gradientUnits="objectBoundingBox"
           y2="0.5"
           x2="1"
           y1="0.5"
           x1="0"
           id="linearGradient9217"
           inkscape:collect="always" />
        <linearGradient
           id="linearGradient8584">
          <stop
             id="stop8585"
             offset="0.0000000"
             style="stop-color:#000000;stop-opacity:1.0000000;" />
          <stop
             id="stop8586"
             offset="1"
             style="stop-color:#cece4c;stop-opacity:0;" />
        </linearGradient>
        <linearGradient
           id="linearGradient7337">
          <stop
             id="stop7338"
             offset="0.0000000"
             style="stop-color:#b1b12f;stop-opacity:1.0000000;" />
          <stop
             id="stop7339"
             offset="1"
             style="stop-color:#cece4c;stop-opacity:0;" />
        </linearGradient>
        <linearGradient
           xlink:href="#linearGradient3869"
           spreadMethod="pad"
           gradientUnits="objectBoundingBox"
           y2="0.5"
           x2="1"
           y1="0.5"
           x1="0"
           id="linearGradient5442" />
      </defs>
      <sodipodi:namedview
         inkscape:guide-bbox="true"
         showguides="true"
         inkscape:window-y="27"
         inkscape:window-x="0"
         inkscape:window-height="851"
         inkscape:window-width="1440"
         inkscape:current-layer="layer1"
         inkscape:cy="420.94487"
         inkscape:cx="297.63780"
         inkscape:zoom="0.80057989"
         inkscape:pageshadow="2"
         inkscape:pageopacity="0.0"
         borderopacity="1.0"
         bordercolor="#666666"
         pagecolor="#ffffff"
         id="namedview3772" />
      <metadata
         id="metadata3773">
        <rdf:RDF>
          <cc:Work
             rdf:about="">
            <dc:format>image/svg+xml</dc:format>
            <dc:type
               rdf:resource="http://purl.org/dc/dcmitype/StillImage" />
          </cc:Work>
        </rdf:RDF>
      </metadata>
      <linearGradient
         y2="-66.932083"
         x2="-160.14931"
         y1="106.3186"
         x1="-148.77991"
         gradientTransform="scale(0.891889,1.121216)"
         gradientUnits="userSpaceOnUse"
         id="linearGradient6167"
         xlink:href="#linearGradient4909"
         inkscape:collect="always" />
      <linearGradient
         gradientUnits="userSpaceOnUse"
         y2="359.09653"
         x2="758.31232"
         y1="69.852913"
         x1="698.5448"
         gradientTransform="matrix(0.915477,0.127968,-0.149762,1.071392,19.54851,-8.45341)"
         id="linearGradient10563"
         xlink:href="#linearGradient10560"
         inkscape:collect="always" />
      <linearGradient
         y2="342.74301"
         x2="770.59186"
         y1="96.894905"
         x1="647.37115"
         gradientTransform="matrix(0.915477,0.127968,-0.149762,1.071392,0,0)"
         gradientUnits="userSpaceOnUse"
         id="linearGradient10578"
         xlink:href="#linearGradient10560"
         inkscape:collect="always" />
      <linearGradient
         y2="-66.932083"
         x2="-160.14931"
         y1="106.3186"
         x1="-148.77991"
         gradientTransform="scale(0.891889,1.121216)"
         gradientUnits="userSpaceOnUse"
         id="linearGradient10604"
         xlink:href="#linearGradient4909"
         inkscape:collect="always" />
      <linearGradient
         gradientUnits="userSpaceOnUse"
         y2="3.6783011"
         x2="-154.1456"
         y1="105.15539"
         x1="-164.59187"
         gradientTransform="scale(0.883732,1.131565)"
         id="linearGradient10633"
         xlink:href="#linearGradient10630"
         inkscape:collect="always" />
      <linearGradient
         y2="3.6783011"
         x2="-154.1456"
         y1="105.15539"
         x1="-164.59187"
         gradientTransform="scale(0.883732,1.131565)"
         gradientUnits="userSpaceOnUse"
         id="linearGradient10647"
         xlink:href="#linearGradient10630"
         inkscape:collect="always" />
      <radialGradient
         r="308.80975"
         fy="218.60974"
         fx="-446.72464"
         cy="218.60974"
         cx="-446.72464"
         gradientTransform="matrix(-0.663014,1.058409,1.330757,0.590372,-891.7907,666.4254)"
         gradientUnits="userSpaceOnUse"
         id="radialGradient5568"
         xlink:href="#linearGradient1780"
         inkscape:collect="always" />
      <linearGradient
         y2="3.6783011"
         x2="-154.1456"
         y1="105.15539"
         x1="-164.59187"
         gradientTransform="matrix(0.437171,-0.479724,0.614848,0.55753,723.0732,-61.92042)"
         gradientUnits="userSpaceOnUse"
         id="linearGradient4391"
         xlink:href="#linearGradient10630"
         inkscape:collect="always" />
    </defs>
    <linearGradient
       inkscape:collect="always"
       xlink:href="#linearGradient2836"
       id="linearGradient1701"
       gradientUnits="userSpaceOnUse"
       gradientTransform="matrix(2.023025e-2,0,0,2.078901e-2,-653.8172,-430.0467)"
       x1="117.82167"
       y1="754.3006"
       x2="365.71429"
       y2="1642.9686" />
    <linearGradient
       inkscape:collect="always"
       xlink:href="#linearGradient2755"
       id="linearGradient1703"
       gradientUnits="userSpaceOnUse"
       gradientTransform="matrix(-1.669998e-2,0,0,1.689151e-2,-640.2658,-426.6682)"
       x1="176.28748"
       y1="1049.2004"
       x2="176.28748"
       y2="1153.0022" />
    <linearGradient
       inkscape:collect="always"
       xlink:href="#linearGradient2755"
       id="linearGradient1705"
       gradientUnits="userSpaceOnUse"
       gradientTransform="matrix(1.669998e-2,0,0,1.689151e-2,-652.7586,-426.6682)"
       x1="176.28748"
       y1="1049.2004"
       x2="176.28748"
       y2="1153.0022" />
    <linearGradient
       inkscape:collect="always"
       xlink:href="#linearGradient2237"
       id="linearGradient1707"
       gradientUnits="userSpaceOnUse"
       gradientTransform="matrix(2.111292e-2,0,0,2.051e-2,-654.3509,-429.6912)"
       x1="365.75235"
       y1="825.4859"
       x2="365.75247"
       y2="298.13937" />
    <linearGradient
       inkscape:collect="always"
       xlink:href="#linearGradient2207"
       id="linearGradient1709"
       gradientUnits="userSpaceOnUse"
       gradientTransform="matrix(1.989289e-2,0,0,2.259325e-2,-632.3725,-431.912)"
       x1="-712.20209"
       y1="244.15614"
       x2="-712.20209"
       y2="327.49435" />
    <linearGradient
       inkscape:collect="always"
       xlink:href="#linearGradient2261"
       id="linearGradient1711"
       gradientUnits="userSpaceOnUse"
       gradientTransform="matrix(2.031516,0,0,2.236321,-900.2824,-1428.53)"
       x1="459.48419"
       y1="651.05115"
       x2="450.45264"
       y2="643.73663" />
    <linearGradient
       inkscape:collect="always"
       xlink:href="#linearGradient2216"
       id="linearGradient1713"
       gradientUnits="userSpaceOnUse"
       gradientTransform="matrix(2.031516,0,0,2.236321,-900.2609,-1428.221)"
       x1="455.31549"
       y1="645.74109"
       x2="459.74393"
       y2="659.15436" />
  </defs>
  <sodipodi:namedview
     id="base"
     pagecolor="#ffffff"
     bordercolor="#666666"
     borderopacity="1.0"
     inkscape:pageopacity="0.0"
     inkscape:pageshadow="2"
     inkscape:zoom="10.77496"
     inkscape:cx="51.655476"
     inkscape:cy="18.794447"
     inkscape:document-units="px"
     inkscape:current-layer="layer1"
     inkscape:window-width="1430"
     inkscape:window-height="821"
     inkscape:window-x="0"
     inkscape:window-y="25"
     showguides="true"
     inkscape:guide-bbox="true" />
  <metadata
     id="metadata7">
    <rdf:RDF>
      <cc:Work
         rdf:about="">
        <dc:format>image/svg+xml</dc:format>
        <dc:type
           rdf:resource="http://purl.org/dc/dcmitype/StillImage" />
      </cc:Work>
    </rdf:RDF>
  </metadata>
  <g
     inkscape:label="Calque 1"
     inkscape:groupmode="layer"
     id="layer1">
    <g
       inkscape:label="Layer 1"
       id="g29199"
       transform="matrix(-12.72281,0,0,12.72281,4919.189,-1097.74)" />
    <g
       id="g29315"
       inkscape:label="Layer 1"
       transform="matrix(-12.72281,0,0,12.72281,23320.41,4195.449)" />
    <g
       inkscape:label="Layer 1"
       id="g29317"
       transform="matrix(-12.72281,0,0,12.72281,33928.32,3678.957)" />
    <g
       inkscape:label="Layer 1"
       id="g3589"
       transform="matrix(-12.0405,0,0,12.08877,4451.916,-792.7266)" />
    <g
       id="g3591"
       inkscape:label="Layer 1"
       transform="matrix(-12.0405,0,0,12.08877,21866.28,4236.674)" />
    <g
       inkscape:label="Layer 1"
       id="g3593"
       transform="matrix(-12.0405,0,0,12.08877,31905.32,3745.922)" />
    <g
       inkscape:label="Layer 1"
       id="g5042"
       transform="matrix(-11.94866,-4.370309,-4.370309,11.94866,4256.308,1038.565)" />
    <g
       id="g5044"
       inkscape:label="Layer 1"
       transform="matrix(-11.94866,-4.370309,-4.370309,11.94866,19719.64,12330.52)" />
    <g
       inkscape:label="Layer 1"
       id="g5046"
       transform="matrix(-11.94866,-4.370309,-4.370309,11.94866,29859.5,15489.28)" />
    <g
       inkscape:label="Layer 1"
       id="g5048"
       transform="matrix(-11.30786,-4.13593,-4.152513,11.35318,3712.695,1164.51)" />
    <g
       id="g5050"
       inkscape:label="Layer 1"
       transform="matrix(-11.30786,-4.13593,-4.152513,11.35318,18339.83,11869.74)" />
    <g
       inkscape:label="Layer 1"
       id="g5052"
       transform="matrix(-11.30786,-4.13593,-4.152513,11.35318,27936.59,14857.28)" />
    <g
       inkscape:label="Layer 1"
       id="g11475"
       transform="matrix(-11.94866,-4.370309,-4.370309,11.94866,6111.75,1405.994)" />
    <g
       id="g11477"
       inkscape:label="Layer 1"
       transform="matrix(-11.94866,-4.370309,-4.370309,11.94866,21575.08,12697.94)" />
    <g
       inkscape:label="Layer 1"
       id="g11479"
       transform="matrix(-11.94866,-4.370309,-4.370309,11.94866,31714.93,15856.72)" />
    <g
       inkscape:label="Layer 1"
       id="g11481"
       transform="matrix(-11.30786,-4.13593,-4.152513,11.35318,5568.137,1531.939)" />
    <g
       id="g11483"
       inkscape:label="Layer 1"
       transform="matrix(-11.30786,-4.13593,-4.152513,11.35318,20195.26,12237.17)" />
    <g
       inkscape:label="Layer 1"
       id="g11485"
       transform="matrix(-11.30786,-4.13593,-4.152513,11.35318,29792.03,15224.71)" />
    <g
       inkscape:label="Layer 1"
       id="g7970"
       transform="matrix(-11.94866,-4.370309,-4.370309,11.94866,6913.143,1420.521)" />
    <g
       id="g7972"
       inkscape:label="Layer 1"
       transform="matrix(-11.94866,-4.370309,-4.370309,11.94866,22376.47,12712.48)" />
    <g
       inkscape:label="Layer 1"
       id="g7974"
       transform="matrix(-11.94866,-4.370309,-4.370309,11.94866,32516.33,15871.24)" />
    <g
       inkscape:label="Layer 1"
       id="g7976"
       transform="matrix(-11.30786,-4.13593,-4.152513,11.35318,6369.531,1546.466)" />
    <g
       id="g7978"
       inkscape:label="Layer 1"
       transform="matrix(-11.30786,-4.13593,-4.152513,11.35318,20996.65,12251.69)" />
    <g
       inkscape:label="Layer 1"
       id="g7980"
       transform="matrix(-11.30786,-4.13593,-4.152513,11.35318,30593.41,15239.23)" />
    <g
       inkscape:label="Layer 1"
       id="g7299"
       transform="matrix(-11.94866,-4.370309,-4.370309,11.94866,5360.163,1024.628)" />
    <g
       id="g7301"
       inkscape:label="Layer 1"
       transform="matrix(-11.94866,-4.370309,-4.370309,11.94866,20823.5,12316.58)" />
    <g
       inkscape:label="Layer 1"
       id="g7303"
       transform="matrix(-11.94866,-4.370309,-4.370309,11.94866,30963.35,15475.36)" />
    <g
       inkscape:label="Layer 1"
       id="g7305"
       transform="matrix(-11.30786,-4.13593,-4.152513,11.35318,4816.551,1150.572)" />
    <g
       id="g7307"
       inkscape:label="Layer 1"
       transform="matrix(-11.30786,-4.13593,-4.152513,11.35318,19443.67,11855.8)" />
    <g
       inkscape:label="Layer 1"
       id="g7309"
       transform="matrix(-11.30786,-4.13593,-4.152513,11.35318,29040.44,14843.34)" />
    <g
       id="g3355"
       transform="matrix(0,1.277362,-1.277362,0,-517.9052,837.2192)">
      <path
         id="path3287"
         d="M -639.96875,-434.0625 C -640.70005,-433.83703 -641.48777,-431.36274 -641.9375,-425.0625 C -642.00439,-425.43527 -642,-425.93531 -642,-426.8125 C -642.00001,-428.8175 -643.30265,-431.8125 -646.59375,-431.8125 C -646.6066,-431.81249 -646.61217,-431.81258 -646.625,-431.8125 C -649.89841,-431.79275 -651.1875,-428.81139 -651.1875,-426.8125 C -651.18749,-424.8136 -651.17475,-424.80867 -651.96875,-423.6875 C -652.45261,-423.00428 -653.11504,-421.74707 -653.5625,-420.28125 C -653.57486,-420.25089 -653.58167,-420.21817 -653.59375,-420.1875 C -653.5964,-420.17861 -653.59112,-420.16515 -653.59375,-420.15625 C -653.60215,-420.13472 -653.61673,-420.11543 -653.625,-420.09375 C -653.62829,-420.08234 -653.62174,-420.07393 -653.625,-420.0625 C -654.6951,-417.23629 -654.68049,-413.18403 -654.15625,-410.59375 C -654.32913,-410.2179 -654.4753,-409.90056 -654.625,-409.65625 C -654.48185,-409.37186 -654.13433,-409.12735 -653.65625,-408.90625 C -653.53912,-408.64494 -653.38015,-408.41998 -653.25,-408.28125 C -652.97218,-408.00623 -652.67248,-408.02867 -652.375,-408.46875 C -652.29911,-408.44907 -652.23492,-408.42508 -652.15625,-408.40625 C -652.41536,-407.82982 -652.52622,-407.46031 -652.5625,-407.25 C -652.56786,-407.21121 -652.5954,-407.15279 -652.59375,-407.125 C -652.59126,-407.10609 -652.5686,-407.07588 -652.5625,-407.0625 C -652.55767,-407.05475 -652.53757,-407.03677 -652.53125,-407.03125 C -652.52351,-407.02783 -652.50909,-407.00145 -652.5,-407 C -652.49513,-406.99974 -652.47394,-406.99981 -652.46875,-407 C -652.45776,-407.00126 -652.41843,-407.02835 -652.40625,-407.03125 C -652.39988,-407.03309 -652.38165,-407.02904 -652.375,-407.03125 C -652.03625,-407.15691 -651.35279,-407.71584 -650.875,-407.71875 C -650.8078,-407.71597 -650.71441,-407.6846 -650.65625,-407.65625 C -650.63198,-407.64234 -650.58466,-407.61323 -650.5625,-407.59375 C -650.42693,-407.45798 -650.32716,-407.17959 -650.3125,-406.75 C -650.29707,-406.29779 -650.27078,-406.04347 -650.21875,-405.9375 C -650.21336,-405.92831 -650.19326,-405.91272 -650.1875,-405.90625 C -650.18137,-405.90237 -650.16275,-405.87641 -650.15625,-405.875 C -650.14957,-405.87477 -650.13205,-405.90419 -650.125,-405.90625 C -650.12138,-405.90783 -650.09746,-405.90414 -650.09375,-405.90625 C -650.08985,-405.90937 -650.06649,-405.93389 -650.0625,-405.9375 C -650.05433,-405.94566 -650.03979,-405.9588 -650.03125,-405.96875 C -649.83926,-406.20616 -649.53161,-406.86964 -649.15625,-407.25 C -648.77666,-407.61824 -648.28722,-407.7163 -647.71875,-406.875 C -647.49265,-406.54039 -647.32579,-406.38131 -647.21875,-406.34375 C -647.21586,-406.34309 -647.1903,-406.3442 -647.1875,-406.34375 C -647.18494,-406.3439 -647.15872,-406.3434 -647.15625,-406.34375 C -647.1541,-406.34487 -647.12708,-406.34244 -647.125,-406.34375 C -647.123,-406.34525 -647.12692,-406.37332 -647.125,-406.375 C -647.11969,-406.38115 -647.09839,-406.3985 -647.09375,-406.40625 C -647.00273,-406.59653 -647.06323,-407.15461 -647.1875,-407.8125 C -646.73499,-407.79721 -646.29694,-407.77964 -645.84375,-407.78125 C -645.95665,-407.17705 -646.00452,-406.6533 -645.9375,-406.4375 C -645.93499,-406.43097 -645.9403,-406.4121 -645.9375,-406.40625 C -645.93441,-406.40109 -645.90964,-406.37946 -645.90625,-406.375 C -645.90241,-406.37163 -645.87915,-406.34638 -645.875,-406.34375 C -645.87261,-406.3432 -645.84622,-406.3441 -645.84375,-406.34375 C -645.84103,-406.344 -645.8153,-406.3433 -645.8125,-406.34375 C -645.80953,-406.34461 -645.78431,-406.34268 -645.78125,-406.34375 C -645.67434,-406.38741 -645.53214,-406.54995 -645.3125,-406.875 C -644.1626,-408.57672 -643.38832,-406.44897 -643,-405.96875 C -642.99573,-405.96378 -642.97293,-405.94203 -642.96875,-405.9375 C -642.96476,-405.93389 -642.9414,-405.90937 -642.9375,-405.90625 C -642.93379,-405.90414 -642.90987,-405.90783 -642.90625,-405.90625 C -642.8992,-405.90419 -642.88168,-405.87477 -642.875,-405.875 C -642.8685,-405.87641 -642.84988,-405.90237 -642.84375,-405.90625 C -642.84087,-405.90949 -642.81529,-405.93359 -642.8125,-405.9375 C -642.8073,-405.9481 -642.78608,-405.9865 -642.78125,-406 C -642.74172,-406.12749 -642.73187,-406.36562 -642.71875,-406.75 C -642.69946,-407.31526 -642.52545,-407.60051 -642.3125,-407.6875 C -641.85911,-407.83961 -641.11726,-407.24611 -640.71875,-407.0625 C -640.70391,-407.05605 -640.67008,-407.03638 -640.65625,-407.03125 C -640.64296,-407.02683 -640.60593,-407.03415 -640.59375,-407.03125 C -640.58795,-407.0302 -640.568,-407.00063 -640.5625,-407 C -640.55731,-406.99981 -640.53612,-406.99974 -640.53125,-407 C -640.52671,-407.00073 -640.50421,-407.03004 -640.5,-407.03125 C -640.49648,-407.03348 -640.47191,-407.02849 -640.46875,-407.03125 C -640.46596,-407.03456 -640.47117,-407.05862 -640.46875,-407.0625 C -640.46672,-407.06696 -640.43914,-407.08869 -640.4375,-407.09375 C -640.43626,-407.09942 -640.43833,-407.1187 -640.4375,-407.125 C -640.43585,-407.15279 -640.43214,-407.21121 -640.4375,-407.25 C -640.46998,-407.43828 -640.57307,-407.7739 -640.78125,-408.25 C -639.42887,-408.53803 -638.4644,-408.95617 -638.21875,-409.53125 C -638.72935,-410.46264 -639.29489,-412.01668 -639.84375,-413.78125 C -639.44802,-414.84724 -639.25,-416.05309 -639.25,-417.3125 C -639.25,-418.09982 -639.35544,-418.89736 -639.53125,-419.65625 C -639.5306,-419.67028 -639.53125,-419.70462 -639.53125,-419.71875 C -639.53675,-419.74201 -639.52563,-419.75807 -639.53125,-419.78125 C -639.53348,-419.80392 -639.52712,-419.85168 -639.53125,-419.875 C -639.53597,-419.8984 -639.55614,-419.94556 -639.5625,-419.96875 C -639.57623,-420.0147 -639.60618,-420.08465 -639.625,-420.125 C -639.63041,-420.13516 -639.64962,-420.14535 -639.65625,-420.15625 C -639.6587,-420.16515 -639.65378,-420.17861 -639.65625,-420.1875 C -639.66621,-420.2024 -639.67686,-420.23558 -639.6875,-420.25 C -639.72936,-420.39815 -639.76666,-420.54383 -639.8125,-420.6875 C -637.33473,-424.46917 -638.22587,-432.92531 -639.59375,-433.96875 C -639.66684,-434.01898 -639.76854,-434.05648 -639.84375,-434.0625 C -639.88146,-434.06262 -639.9307,-434.07423 -639.96875,-434.0625 z "
         style="color:#000000;fill:none;fill-opacity:1;fill-rule:nonzero;stroke:#000000;stroke-width:0.49985158;stroke-linecap:round;stroke-linejoin:round;marker:none;marker-start:none;marker-mid:none;marker-end:none;stroke-miterlimit:4;stroke-dasharray:none;stroke-dashoffset:0;stroke-opacity:1;visibility:visible;display:inline;overflow:visible" />
      <path
         sodipodi:nodetypes="ccccc"
         id="path2817"
         d="M -649.42421,-425.21616 C -649.33983,-425.21616 -652.88426,-412.49696 -654.62627,-409.65411 C -653.44412,-407.3056 -639.25896,-407.08163 -638.21087,-409.53531 C -640.10957,-412.99873 -642.71933,-424.97858 -642.71933,-424.97858 L -649.42421,-425.21616 z "
         style="color:#000000;fill:url(#linearGradient1701);fill-opacity:1;fill-rule:nonzero;stroke:none;stroke-width:4.35669899;stroke-linecap:round;stroke-linejoin:round;marker:none;marker-start:none;marker-mid:none;marker-end:none;stroke-miterlimit:4;stroke-dasharray:none;stroke-dashoffset:0;stroke-opacity:1;visibility:visible;display:inline;overflow:visible" />
      <path
         sodipodi:nodetypes="cc"
         id="path3285"
         d="M -650.655,-419.49745 C -651.87004,-395.40359 -657.3039,-416.06336 -652.65201,-421.87935"
         style="fill:#0c0c0c;fill-opacity:1;fill-rule:evenodd;stroke:none;stroke-width:1px;stroke-linecap:butt;stroke-linejoin:miter;stroke-opacity:1" />
      <path
         style="fill:url(#linearGradient1703);fill-opacity:1;fill-rule:evenodd;stroke:none;stroke-width:2.06750011;stroke-linecap:butt;stroke-linejoin:miter;stroke-miterlimit:4;stroke-dasharray:none;stroke-opacity:1;display:inline"
         d="M -643.36167,-411.86331 C -644.37657,-412.44686 -645.05325,-411.00094 -645.05325,-411.00094 C -645.05325,-411.00094 -646.95762,-404.43798 -645.30387,-406.88539 C -643.6501,-409.3328 -642.807,-403.86429 -642.70825,-406.75841 C -642.6095,-409.65253 -639.11652,-404.61595 -640.99361,-408.66674 C -641.38499,-409.51132 -642.34675,-411.27976 -643.36167,-411.86331 z "
         id="path2787"
         sodipodi:nodetypes="ccsssz" />
      <path
         sodipodi:nodetypes="cc"
         id="path2767"
         d="M -642.08109,-422.66229 C -640.86605,-446.75615 -635.43219,-426.09638 -640.08408,-420.28039"
         style="fill:#0c0c0c;fill-opacity:1;fill-rule:evenodd;stroke:none;stroke-width:1px;stroke-linecap:butt;stroke-linejoin:miter;stroke-opacity:1" />
      <path
         style="fill:url(#linearGradient1705);fill-opacity:1;fill-rule:evenodd;stroke:none;stroke-width:2.06750011;stroke-linecap:butt;stroke-linejoin:miter;stroke-miterlimit:4;stroke-dasharray:none;stroke-opacity:1;display:inline"
         d="M -649.6627,-411.86331 C -648.64779,-412.44686 -647.97112,-411.00094 -647.97112,-411.00094 C -647.97112,-411.00094 -646.06674,-404.43798 -647.7205,-406.88539 C -649.37425,-409.3328 -650.21735,-403.86429 -650.31611,-406.75841 C -650.41486,-409.65253 -653.90785,-404.61595 -652.03075,-408.66674 C -651.63938,-409.51132 -650.6776,-411.27976 -649.6627,-411.86331 z "
         id="path2763"
         sodipodi:nodetypes="ccsssz" />
      <path
         sodipodi:nodetypes="czzssszzsc"
         id="path2182"
         d="M -646.63331,-431.8156 C -649.90671,-431.79586 -651.17595,-428.80638 -651.17595,-426.80749 C -651.17595,-424.8086 -651.17783,-424.81028 -651.97183,-423.68911 C -652.76583,-422.56793 -654.05374,-419.88712 -654.05374,-417.30699 C -654.05374,-412.79147 -651.34174,-409.1268 -646.59568,-409.1268 C -641.84963,-409.1268 -639.23999,-412.79147 -639.23999,-417.30699 C -639.23999,-419.88712 -640.42429,-422.56793 -641.21829,-423.68911 C -642.01229,-424.81028 -642.01417,-424.81649 -642.01417,-426.82149 C -642.01417,-428.8265 -643.30458,-431.8156 -646.59568,-431.8156 C -646.60855,-431.8156 -646.62048,-431.81568 -646.63331,-431.8156 z "
         style="color:#000000;fill:#0c0c0c;fill-opacity:1;fill-rule:evenodd;stroke:none;stroke-width:0.34202874;stroke-linecap:round;stroke-linejoin:round;marker:none;marker-start:none;marker-mid:none;marker-end:none;stroke-miterlimit:4;stroke-dasharray:none;stroke-dashoffset:0;stroke-opacity:1;visibility:visible;display:inline;overflow:visible" />
      <path
         sodipodi:nodetypes="cc"
         id="path2235"
         d="M -646.56922,-427.44529 C -668.08747,-404.71164 -625.28902,-404.32823 -646.56922,-427.44529 z "
         style="fill:url(#linearGradient1707);fill-opacity:1;fill-rule:evenodd;stroke:#000000;stroke-width:0.02080928px;stroke-linecap:butt;stroke-linejoin:miter;stroke-opacity:1" />
      <path
         transform="matrix(2.157487e-2,0,0,2.737308e-2,-654.5293,-428.3609)"
         d="M 500.00002 125.93361 A 126.42857 30.714285 0 1 1  247.14287,125.93361 A 126.42857 30.714285 0 1 1  500.00002 125.93361 z"
         sodipodi:ry="30.714285"
         sodipodi:rx="126.42857"
         sodipodi:cy="125.93361"
         sodipodi:cx="373.57144"
         id="path2215"
         style="color:#000000;fill:#b89c09;fill-opacity:1;fill-rule:evenodd;stroke:none;stroke-width:0.30000001;stroke-linecap:round;stroke-linejoin:round;marker:none;marker-start:none;marker-mid:none;marker-end:none;stroke-miterlimit:4;stroke-dasharray:none;stroke-dashoffset:0;stroke-opacity:1;visibility:visible;display:inline;overflow:visible"
         sodipodi:type="arc" />
      <path
         sodipodi:nodetypes="cc"
         id="path2205"
         d="M -646.55325,-427.04951 C -661.06542,-424.0943 -631.98891,-424.08993 -646.55325,-427.04951 z "
         style="fill:url(#linearGradient1709);fill-opacity:1;fill-rule:evenodd;stroke:none;stroke-width:1px;stroke-linecap:butt;stroke-linejoin:miter;stroke-opacity:1" />
      <g
         transform="matrix(3.143352e-2,0,0,2.737308e-2,-658.193,-428.3655)"
         id="g2228">
        <g
           id="g2223">
          <path
             sodipodi:type="arc"
             style="opacity:1;color:#000000;fill:#ffffff;fill-opacity:1;fill-rule:evenodd;stroke:none;stroke-width:0.30000001;stroke-linecap:round;stroke-linejoin:round;marker:none;marker-start:none;marker-mid:none;marker-end:none;stroke-miterlimit:4;stroke-dasharray:none;stroke-dashoffset:0;stroke-opacity:1;visibility:visible;display:inline;overflow:visible"
             id="path2189"
             sodipodi:cx="297.14285"
             sodipodi:cy="9.5050402"
             sodipodi:rx="57.142857"
             sodipodi:ry="57.142857"
             d="M 354.28571 9.5050402 A 57.142857 57.142857 0 1 1  240,9.5050402 A 57.142857 57.142857 0 1 1  354.28571 9.5050402 z"
             transform="matrix(0.725393,0,0,1.17205,111.5976,-28.66574)" />
          <path
             transform="matrix(0.850393,0,0,1.374018,153.0262,-42.12649)"
             d="M 354.28571 9.5050402 A 57.142857 57.142857 0 1 1  240,9.5050402 A 57.142857 57.142857 0 1 1  354.28571 9.5050402 z"
             sodipodi:ry="57.142857"
             sodipodi:rx="57.142857"
             sodipodi:cy="9.5050402"
             sodipodi:cx="297.14285"
             id="path2185"
             style="opacity:1;color:#000000;fill:#ffffff;fill-opacity:1;fill-rule:evenodd;stroke:none;stroke-width:0.30000001;stroke-linecap:round;stroke-linejoin:round;marker:none;marker-start:none;marker-mid:none;marker-end:none;stroke-miterlimit:4;stroke-dasharray:none;stroke-dashoffset:0;stroke-opacity:1;visibility:visible;display:inline;overflow:visible"
             sodipodi:type="arc" />
          <path
             sodipodi:type="arc"
             style="opacity:1;color:#000000;fill:#000000;fill-opacity:1;fill-rule:evenodd;stroke:none;stroke-width:0.30000001;stroke-linecap:round;stroke-linejoin:round;marker:none;marker-start:none;marker-mid:none;marker-end:none;stroke-miterlimit:4;stroke-dasharray:none;stroke-dashoffset:0;stroke-opacity:1;visibility:visible;display:inline;overflow:visible"
             id="path2221"
             sodipodi:cx="335"
             sodipodi:cy="24.505039"
             sodipodi:rx="12.142858"
             sodipodi:ry="12.142858"
             d="M 347.14286 24.505039 A 12.142858 12.142858 0 1 1  322.85714,24.505039 A 12.142858 12.142858 0 1 1  347.14286 24.505039 z"
             transform="matrix(2,0,0,2,-264.2857,-36.6479)" />
        </g>
        <path
           sodipodi:type="arc"
           style="opacity:1;color:#000000;fill:#000000;fill-opacity:1;fill-rule:evenodd;stroke:none;stroke-width:0.30000001;stroke-linecap:round;stroke-linejoin:round;marker:none;marker-start:none;marker-mid:none;marker-end:none;stroke-miterlimit:4;stroke-dasharray:none;stroke-dashoffset:0;stroke-opacity:1;visibility:visible;display:inline;overflow:visible"
           id="path2217"
           sodipodi:cx="335"
           sodipodi:cy="24.505039"
           sodipodi:rx="12.142858"
           sodipodi:ry="12.142858"
           d="M 347.14286 24.505039 A 12.142858 12.142858 0 1 1  322.85714,24.505039 A 12.142858 12.142858 0 1 1  347.14286 24.505039 z"
           transform="matrix(2,0,0,2,-342.8571,-36.6479)" />
      </g>
      <g
         style="stroke:none"
         transform="matrix(0.308827,0,0,0.301905,-654.0156,-425.5998)"
         id="g1317">
        <path
           style="fill:url(#linearGradient1711);fill-opacity:1;fill-rule:evenodd;stroke:none;stroke-width:4.90235567;stroke-linecap:butt;stroke-linejoin:round;stroke-miterlimit:4;stroke-dasharray:none;stroke-opacity:1"
           d="M 13.899137,7.9967283 L 34.2143,7.9967283 L 44.371883,19.178322 L 24.056719,41.54151 L 3.7415547,19.178322 L 13.899137,7.9967283 z "
           id="path1309" />
        <path
           style="font-size:16.08726883px;font-style:normal;font-variant:normal;font-weight:bold;font-stretch:normal;text-align:start;line-height:125%;writing-mode:lr-tb;text-anchor:start;fill:url(#linearGradient1713);fill-opacity:1;stroke:#000000;stroke-width:0.30000001;stroke-linecap:round;stroke-linejoin:round;stroke-miterlimit:4;stroke-dasharray:none;stroke-opacity:1;font-family:URW Bookman L"
           d="M 13.349286,5.5394611 C 12.902333,5.6650527 12.467852,5.9458002 12.143073,6.3081957 L 1.9854909,17.489789 C 1.9703569,17.506205 1.9367351,17.54288 1.9220057,17.559675 C 1.7932283,17.714026 1.6344251,17.939178 1.541097,18.118754 C 1.3725825,18.46241 1.2505701,18.912871 1.2236728,19.306799 C 1.2215599,19.353314 1.2236728,19.469648 1.2236728,19.516454 C 1.2236728,19.56326 1.2215599,19.609708 1.2236728,19.656224 C 1.2505701,20.050151 1.3725825,20.500612 1.541097,20.844268 C 1.6344251,21.023843 1.7932283,21.248996 1.9220057,21.403348 C 1.9367351,21.420141 1.9703569,21.456817 1.9854909,21.473232 L 22.300656,43.836421 C 22.316075,43.853059 22.348416,43.890183 22.36414,43.906305 C 22.428093,43.968721 22.550065,44.061865 22.618081,44.11596 C 22.704257,44.180971 22.844248,44.273598 22.935504,44.325615 C 23.119784,44.424438 23.373419,44.55835 23.570352,44.605155 C 23.886681,44.671731 24.269784,44.671731 24.586112,44.605155 C 24.783047,44.55835 25.036681,44.424438 25.220961,44.325615 C 25.312217,44.273598 25.452208,44.180971 25.538385,44.11596 C 25.606399,44.061865 25.728371,43.968721 25.792326,43.906305 C 25.808049,43.890183 25.840391,43.853059 25.85581,43.836421 L 46.170974,21.473232 C 46.18611,21.456817 46.21973,21.420141 46.234459,21.403348 C 46.363237,21.248996 46.522039,21.023843 46.615368,20.844268 C 46.783882,20.500612 46.905896,20.050129 46.932794,19.656224 C 46.934906,19.609708 46.932794,19.56326 46.932794,19.516454 C 46.932794,19.469648 46.934906,19.353314 46.932794,19.306799 C 46.905896,18.912871 46.783882,18.46241 46.615368,18.118754 C 46.522039,17.939178 46.363237,17.714026 46.234459,17.559675 C 46.21973,17.54288 46.18611,17.506205 46.170974,17.489789 L 36.013392,6.3081957 C 35.99842,6.2925414 35.965183,6.2535178 35.949907,6.2383107 C 35.482677,5.7951841 34.855325,5.5318577 34.235813,5.5394611 L 13.920651,5.5394611 C 13.75179,5.5207878 13.58163,5.5207878 13.412771,5.5394611 C 13.382644,5.5466621 13.379089,5.5310972 13.349286,5.5394611 z M 14.936408,11.130258 L 16.650501,11.130258 C 14.763527,12.450246 13.723979,14.504595 13.857165,16.93071 C 13.974629,19.070219 15.057893,20.979521 16.77747,22.032312 C 18.030204,22.7794 18.732725,23.004216 22.87202,23.989091 L 26.363689,24.827711 C 27.515172,25.11 28.306916,25.362079 28.8396,25.666329 C 28.968174,25.743261 29.122387,25.86145 29.220508,25.945871 C 29.274241,25.994823 29.36623,26.103418 29.410963,26.155524 C 29.421607,26.168763 29.46433,26.211947 29.474448,26.225411 C 29.484037,26.239096 29.528852,26.281384 29.537934,26.295294 C 29.5551,26.323607 29.586222,26.405747 29.601418,26.435066 C 29.615659,26.464897 29.652511,26.543907 29.664903,26.574834 C 29.676401,26.606322 29.718615,26.681955 29.728389,26.714604 C 29.764082,26.8476 29.780536,27.049627 29.791873,27.203799 C 29.822162,27.755656 29.643816,28.311695 29.347479,28.741269 C 28.678682,29.649124 27.323153,30.278737 25.601871,30.278737 C 23.178433,30.278716 20.70045,29.17943 18.872472,27.413454 C 17.881762,26.394677 17.19387,25.585264 16.206105,23.989091 L 13.603225,24.827711 L 14.682469,27.553223 L 7.3182228,19.516454 L 14.936408,11.130258 z M 30.871115,11.130258 L 33.220057,11.130258 L 40.838243,19.516454 L 35.061117,25.806101 C 35.06124,25.662104 35.069163,25.533247 35.061117,25.386791 C 34.945525,23.281163 33.916257,21.443803 32.267784,20.424958 C 31.191912,19.745788 30.139993,19.389051 27.188993,18.607949 L 24.014747,17.76933 C 23.909007,17.735359 23.281208,17.623679 22.300656,17.419905 C 21.031242,17.137592 20.134187,16.760637 19.634289,16.301745 C 19.621633,16.289513 19.582975,16.244273 19.570805,16.23186 C 19.559124,16.219292 19.518514,16.174723 19.50732,16.161976 C 19.496614,16.149072 19.454054,16.105172 19.443835,16.09209 C 19.404892,16.039046 19.348151,15.938367 19.316866,15.882435 C 19.302177,15.854102 19.266199,15.771759 19.25338,15.742665 C 19.247448,15.727929 19.195381,15.687719 19.189896,15.672781 C 19.17986,15.642523 19.198083,15.564051 19.189896,15.533011 C 19.178987,15.485847 19.133238,15.372376 19.126412,15.323356 C 19.122754,15.290258 19.12828,15.217555 19.126412,15.183587 C 19.124013,15.140067 19.125679,15.086508 19.126412,15.043816 C 19.195909,13.754332 20.696673,12.807498 22.808535,12.807498 C 24.781889,12.807564 27.00319,13.721279 28.395204,15.113701 C 29.017336,15.724954 29.490783,16.275044 30.68066,17.76933 L 33.093086,16.860825 L 30.871115,11.130258 z M 19.443835,31.816207 C 20.955669,32.869021 23.374637,33.56333 25.728839,33.56333 C 26.632621,33.56333 27.461012,33.452277 28.268235,33.283791 L 24.078233,37.896198 L 19.25338,32.584942 L 19.443835,31.816207 z "
           id="path2247" />
        <text
           xml:space="preserve"
           style="font-size:33.38130951px;font-style:normal;font-variant:normal;font-weight:bold;font-stretch:normal;text-align:start;line-height:125%;writing-mode:lr-tb;text-anchor:start;fill:none;fill-opacity:1;stroke:none;stroke-width:0.44511414;stroke-linecap:butt;stroke-linejoin:round;stroke-miterlimit:4;stroke-dasharray:none;stroke-opacity:1;font-family:URW Bookman L"
           x="11.964669"
           y="32.845276"
           id="text2186"
           sodipodi:linespacing="125%"
           transform="matrix(1.001662,0,5.394056e-2,0.99834,0,0)"><tspan
             sodipodi:role="line"
             id="tspan2188"
             x="11.964669"
             y="32.845276"
             style="stroke:none;stroke-width:0.44511414;stroke-miterlimit:4;stroke-dasharray:none;stroke-opacity:1">S</tspan></text>
        <path
           style="fill:none;fill-opacity:1;fill-rule:evenodd;stroke:none;stroke-width:0;stroke-linecap:butt;stroke-linejoin:round;stroke-miterlimit:4;stroke-dasharray:none;stroke-opacity:1"
           d="M 13.708682,6.2083888 C 13.350809,6.2508789 13.015874,6.4229413 12.756409,6.6975835 L 2.5988254,17.879178 C 2.2783138,18.216705 2.097042,18.683784 2.097042,19.17206 C 2.097042,19.660316 2.2783138,20.127394 2.5988254,20.464922 L 22.913991,42.828109 C 23.547194,43.517232 24.566244,43.517232 25.199446,42.828109 L 45.514611,20.464922 C 45.835125,20.127394 46.016396,19.660316 46.016396,19.17206 C 46.016396,18.683784 45.835125,18.216705 45.514611,17.879178 L 35.357028,6.6975835 C 35.048747,6.3765601 34.638624,6.2009866 34.2143,6.2083888 L 13.899137,6.2083888 C 13.835714,6.2042965 13.772106,6.2042965 13.708682,6.2083888 z M 14.597471,9.772522 L 33.515967,9.772522 L 42.086428,19.206992 L 24.056719,38.984436 L 6.0270107,19.206992 L 14.597471,9.772522 z "
           id="path2190" />
      </g>
    </g>
  </g>
</svg>
