<?xml version="1.0" encoding="UTF-8" standalone="no"?>
<!-- Created with Inkscape (http://www.inkscape.org/) -->
<svg
   xmlns:dc="http://purl.org/dc/elements/1.1/"
   xmlns:cc="http://web.resource.org/cc/"
   xmlns:rdf="http://www.w3.org/1999/02/22-rdf-syntax-ns#"
   xmlns:svg="http://www.w3.org/2000/svg"
   xmlns="http://www.w3.org/2000/svg"
   xmlns:xlink="http://www.w3.org/1999/xlink"
   xmlns:sodipodi="http://inkscape.sourceforge.net/DTD/sodipodi-0.dtd"
   xmlns:inkscape="http://www.inkscape.org/namespaces/inkscape"
   width="48"
   height="48"
   id="svg2"
   sodipodi:version="0.32"
   inkscape:version="0.43"
   version="1.0"
   sodipodi:docbase="/home/yekcim/Desktop/SVG/Weapons"
   sodipodi:docname="supertux_ico.svg"
   inkscape:output_extension="org.inkscape.output.svg.inkscape">
  <defs
     id="defs4">
    <linearGradient
       id="linearGradient2261">
      <stop
         style="stop-color:#ded700;stop-opacity:1;"
         offset="0"
         id="stop2263" />
      <stop
         style="stop-color:#fffb6b;stop-opacity:1;"
         offset="1"
         id="stop2265" />
    </linearGradient>
    <linearGradient
       id="linearGradient2216">
      <stop
         style="stop-color:#9f0000;stop-opacity:1;"
         offset="0"
         id="stop2218" />
      <stop
         style="stop-color:#2d0000;stop-opacity:1;"
         offset="1"
         id="stop2220" />
    </linearGradient>
    <linearGradient
       inkscape:collect="always"
       xlink:href="#linearGradient2261"
       id="linearGradient2229"
       gradientUnits="userSpaceOnUse"
       gradientTransform="matrix(2.031516,0,0,2.236321,-900.2824,-1428.53)"
       x1="459.48419"
       y1="651.05115"
       x2="450.45264"
       y2="643.73663" />
    <linearGradient
       inkscape:collect="always"
       xlink:href="#linearGradient2216"
       id="linearGradient2231"
       gradientUnits="userSpaceOnUse"
       gradientTransform="matrix(2.031516,0,0,2.236321,-900.2609,-1428.221)"
       x1="455.31549"
       y1="645.74109"
       x2="459.74393"
       y2="659.15436" />
  </defs>
  <sodipodi:namedview
     id="base"
     pagecolor="#ffffff"
     bordercolor="#666666"
     borderopacity="1.0"
     inkscape:pageopacity="0.0"
     inkscape:pageshadow="2"
     inkscape:zoom="7.919596"
     inkscape:cx="28.420599"
     inkscape:cy="25.209082"
     inkscape:document-units="px"
     inkscape:current-layer="layer1"
     showgrid="false"
     inkscape:window-width="880"
     inkscape:window-height="596"
     inkscape:window-x="164"
     inkscape:window-y="49" />
  <metadata
     id="metadata7">
    <rdf:RDF>
      <cc:Work
         rdf:about="">
        <dc:format>image/svg+xml</dc:format>
        <dc:type
           rdf:resource="http://purl.org/dc/dcmitype/StillImage" />
      </cc:Work>
    </rdf:RDF>
  </metadata>
  <g
     inkscape:label="Calque 1"
     inkscape:groupmode="layer"
     id="layer1">
    <g
       id="g2220">
      <path
         id="path2195"
         d="M 13.51417,5.5405382 C 13.074312,5.6641359 12.665145,5.952743 12.345522,6.309385 L 2.3505131,17.319272 C 2.3356194,17.335426 2.3035009,17.364251 2.2890054,17.38078 C 2.1622724,17.53268 1.9810514,17.757625 1.889205,17.93435 C 1.7233658,18.272551 1.6081365,18.715323 1.5816663,19.102997 C 1.579587,19.148773 1.5816663,19.241457 1.5816663,19.28752 C 1.5816664,19.333582 1.5795869,19.395512 1.5816663,19.441289 C 1.6081366,19.828963 1.7233658,20.271736 1.889205,20.609937 C 1.9810514,20.78666 2.1622724,21.011605 2.2890054,21.163506 C 2.3035009,21.180032 2.3356194,21.20886 2.3505131,21.225014 L 22.340531,43.244788 C 22.348119,43.252975 22.359497,43.262378 22.371285,43.275542 C 22.376682,43.281453 22.39817,43.30233 22.402039,43.306296 C 22.464977,43.367723 22.581134,43.468336 22.64807,43.521573 C 22.732879,43.585553 22.865802,43.654905 22.955609,43.706096 C 23.136962,43.80335 23.37688,43.936819 23.570686,43.982881 C 23.881992,44.048399 24.274258,44.0484 24.585564,43.982881 C 24.779374,43.936818 25.019287,43.80335 25.200642,43.706096 C 25.290449,43.654905 25.423371,43.585552 25.50818,43.521573 C 25.575115,43.468337 25.691272,43.367721 25.754211,43.306296 C 25.75808,43.30233 25.779568,43.281453 25.784965,43.275542 C 25.796753,43.262378 25.808131,43.252975 25.815719,43.244788 L 45.805737,21.225014 C 45.820632,21.20886 45.883504,21.180033 45.897999,21.163506 C 46.024732,21.011604 46.175198,20.786661 46.267045,20.609937 C 46.432884,20.271736 46.548113,19.828941 46.574584,19.441289 C 46.576663,19.395513 46.574584,19.333583 46.574584,19.28752 C 46.574585,19.241456 46.576662,19.148773 46.574584,19.102997 C 46.548114,18.715323 46.432884,18.27255 46.267045,17.93435 C 46.175198,17.757626 46.024732,17.53268 45.897999,17.38078 C 45.883504,17.364251 45.820633,17.335427 45.805737,17.319272 L 35.810728,6.309385 C 35.795993,6.2939795 35.764254,6.262843 35.74922,6.2478773 C 35.28941,5.8117858 34.698188,5.5330555 34.088511,5.5405382 L 14.067739,5.5405382 C 13.901559,5.5221614 13.741855,5.5221614 13.575677,5.5405382 C 13.573199,5.5403828 13.547091,5.540945 13.544923,5.5405382 C 13.542465,5.5404543 13.51713,5.5401555 13.51417,5.5405382 z "
         style="fill:none;fill-opacity:1;fill-rule:evenodd;stroke:#000000;stroke-width:1.96824789;stroke-linecap:butt;stroke-linejoin:round;stroke-miterlimit:4;stroke-dasharray:none;stroke-opacity:1" />
      <g
         style="stroke:none"
         transform="matrix(0.984124,0,0,0.984124,0.382265,9.335593e-2)"
         id="g1317">
        <path
           style="fill:url(#linearGradient2229);fill-opacity:1;fill-rule:evenodd;stroke:none;stroke-width:4.90235567;stroke-linecap:butt;stroke-linejoin:round;stroke-miterlimit:4;stroke-dasharray:none;stroke-opacity:1"
           d="M 13.899137,7.9967283 L 34.2143,7.9967283 L 44.371883,19.178322 L 24.056719,41.54151 L 3.7415547,19.178322 L 13.899137,7.9967283 z "
           id="path1309" />
        <path
           style="font-size:16.08726883px;font-style:normal;font-variant:normal;font-weight:bold;font-stretch:normal;text-align:start;line-height:125%;writing-mode:lr-tb;text-anchor:start;fill:url(#linearGradient2231);fill-opacity:1;stroke:#000000;stroke-width:0.30000001;stroke-linecap:round;stroke-linejoin:round;stroke-miterlimit:4;stroke-dasharray:none;stroke-opacity:1;font-family:URW Bookman L"
           d="M 13.349286,5.5394611 C 12.902333,5.6650527 12.467852,5.9458002 12.143073,6.3081957 L 1.9854909,17.489789 C 1.9703569,17.506205 1.9367351,17.54288 1.9220057,17.559675 C 1.7932283,17.714026 1.6344251,17.939178 1.541097,18.118754 C 1.3725825,18.46241 1.2505701,18.912871 1.2236728,19.306799 C 1.2215599,19.353314 1.2236728,19.469648 1.2236728,19.516454 C 1.2236728,19.56326 1.2215599,19.609708 1.2236728,19.656224 C 1.2505701,20.050151 1.3725825,20.500612 1.541097,20.844268 C 1.6344251,21.023843 1.7932283,21.248996 1.9220057,21.403348 C 1.9367351,21.420141 1.9703569,21.456817 1.9854909,21.473232 L 22.300656,43.836421 C 22.316075,43.853059 22.348416,43.890183 22.36414,43.906305 C 22.428093,43.968721 22.550065,44.061865 22.618081,44.11596 C 22.704257,44.180971 22.844248,44.273598 22.935504,44.325615 C 23.119784,44.424438 23.373419,44.55835 23.570352,44.605155 C 23.886681,44.671731 24.269784,44.671731 24.586112,44.605155 C 24.783047,44.55835 25.036681,44.424438 25.220961,44.325615 C 25.312217,44.273598 25.452208,44.180971 25.538385,44.11596 C 25.606399,44.061865 25.728371,43.968721 25.792326,43.906305 C 25.808049,43.890183 25.840391,43.853059 25.85581,43.836421 L 46.170974,21.473232 C 46.18611,21.456817 46.21973,21.420141 46.234459,21.403348 C 46.363237,21.248996 46.522039,21.023843 46.615368,20.844268 C 46.783882,20.500612 46.905896,20.050129 46.932794,19.656224 C 46.934906,19.609708 46.932794,19.56326 46.932794,19.516454 C 46.932794,19.469648 46.934906,19.353314 46.932794,19.306799 C 46.905896,18.912871 46.783882,18.46241 46.615368,18.118754 C 46.522039,17.939178 46.363237,17.714026 46.234459,17.559675 C 46.21973,17.54288 46.18611,17.506205 46.170974,17.489789 L 36.013392,6.3081957 C 35.99842,6.2925414 35.965183,6.2535178 35.949907,6.2383107 C 35.482677,5.7951841 34.855325,5.5318577 34.235813,5.5394611 L 13.920651,5.5394611 C 13.75179,5.5207878 13.58163,5.5207878 13.412771,5.5394611 C 13.382644,5.5466621 13.379089,5.5310972 13.349286,5.5394611 z M 14.936408,11.130258 L 16.650501,11.130258 C 14.763527,12.450246 13.723979,14.504595 13.857165,16.93071 C 13.974629,19.070219 15.057893,20.979521 16.77747,22.032312 C 18.030204,22.7794 18.732725,23.004216 22.87202,23.989091 L 26.363689,24.827711 C 27.515172,25.11 28.306916,25.362079 28.8396,25.666329 C 28.968174,25.743261 29.122387,25.86145 29.220508,25.945871 C 29.274241,25.994823 29.36623,26.103418 29.410963,26.155524 C 29.421607,26.168763 29.46433,26.211947 29.474448,26.225411 C 29.484037,26.239096 29.528852,26.281384 29.537934,26.295294 C 29.5551,26.323607 29.586222,26.405747 29.601418,26.435066 C 29.615659,26.464897 29.652511,26.543907 29.664903,26.574834 C 29.676401,26.606322 29.718615,26.681955 29.728389,26.714604 C 29.764082,26.8476 29.780536,27.049627 29.791873,27.203799 C 29.822162,27.755656 29.643816,28.311695 29.347479,28.741269 C 28.678682,29.649124 27.323153,30.278737 25.601871,30.278737 C 23.178433,30.278716 20.70045,29.17943 18.872472,27.413454 C 17.881762,26.394677 17.19387,25.585264 16.206105,23.989091 L 13.603225,24.827711 L 14.682469,27.553223 L 7.3182228,19.516454 L 14.936408,11.130258 z M 30.871115,11.130258 L 33.220057,11.130258 L 40.838243,19.516454 L 35.061117,25.806101 C 35.06124,25.662104 35.069163,25.533247 35.061117,25.386791 C 34.945525,23.281163 33.916257,21.443803 32.267784,20.424958 C 31.191912,19.745788 30.139993,19.389051 27.188993,18.607949 L 24.014747,17.76933 C 23.909007,17.735359 23.281208,17.623679 22.300656,17.419905 C 21.031242,17.137592 20.134187,16.760637 19.634289,16.301745 C 19.621633,16.289513 19.582975,16.244273 19.570805,16.23186 C 19.559124,16.219292 19.518514,16.174723 19.50732,16.161976 C 19.496614,16.149072 19.454054,16.105172 19.443835,16.09209 C 19.404892,16.039046 19.348151,15.938367 19.316866,15.882435 C 19.302177,15.854102 19.266199,15.771759 19.25338,15.742665 C 19.247448,15.727929 19.195381,15.687719 19.189896,15.672781 C 19.17986,15.642523 19.198083,15.564051 19.189896,15.533011 C 19.178987,15.485847 19.133238,15.372376 19.126412,15.323356 C 19.122754,15.290258 19.12828,15.217555 19.126412,15.183587 C 19.124013,15.140067 19.125679,15.086508 19.126412,15.043816 C 19.195909,13.754332 20.696673,12.807498 22.808535,12.807498 C 24.781889,12.807564 27.00319,13.721279 28.395204,15.113701 C 29.017336,15.724954 29.490783,16.275044 30.68066,17.76933 L 33.093086,16.860825 L 30.871115,11.130258 z M 19.443835,31.816207 C 20.955669,32.869021 23.374637,33.56333 25.728839,33.56333 C 26.632621,33.56333 27.461012,33.452277 28.268235,33.283791 L 24.078233,37.896198 L 19.25338,32.584942 L 19.443835,31.816207 z "
           id="path2247" />
        <text
           xml:space="preserve"
           style="font-size:33.38130951px;font-style:normal;font-variant:normal;font-weight:bold;font-stretch:normal;text-align:start;line-height:125%;writing-mode:lr-tb;text-anchor:start;fill:none;fill-opacity:1;stroke:none;stroke-width:0.44511414;stroke-linecap:butt;stroke-linejoin:round;stroke-miterlimit:4;stroke-dasharray:none;stroke-opacity:1;font-family:URW Bookman L"
           x="11.964669"
           y="32.845276"
           id="text2186"
           sodipodi:linespacing="125%"
           transform="matrix(1.001662,0,5.394056e-2,0.99834,0,0)"><tspan
             sodipodi:role="line"
             id="tspan2188"
             x="11.964669"
             y="32.845276"
             style="stroke:none;stroke-width:0.44511414;stroke-miterlimit:4;stroke-dasharray:none;stroke-opacity:1">S</tspan></text>
        <path
           style="fill:none;fill-opacity:1;fill-rule:evenodd;stroke:none;stroke-width:0;stroke-linecap:butt;stroke-linejoin:round;stroke-miterlimit:4;stroke-dasharray:none;stroke-opacity:1"
           d="M 13.708682,6.2083888 C 13.350809,6.2508789 13.015874,6.4229413 12.756409,6.6975835 L 2.5988254,17.879178 C 2.2783138,18.216705 2.097042,18.683784 2.097042,19.17206 C 2.097042,19.660316 2.2783138,20.127394 2.5988254,20.464922 L 22.913991,42.828109 C 23.547194,43.517232 24.566244,43.517232 25.199446,42.828109 L 45.514611,20.464922 C 45.835125,20.127394 46.016396,19.660316 46.016396,19.17206 C 46.016396,18.683784 45.835125,18.216705 45.514611,17.879178 L 35.357028,6.6975835 C 35.048747,6.3765601 34.638624,6.2009866 34.2143,6.2083888 L 13.899137,6.2083888 C 13.835714,6.2042965 13.772106,6.2042965 13.708682,6.2083888 z M 14.597471,9.772522 L 33.515967,9.772522 L 42.086428,19.206992 L 24.056719,38.984436 L 6.0270107,19.206992 L 14.597471,9.772522 z "
           id="path2190" />
      </g>
    </g>
  </g>
</svg>
