<?xml version="1.0" encoding="UTF-8" standalone="no"?>
<!-- Created with Inkscape (http://www.inkscape.org/) -->
<svg
   xmlns:dc="http://purl.org/dc/elements/1.1/"
   xmlns:cc="http://web.resource.org/cc/"
   xmlns:rdf="http://www.w3.org/1999/02/22-rdf-syntax-ns#"
   xmlns:svg="http://www.w3.org/2000/svg"
   xmlns="http://www.w3.org/2000/svg"
   xmlns:xlink="http://www.w3.org/1999/xlink"
   xmlns:sodipodi="http://inkscape.sourceforge.net/DTD/sodipodi-0.dtd"
   xmlns:inkscape="http://www.inkscape.org/namespaces/inkscape"
   width="24"
   height="24"
   id="svg2"
   sodipodi:version="0.32"
   inkscape:version="0.43"
   version="1.0"
   sodipodi:docbase="/home/yekcim/Desktop/SVG/Weapons"
   sodipodi:docname="teleportation.svg"
   inkscape:output_extension="org.inkscape.output.svg.inkscape">
  <defs
     id="defs4">
    <linearGradient
       id="linearGradient2187">
      <stop
         style="stop-color:#9e9e9e;stop-opacity:1;"
         offset="0"
         id="stop2189" />
      <stop
         style="stop-color:#000000;stop-opacity:1;"
         offset="1"
         id="stop2191" />
    </linearGradient>
    <linearGradient
       id="linearGradient2357">
      <stop
         style="stop-color:#791111;stop-opacity:1;"
         offset="0"
         id="stop2359" />
      <stop
         style="stop-color:#16510b;stop-opacity:1;"
         offset="1"
         id="stop2361" />
    </linearGradient>
    <linearGradient
       inkscape:collect="always"
       xlink:href="#linearGradient2357"
       id="linearGradient2363"
       x1="28.833498"
       y1="25.654903"
       x2="36.717911"
       y2="47.653709"
       gradientUnits="userSpaceOnUse"
       gradientTransform="matrix(0.505467,0,0,0.505467,-0.146771,-0.244242)" />
    <linearGradient
       inkscape:collect="always"
       xlink:href="#linearGradient2357"
       id="linearGradient2371"
       x1="16.945227"
       y1="22.588198"
       x2="11.526067"
       y2="0.58938777"
       gradientUnits="userSpaceOnUse"
       gradientTransform="matrix(0.505467,0,0,0.505467,-0.146771,-0.244242)" />
    <linearGradient
       inkscape:collect="always"
       xlink:href="#linearGradient2187"
       id="linearGradient2193"
       x1="3545.8464"
       y1="2306.8425"
       x2="4769.5015"
       y2="3033.7876"
       gradientUnits="userSpaceOnUse" />
  </defs>
  <sodipodi:namedview
     id="base"
     pagecolor="#ffffff"
     bordercolor="#666666"
     borderopacity="1.0"
     inkscape:pageopacity="0.0"
     inkscape:pageshadow="2"
     inkscape:zoom="22.4"
     inkscape:cx="19.016047"
     inkscape:cy="7.3406629"
     inkscape:document-units="px"
     inkscape:current-layer="layer1"
     inkscape:window-width="880"
     inkscape:window-height="700"
     inkscape:window-x="462"
     inkscape:window-y="105" />
  <metadata
     id="metadata7">
    <rdf:RDF>
      <cc:Work
         rdf:about="">
        <dc:format>image/svg+xml</dc:format>
        <dc:type
           rdf:resource="http://purl.org/dc/dcmitype/StillImage" />
      </cc:Work>
    </rdf:RDF>
  </metadata>
  <g
     inkscape:label="Calque 1"
     inkscape:groupmode="layer"
     id="layer1">
    <path
       style="opacity:1;color:#000000;fill:url(#linearGradient2371);fill-opacity:1;fill-rule:nonzero;stroke:none;stroke-width:4.30000019;stroke-linecap:butt;stroke-linejoin:miter;marker:none;marker-start:none;marker-mid:none;marker-end:none;stroke-miterlimit:4;stroke-dasharray:none;stroke-dashoffset:0;stroke-opacity:1;visibility:visible;display:inline;overflow:visible"
       d="M 8.1029884,0.089776547 C 7.0199173,0.037044674 5.9236956,0.014915986 4.8540758,0.21954414 C 4.3639876,0.31342394 3.876772,0.44205708 3.4237975,0.65382852 C 3.0720321,0.85350553 2.7146223,1.0436664 2.3565171,1.2321099 C 1.7608153,1.4787383 1.1813177,1.7938931 0.716057,2.2456505 C 0.52202523,2.436803 0.319792,2.6357932 0.22331212,2.8958552 C 0.1423782,3.1142875 0.12843475,3.3707659 0.24038365,3.5809908 C 0.26248846,3.6293238 0.29777687,3.6719747 0.32373771,3.7162222 C 0.33224819,4.0584562 0.52841893,4.3774245 0.80252936,4.5742017 C 1.0893175,4.7916679 1.4324926,4.9234156 1.7821542,5.0006706 C 1.8525062,5.3741975 2.1275458,5.6905425 2.4708346,5.8440594 C 2.5954161,5.9037429 2.7258005,5.9499365 2.8594692,5.9861436 C 2.9334148,6.2521516 3.1419324,6.4602558 3.3762667,6.5947717 C 3.4829882,6.6577023 3.5975134,6.7077986 3.7165721,6.7426011 C 3.6190919,6.9367308 3.6102206,7.1848164 3.7302896,7.3705886 C 3.8525979,7.5785796 4.0692305,7.7131673 4.2947302,7.7855734 C 4.5546217,7.8826918 4.8283986,7.9394386 5.10394,7.9697014 C 5.1270701,8.0967545 5.2454221,8.1885478 5.3583217,8.227402 C 5.2111156,8.3505904 5.0692958,8.5022982 5.027751,8.6958177 C 5.0035624,8.862869 5.1058076,9.0278069 5.2507867,9.1050816 C 5.4594308,9.2366642 5.7104628,9.26771 5.9496933,9.3055973 C 6.2408761,9.340748 6.5355916,9.326464 6.8260606,9.2933043 C 6.9141833,9.4635886 7.0982561,9.5591375 7.2795267,9.5981969 C 7.3516664,9.6162285 7.4245381,9.6296926 7.498176,9.6394617 C 7.3843408,9.7573942 7.2689563,9.896899 7.2593853,10.067786 C 7.2466501,10.273366 7.3628246,10.473869 7.5368301,10.579718 C 7.7804408,10.752433 8.0764893,10.824695 8.3623961,10.89619 C 8.7163371,10.975671 9.0781184,11.018301 9.4407809,11.03554 C 9.239884,11.152888 9.6004953,11.213929 9.7015244,11.143234 C 9.7891633,11.102908 10.058061,10.573145 9.9849746,10.577767 C 9.4099691,10.572927 8.8280311,10.501874 8.2889643,10.295478 C 8.1281374,10.228843 7.9628052,10.139573 7.8709613,9.985415 C 7.8203858,9.886954 7.8147858,9.7550064 7.8884561,9.6659386 C 7.9222779,9.6583146 7.9581539,9.670506 7.9924569,9.6623751 C 8.4607604,9.6410368 8.9302658,9.5600766 9.3667821,9.3861126 C 9.6444476,9.2681594 9.9045366,9.0766875 10.040785,8.8016878 C 10.048076,8.7813043 10.070085,8.7563519 10.066355,8.737677 C 9.882655,8.5767312 9.6162072,8.5463612 9.3839886,8.5974558 C 8.9477494,8.6875776 8.5608368,8.9206403 8.1750664,9.132253 C 8.1246305,9.1572423 8.078588,9.2076494 8.016974,9.1904585 C 7.8772615,9.1766517 7.7360431,9.1589154 7.6048911,9.1075059 C 8.0835127,8.9420428 8.5281948,8.6870473 8.9325723,8.3840735 C 9.0059716,8.3207229 9.0829532,8.2474999 9.1072763,8.1502743 C 9.1175246,8.0521662 9.0308719,7.9634881 8.9348655,7.959398 C 8.7797687,7.9305251 8.6230734,7.9676487 8.4691106,7.9869979 C 8.1311201,8.0485244 7.8090084,8.1850682 7.5213774,8.3722962 C 7.4758293,8.383333 7.4291893,8.4072927 7.4075175,8.4504181 C 7.2335752,8.5765022 7.0580042,8.702182 6.906853,8.8550343 C 6.5241442,8.8795605 6.1261725,8.8559683 5.7729437,8.696209 C 5.688558,8.652387 5.5992349,8.5774111 5.6000785,8.4745758 C 5.6036152,8.4079513 5.6359591,8.3467413 5.6783516,8.2969467 C 5.9137339,8.3318249 6.1532751,8.3355578 6.3905893,8.3209563 C 6.7871559,8.2939296 7.1794381,8.2129306 7.5588916,8.0961959 C 7.9423813,7.9729485 8.3171764,7.7909289 8.6044697,7.5034172 C 8.6536274,7.4531793 8.7055443,7.4019969 8.7373402,7.33896 C 8.7447297,7.2363709 8.6757804,7.1480558 8.6074049,7.079839 C 8.5946298,7.0739453 8.5978542,7.0665412 8.6071032,7.0593342 C 8.6685421,6.9674596 8.6741735,6.8299205 8.5938402,6.7470355 C 8.4920847,6.6278622 8.3298247,6.5920847 8.1841886,6.5529974 C 7.8668717,6.4776242 7.5326377,6.4837272 7.2150659,6.5536272 C 7.5485422,6.4453021 7.8961994,6.3585913 8.1946497,6.1696361 C 8.399511,6.0423207 8.5794339,5.8612275 8.665478,5.6321732 C 8.6837228,5.5810472 8.7021658,5.5278226 8.7071224,5.4740869 C 8.6633743,5.3712001 8.5992159,5.2776584 8.5199824,5.1994263 C 8.7597188,5.0451952 8.9953725,4.8617445 9.1299328,4.6045764 C 9.1841108,4.4906018 9.2005622,4.3548193 9.1604463,4.2336994 C 9.3995247,4.0841486 9.61328,3.8831087 9.7423895,3.6303307 C 9.7686328,3.547958 9.768558,3.4600941 9.7647816,3.3742981 C 10.155826,3.2290881 10.548238,3.0540603 10.855454,2.765743 C 11.067722,2.5627618 11.213022,2.2744378 11.197966,1.9754789 C 11.177332,1.8385036 11.084829,1.7276988 11.010623,1.6155385 C 10.945916,1.5355796 10.886743,1.4503972 10.845282,1.3554794 C 10.714378,1.1267676 10.496095,0.9605255 10.260372,0.84972895 C 10.209882,0.76460559 10.153315,0.68399757 10.079676,0.61779588 C 9.8505275,0.39732761 9.5424833,0.28573365 9.2377701,0.21358958 C 8.8662156,0.1263696 8.4831066,0.10725551 8.1029884,0.089776547 z M 7.579866,0.51221118 C 7.6340177,0.51453005 7.5712741,0.51318801 7.550369,0.51336551 C 7.2810492,0.50875178 7.0124056,0.54219914 6.7431489,0.53247532 C 6.4478213,0.5100617 6.1515808,0.49966633 5.8554049,0.50159112 C 6.4298762,0.47198117 7.0055828,0.48501716 7.579866,0.51221118 z M 7.3887322,1.0889588 C 7.8143162,1.1739024 8.2511417,1.2609872 8.6254738,1.4912066 C 8.8347851,1.6200557 9.0125999,1.8232363 9.0561994,2.0704505 C 9.0592196,2.0896678 9.0698394,2.1208109 9.0423723,2.0973905 C 8.3923267,1.7479724 7.6541908,1.5915324 6.9209247,1.5564082 C 6.1884546,1.5175264 5.4524912,1.5504534 4.7261105,1.6506598 C 4.2046497,1.729844 3.6900234,1.8551204 3.1912827,2.0270069 C 3.251607,1.9892748 3.3117855,1.943988 3.3644714,1.8998524 C 3.3991651,1.9032537 3.4261934,1.8744501 3.4575282,1.8637527 C 3.8107921,1.6877261 4.1754202,1.5310664 4.5486597,1.4003095 C 4.8202127,1.3067841 5.09673,1.22506 5.3782836,1.1690343 C 5.7407282,1.1219916 6.105875,1.1036923 6.4709702,1.0895947 C 6.7767853,1.0800083 7.0829162,1.0787241 7.3887322,1.0889588 z M 9.3587613,1.2736191 C 9.508379,1.3122987 9.6550594,1.362105 9.7958274,1.4265488 C 9.8195388,1.5443597 9.8256757,1.6790809 9.7509672,1.7803628 C 9.717487,1.8384638 9.6785848,1.8935385 9.6339531,1.9437055 C 9.6278486,1.6943687 9.5268892,1.4470236 9.3500617,1.2714433 L 9.3550248,1.2726849 L 9.3587613,1.2736191 z M 10.247448,1.7171971 C 10.318868,1.7715349 10.385267,1.8454033 10.395216,1.9381116 C 10.419124,2.0218914 10.432174,2.1269524 10.371881,2.1978469 C 10.318386,2.2819083 10.229027,2.3407303 10.189406,2.4333217 C 10.186956,2.4445612 10.201084,2.4593544 10.182876,2.4613478 C 10.032249,2.5530961 9.8777742,2.6428905 9.7206311,2.7198845 C 9.6751299,2.6091788 9.6049691,2.5100002 9.5258363,2.4211702 C 9.8145928,2.2442061 10.06566,2.0018059 10.238985,1.7100695 C 10.241807,1.7124462 10.244626,1.7148209 10.247448,1.7171971 z M 2.8572852,1.4453569 C 2.4287119,1.626342 2.0014363,1.8219501 1.6229807,2.0950752 C 1.6840725,2.0182524 1.7598328,1.9561168 1.8288293,1.8873624 C 1.8556879,1.8574794 1.883651,1.8193018 1.9234809,1.8092828 C 2.006971,1.8097773 2.0707534,1.7464413 2.1467359,1.7217359 C 2.3949003,1.6111971 2.6501459,1.5172519 2.9059624,1.4249493 C 2.889736,1.4317517 2.8735096,1.4385535 2.8572852,1.4453569 z M 3.5736296,1.5122118 C 3.4777439,1.5740627 3.3810896,1.6359552 3.2917515,1.7063721 C 3.2763746,1.7266898 3.2574689,1.7442556 3.2308521,1.7447635 C 3.1572104,1.7678845 3.0960829,1.8184958 3.0267407,1.8523526 C 2.5674173,2.112234 2.0875672,2.3544495 1.7035889,2.7224434 C 1.5856532,2.8347506 1.4784112,2.9588365 1.3861188,3.093199 C 1.3531803,3.0089825 1.3301471,2.9215796 1.3188754,2.83195 C 1.4731935,2.5588722 1.7137951,2.3469622 1.9760129,2.1813299 C 2.3668486,1.9397827 2.7965295,1.7711306 3.2279017,1.6154427 C 3.3448175,1.5762493 3.4626159,1.540291 3.5812198,1.5074526 L 3.576887,1.5101707 L 3.5736296,1.5122118 z M 6.5539527,1.9839412 C 6.7099579,1.991806 6.865705,2.0050706 7.0207231,2.0243136 C 6.1345374,1.9537675 5.2302208,2.0236895 4.3805922,2.2930533 C 4.2609187,2.3312758 4.1424209,2.3734351 4.0316234,2.433604 C 3.6961691,2.5995743 3.3560063,2.7576909 3.0339292,2.9483397 C 2.8137143,3.0797843 2.6028438,3.2285251 2.4154753,3.403428 C 2.275927,3.3492697 2.1346347,3.2813044 2.0361358,3.1645723 C 1.9932985,3.1121917 1.9510109,3.047894 1.9636671,2.9759065 C 1.9732501,2.8920497 2.0350775,2.8168834 2.1168936,2.7939867 C 2.5238096,2.6068289 2.9435668,2.4463433 3.3744825,2.3234132 C 4.1594153,2.0962887 4.9759886,1.9831032 5.7930127,1.9771013 C 6.0466191,1.970326 6.3005505,1.9707079 6.5539527,1.9839412 z M 10.624342,2.4263955 C 10.597603,2.5848983 10.500083,2.7317929 10.356243,2.8080186 C 10.196469,2.9063053 10.013528,2.9566937 9.8353898,3.0118975 C 10.121984,2.8511772 10.397849,2.6638516 10.624583,2.4246456 L 10.624342,2.4263955 z M 6.3728944,2.443515 C 6.9553116,2.472981 7.5385163,2.5518958 8.0960594,2.7260406 C 7.6632771,2.9070771 7.2226131,3.0705304 6.7699438,3.1940937 C 5.6239401,3.5209922 4.4190128,3.6699801 3.2292252,3.5557732 C 3.0543075,3.5390444 2.8799181,3.5159115 2.7081402,3.4795095 C 2.9266581,3.2458103 3.2248714,3.1098977 3.5163083,2.9882813 C 3.7459509,2.8853371 3.966914,2.7599886 4.2126863,2.698305 C 4.9116104,2.4925748 5.6452182,2.4123187 6.3728944,2.443515 z M 8.527852,2.8888023 C 8.5692432,2.9084971 8.6098226,2.9283941 8.6501093,2.9500264 C 8.3367724,3.2083506 7.9594564,3.3725768 7.5898085,3.5360199 C 7.5237516,3.5514858 7.4572094,3.5230125 7.390323,3.5266272 C 7.2080107,3.5156863 7.0252076,3.5128432 6.8426395,3.5179541 C 7.1337025,3.4290056 7.4240604,3.3324963 7.6963514,3.1964765 C 7.9612923,3.0723986 8.2393264,2.9798398 8.5154873,2.882929 C 8.5196083,2.8848863 8.523732,2.8868456 8.527852,2.8888023 z M 9.1379167,3.5924855 C 9.0320725,3.7101237 8.894593,3.7949889 8.7539827,3.8656506 C 8.7068085,3.8414369 8.6577681,3.8199472 8.6085842,3.7996404 C 8.7861188,3.7282599 8.9586595,3.6445099 9.1416451,3.5881809 L 9.1382957,3.5920484 L 9.1379167,3.5924855 z M 7.7489947,4.0877145 C 7.8528192,4.1157104 7.9551893,4.1501002 8.0551181,4.1903716 C 7.7999463,4.3036161 7.5360982,4.4064118 7.2574378,4.4438499 C 6.698269,4.5478855 6.1281363,4.6176115 5.5621726,4.6450555 C 5.8158224,4.5666143 6.0652743,4.4740458 6.3203511,4.4006803 C 6.7945094,4.32008 7.2641413,4.2125174 7.7271747,4.0820297 C 7.7344484,4.0839237 7.741721,4.0858196 7.7489947,4.0877145 z M 4.802472,3.9574387 C 4.6994706,4.0006115 4.5987277,4.0516269 4.4972958,4.0968035 C 3.9064818,4.1172539 3.3108255,4.0940815 2.7296402,3.9814103 C 3.0780159,4.019315 3.4290039,4.0234978 3.7790769,4.025273 C 4.1215363,4.0206422 4.4632534,3.9967415 4.8032947,3.9569983 L 4.802472,3.9574387 z M 8.5739076,4.4991131 C 8.6400606,4.588225 8.6397053,4.7238143 8.5605749,4.8051799 C 8.5012296,4.8922682 8.4177149,4.9648487 8.3179554,5.0018539 C 8.2962188,5.0167445 8.2657512,5.0361028 8.2417997,5.0145138 C 7.9362818,4.8813719 7.5925649,4.8825308 7.266055,4.9098549 C 7.1488574,4.9190908 7.0319101,4.931547 6.9154177,4.9473763 C 7.1008532,4.8925371 7.2820929,4.8251957 7.4662123,4.7668568 C 7.8324978,4.6679804 8.2106104,4.6131375 8.5724084,4.4969606 L 8.5739076,4.4991131 z M 4.4023804,4.5690329 C 4.3300401,4.580483 4.255113,4.592206 4.1837148,4.5992501 C 4.22293,4.573918 4.2691508,4.5573735 4.3162444,4.5658122 C 4.3505481,4.5661759 4.3848535,4.566232 4.4191569,4.5663102 C 4.4135631,4.5672186 4.4079716,4.5681245 4.4023804,4.5690329 z M 3.2711635,4.518064 C 3.4368786,4.5272943 3.602626,4.535983 3.7683246,4.5454827 C 3.7431257,4.5633579 3.7179169,4.5951719 3.6832659,4.5791925 C 3.5416241,4.5605882 3.4000983,4.5409067 3.2591911,4.517332 C 3.2631819,4.5175762 3.2671717,4.5178202 3.2711635,4.518064 z M 5.9624735,5.18585 C 5.5891832,5.3279362 5.2350025,5.5168206 4.8968535,5.7290121 C 4.3953762,5.7262694 3.8910602,5.6888314 3.4009276,5.5820329 C 3.3957172,5.5519677 3.3989505,5.5186135 3.3991398,5.487505 C 3.4036102,5.4170924 3.4186925,5.3475256 3.444871,5.2819099 C 4.0089107,5.3026811 4.5755299,5.3559012 5.1388106,5.2963091 C 5.4202587,5.2727837 5.7002721,5.2332542 5.9774723,5.1801645 C 5.9724721,5.1820609 5.9674741,5.183957 5.9624735,5.18585 z M 7.2972241,5.3558683 C 7.3427682,5.3579831 7.3883087,5.3610236 7.4335798,5.3665407 C 6.7994079,5.5611521 6.1408755,5.6775591 5.478403,5.7156389 C 5.9703057,5.4994174 6.5030077,5.3794701 7.0399717,5.3589041 C 7.1256155,5.3541744 7.2114918,5.3528502 7.2972241,5.3558683 z M 2.6225457,5.2119153 C 2.7504997,5.2330575 2.8795833,5.2463402 3.0086791,5.258204 C 2.9750577,5.3092491 2.9447371,5.3625738 2.9186184,5.4178214 C 2.8085765,5.3636722 2.7052615,5.2945243 2.616037,5.2108043 L 2.6210813,5.2116652 L 2.6225457,5.2119153 z M 7.9222617,5.5347409 C 8.006561,5.5962487 8.0755769,5.6771789 8.1221284,5.7707874 C 8.1066717,5.821786 8.0925504,5.8897041 8.0331435,5.9058552 C 7.4379926,6.1689032 6.8022334,6.3404622 6.1565869,6.4238244 C 5.5720499,6.494705 4.9743651,6.4816533 4.3969612,6.3622524 C 4.4542627,6.3068648 4.525077,6.2531661 4.5460555,6.1731193 C 4.5428443,6.1527985 4.581993,6.1713744 4.5953761,6.1653169 C 5.7061169,6.1706582 6.8247419,5.984705 7.8532306,5.5589775 C 7.8745567,5.5492796 7.8956286,5.5387811 7.9180785,5.5318188 L 7.9222617,5.5347409 z M 3.7766914,6.1271011 C 3.9364462,6.1409681 4.0965149,6.1511735 4.256728,6.1578638 C 4.1993474,6.1994673 4.1451977,6.2445655 4.0892966,6.2884957 C 3.9764373,6.2507176 3.8699654,6.1952916 3.7727069,6.1267513 L 3.7766914,6.1271011 z M 6.7731479,6.6934045 C 6.398557,6.8430864 6.0520968,7.0556671 5.7173059,7.2799321 C 5.6949546,7.3087482 5.6557471,7.3099371 5.6290994,7.3336683 C 5.5443179,7.3869693 5.4656733,7.4530162 5.3818973,7.5056312 C 5.0556325,7.4568208 4.7247241,7.3766653 4.4429376,7.1997175 C 4.3240634,7.1092987 4.2121044,6.9896632 4.1827962,6.838015 C 4.6547812,6.917111 5.137413,6.9307587 5.614408,6.89372 C 6.0067908,6.8618534 6.3965265,6.7942729 6.7767383,6.691974 L 6.7731479,6.6934045 z M 7.4597544,6.9606949 C 7.5726616,6.9672468 7.6857097,6.9785672 7.795114,7.0076022 C 7.5032524,7.0725593 7.2174473,7.1599277 6.9347911,7.2573817 C 6.7455899,7.3297408 6.5605823,7.415141 6.3821566,7.5100075 C 6.1744349,7.5292203 5.9654092,7.5422856 5.7564927,7.5353587 C 5.7922423,7.5151082 5.8205414,7.4850905 5.8589994,7.4704629 C 6.001856,7.37978 6.1529516,7.2986374 6.3062466,7.2257709 C 6.6652868,7.0568458 7.0593963,6.9436152 7.4597544,6.9606949 z M 8.0458938,7.4647415 C 8.0695128,7.4774449 8.0912085,7.4937305 8.1093532,7.5135544 C 7.9449077,7.5972667 7.7780298,7.685959 7.5937254,7.7145886 C 7.3181267,7.7839332 7.0372473,7.8382188 6.753511,7.8590916 C 7.0889252,7.7939455 7.4226339,7.7155313 7.7441675,7.5991886 C 7.8470851,7.5595963 7.9474537,7.5142908 8.0458938,7.4647415 z M 8.3977013,8.4378264 C 8.0764331,8.5981312 7.735332,8.7228915 7.3818595,8.7899938 C 7.4171653,8.7056885 7.5043492,8.6597764 7.5872575,8.6326369 C 7.8536981,8.5188952 8.1367303,8.4317583 8.42804,8.4226265 C 8.4179271,8.4276954 8.4078147,8.4327601 8.3977013,8.4378264 z M 9.2589518,9.0470525 C 9.2985506,9.0457772 9.2741183,9.0538267 9.2522113,9.0597609 C 9.0814045,9.1147002 8.9028398,9.1374224 8.7256119,9.1637335 C 8.8950388,9.0958816 9.0743557,9.0413236 9.2589518,9.0470525 z "
       id="path2355"
       sodipodi:nodetypes="cccccccccccccccccccccccccccccccccccccccccccccccccccccccccccccccccccccccccccccccccccccccccccccccccccccccccccccccccccccccccccccccccccccccccccccccccccccccccccccccccccccccccccccccccccccccccccccccccccccccccccccccccccccccccccccccccccccccccccccccccccccccccccccccccccccccccc" />
    <path
       style="fill:url(#linearGradient2363);fill-opacity:1;fill-rule:nonzero;stroke:none;stroke-width:4.30000019;stroke-linecap:butt;stroke-linejoin:miter;stroke-miterlimit:4;stroke-dasharray:none;stroke-opacity:1"
       d="M 15.989202,23.80703 C 17.072275,23.85976 18.168495,23.881889 19.238116,23.677261 C 19.728205,23.583381 20.215423,23.45475 20.668396,23.242977 C 21.02016,23.0433 21.377571,22.853139 21.735676,22.664697 C 22.331378,22.418068 22.910876,22.102914 23.376138,21.651156 C 23.570169,21.460004 23.772401,21.261013 23.868878,21.00095 C 23.949815,20.782519 23.963759,20.526041 23.851808,20.315816 C 23.829705,20.267483 23.794416,20.224831 23.768456,20.180584 C 23.759944,19.83835 23.563775,19.519381 23.289665,19.322605 C 23.002876,19.105139 22.6597,18.97339 22.310039,18.896135 C 22.239683,18.522607 21.964647,18.206264 21.62136,18.052747 C 21.496774,17.993061 21.36639,17.94687 21.232722,17.910661 C 21.158776,17.644654 20.950261,17.436551 20.715927,17.302035 C 20.609205,17.239103 20.49468,17.189009 20.375622,17.154205 C 20.4731,16.960073 20.481973,16.71199 20.361904,16.526219 C 20.239596,16.318228 20.022964,16.18364 19.797462,16.111232 C 19.53757,16.014114 19.263795,15.957369 18.988251,15.927103 C 18.96512,15.800051 18.846768,15.708258 18.733873,15.669404 C 18.881078,15.546217 19.022897,15.394508 19.064443,15.20099 C 19.088627,15.033936 18.986385,14.869001 18.841407,14.791724 C 18.632762,14.660142 18.381728,14.629096 18.1425,14.59121 C 17.851318,14.556057 17.556604,14.570342 17.266131,14.6035 C 17.178011,14.433218 16.993936,14.337668 16.812667,14.298611 C 16.740525,14.280578 16.667656,14.267114 16.594018,14.257347 C 16.707849,14.139412 16.823237,13.999907 16.832806,13.829021 C 16.845542,13.623441 16.729369,13.422938 16.555363,13.317088 C 16.31175,13.144373 16.015702,13.07211 15.729797,13.000616 C 15.375852,12.921133 15.014076,12.878506 14.651411,12.861267 C 14.852308,12.743919 14.491701,12.682878 14.390669,12.753572 C 14.30303,12.793899 14.034132,13.323664 14.107218,13.319039 C 14.682224,13.323878 15.264163,13.394932 15.803228,13.601329 C 15.964058,13.667963 16.129389,13.757235 16.221231,13.911393 C 16.271807,14.009853 16.277404,14.141799 16.203738,14.230866 C 16.169913,14.238493 16.134039,14.226302 16.099736,14.234432 C 15.631434,14.255769 15.161925,14.336729 14.725407,14.510691 C 14.447745,14.628646 14.187655,14.820118 14.051409,15.095119 C 14.044117,15.1155 14.022106,15.140454 14.025837,15.159129 C 14.20954,15.320077 14.475984,15.350446 14.708205,15.29935 C 15.144445,15.209229 15.531357,14.976168 15.917124,14.764552 C 15.96756,14.739563 16.013605,14.689157 16.07522,14.706348 C 16.214931,14.720155 16.35615,14.737891 16.487304,14.789301 C 16.008683,14.954765 15.563997,15.209759 15.159621,15.512732 C 15.086222,15.576084 15.009239,15.649306 14.984914,15.74653 C 14.974668,15.84464 15.061321,15.933317 15.157329,15.937409 C 15.312424,15.966282 15.469119,15.92916 15.623083,15.909808 C 15.961073,15.848282 16.283185,15.71174 16.570816,15.524511 C 16.616363,15.513473 16.663004,15.489516 16.684678,15.446389 C 16.858617,15.320303 17.03419,15.194625 17.18534,15.041772 C 17.568048,15.017246 17.966021,15.04084 18.31925,15.200598 C 18.403635,15.244419 18.492959,15.319397 18.492113,15.422231 C 18.488575,15.488854 18.456233,15.550066 18.41384,15.599857 C 18.178458,15.564981 17.938918,15.561248 17.701603,15.575851 C 17.305038,15.602877 16.912753,15.683874 16.533301,15.800611 C 16.149811,15.923859 15.775016,16.105878 15.487723,16.393389 C 15.438564,16.443628 15.386649,16.49481 15.354853,16.557846 C 15.347463,16.660436 15.416413,16.748751 15.484786,16.816966 C 15.497564,16.822861 15.49434,16.830266 15.485089,16.837472 C 15.423653,16.929349 15.41802,17.066886 15.498352,17.149772 C 15.600108,17.268944 15.762366,17.304721 15.908004,17.34381 C 16.225325,17.419184 16.559553,17.413078 16.87713,17.34318 C 16.543649,17.451503 16.195995,17.538215 15.897544,17.727171 C 15.692682,17.854485 15.512759,18.035579 15.426714,18.264633 C 15.408471,18.315761 15.390026,18.368984 15.385071,18.42272 C 15.428821,18.525608 15.492979,18.619148 15.572211,18.697378 C 15.332475,18.851611 15.096823,19.035062 14.962259,19.292229 C 14.908083,19.406203 14.891632,19.541988 14.931746,19.663108 C 14.692669,19.812658 14.478915,20.013699 14.349802,20.266474 C 14.323558,20.348848 14.323638,20.436714 14.327408,20.522506 C 13.936368,20.667719 13.543955,20.842745 13.236737,21.131063 C 13.024473,21.334045 12.879173,21.622367 12.894224,21.921327 C 12.914861,22.058303 13.007361,22.169106 13.08157,22.281268 C 13.146276,22.361227 13.20545,22.44641 13.246913,22.541327 C 13.377814,22.770038 13.596101,22.936282 13.83182,23.047077 C 13.882311,23.132201 13.938874,23.212807 14.012516,23.27901 C 14.241665,23.499478 14.549712,23.611074 14.854422,23.683216 C 15.225979,23.770436 15.609087,23.78955 15.989202,23.80703 z M 16.512327,23.384596 C 16.458175,23.382276 16.520919,23.383618 16.541826,23.383441 C 16.811145,23.388055 17.079785,23.354607 17.349046,23.364331 C 17.644375,23.386745 17.940612,23.397139 18.23679,23.395217 C 17.662317,23.424826 17.086611,23.411789 16.512327,23.384596 z M 16.703462,22.807849 C 16.277879,22.722905 15.841052,22.635819 15.466717,22.405598 C 15.257408,22.276751 15.079594,22.07357 15.035998,21.826357 C 15.032973,21.807138 15.022359,21.775997 15.049822,21.799416 C 15.699866,22.148833 16.438002,22.305273 17.171265,22.340397 C 17.903738,22.379279 18.639701,22.346353 19.366082,22.246145 C 19.887543,22.166962 20.402168,22.041686 20.900908,21.869798 C 20.840584,21.90753 20.780409,21.952819 20.72772,21.996952 C 20.693029,21.993554 20.666,22.022357 20.634663,22.033053 C 20.2814,22.20908 19.916771,22.365739 19.543532,22.496496 C 19.27198,22.590021 18.995463,22.671747 18.713908,22.727771 C 18.351465,22.774814 17.986318,22.793114 17.621224,22.807212 C 17.315407,22.816797 17.009279,22.818083 16.703462,22.807849 z M 14.733432,22.623186 C 14.583816,22.584508 14.437133,22.534699 14.296367,22.470258 C 14.272652,22.352446 14.266518,22.217726 14.341227,22.116444 C 14.374706,22.058343 14.413609,22.003269 14.45824,21.9531 C 14.464345,22.202438 14.565305,22.449782 14.742133,22.625363 L 14.737171,22.624121 L 14.733432,22.623186 z M 13.844745,22.179608 C 13.773324,22.125271 13.706927,22.051404 13.696979,21.958696 C 13.673069,21.874915 13.660019,21.769855 13.720312,21.69896 C 13.773809,21.614898 13.863166,21.556077 13.902787,21.463484 C 13.905236,21.452243 13.891111,21.437453 13.909316,21.435458 C 14.059946,21.343711 14.214419,21.253914 14.371564,21.176923 C 14.417064,21.287628 14.487225,21.386804 14.566357,21.475636 C 14.277602,21.652602 14.026535,21.895 13.853209,22.186738 C 13.850384,22.18436 13.847565,22.181985 13.844745,22.179608 z M 21.234908,22.451449 C 21.66348,22.270463 22.090759,22.074858 22.469212,21.80173 C 22.40812,21.878554 22.33236,21.940689 22.263362,22.009443 C 22.236506,22.039328 22.208539,22.077503 22.168713,22.087523 C 22.085223,22.087028 22.021442,22.150365 21.945456,22.17507 C 21.697292,22.28561 21.442048,22.379555 21.186232,22.471859 C 21.202458,22.465055 21.218681,22.458251 21.234908,22.451449 z M 20.518561,22.384594 C 20.614449,22.322744 20.711102,22.260852 20.800441,22.190435 C 20.815821,22.170117 20.834724,22.152551 20.861342,22.152044 C 20.93498,22.128921 20.99611,22.078311 21.065453,22.044454 C 21.524777,21.784572 22.004625,21.542357 22.388604,21.174364 C 22.506539,21.062056 22.613783,20.93797 22.706073,20.803608 C 22.739012,20.887824 22.762047,20.975227 22.773322,21.064858 C 22.619001,21.337937 22.378398,21.549843 22.11618,21.715476 C 21.725345,21.957024 21.295663,22.125676 20.864292,22.281364 C 20.747375,22.320558 20.629579,22.356516 20.510973,22.389354 L 20.515307,22.386637 L 20.518561,22.384594 z M 17.538243,21.912865 C 17.382238,21.905002 17.226485,21.891735 17.071468,21.872491 C 17.957657,21.943039 18.861971,21.873117 19.7116,21.603752 C 19.831275,21.565531 19.949771,21.523371 20.060568,21.463201 C 20.396024,21.297233 20.736188,21.139116 21.058261,20.948465 C 21.278481,20.817023 21.489347,20.66828 21.676719,20.493378 C 21.816265,20.547536 21.95756,20.615502 22.056054,20.732232 C 22.098895,20.784614 22.141183,20.848913 22.128528,20.920901 C 22.118945,21.004758 22.057114,21.079922 21.975298,21.102819 C 21.568383,21.289977 21.148626,21.450463 20.717709,21.573392 C 19.932777,21.800518 19.116206,21.913703 18.299181,21.919705 C 18.045574,21.926479 17.791643,21.926098 17.538243,21.912865 z M 13.467853,21.470411 C 13.494593,21.311909 13.592112,21.165013 13.735951,21.088788 C 13.895723,20.990501 14.078666,20.940113 14.256802,20.884907 C 13.970207,21.045627 13.694344,21.232953 13.46761,21.472161 L 13.467853,21.470411 z M 17.719299,21.453291 C 17.136882,21.423825 16.553677,21.34491 15.996137,21.170767 C 16.428917,20.989729 16.869581,20.826276 17.322249,20.702713 C 18.468249,20.375813 19.673179,20.226825 20.862966,20.341032 C 21.037887,20.357762 21.212276,20.380895 21.384053,20.417296 C 21.165535,20.650996 20.867318,20.786908 20.575887,20.908525 C 20.346243,21.01147 20.125279,21.136817 19.879506,21.198502 C 19.180581,21.404232 18.446975,21.484488 17.719299,21.453291 z M 15.564342,21.008004 C 15.522952,20.988311 15.482372,20.968413 15.442086,20.946781 C 15.755421,20.688456 16.132737,20.524229 16.502384,20.360786 C 16.568442,20.345321 16.634983,20.373793 16.701868,20.370179 C 16.884181,20.38112 17.066985,20.383964 17.249553,20.378852 C 16.95849,20.467801 16.668131,20.564309 16.395843,20.70033 C 16.130899,20.824406 15.852868,20.916967 15.576707,21.013878 C 15.572584,21.01192 15.568463,21.009961 15.564342,21.008004 z M 14.954274,20.30432 C 15.060121,20.186682 15.197603,20.101818 15.33821,20.031156 C 15.385387,20.05537 15.434423,20.076858 15.483609,20.097164 C 15.306075,20.168546 15.133535,20.252297 14.950549,20.308625 L 14.953899,20.304759 L 14.954274,20.30432 z M 16.343197,19.809091 C 16.239374,19.781095 16.137001,19.746705 16.037076,19.706436 C 16.29225,19.593192 16.556094,19.490395 16.834757,19.452958 C 17.393922,19.348919 17.964055,19.279194 18.53002,19.25175 C 18.276373,19.330192 18.02692,19.422761 17.77184,19.496125 C 17.297683,19.576726 16.828053,19.68429 16.365019,19.814776 C 16.357747,19.812884 16.350474,19.810988 16.343197,19.809091 z M 19.289718,19.939367 C 19.392723,19.896196 19.493465,19.84518 19.594896,19.800003 C 20.185711,19.779553 20.781368,19.802725 21.362551,19.915395 C 21.014177,19.87749 20.663192,19.873311 20.313118,19.871533 C 19.970656,19.876165 19.62894,19.900063 19.288897,19.939807 L 19.289718,19.939367 z M 15.518286,19.397694 C 15.452131,19.30858 15.452487,19.172992 15.53162,19.091627 C 15.590963,19.004537 15.674477,18.931957 15.774238,18.894955 C 15.795976,18.880062 15.826442,18.860702 15.850395,18.882294 C 16.155909,19.015433 16.499626,19.014274 16.826138,18.98695 C 16.943335,18.977714 17.060284,18.96526 17.176773,18.949431 C 16.991338,19.004268 16.810104,19.071611 16.625982,19.129951 C 16.259696,19.228827 15.881583,19.283669 15.519785,19.399846 L 15.518286,19.397694 z M 19.689816,19.327776 C 19.76215,19.316322 19.837079,19.304601 19.908477,19.297554 C 19.869263,19.32289 19.823039,19.339432 19.775946,19.330993 C 19.741646,19.330631 19.707339,19.330573 19.673036,19.330497 C 19.678629,19.32959 19.684223,19.328682 19.689816,19.327776 z M 20.821028,19.378741 C 20.655314,19.369511 20.489566,19.360824 20.323868,19.351324 C 20.349068,19.333449 20.374276,19.301635 20.408926,19.317613 C 20.550568,19.336218 20.692095,19.355898 20.833,19.379473 C 20.829011,19.379232 20.82502,19.378986 20.821028,19.378741 z M 18.129719,18.710955 C 18.50301,18.56887 18.857188,18.379984 19.195338,18.167795 C 19.696816,18.170536 20.201129,18.207974 20.691266,18.314773 C 20.696474,18.344835 20.69324,18.378192 20.693052,18.409302 C 20.688581,18.479715 20.673501,18.549283 20.647321,18.614897 C 20.083282,18.594125 19.516665,18.540905 18.953381,18.600496 C 18.671934,18.624022 18.391924,18.663554 18.114722,18.716642 C 18.11972,18.714745 18.124721,18.71285 18.129719,18.710955 z M 16.79497,18.540938 C 16.749425,18.538824 16.703885,18.535784 16.658614,18.530266 C 17.292788,18.335656 17.951317,18.219245 18.613791,18.181168 C 18.121886,18.397389 17.589186,18.517337 17.052223,18.537904 C 16.966578,18.542632 16.880703,18.543958 16.79497,18.540938 z M 21.469644,18.684891 C 21.341694,18.663749 21.212612,18.650465 21.083516,18.638604 C 21.117137,18.587558 21.147455,18.534232 21.173576,18.478986 C 21.283619,18.533134 21.38693,18.602282 21.476157,18.686002 L 21.471112,18.68514 L 21.469644,18.684891 z M 16.169933,18.362068 C 16.085633,18.300558 16.016615,18.219628 15.970063,18.126018 C 15.985522,18.075021 15.999641,18.007101 16.059049,17.990952 C 16.654202,17.727904 17.289958,17.556343 17.935609,17.472983 C 18.520146,17.402101 19.117832,17.415155 19.69523,17.534552 C 19.637928,17.58994 19.567115,17.64364 19.546137,17.723686 C 19.549348,17.744008 19.510199,17.725431 19.496817,17.731488 C 18.386077,17.726149 17.267451,17.912099 16.238964,18.33783 C 16.217637,18.347528 16.196566,18.358026 16.174114,18.364988 L 16.169933,18.362068 z M 20.3155,17.769706 C 20.155746,17.755838 19.995679,17.745633 19.835464,17.738942 C 19.892845,17.697338 19.946997,17.652242 20.002898,17.608313 C 20.115758,17.64609 20.222228,17.701514 20.319485,17.770055 L 20.3155,17.769706 z M 17.319045,17.203402 C 17.693635,17.05372 18.040096,16.841141 18.374887,16.616874 C 18.397239,16.588059 18.436443,16.586866 18.463093,16.563139 C 18.547877,16.509837 18.626518,16.443788 18.710297,16.391176 C 19.036561,16.439985 19.367472,16.520145 19.649257,16.69709 C 19.768132,16.78751 19.880089,16.907144 19.909397,17.058792 C 19.437412,16.979694 18.954783,16.966047 18.477785,17.003087 C 18.085401,17.034952 17.695663,17.102532 17.315455,17.204833 L 17.319045,17.203402 z M 16.632437,16.936111 C 16.519531,16.929559 16.406486,16.918239 16.297079,16.889204 C 16.588941,16.824247 16.874745,16.736878 17.157402,16.639426 C 17.346604,16.567066 17.531608,16.481663 17.710037,16.386801 C 17.917758,16.367586 18.126784,16.354521 18.3357,16.361445 C 18.29995,16.381698 18.271651,16.411716 18.233194,16.426346 C 18.090337,16.517026 17.93924,16.598168 17.785947,16.671036 C 17.426909,16.83996 17.032796,16.953191 16.632437,16.936111 z M 16.046301,16.432065 C 16.022679,16.419361 16.000982,16.403075 15.982839,16.383251 C 16.147285,16.29954 16.314163,16.210848 16.498464,16.182216 C 16.774065,16.112871 17.054945,16.058588 17.338684,16.037715 C 17.003267,16.102861 16.669558,16.181276 16.348026,16.297618 C 16.245111,16.337212 16.144738,16.382516 16.046301,16.432065 z M 15.694491,15.458978 C 16.015759,15.298675 16.356861,15.173916 16.710333,15.106814 C 16.675024,15.191117 16.587844,15.237031 16.504939,15.26417 C 16.238495,15.377912 15.955463,15.465048 15.664152,15.474178 C 15.674266,15.469112 15.684375,15.464045 15.694491,15.458978 z M 14.833242,14.849755 C 14.793643,14.85103 14.818072,14.84298 14.839982,14.837044 C 15.010789,14.782107 15.189352,14.759383 15.366581,14.733073 C 15.197155,14.800925 15.017835,14.855483 14.833242,14.849755 z "
       id="path2353"
       sodipodi:nodetypes="cccccccccccccccccccccccccccccccccccccccccccccccccccccccccccccccccccccccccccccccccccccccccccccccccccccccccccccccccccccccccccccccccccccccccccccccccccccccccccccccccccccccccccccccccccccccccccccccccccccccccccccccccccccccccccccccccccccccccccccccccccccccccccccccccccccccccc" />
    <g
       id="g2305"
       transform="matrix(5.111205e-3,3.981759e-3,-3.981759e-3,5.111205e-3,1.724408,-16.40867)">
      <path
         sodipodi:nodetypes="ccccc"
         id="path2303"
         d="M 3388.0938,1902.9375 L 3388.0938,2997.9062 L 4483.0312,2997.9062 L 4483.0312,1902.9375 L 3388.0938,1902.9375 z "
         style="opacity:1;color:#000000;fill:#e6f000;fill-opacity:1;fill-rule:nonzero;stroke:#000000;stroke-width:70.51015472;stroke-linecap:round;stroke-linejoin:round;marker:none;marker-start:none;marker-mid:none;marker-end:none;stroke-miterlimit:4;stroke-dasharray:none;stroke-dashoffset:0;stroke-opacity:1;visibility:visible;display:inline;overflow:visible" />
      <path
         id="rect2289"
         d="M 3388.0938,1902.9375 L 3388.0938,2997.9062 L 4483.0312,2997.9062 L 4483.0312,1902.9375 L 3388.0938,1902.9375 z M 3805.2812,2138.0625 L 4330,2464.5 L 3805.8438,2794.2188 L 3805.6875,2632.7812 L 3554.5938,2632.7812 L 3554.5938,2307.8125 L 3805.4062,2307.8125 L 3805.2812,2138.0625 z "
         style="opacity:1;color:#000000;fill:url(#linearGradient2193);fill-opacity:1;fill-rule:nonzero;stroke:#000000;stroke-width:70.50005341;stroke-linecap:round;stroke-linejoin:round;marker:none;marker-start:none;marker-mid:none;marker-end:none;stroke-miterlimit:4;stroke-dasharray:none;stroke-dashoffset:0;stroke-opacity:1;visibility:visible;display:inline;overflow:visible" />
    </g>
  </g>
</svg>
