<?xml version="1.0" encoding="UTF-8" standalone="no"?>
<!-- Created with Inkscape (http://www.inkscape.org/) -->
<svg
   xmlns:dc="http://purl.org/dc/elements/1.1/"
   xmlns:cc="http://web.resource.org/cc/"
   xmlns:rdf="http://www.w3.org/1999/02/22-rdf-syntax-ns#"
   xmlns:svg="http://www.w3.org/2000/svg"
   xmlns="http://www.w3.org/2000/svg"
   xmlns:xlink="http://www.w3.org/1999/xlink"
   xmlns:sodipodi="http://inkscape.sourceforge.net/DTD/sodipodi-0.dtd"
   xmlns:inkscape="http://www.inkscape.org/namespaces/inkscape"
   width="48"
   height="48"
   id="svg2"
   sodipodi:version="0.32"
   inkscape:version="0.43"
   version="1.0"
   sodipodi:docbase="/home/yekcim/Desktop/SVG/Weapons"
   sodipodi:docname="teleportation_ico.svg"
   inkscape:output_extension="org.inkscape.output.svg.inkscape">
  <defs
     id="defs4">
    <linearGradient
       id="linearGradient2187">
      <stop
         style="stop-color:#9e9e9e;stop-opacity:1;"
         offset="0"
         id="stop2189" />
      <stop
         style="stop-color:#000000;stop-opacity:1;"
         offset="1"
         id="stop2191" />
    </linearGradient>
    <linearGradient
       id="linearGradient2357">
      <stop
         style="stop-color:#791111;stop-opacity:1;"
         offset="0"
         id="stop2359" />
      <stop
         style="stop-color:#16510b;stop-opacity:1;"
         offset="1"
         id="stop2361" />
    </linearGradient>
    <linearGradient
       inkscape:collect="always"
       xlink:href="#linearGradient2357"
       id="linearGradient2363"
       x1="28.833498"
       y1="25.654903"
       x2="36.717911"
       y2="47.653709"
       gradientUnits="userSpaceOnUse" />
    <linearGradient
       inkscape:collect="always"
       xlink:href="#linearGradient2357"
       id="linearGradient2371"
       x1="16.945227"
       y1="22.588198"
       x2="11.526067"
       y2="0.58938777"
       gradientUnits="userSpaceOnUse" />
    <linearGradient
       inkscape:collect="always"
       xlink:href="#linearGradient2187"
       id="linearGradient2193"
       x1="3545.8464"
       y1="2306.8425"
       x2="4769.5015"
       y2="3033.7876"
       gradientUnits="userSpaceOnUse" />
  </defs>
  <sodipodi:namedview
     id="base"
     pagecolor="#ffffff"
     bordercolor="#666666"
     borderopacity="1.0"
     inkscape:pageopacity="0.0"
     inkscape:pageshadow="2"
     inkscape:zoom="11.2"
     inkscape:cx="49.767696"
     inkscape:cy="21.013651"
     inkscape:document-units="px"
     inkscape:current-layer="layer1"
     inkscape:window-width="1430"
     inkscape:window-height="821"
     inkscape:window-x="0"
     inkscape:window-y="25" />
  <metadata
     id="metadata7">
    <rdf:RDF>
      <cc:Work
         rdf:about="">
        <dc:format>image/svg+xml</dc:format>
        <dc:type
           rdf:resource="http://purl.org/dc/dcmitype/StillImage" />
      </cc:Work>
    </rdf:RDF>
  </metadata>
  <g
     inkscape:label="Calque 1"
     inkscape:groupmode="layer"
     id="layer1">
    <path
       style="fill:url(#linearGradient2371);fill-opacity:1.0;fill-rule:nonzero;stroke:none;stroke-width:4.30000019;stroke-linecap:butt;stroke-linejoin:miter;stroke-miterlimit:4;stroke-dasharray:none;stroke-opacity:1;opacity:1;color:#000000;marker:none;marker-start:none;marker-mid:none;marker-end:none;stroke-dashoffset:0;visibility:visible;display:inline;overflow:visible"
       d="M 16.321067,0.66081296 C 14.178353,0.55648986 12.009622,0.51271115 9.8935196,0.91754115 C 8.9239442,1.10327 7.9600521,1.3577538 7.0639014,1.7767158 C 6.3679797,2.1717507 5.6608911,2.5479591 4.9524271,2.9207696 C 3.7739092,3.4086918 2.6274491,4.0321843 1.7069918,4.9259269 C 1.3231254,5.3040972 0.92303346,5.6977732 0.73216067,6.2122716 C 0.57204353,6.6444115 0.54445824,7.1518202 0.76593447,7.5677227 C 0.80966593,7.6633432 0.87947941,7.7477223 0.93083954,7.8352602 C 0.9476764,8.5123252 1.3357745,9.1433623 1.8780661,9.5326601 C 2.4454387,9.9628884 3.1243657,10.223534 3.8161254,10.376373 C 3.9553075,11.115347 4.4994373,11.741194 5.1785894,12.044907 C 5.4250574,12.162983 5.6830059,12.254371 5.9474517,12.326002 C 6.0937435,12.852264 6.5062683,13.263971 6.9698681,13.530093 C 7.1810023,13.654593 7.4075755,13.753702 7.6431176,13.822554 C 7.4502656,14.206614 7.432715,14.697419 7.6702557,15.064945 C 7.9122268,15.476428 8.3408059,15.742692 8.7869275,15.885938 C 9.3010887,16.078074 9.8427205,16.19034 10.387843,16.250211 C 10.433603,16.501569 10.667747,16.68317 10.891104,16.760038 C 10.599876,17.00375 10.319304,17.303884 10.237113,17.686737 C 10.189259,18.017226 10.391538,18.343534 10.67836,18.496412 C 11.091135,18.756731 11.587769,18.818151 12.061055,18.893106 C 12.637122,18.962647 13.220178,18.934388 13.794833,18.868786 C 13.969172,19.205671 14.333336,19.394702 14.691956,19.471976 C 14.834675,19.507649 14.978842,19.534286 15.124525,19.553613 C 14.899317,19.786927 14.671044,20.062919 14.652109,20.400998 C 14.626914,20.80771 14.85675,21.204378 15.200997,21.413786 C 15.682949,21.75548 16.268642,21.89844 16.834271,22.039884 C 17.534497,22.197127 18.250234,22.281466 18.967714,22.31557 C 18.570266,22.547727 19.283688,22.66849 19.483561,22.528627 C 19.656943,22.448848 20.188921,21.400781 20.04433,21.409926 C 18.906757,21.40035 17.755469,21.259783 16.688996,20.851454 C 16.370821,20.719627 16.043733,20.543018 15.862032,20.238036 C 15.761975,20.043244 15.750896,19.782203 15.896643,19.605994 C 15.963555,19.590911 16.034531,19.61503 16.102395,19.598944 C 17.028872,19.556729 17.957727,19.39656 18.821317,19.052395 C 19.370642,18.81904 19.885194,18.440238 20.154743,17.896187 C 20.169167,17.855861 20.212711,17.806496 20.205331,17.76955 C 19.841904,17.45114 19.314772,17.391057 18.855358,17.492141 C 17.992316,17.670435 17.22686,18.131519 16.463664,18.550167 C 16.363883,18.599605 16.272794,18.699329 16.150899,18.665319 C 15.874496,18.638004 15.595114,18.602915 15.335647,18.501208 C 16.282537,18.173861 17.162282,17.669386 17.96229,17.069992 C 18.107501,16.944661 18.259799,16.799799 18.307919,16.607451 C 18.328194,16.413357 18.156763,16.237919 17.966827,16.229827 C 17.659988,16.172706 17.349987,16.24615 17.045392,16.28443 C 16.376722,16.406152 15.739466,16.676286 15.170426,17.046692 C 15.080315,17.068527 14.988044,17.115928 14.945169,17.201246 C 14.601047,17.450687 14.253703,17.699328 13.95467,18.001726 C 13.197531,18.050248 12.410196,18.003574 11.711379,17.687511 C 11.544433,17.600815 11.367719,17.452485 11.369388,17.249039 C 11.376385,17.117231 11.440373,16.996135 11.524241,16.897623 C 11.989914,16.966625 12.463815,16.97401 12.93331,16.945123 C 13.717865,16.891654 14.493944,16.731408 15.244643,16.500464 C 16.003327,16.256635 16.74481,15.896533 17.313182,15.327729 C 17.410434,15.22834 17.513145,15.127082 17.576049,15.002372 C 17.590668,14.799413 17.454261,14.624693 17.318989,14.489735 C 17.293715,14.478075 17.300094,14.463427 17.318392,14.449169 C 17.439941,14.267407 17.451082,13.995304 17.292153,13.831327 C 17.090843,13.595558 16.769833,13.524777 16.481711,13.447448 C 15.853941,13.298332 15.192703,13.310406 14.564429,13.448694 C 15.224168,13.234387 15.911962,13.062841 16.502407,12.689018 C 16.907698,12.437141 17.263652,12.078872 17.433879,11.625718 C 17.469974,11.524572 17.506461,11.419274 17.516267,11.312965 C 17.429717,11.109417 17.302788,10.924357 17.146035,10.769585 C 17.620322,10.464459 18.086532,10.101526 18.352742,9.5927525 C 18.459926,9.3672688 18.492473,9.0986409 18.413109,8.8590211 C 18.886094,8.5631545 19.308981,8.1654234 19.564407,7.665335 C 19.616326,7.5023716 19.616178,7.3285443 19.608707,7.1588083 C 20.382336,6.8715292 21.158673,6.5252596 21.766461,5.9548618 C 22.186404,5.5532902 22.47386,4.9828788 22.444076,4.3914279 C 22.403254,4.1204401 22.220249,3.9012274 22.073441,3.679333 C 21.945426,3.5211447 21.828361,3.3526224 21.746336,3.1648402 C 21.48736,2.7123637 21.055514,2.3834757 20.589168,2.1642792 C 20.489281,1.9958737 20.377371,1.8364013 20.231684,1.70543 C 19.778344,1.2692624 19.168919,1.0484884 18.566084,0.90576082 C 17.831012,0.73320753 17.073081,0.6953928 16.321067,0.66081296 z M 15.286138,1.4965445 C 15.39327,1.5011321 15.26914,1.4984771 15.227782,1.4988281 C 14.694968,1.4897006 14.163492,1.5558717 13.630803,1.5366345 C 13.046536,1.492292 12.460463,1.4717262 11.874518,1.475534 C 13.011034,1.4169547 14.149994,1.4427447 15.286138,1.4965445 z M 14.908005,2.6375639 C 15.749967,2.8056139 16.614169,2.9778997 17.354736,3.4333585 C 17.768831,3.6882695 18.120614,4.0902358 18.20687,4.5793167 C 18.212845,4.6173357 18.233855,4.6789481 18.179515,4.6326139 C 16.893485,3.9413359 15.43318,3.63184 13.982509,3.5623514 C 12.533413,3.4854288 11.077406,3.5505705 9.6403568,3.7488157 C 8.608715,3.9054714 7.5905943,4.1533143 6.6039014,4.4933691 C 6.7232451,4.4187212 6.8423003,4.3291272 6.9465324,4.2418108 C 7.0151695,4.2485398 7.0686414,4.1915555 7.1306332,4.1703922 C 7.8295196,3.8221467 8.5508883,3.5122159 9.2892937,3.2535305 C 9.8265258,3.0685029 10.373579,2.9068226 10.930596,2.795983 C 11.647645,2.7029152 12.37004,2.6667123 13.092333,2.6388222 C 13.697348,2.6198565 14.302988,2.6173162 14.908005,2.6375639 z M 18.805449,3.0028903 C 19.101448,3.0794129 19.391636,3.1779481 19.670127,3.3054417 C 19.717037,3.538515 19.729178,3.8050432 19.581377,4.0054162 C 19.515141,4.1203613 19.438178,4.2293195 19.34988,4.3285683 C 19.337803,3.8352883 19.138068,3.3459483 18.788238,2.9985857 L 18.798057,3.0010421 L 18.805449,3.0028903 z M 20.5636,3.880451 C 20.704895,3.9879514 20.836256,4.1340903 20.85594,4.3175015 C 20.903237,4.4832488 20.929055,4.6910981 20.809774,4.8313538 C 20.703941,4.9976582 20.527156,5.1140299 20.448772,5.2972099 C 20.443923,5.3194457 20.471874,5.3487121 20.435852,5.3526558 C 20.137856,5.5341677 19.832248,5.711814 19.521361,5.8641369 C 19.431343,5.6451201 19.292539,5.4489081 19.135985,5.2731696 C 19.707252,4.9230693 20.203956,4.4435124 20.546856,3.8663501 C 20.55244,3.8710521 20.558016,3.8757501 20.5636,3.880451 z M 5.9431312,3.342651 C 5.0952551,3.7007063 4.2499464,4.0876913 3.5012214,4.6280335 C 3.6220836,4.4760496 3.7719655,4.3531224 3.9084659,4.2171009 C 3.9616023,4.1579814 4.0169235,4.0824519 4.0957217,4.0626308 C 4.2608961,4.063609 4.3870809,3.9383071 4.5374023,3.8894305 C 5.0283632,3.670744 5.5333331,3.4848857 6.0394326,3.3022773 C 6.0073306,3.3157349 5.9752291,3.3291913 5.9431312,3.342651 z M 7.3603246,3.4749146 C 7.1706273,3.5972786 6.9794094,3.7197248 6.8026657,3.8590354 C 6.7722444,3.8992312 6.734842,3.9339828 6.6821842,3.9349876 C 6.5364936,3.9807296 6.4155611,4.0808572 6.2783767,4.1478385 C 5.3696656,4.6619799 4.4203448,5.1411714 3.6606944,5.8691991 C 3.427374,6.0913843 3.2152097,6.3368719 3.0326214,6.6026905 C 2.9674568,6.4360793 2.9218886,6.2631639 2.8995891,6.0858436 C 3.2048872,5.5455951 3.680886,5.1263589 4.1996493,4.7986772 C 4.9728667,4.3208076 5.8229338,3.9871516 6.6763472,3.6791433 C 6.9076498,3.6016044 7.1406985,3.5304657 7.3753408,3.4654992 L 7.3667689,3.4708766 L 7.3603246,3.4749146 z M 13.256503,4.4081694 C 13.565139,4.4237289 13.873264,4.4499711 14.179947,4.4880409 C 12.426745,4.3484747 10.637673,4.4868061 8.9567943,5.019707 C 8.7200361,5.0953254 8.4856036,5.178732 8.2664053,5.2977683 C 7.6027528,5.6261188 6.9297854,5.9389318 6.2925982,6.3161054 C 5.8569318,6.5761513 5.4397523,6.8704154 5.0690682,7.2164378 C 4.79299,7.1092927 4.5134618,6.9748324 4.3185946,6.7438931 C 4.2338467,6.640265 4.1501862,6.5130605 4.1752249,6.3706426 C 4.1941836,6.2047431 4.3165009,6.0560364 4.4783634,6.0107383 C 5.2833933,5.640471 6.113828,5.3229714 6.9663382,5.0797702 C 8.5192247,4.6304343 10.134708,4.4065115 11.751083,4.3946376 C 12.25281,4.3812336 12.75518,4.3819891 13.256503,4.4081694 z M 21.309235,5.2835072 C 21.256336,5.5970842 21.063405,5.887696 20.778837,6.0384983 C 20.462745,6.2329459 20.10082,6.3326328 19.748396,6.4418462 C 20.315385,6.1238822 20.861147,5.753283 21.309714,5.2800453 L 21.309235,5.2835072 z M 12.898303,5.3173759 C 14.050539,5.3756705 15.204333,5.5317931 16.307359,5.8763158 C 15.451156,6.2344726 14.57936,6.5578438 13.683813,6.8022974 C 11.416595,7.4490234 9.0328043,7.7437763 6.6789656,7.517833 C 6.3329139,7.4847373 5.9879073,7.4389719 5.6480673,7.3669551 C 6.0803763,6.9046119 6.6703522,6.6357265 7.2469219,6.3951246 C 7.7012398,6.1914629 8.1383862,5.9434774 8.6246145,5.8214446 C 10.007344,5.4144342 11.458691,5.2556581 12.898303,5.3173759 z M 17.161604,6.1983183 C 17.243491,6.2372819 17.323772,6.2766456 17.403474,6.3194423 C 16.783578,6.8305028 16.037108,7.1554028 15.305808,7.4787535 C 15.175123,7.509351 15.043478,7.4530202 14.911152,7.4601713 C 14.550471,7.4385262 14.188819,7.4329015 13.827632,7.4430127 C 14.403462,7.2670399 14.977897,7.076109 15.516589,6.8070115 C 16.04074,6.5615396 16.590794,6.3784242 17.137142,6.1866989 C 17.145295,6.1905712 17.153453,6.1944474 17.161604,6.1983183 z M 18.368537,7.5904635 C 18.159138,7.823195 17.887153,7.9910899 17.608974,8.1308847 C 17.515646,8.0829809 17.418626,8.0404664 17.321322,8.0002921 C 17.672551,7.8590752 18.0139,7.6933868 18.375913,7.5819473 L 18.369287,7.5895985 L 18.368537,7.5904635 z M 15.620737,8.5702091 C 15.82614,8.6255952 16.028666,8.693631 16.226362,8.7733026 C 15.721538,8.9973419 15.199549,9.2007098 14.648256,9.2747761 C 13.542014,9.4805971 12.414081,9.6185408 11.294396,9.6728351 C 11.796209,9.5176496 12.289717,9.3345148 12.794353,9.1893707 C 13.732413,9.0299138 14.661518,8.8171153 15.577569,8.5589623 C 15.591959,8.5627094 15.606347,8.5664602 15.620737,8.5702091 z M 9.7914282,8.3124756 C 9.5876534,8.3978872 9.3883466,8.4988145 9.1876771,8.5881904 C 8.018829,8.6286487 6.8404011,8.5828053 5.6906022,8.3599001 C 6.3798179,8.4348897 7.0742016,8.4431647 7.7667751,8.4466766 C 8.4442861,8.4375152 9.1203287,8.3902308 9.7930557,8.3116042 L 9.7914282,8.3124756 z M 17.252719,9.3841072 C 17.383594,9.5604034 17.382891,9.8286491 17.226342,9.9896202 C 17.108935,10.161913 16.943712,10.305504 16.746351,10.378714 C 16.703348,10.408173 16.643072,10.446471 16.595687,10.40376 C 15.99126,10.140356 15.311261,10.142649 14.665304,10.196706 C 14.433444,10.214978 14.202079,10.239621 13.971614,10.270937 C 14.338474,10.162445 14.697033,10.029219 15.061289,9.913803 C 15.785937,9.7181891 16.533983,9.6096894 17.249753,9.3798487 L 17.252719,9.3841072 z M 8.9998994,9.5224344 C 8.8567835,9.5450869 8.70855,9.5682792 8.5672982,9.5822151 C 8.6448803,9.5320989 8.7363222,9.4993677 8.8294906,9.5160628 C 8.8973559,9.5167822 8.9652248,9.5168932 9.0330894,9.5170478 C 9.0220228,9.5188449 9.0109608,9.5206372 8.9998994,9.5224344 z M 6.7619349,9.421599 C 7.0897806,9.4398601 7.4176901,9.4570495 7.7455032,9.4758434 C 7.6956504,9.5112071 7.6457782,9.5741469 7.5772258,9.5425337 C 7.2970057,9.5057275 7.0170155,9.4667903 6.7382493,9.4201508 C 6.7461445,9.4206339 6.7540378,9.4211169 6.7619349,9.421599 z M 12.086339,10.742726 C 11.347833,11.023825 10.647133,11.397508 9.9781494,11.817301 C 8.9860423,11.811875 7.9883195,11.737809 7.0186564,11.526522 C 7.0083482,11.467042 7.0147448,11.401055 7.0151192,11.339511 C 7.0239635,11.200209 7.0538019,11.06258 7.1055926,10.932768 C 8.2214712,10.973861 9.3424529,11.07915 10.45683,10.961255 C 11.013638,10.914713 11.567608,10.836509 12.116012,10.731478 C 12.10612,10.73523 12.096232,10.738981 12.086339,10.742726 z M 14.726968,11.079085 C 14.817071,11.083269 14.907167,11.089284 14.99673,11.100199 C 13.742104,11.485212 12.439284,11.715508 11.128669,11.790844 C 12.101834,11.363078 13.155715,11.125778 14.218028,11.085091 C 14.387463,11.075734 14.557358,11.073114 14.726968,11.079085 z M 5.4787296,10.794293 C 5.7318701,10.83612 5.9872449,10.862398 6.2426441,10.885869 C 6.1761284,10.986855 6.1161434,11.092351 6.0644707,11.201651 C 5.8467673,11.094524 5.6423721,10.957724 5.465853,10.792095 L 5.4758327,10.793798 L 5.4787296,10.794293 z M 15.963523,11.432961 C 16.130298,11.554646 16.266837,11.714756 16.358933,11.899948 C 16.328354,12.000842 16.300417,12.135209 16.182888,12.167162 C 15.00546,12.687568 13.747694,13.026975 12.470367,13.191896 C 11.313937,13.332124 10.131496,13.306303 8.9891782,13.070084 C 9.1025417,12.960507 9.2426386,12.854271 9.2841417,12.695909 C 9.2777888,12.655707 9.3552392,12.692457 9.3817161,12.680473 C 11.579171,12.69104 13.792224,12.323156 15.826954,11.48091 C 15.869145,11.461724 15.910833,11.440954 15.955247,11.42718 L 15.963523,11.432961 z M 7.7620557,12.604868 C 8.0781097,12.632302 8.3947845,12.652492 8.7117451,12.665728 C 8.5982252,12.748035 8.4910971,12.837256 8.380504,12.924166 C 8.1572268,12.849427 7.9465861,12.739774 7.754173,12.604176 L 7.7620557,12.604868 z M 13.690152,13.725225 C 12.949073,14.021351 12.263647,14.441914 11.601307,14.885593 C 11.557088,14.942602 11.479521,14.944954 11.426802,14.991903 C 11.259073,15.097352 11.103485,15.228017 10.937745,15.332109 C 10.292273,15.235544 9.6376141,15.076967 9.0801366,14.726899 C 8.8449596,14.548017 8.6234634,14.311334 8.5654808,14.011318 C 9.4992412,14.167799 10.454065,14.194799 11.397737,14.121523 C 12.174015,14.058479 12.945056,13.92478 13.697255,13.722395 L 13.690152,13.725225 z M 15.048513,14.254024 C 15.271885,14.266986 15.495536,14.289382 15.711978,14.346824 C 15.134568,14.475333 14.56914,14.64818 14.009942,14.84098 C 13.635632,14.984133 13.269619,15.153086 12.916627,15.340767 C 12.505677,15.378777 12.092147,15.404625 11.678833,15.390921 C 11.749559,15.350858 11.805545,15.291472 11.881629,15.262533 C 12.164252,15.083129 12.463175,14.922599 12.766449,14.778442 C 13.476763,14.444246 14.256457,14.220234 15.048513,14.254024 z M 16.208113,15.251214 C 16.25484,15.276346 16.297762,15.308565 16.333659,15.347784 C 16.008325,15.513398 15.678179,15.688864 15.313557,15.745504 C 14.768321,15.882693 14.212638,15.99009 13.651303,16.031384 C 14.314876,15.902501 14.975075,15.747369 15.611187,15.5172 C 15.814796,15.438872 16.013362,15.349241 16.208113,15.251214 z M 16.904118,17.176335 C 16.268531,17.493477 15.593707,17.740299 14.894408,17.873052 C 14.964256,17.706265 15.136738,17.615434 15.300761,17.561742 C 15.827879,17.336719 16.387821,17.16433 16.964139,17.146264 C 16.944132,17.156292 16.924126,17.166312 16.904118,17.176335 z M 18.607989,18.381609 C 18.68633,18.379086 18.637994,18.395011 18.594654,18.406751 C 18.256735,18.515441 17.903468,18.560394 17.552846,18.612447 C 17.888035,18.478211 18.24279,18.370275 18.607989,18.381609 z "
       id="path2355"
       sodipodi:nodetypes="cccccccccccccccccccccccccccccccccccccccccccccccccccccccccccccccccccccccccccccccccccccccccccccccccccccccccccccccccccccccccccccccccccccccccccccccccccccccccccccccccccccccccccccccccccccccccccccccccccccccccccccccccccccccccccccccccccccccccccccccccccccccccccccccccccccccccc" />
    <path
       style="fill:url(#linearGradient2363);fill-opacity:1.0;fill-rule:nonzero;stroke:none;stroke-width:4.30000019;stroke-linecap:butt;stroke-linejoin:miter;stroke-miterlimit:4;stroke-dasharray:none;stroke-opacity:1"
       d="M 31.922906,47.582287 C 34.065626,47.686609 36.234352,47.730387 38.350458,47.325557 C 39.320034,47.139828 40.283931,46.885349 41.180079,46.466384 C 41.875999,46.071349 42.583088,45.695141 43.291553,45.322332 C 44.470071,44.83441 45.616532,44.210918 46.536991,43.317174 C 46.920857,42.939005 47.320946,42.545328 47.511814,42.030826 C 47.671936,41.59869 47.699522,41.09128 47.478041,40.675378 C 47.434315,40.579758 47.3645,40.495379 47.31314,40.407841 C 47.296301,39.730776 46.908207,39.099739 46.365916,38.710442 C 45.798541,38.280215 45.119612,38.019566 44.427855,37.866728 C 44.288665,37.12775 43.744542,36.501908 43.065392,36.198194 C 42.818917,36.080114 42.560968,35.98873 42.296523,35.917097 C 42.150232,35.390837 41.737712,34.979131 41.274112,34.713008 C 41.062978,34.588506 40.836405,34.489401 40.600863,34.420547 C 40.793712,34.036483 40.811265,33.545682 40.573726,33.178158 C 40.331755,32.766677 39.903176,32.500411 39.457049,32.357161 C 38.942889,32.165026 38.401261,32.052763 37.856132,31.992887 C 37.810371,31.741531 37.576227,31.55993 37.352879,31.483064 C 37.644105,31.239353 37.924675,30.939218 38.006868,30.556365 C 38.054714,30.225872 37.852442,29.89957 37.565621,29.746688 C 37.152846,29.48637 36.656208,29.42495 36.182925,29.349998 C 35.60686,29.280451 35.023805,29.308712 34.449144,29.374313 C 34.274811,29.03743 33.910642,28.848398 33.552025,28.771127 C 33.409303,28.735453 33.265139,28.708816 33.119457,28.689491 C 33.344656,28.456173 33.572936,28.180181 33.591869,27.842107 C 33.617065,27.435393 33.387231,27.038725 33.042984,26.829315 C 32.561025,26.487619 31.975334,26.344658 31.409708,26.203216 C 30.709476,26.04597 29.99375,25.961637 29.276265,25.927531 C 29.673712,25.695374 28.960298,25.574612 28.76042,25.714471 C 28.587036,25.794253 28.055058,26.842323 28.199649,26.833174 C 29.337223,26.842748 30.488513,26.983317 31.554982,27.391646 C 31.873162,27.523474 32.20025,27.700086 32.381946,28.005067 C 32.482005,28.199859 32.493078,28.460897 32.347338,28.637104 C 32.280421,28.652191 32.209448,28.628073 32.141585,28.644158 C 31.21511,28.686371 30.286248,28.846541 29.422656,29.1907 C 28.873336,29.424061 28.358782,29.802862 28.089237,30.346914 C 28.074811,30.387237 28.031267,30.436604 28.038648,30.47355 C 28.402081,30.791963 28.929204,30.852046 29.388622,30.750958 C 30.251667,30.572667 31.01712,30.111584 31.780311,29.692931 C 31.880093,29.643494 31.971185,29.543774 32.093083,29.577782 C 32.369481,29.605097 32.648865,29.640186 32.908335,29.741895 C 31.961449,30.069243 31.081694,30.573715 30.281689,31.173106 C 30.13648,31.29844 29.984179,31.443302 29.936055,31.635646 C 29.915785,31.829744 30.087216,32.005181 30.277154,32.013275 C 30.583992,32.070397 30.893992,31.996954 31.19859,31.958672 C 31.867259,31.836949 32.504515,31.566819 33.073555,31.19641 C 33.163664,31.174574 33.255936,31.127176 33.298815,31.041857 C 33.642932,30.792412 33.99028,30.543775 34.289308,30.241374 C 35.046448,30.192853 35.833784,30.23953 36.532602,30.55559 C 36.699546,30.642285 36.876262,30.79062 36.874589,30.994063 C 36.867588,31.125868 36.803604,31.246968 36.719734,31.345474 C 36.254064,31.276474 35.780164,31.26909 35.31067,31.297981 C 34.526115,31.351448 33.750031,31.511689 32.999336,31.742637 C 32.24065,31.986467 31.499169,32.346568 30.930798,32.915373 C 30.833542,33.014763 30.730835,33.11602 30.667931,33.240729 C 30.65331,33.44369 30.78972,33.618409 30.924987,33.753364 C 30.950266,33.765027 30.943888,33.779676 30.925586,33.793932 C 30.804042,33.975698 30.7929,34.247798 30.951826,34.411775 C 31.153136,34.647543 31.474144,34.718322 31.762267,34.795655 C 32.390045,34.944773 33.051271,34.932693 33.679556,34.794408 C 33.019809,35.008711 32.332022,35.18026 31.741574,35.554084 C 31.336283,35.805959 30.980327,36.164229 30.810098,36.617382 C 30.774008,36.718532 30.737517,36.823826 30.727713,36.930137 C 30.814266,37.133687 30.941195,37.318745 31.097945,37.473512 C 30.623658,37.778642 30.157452,38.141577 29.891236,38.650348 C 29.784055,38.87583 29.75151,39.144462 29.830869,39.384081 C 29.357888,39.679948 28.935003,40.07768 28.679569,40.577763 C 28.627651,40.740729 28.627809,40.914561 28.635266,41.084289 C 27.861644,41.371573 27.085306,41.71784 26.477516,42.288237 C 26.05758,42.689813 25.770122,43.26022 25.799898,43.851672 C 25.840727,44.122661 26.023727,44.34187 26.170537,44.563767 C 26.298552,44.721957 26.415619,44.890479 26.497648,45.078261 C 26.756619,45.530736 27.188469,45.859626 27.654811,46.078821 C 27.7547,46.247228 27.866602,46.406697 28.012294,46.537669 C 28.465635,46.973837 29.075066,47.194616 29.677895,47.337339 C 30.412972,47.509893 31.170899,47.547708 31.922906,47.582287 z M 32.957843,46.746558 C 32.850708,46.741967 32.974839,46.744623 33.016202,46.744272 C 33.549014,46.753401 34.080483,46.687228 34.613181,46.706466 C 35.197449,46.75081 35.783516,46.771373 36.369465,46.767569 C 35.232946,46.826147 34.093987,46.800355 32.957843,46.746558 z M 33.335977,45.605539 C 32.494018,45.437489 31.629813,45.265201 30.88924,44.809738 C 30.475149,44.554831 30.123367,44.152865 30.037117,43.663787 C 30.031134,43.625764 30.010135,43.564157 30.064467,43.610487 C 31.350493,44.301764 32.810798,44.61126 34.261464,44.680747 C 35.710567,44.757671 37.166573,44.69253 38.603621,44.494282 C 39.635264,44.337629 40.653382,44.089787 41.640074,43.749729 C 41.520731,43.824378 41.401682,43.913975 41.297444,44.001287 C 41.228812,43.994563 41.175338,44.051548 41.113343,44.072708 C 40.414459,44.420954 39.693087,44.730882 38.954683,44.98957 C 38.417454,45.174597 37.870402,45.33628 37.31338,45.447115 C 36.596335,45.540184 35.87394,45.576387 35.15165,45.604281 C 34.546631,45.623244 33.940995,45.625786 33.335977,45.605539 z M 29.438531,45.240209 C 29.142535,45.163689 28.852343,45.06515 28.573854,44.93766 C 28.52694,44.704585 28.514803,44.438058 28.662605,44.237685 C 28.728838,44.122741 28.805804,44.013782 28.8941,43.914531 C 28.906178,44.407813 29.105913,44.897152 29.455745,45.244515 L 29.445927,45.242059 L 29.438531,45.240209 z M 27.680381,44.362649 C 27.539084,44.255149 27.407724,44.109012 27.388046,43.925602 C 27.340742,43.759852 27.314925,43.552005 27.434207,43.411749 C 27.540043,43.245444 27.716824,43.129073 27.795209,42.94589 C 27.800055,42.923652 27.772111,42.894391 27.808126,42.890445 C 28.106127,42.708936 28.411732,42.531285 28.722623,42.378967 C 28.81264,42.597982 28.951442,42.79419 29.107994,42.969932 C 28.536732,43.320034 28.040027,43.799589 27.697125,44.376754 C 27.691537,44.37205 27.68596,44.36735 27.680381,44.362649 z M 42.300848,44.900449 C 43.148722,44.542393 43.994038,44.155414 44.742757,43.615066 C 44.621896,43.767053 44.472013,43.889977 44.33551,44.025998 C 44.282379,44.085121 44.227051,44.160646 44.14826,44.180471 C 43.983085,44.179491 43.856903,44.304794 43.706576,44.35367 C 43.215615,44.572358 42.710648,44.758216 42.204549,44.940828 C 42.236652,44.927367 42.268745,44.913907 42.300848,44.900449 z M 40.88365,44.768185 C 41.073352,44.645823 41.264568,44.523377 41.441314,44.384067 C 41.471739,44.343871 41.509137,44.309117 41.561797,44.308115 C 41.707482,44.26237 41.828419,44.162245 41.965605,44.095263 C 42.874315,43.581121 43.823634,43.101931 44.583285,42.373904 C 44.816605,42.151717 45.028772,41.906231 45.211357,41.640411 C 45.276522,41.807022 45.322094,41.979938 45.344398,42.15726 C 45.039096,42.69751 44.563094,43.11674 44.044331,43.444423 C 43.271113,43.922293 42.421045,44.25595 41.567635,44.563958 C 41.336329,44.641499 41.103285,44.712636 40.86864,44.777602 L 40.877213,44.772228 L 40.88365,44.768185 z M 34.987481,43.834932 C 34.678847,43.819375 34.37071,43.793127 34.064028,43.755057 C 35.817237,43.894627 37.606303,43.756294 39.287185,43.223392 C 39.523944,43.147777 39.758374,43.064367 39.977571,42.94533 C 40.641227,42.616983 41.314197,42.304171 41.951377,41.926993 C 42.387051,41.666951 42.804223,41.372683 43.174914,41.026664 C 43.450986,41.133807 43.73052,41.26827 43.925378,41.499204 C 44.010134,41.602835 44.093795,41.730041 44.06876,41.872461 C 44.049801,42.038361 43.927476,42.187063 43.765613,42.232361 C 42.960585,42.60263 42.130152,42.92013 41.27764,43.163329 C 39.724755,43.612667 38.109276,43.836591 36.492899,43.848463 C 35.991168,43.861866 35.488801,43.861111 34.987481,43.834932 z M 26.934749,42.959596 C 26.98765,42.646019 27.18058,42.355405 27.465147,42.204603 C 27.781233,42.010154 28.143161,41.910469 28.49558,41.801251 C 27.928589,42.119215 27.382832,42.489815 26.934267,42.963056 L 26.934749,42.959596 z M 35.345676,42.925725 C 34.193441,42.86743 33.039647,42.711307 31.936628,42.366788 C 32.792826,42.008627 33.664621,41.685258 34.560167,41.440805 C 36.827378,40.794074 39.211174,40.499322 41.565011,40.725267 C 41.911068,40.758365 42.256074,40.80413 42.595912,40.876144 C 42.163604,41.33849 41.573621,41.607374 40.997061,41.847978 C 40.542742,42.05164 40.105592,42.299623 39.619365,42.421657 C 38.236633,42.828667 36.785289,42.987443 35.345676,42.925725 z M 31.082378,42.044783 C 31.000492,42.005822 30.920211,41.966456 30.840511,41.923662 C 31.460404,41.412599 32.206873,41.087696 32.938172,40.764347 C 33.068858,40.733751 33.2005,40.790079 33.332825,40.78293 C 33.693507,40.804574 34.05516,40.810201 34.416348,40.800088 C 33.840517,40.97606 33.26608,41.16699 32.727393,41.436091 C 32.203236,41.681559 31.653189,41.864678 31.106841,42.056403 C 31.098683,42.052529 31.09053,42.048655 31.082378,42.044783 z M 29.875439,40.652636 C 30.084843,40.419906 30.356832,40.252014 30.635005,40.112216 C 30.728338,40.160122 30.825349,40.202633 30.922657,40.242805 C 30.571431,40.384025 30.230083,40.549715 29.868069,40.661154 L 29.874696,40.653504 L 29.875439,40.652636 z M 32.623241,39.672891 C 32.417839,39.617504 32.215309,39.549468 32.01762,39.4698 C 32.522447,39.245762 33.044429,39.042392 33.595728,38.968327 C 34.701962,38.7625 35.829897,38.624559 36.949584,38.570265 C 36.447775,38.725452 35.954264,38.908586 35.449623,39.053729 C 34.511565,39.213186 33.582465,39.425988 32.666412,39.684137 C 32.652024,39.680394 32.637636,39.676643 32.623241,39.672891 z M 38.452546,39.930623 C 38.656328,39.845216 38.855633,39.744288 39.056301,39.65491 C 40.22515,39.614452 41.40358,39.660295 42.553375,39.8832 C 41.864161,39.80821 41.169785,39.79994 40.477207,39.796425 C 39.799691,39.805587 39.123652,39.852867 38.450921,39.931496 L 38.452546,39.930623 z M 30.991261,38.858994 C 30.860383,38.682695 30.861087,38.414452 31.017641,38.253482 C 31.135043,38.081186 31.300266,37.937596 31.49763,37.864391 C 31.540635,37.83493 31.600909,37.796627 31.648295,37.839343 C 32.252715,38.102742 32.932714,38.100449 33.578677,38.046393 C 33.810535,38.02812 34.041902,38.003481 34.272361,37.972164 C 33.905502,38.080654 33.546954,38.213883 33.182693,38.329301 C 32.458045,38.524914 31.709997,38.633412 30.994228,38.863253 L 30.991261,38.858994 z M 39.244086,38.720671 C 39.387191,38.698011 39.535429,38.674822 39.676679,38.660883 C 39.599099,38.711006 39.507653,38.743731 39.414483,38.727036 C 39.346624,38.72632 39.278755,38.726207 39.21089,38.726053 C 39.221955,38.72426 39.233022,38.722464 39.244086,38.720671 z M 41.482042,38.821498 C 41.154197,38.803239 40.826288,38.786053 40.498474,38.767258 C 40.548331,38.731895 40.598202,38.668956 40.666752,38.700566 C 40.946971,38.737372 41.226964,38.776309 41.505727,38.822948 C 41.497835,38.822469 41.489939,38.821984 41.482042,38.821498 z M 36.15764,37.500372 C 36.896147,37.219276 37.596843,36.845591 38.265829,36.425801 C 39.257935,36.431224 40.255654,36.50529 41.225323,36.716579 C 41.235627,36.776053 41.229229,36.842045 41.228859,36.90359 C 41.220014,37.042895 41.190178,37.180526 41.138387,37.310334 C 40.022508,37.269239 38.901531,37.163951 37.787146,37.281844 C 37.23034,37.328386 36.676378,37.406596 36.12797,37.511622 C 36.137858,37.507871 36.147751,37.504123 36.15764,37.500372 z M 33.517013,37.164015 C 33.426909,37.159833 33.336814,37.153818 33.247253,37.142902 C 34.50188,36.757891 35.804694,36.52759 37.115311,36.452257 C 36.142143,36.880022 35.088265,37.117326 34.025956,37.158013 C 33.856517,37.167367 33.686624,37.16999 33.517013,37.164015 z M 42.765243,37.448808 C 42.512111,37.406982 42.256739,37.380702 42.001338,37.357236 C 42.067854,37.256248 42.127836,37.15075 42.179512,37.041452 C 42.397218,37.148577 42.601605,37.285377 42.77813,37.451007 L 42.768146,37.449302 L 42.765243,37.448808 z M 32.280461,36.810144 C 32.113683,36.688455 31.977141,36.528345 31.885043,36.343151 C 31.915626,36.242261 31.94356,36.107889 32.061091,36.075941 C 33.238522,35.555536 34.496283,35.216124 35.773618,35.051208 C 36.930047,34.910977 38.112491,34.936802 39.254799,35.173013 C 39.141432,35.282592 39.001341,35.388829 38.959836,35.54719 C 38.966189,35.587393 38.888737,35.550643 38.862265,35.562625 C 36.66481,35.552063 34.451756,35.919941 32.417028,36.762193 C 32.374835,36.781379 32.33315,36.802148 32.288732,36.815921 L 32.280461,36.810144 z M 40.481922,35.638233 C 40.165869,35.610797 39.849197,35.59061 39.532233,35.577371 C 39.645752,35.495064 39.752886,35.405847 39.863477,35.318939 C 40.086758,35.393676 40.297394,35.503326 40.489806,35.638926 L 40.481922,35.638233 z M 34.553828,34.517876 C 35.294905,34.221752 35.980332,33.80119 36.642672,33.357508 C 36.686892,33.300501 36.764452,33.298141 36.817176,33.251199 C 36.98491,33.14575 37.140492,33.01508 37.306236,32.910994 C 37.951708,33.007555 38.606372,33.166141 39.163846,33.516205 C 39.399026,33.695088 39.620518,33.931768 39.6785,34.231784 C 38.744739,34.0753 37.789919,34.048302 36.846243,34.12158 C 36.069962,34.18462 35.298917,34.31832 34.546725,34.520707 L 34.553828,34.517876 z M 33.195464,33.989076 C 32.972092,33.976114 32.748448,33.953719 32.532001,33.896278 C 33.109413,33.767768 33.674838,33.59492 34.234038,33.402123 C 34.60835,33.258969 34.974356,33.09001 35.327355,32.902338 C 35.738303,32.864323 36.151834,32.838478 36.565145,32.852176 C 36.494419,32.892243 36.438434,32.95163 36.362352,32.980573 C 36.079727,33.159972 35.780802,33.320501 35.477532,33.46466 C 34.767221,33.798855 33.987523,34.022867 33.195464,33.989076 z M 32.035869,32.991888 C 31.989138,32.966754 31.946213,32.934535 31.910319,32.895316 C 32.235654,32.729704 32.5658,32.554239 32.930417,32.497593 C 33.475657,32.360405 34.031341,32.253012 34.592679,32.211716 C 33.929102,32.340599 33.268904,32.495734 32.632793,32.725902 C 32.429189,32.804233 32.230614,32.89386 32.035869,32.991888 z M 31.33986,31.066762 C 31.975448,30.749625 32.650272,30.502805 33.349569,30.370051 C 33.279718,30.536834 33.107243,30.627669 32.943224,30.68136 C 32.416102,30.906384 31.85616,31.07877 31.279838,31.096834 C 31.299847,31.086812 31.319848,31.076787 31.33986,31.066762 z M 29.635992,29.861494 C 29.55765,29.864017 29.605981,29.84809 29.649327,29.836347 C 29.987245,29.727662 30.34051,29.682705 30.691134,29.630655 C 30.355946,29.764891 30.001185,29.872826 29.635992,29.861494 z "
       id="path2353"
       sodipodi:nodetypes="cccccccccccccccccccccccccccccccccccccccccccccccccccccccccccccccccccccccccccccccccccccccccccccccccccccccccccccccccccccccccccccccccccccccccccccccccccccccccccccccccccccccccccccccccccccccccccccccccccccccccccccccccccccccccccccccccccccccccccccccccccccccccccccccccccccccccc" />
    <g
       id="g2305"
       transform="matrix(1.011185e-2,7.877387e-3,-7.877387e-3,1.011185e-2,3.701883,-31.97921)">
      <path
         sodipodi:nodetypes="ccccc"
         id="path2303"
         d="M 3388.0938,1902.9375 L 3388.0938,2997.9062 L 4483.0312,2997.9062 L 4483.0312,1902.9375 L 3388.0938,1902.9375 z "
         style="opacity:1;color:#000000;fill:#e6f000;fill-opacity:1;fill-rule:nonzero;stroke:#000000;stroke-width:70.51015472;stroke-linecap:round;stroke-linejoin:round;marker:none;marker-start:none;marker-mid:none;marker-end:none;stroke-miterlimit:4;stroke-dasharray:none;stroke-dashoffset:0;stroke-opacity:1;visibility:visible;display:inline;overflow:visible" />
      <path
         id="rect2289"
         d="M 3388.0938,1902.9375 L 3388.0938,2997.9062 L 4483.0312,2997.9062 L 4483.0312,1902.9375 L 3388.0938,1902.9375 z M 3805.2812,2138.0625 L 4330,2464.5 L 3805.8438,2794.2188 L 3805.6875,2632.7812 L 3554.5938,2632.7812 L 3554.5938,2307.8125 L 3805.4062,2307.8125 L 3805.2812,2138.0625 z "
         style="opacity:1;color:#000000;fill:url(#linearGradient2193);fill-opacity:1;fill-rule:nonzero;stroke:#000000;stroke-width:70.50005341;stroke-linecap:round;stroke-linejoin:round;marker:none;marker-start:none;marker-mid:none;marker-end:none;stroke-miterlimit:4;stroke-dasharray:none;stroke-dashoffset:0;stroke-opacity:1;visibility:visible;display:inline;overflow:visible" />
    </g>
  </g>
</svg>
