<?xml version="1.0" encoding="UTF-8" standalone="no"?>
<!-- Created with Inkscape (http://www.inkscape.org/) -->
<svg
   xmlns:dc="http://purl.org/dc/elements/1.1/"
   xmlns:cc="http://web.resource.org/cc/"
   xmlns:rdf="http://www.w3.org/1999/02/22-rdf-syntax-ns#"
   xmlns:svg="http://www.w3.org/2000/svg"
   xmlns="http://www.w3.org/2000/svg"
   xmlns:xlink="http://www.w3.org/1999/xlink"
   xmlns:sodipodi="http://inkscape.sourceforge.net/DTD/sodipodi-0.dtd"
   xmlns:inkscape="http://www.inkscape.org/namespaces/inkscape"
   width="48"
   height="48"
   id="svg2"
   sodipodi:version="0.32"
   inkscape:version="0.43"
   version="1.0"
   sodipodi:docbase="/home/yekcim/Desktop/SVG/Weapons"
   sodipodi:docname="uzi_ico.svg"
   inkscape:output_extension="org.inkscape.output.svg.inkscape">
  <defs
     id="defs4">
    <linearGradient
       id="linearGradient2274">
      <stop
         id="stop2276"
         offset="0"
         style="stop-color:#1f1f1d;stop-opacity:1;" />
      <stop
         id="stop2278"
         offset="1"
         style="stop-color:#43433d;stop-opacity:1;" />
    </linearGradient>
    <linearGradient
       id="linearGradient2323">
      <stop
         id="stop2325"
         offset="0"
         style="stop-color:#000000;stop-opacity:1;" />
      <stop
         id="stop2327"
         offset="1"
         style="stop-color:#5d5d56;stop-opacity:0;" />
    </linearGradient>
    <linearGradient
       id="linearGradient2356">
      <stop
         style="stop-color:#33332d;stop-opacity:1;"
         offset="0"
         id="stop2358" />
      <stop
         style="stop-color:#0c0c09;stop-opacity:1;"
         offset="1"
         id="stop2360" />
    </linearGradient>
    <linearGradient
       id="linearGradient2195">
      <stop
         id="stop2197"
         offset="0"
         style="stop-color:#b9c603;stop-opacity:1;" />
      <stop
         id="stop2199"
         offset="1"
         style="stop-color:#ffffff;stop-opacity:1;" />
    </linearGradient>
    <linearGradient
       inkscape:collect="always"
       xlink:href="#linearGradient2274"
       id="linearGradient1971"
       gradientUnits="userSpaceOnUse"
       gradientTransform="translate(332.0049,116.9403)"
       x1="214.94083"
       y1="217.75018"
       x2="229.54984"
       y2="196.49721" />
    <linearGradient
       inkscape:collect="always"
       xlink:href="#linearGradient2274"
       id="linearGradient1973"
       gradientUnits="userSpaceOnUse"
       gradientTransform="translate(332.5483,-115.3863)"
       x1="380.26987"
       y1="35.705368"
       x2="381.77393"
       y2="16.538157" />
    <linearGradient
       inkscape:collect="always"
       xlink:href="#linearGradient2274"
       id="linearGradient1975"
       gradientUnits="userSpaceOnUse"
       gradientTransform="translate(332.0049,116.9403)"
       x1="264.20398"
       y1="319.68304"
       x2="228.4637"
       y2="306.23511" />
    <linearGradient
       inkscape:collect="always"
       xlink:href="#linearGradient2323"
       id="linearGradient1983"
       gradientUnits="userSpaceOnUse"
       gradientTransform="matrix(0.306403,7.52727e-16,4.644393e-16,1.641455,663.0589,-433.2523)"
       x1="327.5184"
       y1="217.68156"
       x2="442.24597"
       y2="217.68156" />
    <linearGradient
       inkscape:collect="always"
       xlink:href="#linearGradient2356"
       id="linearGradient1985"
       gradientUnits="userSpaceOnUse"
       gradientTransform="translate(335.8506,121.4268)"
       x1="371.00415"
       y1="408.6217"
       x2="442.42294"
       y2="430.41354" />
    <linearGradient
       inkscape:collect="always"
       xlink:href="#linearGradient2323"
       id="linearGradient2862"
       gradientUnits="userSpaceOnUse"
       gradientTransform="translate(392.4322,-311.0126)"
       x1="327.5184"
       y1="217.68156"
       x2="442.24597"
       y2="217.68156" />
    <linearGradient
       inkscape:collect="always"
       xlink:href="#linearGradient2195"
       id="linearGradient3129"
       gradientUnits="userSpaceOnUse"
       gradientTransform="matrix(-2.121448e-3,-4.450419e-4,-5.201211e-4,2.479339e-3,12.46394,33.4305)"
       x1="-356.89258"
       y1="949.76782"
       x2="-356.89258"
       y2="-70.071808" />
    <linearGradient
       inkscape:collect="always"
       xlink:href="#linearGradient2195"
       id="linearGradient3162"
       gradientUnits="userSpaceOnUse"
       gradientTransform="matrix(-2.121448e-3,-4.450419e-4,-5.201211e-4,2.479339e-3,11.71657,29.11137)"
       x1="-356.89258"
       y1="949.76782"
       x2="-356.89258"
       y2="-70.071808" />
    <linearGradient
       inkscape:collect="always"
       xlink:href="#linearGradient2195"
       id="linearGradient3166"
       gradientUnits="userSpaceOnUse"
       gradientTransform="matrix(-2.121448e-3,-4.450419e-4,-5.201211e-4,2.479339e-3,10.83514,24.75447)"
       x1="-356.89258"
       y1="949.76782"
       x2="-356.89258"
       y2="-70.071808" />
    <linearGradient
       inkscape:collect="always"
       xlink:href="#linearGradient2195"
       id="linearGradient3179"
       gradientUnits="userSpaceOnUse"
       gradientTransform="matrix(-2.121448e-3,-4.450419e-4,-5.201211e-4,2.479339e-3,5.655648,27.72241)"
       x1="-356.89258"
       y1="949.76782"
       x2="-356.89258"
       y2="-70.071808" />
    <linearGradient
       inkscape:collect="always"
       xlink:href="#linearGradient2195"
       id="linearGradient3183"
       gradientUnits="userSpaceOnUse"
       gradientTransform="matrix(-2.121448e-3,-4.450419e-4,-5.201211e-4,2.479339e-3,4.774218,23.36551)"
       x1="-356.89258"
       y1="949.76782"
       x2="-356.89258"
       y2="-70.071808" />
    <linearGradient
       inkscape:collect="always"
       xlink:href="#linearGradient2195"
       id="linearGradient3187"
       gradientUnits="userSpaceOnUse"
       gradientTransform="matrix(-2.121448e-3,-4.450419e-4,-5.201211e-4,2.479339e-3,6.403025,32.04154)"
       x1="-356.89258"
       y1="949.76782"
       x2="-356.89258"
       y2="-70.071808" />
  </defs>
  <sodipodi:namedview
     id="base"
     pagecolor="#ffffff"
     bordercolor="#666666"
     borderopacity="1.0"
     inkscape:pageopacity="0.0"
     inkscape:pageshadow="2"
     inkscape:zoom="11.2"
     inkscape:cx="16.874357"
     inkscape:cy="23.442955"
     inkscape:document-units="px"
     inkscape:current-layer="layer1"
     inkscape:window-width="1430"
     inkscape:window-height="821"
     inkscape:window-x="0"
     inkscape:window-y="25" />
  <metadata
     id="metadata7">
    <rdf:RDF>
      <cc:Work
         rdf:about="">
        <dc:format>image/svg+xml</dc:format>
        <dc:type
           rdf:resource="http://purl.org/dc/dcmitype/StillImage" />
      </cc:Work>
    </rdf:RDF>
  </metadata>
  <g
     inkscape:label="Calque 1"
     inkscape:groupmode="layer"
     id="layer1">
    <g
       style="display:inline"
       id="g8321"
       transform="matrix(0.123089,7.535045e-3,-7.15974e-3,0.116961,-49.01262,-27.15489)">
      <path
         id="path8323"
         d="M 430.45268,218.87734 L 421.9187,230.45242 L 424.6062,236.42117 L 434.88746,243.98367 L 439.23121,245.07742 L 484.69995,279.17117 L 485.2312,286.76492 L 488.4812,291.07742 L 596.19995,387.98367 L 601.07495,382.57742 L 604.32495,384.20242 L 605.94995,382.57742 L 608.6687,385.82742 L 561.01245,426.95242 L 584.8562,462.70242 L 609.7312,443.20242 L 635.7312,464.29617 L 616.32349,541.20623 L 650.82793,555.98062 L 669.70439,473.10181 C 672.21701,459.82856 684.52465,454.16607 691.48121,463.76492 C 698.72448,473.75938 754.39042,555.06341 754.39042,555.06341 L 761.10836,559.4375 L 812.14955,509.03917 L 810.24956,498.43667 L 721.67144,431.06484 L 726.54644,425.65859 L 721.14019,420.78359 L 724.39019,395.34609 C 724.39016,395.34609 723.83573,385.60515 720.04644,383.43984 C 716.25713,381.27452 655.07769,346.09609 655.07769,346.09609 C 655.07766,346.09609 644.27322,345.01445 640.48393,347.72109 C 636.69463,350.42772 628.57768,360.15859 628.57768,360.15859 L 625.32768,359.06484 L 627.48393,356.37734 L 623.14018,352.59609 L 625.85893,350.40859 L 510.54643,267.43984 L 511.10893,267.06484 L 517.04643,245.93984 L 511.64018,242.15859 L 483.48393,258.37734 L 483.32768,258.56484 L 448.82769,233.50234 L 449.39019,229.68984 L 437.48394,221.59609 L 430.45268,218.87734 z M 508.92143,250.28359 L 512.17143,252.43984 L 506.76518,266.50234 L 492.14018,256.75234 L 499.17143,252.43984 L 503.51518,255.15859 L 508.92143,250.28359 z M 487.26518,259.47109 L 493.76518,261.09609 L 498.64018,264.87734 L 495.39018,269.75234 L 486.20268,262.18984 L 487.26518,259.47109 z M 648.14018,348.72109 C 648.16731,348.71828 648.20687,348.72367 648.23393,348.72109 C 648.24091,348.72043 648.2585,348.72134 648.26518,348.72109 C 648.29103,348.72128 648.33315,348.72067 648.35893,348.72109 C 648.36558,348.72092 648.38323,348.72164 648.39018,348.72109 C 648.39376,348.7208 648.41536,348.72099 648.42143,348.72109 C 648.44719,348.72123 648.4895,348.72072 648.51518,348.72109 C 648.52126,348.72116 648.54287,348.72132 648.54643,348.72109 C 648.55236,348.72117 648.57385,348.72118 648.57768,348.72109 C 648.60922,348.72117 648.67124,348.72077 648.70268,348.72109 C 648.7065,348.72104 648.72799,348.72103 648.73393,348.72109 C 651.298,348.59953 653.45269,349.34609 653.45269,349.34609 L 705.98394,387.78359 C 706.45766,388.29469 714.01224,396.54338 711.39019,399.68984 C 709.29042,402.20957 707.79043,405.07397 706.73394,405.97109 C 706.69867,406.00013 706.64647,406.03798 706.60894,406.06484 C 706.58112,406.084 706.54021,406.11251 706.51519,406.12734 C 706.49915,406.13554 706.46523,406.15243 706.45269,406.15859 C 706.442,406.16418 706.40082,406.18459 706.39019,406.18984 C 706.31413,406.21526 706.21166,406.22623 706.14019,406.22109 C 706.13853,406.22079 706.11592,406.22092 706.10894,406.22109 C 706.09802,406.21574 706.05732,406.19559 706.04644,406.18984 C 706.027,406.18044 706.00297,406.1681 705.98394,406.15859 L 642.64018,360.15859 C 642.45327,359.83749 639.50056,354.64196 643.17143,350.97109 C 644.6021,349.54043 646.43091,348.89789 648.14018,348.72109 z M 625.57495,428.35867 C 625.59146,428.35585 625.62058,428.36111 625.63745,428.35867 C 625.64248,428.35839 625.66351,428.35864 625.6687,428.35867 C 625.68987,428.35956 625.74166,428.35922 625.76245,428.35867 C 625.76877,428.35877 625.7906,428.35879 625.7937,428.35867 C 625.81981,428.35872 625.86085,428.35823 625.88745,428.35867 C 625.89065,428.35862 625.91244,428.35861 625.9187,428.35867 C 629.05188,428.1574 634.63743,430.73367 634.63745,430.73367 C 634.63745,430.73367 648.72214,441.04717 650.88746,442.67117 C 650.89824,442.67616 650.93937,442.69731 650.94996,442.70242 C 650.95622,442.70887 650.97797,442.73073 650.98121,442.73367 C 651.02218,442.77277 651.0753,442.82499 651.10621,442.85867 C 651.11244,442.86483 651.13334,442.88582 651.13746,442.88992 C 651.21916,442.98984 651.30192,443.12143 651.35621,443.23367 C 652.34448,445.37377 649.26248,450.23367 649.26246,450.23367 C 649.26246,450.23367 645.45902,452.41211 643.2937,454.57742 C 641.11572,456.64423 631.25809,452.57618 630.88745,452.42117 C 630.88389,452.4213 630.85912,452.4212 630.8562,452.42117 C 630.17172,452.03236 620.98087,445.23333 618.94995,443.20242 C 616.78464,441.03711 617.32495,435.60866 617.32495,435.60867 C 617.32495,435.60867 622.21205,429.66009 624.9187,428.57742 C 625.13118,428.49243 625.32726,428.40098 625.57495,428.35867 z "
         style="fill:#1f0e1c;fill-opacity:1;fill-rule:evenodd;stroke:#000000;stroke-width:9.04330349;stroke-linecap:butt;stroke-linejoin:round;stroke-miterlimit:4;stroke-dasharray:none;stroke-opacity:1"
         sodipodi:nodetypes="cccccccccccccccccccczccccccccscscccccccccccccccccccccccccccccssssssssssccsssssssssccsccsssssscsssssscsssscsc" />
      <path
         id="path8325"
         d="M 429.66159,219.73816 L 422.96102,231.90583 L 425.64852,237.87458 L 435.92977,245.43708 L 440.27352,246.53083 L 485.74227,280.62458 L 486.27352,288.21833 L 489.52352,292.53083 L 597.24227,389.43708 L 602.11727,384.03083 L 605.36727,385.65583 L 606.99227,384.03083 L 609.71102,387.28083 L 562.05477,428.40583 L 585.89852,464.15583 L 610.77352,444.65583 L 636.77352,465.74958 L 615.95404,539.24724 L 651.05667,553.91637 L 669.69937,473.76879 C 671.86821,460.79223 684.60639,454.79339 692.52352,465.21833 C 697.69664,472.03008 754.32283,552.73725 754.32283,552.73725 L 761.56191,556.85309 L 810.20476,508.2496 L 807.97731,498.18532 L 720.88034,431.92566 L 725.75534,426.51941 L 720.34909,421.64441 L 723.59909,396.20691 C 723.59906,396.20691 723.04463,386.46597 719.25534,384.30066 C 715.46603,382.13534 654.28659,346.95691 654.28659,346.95691 C 654.28656,346.95691 643.48213,345.87527 639.69284,348.58191 C 635.90354,351.28854 627.78659,361.01941 627.78659,361.01941 L 624.53659,359.92566 L 626.69284,357.23816 L 622.34909,353.45691 L 625.06784,351.26941 L 509.75534,268.30066 L 510.31784,267.92566 L 516.25534,246.80066 L 510.84909,243.01941 L 482.69284,259.23816 L 482.53659,259.42566 L 448.03659,234.36316 L 448.59909,230.55066 L 436.69284,222.45691 L 429.66159,219.73816 z M 508.13034,251.14441 L 511.38034,253.30066 L 505.97409,267.36316 L 491.34909,257.61316 L 498.38034,253.30066 L 502.72409,256.01941 L 508.13034,251.14441 z M 486.47409,260.33191 L 492.97409,261.95691 L 497.84909,265.73816 L 494.59909,270.61316 L 485.41159,263.05066 L 486.47409,260.33191 z M 647.34909,349.58191 C 647.37622,349.5791 647.41578,349.58449 647.44284,349.58191 C 647.44982,349.58125 647.46741,349.58216 647.47409,349.58191 C 647.49994,349.5821 647.54206,349.58149 647.56784,349.58191 C 647.57449,349.58174 647.59214,349.58246 647.59909,349.58191 C 647.60267,349.58162 647.62427,349.58181 647.63034,349.58191 C 647.6561,349.58205 647.69841,349.58154 647.72409,349.58191 C 647.73017,349.58198 647.75178,349.58214 647.75534,349.58191 C 647.76127,349.58199 647.78276,349.582 647.78659,349.58191 C 647.81813,349.58199 647.88015,349.58159 647.91159,349.58191 C 647.91541,349.58186 647.9369,349.58185 647.94284,349.58191 C 650.50691,349.46035 652.66159,350.20691 652.66159,350.20691 L 705.19284,388.64441 C 705.66656,389.15551 713.22114,397.4042 710.59909,400.55066 C 708.49932,403.07039 706.99933,405.93479 705.94284,406.83191 C 705.90757,406.86095 705.85537,406.8988 705.81784,406.92566 C 705.79002,406.94482 705.74911,406.97333 705.72409,406.98816 C 705.70805,406.99636 705.67413,407.01325 705.66159,407.01941 C 705.6509,407.025 705.60972,407.04541 705.59909,407.05066 C 705.52303,407.07608 705.42056,407.08705 705.34909,407.08191 C 705.34743,407.08161 705.32482,407.08174 705.31784,407.08191 C 705.30692,407.07656 705.26622,407.05641 705.25534,407.05066 C 705.2359,407.04126 705.21187,407.02892 705.19284,407.01941 L 641.84909,361.01941 C 641.66218,360.69831 638.70947,355.50278 642.38034,351.83191 C 643.81101,350.40125 645.63982,349.75871 647.34909,349.58191 z M 626.61727,429.81208 C 626.63378,429.80926 626.6629,429.81452 626.67977,429.81208 C 626.6848,429.8118 626.70583,429.81205 626.71102,429.81208 C 626.73219,429.81297 626.78398,429.81263 626.80477,429.81208 C 626.81109,429.81218 626.83292,429.8122 626.83602,429.81208 C 626.86213,429.81213 626.90317,429.81164 626.92977,429.81208 C 626.93297,429.81203 626.95476,429.81202 626.96102,429.81208 C 630.0942,429.61081 635.67975,432.18708 635.67977,432.18708 C 635.67977,432.18708 649.76445,442.50058 651.92977,444.12458 C 651.94055,444.12957 651.98168,444.15072 651.99227,444.15583 C 651.99853,444.16228 652.02028,444.18414 652.02352,444.18708 C 652.06449,444.22618 652.11761,444.2784 652.14852,444.31208 C 652.15475,444.31824 652.17565,444.33923 652.17977,444.34333 C 652.26147,444.44325 652.34423,444.57484 652.39852,444.68708 C 653.38679,446.82718 650.30479,451.68708 650.30477,451.68708 C 650.30477,451.68708 646.50134,453.86552 644.33602,456.03083 C 642.15804,458.09764 632.30041,454.02959 631.92977,453.87458 C 631.92621,453.87471 631.90144,453.87461 631.89852,453.87458 C 631.21404,453.48577 622.02319,446.68674 619.99227,444.65583 C 617.82696,442.49052 618.36727,437.06207 618.36727,437.06208 C 618.36727,437.06208 623.25437,431.1135 625.96102,430.03083 C 626.1735,429.94584 626.36958,429.85439 626.61727,429.81208 z "
         style="fill:#20201f;fill-opacity:1;fill-rule:evenodd;stroke:none;stroke-width:1pt;stroke-linecap:butt;stroke-linejoin:miter;stroke-opacity:1"
         sodipodi:nodetypes="ccccccccccccccccccccsccccccccscscccccccccccccccccccccccccccccssssssssssccsssssssssccsccsssssscsssssscsssscsc" />
      <path
         id="path8327"
         d="M 640.47661,435.18661 C 640.47661,435.18661 635.61879,447.93839 631.97542,450.3673 C 628.33205,452.79621 635.61879,452.18899 635.61879,452.18899 L 647.76334,440.65166 L 640.47661,435.18661 z "
         style="fill:#393934;fill-opacity:1;fill-rule:evenodd;stroke:none;stroke-width:1pt;stroke-linecap:butt;stroke-linejoin:miter;stroke-opacity:1" />
      <path
         id="path8329"
         d="M 597.36344,388.43008 L 625.83559,350.51136 L 503.1756,264.28504 L 490.49137,281.55801 L 486.24078,280.95078 L 486.24078,288.23751 L 597.36344,388.43008 z "
         style="fill:url(#linearGradient1971);fill-opacity:1;fill-rule:evenodd;stroke:none;stroke-width:1pt;stroke-linecap:butt;stroke-linejoin:miter;stroke-opacity:1"
         sodipodi:nodetypes="ccccccc" />
      <rect
         transform="matrix(0.782183,0.623049,-0.623049,0.782183,0,0)"
         ry="0"
         y="-104.65646"
         x="709.14032"
         height="30.968666"
         width="6.6795177"
         id="rect8331"
         style="opacity:1;fill:url(#linearGradient1973);fill-opacity:1;fill-rule:nonzero;stroke:none;stroke-width:18;stroke-linecap:round;stroke-linejoin:round;stroke-miterlimit:4;stroke-dasharray:none;stroke-dashoffset:0;stroke-opacity:1" />
      <rect
         transform="matrix(0.566936,0.823762,-0.872438,0.488725,0,0)"
         ry="1.673949"
         y="-250.50966"
         x="643.59021"
         height="3.4560914"
         width="49.121796"
         id="rect8333"
         style="opacity:1;fill:#5d5d56;fill-opacity:1;fill-rule:nonzero;stroke:none;stroke-width:18;stroke-linecap:round;stroke-linejoin:round;stroke-miterlimit:4;stroke-dasharray:none;stroke-dashoffset:0;stroke-opacity:1"
         rx="1.6839693" />
      <path
         id="path8335"
         d="M 561.99492,428.33788 L 582.38184,411.45496 L 607.86549,447.45062 L 585.88584,464.33354 L 561.99492,428.33788 z "
         style="fill:url(#linearGradient1975);fill-opacity:1;fill-rule:evenodd;stroke:none;stroke-width:1pt;stroke-linecap:butt;stroke-linejoin:miter;stroke-opacity:1" />
      <path
         style="opacity:1;fill:url(#linearGradient2862);fill-opacity:1;fill-rule:nonzero;stroke:none;stroke-width:18;stroke-linecap:round;stroke-linejoin:round;stroke-miterlimit:4;stroke-dasharray:none;stroke-dashoffset:0;stroke-opacity:1"
         d="M 25.625,15.5625 C 25.621928,15.565981 25.627704,15.590885 25.625,15.59375 C 25.619472,15.599244 25.599187,15.619358 25.59375,15.625 C 25.588318,15.63052 25.567479,15.650204 25.5625,15.65625 C 25.55676,15.661887 25.536957,15.681834 25.53125,15.6875 C 25.531469,15.690949 25.531186,15.715928 25.53125,15.71875 C 25.52545,15.724351 25.505759,15.744376 25.5,15.75 L 25.46875,16 L 23.96875,15.9375 C 23.963891,15.93817 23.942906,15.93624 23.9375,15.9375 C 23.914599,15.944097 23.862637,15.96396 23.84375,15.96875 C 23.832909,15.968364 23.791959,15.968818 23.78125,15.96875 C 23.770337,15.974122 23.729499,15.994335 23.71875,16 C 23.70861,16.004955 23.672451,16.02293 23.65625,16.03125 C 23.650741,16.036815 23.630454,16.056873 23.625,16.0625 C 23.585066,16.094558 23.526526,16.145392 23.5,16.1875 C 23.49841,16.191066 23.501461,16.214836 23.5,16.21875 C 23.493253,16.239438 23.474022,16.264275 23.46875,16.28125 C 23.462869,16.29203 23.442998,16.332852 23.4375,16.34375 C 23.437225,16.360047 23.437138,16.395617 23.4375,16.40625 C 23.443041,16.417165 23.462827,16.457947 23.46875,16.46875 C 23.468307,16.479725 23.468838,16.520413 23.46875,16.53125 C 23.474381,16.536746 23.494286,16.557044 23.5,16.5625 C 23.534734,16.621287 23.594194,16.681895 23.65625,16.71875 C 23.665894,16.723875 23.702259,16.74201 23.71875,16.75 C 23.729474,16.755733 23.770343,16.775826 23.78125,16.78125 C 23.784756,16.781536 23.808514,16.781206 23.8125,16.78125 C 23.825687,16.780627 23.864099,16.781251 23.875,16.78125 L 25.28125,16.8125 L 24.40625,21.25 C 24.403312,21.252678 24.378744,21.278378 24.375,21.28125 C 24.37474,21.285327 24.375073,21.308464 24.375,21.3125 C 24.38056,21.32357 24.400299,21.364073 24.40625,21.375 C 24.406202,21.377824 24.406403,21.402787 24.40625,21.40625 C 24.411815,21.411761 24.431787,21.432095 24.4375,21.4375 C 24.437421,21.44035 24.437783,21.465194 24.4375,21.46875 C 24.44109,21.468432 24.465891,21.468838 24.46875,21.46875 C 24.468656,21.471618 24.469097,21.496376 24.46875,21.5 C 24.47228,21.499757 24.497157,21.500071 24.5,21.5 C 24.505638,21.505791 24.525587,21.525503 24.53125,21.53125 C 24.534701,21.531139 24.559678,21.53129 24.5625,21.53125 C 24.564385,21.531437 24.586879,21.531317 24.59375,21.53125 C 24.595609,21.531128 24.618114,21.531164 24.625,21.53125 C 24.626828,21.530933 24.649347,21.531068 24.65625,21.53125 C 24.661898,21.525492 24.681866,21.505802 24.6875,21.5 C 24.690331,21.500066 24.715257,21.499777 24.71875,21.5 C 24.724278,21.494506 24.744563,21.474392 24.75,21.46875 C 24.752718,21.46599 24.778644,21.440394 24.78125,21.4375 C 24.786914,21.432121 24.806972,21.411744 24.8125,21.40625 C 24.812281,21.402801 24.812564,21.377822 24.8125,21.375 C 24.81232,21.371576 24.812555,21.346565 24.8125,21.34375 C 24.818323,21.338159 24.837971,21.318112 24.84375,21.3125 L 25.21875,19.375 L 25.25,19.375 L 30.875,19.53125 C 30.879227,19.531168 30.902068,19.531518 30.90625,19.53125 C 30.910382,19.530801 30.933424,19.531875 30.9375,19.53125 C 30.94553,19.529655 30.960997,19.502258 30.96875,19.5 C 30.972549,19.498712 30.996284,19.501443 31,19.5 C 31.007068,19.496521 31.02459,19.472786 31.03125,19.46875 C 31.03447,19.466599 31.059395,19.471029 31.0625,19.46875 C 31.068214,19.463704 31.088575,19.442998 31.09375,19.4375 C 31.096195,19.434644 31.091453,19.409208 31.09375,19.40625 C 31.095893,19.403195 31.123016,19.409399 31.125,19.40625 C 31.126819,19.403012 31.123351,19.378322 31.125,19.375 C 31.126293,19.371522 31.123894,19.347299 31.125,19.34375 C 31.126434,19.336392 31.155638,19.320082 31.15625,19.3125 C 31.15634,19.308752 31.156371,19.28495 31.15625,19.28125 C 31.155922,19.277602 31.12553,19.253591 31.125,19.25 C 31.124081,19.246537 31.126107,19.222142 31.125,19.21875 C 31.121717,19.212448 31.097699,19.193435 31.09375,19.1875 C 31.091616,19.184632 31.096039,19.159015 31.09375,19.15625 C 31.088582,19.151162 31.068221,19.129609 31.0625,19.125 C 31.059382,19.122954 31.034489,19.12691 31.03125,19.125 C 31.024537,19.12146 31.007152,19.096699 31,19.09375 C 30.996223,19.092589 30.97262,19.094747 30.96875,19.09375 C 30.964791,19.092922 30.941543,19.094405 30.9375,19.09375 C 30.933304,19.093455 30.910516,19.093858 30.90625,19.09375 L 25.3125,18.9375 L 25.75,16.84375 L 34.65625,17.09375 C 34.6685,17.09411 34.702749,17.093997 34.71875,17.09375 C 34.72955,17.094062 34.770562,17.093772 34.78125,17.09375 C 34.803918,17.088295 34.85367,17.070703 34.875,17.0625 C 34.888882,17.056453 34.924359,17.038401 34.9375,17.03125 C 34.942557,17.027871 34.96382,17.003623 34.96875,17 C 34.997516,16.976901 35.039643,16.935421 35.0625,16.90625 C 35.069733,16.896305 35.087339,16.885286 35.09375,16.875 C 35.096738,16.869796 35.122238,16.848998 35.125,16.84375 C 35.127528,16.838475 35.122715,16.817786 35.125,16.8125 C 35.130778,16.801696 35.150835,16.760937 35.15625,16.75 C 35.156326,16.739229 35.156568,16.698379 35.15625,16.6875 C 35.156495,16.676732 35.156506,16.641179 35.15625,16.625 C 35.156611,16.614066 35.156262,16.573313 35.15625,16.5625 C 35.150578,16.557025 35.130759,16.536689 35.125,16.53125 C 35.120773,16.521935 35.102195,16.48507 35.09375,16.46875 C 35.063452,16.423152 35.016534,16.37531 34.96875,16.34375 C 34.963313,16.338079 34.942993,16.318104 34.9375,16.3125 C 34.927535,16.30779 34.891446,16.289287 34.875,16.28125 C 34.871543,16.280886 34.847746,16.281258 34.84375,16.28125 C 34.830383,16.282246 34.79205,16.281527 34.78125,16.28125 C 34.770604,16.281147 34.729534,16.280999 34.71875,16.28125 L 25.90625,16 L 25.9375,15.84375 C 25.937489,15.840949 25.937593,15.815887 25.9375,15.8125 C 25.937727,15.810444 25.937589,15.788039 25.9375,15.78125 C 25.937389,15.777261 25.937793,15.753937 25.9375,15.75 C 25.937178,15.748092 25.937318,15.725617 25.9375,15.71875 C 25.937544,15.715929 25.937367,15.690952 25.9375,15.6875 C 25.931918,15.682004 25.911983,15.661645 25.90625,15.65625 C 25.906325,15.653404 25.905984,15.62854 25.90625,15.625 C 25.902643,15.625335 25.877863,15.624908 25.875,15.625 C 25.875091,15.622137 25.874668,15.597356 25.875,15.59375 C 25.871456,15.594013 25.846597,15.593675 25.84375,15.59375 C 25.843855,15.590866 25.843359,15.566183 25.84375,15.5625 C 25.840261,15.56268 25.815332,15.562444 25.8125,15.5625 C 25.809049,15.562611 25.784072,15.56246 25.78125,15.5625 C 25.779362,15.562205 25.756869,15.562379 25.75,15.5625 C 25.74626,15.562541 25.722468,15.562257 25.71875,15.5625 C 25.716922,15.562817 25.694403,15.562682 25.6875,15.5625 C 25.684676,15.562449 25.65972,15.56266 25.65625,15.5625 C 25.653511,15.565282 25.628072,15.559019 25.625,15.5625 z "
         transform="matrix(7.820034,5.872001,-5.579599,8.229867,528.6594,104.0825)"
         id="rect8337" />
      <rect
         transform="matrix(0.783338,0.621597,-0.742726,0.669596,0,0)"
         ry="7.5921502"
         y="-82.777817"
         x="763.41229"
         height="13.676811"
         width="35.153191"
         id="rect8343"
         style="opacity:1;fill:url(#linearGradient1983);fill-opacity:1;fill-rule:nonzero;stroke:none;stroke-width:18;stroke-linecap:round;stroke-linejoin:round;stroke-miterlimit:4;stroke-dasharray:none;stroke-dashoffset:0;stroke-opacity:1"
         rx="7.5857739" />
      <path
         id="path8345"
         d="M 732.69552,441.52775 L 706.85473,478.65115 C 725.58133,505.24664 754.86514,553.09839 754.86514,553.09839 L 760.34235,554.55102 L 808.14277,506.68152 L 804.15669,495.34533 L 732.69552,441.52775 z "
         style="fill:url(#linearGradient1985);fill-opacity:1;fill-rule:evenodd;stroke:none;stroke-width:1pt;stroke-linecap:butt;stroke-linejoin:miter;stroke-opacity:1"
         sodipodi:nodetypes="ccccccc" />
    </g>
    <rect
       style="opacity:0.77876108;color:#000000;fill:#eaeaea;fill-opacity:1;fill-rule:nonzero;stroke:none;stroke-width:9.79868031;stroke-linecap:butt;stroke-linejoin:miter;marker:none;marker-start:none;marker-mid:none;marker-end:none;stroke-miterlimit:4;stroke-dasharray:none;stroke-dashoffset:0;stroke-opacity:1;visibility:visible;display:inline;overflow:visible"
       id="rect7013"
       width="18.74749"
       height="1.0220826"
       x="-42.005741"
       y="40.769417"
       rx="1.0940777"
       ry="1.5212901"
       transform="matrix(0.928228,0.372011,-0.372011,0.928228,0,0)" />
    <rect
       style="opacity:0.77876108;color:#000000;fill:#eaeaea;fill-opacity:1;fill-rule:nonzero;stroke:none;stroke-width:9.79868031;stroke-linecap:butt;stroke-linejoin:miter;marker:none;marker-start:none;marker-mid:none;marker-end:none;stroke-miterlimit:4;stroke-dasharray:none;stroke-dashoffset:0;stroke-opacity:1;visibility:visible;display:inline;overflow:visible"
       id="rect7023"
       width="33.92944"
       height="0.38624361"
       x="-42.078285"
       y="46.962463"
       rx="1.0940777"
       ry="1.5212901"
       transform="matrix(0.928228,0.372011,-0.372011,0.928228,0,0)" />
    <path
       style="color:#000000;fill:url(#linearGradient3179);fill-opacity:1;fill-rule:evenodd;stroke:#000000;stroke-width:0.58020467;stroke-linecap:round;stroke-linejoin:round;marker:none;marker-start:none;marker-mid:none;marker-end:none;stroke-miterlimit:4;stroke-dasharray:none;stroke-dashoffset:0;stroke-opacity:1;visibility:visible;display:inline;overflow:visible"
       d="M 7.7838938,28.415372 C 7.8525518,28.43177 7.8905188,28.525585 7.8691618,28.627392 L 7.3441868,31.129876 C 7.3225758,31.23289 7.2486548,31.303969 7.1784498,31.289241 L 4.4922748,30.725731 C 4.4914678,30.725562 4.4906748,30.725419 4.4898768,30.725228 C 4.4898598,30.725224 4.4898398,30.725221 4.4898218,30.725217 C 4.4412068,30.71932 4.3944978,30.690295 4.3645758,30.641916 L 3.0238518,29.185826 C 2.9720748,29.102108 3.0454858,28.732569 3.1205608,28.680838 L 4.9550008,27.871425 C 4.9923998,27.845655 5.0365098,27.839101 5.0777638,27.849373 L 7.7814428,28.414857 C 7.7822648,28.41503 7.7830828,28.415177 7.7838938,28.415372 z "
       id="path3176"
       sodipodi:nodetypes="cccccscccccccc" />
    <path
       sodipodi:nodetypes="cccccscccccccc"
       id="path3160"
       d="M 13.844809,29.804331 C 13.913467,29.820729 13.951434,29.914544 13.930077,30.016351 L 13.405102,32.518835 C 13.383491,32.621849 13.30957,32.692928 13.239365,32.6782 L 10.55319,32.11469 C 10.552383,32.114521 10.55159,32.114378 10.550792,32.114187 C 10.550775,32.114183 10.550755,32.11418 10.550737,32.114176 C 10.502122,32.108279 10.455413,32.079254 10.425491,32.030875 L 9.0847671,30.574785 C 9.0329901,30.491067 9.1064011,30.121528 9.1814761,30.069797 L 11.015916,29.260384 C 11.053315,29.234614 11.097425,29.22806 11.138679,29.238332 L 13.842358,29.803816 C 13.84318,29.803989 13.843998,29.804136 13.844809,29.804331 z "
       style="color:#000000;fill:url(#linearGradient3162);fill-opacity:1;fill-rule:evenodd;stroke:#000000;stroke-width:0.58020467;stroke-linecap:round;stroke-linejoin:round;marker:none;marker-start:none;marker-mid:none;marker-end:none;stroke-miterlimit:4;stroke-dasharray:none;stroke-dashoffset:0;stroke-opacity:1;visibility:visible;display:inline;overflow:visible" />
    <path
       sodipodi:nodetypes="cccccscccccccc"
       id="path3181"
       d="M 6.9024738,24.058459 C 6.9711308,24.074858 7.0090978,24.168672 6.9877408,24.270479 L 6.4627658,26.772963 C 6.4411548,26.875977 6.3672338,26.947056 6.2970288,26.932328 L 3.6108538,26.368819 C 3.6100458,26.368649 3.6092548,26.368505 3.6084558,26.368316 C 3.6084388,26.36831 3.6084188,26.368308 3.6084008,26.368304 C 3.5597868,26.362407 3.5130768,26.333382 3.4831548,26.285003 L 2.1424308,24.828913 C 2.0906538,24.745195 2.1640658,24.375656 2.2391408,24.323925 L 4.0735798,23.514512 C 4.1109798,23.488743 4.1550888,23.482188 4.1963428,23.49246 L 6.9000218,24.057944 C 6.9008438,24.058117 6.9016618,24.058264 6.9024738,24.058459 z "
       style="color:#000000;fill:url(#linearGradient3183);fill-opacity:1;fill-rule:evenodd;stroke:#000000;stroke-width:0.58020467;stroke-linecap:round;stroke-linejoin:round;marker:none;marker-start:none;marker-mid:none;marker-end:none;stroke-miterlimit:4;stroke-dasharray:none;stroke-dashoffset:0;stroke-opacity:1;visibility:visible;display:inline;overflow:visible" />
    <path
       style="color:#000000;fill:url(#linearGradient3166);fill-opacity:1;fill-rule:evenodd;stroke:#000000;stroke-width:0.58020467;stroke-linecap:round;stroke-linejoin:round;marker:none;marker-start:none;marker-mid:none;marker-end:none;stroke-miterlimit:4;stroke-dasharray:none;stroke-dashoffset:0;stroke-opacity:1;visibility:visible;display:inline;overflow:visible"
       d="M 12.963389,25.447418 C 13.032046,25.463817 13.070013,25.557631 13.048656,25.659438 L 12.523681,28.161922 C 12.50207,28.264936 12.428149,28.336015 12.357944,28.321287 L 9.6717691,27.757778 C 9.6709611,27.757608 9.6701701,27.757464 9.6693711,27.757275 C 9.6693541,27.757269 9.6693341,27.757267 9.6693161,27.757263 C 9.6207021,27.751366 9.5739921,27.722341 9.5440701,27.673962 L 8.2033461,26.217872 C 8.1515691,26.134154 8.2249811,25.764615 8.3000561,25.712884 L 10.134495,24.903471 C 10.171895,24.877702 10.216004,24.871147 10.257258,24.881419 L 12.960937,25.446903 C 12.961759,25.447076 12.962577,25.447223 12.963389,25.447418 z "
       id="path3164"
       sodipodi:nodetypes="cccccscccccccc" />
    <path
       style="color:#000000;fill:url(#linearGradient3187);fill-opacity:1;fill-rule:evenodd;stroke:#000000;stroke-width:0.58020467;stroke-linecap:round;stroke-linejoin:round;marker:none;marker-start:none;marker-mid:none;marker-end:none;stroke-miterlimit:4;stroke-dasharray:none;stroke-dashoffset:0;stroke-opacity:1;visibility:visible;display:inline;overflow:visible"
       d="M 8.531281,32.734492 C 8.599938,32.750891 8.637905,32.844705 8.616548,32.946512 L 8.091573,35.448996 C 8.069962,35.55201 7.996041,35.623089 7.925836,35.608361 L 5.239661,35.044852 C 5.238853,35.044682 5.238062,35.044538 5.237263,35.044349 C 5.237246,35.044343 5.237226,35.044341 5.237208,35.044337 C 5.188594,35.03844 5.141884,35.009415 5.111962,34.961036 L 3.771238,33.504946 C 3.719461,33.421228 3.792873,33.051689 3.867948,32.999958 L 5.702387,32.190545 C 5.739787,32.164776 5.783896,32.158221 5.82515,32.168493 L 8.528829,32.733977 C 8.529651,32.73415 8.530469,32.734297 8.531281,32.734492 z "
       id="path3185"
       sodipodi:nodetypes="cccccscccccccc" />
    <path
       sodipodi:nodetypes="cccccscccccccc"
       id="path1408"
       d="M 14.592196,34.123451 C 14.660853,34.13985 14.69882,34.233664 14.677463,34.335471 L 14.152488,36.837955 C 14.130877,36.940969 14.056956,37.012048 13.986751,36.99732 L 11.300576,36.433811 C 11.299768,36.433641 11.298977,36.433497 11.298178,36.433308 C 11.298161,36.433302 11.298141,36.4333 11.298123,36.433296 C 11.249509,36.427399 11.202799,36.398374 11.172877,36.349995 L 9.8321533,34.893905 C 9.7803763,34.810187 9.8537883,34.440648 9.9288633,34.388917 L 11.763302,33.579504 C 11.800702,33.553735 11.844811,33.54718 11.886065,33.557452 L 14.589744,34.122936 C 14.590566,34.123109 14.591384,34.123256 14.592196,34.123451 z "
       style="color:#000000;fill:url(#linearGradient3129);fill-opacity:1;fill-rule:evenodd;stroke:#000000;stroke-width:0.58020467;stroke-linecap:round;stroke-linejoin:round;marker:none;marker-start:none;marker-mid:none;marker-end:none;stroke-miterlimit:4;stroke-dasharray:none;stroke-dashoffset:0;stroke-opacity:1;visibility:visible;display:inline;overflow:visible" />
  </g>
</svg>
