<?xml version="1.0" encoding="UTF-8" standalone="no"?>
<!-- Created with Inkscape (http://www.inkscape.org/) -->
<svg
   xmlns:dc="http://purl.org/dc/elements/1.1/"
   xmlns:cc="http://web.resource.org/cc/"
   xmlns:rdf="http://www.w3.org/1999/02/22-rdf-syntax-ns#"
   xmlns:svg="http://www.w3.org/2000/svg"
   xmlns="http://www.w3.org/2000/svg"
   xmlns:xlink="http://www.w3.org/1999/xlink"
   xmlns:sodipodi="http://sodipodi.sourceforge.net/DTD/sodipodi-0.dtd"
   xmlns:inkscape="http://www.inkscape.org/namespaces/inkscape"
   width="1024"
   height="768"
   id="svg6169"
   sodipodi:version="0.32"
   inkscape:version="0.44"
   version="1.0"
   sodipodi:docbase="/home/yekcim/Desktop"
   sodipodi:docname="background menu.svg"
   inkscape:export-filename="C:\Documents and Settings\user\Bureau\entete.png"
   inkscape:export-xdpi="56.25"
   inkscape:export-ydpi="56.25">
  <defs
     id="defs6171">
    <linearGradient
       id="linearGradient9786">
      <stop
         style="stop-color:#78be41;stop-opacity:1;"
         offset="0"
         id="stop9788" />
      <stop
         id="stop9794"
         offset="0.40845069"
         style="stop-color:#72cc4b;stop-opacity:0.49803922;" />
      <stop
         style="stop-color:#8bdd67;stop-opacity:0;"
         offset="1"
         id="stop9790" />
    </linearGradient>
    <linearGradient
       id="linearGradient2361">
      <stop
         id="stop2363"
         offset="0"
         style="stop-color:#ffffff;stop-opacity:1;" />
      <stop
         id="stop2365"
         offset="1"
         style="stop-color:#ffffff;stop-opacity:0;" />
    </linearGradient>
    <linearGradient
       id="linearGradient8033">
      <stop
         style="stop-color:#f036a6;stop-opacity:1;"
         offset="0"
         id="stop8035" />
      <stop
         id="stop8041"
         offset="0.49765259"
         style="stop-color:#f5e835;stop-opacity:1;" />
      <stop
         style="stop-color:#74d5f4;stop-opacity:1;"
         offset="1"
         id="stop8037" />
    </linearGradient>
    <linearGradient
       id="linearGradient8001">
      <stop
         id="stop8003"
         offset="0"
         style="stop-color:#f0fdff;stop-opacity:1;" />
      <stop
         id="stop8005"
         offset="1"
         style="stop-color:#abe2fa;stop-opacity:1;" />
    </linearGradient>
    <linearGradient
       id="linearGradient7973">
      <stop
         style="stop-color:#a2e5f3;stop-opacity:1;"
         offset="0"
         id="stop7975" />
      <stop
         style="stop-color:#0a73a2;stop-opacity:1;"
         offset="1"
         id="stop7977" />
    </linearGradient>
    <linearGradient
       id="linearGradient7062">
      <stop
         style="stop-color:#579f37;stop-opacity:1;"
         offset="0"
         id="stop7064" />
      <stop
         style="stop-color:#486e37;stop-opacity:1;"
         offset="1"
         id="stop7066" />
    </linearGradient>
    <linearGradient
       inkscape:collect="always"
       xlink:href="#linearGradient7973"
       id="linearGradient2016"
       gradientUnits="userSpaceOnUse"
       gradientTransform="matrix(0.641185,0,0,0.552465,162.7575,156.1478)"
       x1="358.65491"
       y1="-68.868164"
       x2="358.55341"
       y2="481.11505" />
    <linearGradient
       inkscape:collect="always"
       xlink:href="#linearGradient8001"
       id="linearGradient2018"
       gradientUnits="userSpaceOnUse"
       gradientTransform="matrix(0.642623,0,0,0.552465,162.8012,155.9597)"
       x1="267.62784"
       y1="5.8831244"
       x2="398.9595"
       y2="258.8815" />
    <linearGradient
       inkscape:collect="always"
       xlink:href="#linearGradient8001"
       id="linearGradient2020"
       gradientUnits="userSpaceOnUse"
       gradientTransform="matrix(0.642623,0,0,0.552465,161.9007,155.4282)"
       x1="701.79871"
       y1="66.615265"
       x2="796.75305"
       y2="238.67844" />
    <linearGradient
       inkscape:collect="always"
       xlink:href="#linearGradient8001"
       id="linearGradient2022"
       gradientUnits="userSpaceOnUse"
       gradientTransform="matrix(0.642623,0,0,0.552465,162.9211,155.872)"
       x1="-49.497425"
       y1="153.82561"
       x2="3.0305052"
       y2="238.67842" />
    <linearGradient
       inkscape:collect="always"
       xlink:href="#linearGradient7062"
       id="linearGradient2024"
       gradientUnits="userSpaceOnUse"
       gradientTransform="matrix(1.055335,0,0,1,808.4517,172.4243)"
       x1="362.34192"
       y1="-47.579762"
       x2="589.11285"
       y2="261.58911" />
    <linearGradient
       inkscape:collect="always"
       xlink:href="#linearGradient2361"
       id="linearGradient2026"
       gradientUnits="userSpaceOnUse"
       gradientTransform="matrix(0.982712,0,0,1,751.6163,-104.6293)"
       x1="525.55463"
       y1="149.27724"
       x2="535.29755"
       y2="462.04318" />
    <linearGradient
       inkscape:collect="always"
       xlink:href="#linearGradient7062"
       id="linearGradient2028"
       gradientUnits="userSpaceOnUse"
       gradientTransform="matrix(1.055335,0,0,1,808.4517,172.4243)"
       x1="434.11014"
       y1="73.700729"
       x2="589.11285"
       y2="261.58911" />
    <linearGradient
       inkscape:collect="always"
       xlink:href="#linearGradient2361"
       id="linearGradient2030"
       gradientUnits="userSpaceOnUse"
       gradientTransform="matrix(0.982712,0,0,1,751.6163,-108.8517)"
       x1="525.55463"
       y1="149.27724"
       x2="535.29755"
       y2="462.04318" />
    <linearGradient
       inkscape:collect="always"
       xlink:href="#linearGradient7062"
       id="linearGradient2032"
       gradientUnits="userSpaceOnUse"
       gradientTransform="matrix(1.055335,0,0,1,808.4517,172.4243)"
       x1="643.42462"
       y1="4.1525989"
       x2="589.11285"
       y2="261.58911" />
    <linearGradient
       inkscape:collect="always"
       xlink:href="#linearGradient2361"
       id="linearGradient2034"
       gradientUnits="userSpaceOnUse"
       gradientTransform="matrix(0.982712,0,0,1,751.6163,-108.8517)"
       x1="525.55463"
       y1="149.27724"
       x2="535.29755"
       y2="462.04318" />
    <linearGradient
       inkscape:collect="always"
       xlink:href="#linearGradient7062"
       id="linearGradient2036"
       gradientUnits="userSpaceOnUse"
       gradientTransform="matrix(1.055335,0,0,1,808.4517,172.4243)"
       x1="434.11014"
       y1="73.700729"
       x2="589.11285"
       y2="261.58911" />
    <linearGradient
       inkscape:collect="always"
       xlink:href="#linearGradient2361"
       id="linearGradient2038"
       gradientUnits="userSpaceOnUse"
       gradientTransform="matrix(0.982712,0,0,1,751.6163,-108.8517)"
       x1="525.55463"
       y1="149.27724"
       x2="535.29755"
       y2="462.04318" />
    <linearGradient
       inkscape:collect="always"
       xlink:href="#linearGradient9786"
       id="linearGradient2145"
       gradientUnits="userSpaceOnUse"
       gradientTransform="matrix(-0.8866,0,0,0.499736,671.879,402.8969)"
       x1="119.77616"
       y1="690.16528"
       x2="119.77616"
       y2="720.49164" />
    <linearGradient
       inkscape:collect="always"
       xlink:href="#linearGradient9786"
       id="linearGradient2149"
       gradientUnits="userSpaceOnUse"
       gradientTransform="matrix(-0.76921,2.500223e-2,0.118137,0.475674,114.9302,411.1343)"
       x1="119.77616"
       y1="690.16528"
       x2="119.77616"
       y2="720.49164" />
    <linearGradient
       inkscape:collect="always"
       xlink:href="#linearGradient9786"
       id="linearGradient2153"
       gradientUnits="userSpaceOnUse"
       gradientTransform="matrix(-0.819264,0,0,0.638861,1077.37,260.9481)"
       x1="119.77616"
       y1="690.16528"
       x2="119.77616"
       y2="720.49164" />
    <linearGradient
       inkscape:collect="always"
       xlink:href="#linearGradient9786"
       id="linearGradient2156"
       gradientUnits="userSpaceOnUse"
       gradientTransform="matrix(0.608886,0.131885,-9.351406e-2,0.459259,190.7606,314.3972)"
       x1="119.77616"
       y1="690.16528"
       x2="119.77616"
       y2="720.49164" />
    <linearGradient
       inkscape:collect="always"
       xlink:href="#linearGradient9786"
       id="linearGradient2159"
       gradientUnits="userSpaceOnUse"
       gradientTransform="matrix(0.369468,8.00268e-2,-5.67438e-2,0.278676,107.0821,315.0191)"
       x1="119.77616"
       y1="690.16528"
       x2="119.77616"
       y2="720.49164" />
    <linearGradient
       inkscape:collect="always"
       xlink:href="#linearGradient9786"
       id="linearGradient2162"
       gradientUnits="userSpaceOnUse"
       gradientTransform="matrix(0.472338,0,0,0.404566,598.6461,283.4387)"
       x1="119.77616"
       y1="690.16528"
       x2="119.77616"
       y2="720.49164" />
    <linearGradient
       inkscape:collect="always"
       xlink:href="#linearGradient9786"
       id="linearGradient2165"
       gradientUnits="userSpaceOnUse"
       gradientTransform="matrix(0.619519,0.420381,-0.351137,0.582884,659.8313,126.5047)"
       x1="111.30692"
       y1="697.73767"
       x2="118.99935"
       y2="712.19342" />
    <linearGradient
       inkscape:collect="always"
       xlink:href="#linearGradient9786"
       id="linearGradient2168"
       gradientUnits="userSpaceOnUse"
       gradientTransform="matrix(-0.696764,0,0,0.691836,550.2145,98.43471)"
       x1="119.77616"
       y1="690.16528"
       x2="119.77616"
       y2="720.49164" />
    <linearGradient
       inkscape:collect="always"
       xlink:href="#linearGradient9786"
       id="linearGradient2171"
       gradientUnits="userSpaceOnUse"
       gradientTransform="matrix(0.819264,0,0,0.347407,776.5068,325.2966)"
       x1="119.77616"
       y1="690.16528"
       x2="119.77616"
       y2="720.49164" />
    <linearGradient
       y2="-81.168976"
       x2="370.62616"
       y1="230.28267"
       x1="370.62616"
       gradientTransform="matrix(1.062222,0,0,1.082294,32.57007,118.5506)"
       gradientUnits="userSpaceOnUse"
       id="linearGradient5697"
       xlink:href="#linearGradient2367"
       inkscape:collect="always" />
    <linearGradient
       id="linearGradient5490">
      <stop
         style="stop-color:#ef9e07;stop-opacity:1;"
         offset="0"
         id="stop5492" />
      <stop
         style="stop-color:#f09c0b;stop-opacity:0;"
         offset="1"
         id="stop5494" />
    </linearGradient>
    <linearGradient
       id="linearGradient2367">
      <stop
         style="stop-color:#e22b00;stop-opacity:1;"
         offset="0"
         id="stop2369" />
      <stop
         id="stop2371"
         offset="0.30136025"
         style="stop-color:#f5e835;stop-opacity:1;" />
      <stop
         style="stop-color:#456194;stop-opacity:1;"
         offset="0.65068012"
         id="stop4596" />
      <stop
         style="stop-color:#333b55;stop-opacity:1;"
         offset="1"
         id="stop2374" />
    </linearGradient>
    <linearGradient
       inkscape:collect="always"
       xlink:href="#linearGradient8033"
       id="linearGradient2064"
       gradientUnits="userSpaceOnUse"
       gradientTransform="matrix(0.750894,0,0,0.783368,256.3794,123.6157)"
       x1="363.01443"
       y1="421.15192"
       x2="363.01443"
       y2="-8.5139465" />
    <linearGradient
       inkscape:collect="always"
       xlink:href="#linearGradient5490"
       id="linearGradient2133"
       gradientUnits="userSpaceOnUse"
       gradientTransform="matrix(-0.244833,-0.241038,-0.372793,0.2901,530.7457,235.3083)"
       x1="896.48682"
       y1="-41.356544"
       x2="858.61145"
       y2="218.68216" />
    <linearGradient
       inkscape:collect="always"
       xlink:href="#linearGradient5490"
       id="linearGradient2136"
       gradientUnits="userSpaceOnUse"
       gradientTransform="matrix(-0.856604,0,0,0.887782,402.6617,-116.401)"
       x1="201.77663"
       y1="257.55566"
       x2="114.20564"
       y2="123.57912" />
    <linearGradient
       inkscape:collect="always"
       xlink:href="#linearGradient5490"
       id="linearGradient2146"
       gradientUnits="userSpaceOnUse"
       gradientTransform="matrix(-0.471654,0,0,0.483056,760.8496,48.8784)"
       x1="815.27618"
       y1="172.49681"
       x2="886.65778"
       y2="62.40596" />
    <linearGradient
       inkscape:collect="always"
       xlink:href="#linearGradient5490"
       id="linearGradient2150"
       gradientUnits="userSpaceOnUse"
       gradientTransform="matrix(-0.807604,0,0,0.620075,1046.481,43.53354)"
       x1="823.85907"
       y1="191.50381"
       x2="913.3418"
       y2="26.42345" />
    <linearGradient
       inkscape:collect="always"
       xlink:href="#linearGradient5490"
       id="linearGradient2160"
       gradientUnits="userSpaceOnUse"
       gradientTransform="matrix(0.501506,0,0,0.678902,250.5839,70.9742)"
       x1="815.27618"
       y1="172.49681"
       x2="886.65778"
       y2="62.40596" />
    <linearGradient
       inkscape:collect="always"
       xlink:href="#linearGradient5490"
       id="linearGradient2163"
       gradientUnits="userSpaceOnUse"
       gradientTransform="matrix(0.876124,0,0,0.859048,-67.70984,64.22781)"
       x1="823.85907"
       y1="191.50381"
       x2="913.3418"
       y2="26.42345" />
    <linearGradient
       inkscape:collect="always"
       xlink:href="#linearGradient5490"
       id="linearGradient2172"
       gradientUnits="userSpaceOnUse"
       gradientTransform="matrix(0.293041,-0.288499,0.446197,0.347222,774.1709,406.0318)"
       x1="896.48682"
       y1="-41.356544"
       x2="858.61145"
       y2="218.68216" />
    <linearGradient
       inkscape:collect="always"
       xlink:href="#linearGradient5490"
       id="linearGradient2175"
       gradientUnits="userSpaceOnUse"
       gradientTransform="matrix(1.012853,0,0,1,928.3561,-3.18121)"
       x1="201.77663"
       y1="257.55566"
       x2="114.20564"
       y2="123.57912" />
    <linearGradient
       inkscape:collect="always"
       xlink:href="#linearGradient5490"
       id="linearGradient2183"
       gradientUnits="userSpaceOnUse"
       gradientTransform="matrix(0.293041,-0.288499,0.446197,0.347222,-249.8291,406.0318)"
       x1="896.48682"
       y1="-41.356544"
       x2="858.61145"
       y2="218.68216" />
    <linearGradient
       inkscape:collect="always"
       xlink:href="#linearGradient5490"
       id="linearGradient2186"
       gradientUnits="userSpaceOnUse"
       gradientTransform="matrix(1.043982,0,0,1,-99.93382,-1.18121)"
       x1="201.77663"
       y1="257.55566"
       x2="114.20564"
       y2="123.57912" />
    <linearGradient
       inkscape:collect="always"
       xlink:href="#linearGradient5490"
       id="linearGradient2211"
       gradientUnits="userSpaceOnUse"
       gradientTransform="matrix(1.043982,0,0,1,-99.93382,-1.18121)"
       x1="201.77663"
       y1="257.55566"
       x2="114.20564"
       y2="123.57912" />
    <linearGradient
       inkscape:collect="always"
       xlink:href="#linearGradient5490"
       id="linearGradient2213"
       gradientUnits="userSpaceOnUse"
       gradientTransform="matrix(0.293041,-0.288499,0.446197,0.347222,-249.8291,406.0318)"
       x1="896.48682"
       y1="-41.356544"
       x2="858.61145"
       y2="218.68216" />
    <linearGradient
       inkscape:collect="always"
       xlink:href="#linearGradient5490"
       id="linearGradient2220"
       gradientUnits="userSpaceOnUse"
       gradientTransform="matrix(1.043982,0,0,1,-99.93382,-1.18121)"
       x1="201.77663"
       y1="257.55566"
       x2="114.20564"
       y2="123.57912" />
    <linearGradient
       inkscape:collect="always"
       xlink:href="#linearGradient5490"
       id="linearGradient2222"
       gradientUnits="userSpaceOnUse"
       gradientTransform="matrix(0.293041,-0.288499,0.446197,0.347222,-249.8291,406.0318)"
       x1="896.48682"
       y1="-41.356544"
       x2="858.61145"
       y2="218.68216" />
    <linearGradient
       inkscape:collect="always"
       xlink:href="#linearGradient5490"
       id="linearGradient2224"
       gradientUnits="userSpaceOnUse"
       gradientTransform="matrix(1.012853,0,0,1,928.3561,-3.18121)"
       x1="201.77663"
       y1="257.55566"
       x2="114.20564"
       y2="123.57912" />
    <linearGradient
       inkscape:collect="always"
       xlink:href="#linearGradient5490"
       id="linearGradient2226"
       gradientUnits="userSpaceOnUse"
       gradientTransform="matrix(0.293041,-0.288499,0.446197,0.347222,774.1709,406.0318)"
       x1="896.48682"
       y1="-41.356544"
       x2="858.61145"
       y2="218.68216" />
    <linearGradient
       inkscape:collect="always"
       xlink:href="#linearGradient5490"
       id="linearGradient2236"
       gradientUnits="userSpaceOnUse"
       gradientTransform="matrix(1.043982,0,0,1,-99.93382,-1.18121)"
       x1="201.77663"
       y1="257.55566"
       x2="114.20564"
       y2="123.57912" />
    <linearGradient
       inkscape:collect="always"
       xlink:href="#linearGradient5490"
       id="linearGradient2238"
       gradientUnits="userSpaceOnUse"
       gradientTransform="matrix(0.293041,-0.288499,0.446197,0.347222,-249.8291,406.0318)"
       x1="896.48682"
       y1="-41.356544"
       x2="858.61145"
       y2="218.68216" />
  </defs>
  <sodipodi:namedview
     id="base"
     pagecolor="#ffffff"
     bordercolor="#666666"
     borderopacity="1.0"
     inkscape:pageopacity="0.0"
     inkscape:pageshadow="2"
     inkscape:zoom="0.25986174"
     inkscape:cx="571.53246"
     inkscape:cy="456.80287"
     inkscape:document-units="px"
     inkscape:current-layer="layer6"
     showguides="false"
     inkscape:guide-bbox="true"
     inkscape:window-width="1270"
     inkscape:window-height="721"
     inkscape:window-x="0"
     inkscape:window-y="25"
     width="1024px"
     height="768px"
     borderlayer="true"
     inkscape:showpageshadow="false">
    <sodipodi:guide
       orientation="vertical"
       position="-2.0203051"
       id="guide8442" />
    <sodipodi:guide
       orientation="vertical"
       position="1000.051"
       id="guide8444" />
    <sodipodi:guide
       orientation="horizontal"
       position="749.53319"
       id="guide8446" />
    <sodipodi:guide
       orientation="horizontal"
       position="0"
       id="guide8448" />
  </sodipodi:namedview>
  <metadata
     id="metadata6174">
    <rdf:RDF>
      <cc:Work
         rdf:about="">
        <dc:format>image/svg+xml</dc:format>
        <dc:type
           rdf:resource="http://purl.org/dc/dcmitype/StillImage" />
      </cc:Work>
    </rdf:RDF>
  </metadata>
  <g
     inkscape:groupmode="layer"
     id="layer6"
     inkscape:label="fond"
     style="display:inline">
    <rect
       style="fill:url(#linearGradient2064);fill-opacity:1;fill-rule:nonzero;stroke:none;stroke-width:6.25;stroke-linecap:round;stroke-linejoin:round;stroke-miterlimit:4;stroke-dasharray:none;stroke-dashoffset:0;stroke-opacity:1;display:inline"
       id="rect8031"
       width="1024"
       height="634.63873"
       x="0"
       y="0"
       inkscape:export-xdpi="90"
       inkscape:export-ydpi="90" />
    <g
       id="g3204"
       transform="scale(1.28,1.28)">
      <path
         sodipodi:nodetypes="csssssssssccccs"
         id="path7971"
         d="M 94.101871,249.7846 C 124.70484,214.45002 138.14511,195.09328 153.68977,216.30012 C 169.23443,237.50696 188.66528,263.17839 208.09611,268.75913 C 227.52695,274.33986 287.11485,175.00263 296.18257,156.02809 C 305.25028,137.05357 315.6134,106.91754 335.04424,128.12436 C 354.47507,149.3312 436.08459,260.9461 455.51543,266.52683 C 474.94626,272.10757 513.80793,221.88088 524.17105,206.25478 C 534.53415,190.6287 551.37422,160.49267 565.62349,179.46721 C 579.87277,198.44175 594.12206,227.46161 610.96211,221.88088 C 627.80216,216.30012 642.05144,185.04795 661.48229,188.3964 C 684.17785,266.5826 768.51995,296.66286 800,296.66286 L 800,481.94358 L 1.62e-06,475.24669 L 1.62e-06,297.77901 C 72.11069,297.77901 30.627446,305.16417 94.101871,249.7846 z "
         style="fill:url(#linearGradient2016);fill-opacity:1;fill-rule:evenodd;stroke:none;stroke-width:6.25;stroke-linecap:butt;stroke-linejoin:miter;stroke-miterlimit:4;stroke-dasharray:none;stroke-opacity:1;display:inline" />
      <path
         sodipodi:nodetypes="cscssssssssscsc"
         inkscape:export-ydpi="90"
         inkscape:export-xdpi="90"
         id="path8007"
         d="M 322.45468,120.67966 C 310.89172,121.09824 301.98436,139.84111 295.16831,154.07201 C 288.115,168.79824 251.92805,233.70068 226.36242,258.62341 C 228.27906,263.83254 232.88488,271.54046 243.29153,270.79491 C 258.87107,269.67877 249.79207,251.82547 252.38866,246.24472 C 254.98526,240.66399 274.45476,238.4308 284.84114,242.8954 C 295.2275,247.36001 277.05341,262.99738 292.63294,264.11353 C 308.21248,265.22969 299.12248,242.90487 310.80714,235.09182 C 322.49178,227.27879 323.78814,248.48657 328.9813,260.7642 C 334.1745,273.04185 379.60797,259.63334 379.60797,248.47185 C 379.60797,237.31036 360.13955,230.61337 377.01739,226.14878 C 393.89524,221.6842 397.7842,244.02111 405.57397,257.41488 C 411.57234,267.72854 431.42875,263.47245 443.20759,256.89694 C 412.98194,228.45525 354.65752,147.63996 338.18887,129.70631 C 333.32028,124.40461 326.30899,120.54014 322.45468,120.67966 z "
         style="fill:url(#linearGradient2018);fill-opacity:1;fill-rule:evenodd;stroke:none;stroke-width:6.25;stroke-linecap:butt;stroke-linejoin:miter;stroke-miterlimit:4;stroke-dasharray:none;stroke-opacity:1;display:inline" />
      <path
         sodipodi:nodetypes="csccssssssssssssssscsssc"
         id="path7989"
         d="M 555.32566,172.67675 C 543.84191,173.09882 532.07028,193.56748 524.11827,205.53119 C 517.06857,216.13726 497.21826,242.69373 478.87234,256.91049 L 476.08219,263.57461 C 476.08219,263.57461 469.58977,279.19815 498.1523,275.84971 C 526.71478,272.50126 531.91914,244.60778 541.00717,249.07239 C 550.09529,253.53698 539.69783,261.33712 550.08423,265.80173 C 560.47057,270.26633 579.9592,260.23476 578.66091,252.42171 C 577.36262,244.60867 595.53074,237.89792 599.42567,243.47868 C 603.32056,249.05943 595.53877,263.58064 604.62688,264.69679 C 613.71491,265.81294 624.09231,261.3509 621.49573,252.42171 C 618.89915,243.49251 642.26158,235.66563 646.1564,243.47868 C 650.05133,251.29173 616.29857,272.50213 631.87814,279.19902 C 647.45764,285.89591 678.62699,283.66273 670.83717,275.84971 C 663.04742,268.03666 676.02635,251.29522 681.21959,256.87597 C 686.41269,262.4567 698.10148,274.7353 696.8032,282.54835 C 695.50485,290.36137 714.97129,300.40418 717.56788,294.82343 C 720.16455,289.2427 707.18656,280.31429 711.08144,275.84971 C 714.97631,271.3851 718.86219,290.36314 727.95031,289.247 C 731.307,288.83473 734.35306,281.50061 735.68806,276.53543 C 693.70419,247.74114 678.54453,190.56902 661.74001,187.67965 C 642.26557,184.3312 627.99131,215.57486 611.11338,221.1556 C 594.23553,226.73634 579.94917,197.72839 565.66785,178.75386 C 562.32074,174.30672 558.84106,172.54757 555.32566,172.67675 z "
         style="fill:url(#linearGradient2020);fill-opacity:1;fill-rule:evenodd;stroke:none;stroke-width:6.25;stroke-linecap:butt;stroke-linejoin:miter;stroke-miterlimit:4;stroke-dasharray:none;stroke-opacity:1;display:inline" />
      <path
         sodipodi:nodetypes="cscssssssscssc"
         id="path8016"
         d="M 138.54412,204.81037 C 127.30129,205.11606 114.55862,221.80327 92.406468,246.40216 C 77.101721,263.39731 55.290505,290.18698 32.203188,298.42338 C 32.11478,302.27524 38.835698,307.63656 66.262177,301.74189 C 97.421247,295.04497 90.214293,271.83329 101.89894,275.18173 C 113.5836,278.53017 104.50064,293.03328 121.37847,293.03328 C 138.25631,293.03328 142.13924,269.60616 152.52561,272.95461 C 162.91195,276.30303 152.54375,286.34067 170.71987,287.45682 C 188.89601,288.57297 177.19433,275.18087 182.3875,271.83242 C 187.58069,268.48396 188.89009,275.18777 199.27644,276.30393 C 204.83477,276.90124 207.41169,272.70288 208.41374,268.50036 C 227.78241,284.91884 208.37251,268.48854 208.35349,268.48309 C 188.87907,262.90235 169.41048,237.22294 153.83093,216.01611 C 149.32748,209.88602 143.11539,204.68607 138.54412,204.81037 z "
         style="fill:url(#linearGradient2022);fill-opacity:1;fill-rule:evenodd;stroke:none;stroke-width:6.25;stroke-linecap:butt;stroke-linejoin:miter;stroke-miterlimit:4;stroke-dasharray:none;stroke-opacity:1;display:inline" />
    </g>
    <g
       id="g3247"
       transform="scale(1.28,1.28)">
      <g
         transform="matrix(0.646779,0,0,0.667076,99.36036,18.79966)"
         id="g4378"
         style="display:inline">
        <g
           transform="translate(-3.191489,11.70213)"
           id="g5263">
          <rect
             ry="11.309614"
             rx="12.336574"
             y="456.92337"
             x="711.01825"
             height="75.590881"
             width="25.906805"
             id="rect7090"
             style="opacity:1;fill:#a09865;fill-opacity:1;fill-rule:nonzero;stroke:none;stroke-width:6.25;stroke-linecap:round;stroke-linejoin:round;stroke-miterlimit:4;stroke-dasharray:none;stroke-dashoffset:0;stroke-opacity:1" />
          <rect
             ry="8.0516882"
             rx="12.336574"
             y="418.58755"
             x="710.45081"
             height="75.590881"
             width="25.906805"
             id="rect4388"
             style="opacity:1;fill:#8b8353;fill-opacity:1;fill-rule:nonzero;stroke:none;stroke-width:6.25;stroke-linecap:round;stroke-linejoin:round;stroke-miterlimit:4;stroke-dasharray:none;stroke-dashoffset:0;stroke-opacity:1;display:inline" />
          <g
             transform="matrix(0.473669,0,0,0.473669,76.97133,256.0665)"
             id="g4347"
             style="display:inline">
            <path
               style="opacity:1;fill:url(#linearGradient2024);fill-opacity:1;fill-rule:nonzero;stroke:none;stroke-width:6.25;stroke-linecap:round;stroke-linejoin:round;stroke-miterlimit:4;stroke-dasharray:none;stroke-dashoffset:0;stroke-opacity:1;display:inline"
               d="M 1380.3125,204.25 C 1347.4263,204.67241 1319.1603,224.63296 1306.3125,253.1875 C 1306.1549,253.18655 1306.0016,253.1875 1305.8438,253.1875 C 1274.8212,253.1875 1248.5729,271.5756 1240.0938,296.78125 C 1210.7958,311.04263 1190.8438,339.93324 1190.8438,373.40625 C 1190.8438,412.50814 1218.0799,445.35905 1255.625,455.9375 C 1262.3988,474.07199 1282.561,487.21876 1306.375,487.21875 C 1328.597,487.21875 1347.6728,475.76829 1355.625,459.5 L 1444.875,459.5 C 1495.2202,459.5 1535.75,421.11173 1535.75,373.40625 C 1535.75,347.70545 1523.9743,324.72006 1505.25,308.96875 C 1503.9056,284.29743 1484.4409,264.38445 1459.8125,261.96875 C 1449.0729,228.4862 1417.9968,204.25 1381.375,204.25 C 1381.0194,204.25 1380.667,204.24545 1380.3125,204.25 z "
               id="path4349" />
            <path
               style="opacity:1;color:black;fill:url(#linearGradient2026);fill-opacity:1;fill-rule:nonzero;stroke:none;stroke-width:6.25;stroke-linecap:round;stroke-linejoin:round;marker:none;marker-start:none;marker-mid:none;marker-end:none;stroke-miterlimit:4;stroke-dasharray:none;stroke-dashoffset:0;stroke-opacity:1;visibility:visible;display:inline;overflow:visible"
               d="M 1380.2812,219.34736 C 1352.4495,219.45114 1327.5065,238.93791 1315.7812,263.31611 C 1304.5245,272.17703 1288.5454,266.79319 1277.1056,275.29457 C 1263.5624,282.14515 1255.2134,295.59821 1248.0312,308.34736 C 1225.9564,320.57865 1206.3447,341.56756 1203.8438,367.62861 C 1199.6232,399.27896 1218.9872,431.86625 1248.6667,443.7157 C 1256.1261,446.63818 1264.6072,449.4779 1268.0312,457.44111 C 1275.2023,468.81135 1287.172,477.27651 1300.7188,478.15986 C 1319.1032,480.59971 1338.3859,471.47401 1347.625,455.25361 C 1359.3641,446.26217 1374.855,452.39066 1388.2186,450.38739 C 1418.1152,450.05011 1449.2477,454.27042 1478,444.44111 C 1510.1002,431.06954 1532.0569,393.42201 1522.1875,358.97236 C 1518.057,342.1744 1506.164,329.09141 1495.4688,316.34736 C 1493.2726,299.2252 1482.2634,280.9972 1464,277.94111 C 1456.0731,276.35314 1448.724,271.11755 1446.9375,262.87861 C 1435.9492,236.63599 1408.7783,218.48105 1380.2812,219.34736 z "
               id="path4351" />
          </g>
        </g>
      </g>
      <g
         transform="matrix(0.411377,0,0,0.424286,-104.9154,143.8477)"
         id="g1610"
         style="display:inline">
        <rect
           style="opacity:1;fill:#a09865;fill-opacity:1;fill-rule:nonzero;stroke:none;stroke-width:6.25;stroke-linecap:round;stroke-linejoin:round;stroke-miterlimit:4;stroke-dasharray:none;stroke-dashoffset:0;stroke-opacity:1"
           id="rect7052"
           width="55.192364"
           height="143.44165"
           x="532.71637"
           y="432.12851"
           rx="26.28208"
           ry="21.461184" />
        <rect
           style="opacity:1;fill:#8b8353;fill-opacity:1;fill-rule:nonzero;stroke:none;stroke-width:6.25;stroke-linecap:round;stroke-linejoin:round;stroke-miterlimit:4;stroke-dasharray:none;stroke-dashoffset:0;stroke-opacity:1;display:inline"
           id="rect2400"
           width="56.256195"
           height="110.03798"
           x="531.66766"
           y="401.259"
           rx="26.788664"
           ry="6.6896758" />
        <g
           id="g4339"
           transform="translate(-815.9574,-3.191491)">
          <path
             id="rect4269"
             d="M 1380.3125,204.25 C 1347.4263,204.67241 1319.1603,224.63296 1306.3125,253.1875 C 1306.1549,253.18655 1306.0016,253.1875 1305.8438,253.1875 C 1274.8212,253.1875 1248.5729,271.5756 1240.0938,296.78125 C 1210.7958,311.04263 1190.8438,339.93324 1190.8438,373.40625 C 1190.8438,412.50814 1218.0799,445.35905 1255.625,455.9375 C 1262.3988,474.07199 1282.561,487.21876 1306.375,487.21875 C 1328.597,487.21875 1347.6728,475.76829 1355.625,459.5 L 1444.875,459.5 C 1495.2202,459.5 1535.75,421.11173 1535.75,373.40625 C 1535.75,347.70545 1523.9743,324.72006 1505.25,308.96875 C 1503.9056,284.29743 1484.4409,264.38445 1459.8125,261.96875 C 1449.0729,228.4862 1417.9968,204.25 1381.375,204.25 C 1381.0194,204.25 1380.667,204.24545 1380.3125,204.25 z "
             style="opacity:1;fill:url(#linearGradient2028);fill-opacity:1;fill-rule:nonzero;stroke:none;stroke-width:6.25;stroke-linecap:round;stroke-linejoin:round;stroke-miterlimit:4;stroke-dasharray:none;stroke-dashoffset:0;stroke-opacity:1;display:inline" />
          <path
             id="path4296"
             d="M 1380.2812,215.125 C 1352.4495,215.22878 1327.5065,234.71555 1315.7812,259.09375 C 1304.5245,267.95467 1288.5454,262.57083 1277.1056,271.07221 C 1263.5624,277.92279 1255.2134,291.37585 1248.0312,304.125 C 1225.9564,316.35629 1206.3447,337.3452 1203.8438,363.40625 C 1199.6232,395.0566 1218.9872,427.64389 1248.6667,439.49334 C 1256.1261,442.41582 1264.6072,445.25554 1268.0312,453.21875 C 1275.2023,464.58899 1287.172,473.05415 1300.7188,473.9375 C 1319.1032,476.37735 1338.3859,467.25165 1347.625,451.03125 C 1359.3641,442.03981 1374.855,448.1683 1388.2186,446.16503 C 1418.1152,445.82775 1449.2477,450.04806 1478,440.21875 C 1510.1002,426.84718 1532.0569,389.19965 1522.1875,354.75 C 1518.057,337.95204 1506.164,324.86905 1495.4688,312.125 C 1493.2726,295.00284 1482.2634,276.77484 1464,273.71875 C 1456.0731,272.13078 1448.724,266.89519 1446.9375,258.65625 C 1435.9492,232.41363 1408.7783,214.25869 1380.2812,215.125 z "
             style="opacity:1;color:black;fill:url(#linearGradient2030);fill-opacity:1;fill-rule:nonzero;stroke:none;stroke-width:6.25;stroke-linecap:round;stroke-linejoin:round;marker:none;marker-start:none;marker-mid:none;marker-end:none;stroke-miterlimit:4;stroke-dasharray:none;stroke-dashoffset:0;stroke-opacity:1;visibility:visible;display:inline;overflow:visible" />
        </g>
      </g>
      <g
         transform="matrix(0.646779,0,0,0.667076,104.8649,41.16805)"
         id="g4367"
         style="display:inline">
        <rect
           style="opacity:1;fill:#a09865;fill-opacity:1;fill-rule:nonzero;stroke:none;stroke-width:6.25;stroke-linecap:round;stroke-linejoin:round;stroke-miterlimit:4;stroke-dasharray:none;stroke-dashoffset:0;stroke-opacity:1;display:inline"
           id="rect7084"
           width="19.523827"
           height="75.590881"
           x="897.32306"
           y="480.38159"
           rx="9.29706"
           ry="11.309614" />
        <rect
           style="opacity:1;fill:#8b8353;fill-opacity:1;fill-rule:nonzero;stroke:none;stroke-width:6.25;stroke-linecap:round;stroke-linejoin:round;stroke-miterlimit:4;stroke-dasharray:none;stroke-dashoffset:0;stroke-opacity:1;display:inline"
           id="rect2404"
           width="19.523827"
           height="75.590881"
           x="897.32306"
           y="449.56213"
           rx="9.29706"
           ry="8.0516882" />
        <g
           style="display:inline"
           id="g4357"
           transform="matrix(-0.433436,0,0,0.443593,1505.818,306.6349)">
          <path
             id="path4359"
             d="M 1380.3125,204.25 C 1347.4263,204.67241 1319.1603,224.63296 1306.3125,253.1875 C 1306.1549,253.18655 1306.0016,253.1875 1305.8438,253.1875 C 1274.8212,253.1875 1248.5729,271.5756 1240.0938,296.78125 C 1210.7958,311.04263 1190.8438,339.93324 1190.8438,373.40625 C 1190.8438,412.50814 1218.0799,445.35905 1255.625,455.9375 C 1262.3988,474.07199 1282.561,487.21876 1306.375,487.21875 C 1328.597,487.21875 1347.6728,475.76829 1355.625,459.5 L 1444.875,459.5 C 1495.2202,459.5 1535.75,421.11173 1535.75,373.40625 C 1535.75,347.70545 1523.9743,324.72006 1505.25,308.96875 C 1503.9056,284.29743 1484.4409,264.38445 1459.8125,261.96875 C 1449.0729,228.4862 1417.9968,204.25 1381.375,204.25 C 1381.0194,204.25 1380.667,204.24545 1380.3125,204.25 z "
             style="opacity:1;fill:url(#linearGradient2032);fill-opacity:1;fill-rule:nonzero;stroke:none;stroke-width:6.25;stroke-linecap:round;stroke-linejoin:round;stroke-miterlimit:4;stroke-dasharray:none;stroke-dashoffset:0;stroke-opacity:1;display:inline" />
          <path
             id="path4361"
             d="M 1380.2812,215.125 C 1352.4495,215.22878 1327.5065,234.71555 1315.7812,259.09375 C 1304.5245,267.95467 1288.5454,262.57083 1277.1056,271.07221 C 1263.5624,277.92279 1255.2134,291.37585 1248.0312,304.125 C 1225.9564,316.35629 1206.3447,337.3452 1203.8438,363.40625 C 1199.6232,395.0566 1218.9872,427.64389 1248.6667,439.49334 C 1256.1261,442.41582 1264.6072,445.25554 1268.0312,453.21875 C 1275.2023,464.58899 1287.172,473.05415 1300.7188,473.9375 C 1319.1032,476.37735 1338.3859,467.25165 1347.625,451.03125 C 1359.3641,442.03981 1374.855,448.1683 1388.2186,446.16503 C 1418.1152,445.82775 1449.2477,450.04806 1478,440.21875 C 1510.1002,426.84718 1532.0569,389.19965 1522.1875,354.75 C 1518.057,337.95204 1506.164,324.86905 1495.4688,312.125 C 1493.2726,295.00284 1482.2634,276.77484 1464,273.71875 C 1456.0731,272.13078 1448.724,266.89519 1446.9375,258.65625 C 1435.9492,232.41363 1408.7783,214.25869 1380.2812,215.125 z "
             style="opacity:1;color:black;fill:url(#linearGradient2034);fill-opacity:1;fill-rule:nonzero;stroke:none;stroke-width:6.25;stroke-linecap:round;stroke-linejoin:round;marker:none;marker-start:none;marker-mid:none;marker-end:none;stroke-miterlimit:4;stroke-dasharray:none;stroke-dashoffset:0;stroke-opacity:1;visibility:visible;display:inline;overflow:visible" />
        </g>
      </g>
      <g
         transform="matrix(0.486816,0,0,0.502093,134.2567,130.1581)"
         id="g2299"
         style="display:inline">
        <rect
           style="opacity:1;fill:#a09865;fill-opacity:1;fill-rule:nonzero;stroke:none;stroke-width:6.25;stroke-linecap:round;stroke-linejoin:round;stroke-miterlimit:4;stroke-dasharray:none;stroke-dashoffset:0;stroke-opacity:1"
           id="rect2302"
           width="55.192364"
           height="143.44165"
           x="532.71637"
           y="432.12851"
           rx="22.209299"
           ry="18.135469" />
        <rect
           style="opacity:1;fill:#8b8353;fill-opacity:1;fill-rule:nonzero;stroke:none;stroke-width:6.25;stroke-linecap:round;stroke-linejoin:round;stroke-miterlimit:4;stroke-dasharray:none;stroke-dashoffset:0;stroke-opacity:1;display:inline"
           id="rect2304"
           width="56.256195"
           height="110.03798"
           x="531.66766"
           y="401.259"
           rx="22.637381"
           ry="5.6530156" />
        <g
           id="g2306"
           transform="translate(-815.9574,-3.191491)">
          <path
             id="path2308"
             d="M 1380.3125,204.25 C 1347.4263,204.67241 1319.1603,224.63296 1306.3125,253.1875 C 1306.1549,253.18655 1306.0016,253.1875 1305.8438,253.1875 C 1274.8212,253.1875 1248.5729,271.5756 1240.0938,296.78125 C 1210.7958,311.04263 1190.8438,339.93324 1190.8438,373.40625 C 1190.8438,412.50814 1218.0799,445.35905 1255.625,455.9375 C 1262.3988,474.07199 1282.561,487.21876 1306.375,487.21875 C 1328.597,487.21875 1347.6728,475.76829 1355.625,459.5 L 1444.875,459.5 C 1495.2202,459.5 1535.75,421.11173 1535.75,373.40625 C 1535.75,347.70545 1523.9743,324.72006 1505.25,308.96875 C 1503.9056,284.29743 1484.4409,264.38445 1459.8125,261.96875 C 1449.0729,228.4862 1417.9968,204.25 1381.375,204.25 C 1381.0194,204.25 1380.667,204.24545 1380.3125,204.25 z "
             style="opacity:1;fill:url(#linearGradient2036);fill-opacity:1;fill-rule:nonzero;stroke:none;stroke-width:6.25;stroke-linecap:round;stroke-linejoin:round;stroke-miterlimit:4;stroke-dasharray:none;stroke-dashoffset:0;stroke-opacity:1;display:inline" />
          <path
             id="path2310"
             d="M 1380.2812,215.125 C 1352.4495,215.22878 1327.5065,234.71555 1315.7812,259.09375 C 1304.5245,267.95467 1288.5454,262.57083 1277.1056,271.07221 C 1263.5624,277.92279 1255.2134,291.37585 1248.0312,304.125 C 1225.9564,316.35629 1206.3447,337.3452 1203.8438,363.40625 C 1199.6232,395.0566 1218.9872,427.64389 1248.6667,439.49334 C 1256.1261,442.41582 1264.6072,445.25554 1268.0312,453.21875 C 1275.2023,464.58899 1287.172,473.05415 1300.7188,473.9375 C 1319.1032,476.37735 1338.3859,467.25165 1347.625,451.03125 C 1359.3641,442.03981 1374.855,448.1683 1388.2186,446.16503 C 1418.1152,445.82775 1449.2477,450.04806 1478,440.21875 C 1510.1002,426.84718 1532.0569,389.19965 1522.1875,354.75 C 1518.057,337.95204 1506.164,324.86905 1495.4688,312.125 C 1493.2726,295.00284 1482.2634,276.77484 1464,273.71875 C 1456.0731,272.13078 1448.724,266.89519 1446.9375,258.65625 C 1435.9492,232.41363 1408.7783,214.25869 1380.2812,215.125 z "
             style="opacity:1;color:black;fill:url(#linearGradient2038);fill-opacity:1;fill-rule:nonzero;stroke:none;stroke-width:6.25;stroke-linecap:round;stroke-linejoin:round;marker:none;marker-start:none;marker-mid:none;marker-end:none;stroke-miterlimit:4;stroke-dasharray:none;stroke-dashoffset:0;stroke-opacity:1;visibility:visible;display:inline;overflow:visible" />
        </g>
      </g>
    </g>
    <g
       id="g2175">
      <path
         sodipodi:nodetypes="csccc"
         id="path7096"
         d="M 233.6036,487.97814 C 233.6036,487.97814 195.22035,537.92518 201.91062,557.76328 C 208.60087,577.6014 99.047983,563.80098 99.047983,563.80098 L 190.02849,488.37091 L 233.6036,487.97814 z "
         style="fill:#c6af6d;fill-opacity:1;fill-rule:evenodd;stroke:none;stroke-width:6.25;stroke-linecap:butt;stroke-linejoin:miter;stroke-miterlimit:4;stroke-dasharray:none;stroke-opacity:1;display:inline" />
      <path
         sodipodi:nodetypes="cscscssssscccc"
         id="path5290"
         d="M 1.792e-06,503.716 C 56.1487,503.716 87.538036,471.02244 149.85132,476.33111 C 207.94213,481.28005 235.01343,488.67647 235.01343,488.67647 C 235.01343,488.67647 191.576,498.70282 177.09686,512.0713 C 162.6177,525.43973 157.79132,548.83454 157.79132,548.83454 C 157.79132,548.83454 255.92776,558.86087 286.49486,555.51877 C 317.06194,552.17665 413.58958,503.716 453.80943,503.716 C 494.02927,503.716 537.46673,518.75551 571.25139,518.75551 C 605.03606,518.75551 659.73505,463.61063 707.99887,466.95274 C 756.26271,470.29485 793.26497,520.42659 857.61673,512.0713 C 921.96852,503.716 994.63482,503.716 1024,503.716 L 1024,768 L 1.792e-06,768 L 1.792e-06,503.716 z "
         style="fill:#8bdd67;fill-opacity:1;fill-rule:evenodd;stroke:none;stroke-width:6.25;stroke-linecap:butt;stroke-linejoin:miter;stroke-miterlimit:4;stroke-dasharray:none;stroke-opacity:1;display:inline" />
      <path
         sodipodi:nodetypes="ccccccccccsc"
         id="path8897"
         d="M 852.20012,574.64256 C 852.20012,574.64256 850.29453,565.25776 844.19361,561.19235 C 851.05274,561.6132 861.9195,567.00365 861.9195,569.59073 C 863.63868,566.00921 860.83131,560.13969 854.73041,556.0743 C 862.11852,558.51395 872.3782,560.72076 871.50664,563.30783 C 870.3706,560.62357 881.36458,555.26889 886.59392,554.52973 C 881.1114,557.26741 878.98417,561.59236 880.27636,564.2585 C 882.49432,562.15796 890.65699,558.93908 896.7579,558.93908 C 892.01471,561.79907 888.1204,566.53206 888.1204,568.01039 C 890.76531,566.18011 897.91789,564.49295 905.07667,566.40976 C 897.95314,566.92461 895.67603,573.13379 895.67603,574.61211 C 895.67603,576.09045 853.07168,575.75131 852.20012,574.64256 z "
         style="fill:url(#linearGradient2171);fill-opacity:1;fill-rule:evenodd;stroke:none;stroke-width:1pt;stroke-linecap:butt;stroke-linejoin:miter;stroke-opacity:1;display:inline" />
      <path
         sodipodi:nodetypes="ccccccccccsc"
         id="path9796"
         d="M 485.83913,594.98947 C 485.83913,594.98947 487.45979,576.30023 492.64846,568.20425 C 486.81495,569.04236 477.57302,579.77708 477.57302,584.92907 C 476.11089,577.79669 478.4985,566.10793 483.68717,558.01196 C 477.40376,562.87039 468.67813,567.26509 469.41938,572.41708 C 470.38555,567.07152 461.03543,556.40809 456.58801,554.93608 C 461.25075,560.388 463.05993,569.00086 461.96093,574.31025 C 460.07462,570.12722 453.13247,563.717 447.94377,563.717 C 451.97775,569.4125 455.28975,578.83792 455.28975,581.78191 C 453.04035,578.13704 446.95725,574.77717 440.8688,578.59435 C 446.92724,579.61968 448.86388,591.98485 448.86388,594.92884 C 448.86388,597.87285 485.09788,597.19746 485.83913,594.98947 z "
         style="fill:url(#linearGradient2168);fill-opacity:1;fill-rule:evenodd;stroke:none;stroke-width:1pt;stroke-linecap:butt;stroke-linejoin:miter;stroke-opacity:1;display:inline" />
      <path
         sodipodi:nodetypes="ccccccccccsc"
         id="path9800"
         d="M 465.04712,583.70119 C 465.04712,583.70119 473.0917,566.97736 472.58732,557.02585 C 477.34874,561.25151 480.11773,575.87168 477.50289,580.21233 C 482.42289,575.0853 486.23252,563.79682 485.72813,553.8453 C 488.84909,561.7296 494.37683,570.69667 491.10292,574.59012 C 492.95694,569.50347 506.68261,566.1605 511.38408,567.60361 C 504.47121,569.38377 498.49121,575.54874 496.77363,580.68507 C 500.57389,578.29883 509.99986,577.08653 514.61329,580.21704 C 508.13585,582.58177 500.40721,588.52463 498.91301,591.005 C 502.76298,589.29127 509.87695,590.13067 513.35302,597.02006 C 507.44585,594.22863 499.44806,603.47808 497.95386,605.95846 C 496.45966,608.43881 464.58554,586.00868 465.04712,583.70119 z "
         style="fill:url(#linearGradient2165);fill-opacity:1;fill-rule:evenodd;stroke:none;stroke-width:1pt;stroke-linecap:butt;stroke-linejoin:miter;stroke-opacity:1;display:inline" />
      <path
         sodipodi:nodetypes="ccccccccccsc"
         id="path9804"
         d="M 642.28623,573.80948 C 642.28623,573.80948 641.18758,562.88053 637.67017,558.14627 C 641.6247,558.63636 647.88983,564.91371 647.88983,567.92644 C 648.88101,563.75565 647.26244,556.92041 643.74504,552.18612 C 648.00456,555.02717 653.91968,557.59709 653.41719,560.60982 C 652.76223,557.48388 659.10068,551.24822 662.11561,550.38744 C 658.95473,553.57557 657.72828,558.6121 658.47329,561.71688 C 659.75203,559.27075 664.45814,555.52227 667.97554,555.52227 C 665.2409,558.85279 662.99569,564.36452 662.99569,566.08609 C 664.52058,563.95467 668.64431,561.98993 672.77169,564.22211 C 668.66465,564.82165 667.35178,572.05246 667.35178,573.77401 C 667.35178,575.49556 642.78872,575.10064 642.28623,573.80948 z "
         style="fill:url(#linearGradient2162);fill-opacity:1;fill-rule:evenodd;stroke:none;stroke-width:1pt;stroke-linecap:butt;stroke-linejoin:miter;stroke-opacity:1;display:inline" />
      <path
         sodipodi:nodetypes="ccccccccccsc"
         id="path9808"
         d="M 100.49101,522.42797 C 100.49101,522.42797 101.16451,514.71371 99.077158,510.85666 C 102.10171,511.86427 106.12192,517.24973 105.69935,519.325 C 107.05966,516.61997 106.75229,511.63746 104.66495,507.7804 C 107.59832,510.45908 111.86474,513.23147 111.04914,515.22157 C 110.97524,512.95742 116.80786,509.73602 119.28691,509.65389 C 116.36727,511.31442 114.70152,514.57593 114.84881,516.84081 C 116.19213,515.37248 120.39907,513.58777 123.15041,514.18374 C 120.54422,516.01456 118.01491,519.43078 117.77345,520.61664 C 119.26519,519.40683 122.7664,518.75213 125.68179,520.98901 C 122.38513,520.70616 120.34403,525.4645 120.10255,526.65033 C 119.86109,527.83619 100.70295,523.4025 100.49101,522.42797 z "
         style="fill:url(#linearGradient2159);fill-opacity:1;fill-rule:evenodd;stroke:none;stroke-width:1pt;stroke-linecap:butt;stroke-linejoin:miter;stroke-opacity:1;display:inline" />
      <path
         sodipodi:nodetypes="ccccccccccsc"
         id="path2111"
         d="M 179.89844,656.20765 C 179.89844,656.20765 181.00837,643.49449 177.56841,637.13807 C 182.55288,638.79861 189.17821,647.67389 188.48182,651.09392 C 190.72361,646.63601 190.21708,638.42482 186.77711,632.06836 C 191.61133,636.48283 198.64241,641.05176 197.29829,644.33146 C 197.17651,640.60012 206.7887,635.29123 210.87419,635.1559 C 206.0626,637.89246 203.31743,643.26745 203.56017,646.99998 C 205.77396,644.58017 212.70702,641.63894 217.24125,642.62109 C 212.94623,645.6383 208.77792,651.26824 208.37999,653.22258 C 210.83839,651.22877 216.6084,650.14984 221.41298,653.83622 C 215.98006,653.37008 212.61632,661.21186 212.21837,663.16612 C 211.82044,665.1204 180.24772,657.81369 179.89844,656.20765 z "
         style="fill:url(#linearGradient2156);fill-opacity:1;fill-rule:evenodd;stroke:none;stroke-width:1pt;stroke-linecap:butt;stroke-linejoin:miter;stroke-opacity:1;display:inline" />
      <path
         sodipodi:nodetypes="ccccccccccsc"
         id="path2115"
         d="M 1001.6771,719.47911 C 1001.6771,719.47911 1003.5826,702.22102 1009.6836,694.74502 C 1002.8244,695.51892 991.95767,705.43162 991.95767,710.18909 C 990.23849,703.60291 993.04586,692.80923 999.14676,685.33321 C 991.75866,689.8196 981.49897,693.87778 982.37053,698.63523 C 983.50657,693.69905 972.51259,683.85215 967.28325,682.49287 C 972.76577,687.52729 974.893,695.48062 973.60081,700.38347 C 971.38285,696.5207 963.22019,690.60137 957.11927,690.60137 C 961.86246,695.86073 965.75677,704.56438 965.75677,707.28294 C 963.11186,703.91718 955.95928,700.8146 948.8005,704.3395 C 955.92403,705.28626 958.20114,716.70456 958.20114,719.4231 C 958.20114,722.14165 1000.8055,721.51801 1001.6771,719.47911 z "
         style="fill:url(#linearGradient2153);fill-opacity:1;fill-rule:evenodd;stroke:none;stroke-width:1pt;stroke-linecap:butt;stroke-linejoin:miter;stroke-opacity:1;display:inline" />
      <path
         style="fill:url(#linearGradient2145);fill-opacity:1;fill-rule:evenodd;stroke:none;stroke-width:1pt;stroke-linecap:butt;stroke-linejoin:miter;stroke-opacity:1;display:inline"
         d="M 589.96443,761.57359 C 589.96443,761.57359 592.02664,748.07373 598.62898,742.22579 C 591.20615,742.83116 579.44622,750.58519 579.44622,754.30664 C 577.58573,749.15472 580.62388,740.71157 587.22619,734.86358 C 579.23088,738.37295 568.12792,741.54742 569.07112,745.26887 C 570.30052,741.40759 558.40295,733.70506 552.74379,732.64178 C 558.67692,736.57988 560.97901,742.8012 559.58059,746.63634 C 557.18036,743.61479 548.34678,738.98452 541.74444,738.98452 C 546.8775,743.09851 551.09186,749.90682 551.09186,752.03336 C 548.22957,749.40055 540.48913,746.97362 532.74187,749.7309 C 540.45095,750.47147 542.91526,759.40325 542.91526,761.52978 C 542.91526,763.6563 589.02123,763.16848 589.96443,761.57359 z "
         id="path2143"
         sodipodi:nodetypes="ccccccccccsc" />
      <path
         style="fill:url(#linearGradient2149);fill-opacity:1;fill-rule:evenodd;stroke:none;stroke-width:1pt;stroke-linecap:butt;stroke-linejoin:miter;stroke-opacity:1;display:inline"
         d="M 128.65244,754.8515 C 128.65244,754.8515 127.25026,741.94351 131.59599,736.19092 C 125.29907,736.9765 116.92924,744.68879 117.809,748.23106 C 114.97693,743.37963 115.61684,735.25736 119.96257,729.50474 C 113.85547,733.07062 104.97305,736.40532 106.67108,739.92097 C 106.82493,736.21101 94.68178,729.21481 89.52055,728.36232 C 95.59907,731.9435 99.06706,737.80037 98.76041,741.49029 C 95.96371,738.68187 87.20512,734.52363 81.477,734.70985 C 86.90293,738.481 92.16878,744.84264 92.67149,746.86683 C 89.56578,744.44148 82.27648,742.34969 76.20682,745.19268 C 83.07027,745.68023 87.31971,754.11247 87.82244,756.13659 C 88.32515,758.16072 128.2112,756.39623 128.65244,754.8515 z "
         id="path2147"
         sodipodi:nodetypes="ccccccccccsc" />
    </g>
    <g
       id="g2190">
      <path
         id="path2441"
         d="M 58.40626,138.55226 C 45.68782,138.94114 35.01683,145.823 31.37501,155.17726 C 29.44904,154.63208 27.38759,154.36476 25.28125,154.36476 C 17.19986,154.36476 10.17308,158.69817 6.468749,165.11476 C 5.048899,164.96431 3.603919,164.89601 2.124999,164.89601 C -13.870781,164.89601 -26.875001,174.08479 -26.875001,185.42726 C -26.875001,195.19624 -17.235141,203.37591 -4.343751,205.4585 C -4.595731,206.66154 -4.750001,207.89178 -4.750001,209.146 C -4.750001,222.52429 10.14631,233.396 28.46875,233.396 C 44.53458,233.396 57.90884,225.03381 60.96876,213.9585 C 63.74607,214.26045 66.61783,214.42725 69.56251,214.42725 C 93.11994,214.42725 112.21876,204.27679 112.21876,191.77101 L 112.15626,190.42726 C 111.17771,181.70039 101.10166,174.38901 86.96876,171.05226 C 88.31973,168.33507 89.03126,165.37417 89.03126,162.27101 L 89.00001,160.86476 C 88.06887,148.29492 75.20141,138.55226 59.53126,138.55226 C 59.14954,138.55226 58.78448,138.54069 58.40626,138.55226 z "
         style="color:black;fill:white;fill-opacity:1;fill-rule:nonzero;stroke:#72c1de;stroke-width:3.59365892;stroke-linecap:round;stroke-linejoin:round;marker:none;marker-start:none;marker-mid:none;marker-end:none;stroke-miterlimit:4;stroke-dasharray:none;stroke-dashoffset:0;stroke-opacity:1;visibility:visible;display:inline;overflow:visible" />
      <path
         id="path5506"
         d="M -25.778518,186.53754 C -27.015955,195.06574 -15.852061,203.06986 -9.1726909,202.78754 C -10.481388,199.84791 -11.21805,196.65009 -11.097532,193.44379 C -16.448139,192.33944 -21.550216,189.51513 -25.778518,186.53754 z M 110.2653,192.22504 C 97.342104,201.85149 80.272431,203.66902 64.39537,203.19379 C 54.06448,222.57099 26.229237,226.5503 7.0742671,217.97504 C 3.6316783,216.9375 -0.80933182,212.63032 -2.7130568,212.06879 C -1.6451631,224.90007 13.48206,231.50415 25.441819,231.85004 C 38.754116,232.7987 53.76532,227.04231 58.457725,214.25629 C 64.582943,210.42393 72.220391,214.53504 78.945857,212.44379 C 90.722866,211.16132 105.44151,207.82315 110.72204,196.38129 C 110.96588,195.37528 111.41049,191.90108 110.2653,192.22504 z "
         style="fill:url(#linearGradient2186);fill-opacity:1;fill-rule:nonzero;stroke:none;stroke-width:6.25;stroke-linecap:round;stroke-linejoin:round;stroke-miterlimit:4;stroke-dasharray:none;stroke-dashoffset:0;stroke-opacity:1;display:inline" />
      <path
         sodipodi:nodetypes="ccc"
         id="path5527"
         d="M 27.52555,192.67168 C 43.78085,211.39695 78.13353,190.58429 66.89587,170.11162 C 62.05367,184.12226 48.97906,195.82308 27.52555,192.67168 z "
         style="color:black;fill:url(#linearGradient2183);fill-opacity:1;fill-rule:nonzero;stroke:none;stroke-width:9.79868031;stroke-linecap:butt;stroke-linejoin:miter;marker:none;marker-start:none;marker-mid:none;marker-end:none;stroke-miterlimit:4;stroke-dasharray:none;stroke-dashoffset:0;stroke-opacity:1;visibility:visible;display:inline;overflow:visible" />
    </g>
    <path
       style="color:black;fill:white;fill-opacity:1;fill-rule:nonzero;stroke:#72c1de;stroke-width:3.59365916;stroke-linecap:round;stroke-linejoin:round;marker:none;marker-start:none;marker-mid:none;marker-end:none;stroke-miterlimit:4;stroke-dasharray:none;stroke-dashoffset:0;stroke-opacity:1;visibility:visible;display:inline;overflow:visible"
       d="M 701.44342,76.006265 C 679.48992,76.109694 660.64515,85.963016 652.32065,100.02234 C 652.30508,100.02233 652.29171,100.02234 652.27614,100.02234 C 625.34735,100.02234 603.48721,114.65283 603.48723,132.67439 C 603.48723,150.69598 625.34735,165.32647 652.27614,165.32647 C 657.59298,165.32647 662.70829,164.75556 667.50042,163.70165 C 669.49379,178.53543 684.92771,190.0993 703.6692,190.0993 C 720.99664,190.0993 735.52587,180.2316 739.19247,167.01805 C 745.13158,168.82257 751.80246,169.82253 758.84606,169.82253 C 783.70339,169.82253 803.8735,157.22461 803.87341,141.68878 L 803.78444,140.01945 C 802.36328,125.09807 782.76256,113.53277 758.84606,113.53277 C 757.80026,113.53277 756.75802,113.57788 755.72998,113.6218 C 753.92019,92.411163 730.42763,76.006265 701.79954,76.006265 C 701.68303,76.006265 701.55977,76.005717 701.44342,76.006265 z "
       id="path5721" />
    <path
       style="fill:url(#linearGradient2163);fill-opacity:1;fill-rule:nonzero;stroke:none;stroke-width:6.25;stroke-linecap:round;stroke-linejoin:round;stroke-miterlimit:4;stroke-dasharray:none;stroke-dashoffset:0;stroke-opacity:1;display:inline"
       d="M 608.08265,120.41497 C 600.42872,128.98934 601.53843,143.16579 610.71102,150.29376 C 624.99665,163.557 646.3756,165.71363 664.97593,162.37413 C 670.45241,162.53985 669.20562,168.80311 671.38258,172.03842 C 681.1389,189.96335 707.48035,193.63289 724.14165,183.36712 C 730.60765,179.55527 734.99554,173.27713 737.79564,166.65558 C 743.31257,164.54953 749.27642,168.73644 755.10715,168.1727 C 771.90841,169.18982 791.65389,165.46894 801.4322,150.72327 C 802.80052,148.25764 803.55048,145.45541 803.45822,142.64285 C 787.96495,151.30155 762.92008,153.03351 745.72896,149.68288 C 736.64423,169.87781 713.30153,177.51638 696.58629,173.79597 C 679.87106,170.07556 672.25385,161.72998 668.96448,150.82756 C 638.60882,159.91704 608.95782,138.36804 608.08265,120.41497 z "
       id="path5723"
       sodipodi:nodetypes="cccccccccczcc" />
    <path
       style="color:black;fill:url(#linearGradient2160);fill-opacity:1;fill-rule:nonzero;stroke:none;stroke-width:9.79868031;stroke-linecap:butt;stroke-linejoin:miter;marker:none;marker-start:none;marker-mid:none;marker-end:none;stroke-miterlimit:4;stroke-dasharray:none;stroke-dashoffset:0;stroke-opacity:1;visibility:visible;display:inline;overflow:visible"
       d="M 667.28613,122.5035 C 661.38722,152.4809 707.54886,163.70896 718.93532,136.48728 C 701.67395,144.46615 680.43532,143.45521 667.28613,122.5035 z "
       id="path5725"
       sodipodi:nodetypes="ccc" />
    <path
       style="color:black;fill:white;fill-opacity:1;fill-rule:nonzero;stroke:#72c1de;stroke-width:3.59365892;stroke-linecap:round;stroke-linejoin:round;marker:none;marker-start:none;marker-mid:none;marker-end:none;stroke-miterlimit:4;stroke-dasharray:none;stroke-dashoffset:0;stroke-opacity:1;visibility:visible;display:inline;overflow:visible"
       d="M 336.828,52.458746 C 349.29271,40.476407 376.36434,46.816571 384.30589,56.962086 C 408.63212,60.834328 417.60655,73.410844 417.61625,73.419145 C 446.87041,98.463946 408.16679,118.4826 383.0682,116.01247 C 378.10961,115.52446 373.25702,115.60625 368.75015,114.85637 C 366.87543,125.41099 352.36023,133.63898 334.73433,133.63898 C 318.43831,133.63898 304.77393,126.61785 301.32559,117.21607 C 295.74001,118.50004 289.46622,119.21153 282.84189,119.21153 C 259.4642,119.21153 240.49473,110.24779 240.49481,99.193645 L 240.57849,98.005874 C 241.91504,87.388927 260.34903,79.159917 282.84189,79.159916 C 283.82543,79.159916 284.80564,79.192016 285.77249,79.223263 C 287.47454,64.13135 309.5687,52.458852 336.49269,52.458842 C 336.60231,52.458842 336.71837,52.458409 336.828,52.458746 z "
       id="path5733"
       sodipodi:nodetypes="ccsscscsccscsc" />
    <path
       style="fill:url(#linearGradient2150);fill-opacity:1;fill-rule:nonzero;stroke:none;stroke-width:6.25;stroke-linecap:round;stroke-linejoin:round;stroke-miterlimit:4;stroke-dasharray:none;stroke-dashoffset:0;stroke-opacity:1;display:inline"
       d="M 423.70122,83.097109 C 429.51436,91.844876 425.71244,100.5846 417.24314,105.65735 C 404.07474,115.23098 387.33034,115.85123 370.18469,113.44072 C 365.13652,113.56035 367.65313,118.31538 365.64642,120.65067 C 356.65313,133.58918 331.91598,136.94025 316.5577,129.53025 C 310.5974,126.7788 306.55267,122.24713 303.97157,117.46759 C 298.88609,115.94741 293.38866,118.96958 288.01392,118.56267 C 272.52665,119.29684 254.32541,116.61105 245.31183,105.96739 C 244.05053,104.18764 243.35922,102.16496 243.44425,100.1348 C 257.72584,106.3848 280.81202,107.63495 296.65868,105.21642 C 305.03292,119.79344 326.55006,125.30709 341.95805,122.62164 C 357.36604,119.93619 364.38752,113.91221 367.41964,106.04266 C 395.40127,112.6036 422.8945,96.055931 423.70122,83.097109 z "
       id="path5735"
       sodipodi:nodetypes="cccccccccczcc" />
    <path
       style="color:black;fill:url(#linearGradient2146);fill-opacity:1;fill-rule:nonzero;stroke:none;stroke-width:9.79868031;stroke-linecap:butt;stroke-linejoin:miter;marker:none;marker-start:none;marker-mid:none;marker-end:none;stroke-miterlimit:4;stroke-dasharray:none;stroke-dashoffset:0;stroke-opacity:1;visibility:visible;display:inline;overflow:visible"
       d="M 368.95168,85.542826 C 374.49946,106.87251 331.0856,114.86157 320.37693,95.492645 C 336.61081,101.16982 356.5852,100.45051 368.95168,85.542826 z "
       id="path5737"
       sodipodi:nodetypes="ccc" />
    <path
       style="color:black;fill:white;fill-opacity:1;fill-rule:nonzero;stroke:#72c1de;stroke-width:3.59365892;stroke-linecap:round;stroke-linejoin:round;marker:none;marker-start:none;marker-mid:none;marker-end:none;stroke-miterlimit:4;stroke-dasharray:none;stroke-dashoffset:0;stroke-opacity:1;visibility:visible;display:inline;overflow:visible"
       d="M 273.21844,11.832133 C 283.84455,12.157038 292.76005,17.906756 295.80275,25.722138 C 297.41188,25.266646 299.1342,25.043303 300.89402,25.043303 C 307.64593,25.043303 313.51673,28.663819 316.61166,34.02481 C 317.79793,33.89911 319.00519,33.842046 320.24081,33.842046 C 333.60511,33.842046 344.46999,41.519171 344.46999,50.99568 C 344.46999,59.157555 336.416,65.99158 325.64538,67.731561 C 325.85591,68.736687 325.9848,69.764539 325.9848,70.812426 C 325.9848,81.98984 313.5391,91.073035 298.2309,91.073035 C 284.80807,91.073035 273.63403,84.086517 271.0775,74.833217 C 268.75709,75.085493 266.35776,75.224853 263.89751,75.224853 C 244.21554,75.224853 228.25869,66.744255 228.25869,56.295813 L 228.3109,55.173125 C 229.12847,47.881921 237.5469,41.773344 249.35478,38.985526 C 248.22606,36.715343 247.63159,34.241544 247.63159,31.648888 L 247.6577,30.473981 C 248.43565,19.972018 259.18627,11.832133 272.27851,11.832133 C 272.59744,11.832133 272.90244,11.822467 273.21844,11.832133 z "
       id="path5745" />
    <path
       style="fill:url(#linearGradient2136);fill-opacity:1;fill-rule:nonzero;stroke:none;stroke-width:6.25;stroke-linecap:round;stroke-linejoin:round;stroke-miterlimit:4;stroke-dasharray:none;stroke-dashoffset:0;stroke-opacity:1;display:inline"
       d="M 341.81613,50.252329 C 342.83147,57.823511 333.67132,64.929425 328.19078,64.678787 C 329.26459,62.069035 329.86903,59.230069 329.77015,56.383574 C 334.1604,55.403151 338.34674,52.895779 341.81613,50.252329 z M 230.18999,55.301589 C 240.79369,63.847778 254.79963,65.461349 267.82701,65.039448 C 276.30367,82.242178 299.14294,85.774938 314.85989,78.161976 C 317.6846,77.240867 321.32852,73.417029 322.89055,72.918513 C 322.01432,84.309894 309.60219,90.172877 299.78902,90.479952 C 288.86607,91.685293 276.54913,87.367805 272.69894,74.860536 C 267.6731,71.458236 261.40646,75.108006 255.8881,73.251432 C 246.22488,72.112878 234.148,69.149311 229.81523,58.991433 C 229.61516,58.098315 229.25035,55.013983 230.18999,55.301589 z "
       id="path5747"
       sodipodi:nodetypes="ccccccccccccc" />
    <path
       style="color:black;fill:url(#linearGradient2133);fill-opacity:1;fill-rule:nonzero;stroke:none;stroke-width:9.79868031;stroke-linecap:butt;stroke-linejoin:miter;marker:none;marker-start:none;marker-mid:none;marker-end:none;stroke-miterlimit:4;stroke-dasharray:none;stroke-dashoffset:0;stroke-opacity:1;visibility:visible;display:inline;overflow:visible"
       d="M 299.01893,57.048313 C 285.43781,72.69307 256.73652,55.304322 266.12546,38.199631 C 270.17107,49.905367 281.09476,59.681273 299.01893,57.048313 z "
       id="path5749"
       sodipodi:nodetypes="ccc" />
    <g
       style="display:inline"
       id="g2195"
       transform="translate(-1.32817,0)">
      <path
         id="path2197"
         d="M 58.40626,138.55226 C 45.68782,138.94114 35.01683,145.823 31.37501,155.17726 C 29.44904,154.63208 27.38759,154.36476 25.28125,154.36476 C 17.19986,154.36476 10.17308,158.69817 6.468749,165.11476 C 5.048899,164.96431 3.603919,164.89601 2.124999,164.89601 C -13.870781,164.89601 -26.875001,174.08479 -26.875001,185.42726 C -26.875001,195.19624 -17.235141,203.37591 -4.343751,205.4585 C -4.595731,206.66154 -4.750001,207.89178 -4.750001,209.146 C -4.750001,222.52429 10.14631,233.396 28.46875,233.396 C 44.53458,233.396 57.90884,225.03381 60.96876,213.9585 C 63.74607,214.26045 66.61783,214.42725 69.56251,214.42725 C 93.11994,214.42725 112.21876,204.27679 112.21876,191.77101 L 112.15626,190.42726 C 111.17771,181.70039 101.10166,174.38901 86.96876,171.05226 C 88.31973,168.33507 89.03126,165.37417 89.03126,162.27101 L 89.00001,160.86476 C 88.06887,148.29492 75.20141,138.55226 59.53126,138.55226 C 59.14954,138.55226 58.78448,138.54069 58.40626,138.55226 z "
         style="color:black;fill:white;fill-opacity:1;fill-rule:nonzero;stroke:#72c1de;stroke-width:3.59365892;stroke-linecap:round;stroke-linejoin:round;marker:none;marker-start:none;marker-mid:none;marker-end:none;stroke-miterlimit:4;stroke-dasharray:none;stroke-dashoffset:0;stroke-opacity:1;visibility:visible;display:inline;overflow:visible" />
      <path
         id="path2199"
         d="M -25.778518,186.53754 C -27.015955,195.06574 -15.852061,203.06986 -9.1726909,202.78754 C -10.481388,199.84791 -11.21805,196.65009 -11.097532,193.44379 C -16.448139,192.33944 -21.550216,189.51513 -25.778518,186.53754 z M 110.2653,192.22504 C 97.342104,201.85149 80.272431,203.66902 64.39537,203.19379 C 54.06448,222.57099 26.229237,226.5503 7.0742671,217.97504 C 3.6316783,216.9375 -0.80933182,212.63032 -2.7130568,212.06879 C -1.6451631,224.90007 13.48206,231.50415 25.441819,231.85004 C 38.754116,232.7987 53.76532,227.04231 58.457725,214.25629 C 64.582943,210.42393 72.220391,214.53504 78.945857,212.44379 C 90.722866,211.16132 105.44151,207.82315 110.72204,196.38129 C 110.96588,195.37528 111.41049,191.90108 110.2653,192.22504 z "
         style="fill:url(#linearGradient2220);fill-opacity:1;fill-rule:nonzero;stroke:none;stroke-width:6.25;stroke-linecap:round;stroke-linejoin:round;stroke-miterlimit:4;stroke-dasharray:none;stroke-dashoffset:0;stroke-opacity:1;display:inline" />
      <path
         sodipodi:nodetypes="ccc"
         id="path2201"
         d="M 27.52555,192.67168 C 43.78085,211.39695 78.13353,190.58429 66.89587,170.11162 C 62.05367,184.12226 48.97906,195.82308 27.52555,192.67168 z "
         style="color:black;fill:url(#linearGradient2222);fill-opacity:1;fill-rule:nonzero;stroke:none;stroke-width:9.79868031;stroke-linecap:butt;stroke-linejoin:miter;marker:none;marker-start:none;marker-mid:none;marker-end:none;stroke-miterlimit:4;stroke-dasharray:none;stroke-dashoffset:0;stroke-opacity:1;visibility:visible;display:inline;overflow:visible" />
    </g>
    <g
       style="display:inline"
       id="g2228"
       transform="translate(1022.672,0)">
      <path
         id="path2230"
         d="M 58.40626,138.55226 C 45.68782,138.94114 35.01683,145.823 31.37501,155.17726 C 29.44904,154.63208 27.38759,154.36476 25.28125,154.36476 C 17.19986,154.36476 10.17308,158.69817 6.468749,165.11476 C 5.048899,164.96431 3.603919,164.89601 2.124999,164.89601 C -13.870781,164.89601 -26.875001,174.08479 -26.875001,185.42726 C -26.875001,195.19624 -17.235141,203.37591 -4.343751,205.4585 C -4.595731,206.66154 -4.750001,207.89178 -4.750001,209.146 C -4.750001,222.52429 10.14631,233.396 28.46875,233.396 C 44.53458,233.396 57.90884,225.03381 60.96876,213.9585 C 63.74607,214.26045 66.61783,214.42725 69.56251,214.42725 C 93.11994,214.42725 112.21876,204.27679 112.21876,191.77101 L 112.15626,190.42726 C 111.17771,181.70039 101.10166,174.38901 86.96876,171.05226 C 88.31973,168.33507 89.03126,165.37417 89.03126,162.27101 L 89.00001,160.86476 C 88.06887,148.29492 75.20141,138.55226 59.53126,138.55226 C 59.14954,138.55226 58.78448,138.54069 58.40626,138.55226 z "
         style="color:black;fill:white;fill-opacity:1;fill-rule:nonzero;stroke:#72c1de;stroke-width:3.59365892;stroke-linecap:round;stroke-linejoin:round;marker:none;marker-start:none;marker-mid:none;marker-end:none;stroke-miterlimit:4;stroke-dasharray:none;stroke-dashoffset:0;stroke-opacity:1;visibility:visible;display:inline;overflow:visible" />
      <path
         id="path2232"
         d="M -25.778518,186.53754 C -27.015955,195.06574 -15.852061,203.06986 -9.1726909,202.78754 C -10.481388,199.84791 -11.21805,196.65009 -11.097532,193.44379 C -16.448139,192.33944 -21.550216,189.51513 -25.778518,186.53754 z M 110.2653,192.22504 C 97.342104,201.85149 80.272431,203.66902 64.39537,203.19379 C 54.06448,222.57099 26.229237,226.5503 7.0742671,217.97504 C 3.6316783,216.9375 -0.80933182,212.63032 -2.7130568,212.06879 C -1.6451631,224.90007 13.48206,231.50415 25.441819,231.85004 C 38.754116,232.7987 53.76532,227.04231 58.457725,214.25629 C 64.582943,210.42393 72.220391,214.53504 78.945857,212.44379 C 90.722866,211.16132 105.44151,207.82315 110.72204,196.38129 C 110.96588,195.37528 111.41049,191.90108 110.2653,192.22504 z "
         style="fill:url(#linearGradient2236);fill-opacity:1;fill-rule:nonzero;stroke:none;stroke-width:6.25;stroke-linecap:round;stroke-linejoin:round;stroke-miterlimit:4;stroke-dasharray:none;stroke-dashoffset:0;stroke-opacity:1;display:inline" />
      <path
         sodipodi:nodetypes="ccc"
         id="path2234"
         d="M 27.52555,192.67168 C 43.78085,211.39695 78.13353,190.58429 66.89587,170.11162 C 62.05367,184.12226 48.97906,195.82308 27.52555,192.67168 z "
         style="color:black;fill:url(#linearGradient2238);fill-opacity:1;fill-rule:nonzero;stroke:none;stroke-width:9.79868031;stroke-linecap:butt;stroke-linejoin:miter;marker:none;marker-start:none;marker-mid:none;marker-end:none;stroke-miterlimit:4;stroke-dasharray:none;stroke-dashoffset:0;stroke-opacity:1;visibility:visible;display:inline;overflow:visible" />
    </g>
  </g>
  <g
     inkscape:label="paysage"
     inkscape:groupmode="layer"
     id="layer1"
     style="display:inline" />
</svg>
