<?xml version="1.0" encoding="UTF-8" standalone="no"?>
<!-- Created with Inkscape (http://www.inkscape.org/) -->
<svg
   xmlns:dc="http://purl.org/dc/elements/1.1/"
   xmlns:cc="http://web.resource.org/cc/"
   xmlns:rdf="http://www.w3.org/1999/02/22-rdf-syntax-ns#"
   xmlns:svg="http://www.w3.org/2000/svg"
   xmlns="http://www.w3.org/2000/svg"
   xmlns:xlink="http://www.w3.org/1999/xlink"
   xmlns:sodipodi="http://sodipodi.sourceforge.net/DTD/sodipodi-0.dtd"
   xmlns:inkscape="http://www.inkscape.org/namespaces/inkscape"
   width="120.40783"
   height="56.675457"
   id="svg2"
   sodipodi:version="0.32"
   inkscape:version="0.44"
   sodipodi:docbase="/home/yekcim/Desktop/_new"
   sodipodi:docname="souris01.svg"
   version="1.0">
  <defs
     id="defs4">
    <linearGradient
       id="linearGradient3228">
      <stop
         style="stop-color:#ffffff;stop-opacity:1;"
         offset="0"
         id="stop3230" />
      <stop
         style="stop-color:#aaa588;stop-opacity:1;"
         offset="1"
         id="stop3232" />
    </linearGradient>
    <linearGradient
       inkscape:collect="always"
       xlink:href="#linearGradient3228"
       id="linearGradient3236"
       gradientUnits="userSpaceOnUse"
       x1="399.46799"
       y1="503.4371"
       x2="422.08694"
       y2="529.81256" />
    <linearGradient
       inkscape:collect="always"
       xlink:href="#linearGradient3228"
       id="linearGradient3269"
       gradientUnits="userSpaceOnUse"
       x1="516.91394"
       y1="582.70093"
       x2="536.01471"
       y2="612.17065" />
    <linearGradient
       inkscape:collect="always"
       xlink:href="#linearGradient3228"
       id="linearGradient3271"
       gradientUnits="userSpaceOnUse"
       x1="323.46799"
       y1="347.81696"
       x2="355.38992"
       y2="383.05704" />
  </defs>
  <sodipodi:namedview
     id="base"
     pagecolor="#ffffff"
     bordercolor="#666666"
     borderopacity="1.0"
     inkscape:pageopacity="0.0"
     inkscape:pageshadow="2"
     inkscape:zoom="9.4179922"
     inkscape:cx="60.203915"
     inkscape:cy="28.337729"
     inkscape:document-units="px"
     inkscape:current-layer="layer2"
     inkscape:window-width="1228"
     inkscape:window-height="926"
     inkscape:window-x="42"
     inkscape:window-y="25"
     showguides="false"
     inkscape:guide-bbox="true">
    <sodipodi:guide
       orientation="horizontal"
       position="1281.113"
       id="guide3216" />
    <sodipodi:guide
       orientation="vertical"
       position="-2.8532583"
       id="guide3218" />
    <sodipodi:guide
       orientation="horizontal"
       position="-2.8532583"
       id="guide3220" />
    <sodipodi:guide
       orientation="vertical"
       position="1597.8247"
       id="guide3222" />
  </sodipodi:namedview>
  <metadata
     id="metadata7">
    <rdf:RDF>
      <cc:Work
         rdf:about="">
        <dc:format>image/svg+xml</dc:format>
        <dc:type
           rdf:resource="http://purl.org/dc/dcmitype/StillImage" />
      </cc:Work>
    </rdf:RDF>
  </metadata>
  <g
     inkscape:label="Calque 1"
     inkscape:groupmode="layer"
     id="layer1"
     sodipodi:insensitive="true"
     style="display:none"
     transform="translate(-348.402,-488.2601)">
    <image
       xlink:href="/home/olivier/Capture-1.png"
       sodipodi:absref="/home/olivier/Capture-1.png"
       width="3204.0002"
       height="1281.6"
       id="image1447"
       x="1.7244585"
       y="-1.113" />
  </g>
  <g
     inkscape:groupmode="layer"
     id="layer2"
     inkscape:label="souris"
     style="display:inline"
     transform="translate(-348.402,-488.2601)">
    <g
       id="g3262"
       transform="translate(-73.63357,-78.54248)"
       inkscape:export-filename="/home/olivier/inkscape/wormux/pointer_select.png"
       inkscape:export-xdpi="146"
       inkscape:export-ydpi="146">
      <path
         sodipodi:nodetypes="ccsssssssscscscsssc"
         id="path2341"
         d="M 524.57925,611.55308 C 523.95675,607.76708 520.28741,606.04557 520.28741,606.04557 C 520.28741,606.04557 518.1779,605.93634 515.08646,604.3906 C 512.83456,603.26466 511.90522,598.66188 512.78784,596.72427 C 514.40791,593.16774 516.06538,593.42264 515.71015,592.7108 C 515.0403,591.3685 510.53097,583.16406 508.44668,579.50875 C 508.00206,578.72902 506.88803,575.09477 509.34287,573.1309 C 511.5034,571.40248 514.4207,571.70449 515.95681,574.78585 C 518.43582,579.75865 521.01211,585.46026 522.12677,586.9437 C 522.65736,587.64986 524.11576,584.39257 526.12498,584.6134 C 528.53942,584.87874 529.65805,586.82157 529.65805,586.82157 C 529.65805,586.82157 531.20377,585.27584 533.19112,586.15912 C 534.36772,586.68205 535.84092,589.02973 535.84092,589.02973 C 535.84092,589.02973 539.10716,595.97301 536.32132,599.77459 C 534.5803,602.15041 536.94501,605.59101 536.94501,605.59101 C 536.94501,605.59101 538.64823,605.18298 539.37401,606.47428 C 540.37426,608.25399 539.53924,610.36773 535.84092,612.65717 C 531.20377,615.52778 525.20954,616.83503 523.91679,615.08616 C 523.25435,614.18996 523.05469,612.94689 524.57925,611.55308 z "
         style="opacity:0.36283186;fill:black;fill-opacity:1;fill-rule:evenodd;stroke:none;stroke-width:2;stroke-linecap:butt;stroke-linejoin:miter;stroke-miterlimit:4;stroke-dasharray:none;stroke-opacity:1" />
      <path
         sodipodi:nodetypes="ccsssssssscscscsssc"
         id="path3104"
         d="M 526.25849,607.27641 C 525.63599,603.4904 521.96665,601.76888 521.96665,601.76888 C 521.96665,601.76888 519.85714,601.65965 516.7657,600.11393 C 514.5138,598.98797 513.58448,594.3852 514.4671,592.44759 C 516.08716,588.89105 517.74464,589.14595 517.38939,588.43411 C 516.71955,587.09182 512.21021,578.88738 510.12592,575.23208 C 509.68132,574.45234 508.56729,570.81808 511.02211,568.85422 C 513.18264,567.1258 516.09995,567.42781 517.63605,570.50916 C 520.11506,575.48196 522.69135,581.18357 523.80601,582.66703 C 524.3366,583.37317 525.795,580.11588 527.80422,580.33671 C 530.21866,580.60205 531.33729,582.54488 531.33729,582.54488 C 531.33729,582.54488 532.88301,580.99916 534.87036,581.88243 C 536.04696,582.40537 537.52017,584.75306 537.52017,584.75306 C 537.52017,584.75306 540.7864,591.69634 538.00056,595.49791 C 536.25954,597.87372 538.62425,601.31434 538.62425,601.31434 C 538.62425,601.31434 540.32747,600.9063 541.05325,602.1976 C 542.0535,603.9773 541.21848,606.09104 537.52017,608.38048 C 532.88301,611.25111 526.88879,612.55834 525.59605,610.80948 C 524.93359,609.91328 524.73394,608.67021 526.25849,607.27641 z "
         style="opacity:1;color:black;fill:url(#linearGradient3269);fill-opacity:1;fill-rule:evenodd;stroke:#2b356c;stroke-width:2;stroke-linecap:butt;stroke-linejoin:miter;marker:none;marker-start:none;marker-mid:none;marker-end:none;stroke-miterlimit:4;stroke-dasharray:none;stroke-dashoffset:0;stroke-opacity:1;visibility:visible;display:inline;overflow:visible" />
      <path
         sodipodi:nodetypes="csc"
         id="path2198"
         d="M 526.64167,606.88314 C 526.76776,609.77805 529.18609,609.07318 530.42882,608.6425 C 532.02463,608.08947 532.72291,607.44834 532.72291,607.44834"
         style="fill:none;fill-opacity:0.75;fill-rule:evenodd;stroke:#2b356c;stroke-width:1;stroke-linecap:butt;stroke-linejoin:miter;stroke-miterlimit:4;stroke-dasharray:none;stroke-opacity:1" />
      <path
         sodipodi:nodetypes="csc"
         id="path2200"
         d="M 538.22807,601.62652 C 538.22807,601.62652 538.85708,602.99489 538.80057,603.75972 C 538.74406,604.52455 537.91419,605.54365 537.75557,605.60882"
         style="opacity:1;color:black;fill:none;fill-opacity:0.75;fill-rule:evenodd;stroke:#2b356c;stroke-width:1;stroke-linecap:butt;stroke-linejoin:miter;marker:none;marker-start:none;marker-mid:none;marker-end:none;stroke-miterlimit:4;stroke-dasharray:none;stroke-dashoffset:0;stroke-opacity:1;visibility:visible;display:inline;overflow:visible" />
      <path
         sodipodi:nodetypes="cc"
         id="path2202"
         d="M 517.52931,587.86635 C 518.22691,589.17861 518.76285,590.45109 520.95904,595.06875"
         style="opacity:1;color:black;fill:none;fill-opacity:0.75;fill-rule:evenodd;stroke:#2b356c;stroke-width:1;stroke-linecap:butt;stroke-linejoin:miter;marker:none;marker-start:none;marker-mid:none;marker-end:none;stroke-miterlimit:4;stroke-dasharray:none;stroke-dashoffset:0;stroke-opacity:1;visibility:visible;display:inline;overflow:visible" />
    </g>
    <g
       id="g3244"
       transform="translate(25.36268,156.2668)"
       inkscape:export-filename="/home/olivier/inkscape/wormux/pointer_move.png"
       inkscape:export-xdpi="146"
       inkscape:export-ydpi="146">
      <path
         sodipodi:nodetypes="ccsscsscscscscsssc"
         id="path3226"
         d="M 340.20478,384.34584 C 339.58229,380.55984 336.77037,378.32387 336.77037,378.32387 C 336.77037,378.32387 335.00383,378.04315 331.91239,376.49741 C 329.6605,375.37148 328.85689,372.40253 327.98466,370.4602 C 326.37676,366.87954 325.73431,360.61667 330.56399,360.6162 C 329.92753,358.71974 329.09389,356.8377 327.2447,353.58765 C 326.46328,352.21427 323.50064,348.92707 325.05414,346.35237 C 326.18837,344.47256 328.7493,343.8482 329.86395,345.33167 C 330.39454,346.03781 328.17229,343.13664 331.11839,341.7152 C 333.99668,340.32647 336.02335,343.15168 336.02335,343.15168 C 336.02335,343.15168 337.60956,340.28449 341.27127,342.66072 C 346.12318,345.80932 352.15239,362.25119 352.15239,362.25119 C 352.15239,362.25119 354.7327,368.76577 351.94684,372.56734 C 350.20582,374.94317 352.57053,378.38377 352.57053,378.38377 C 352.57053,378.38377 354.27377,377.97573 354.99951,379.26704 C 355.99978,381.04676 355.16476,383.1605 351.46646,385.44991 C 346.82929,388.32054 340.83507,389.62777 339.54233,387.87891 C 338.87989,386.98272 338.68022,385.73965 340.20478,384.34584 z "
         style="opacity:0.25663715;fill:black;fill-opacity:1;fill-rule:evenodd;stroke:none;stroke-width:1.14263451;stroke-linecap:butt;stroke-linejoin:miter;stroke-miterlimit:4;stroke-dasharray:none;stroke-opacity:1" />
      <path
         sodipodi:nodetypes="ccsscsscscscscsssc"
         id="path2204"
         d="M 339.63374,378.1628 C 339.01125,374.3768 336.19933,372.14083 336.19933,372.14083 C 336.19933,372.14083 334.43279,371.86011 331.34135,370.31437 C 329.08946,369.18844 328.28585,366.21949 327.41362,364.27716 C 325.80572,360.6965 325.16327,354.43363 329.99295,354.43316 C 329.35649,352.5367 328.52285,350.65466 326.67366,347.40461 C 325.89224,346.03123 322.9296,342.74403 324.4831,340.16933 C 325.61733,338.28952 328.17826,337.66516 329.29291,339.14863 C 329.8235,339.85477 327.60125,336.9536 330.54735,335.53216 C 333.42564,334.14343 335.45231,336.96864 335.45231,336.96864 C 335.45231,336.96864 337.03852,334.10145 340.70023,336.47768 C 345.55214,339.62628 351.58135,356.06815 351.58135,356.06815 C 351.58135,356.06815 354.16166,362.58273 351.3758,366.3843 C 349.63478,368.76013 351.99949,372.20073 351.99949,372.20073 C 351.99949,372.20073 353.70273,371.79269 354.42847,373.084 C 355.42874,374.86372 354.59372,376.97746 350.89542,379.26687 C 346.25825,382.1375 340.26403,383.44473 338.97129,381.69587 C 338.30885,380.79968 338.10918,379.55661 339.63374,378.1628 z "
         style="fill:url(#linearGradient3271);fill-opacity:1;fill-rule:evenodd;stroke:#2b356c;stroke-width:2;stroke-linecap:butt;stroke-linejoin:miter;stroke-miterlimit:4;stroke-dasharray:none;stroke-opacity:1" />
      <path
         sodipodi:nodetypes="csc"
         id="path2206"
         d="M 340.07068,378.03191 C 340.19677,380.9268 342.61509,380.22193 343.85785,379.79127 C 345.45364,379.23822 346.15193,378.59712 346.15193,378.59712"
         style="fill:none;fill-opacity:0.75;fill-rule:evenodd;stroke:#2b356c;stroke-width:1.14263451;stroke-linecap:butt;stroke-linejoin:miter;stroke-miterlimit:4;stroke-dasharray:none;stroke-opacity:1" />
      <path
         sodipodi:nodetypes="csc"
         id="path2208"
         d="M 351.52266,372.25056 C 351.52266,372.25056 352.15167,373.61894 352.09517,374.38377 C 352.03863,375.14858 351.2088,376.16769 351.05018,376.23287"
         style="opacity:1;color:black;fill:none;fill-opacity:0.75;fill-rule:evenodd;stroke:#2b356c;stroke-width:1.14263451;stroke-linecap:butt;stroke-linejoin:miter;marker:none;marker-start:none;marker-mid:none;marker-end:none;stroke-miterlimit:4;stroke-dasharray:none;stroke-dashoffset:0;stroke-opacity:1;visibility:visible;display:inline;overflow:visible" />
      <path
         sodipodi:nodetypes="cc"
         id="path2210"
         d="M 329.73106,352.67012 C 330.42866,353.98237 333.1939,360.14219 334.01822,364.15965"
         style="opacity:1;color:black;fill:none;fill-opacity:0.75;fill-rule:evenodd;stroke:#2b356c;stroke-width:1.14263451;stroke-linecap:butt;stroke-linejoin:miter;marker:none;marker-start:none;marker-mid:none;marker-end:none;stroke-miterlimit:4;stroke-dasharray:none;stroke-dashoffset:0;stroke-opacity:1;visibility:visible;display:inline;overflow:visible" />
      <path
         sodipodi:nodetypes="cc"
         id="path2212"
         d="M 329.15062,338.89441 C 331.47732,341.3213 335.35721,348.33857 336.18152,352.35602"
         style="opacity:1;color:black;fill:none;fill-opacity:0.75;fill-rule:evenodd;stroke:#2b356c;stroke-width:1.14263451;stroke-linecap:butt;stroke-linejoin:miter;marker:none;marker-start:none;marker-mid:none;marker-end:none;stroke-miterlimit:4;stroke-dasharray:none;stroke-dashoffset:0;stroke-opacity:1;visibility:visible;display:inline;overflow:visible" />
      <path
         sodipodi:nodetypes="cc"
         id="path2214"
         d="M 335.06682,336.92233 C 337.90799,340.03517 341.87362,346.28076 342.69794,350.2982"
         style="opacity:1;color:black;fill:none;fill-opacity:0.75;fill-rule:evenodd;stroke:#2b356c;stroke-width:1.14263451;stroke-linecap:butt;stroke-linejoin:miter;marker:none;marker-start:none;marker-mid:none;marker-end:none;stroke-miterlimit:4;stroke-dasharray:none;stroke-dashoffset:0;stroke-opacity:1;visibility:visible;display:inline;overflow:visible" />
    </g>
    <g
       id="g3253"
       inkscape:export-filename="/home/olivier/inkscape/wormux/pointer_aim.png"
       inkscape:export-xdpi="146"
       inkscape:export-ydpi="146">
      <path
         sodipodi:nodetypes="cssscssscssscscsssss"
         id="path3224"
         d="M 399.96469,517.67637 C 399.89464,515.30617 398.5967,512.75796 395.79915,513.68014 C 392.4684,514.77807 392.8874,519.64908 394.75819,522.67171 C 397.475,527.06122 400.55948,527.50425 404.01494,526.65699 C 405.3861,526.32079 407.31721,530.0512 407.31721,530.0512 C 407.31721,530.0512 405.20078,530.44734 406.25551,532.82111 C 407.20802,534.96482 411.95569,535.59675 417.66731,532.4181 C 421.04769,530.53685 423.10912,528.10991 422.60282,526.62884 C 421.7826,524.22949 419.7074,525.14181 419.7074,525.14181 C 419.7074,525.14181 418.30776,523.00245 419.15812,521.84109 C 420.00846,520.67971 423.15109,516.17544 422.59763,509.66606 C 422.31441,506.33503 419.09244,500.17388 415.61124,500.20982 C 413.96498,500.22681 414.90855,500.29283 414.90855,500.29283 C 414.90855,500.29283 413.37072,498.44614 410.45125,497.657 C 407.53178,496.86788 405.83397,498.03792 405.83397,498.03792 C 405.83397,498.03792 399.92479,496.358 396.15421,498.94983 C 391.61935,502.067 393.96884,506.28514 397.29253,504.78396 C 403.52857,501.96741 407.40375,506.59808 408.27361,508.22772 C 411.64411,514.54211 407.37834,517.72539 404.15369,518.78503 C 402.6208,519.28877 400.00905,519.17696 399.96469,517.67637 z "
         style="opacity:0.25073745;fill:black;fill-opacity:1;fill-rule:evenodd;stroke:none;stroke-width:1.14263451;stroke-linecap:butt;stroke-linejoin:miter;stroke-miterlimit:4;stroke-dasharray:none;stroke-opacity:1" />
      <path
         sodipodi:nodetypes="cssscssscssscscsssss"
         id="path1307"
         d="M 398.80138,512.30121 C 398.73133,509.93101 397.43339,507.3828 394.63584,508.30498 C 391.30509,509.40291 391.72409,514.27392 393.59488,517.29655 C 396.31169,521.68606 399.39617,522.12909 402.85163,521.28183 C 404.22279,520.94563 406.1539,524.67604 406.1539,524.67604 C 406.1539,524.67604 404.03747,525.07218 405.0922,527.44595 C 406.04471,529.58966 410.79238,530.22159 416.504,527.04294 C 419.88438,525.16169 421.94581,522.73475 421.43951,521.25368 C 420.61929,518.85433 418.54409,519.76665 418.54409,519.76665 C 418.54409,519.76665 417.14445,517.62729 417.99481,516.46593 C 418.84515,515.30455 421.98778,510.80028 421.43432,504.2909 C 421.1511,500.95987 417.92913,494.79872 414.44793,494.83466 C 412.80167,494.85165 413.74524,494.91767 413.74524,494.91767 C 413.74524,494.91767 412.20741,493.07098 409.28794,492.28184 C 406.36847,491.49272 404.67066,492.66276 404.67066,492.66276 C 404.67066,492.66276 398.76148,490.98284 394.9909,493.57467 C 390.45604,496.69184 392.80553,500.90998 396.12922,499.4088 C 402.36526,496.59225 406.24044,501.22292 407.1103,502.85256 C 410.4808,509.16695 406.21503,512.35023 402.99038,513.40987 C 401.45749,513.91361 398.84574,513.8018 398.80138,512.30121 z "
         style="opacity:1;color:black;fill:url(#linearGradient3236);fill-opacity:1;fill-rule:evenodd;stroke:#2b356c;stroke-width:2;stroke-linecap:butt;stroke-linejoin:miter;marker:none;marker-start:none;marker-mid:none;marker-end:none;stroke-miterlimit:4;stroke-dasharray:none;stroke-dashoffset:0;stroke-opacity:1;visibility:visible;display:inline;overflow:visible" />
      <path
         sodipodi:nodetypes="csc"
         id="path3063"
         d="M 403.45933,492.83738 C 403.45933,492.83738 406.80497,493.77207 409.19103,495.36739 C 411.30356,496.77982 412.50198,498.52141 413.41586,502.12367"
         style="fill:none;fill-opacity:0.75;fill-rule:evenodd;stroke:#2b356c;stroke-width:1;stroke-linecap:butt;stroke-linejoin:miter;stroke-miterlimit:4;stroke-dasharray:none;stroke-opacity:1" />
      <path
         sodipodi:nodetypes="cs"
         id="path3065"
         d="M 413.10119,494.94822 C 413.10119,494.94822 416.75295,499.00358 416.96434,501.4205"
         style="fill:none;fill-opacity:0.75;fill-rule:evenodd;stroke:#2b356c;stroke-width:1;stroke-linecap:butt;stroke-linejoin:miter;stroke-miterlimit:4;stroke-dasharray:none;stroke-opacity:1" />
      <path
         sodipodi:nodetypes="csc"
         id="path3067"
         d="M 405.96596,523.27552 C 406.63988,526.16843 408.76657,526.31679 410.11596,526.01337 C 411.84871,525.62373 412.64927,525.05616 412.64927,525.05616"
         style="fill:none;fill-opacity:0.75;fill-rule:evenodd;stroke:#2b356c;stroke-width:1;stroke-linecap:butt;stroke-linejoin:miter;stroke-miterlimit:4;stroke-dasharray:none;stroke-opacity:1" />
      <path
         sodipodi:nodetypes="csc"
         id="path2196"
         d="M 417.94202,519.60781 C 417.94202,519.60781 418.51126,520.52069 418.37082,521.27595 C 418.23039,522.0312 418.27128,522.4579 417.24916,523.11308"
         style="opacity:1;color:black;fill:none;fill-opacity:0.75;fill-rule:evenodd;stroke:#2b356c;stroke-width:1;stroke-linecap:butt;stroke-linejoin:miter;marker:none;marker-start:none;marker-mid:none;marker-end:none;stroke-miterlimit:4;stroke-dasharray:none;stroke-dashoffset:0;stroke-opacity:1;visibility:visible;display:inline;overflow:visible" />
      <path
         transform="matrix(0.113353,0,0,0.113353,374.0155,444.3991)"
         d="M 255.74053 529.89838 A 21.965445 23.534405 0 1 1  211.80964,529.89838 A 21.965445 23.534405 0 1 1  255.74053 529.89838 z"
         sodipodi:ry="23.534405"
         sodipodi:rx="21.965445"
         sodipodi:cy="529.89838"
         sodipodi:cx="233.77509"
         id="path2216"
         style="opacity:1;color:black;fill:#fa0202;fill-opacity:1;fill-rule:evenodd;stroke:none;stroke-width:10.08032608;stroke-linecap:butt;stroke-linejoin:miter;marker:none;marker-start:none;marker-mid:none;marker-end:none;stroke-miterlimit:4;stroke-dasharray:none;stroke-dashoffset:0;stroke-opacity:1;visibility:visible;display:inline;overflow:visible"
         sodipodi:type="arc" />
    </g>
  </g>
</svg>
