/* XPM */
static char * wormux_32x32_xpm[] = {
"32 32 332 2",
"  	c None",
". 	c #FFD843",
"+ 	c #FFE77E",
"@ 	c #FFD845",
"# 	c #FDCF3C",
"$ 	c #FED53C",
"% 	c #FFD326",
"& 	c #1E1E1E",
"* 	c #222222",
"= 	c #242527",
"- 	c #1E2020",
"; 	c #242424",
"> 	c #B19A46",
", 	c #D6B941",
"' 	c #EDBF3E",
") 	c #EFB740",
"! 	c #FDCB33",
"~ 	c #FFDE62",
"{ 	c #191919",
"] 	c #1E1F1F",
"^ 	c #292929",
"/ 	c #2E2F2F",
"( 	c #2E3031",
"_ 	c #292C2D",
": 	c #282C2D",
"< 	c #2A2B2C",
"[ 	c #272829",
"} 	c #1F2222",
"| 	c #202323",
"1 	c #3C3A31",
"2 	c #9C998F",
"3 	c #D5CDB8",
"4 	c #D5C586",
"5 	c #E6CA5E",
"6 	c #F0C848",
"7 	c #ECBB3E",
"8 	c #FECF2F",
"9 	c #FFDA49",
"0 	c #1A1D1D",
"a 	c #313232",
"b 	c #323436",
"c 	c #303333",
"d 	c #2F3233",
"e 	c #2C2F30",
"f 	c #2C2E2E",
"g 	c #292B2B",
"h 	c #272A2B",
"i 	c #232626",
"j 	c #222526",
"k 	c #27292A",
"l 	c #222322",
"m 	c #67645D",
"n 	c #C4C0B4",
"o 	c #757260",
"p 	c #484436",
"q 	c #6D6240",
"r 	c #AC9B53",
"s 	c #E0C142",
"t 	c #FDD742",
"u 	c #FFDF55",
"v 	c #FFD840",
"w 	c #1C1C1C",
"x 	c #232525",
"y 	c #323434",
"z 	c #333535",
"A 	c #333435",
"B 	c #343636",
"C 	c #353737",
"D 	c #303232",
"E 	c #2C2D2E",
"F 	c #272A2A",
"G 	c #242728",
"H 	c #262828",
"I 	c #55524C",
"J 	c #B2AE9F",
"K 	c #434036",
"L 	c #FFD42B",
"M 	c #FFDE64",
"N 	c #181B1B",
"O 	c #2E3030",
"P 	c #353637",
"Q 	c #363738",
"R 	c #383A3A",
"S 	c #4E4F50",
"T 	c #79797A",
"U 	c #8D8E8E",
"V 	c #898A8A",
"W 	c #787979",
"X 	c #636464",
"Y 	c #3C3F3F",
"Z 	c #2A2C2D",
"` 	c #2A2C2C",
" .	c #99948B",
"..	c #47443A",
"+.	c #1D1F1F",
"@.	c #28292A",
"#.	c #353738",
"$.	c #373839",
"%.	c #3A3C3C",
"&.	c #797A7A",
"*.	c #B8B9B9",
"=.	c #BBBBBB",
"-.	c #B9B9B9",
";.	c #B5B5B5",
">.	c #B1B1B1",
",.	c #ACACAC",
"'.	c #A5A5A5",
").	c #878787",
"!.	c #595A5A",
"~.	c #262A2B",
"{.	c #292B2D",
"].	c #1D2021",
"^.	c #212121",
"/.	c #333536",
"(.	c #3A3B3D",
"_.	c #7F7F7F",
":.	c #BFBFBF",
"<.	c #C1C1C1",
"[.	c #C0C0C0",
"}.	c #BEBEBE",
"|.	c #BABABA",
"1.	c #AFAFAF",
"2.	c #A9A9A9",
"3.	c #A3A3A3",
"4.	c #9D9D9D",
"5.	c #808181",
"6.	c #252728",
"7.	c #1C2021",
"8.	c #191B1C",
"9.	c #232324",
"0.	c #1B1D1D",
"a.	c #393A3B",
"b.	c #717273",
"c.	c #C4C4C4",
"d.	c #ADADAE",
"e.	c #7D7E7E",
"f.	c #979797",
"g.	c #BDBDBD",
"h.	c #B7B7B7",
"i.	c #A4A4A4",
"j.	c #989898",
"k.	c #9A9A9A",
"l.	c #9E9E9E",
"m.	c #545556",
"n.	c #1E2223",
"o.	c #1B1E1E",
"p.	c #303334",
"q.	c #181919",
"r.	c #1B1C1C",
"s.	c #323435",
"t.	c #4A4C4C",
"u.	c #B8B8B8",
"v.	c #C2C2C2",
"w.	c #C8C8C8",
"x.	c #909090",
"y.	c #515151",
"z.	c #535353",
"A.	c #7D7D7D",
"B.	c #3F4040",
"C.	c #545555",
"D.	c #9C9C9C",
"E.	c #999999",
"F.	c #727273",
"G.	c #1F2324",
"H.	c #1A1C1E",
"I.	c #171A1B",
"J.	c #242727",
"K.	c #252929",
"L.	c #292A2A",
"M.	c #313333",
"N.	c #707070",
"O.	c #828282",
"P.	c #565656",
"Q.	c #535454",
"R.	c #48494A",
"S.	c #3E3F3F",
"T.	c #393B3B",
"U.	c #9B9B9B",
"V.	c #8A8A8A",
"W.	c #202424",
"X.	c #1A1D1E",
"Y.	c #16191A",
"Z.	c #191C1D",
"`.	c #313435",
" +	c #2D2F2F",
".+	c #313334",
"++	c #363939",
"@+	c #616162",
"#+	c #C5C5C5",
"$+	c #8E8E8E",
"%+	c #5C5C5C",
"&+	c #7E7E7E",
"*+	c #A0A0A0",
"=+	c #444545",
"-+	c #3E3F40",
";+	c #4C4E4E",
">+	c #929292",
",+	c #1A1D1F",
"'+	c #171A1C",
")+	c #1E2121",
"!+	c #151515",
"~+	c #323333",
"{+	c #3C3D3D",
"]+	c #878888",
"^+	c #BCBCBC",
"/+	c #B3B3B3",
"(+	c #6F6F6F",
"_+	c #575858",
":+	c #8B8B8B",
"<+	c #919191",
"[+	c #454747",
"}+	c #262929",
"|+	c #343737",
"1+	c #2F3232",
"2+	c #3B3C3D",
"3+	c #3F4041",
"4+	c #656767",
"5+	c #B6B6B6",
"6+	c #B2B2B2",
"7+	c #A7A7A7",
"8+	c #A1A1A1",
"9+	c #959595",
"0+	c #8F8F8F",
"a+	c #4F5050",
"b+	c #1A1C1D",
"c+	c #202324",
"d+	c #2F3234",
"e+	c #333636",
"f+	c #373A3A",
"g+	c #3D3D3E",
"h+	c #616262",
"i+	c #525253",
"j+	c #747575",
"k+	c #B4B4B4",
"l+	c #ADADAD",
"m+	c #939393",
"n+	c #888888",
"o+	c #27282A",
"p+	c #1F2223",
"q+	c #313536",
"r+	c #292C2C",
"s+	c #2B2E2E",
"t+	c #2F3132",
"u+	c #464848",
"v+	c #707072",
"w+	c #A8A8A8",
"x+	c #9F9F9F",
"y+	c #696A6A",
"z+	c #2E3131",
"A+	c #1C1F1F",
"B+	c #171A1A",
"C+	c #2E3132",
"D+	c #212222",
"E+	c #2B2D2E",
"F+	c #2C2E2F",
"G+	c #989999",
"H+	c #7F8080",
"I+	c #4B4C4C",
"J+	c #424545",
"K+	c #3B3B3C",
"L+	c #393C3C",
"M+	c #373939",
"N+	c #262829",
"O+	c #1F2122",
"P+	c #282B2C",
"Q+	c #1D1E1F",
"R+	c #434444",
"S+	c #A2A2A2",
"T+	c #4D4E4F",
"U+	c #969696",
"V+	c #26292A",
"W+	c #232526",
"X+	c #1C1E1F",
"Y+	c #181A1B",
"Z+	c #15191A",
"`+	c #181B1C",
" @	c #303233",
".@	c #1E1F20",
"+@	c #181818",
"@@	c #717172",
"#@	c #6E6F6F",
"$@	c #818282",
"%@	c #252829",
"&@	c #1C1F20",
"*@	c #1A1B1C",
"=@	c #151819",
"-@	c #1B1E1F",
";@	c #343738",
">@	c #19191A",
",@	c #202122",
"'@	c #7A7B7B",
")@	c #7D7D7E",
"!@	c #848484",
"~@	c #4C4D4E",
"{@	c #232627",
"]@	c #151A1A",
"^@	c #171818",
"/@	c #323636",
"(@	c #222525",
"_@	c #606162",
":@	c #7E7F7F",
"<@	c #696A6B",
"[@	c #232424",
"}@	c #626363",
"|@	c #505252",
"1@	c #3D3F40",
"2@	c #1B1D1E",
"3@	c #171B1C",
"4@	c #272B2B",
"5@	c #1C1E1E",
"6@	c #2C2F2F",
"7@	c #2B2D2F",
"8@	c #303434",
"9@	c #1F2123",
"0@	c #171919",
"a@	c #2D3030",
"b@	c #323536",
"c@	c #1A1B1B",
"d@	c #191A1A",
"e@	c #353839",
"f@	c #2A2D2E",
"g@	c #333637",
"h@	c #151818",
"i@	c #2B2E2F",
"j@	c #252627",
"k@	c #191B1B",
"l@	c #1C1D1D",
"m@	c #282829",
"n@	c #2D2F30",
"o@	c #1A1C1C",
"p@	c #191C1C",
"q@	c #18191B",
"                                                                ",
"                                                                ",
"                                                                ",
"                                                  .   +         ",
"                                                  @ # $ %       ",
"                    & * = - ;                 > , ' ) ! ~       ",
"              { ] ^ / ( _ : < [ } |     1 2 3 4 5 6 7 8 9       ",
"            0 a b c d e f g h i j k l m n o p q r s t u v       ",
"        w x y z A B C A D ( E F G H I J K         L M           ",
"      N O P Q R S T U V W X Y Z k `  ...< +.                    ",
"      @.#.$.%.&.*.=.-.;.>.,.'.).!.~._ {.]._                     ",
"    ^./.C (._.:.<.[.}.|.;.1.2.3.4.5.6.7.8.h 9.                  ",
"  0.( C a.b.:.c.d.e.f.g.h.i.j.k.l.j.m.n.8.o.p.q.                ",
"  r.s.P t.u.v.w.x.y.z.=.h.A.B.C.D.E.F.G.H.I.J.K.                ",
"  L.M.Q N.=.v.w.O.P.Q.;.'.R.S.T.U.E.V.W.X.Y.Z.`.w               ",
"   +.+++@+|.[.#+$+%+&+}.*+=+-+;+l.j.>+`.,+Y.'+_ )+              ",
"!+~+M.$.{+]+^+[.<.[.:.|./+(+_+:+4.f.<+[+X.Y.I.j }+              ",
"{ |+1+C 2+3+4+2.^+^+|.5+6+,.7+8+U.9+0+a+b+Y.I.c+d+              ",
"  e+( z f+g+h+i+j+1.k+>.l+2.i.l.E.m+n+o+8.Y.I.p+q+              ",
"  r+s+t+u+D.l+1.v+C.0+w+7+3.x+k.V.y+z+A+B+Y.I.j C+              ",
"  D+E+F+G+'.w+2.H+I+J+K+L+M+.+e g N+O+b+Y.Y.I.P+P+              ",
"  Q+c R+D.x+S+3.j+3.*+3+T+9+U+Q.V+W+X+Y+Y.Z+`+ @.@              ",
"  +@.+h >+k.D.@@U+l.4.#@$@U+>+$+%@&@*@Y.=@Y.-@;@>@              ",
"    ,@h  @'@#@2+j.j.f.)@!@<+0+0+~@b+Y.Y.Y.I.{@C+]@              ",
"    ^@/@{@(@J._@>+>+<+:@<@0+0+$+a.Y.Y.Y.Y.X.t+&@                ",
"      [@t+n.p+< n+<+<+}@E+|@1@2@Y.Y.Y.Y.3@P+4@]@                ",
"      5@6@k X+X.-@7@8@9@b+8.B+Y.Y.Y.Y.`+V+p.0@                  ",
"        0@`.a@-@N B+B+Y.Y.Z+Y.Y.Y.I.&@_ b@c@                    ",
"          d@E+e@V+o.I.I.I.I.`+`+].f@g@/@d@                      ",
"            h@+.8@e@( i@_ f@t+;@e@e@j@8.                        ",
"                k@l@m@f 1+.+n@F ,@o@                            ",
"                        p@q@k@                                  "};
