<?xml version="1.0" encoding="UTF-8" standalone="no"?>
<!-- Created with Inkscape (http://www.inkscape.org/) -->
<svg
   xmlns:dc="http://purl.org/dc/elements/1.1/"
   xmlns:cc="http://web.resource.org/cc/"
   xmlns:rdf="http://www.w3.org/1999/02/22-rdf-syntax-ns#"
   xmlns:svg="http://www.w3.org/2000/svg"
   xmlns="http://www.w3.org/2000/svg"
   xmlns:xlink="http://www.w3.org/1999/xlink"
   xmlns:sodipodi="http://inkscape.sourceforge.net/DTD/sodipodi-0.dtd"
   xmlns:inkscape="http://www.inkscape.org/namespaces/inkscape"
   width="32"
   height="64"
   id="svg2"
   sodipodi:version="0.32"
   inkscape:version="0.43"
   sodipodi:docbase="/home/yekcim/Mes dessins/Wormux/Check"
   sodipodi:docname="cancel.svg"
   version="1.0">
  <defs
     id="defs4">
    <linearGradient
       inkscape:collect="always"
       id="linearGradient2236">
      <stop
         style="stop-color:#ffffff;stop-opacity:1;"
         offset="0"
         id="stop2238" />
      <stop
         style="stop-color:#ffffff;stop-opacity:0;"
         offset="1"
         id="stop2240" />
    </linearGradient>
    <linearGradient
       inkscape:collect="always"
       xlink:href="#linearGradient2236"
       id="linearGradient2248"
       gradientUnits="userSpaceOnUse"
       x1="410.08798"
       y1="217.32498"
       x2="544.98535"
       y2="309.70139"
       gradientTransform="matrix(0.117981,0,0,0.117981,2.625828,-28.78846)" />
    <linearGradient
       inkscape:collect="always"
       xlink:href="#linearGradient2236"
       id="linearGradient2250"
       gradientUnits="userSpaceOnUse"
       x1="118.06548"
       y1="235.17014"
       x2="232.72798"
       y2="322.95355"
       gradientTransform="matrix(0.117981,0,0,0.117981,2.625828,-28.78846)" />
    <linearGradient
       inkscape:collect="always"
       xlink:href="#linearGradient2236"
       id="linearGradient1327"
       gradientUnits="userSpaceOnUse"
       gradientTransform="matrix(0.117981,0,0,0.117981,2.625828,-28.78846)"
       x1="118.06548"
       y1="235.17014"
       x2="232.72798"
       y2="322.95355" />
    <linearGradient
       inkscape:collect="always"
       xlink:href="#linearGradient2236"
       id="linearGradient1328"
       gradientUnits="userSpaceOnUse"
       gradientTransform="matrix(0.117981,0,0,0.117981,2.625828,-28.78846)"
       x1="118.06548"
       y1="235.17014"
       x2="232.72798"
       y2="322.95355" />
    <linearGradient
       y2="84.537621"
       x2="-13.921875"
       y1="46.577747"
       x1="-13.921875"
       gradientUnits="userSpaceOnUse"
       id="linearGradient2360"
       xlink:href="#linearGradient2220"
       inkscape:collect="always" />
    <linearGradient
       y2="87.291405"
       x2="-157.28433"
       y1="55.770138"
       x1="-165.14568"
       gradientUnits="userSpaceOnUse"
       id="linearGradient2351"
       xlink:href="#linearGradient2220"
       inkscape:collect="always" />
    <linearGradient
       y2="84.537621"
       x2="-13.921875"
       y1="46.577747"
       x1="-13.921875"
       gradientUnits="userSpaceOnUse"
       id="linearGradient2349"
       xlink:href="#linearGradient2220"
       inkscape:collect="always" />
    <linearGradient
       y2="322.95355"
       x2="232.72798"
       y1="235.17014"
       x1="118.06548"
       gradientTransform="matrix(0.117981,0,0,0.117981,2.625828,-28.78846)"
       gradientUnits="userSpaceOnUse"
       id="linearGradient1368"
       xlink:href="#linearGradient2236"
       inkscape:collect="always" />
    <linearGradient
       y2="309.70139"
       x2="544.98535"
       y1="217.32498"
       x1="410.08798"
       gradientTransform="matrix(0.117981,0,0,0.117981,2.625828,-28.78846)"
       gradientUnits="userSpaceOnUse"
       id="linearGradient1325"
       xlink:href="#linearGradient2236"
       inkscape:collect="always" />
    <linearGradient
       gradientTransform="matrix(0.117981,0,0,0.117981,2.625828,-28.78846)"
       y2="322.95355"
       x2="232.72798"
       y1="235.17014"
       x1="118.06548"
       gradientUnits="userSpaceOnUse"
       id="linearGradient1365"
       xlink:href="#linearGradient2236"
       inkscape:collect="always" />
    <linearGradient
       gradientTransform="matrix(0.117981,0,0,0.117981,2.625828,-28.78846)"
       y2="309.70139"
       x2="544.98535"
       y1="217.32498"
       x1="410.08798"
       gradientUnits="userSpaceOnUse"
       id="linearGradient1363"
       xlink:href="#linearGradient2236"
       inkscape:collect="always" />
    <linearGradient
       id="linearGradient2220"
       inkscape:collect="always">
      <stop
         id="stop2222"
         offset="0"
         style="stop-color:#ffffff;stop-opacity:1;" />
      <stop
         id="stop2224"
         offset="1"
         style="stop-color:#ffffff;stop-opacity:0;" />
    </linearGradient>
    <linearGradient
       inkscape:collect="always"
       xlink:href="#linearGradient2220"
       id="linearGradient1439"
       gradientUnits="userSpaceOnUse"
       x1="-13.921875"
       y1="46.577747"
       x2="-13.921875"
       y2="84.537621" />
    <linearGradient
       inkscape:collect="always"
       xlink:href="#linearGradient2220"
       id="linearGradient1441"
       gradientUnits="userSpaceOnUse"
       x1="-13.921875"
       y1="46.577747"
       x2="-13.921875"
       y2="84.537621" />
    <linearGradient
       inkscape:collect="always"
       xlink:href="#linearGradient2220"
       id="linearGradient1457"
       gradientUnits="userSpaceOnUse"
       x1="-13.921875"
       y1="46.577747"
       x2="-13.921875"
       y2="84.537621" />
    <linearGradient
       inkscape:collect="always"
       xlink:href="#linearGradient2220"
       id="linearGradient1465"
       gradientUnits="userSpaceOnUse"
       x1="-13.921875"
       y1="46.577747"
       x2="-13.921875"
       y2="84.537621" />
    <linearGradient
       inkscape:collect="always"
       xlink:href="#linearGradient2220"
       id="linearGradient1468"
       gradientUnits="userSpaceOnUse"
       x1="-13.921875"
       y1="46.577747"
       x2="-13.921875"
       y2="84.537621"
       gradientTransform="matrix(0.225204,0,0,0.257876,19.1642,19.68732)" />
    <linearGradient
       inkscape:collect="always"
       xlink:href="#linearGradient2220"
       id="linearGradient2369"
       gradientUnits="userSpaceOnUse"
       x1="-13.921875"
       y1="46.577747"
       x2="-13.921875"
       y2="84.537621" />
    <linearGradient
       inkscape:collect="always"
       xlink:href="#linearGradient2220"
       id="linearGradient2376"
       gradientUnits="userSpaceOnUse"
       x1="-13.921875"
       y1="46.577747"
       x2="-13.921875"
       y2="84.537621" />
    <linearGradient
       inkscape:collect="always"
       xlink:href="#linearGradient2220"
       id="linearGradient2379"
       gradientUnits="userSpaceOnUse"
       x1="-13.921875"
       y1="46.577747"
       x2="-13.921875"
       y2="84.537621"
       gradientTransform="matrix(0.225204,0,0,0.257876,19.1642,19.68732)" />
  </defs>
  <sodipodi:namedview
     id="base"
     pagecolor="#ffffff"
     bordercolor="#666666"
     borderopacity="1.0"
     inkscape:pageopacity="0.0"
     inkscape:pageshadow="2"
     inkscape:zoom="7.9195959"
     inkscape:cx="24.814288"
     inkscape:cy="35.634652"
     inkscape:document-units="px"
     inkscape:current-layer="layer1"
     inkscape:window-width="1430"
     inkscape:window-height="821"
     inkscape:window-x="0"
     inkscape:window-y="25" />
  <metadata
     id="metadata7">
    <rdf:RDF>
      <cc:Work
         rdf:about="">
        <dc:format>image/svg+xml</dc:format>
        <dc:type
           rdf:resource="http://purl.org/dc/dcmitype/StillImage" />
      </cc:Work>
    </rdf:RDF>
  </metadata>
  <g
     inkscape:label="Calque 1"
     inkscape:groupmode="layer"
     id="layer1">
    <path
       style="font-size:123.20882416px;font-style:normal;font-variant:normal;font-weight:bold;font-stretch:normal;text-align:start;line-height:125%;writing-mode:lr-tb;text-anchor:start;color:#000000;fill:#ffffff;fill-opacity:1;fill-rule:nonzero;stroke:#ffffff;stroke-width:3.01233673;stroke-linecap:round;stroke-linejoin:round;marker:none;marker-start:none;marker-mid:none;marker-end:none;stroke-miterlimit:4;stroke-dasharray:none;stroke-dashoffset:0;stroke-opacity:1;visibility:visible;display:inline;overflow:visible;font-family:Sans"
       d="M 2.875 33.96875 L 2.875 34.25 L 2.875 36.5 L 2.875 36.78125 L 10.71875 46.75 L 2.5 57.1875 L 2.5 57.4375 L 2.5 59.71875 L 2.5 60 L 9.78125 60 L 16 52.0625 L 22.28125 60 L 29.53125 60 L 29.53125 59.71875 L 29.53125 57.4375 L 29.53125 57.1875 L 29.53125 57.15625 L 29.40625 57.03125 L 21.3125 46.75 L 29.15625 36.78125 L 29.15625 36.5 L 29.15625 34.25 L 29.15625 34 L 29.15625 33.96875 L 21.875 33.96875 L 16 41.4375 L 10.125 33.96875 L 2.875 33.96875 z "
       id="path2357" />
    <g
       id="g2341"
       transform="matrix(0.225204,0,0,0.257876,19.1642,19.68732)"
       style="opacity:0.7">
      <path
         id="path2325"
         d="M -72.375,64.213835 L -72.375,74.057585 L -36.9375,113.21383 L -73.96875,154.21383 L -73.96875,164.05758 L -41.71875,164.05758 L -14.03125,133.30758 L 13.90625,164.05758 L 46.03125,164.05758 L 46.03125,154.12008 L 45.625,153.77633 L 9,113.21383 L 44.40625,74.057585 L 44.4375,64.307585 L 44.15625,64.495085 L 44.40625,64.213835 L 12.09375,64.213835 L -14.03125,93.182585 L -40.1875,64.213835 L -72.375,64.213835 z "
         style="font-size:123.20882416px;font-style:normal;font-variant:normal;font-weight:bold;font-stretch:normal;text-align:start;line-height:125%;writing-mode:lr-tb;text-anchor:start;opacity:0.30447759;color:#000000;fill:#d4d4d4;fill-opacity:1;fill-rule:nonzero;stroke:#000000;stroke-width:12.5;stroke-linecap:round;stroke-linejoin:round;marker:none;marker-start:none;marker-mid:none;marker-end:none;stroke-miterlimit:4;stroke-dasharray:none;stroke-dashoffset:0;stroke-opacity:1;visibility:visible;display:inline;overflow:visible;font-family:Sans" />
      <path
         id="path2309"
         d="M -72.375,56.43566 L -72.375,66.27941 L -36.9375,105.43566 L -73.96875,146.43566 L -73.96875,156.27941 L -41.71875,156.27941 L -14.03125,125.52941 L 13.90625,156.27941 L 46.03125,156.27941 L 46.03125,146.34191 L 45.625,145.99816 L 9,105.43566 L 44.40625,66.27941 L 44.4375,56.52941 L 44.15625,56.71691 L 44.40625,56.43566 L 12.09375,56.43566 L -14.03125,85.40441 L -40.1875,56.43566 L -72.375,56.43566 z "
         style="font-size:123.20882416px;font-style:normal;font-variant:normal;font-weight:bold;font-stretch:normal;text-align:start;line-height:125%;writing-mode:lr-tb;text-anchor:start;opacity:1;color:#000000;fill:none;fill-opacity:1;fill-rule:nonzero;stroke:#68161c;stroke-width:12.5;stroke-linecap:round;stroke-linejoin:round;marker:none;marker-start:none;marker-mid:none;marker-end:none;stroke-miterlimit:4;stroke-dasharray:none;stroke-dashoffset:0;stroke-opacity:1;visibility:visible;display:inline;overflow:visible;font-family:Sans" />
      <g
         style="opacity:1"
         id="g2294">
        <path
           style="font-size:123.20882416px;font-style:normal;font-variant:normal;font-weight:bold;font-stretch:normal;text-align:start;line-height:125%;writing-mode:lr-tb;text-anchor:start;fill:#920a19;fill-opacity:1;stroke:none;stroke-width:1px;stroke-linecap:butt;stroke-linejoin:miter;stroke-opacity:1;font-family:Sans"
           d="M 4.5547993,109.27737 L 46.016724,145.26988 L 46.022443,155.21172 L 13.921042,155.21172 L -14.017582,124.46825 L -41.716047,155.21172 L -73.97755,155.21172 L -73.956044,145.37022 L -32.509911,109.27737 L -72.376485,65.211743 L -72.366898,55.367615 L -14.017582,94.207049 L 44.423549,55.456003 L 44.421376,65.211743 L 4.5547993,109.27737"
           id="path2214"
           sodipodi:nodetypes="ccccccccccccccc" />
        <path
           style="font-size:123.20882416px;font-style:normal;font-variant:normal;font-weight:bold;font-stretch:normal;text-align:start;line-height:125%;writing-mode:lr-tb;text-anchor:start;fill:#d4290b;fill-opacity:1;stroke:none;stroke-width:1px;stroke-linecap:butt;stroke-linejoin:miter;stroke-opacity:1;font-family:Sans"
           d="M 4.5547993,99.428386 L 46.022443,145.36274 L 13.921043,145.36274 L -14.017582,114.61927 L -41.716043,145.36274 L -73.977557,145.36274 L -32.509911,99.428386 L -72.376491,55.362755 L -40.195033,55.362755 L -14.017582,84.358062 L 12.079815,55.362755 L 44.421376,55.362755 L 4.5547993,99.428386"
           id="text2209" />
        <path
           style="font-size:123.20882416px;font-style:normal;font-variant:normal;font-weight:bold;font-stretch:normal;text-align:start;line-height:125%;writing-mode:lr-tb;text-anchor:start;opacity:1;color:#000000;fill:url(#linearGradient1441);fill-opacity:1;fill-rule:nonzero;stroke:none;stroke-width:1px;stroke-linecap:butt;stroke-linejoin:miter;marker:none;marker-start:none;marker-mid:none;marker-end:none;stroke-miterlimit:4;stroke-dasharray:none;stroke-dashoffset:0;stroke-opacity:1;visibility:visible;display:inline;overflow:visible;font-family:Sans"
           d="M 11.152472,60.885987 C 6.1029172,67.489567 -6.2214164,81.707091 -14.03125,90.34375 C -23.31394,79.994158 -31.979546,66.306481 -40.200983,61.142767 C -48.422421,55.979052 -60.865287,57.117979 -58.778806,63.617641 C -56.692325,70.117303 -39.53353,84.742529 -28.96875,98.125 C -28.65873,105.39027 -36.993459,108.38837 -40.232242,113.99259 C -48.436078,123.08881 -56.639914,132.18503 -64.84375,141.28125 C -57.480451,140.77891 -49.052278,142.95421 -42.299431,140.03827 C -32.926034,129.59118 -23.524017,119.103 -14.03125,108.6875 C -4.1498839,119.59646 5.750975,130.48775 15.65625,141.375 C 22.770833,141.375 29.885417,141.375 37,141.375 C 24.364872,127.35239 11.805384,113.47884 -0.8125,99.4375 C 11.243181,86.117842 28.921839,69.64014 32.515323,63.004284 C 36.108806,56.368427 16.202026,54.282408 11.152472,60.885987 z "
           id="path2281"
           sodipodi:nodetypes="cczzcccccccczz" />
      </g>
    </g>
    <g
       id="g1425"
       transform="matrix(0.225204,0,0,0.257876,19.1642,-12.31274)">
      <path
         id="path1427"
         d="M -72.375,64.213835 L -72.375,74.057585 L -36.9375,113.21383 L -73.96875,154.21383 L -73.96875,164.05758 L -41.71875,164.05758 L -14.03125,133.30758 L 13.90625,164.05758 L 46.03125,164.05758 L 46.03125,154.12008 L 45.625,153.77633 L 9,113.21383 L 44.40625,74.057585 L 44.4375,64.307585 L 44.15625,64.495085 L 44.40625,64.213835 L 12.09375,64.213835 L -14.03125,93.182585 L -40.1875,64.213835 L -72.375,64.213835 z "
         style="font-size:123.20882416px;font-style:normal;font-variant:normal;font-weight:bold;font-stretch:normal;text-align:start;line-height:125%;writing-mode:lr-tb;text-anchor:start;opacity:0.30447759;color:#000000;fill:#d4d4d4;fill-opacity:1;fill-rule:nonzero;stroke:#000000;stroke-width:12.5;stroke-linecap:round;stroke-linejoin:round;marker:none;marker-start:none;marker-mid:none;marker-end:none;stroke-miterlimit:4;stroke-dasharray:none;stroke-dashoffset:0;stroke-opacity:1;visibility:visible;display:inline;overflow:visible;font-family:Sans" />
      <path
         id="path1429"
         d="M -72.375,56.43566 L -72.375,66.27941 L -36.9375,105.43566 L -73.96875,146.43566 L -73.96875,156.27941 L -41.71875,156.27941 L -14.03125,125.52941 L 13.90625,156.27941 L 46.03125,156.27941 L 46.03125,146.34191 L 45.625,145.99816 L 9,105.43566 L 44.40625,66.27941 L 44.4375,56.52941 L 44.15625,56.71691 L 44.40625,56.43566 L 12.09375,56.43566 L -14.03125,85.40441 L -40.1875,56.43566 L -72.375,56.43566 z "
         style="font-size:123.20882416px;font-style:normal;font-variant:normal;font-weight:bold;font-stretch:normal;text-align:start;line-height:125%;writing-mode:lr-tb;text-anchor:start;opacity:1;color:#000000;fill:none;fill-opacity:1;fill-rule:nonzero;stroke:#68161c;stroke-width:12.5;stroke-linecap:round;stroke-linejoin:round;marker:none;marker-start:none;marker-mid:none;marker-end:none;stroke-miterlimit:4;stroke-dasharray:none;stroke-dashoffset:0;stroke-opacity:1;visibility:visible;display:inline;overflow:visible;font-family:Sans" />
      <g
         style="opacity:1"
         id="g1431">
        <path
           style="font-size:123.20882416px;font-style:normal;font-variant:normal;font-weight:bold;font-stretch:normal;text-align:start;line-height:125%;writing-mode:lr-tb;text-anchor:start;fill:#920a19;fill-opacity:1;stroke:none;stroke-width:1px;stroke-linecap:butt;stroke-linejoin:miter;stroke-opacity:1;font-family:Sans"
           d="M 4.5547993,109.27737 L 46.016724,145.26988 L 46.022443,155.21172 L 13.921042,155.21172 L -14.017582,124.46825 L -41.716047,155.21172 L -73.97755,155.21172 L -73.956044,145.37022 L -32.509911,109.27737 L -72.376485,65.211743 L -72.366898,55.367615 L -14.017582,94.207049 L 44.423549,55.456003 L 44.421376,65.211743 L 4.5547993,109.27737"
           id="path1433"
           sodipodi:nodetypes="ccccccccccccccc" />
        <path
           style="font-size:123.20882416px;font-style:normal;font-variant:normal;font-weight:bold;font-stretch:normal;text-align:start;line-height:125%;writing-mode:lr-tb;text-anchor:start;fill:#d4290b;fill-opacity:1;stroke:none;stroke-width:1px;stroke-linecap:butt;stroke-linejoin:miter;stroke-opacity:1;font-family:Sans"
           d="M 4.5547993,99.428386 L 46.022443,145.36274 L 13.921043,145.36274 L -14.017582,114.61927 L -41.716043,145.36274 L -73.977557,145.36274 L -32.509911,99.428386 L -72.376491,55.362755 L -40.195033,55.362755 L -14.017582,84.358062 L 12.079815,55.362755 L 44.421376,55.362755 L 4.5547993,99.428386"
           id="path1435" />
        <path
           style="font-size:123.20882416px;font-style:normal;font-variant:normal;font-weight:bold;font-stretch:normal;text-align:start;line-height:125%;writing-mode:lr-tb;text-anchor:start;opacity:1;color:#000000;fill:url(#linearGradient1439);fill-opacity:1;fill-rule:nonzero;stroke:none;stroke-width:1px;stroke-linecap:butt;stroke-linejoin:miter;marker:none;marker-start:none;marker-mid:none;marker-end:none;stroke-miterlimit:4;stroke-dasharray:none;stroke-dashoffset:0;stroke-opacity:1;visibility:visible;display:inline;overflow:visible;font-family:Sans"
           d="M 11.152472,60.885987 C 6.1029172,67.489567 -6.2214164,81.707091 -14.03125,90.34375 C -23.31394,79.994158 -31.979546,66.306481 -40.200983,61.142767 C -48.422421,55.979052 -60.865287,57.117979 -58.778806,63.617641 C -56.692325,70.117303 -39.53353,84.742529 -28.96875,98.125 C -28.65873,105.39027 -36.993459,108.38837 -40.232242,113.99259 C -48.436078,123.08881 -56.639914,132.18503 -64.84375,141.28125 C -57.480451,140.77891 -49.052278,142.95421 -42.299431,140.03827 C -32.926034,129.59118 -23.524017,119.103 -14.03125,108.6875 C -4.1498839,119.59646 5.750975,130.48775 15.65625,141.375 C 22.770833,141.375 29.885417,141.375 37,141.375 C 24.364872,127.35239 11.805384,113.47884 -0.8125,99.4375 C 11.243181,86.117842 28.921839,69.64014 32.515323,63.004284 C 36.108806,56.368427 16.202026,54.282408 11.152472,60.885987 z "
           id="path1437"
           sodipodi:nodetypes="cczzcccccccczz" />
      </g>
    </g>
  </g>
</svg>
