<?xml version="1.0" encoding="UTF-8" standalone="no"?>
<!-- Created with Inkscape (http://www.inkscape.org/) -->
<svg
   xmlns:dc="http://purl.org/dc/elements/1.1/"
   xmlns:cc="http://web.resource.org/cc/"
   xmlns:rdf="http://www.w3.org/1999/02/22-rdf-syntax-ns#"
   xmlns:svg="http://www.w3.org/2000/svg"
   xmlns="http://www.w3.org/2000/svg"
   xmlns:xlink="http://www.w3.org/1999/xlink"
   xmlns:sodipodi="http://inkscape.sourceforge.net/DTD/sodipodi-0.dtd"
   xmlns:inkscape="http://www.inkscape.org/namespaces/inkscape"
   width="16"
   height="32"
   id="svg2"
   sodipodi:version="0.32"
   inkscape:version="0.43"
   sodipodi:docbase="/home/yekcim/Mes dessins/Wormux/Check"
   sodipodi:docname="check.svg"
   version="1.0">
  <defs
     id="defs4">
    <linearGradient
       inkscape:collect="always"
       id="linearGradient2220">
      <stop
         style="stop-color:#ffffff;stop-opacity:1;"
         offset="0"
         id="stop2222" />
      <stop
         style="stop-color:#ffffff;stop-opacity:0;"
         offset="1"
         id="stop2224" />
    </linearGradient>
    <linearGradient
       inkscape:collect="always"
       id="linearGradient2236">
      <stop
         style="stop-color:#ffffff;stop-opacity:1;"
         offset="0"
         id="stop2238" />
      <stop
         style="stop-color:#ffffff;stop-opacity:0;"
         offset="1"
         id="stop2240" />
    </linearGradient>
    <linearGradient
       inkscape:collect="always"
       xlink:href="#linearGradient2236"
       id="linearGradient2248"
       gradientUnits="userSpaceOnUse"
       x1="410.08798"
       y1="217.32498"
       x2="544.98535"
       y2="309.70139"
       gradientTransform="matrix(0.117981,0,0,0.117981,2.625828,-28.78846)" />
    <linearGradient
       inkscape:collect="always"
       xlink:href="#linearGradient2236"
       id="linearGradient2250"
       gradientUnits="userSpaceOnUse"
       x1="118.06548"
       y1="235.17014"
       x2="232.72798"
       y2="322.95355"
       gradientTransform="matrix(0.117981,0,0,0.117981,2.625828,-28.78846)" />
    <linearGradient
       inkscape:collect="always"
       xlink:href="#linearGradient2236"
       id="linearGradient1325"
       gradientUnits="userSpaceOnUse"
       gradientTransform="matrix(0.117981,0,0,0.117981,2.625828,-28.78846)"
       x1="410.08798"
       y1="217.32498"
       x2="544.98535"
       y2="309.70139" />
    <linearGradient
       inkscape:collect="always"
       xlink:href="#linearGradient2236"
       id="linearGradient1327"
       gradientUnits="userSpaceOnUse"
       gradientTransform="matrix(0.117981,0,0,0.117981,2.625828,-28.78846)"
       x1="118.06548"
       y1="235.17014"
       x2="232.72798"
       y2="322.95355" />
    <linearGradient
       inkscape:collect="always"
       xlink:href="#linearGradient2220"
       id="linearGradient2349"
       gradientUnits="userSpaceOnUse"
       x1="-13.921875"
       y1="46.577747"
       x2="-13.921875"
       y2="84.537621" />
    <linearGradient
       inkscape:collect="always"
       xlink:href="#linearGradient2220"
       id="linearGradient2351"
       gradientUnits="userSpaceOnUse"
       x1="-165.14568"
       y1="55.770138"
       x2="-157.28433"
       y2="87.291405" />
    <linearGradient
       inkscape:collect="always"
       xlink:href="#linearGradient2220"
       id="linearGradient2360"
       gradientUnits="userSpaceOnUse"
       x1="-13.921875"
       y1="46.577747"
       x2="-13.921875"
       y2="84.537621" />
  </defs>
  <sodipodi:namedview
     id="base"
     pagecolor="#ffffff"
     bordercolor="#666666"
     borderopacity="1.0"
     inkscape:pageopacity="0.0"
     inkscape:pageshadow="2"
     inkscape:zoom="11.313709"
     inkscape:cx="4.6549083"
     inkscape:cy="6.684422"
     inkscape:document-units="px"
     inkscape:current-layer="layer1"
     inkscape:window-width="1430"
     inkscape:window-height="821"
     inkscape:window-x="0"
     inkscape:window-y="25" />
  <metadata
     id="metadata7">
    <rdf:RDF>
      <cc:Work
         rdf:about="">
        <dc:format>image/svg+xml</dc:format>
        <dc:type
           rdf:resource="http://purl.org/dc/dcmitype/StillImage" />
      </cc:Work>
    </rdf:RDF>
  </metadata>
  <g
     inkscape:label="Calque 1"
     inkscape:groupmode="layer"
     id="layer1">
    <g
       id="g2334"
       transform="matrix(0.116322,0,0,0.13016,27.20967,-6.154946)">
      <path
         id="path2323"
         d="M -138.625,64.620085 L -172.8125,124.12008 L -191.65625,90.713835 L -225.15625,90.713835 L -225.125,90.807585 L -225.15625,100.55758 L -192.6875,155.08883 C -183.05936,167.20808 -162.5703,167.54418 -153,155.08883 L -105.15625,74.463835 L -105.15625,64.713835 L -105.3125,64.870085 L -105.15625,64.620085 L -138.625,64.620085 z "
         style="font-size:111.95822144px;font-style:normal;font-variant:normal;font-weight:bold;font-stretch:normal;text-align:start;line-height:125%;writing-mode:lr-tb;text-anchor:start;opacity:0.30447759;color:#000000;fill:#d4d4d4;fill-opacity:1;fill-rule:nonzero;stroke:#000000;stroke-width:12.5;stroke-linecap:round;stroke-linejoin:round;marker:none;marker-start:none;marker-mid:none;marker-end:none;stroke-miterlimit:4;stroke-dasharray:none;stroke-dashoffset:0;stroke-opacity:1;visibility:visible;display:inline;overflow:visible;font-family:Sans" />
      <path
         id="path2301"
         d="M -138.625,56.84191 L -172.8125,116.34191 L -191.65625,82.93566 L -225.15625,82.93566 L -225.125,83.02941 L -225.15625,92.77941 L -192.6875,147.31066 C -183.05936,159.42991 -162.5703,159.76601 -153,147.31066 L -105.15625,66.68566 L -105.15625,56.93566 L -105.3125,57.09191 L -105.15625,56.84191 L -138.625,56.84191 z "
         style="font-size:111.95822144px;font-style:normal;font-variant:normal;font-weight:bold;font-stretch:normal;text-align:start;line-height:125%;writing-mode:lr-tb;text-anchor:start;opacity:1;color:#000000;fill:none;fill-opacity:1;fill-rule:nonzero;stroke:#336816;stroke-width:12.5;stroke-linecap:round;stroke-linejoin:round;marker:none;marker-start:none;marker-mid:none;marker-end:none;stroke-miterlimit:4;stroke-dasharray:none;stroke-dashoffset:0;stroke-opacity:1;visibility:visible;display:inline;overflow:visible;font-family:Sans" />
      <path
         sodipodi:nodetypes="cccccccc"
         id="path2216"
         d="M -225.14497,91.731559 L -225.13896,81.981957 L -172.80365,125.14163 L -105.14497,55.85948 L -105.14638,65.619126 L -152.99098,146.26079 C -162.56128,158.71614 -183.07471,158.38004 -192.70285,146.26079 L -225.14497,91.731559"
         style="font-size:111.95822144px;font-style:normal;font-variant:normal;font-weight:bold;font-stretch:normal;text-align:start;line-height:125%;writing-mode:lr-tb;text-anchor:start;fill:#3a920a;fill-opacity:1;stroke:none;stroke-width:1px;stroke-linecap:butt;stroke-linejoin:miter;stroke-opacity:1;font-family:Sans" />
      <path
         sodipodi:nodetypes="cccccccc"
         id="path2207"
         d="M -225.14497,81.882572 L -191.66242,81.882572 L -172.80365,115.29265 L -138.62895,55.770139 L -105.14638,55.770139 L -152.99098,136.41181 C -162.56128,148.86716 -183.07471,148.53106 -192.70285,136.41181 L -225.14497,81.882572"
         style="font-size:111.95822144px;font-style:normal;font-variant:normal;font-weight:bold;font-stretch:normal;text-align:start;line-height:125%;writing-mode:lr-tb;text-anchor:start;fill:#52d40b;fill-opacity:1;stroke:none;stroke-width:1px;stroke-linecap:butt;stroke-linejoin:miter;stroke-opacity:1;font-family:Sans" />
      <path
         sodipodi:nodetypes="cczzccczzc"
         id="path2218"
         d="M -169.28125,117.125 C -170.50498,122.05505 -177.13655,119.80554 -177.45505,115.52492 C -182.33892,105.30366 -188.77143,91.855441 -195.38296,86.93566 C -201.9945,82.015879 -214.1858,82.733217 -212.9565,91.428301 C -211.7272,100.12338 -198.60529,120.66533 -186.9375,136.65625 C -176.71589,145.74246 -157.8856,141.88136 -153.0006,128.80768 C -145.55178,115.66338 -137.6021,102.7552 -129.96045,89.701809 C -124.04655,79.728289 -112.57429,67.596437 -113.63296,62.609677 C -114.69164,57.622917 -128.2163,53.052385 -137.72671,62.609677 C -147.23713,72.16697 -158.29167,98.010415 -169.28125,117.125 z "
         style="font-size:111.95822144px;font-style:normal;font-variant:normal;font-weight:bold;font-stretch:normal;text-align:start;line-height:125%;writing-mode:lr-tb;text-anchor:start;fill:url(#linearGradient2351);fill-opacity:1;stroke:none;stroke-width:1px;stroke-linecap:butt;stroke-linejoin:miter;stroke-opacity:1;font-family:Sans" />
    </g>
    <g
       id="g2341"
       transform="matrix(0.116331,0,0,0.129977,9.623389,9.657758)">
      <path
         id="path2325"
         d="M -72.375,64.213835 L -72.375,74.057585 L -36.9375,113.21383 L -73.96875,154.21383 L -73.96875,164.05758 L -41.71875,164.05758 L -14.03125,133.30758 L 13.90625,164.05758 L 46.03125,164.05758 L 46.03125,154.12008 L 45.625,153.77633 L 9,113.21383 L 44.40625,74.057585 L 44.4375,64.307585 L 44.15625,64.495085 L 44.40625,64.213835 L 12.09375,64.213835 L -14.03125,93.182585 L -40.1875,64.213835 L -72.375,64.213835 z "
         style="font-size:123.20882416px;font-style:normal;font-variant:normal;font-weight:bold;font-stretch:normal;text-align:start;line-height:125%;writing-mode:lr-tb;text-anchor:start;opacity:0.30447759;color:#000000;fill:#d4d4d4;fill-opacity:1;fill-rule:nonzero;stroke:#000000;stroke-width:12.5;stroke-linecap:round;stroke-linejoin:round;marker:none;marker-start:none;marker-mid:none;marker-end:none;stroke-miterlimit:4;stroke-dasharray:none;stroke-dashoffset:0;stroke-opacity:1;visibility:visible;display:inline;overflow:visible;font-family:Sans" />
      <path
         id="path2309"
         d="M -72.375,56.43566 L -72.375,66.27941 L -36.9375,105.43566 L -73.96875,146.43566 L -73.96875,156.27941 L -41.71875,156.27941 L -14.03125,125.52941 L 13.90625,156.27941 L 46.03125,156.27941 L 46.03125,146.34191 L 45.625,145.99816 L 9,105.43566 L 44.40625,66.27941 L 44.4375,56.52941 L 44.15625,56.71691 L 44.40625,56.43566 L 12.09375,56.43566 L -14.03125,85.40441 L -40.1875,56.43566 L -72.375,56.43566 z "
         style="font-size:123.20882416px;font-style:normal;font-variant:normal;font-weight:bold;font-stretch:normal;text-align:start;line-height:125%;writing-mode:lr-tb;text-anchor:start;opacity:1;color:#000000;fill:none;fill-opacity:1;fill-rule:nonzero;stroke:#68161c;stroke-width:12.5;stroke-linecap:round;stroke-linejoin:round;marker:none;marker-start:none;marker-mid:none;marker-end:none;stroke-miterlimit:4;stroke-dasharray:none;stroke-dashoffset:0;stroke-opacity:1;visibility:visible;display:inline;overflow:visible;font-family:Sans" />
      <g
         style="opacity:1"
         id="g2294">
        <path
           style="font-size:123.20882416px;font-style:normal;font-variant:normal;font-weight:bold;font-stretch:normal;text-align:start;line-height:125%;writing-mode:lr-tb;text-anchor:start;fill:#920a19;fill-opacity:1;stroke:none;stroke-width:1px;stroke-linecap:butt;stroke-linejoin:miter;stroke-opacity:1;font-family:Sans"
           d="M 4.5547993,109.27737 L 46.016724,145.26988 L 46.022443,155.21172 L 13.921042,155.21172 L -14.017582,124.46825 L -41.716047,155.21172 L -73.97755,155.21172 L -73.956044,145.37022 L -32.509911,109.27737 L -72.376485,65.211743 L -72.366898,55.367615 L -14.017582,94.207049 L 44.423549,55.456003 L 44.421376,65.211743 L 4.5547993,109.27737"
           id="path2214"
           sodipodi:nodetypes="ccccccccccccccc" />
        <path
           style="font-size:123.20882416px;font-style:normal;font-variant:normal;font-weight:bold;font-stretch:normal;text-align:start;line-height:125%;writing-mode:lr-tb;text-anchor:start;fill:#d4290b;fill-opacity:1;stroke:none;stroke-width:1px;stroke-linecap:butt;stroke-linejoin:miter;stroke-opacity:1;font-family:Sans"
           d="M 4.5547993,99.428386 L 46.022443,145.36274 L 13.921043,145.36274 L -14.017582,114.61927 L -41.716043,145.36274 L -73.977557,145.36274 L -32.509911,99.428386 L -72.376491,55.362755 L -40.195033,55.362755 L -14.017582,84.358062 L 12.079815,55.362755 L 44.421376,55.362755 L 4.5547993,99.428386"
           id="text2209" />
        <path
           style="font-size:123.20882416px;font-style:normal;font-variant:normal;font-weight:bold;font-stretch:normal;text-align:start;line-height:125%;writing-mode:lr-tb;text-anchor:start;opacity:1;color:#000000;fill:url(#linearGradient2360);fill-opacity:1;fill-rule:nonzero;stroke:none;stroke-width:1px;stroke-linecap:butt;stroke-linejoin:miter;marker:none;marker-start:none;marker-mid:none;marker-end:none;stroke-miterlimit:4;stroke-dasharray:none;stroke-dashoffset:0;stroke-opacity:1;visibility:visible;display:inline;overflow:visible;font-family:Sans"
           d="M 11.152472,60.885987 C 6.1029172,67.489567 -6.2214164,81.707091 -14.03125,90.34375 C -23.31394,79.994158 -31.979546,66.306481 -40.200983,61.142767 C -48.422421,55.979052 -60.865287,57.117979 -58.778806,63.617641 C -56.692325,70.117303 -39.53353,84.742529 -28.96875,98.125 C -28.65873,105.39027 -36.993459,108.38837 -40.232242,113.99259 C -48.436078,123.08881 -56.639914,132.18503 -64.84375,141.28125 C -57.480451,140.77891 -49.052278,142.95421 -42.299431,140.03827 C -32.926034,129.59118 -23.524017,119.103 -14.03125,108.6875 C -4.1498839,119.59646 5.750975,130.48775 15.65625,141.375 C 22.770833,141.375 29.885417,141.375 37,141.375 C 24.364872,127.35239 11.805384,113.47884 -0.8125,99.4375 C 11.243181,86.117842 28.921839,69.64014 32.515323,63.004284 C 36.108806,56.368427 16.202026,54.282408 11.152472,60.885987 z "
           id="path2281"
           sodipodi:nodetypes="cczzcccccccczz" />
      </g>
    </g>
  </g>
</svg>
