<?xml version="1.0" encoding="UTF-8" standalone="no"?>
<!-- Created with Inkscape (http://www.inkscape.org/) -->
<svg
   xmlns:dc="http://purl.org/dc/elements/1.1/"
   xmlns:cc="http://creativecommons.org/ns#"
   xmlns:rdf="http://www.w3.org/1999/02/22-rdf-syntax-ns#"
   xmlns:svg="http://www.w3.org/2000/svg"
   xmlns="http://www.w3.org/2000/svg"
   xmlns:sodipodi="http://sodipodi.sourceforge.net/DTD/sodipodi-0.dtd"
   xmlns:inkscape="http://www.inkscape.org/namespaces/inkscape"
   width="40"
   height="40"
   id="svg2"
   sodipodi:version="0.32"
   inkscape:version="0.46"
   sodipodi:docname="target.svg"
   inkscape:output_extension="org.inkscape.output.svg.inkscape"
   version="1.0">
  <defs
     id="defs4">
    <linearGradient
       id="linearGradient3315">
      <stop
         style="stop-color:#aa0000;stop-opacity:1;"
         offset="0"
         id="stop3317" />
      <stop
         style="stop-color:#aa0000;stop-opacity:1;"
         offset="1"
         id="stop3319" />
    </linearGradient>
    <inkscape:perspective
       sodipodi:type="inkscape:persp3d"
       inkscape:vp_x="0 : 526.18109 : 1"
       inkscape:vp_y="0 : 1000 : 0"
       inkscape:vp_z="744.09448 : 526.18109 : 1"
       inkscape:persp3d-origin="372.04724 : 350.78739 : 1"
       id="perspective10" />
    <inkscape:perspective
       id="perspective2390"
       inkscape:persp3d-origin="372.04724 : 350.78739 : 1"
       inkscape:vp_z="744.09448 : 526.18109 : 1"
       inkscape:vp_y="0 : 1000 : 0"
       inkscape:vp_x="0 : 526.18109 : 1"
       sodipodi:type="inkscape:persp3d" />
  </defs>
  <sodipodi:namedview
     id="base"
     pagecolor="#ffffff"
     bordercolor="#666666"
     borderopacity="1.0"
     inkscape:pageopacity="0.0"
     inkscape:pageshadow="2"
     inkscape:zoom="3.4707158"
     inkscape:cx="80.764385"
     inkscape:cy="25.820586"
     inkscape:document-units="px"
     inkscape:current-layer="layer1"
     showgrid="false"
     inkscape:window-width="1279"
     inkscape:window-height="949"
     inkscape:window-x="1"
     inkscape:window-y="49" />
  <metadata
     id="metadata7">
    <rdf:RDF>
      <cc:Work
         rdf:about="">
        <dc:format>image/svg+xml</dc:format>
        <dc:type
           rdf:resource="http://purl.org/dc/dcmitype/StillImage" />
      </cc:Work>
    </rdf:RDF>
  </metadata>
  <g
     inkscape:label="Calque 1"
     inkscape:groupmode="layer"
     id="layer1"
     transform="translate(-89.342331,-233.55817)">
    <g
       id="g3806"
       transform="matrix(0.7234444,0,0,0.7234444,22.60673,66.882129)"
       inkscape:export-xdpi="90"
       inkscape:export-ydpi="90"
       inkscape:export-filename="/home/yekcim/Bureau/baz_cible.png">
      <path
         id="path3513"
         d="M 119.89256,238.70973 C 114.88739,238.70973 110.28486,240.18043 106.61131,242.58473 L 103.92381,240.33473 C 103.43066,239.91389 102.78797,239.71093 102.14256,239.77223 C 101.1662,239.85129 100.33785,240.52379 100.04881,241.45973 C 99.845839,242.11696 99.962009,242.79561 100.29881,243.36598 C 100.1994,243.53051 100.10726,243.70798 100.04881,243.89723 C 99.759759,244.83318 100.0683,245.8439 100.83006,246.45973 L 101.64256,247.14723 C 99.507859,249.95085 98.267559,253.24684 98.267559,256.80348 C 98.267559,257.21183 98.297919,257.62047 98.330059,258.02223 C 98.296229,258.43432 98.267559,258.8532 98.267559,259.27223 C 98.267559,262.82888 99.507859,266.12486 101.64256,268.92848 L 100.83006,269.61598 C 100.15829,270.16314 99.837669,271.04367 99.986309,271.89723 C 100.0367,272.18662 100.15409,272.43345 100.29881,272.67848 C 99.798959,273.53158 99.876899,274.65887 100.54881,275.45973 C 101.40313,276.47801 102.90553,276.5953 103.92381,275.74098 L 106.61131,273.49098 C 110.28486,275.89527 114.88739,277.36598 119.89256,277.36598 C 124.89134,277.36598 129.50254,275.92099 133.17381,273.52223 L 135.83006,275.74098 C 136.84834,276.5953 138.38199,276.478 139.23631,275.45973 C 139.90821,274.65888 139.95491,273.53158 139.45506,272.67848 C 139.59978,272.43345 139.71717,272.18661 139.76756,271.89723 C 139.91619,271.04368 139.59558,270.16314 138.92381,269.61598 L 138.14256,268.95973 C 140.28662,266.15191 141.51756,262.83735 141.51756,259.27223 C 141.51756,258.8532 141.48889,258.43432 141.45506,258.02223 C 141.4872,257.62047 141.51756,257.21183 141.51756,256.80348 C 141.51756,253.23837 140.28662,249.92379 138.14256,247.11598 L 138.92381,246.45973 C 139.72584,245.8068 140.01191,244.70698 139.64256,243.74098 C 139.59639,243.62023 139.54959,243.50653 139.48631,243.39723 C 139.88987,242.74448 139.96149,241.91363 139.64256,241.17848 C 139.20952,240.18024 138.15561,239.60742 137.08006,239.77223 C 136.61749,239.83395 136.18303,240.02946 135.83006,240.33473 L 133.17381,242.55348 C 129.50254,240.15472 124.89135,238.70974 119.89256,238.70973 z"
         style="fill:none;fill-opacity:1;fill-rule:evenodd;stroke:#2b0000;stroke-width:2.76455235;stroke-linecap:round;stroke-linejoin:round;marker:none;stroke-miterlimit:4;stroke-dasharray:none;stroke-dashoffset:0;stroke-opacity:1;visibility:visible;display:inline;overflow:visible;enable-background:accumulate" />
      <g
         transform="translate(-1.3985e-2,-1.5485472e-3)"
         id="g3789">
        <path
           style="fill:#550000;fill-opacity:1;fill-rule:evenodd;stroke:none;stroke-width:3.19948506;stroke-linecap:round;stroke-linejoin:round;marker:none;stroke-miterlimit:4;stroke-dasharray:none;stroke-dashoffset:0;stroke-opacity:1;visibility:visible;display:inline;overflow:visible;enable-background:accumulate"
           d="M 119.90655,241.1645 C 107.99359,241.1645 98.269526,249.29883 98.269529,259.26422 C 98.269529,269.2296 107.99359,277.36392 119.90655,277.36394 C 131.81951,277.36394 141.54356,269.2296 141.54356,259.26422 C 141.54356,249.29883 131.8195,241.16451 119.90655,241.1645 z M 119.90655,245.52897 C 128.98593,245.52897 136.27498,251.66916 136.27498,259.26422 C 136.27498,266.85927 128.98593,272.99946 119.90655,272.99946 C 110.82716,272.99946 103.48697,266.85927 103.48697,259.26422 C 103.48696,251.66916 110.82716,245.52897 119.90655,245.52897 z"
           id="path3323" />
        <path
           style="fill:#550000;fill-opacity:1;fill-rule:evenodd;stroke:none;stroke-width:4.78987646;stroke-linecap:round;stroke-linejoin:round;marker:none;stroke-miterlimit:4;stroke-dasharray:none;stroke-dashoffset:0;stroke-opacity:1;visibility:visible;display:inline;overflow:visible;enable-background:accumulate"
           d="M 102.15625,242.21875 C 101.17989,242.29781 100.35007,242.96342 100.06103,243.89936 C 99.771988,244.8353 100.08199,245.85292 100.84375,246.46875 L 106.03125,250.78125 C 106.67073,251.42774 107.62116,251.65636 108.48469,251.37139 C 109.34823,251.08643 109.97591,250.33705 110.10502,249.43692 C 110.23412,248.5368 109.84237,247.64119 109.09375,247.125 L 103.9375,242.78125 C 103.44435,242.36041 102.80166,242.15745 102.15625,242.21875 z"
           id="path3325" />
        <path
           style="fill:#550000;fill-opacity:1;fill-rule:evenodd;stroke:none;stroke-width:4.78987646;stroke-linecap:round;stroke-linejoin:round;marker:none;stroke-miterlimit:4;stroke-dasharray:none;stroke-dashoffset:0;stroke-opacity:1;visibility:visible;display:inline;overflow:visible;enable-background:accumulate"
           d="M 131.96875,267.15625 C 130.99782,267.24643 130.17849,267.91622 129.89704,268.84982 C 129.61558,269.78342 129.9282,270.79445 130.6875,271.40625 L 135.84375,275.75 C 136.86203,276.60432 138.38006,276.4714 139.23438,275.45312 C 140.08869,274.43485 139.95578,272.91682 138.9375,272.0625 L 133.75,267.75 C 133.2618,267.31791 132.61856,267.1035 131.96875,267.15625 z"
           id="path3327" />
        <path
           style="fill:#550000;fill-opacity:1;fill-rule:evenodd;stroke:none;stroke-width:4.78987646;stroke-linecap:round;stroke-linejoin:round;marker:none;stroke-miterlimit:4;stroke-dasharray:none;stroke-dashoffset:0;stroke-opacity:1;visibility:visible;display:inline;overflow:visible;enable-background:accumulate"
           d="M 137.09375,242.21875 C 136.63118,242.28047 136.19672,242.47598 135.84375,242.78125 L 130.6875,247.125 C 129.93888,247.64119 129.54713,248.5368 129.67623,249.43692 C 129.80534,250.33705 130.43302,251.08643 131.29656,251.37139 C 132.16009,251.65636 133.11052,251.42774 133.75,250.78125 L 138.9375,246.46875 C 139.79268,245.79596 140.08691,244.63127 139.65386,243.63305 C 139.22081,242.63482 138.1693,242.05394 137.09375,242.21875 z"
           id="path3329" />
        <path
           style="fill:#550000;fill-opacity:1;fill-rule:evenodd;stroke:none;stroke-width:4.78987646;stroke-linecap:round;stroke-linejoin:round;marker:none;stroke-miterlimit:4;stroke-dasharray:none;stroke-dashoffset:0;stroke-opacity:1;visibility:visible;display:inline;overflow:visible;enable-background:accumulate"
           d="M 107.5,267.15625 C 106.95724,267.18184 106.43931,267.39121 106.03125,267.75 L 100.84375,272.0625 C 99.825475,272.91682 99.692559,274.43485 100.54687,275.45313 C 101.40119,276.4714 102.91922,276.60432 103.9375,275.75 L 109.09375,271.40625 C 109.89022,270.75669 110.18351,269.67141 109.82264,268.70909 C 109.46177,267.74677 108.52719,267.12194 107.5,267.15625 z"
           id="path3331" />
        <path
           style="fill:#550000;fill-opacity:1;fill-rule:evenodd;stroke:none;stroke-width:4;stroke-linecap:round;stroke-linejoin:round;marker:none;stroke-miterlimit:4;stroke-dasharray:none;stroke-dashoffset:0;stroke-opacity:1;visibility:visible;display:inline;overflow:visible;enable-background:accumulate"
           d="M 119.88671,254.91538 C 117.0503,254.91538 114.69057,256.88934 114.69057,259.26204 C 114.69057,261.63473 117.05029,263.6087 119.88671,263.60869 C 122.72311,263.60869 125.08284,261.63473 125.08285,259.26204 C 125.08285,256.88934 122.72313,254.91537 119.88671,254.91538 z M 119.88671,259.22781 C 119.8839,259.22781 119.92762,259.2644 119.92762,259.26204 C 119.92762,259.25967 119.88388,259.29626 119.88671,259.29626 C 119.88952,259.29626 119.84579,259.25967 119.84579,259.26204 C 119.84579,259.2644 119.88954,259.22781 119.88671,259.22781 z"
           id="path3333" />
        <path
           sodipodi:type="arc"
           style="fill:#ffffff;fill-opacity:0.39215686;fill-rule:evenodd;stroke:none;stroke-width:4;stroke-linecap:round;stroke-linejoin:round;marker:none;marker-start:none;marker-mid:none;marker-end:none;stroke-miterlimit:4;stroke-dasharray:none;stroke-dashoffset:0;stroke-opacity:1;visibility:visible;display:inline;overflow:visible;enable-background:accumulate"
           id="path3355"
           sodipodi:cx="87.366074"
           sodipodi:cy="250.88896"
           sodipodi:rx="17.1875"
           sodipodi:ry="12.276786"
           d="M 104.55357,250.88896 A 17.1875,12.276786 0 1 1 70.178574,250.88896 A 17.1875,12.276786 0 1 1 104.55357,250.88896 z"
           transform="matrix(0.9909228,0,0,1.1727464,33.361283,-37.560205)" />
        <path
           style="fill:#aa0000;fill-opacity:1;fill-rule:evenodd;stroke:none;stroke-width:3.19948506;stroke-linecap:round;stroke-linejoin:round;marker:none;stroke-miterlimit:4;stroke-dasharray:none;stroke-dashoffset:0;stroke-opacity:1;visibility:visible;display:inline;overflow:visible;enable-background:accumulate"
           d="M 115.59375,228.625 C 110.57759,228.625 105.9587,230.05492 102.28125,232.46875 L 99.625,230.25 C 99.200513,229.87781 98.65819,229.66752 98.09375,229.65625 C 97.072383,229.63592 96.16501,230.25993 95.8125,231.21875 C 95.459992,232.17757 95.73995,233.26015 96.53125,233.90625 L 98.5625,235.59375 C 95.685295,238.6676 93.968749,242.5294 93.96875,246.71875 C 93.96875,250.91023 95.682661,254.76914 98.5625,257.84375 L 96.53125,259.53125 C 95.859483,260.07842 95.538857,260.92769 95.6875,261.78125 C 95.836142,262.63482 96.43281,263.33713 97.25,263.625 C 98.067191,263.91288 98.97419,263.75944 99.625,263.1875 L 102.3125,260.9375 C 105.98701,263.34413 110.58589,264.81249 115.59375,264.8125 C 120.59254,264.8125 125.20373,263.36751 128.875,260.96875 L 131.53125,263.1875 C 132.18206,263.75945 133.08906,263.91287 133.90625,263.625 C 134.72344,263.33714 135.32011,262.63482 135.46875,261.78125 C 135.61739,260.92769 135.29677,260.07841 134.625,259.53125 L 132.625,257.84375 C 135.50484,254.76914 137.25,250.91022 137.25,246.71875 C 137.25,242.5294 135.5022,238.6676 132.625,235.59375 L 134.625,233.90625 C 135.42703,233.25332 135.7131,232.1535 135.34375,231.1875 C 134.9744,230.2215 134.03305,229.60753 133,229.65625 C 132.45724,229.68184 131.93931,229.89121 131.53125,230.25 L 128.875,232.46875 C 125.2021,230.06605 120.59708,228.625 115.59375,228.625 z M 115.59375,232.96875 C 119.36801,232.96875 122.83323,234.05822 125.59375,235.84375 C 125.42671,236.55105 125.5624,237.33534 126.0625,237.9375 C 126.74963,238.76485 127.86809,238.98364 128.8125,238.59375 C 130.79681,240.8676 131.96875,243.67759 131.96875,246.71875 C 131.96875,249.7552 130.79121,252.54052 128.8125,254.8125 C 128.45045,254.65957 128.05499,254.58713 127.65625,254.625 C 126.68532,254.71518 125.8752,255.3789 125.59375,256.3125 C 125.46597,256.73636 125.45918,257.18258 125.5625,257.59375 C 122.80646,259.36863 119.35557,260.4375 115.59375,260.4375 C 111.82172,260.4375 108.36379,259.37736 105.59375,257.59375 C 105.71248,257.1297 105.67647,256.62682 105.5,256.15625 C 105.13913,255.19393 104.21469,254.59069 103.1875,254.625 C 102.89312,254.63419 102.61169,254.70031 102.34375,254.8125 C 100.3586,252.54164 99.1875,249.75237 99.1875,246.71875 C 99.187495,243.67351 100.37599,240.86922 102.375,238.59375 C 103.31393,238.9683 104.41301,238.75717 105.09375,237.9375 C 105.59385,237.33535 105.76079,236.55105 105.59375,235.84375 C 108.3646,234.05822 111.81948,232.96875 115.59375,232.96875 z M 115.59375,242.375 C 112.75734,242.375 110.375,244.34605 110.375,246.71875 C 110.375,249.09145 112.75733,251.06251 115.59375,251.0625 C 118.43015,251.06251 120.78124,249.09144 120.78125,246.71875 C 120.78125,244.34606 118.43017,242.37499 115.59375,242.375 z M 115.59375,246.6875 C 115.59094,246.6875 115.625,246.72111 115.625,246.71875 C 115.625,246.71639 115.59092,246.75 115.59375,246.75 C 115.59656,246.75 115.53125,246.71638 115.53125,246.71875 C 115.53125,246.72112 115.59658,246.6875 115.59375,246.6875 z"
           transform="translate(4.3071333,10.103074)"
           id="path2396" />
      </g>
      <path
         sodipodi:nodetypes="ccsscscsscscsscscsscccsssc"
         id="path3641"
         d="M 119.90818,243.05342 C 116.13257,243.05342 112.67952,244.11049 109.90818,245.89717 C 109.99605,246.22688 110.03123,246.5807 109.97068,246.92842 C 109.82204,247.78199 109.22537,248.4843 108.40818,248.77217 C 107.83665,248.9735 107.23103,248.90762 106.68943,248.67842 C 104.69529,250.95227 103.50193,253.76226 103.50193,256.80342 C 103.50193,259.83271 104.67819,262.62805 106.65818,264.89717 C 106.9246,264.78044 107.20727,264.69231 107.50193,264.67842 C 108.55169,264.6103 109.53488,265.22617 109.90818,266.20967 C 110.09483,266.70142 110.10587,267.22804 109.97068,267.70967 C 112.73241,269.47384 116.15889,270.52217 119.90818,270.52217 C 123.65342,270.52217 127.09566,269.47039 129.84568,267.70967 C 129.71815,267.24231 129.73375,266.71885 129.90818,266.24092 C 130.26425,265.26528 131.21404,264.64016 132.25193,264.67842 C 132.56708,264.68471 132.87348,264.742 133.15818,264.86592 C 135.11906,262.59996 136.28318,259.82483 136.28318,256.80342 C 136.28318,253.76226 135.11124,250.95227 133.12693,248.67842 C 132.58533,248.90762 131.97971,248.9735 131.40818,248.77217 C 130.59099,248.4843 129.99433,247.782 129.84568,246.92842 C 129.78513,246.58069 129.82031,246.22688 129.90818,245.89717 C 127.14846,244.11356 123.6802,243.05342 119.90818,243.05342 z M 119.90818,252.45967 C 122.7446,252.45966 125.09568,254.43072 125.09568,256.80342 C 125.09568,259.17612 122.74457,261.14717 119.90818,261.14717 C 117.07176,261.14718 114.72069,259.17611 114.72068,256.80342 C 114.72068,254.43073 117.07177,252.45966 119.90818,252.45967 z"
         style="fill:none;fill-opacity:0.68646869;fill-rule:evenodd;stroke:#2b0000;stroke-width:1.38227618;stroke-linecap:round;stroke-linejoin:round;marker:none;marker-start:none;marker-mid:none;marker-end:none;stroke-miterlimit:4;stroke-dasharray:none;stroke-dashoffset:0;stroke-opacity:1;visibility:visible;display:inline;overflow:visible;enable-background:accumulate" />
    </g>
  </g>
</svg>
