<?xml version="1.0" encoding="UTF-8" standalone="no"?>
<!-- Created with Inkscape (http://www.inkscape.org/) -->
<svg
   xmlns:dc="http://purl.org/dc/elements/1.1/"
   xmlns:cc="http://web.resource.org/cc/"
   xmlns:rdf="http://www.w3.org/1999/02/22-rdf-syntax-ns#"
   xmlns:svg="http://www.w3.org/2000/svg"
   xmlns="http://www.w3.org/2000/svg"
   xmlns:sodipodi="http://inkscape.sourceforge.net/DTD/sodipodi-0.dtd"
   xmlns:inkscape="http://www.inkscape.org/namespaces/inkscape"
   width="744.09448819"
   height="1052.3622047"
   id="svg2"
   sodipodi:version="0.32"
   inkscape:version="0.43"
   sodipodi:docbase="/home/toon/prive/schetsen/wormux_leafs"
   sodipodi:docname="birds.svg">
  <defs
     id="defs4" />
  <sodipodi:namedview
     id="base"
     pagecolor="#ffffff"
     bordercolor="#666666"
     borderopacity="1.0"
     inkscape:pageopacity="0.0"
     inkscape:pageshadow="2"
     inkscape:zoom="1.4385546"
     inkscape:cx="313.62619"
     inkscape:cy="121.52306"
     inkscape:document-units="px"
     inkscape:current-layer="layer1"
     inkscape:window-width="1280"
     inkscape:window-height="947"
     inkscape:window-x="0"
     inkscape:window-y="25" />
  <metadata
     id="metadata7">
    <rdf:RDF>
      <cc:Work
         rdf:about="">
        <dc:format>image/svg+xml</dc:format>
        <dc:type
           rdf:resource="http://purl.org/dc/dcmitype/StillImage" />
      </cc:Work>
    </rdf:RDF>
  </metadata>
  <g
     inkscape:label="Layer 1"
     id="layer1"
     inkscape:groupmode="layer">
    <path
       style="opacity:1;color:#000000;fill:#221f6a;fill-opacity:1;fill-rule:nonzero;stroke:none;stroke-width:5;stroke-linecap:butt;stroke-linejoin:bevel;marker:none;marker-start:none;marker-mid:none;marker-end:none;stroke-miterlimit:4;stroke-dasharray:none;stroke-dashoffset:0;stroke-opacity:1;visibility:visible;display:inline;overflow:visible"
       d="M 495.62341,1041.5236 C 490.0527,1041.6043 484.52359,1044.5074 480,1046.8989 C 488.83081,1044.9932 498.63892,1043.5753 501.99687,1052.3494 C 501.99753,1052.3512 501.99621,1052.354 501.99687,1052.3557 L 501.99687,1052.362 C 501.99714,1052.3627 502.00286,1052.3613 502.00313,1052.362 L 502.00313,1052.3494 C 505.36109,1043.5753 515.16919,1044.9994 524,1046.9052 C 517.74172,1043.5966 509.55922,1039.3091 502.00313,1042.8705 C 502.00152,1042.8698 501.99848,1042.8713 501.99687,1042.8705 C 499.90239,1041.8833 497.75972,1041.4926 495.62341,1041.5236 z "
       id="path1317" />
    <path
       style="color:#000000;fill:#221f6a;fill-opacity:1;fill-rule:nonzero;stroke:none;stroke-width:5;stroke-linecap:butt;stroke-linejoin:bevel;marker:none;marker-start:none;marker-mid:none;marker-end:none;stroke-miterlimit:4;stroke-dasharray:none;stroke-dashoffset:0;stroke-opacity:1;visibility:visible;display:inline;overflow:visible"
       d="M 3.570077,1036.3424 C 2.4492575,1036.35 1.2631726,1036.4435 0,1036.6306 C 7.4143734,1037.7559 18.674369,1043.5685 21.996898,1052.3494 C 21.997551,1052.3512 21.996246,1052.354 21.996898,1052.3557 L 21.996898,1052.362 C 21.997166,1052.3627 22.002825,1052.3613 22.003092,1052.362 L 22.003092,1052.3494 C 25.325631,1043.5685 36.585617,1037.7559 44,1036.6306 C 34.491149,1035.222 29.474786,1039.3054 22.003092,1042.8705 C 22.001499,1042.8698 21.998501,1042.8713 21.996898,1042.8705 C 15.517649,1039.779 10.886567,1036.2932 3.570077,1036.3424 z "
       id="path2273" />
    <path
       style="color:#000000;fill:#221f6a;fill-opacity:1;fill-rule:nonzero;stroke:none;stroke-width:5;stroke-linecap:butt;stroke-linejoin:bevel;marker:none;marker-start:none;marker-mid:none;marker-end:none;stroke-miterlimit:4;stroke-dasharray:none;stroke-dashoffset:0;stroke-opacity:1;visibility:visible;display:inline;overflow:visible"
       d="M 147.45948,1036.4364 C 146.37007,1036.4528 145.22208,1036.5468 143.99999,1036.7309 C 151.42965,1037.8258 162.67344,1043.5685 165.99689,1052.3494 C 165.99755,1052.3512 165.99624,1052.354 165.99689,1052.3557 L 165.99689,1052.362 C 165.99716,1052.3627 166.00282,1052.3613 166.00309,1052.362 L 166.00309,1052.3494 C 169.32654,1043.5685 180.57034,1037.8321 187.99999,1036.7371 C 178.52167,1035.3095 173.47691,1039.3054 166.00309,1042.8705 C 166.00149,1042.8698 165.99849,1042.8713 165.99689,1042.8705 C 159.4866,1039.7651 154.81949,1036.326 147.45948,1036.4364 z "
       id="path2275" />
    <path
       style="color:#000000;fill:#221f6a;fill-opacity:1;fill-rule:nonzero;stroke:none;stroke-width:5;stroke-linecap:butt;stroke-linejoin:bevel;marker:none;marker-start:none;marker-mid:none;marker-end:none;stroke-miterlimit:4;stroke-dasharray:none;stroke-dashoffset:0;stroke-opacity:1;visibility:visible;display:inline;overflow:visible"
       d="M 51.919387,1036.7058 C 50.692009,1036.7134 49.392866,1036.8237 48,1037.0441 C 55.471362,1038.0481 66.67256,1043.5687 69.996903,1052.3494 C 69.997556,1052.3512 69.99625,1052.354 69.996903,1052.3557 L 69.996903,1052.362 C 69.99717,1052.3627 70.002833,1052.3613 70.0031,1052.362 L 70.0031,1052.3494 C 73.327452,1043.5687 84.528638,1038.0481 92,1037.0441 C 82.618641,1035.5595 77.479065,1039.3055 70.0031,1042.8705 C 70.001506,1042.8698 69.998497,1042.8713 69.996903,1042.8705 C 63.630798,1039.8348 58.958886,1036.6621 51.919387,1036.7058 z "
       id="path2277" />
    <path
       style="color:#000000;fill:#221f6a;fill-opacity:1;fill-rule:nonzero;stroke:none;stroke-width:5;stroke-linecap:butt;stroke-linejoin:bevel;marker:none;marker-start:none;marker-mid:none;marker-end:none;stroke-miterlimit:4;stroke-dasharray:none;stroke-dashoffset:0;stroke-opacity:1;visibility:visible;display:inline;overflow:visible"
       d="M 100.24425,1037.1506 C 98.915515,1037.1663 97.513078,1037.2986 96.000002,1037.5578 C 103.54161,1038.4103 114.67074,1043.5691 117.99689,1052.3494 C 117.99755,1052.3512 117.99624,1052.354 117.99689,1052.3557 L 117.99689,1052.362 C 117.99716,1052.3627 118.00283,1052.3613 118.00309,1052.362 L 118.00309,1052.3494 C 121.32924,1043.5691 132.45838,1038.4103 140,1037.5578 C 130.77945,1035.9782 125.4834,1039.3057 118.00309,1042.8705 C 118.00146,1042.8698 117.99853,1042.8713 117.99689,1042.8705 C 111.7441,1039.8907 107.01269,1037.0708 100.24425,1037.1506 z "
       id="path2279" />
    <path
       style="color:#000000;fill:#221f6a;fill-opacity:1;fill-rule:nonzero;stroke:none;stroke-width:5;stroke-linecap:butt;stroke-linejoin:bevel;marker:none;marker-start:none;marker-mid:none;marker-end:none;stroke-miterlimit:4;stroke-dasharray:none;stroke-dashoffset:0;stroke-opacity:1;visibility:visible;display:inline;overflow:visible"
       d="M 196.91787,1037.7521 C 195.38565,1037.7738 193.75708,1037.9375 192,1038.2721 C 199.63947,1038.9123 210.67161,1043.5695 214,1052.3494 C 214.00066,1052.3512 213.99935,1052.354 214,1052.3557 L 214,1052.362 C 214.00027,1052.3627 214.00594,1052.3613 214.00621,1052.362 L 214.00621,1052.3494 C 217.33461,1043.5695 228.36054,1038.9186 236,1038.2783 C 227.00582,1036.5657 221.49178,1039.306 214.00621,1042.8705 C 214.00451,1042.8697 214.0017,1042.8713 214,1042.8705 C 207.97678,1040.0024 203.22882,1037.6623 196.91787,1037.7521 z "
       id="path2281" />
    <path
       style="color:#000000;fill:#221f6a;fill-opacity:1;fill-rule:nonzero;stroke:none;stroke-width:5;stroke-linecap:butt;stroke-linejoin:bevel;marker:none;marker-start:none;marker-mid:none;marker-end:none;stroke-miterlimit:4;stroke-dasharray:none;stroke-dashoffset:0;stroke-opacity:1;visibility:visible;display:inline;overflow:visible"
       d="M 246.23423,1038.4727 C 244.29724,1038.4831 242.24439,1038.7137 240.00001,1039.1995 C 247.76612,1039.567 258.66536,1043.5704 261.9969,1052.3497 L 261.9969,1052.3622 C 261.99789,1052.3596 262.00214,1052.3585 262.00312,1052.3559 C 262.0038,1052.3541 262.00244,1052.3515 262.00312,1052.3497 C 265.33497,1043.5708 276.2341,1039.567 284.00001,1039.1995 C 275.29648,1037.3158 269.49626,1039.3065 262.00312,1042.8707 C 262.00144,1042.8699 261.99858,1042.8715 261.9969,1042.8707 C 256.43603,1040.2256 251.80873,1038.443 246.23423,1038.4727 z "
       id="path2283" />
    <path
       style="color:#000000;fill:#221f6a;fill-opacity:1;fill-rule:nonzero;stroke:none;stroke-width:5;stroke-linecap:butt;stroke-linejoin:bevel;marker:none;marker-start:none;marker-mid:none;marker-end:none;stroke-miterlimit:4;stroke-dasharray:none;stroke-dashoffset:0;stroke-opacity:1;visibility:visible;display:inline;overflow:visible"
       d="M 295.46091,1039.2682 C 293.12159,1039.3119 290.6742,1039.6628 288.00001,1040.3332 C 295.92041,1040.3673 306.66145,1043.5714 309.9969,1052.3494 C 309.99759,1052.3512 309.99622,1052.3539 309.9969,1052.3557 L 309.9969,1052.362 C 309.9972,1052.3627 310.00282,1052.3612 310.00312,1052.362 L 310.00312,1052.3494 C 313.33858,1043.5714 324.07961,1040.3673 332.00001,1040.3332 C 323.6532,1038.2406 317.5049,1039.3067 310.00312,1042.8705 C 310.00152,1042.8698 309.9985,1042.8713 309.9969,1042.8705 C 304.89849,1040.4484 300.42326,1039.1755 295.46091,1039.2682 z "
       id="path2285" />
    <path
       style="color:#000000;fill:#221f6a;fill-opacity:1;fill-rule:nonzero;stroke:none;stroke-width:5;stroke-linecap:butt;stroke-linejoin:bevel;marker:none;marker-start:none;marker-mid:none;marker-end:none;stroke-miterlimit:4;stroke-dasharray:none;stroke-dashoffset:0;stroke-opacity:1;visibility:visible;display:inline;overflow:visible"
       d="M 345.64624,1040.0325 C 342.56118,1040.081 339.40596,1040.6621 336.00001,1041.6676 C 344.10407,1041.3077 354.65692,1043.5723 357.9969,1052.3494 C 357.99758,1052.3512 357.99621,1052.3539 357.9969,1052.3557 L 357.9969,1052.362 C 357.9972,1052.3627 358.00282,1052.3612 358.00312,1052.362 L 358.00312,1052.3494 C 361.3431,1043.5723 371.89595,1041.3077 380.00001,1041.6676 C 372.07532,1039.3281 365.51559,1039.3073 358.00312,1042.8705 C 358.00152,1042.8698 357.9985,1042.8713 357.9969,1042.8705 C 353.71302,1040.8386 349.73942,1039.9681 345.64624,1040.0325 z "
       id="path2287" />
    <path
       style="color:#000000;fill:#221f6a;fill-opacity:1;fill-rule:nonzero;stroke:none;stroke-width:5;stroke-linecap:butt;stroke-linejoin:bevel;marker:none;marker-start:none;marker-mid:none;marker-end:none;stroke-miterlimit:4;stroke-dasharray:none;stroke-dashoffset:0;stroke-opacity:1;visibility:visible;display:inline;overflow:visible"
       d="M 396.15945,1040.6778 C 392.12894,1040.7077 388.12605,1041.7527 384,1043.2088 C 392.31716,1042.3942 402.65146,1043.5734 405.99688,1052.3494 C 405.99757,1052.3512 405.99619,1052.3539 405.99688,1052.3557 L 405.99688,1052.362 C 405.99718,1052.3627 406.00282,1052.3612 406.00312,1052.362 L 406.00312,1052.3494 C 409.34855,1043.5734 419.68284,1042.3943 428,1043.2088 C 420.56324,1040.5843 413.52859,1039.3079 406.00312,1042.8705 C 406.00143,1042.8697 405.99857,1042.8713 405.99688,1042.8705 C 402.64659,1041.2844 399.39359,1040.6538 396.15945,1040.6778 z "
       id="path2289" />
    <path
       style="color:#000000;fill:#221f6a;fill-opacity:1;fill-rule:nonzero;stroke:none;stroke-width:5;stroke-linecap:butt;stroke-linejoin:bevel;marker:none;marker-start:none;marker-mid:none;marker-end:none;stroke-miterlimit:4;stroke-dasharray:none;stroke-dashoffset:0;stroke-opacity:1;visibility:visible;display:inline;overflow:visible"
       d="M 445.97867,1041.1667 C 441.16082,1041.2492 436.4368,1043.0505 431.99999,1044.9507 C 440.56004,1043.6209 450.64505,1043.5686 453.99687,1052.3434 L 453.99687,1052.3622 C 453.99779,1052.3597 454.00219,1052.3584 454.00311,1052.3559 L 454.00311,1052.3497 C 457.35467,1043.5742 467.43972,1043.6208 475.99999,1044.9507 C 469.11776,1042.0031 461.54391,1039.3086 454.00311,1042.8707 C 454.00151,1042.87 453.99847,1042.8715 453.99687,1042.8707 C 451.31737,1041.605 448.63419,1041.1212 445.97867,1041.1667 z "
       id="path2291" />
  </g>
</svg>
